<?xml version="1.0" encoding="utf-8" standalone="no"?>
<!DOCTYPE svg PUBLIC "-//W3C//DTD SVG 1.1//EN"
  "http://www.w3.org/Graphics/SVG/1.1/DTD/svg11.dtd">
<!-- Created with matplotlib (http://matplotlib.org/) -->
<svg height="432pt" version="1.1" viewBox="0 0 576 432" width="576pt" xmlns="http://www.w3.org/2000/svg" xmlns:xlink="http://www.w3.org/1999/xlink">
 <defs>
  <style type="text/css">
*{stroke-linecap:butt;stroke-linejoin:round;}
  </style>
 </defs>
 <g id="figure_1">
  <g id="patch_1">
   <path d="
M0 432
L576 432
L576 0
L0 0
z
" style="fill:#ffffff;"/>
  </g>
  <g id="axes_1">
   <g id="patch_2">
    <path d="
M72 388.8
L518.4 388.8
L518.4 43.2
L72 43.2
z
" style="fill:#ffffff;"/>
   </g>
   <g id="line2d_1">
    <path clip-path="url(#p7ff5b81e1d)" d="
M72 71.0976
L74.6974 341.36
L75.076 302.685
L77.1635 295.829
L78.3623 274.354
L82.1136 289.257
L82.4909 266.543
L85.1105 259.963
L85.2556 240.038
L90.7368 254.805
L90.7381 237.434
L90.9089 223.353
L92.3129 222.804
L93.5609 213.544
L96.946 219.559
L97.1143 208.69
L97.6467 197.701
L97.6492 173.285
L100.437 179.187
L101.244 171.275
L105.412 178.821
L105.412 143.73
L106.271 136.106
L107.511 134.198
L107.511 122.962
L110.022 130.601
L114.089 147.366
L116.762 152.035
L118.31 150.06
L118.311 141.425
L119.648 142.052
L120.947 142.804
L123.103 144.755
L124.236 144.525
L127.714 157.327
L127.844 153.037
L128.478 158.038
L130.11 166.295
L132.826 186.933
L137.27 207.076
L144.917 237.876
L145.118 234.528
L145.556 230.898
L147.466 232.617
L148.01 231.825
L148.012 223.266
L148.22 220.231
L149.329 216.89
L149.42 213.483
L149.711 210.311
L149.711 206.236
L151.712 209.658
L153.529 211.767
L153.807 208.729
L154.649 207.254
L155.228 205.995
L155.7 203.871
L156.095 201.112
L156.883 199.207
L157.763 199.804
L158.091 197.414
L158.73 195.543
L159.03 193.022
L161.966 197.598
L162.153 195.129
L164.433 196.767
L165.105 195.668
L166.549 196.273
L167.25 195.152
L167.94 193.67
L169.803 194.357
L170.732 193.879
L171.532 192.908
L173.834 195.613
L174.377 190.717
L174.521 185.179
L174.939 183.346
L175.19 180.704
L175.648 178.933
L176.545 178.287
L176.749 176.264
L177.088 174.513
L178.155 175.823
L178.227 173.213
L180.199 176.194
L180.199 173.357
L180.447 168.668
L181.328 168.875
L182.138 165.807
L183.39 166.68
L184.468 167.899
L185.338 167.911
L185.874 167.048
L185.874 164.414
L186.336 162.929
L187.165 162.587
L187.589 161.232
L188.161 160.268
L191.663 167.701
L192.754 168.729
L193.483 167.737
L193.645 160.87
L194.378 160.246
L194.941 159.546
L195.054 157.574
L195.379 156.337
L195.379 153.951
L197.132 157.321
L198.59 158.664
L198.59 156.34
L200.825 161.12
L201.911 161.655
L203.672 164.075
L203.672 161.871
L204.174 160.98
L205.389 162.109
L208.867 168.118
L210.849 171.251
L210.945 169.352
L211.292 167.898
L212.503 169.176
L213.579 168.935
L213.813 167.745
L214.631 166.98
L214.761 165.646
L215.638 165.917
L215.724 162.346
L218.249 167.162
L219.993 167.082
L220.193 165.465
L221.085 165.487
L221.989 165.765
L222.328 164.775
L225.276 169.849
L225.281 166.217
L226.487 167.087
L226.834 165.911
L227.016 164.627
L227.02 162.873
L228.316 163.885
L228.983 163.64
L229.269 162.581
L230.897 163.748
L231.266 162.858
L231.518 161.381
L234.047 165.094
L234.477 164.492
L236.592 166.814
L237.207 166.319
L238.117 166.471
L239.008 166.395
L239.008 164.76
L240.68 166.254
L241.138 165.588
L241.266 162.675
L242.991 164.494
L243.167 163.216
L243.167 161.642
L246.269 165.651
L248.17 167.825
L249.174 168.073
L251.768 171.039
L251.768 169.543
L252.282 168.774
L253.116 168.731
L253.116 167.239
L253.492 166.541
L254.007 166.284
L254.007 164.806
L254.569 164.424
L255.331 164.555
L256.856 166.559
L256.856 165.114
L261.282 171.986
L262.861 173.153
L263.726 173.145
L264.203 172.912
L264.36 168.896
L266.023 170.645
L270.097 175.507
L271.202 174.592
L274.432 178.255
L274.432 176.96
L275.423 177.522
L275.786 176.908
L276.967 177.918
L278.077 178.656
L278.782 178.272
L278.835 177.313
L281.112 178.901
L281.551 178.206
L283.804 180.401
L283.823 178.009
L284.505 177.642
L284.614 176.623
L285.462 176.706
L285.61 175.669
L285.92 174.949
L287.492 176.256
L287.521 175.089
L287.911 174.333
L288.326 173.774
L288.459 172.849
L288.459 171.67
L288.85 171.096
L289.731 171.283
L290.155 170.727
L292.511 172.447
L293.186 172.153
L293.4 171.382
L294.653 171.947
L297.836 174.606
L300.523 177.045
L302.772 178.42
L302.924 177.537
L304.382 178.515
L306.031 179.318
L306.031 174.955
L306.436 173.27
L307.532 173.519
L307.598 172.558
L311.015 175.377
L311.143 174.528
L311.963 174.429
L312.501 174.166
L312.501 172.059
L313.764 172.838
L313.764 171.788
L314.783 172.169
L315.112 171.511
L315.112 170.473
L317.723 173.375
L317.923 172.48
L318.795 172.749
L318.89 171.989
L319.081 171.414
L319.696 171.093
L320.882 172.069
L321.125 171.315
L321.992 171.542
L321.992 170.551
L322.169 169.984
L322.254 167.258
L322.713 166.968
L325.666 169.591
L326.58 169.853
L327.047 169.495
L328.159 170.041
L328.262 167.447
L328.867 167.326
L331.397 170.077
L331.397 169.136
L331.864 168.813
L331.902 167.939
L332.355 167.774
L333.137 168.038
L333.176 166.24
L337.407 172.926
L337.935 172.735
L338.61 173.229
L340.817 175.596
L341.232 174.594
L342.613 176.044
L342.618 175.165
L344.848 177.142
L345 174.865
L345.709 175.035
L345.709 174.165
L348.078 176.528
L348.555 176.288
L349.546 176.848
L349.546 176
L350.665 176.46
L359.504 185.084
L359.504 183.463
L360.099 183.444
L363.634 186.135
L364.349 186.468
L364.654 186.04
L364.673 184.502
L365.564 184.924
L365.736 183.649
L366.193 183.591
L366.441 183.096
L367.017 183.275
L367.098 182.65
L367.942 182.214
L368.227 181.707
L370.176 183.788
L370.3 181.639
L371.024 181.915
L371.062 180.457
L372.311 181.15
L372.33 180.42
L373.006 180.685
L373.526 180.603
L373.893 180.315
L374.436 180.23
L375.975 181.415
L378.424 183.871
L378.872 183.545
L378.872 182.809
L379.729 182.986
L379.924 182.588
L381.082 183.128
L382.026 182.857
L382.102 182.384
L382.95 182.837
L382.95 180.697
L383.889 180.481
L384.427 180.505
L384.727 180.015
L384.727 178.589
L388.575 180.407
L388.575 179.71
L389.468 179.785
L389.849 179.281
L393.57 181.114
L394.361 180.332
L395.276 180.387
L397.077 181.002
L401.719 183.038
L402.723 182.883
L403.123 182.403
L403.676 182.029
L405.452 182.391
L405.505 181.793
L416.413 188.038
L416.708 187.532
L418.179 188.049
L418.179 187.396
L419.589 187.789
L422.162 189.032
L422.836 188.993
L423.058 188.453
L425.669 189.707
L425.669 187.792
L426.33 187.602
L428.305 188.651
L428.337 188.074
L428.674 187.708
L429.271 187.587
L430.935 188.232
L431.425 188.047
L432.511 188.523
L432.733 188.017
L432.79 187.436
L433.21 187.178
L433.21 186.556
L433.362 185.467
L433.362 184.85
L435.217 186.101
L435.948 185.374
L436.608 185.373
L439.601 187.512
L439.601 186.913
L440.484 186.439
L440.484 185.835
L440.903 185.652
L443.311 186.225
L445.667 187.688
L448.062 189.504
L448.062 188.915
L448.38 188.624
L450.254 189.615
L450.508 189.193
L451.429 189.366
L451.429 188.784
L451.575 188.419
L451.575 187.837
L451.976 187.615
L452.96 187.899
L452.96 187.322
L453.367 187.123
L453.526 186.698
L453.901 186.524
L455.209 186.513
L456.995 187.78
L457.395 187.66
L457.395 187.103
L457.626 186.831
L459.497 187.876
L460.183 187.831
L460.183 187.283
L460.38 186.445
L460.882 185.733
L460.882 185.17
L462.553 186.031
L462.617 185.546
L465.196 185.81
L465.323 185.422
L465.679 185.166
L465.748 183.036
L465.825 182.587
L466.339 182.52
L467.476 182.927
L467.591 182.508
L468.201 182.573
L468.201 182.028
L469.363 181.931
L469.389 180.867
L469.566 180.585
L470.443 180.901
L470.862 180.134
L470.862 179.597
L471.784 179.814
L472.108 179.566
L472.743 179.662
L472.959 179.253
L473.41 179.084
L473.886 178.411
L473.963 177.959
L474.153 177.694
L474.153 176.082
L474.742 175.477
L475.035 175.725
L475.341 175.58
L475.341 175.043
L475.703 174.925
L475.856 174.57
L476.142 174.224
L476.605 174.194
L476.72 173.767
L476.815 172.371
L476.84 171.368
L477.107 171.071
L477.241 170.673
L477.349 169.272
L477.546 168.86
L477.546 166.74
L478.975 167.744
L478.975 166.695
L479.14 166.356
L479.14 165.833
L480.836 167.061
L481.179 166.788
L481.662 166.736
L481.878 166.528
L482.342 166.415
L482.342 164.857
L483.18 165.154
L483.225 164.709
L483.727 164.612
L484.095 163.916
L484.095 163.401
L484.534 163.232
L484.635 162.874
L485.798 163.286
L485.969 162.995
L485.969 161.969
L486.782 161.881
L487.723 162.371
L487.786 161.907
L489.4 162.578
L491.884 164.204
L491.884 163.698
L492.138 163.338
L492.138 162.328
L493.173 162.354
L493.173 161.85
L493.345 161.58
L494.711 161.958
L495.003 161.65
L496.839 162.48
L497.169 162.247
L497.169 161.751
L498.084 161.942
L498.147 161.025
L498.827 161.238
L499.482 160.193
L499.482 159.701
L500.13 159.821
L500.48 159.62
L500.48 158.635
L500.638 158.316
L501.063 158.229
L501.133 156.822
L501.94 156.472
L503.852 157.071
L504.113 156.8
L504.989 157.049
L505.447 156.939
L505.701 154.317
L508.413 155.316
L508.445 154.376
L509.341 154.832
L509.341 154.354
L510.021 154.439
L510.948 154.786
L511.368 154.684
L512.085 154.969
L512.759 154.943
L513.032 154.335
L513.35 154.122
L513.489 153.787
L514.15 153.852
L514.214 152.984
L514.76 153.015
L515.281 150.657
L515.624 150.409
L515.732 150.035
L516.615 150.223
L516.831 149.875
L517.771 150.275
L517.771 149.814
L517.771 149.814" style="fill:none;stroke:#ff0000;stroke-linecap:square;"/>
   </g>
   <g id="line2d_2">
    <path clip-path="url(#p7ff5b81e1d)" d="
M72.4676 311.204
L72.6864 243.968
L74.6157 287.725
L74.6923 244.301
L77.1635 260.256
L78.3623 241.355
L78.6364 213.661
L81.504 227.61
L82.1136 214.788
L90.7387 256.665
L94.7911 266.096
L94.9655 251.117
L96.9361 247.438
L96.946 219.553
L97.1137 208.487
L97.1143 194.341
L97.6473 184.308
L97.6492 159.351
L107.511 201.756
L111.44 213.735
L111.44 203.589
L118.31 222.049
L118.311 213.327
L120.947 218.758
L128.636 243.089
L128.636 236.216
L128.882 233.23
L130.501 234.985
L132.808 246.464
L136.425 258.925
L138.888 262.723
L139.319 259.97
L140.26 257.828
L145.684 272.124
L147.494 272.016
L148.01 270.518
L148.1 262.733
L148.252 258.721
L151.041 263.668
L152.565 263.503
L153.477 262.159
L161.966 277.801
L162.48 275.262
L162.48 271.803
L163.518 269.986
L163.542 266.715
L166.248 268.506
L166.549 265.862
L167.94 265.395
L169.803 264.936
L171.532 265.238
L174.777 267.869
L174.939 265.25
L175.648 263.321
L176.122 261.277
L176.759 259.631
L177.116 257.554
L181.166 263.717
L183.553 265.889
L183.901 263.899
L185.338 264.247
L190.752 271.351
L191.362 269.91
L191.434 267.674
L192.129 263.788
L192.215 258.997
L192.377 256.927
L194.569 258.299
L195.112 256.935
L195.574 255.453
L196.908 255.951
L197.132 254.088
L199.071 255.015
L199.09 252.751
L200.844 254.285
L202.411 254.852
L203.56 254.49
L205.389 255.575
L207.228 256.217
L208.191 255.791
L209.487 255.702
L209.487 253.613
L210.849 254.009
L212.469 254.672
L219.296 263.593
L225.143 268.104
L225.281 266.6
L225.958 265.562
L226.153 264.191
L227.016 263.608
L228.878 264.253
L229.384 263.411
L232.781 265.65
L235.797 268.04
L238.913 270.105
L239.384 269.033
L243.139 271.896
L246.269 273.717
L246.974 272.991
L247.265 271.893
L249.161 272.409
L249.174 270.895
L253.672 274.336
L254.007 273.257
L254.007 271.774
L254.164 270.577
L255.455 270.7
L258.423 273.05
L258.423 270.185
L260.105 270.599
L262.816 272.04
L264.36 272.462
L264.36 271.085
L266.285 271.802
L266.452 270.743
L273.339 274.595
L274.046 274.11
L276.5 275.587
L276.553 274.382
L277.491 274.145
L277.93 273.432
L278.835 273.085
L279.521 272.583
L281.293 273.314
L282.404 273.02
L283.728 273.141
L283.823 270.836
L284.81 270.6
L285.61 267.601
L287.235 267.997
L287.263 266.831
L290.441 268.73
L292.299 269.002
L296.816 271.564
L300.113 273.087
L300.523 272.304
L305.307 274.949
L305.736 274.143
L306.198 272.283
L307.379 272.028
L309.29 272.339
L309.29 271.266
L311.963 272.27
L312.501 271.71
L316.089 273.901
L318.795 275.226
L318.819 274.249
L319.011 273.473
L320.761 274.09
L320.882 272.235
L322.169 272.439
L322.469 271.721
L323.096 271.335
L324.98 269.378
L326.58 269.737
L327.033 269.125
L327.248 268.394
L328.159 268.161
L328.204 265.312
L329.434 265.614
L329.563 264.745
L331.397 265.49
L331.702 264.824
L331.702 263.872
L333.156 264.407
L333.418 263.765
L335.871 265.611
L335.871 264.691
L338.27 266.536
L338.27 265.632
L338.61 265.179
L339.426 264.876
L342.256 267.225
L344.872 268.583
L349.522 271.91
L349.546 270.245
L350.07 269.798
L352.395 270.735
L353.081 270.335
L354.177 270.484
L354.177 269.648
L357.922 272.076
L359.308 272.373
L361.543 273.381
L361.945 272.815
L362.915 272.705
L362.915 271.105
L365.612 272.041
L365.736 271.387
L367.098 272.004
L367.508 271.584
L368.175 271.276
L369.562 271.805
L370.252 271.74
L373.721 273.89
L373.792 272.453
L378.424 275.535
L378.424 274.063
L378.872 273.587
L378.891 272.134
L379.186 271.563
L379.729 271.233
L379.729 270.5
L380.692 270.446
L385.142 273.393
L387.024 273.4
L387.248 272.812
L395.276 275.836
L397.92 276.34
L403.034 277.862
L403.123 276.528
L403.123 275.848
L410.321 278.081
L410.321 277.415
L412.131 277.232
L416.413 278.457
L416.664 277.858
L416.708 277.235
L417.811 277.164
L417.811 276.511
L420.822 277.234
L422.01 277.245
L422.836 277.015
L425.497 277.558
L426.952 277.706
L426.952 277.068
L431.488 278.827
L431.888 278.393
L435.948 279.555
L437.822 280.004
L438.914 280.027
L438.914 279.417
L439.327 278.439
L440.693 278.07
L445.058 280.031
L445.058 279.435
L445.655 279.135
L445.667 277.958
L449.339 278.996
L449.365 277.248
L450.33 277.238
L450.508 276.688
L452.522 276.703
L453.526 276.716
L453.526 276.136
L453.716 275.647
L456.01 276.494
L456.01 275.347
L456.562 275.167
L456.696 274.698
L457.626 274.797
L458.5 274.698
L458.5 273.561
L459.961 273.847
L460.183 273.362
L460.222 271.143
L460.711 270.863
L460.711 270.299
L462.14 270.584
L465.323 270.976
L465.323 270.419
L465.825 270.2
L465.92 269.722
L466.339 269.409
L466.555 268.957
L466.6 268.421
L467.476 268.378
L467.711 268.027
L468.569 268.028
L468.569 267.48
L469.363 267.349
L469.579 267.012
L470.322 266.927
L470.322 265.831
L472.959 266.286
L473.626 266.153
L473.626 265.074
L476.142 266.5
L476.72 266.353
L476.72 265.334
L477.241 265.179
L477.285 264.158
L477.546 263.786
L477.628 262.831
L478.975 263.189
L478.975 262.14
L479.464 261.942
L480.379 262.07
L480.379 261.021
L480.836 260.768
L481.179 260.404
L481.7 260.229
L483.962 261.101
L484.635 261.045
L485.798 261.127
L487.119 261.545
L487.786 261.526
L488.167 261.173
L488.167 260.661
L488.282 260.248
L488.282 259.737
L489.667 259.932
L491.433 260.341
L495.003 261.375
L495.958 261.332
L495.958 260.337
L497.169 260.402
L497.919 260.305
L498.084 259.851
L498.814 259.848
L499.297 259.6
L499.482 259.15
L500.053 259
L501.94 259.586
L502.372 259.31
L502.372 258.819
L502.72 258.473
L503.166 258.217
L503.376 257.899
L503.852 257.642
L506.47 258.694
L506.565 258.281
L507.753 258.384
L508.445 258.323
L509.392 258.477
L510.021 258.313
L510.072 257.873
L511.368 258.117
L511.558 257.778
L512.435 257.813
L512.848 257.529
L515.224 258.42
L518.4 259.134
L518.4 259.134" style="fill:none;stroke:#008000;stroke-linecap:square;"/>
   </g>
   <g id="matplotlib.axis_1">
    <g id="xtick_1">
     <g id="line2d_3">
      <defs>
       <path d="
M0 0
L0 -4" id="m93b0483c22" style="stroke:#000000;stroke-width:0.5;"/>
      </defs>
      <g>
       <use style="stroke:#000000;stroke-width:0.5;" x="73.4538254148" xlink:href="#m93b0483c22" y="388.8"/>
      </g>
     </g>
     <g id="line2d_4">
      <defs>
       <path d="
M0 0
L0 4" id="m741efc42ff" style="stroke:#000000;stroke-width:0.5;"/>
      </defs>
      <g>
       <use style="stroke:#000000;stroke-width:0.5;" x="73.4538254148" xlink:href="#m741efc42ff" y="43.2"/>
      </g>
     </g>
     <g id="text_1">
      <!-- Sep 2013 -->
      <defs>
       <path d="
M40.5781 39.3125
Q47.6562 37.7969 51.625 33
Q55.6094 28.2188 55.6094 21.1875
Q55.6094 10.4062 48.1875 4.48438
Q40.7656 -1.42188 27.0938 -1.42188
Q22.5156 -1.42188 17.6562 -0.515625
Q12.7969 0.390625 7.625 2.20312
L7.625 11.7188
Q11.7188 9.32812 16.5938 8.10938
Q21.4844 6.89062 26.8125 6.89062
Q36.0781 6.89062 40.9375 10.5469
Q45.7969 14.2031 45.7969 21.1875
Q45.7969 27.6406 41.2812 31.2656
Q36.7656 34.9062 28.7188 34.9062
L20.2188 34.9062
L20.2188 43.0156
L29.1094 43.0156
Q36.375 43.0156 40.2344 45.9219
Q44.0938 48.8281 44.0938 54.2969
Q44.0938 59.9062 40.1094 62.9062
Q36.1406 65.9219 28.7188 65.9219
Q24.6562 65.9219 20.0156 65.0312
Q15.375 64.1562 9.8125 62.3125
L9.8125 71.0938
Q15.4375 72.6562 20.3438 73.4375
Q25.25 74.2188 29.5938 74.2188
Q40.8281 74.2188 47.3594 69.1094
Q53.9062 64.0156 53.9062 55.3281
Q53.9062 49.2656 50.4375 45.0938
Q46.9688 40.9219 40.5781 39.3125" id="DejaVuSans-33"/>
       <path d="
M12.4062 8.29688
L28.5156 8.29688
L28.5156 63.9219
L10.9844 60.4062
L10.9844 69.3906
L28.4219 72.9062
L38.2812 72.9062
L38.2812 8.29688
L54.3906 8.29688
L54.3906 0
L12.4062 0
z
" id="DejaVuSans-31"/>
       <path d="
M31.7812 66.4062
Q24.1719 66.4062 20.3281 58.9062
Q16.5 51.4219 16.5 36.375
Q16.5 21.3906 20.3281 13.8906
Q24.1719 6.39062 31.7812 6.39062
Q39.4531 6.39062 43.2812 13.8906
Q47.125 21.3906 47.125 36.375
Q47.125 51.4219 43.2812 58.9062
Q39.4531 66.4062 31.7812 66.4062
M31.7812 74.2188
Q44.0469 74.2188 50.5156 64.5156
Q56.9844 54.8281 56.9844 36.375
Q56.9844 17.9688 50.5156 8.26562
Q44.0469 -1.42188 31.7812 -1.42188
Q19.5312 -1.42188 13.0625 8.26562
Q6.59375 17.9688 6.59375 36.375
Q6.59375 54.8281 13.0625 64.5156
Q19.5312 74.2188 31.7812 74.2188" id="DejaVuSans-30"/>
       <path id="DejaVuSans-20"/>
       <path d="
M19.1875 8.29688
L53.6094 8.29688
L53.6094 0
L7.32812 0
L7.32812 8.29688
Q12.9375 14.1094 22.625 23.8906
Q32.3281 33.6875 34.8125 36.5312
Q39.5469 41.8438 41.4219 45.5312
Q43.3125 49.2188 43.3125 52.7812
Q43.3125 58.5938 39.2344 62.25
Q35.1562 65.9219 28.6094 65.9219
Q23.9688 65.9219 18.8125 64.3125
Q13.6719 62.7031 7.8125 59.4219
L7.8125 69.3906
Q13.7656 71.7812 18.9375 73
Q24.125 74.2188 28.4219 74.2188
Q39.75 74.2188 46.4844 68.5469
Q53.2188 62.8906 53.2188 53.4219
Q53.2188 48.9219 51.5312 44.8906
Q49.8594 40.875 45.4062 35.4062
Q44.1875 33.9844 37.6406 27.2188
Q31.1094 20.4531 19.1875 8.29688" id="DejaVuSans-32"/>
       <path d="
M53.5156 70.5156
L53.5156 60.8906
Q47.9062 63.5781 42.9219 64.8906
Q37.9375 66.2188 33.2969 66.2188
Q25.25 66.2188 20.875 63.0938
Q16.5 59.9688 16.5 54.2031
Q16.5 49.3594 19.4062 46.8906
Q22.3125 44.4375 30.4219 42.9219
L36.375 41.7031
Q47.4062 39.5938 52.6562 34.2969
Q57.9062 29 57.9062 20.125
Q57.9062 9.51562 50.7969 4.04688
Q43.7031 -1.42188 29.9844 -1.42188
Q24.8125 -1.42188 18.9688 -0.25
Q13.1406 0.921875 6.89062 3.21875
L6.89062 13.375
Q12.8906 10.0156 18.6562 8.29688
Q24.4219 6.59375 29.9844 6.59375
Q38.4219 6.59375 43.0156 9.90625
Q47.6094 13.2344 47.6094 19.3906
Q47.6094 24.75 44.3125 27.7812
Q41.0156 30.8125 33.5 32.3281
L27.4844 33.5
Q16.4531 35.6875 11.5156 40.375
Q6.59375 45.0625 6.59375 53.4219
Q6.59375 63.0938 13.4062 68.6562
Q20.2188 74.2188 32.1719 74.2188
Q37.3125 74.2188 42.625 73.2812
Q47.9531 72.3594 53.5156 70.5156" id="DejaVuSans-53"/>
       <path d="
M56.2031 29.5938
L56.2031 25.2031
L14.8906 25.2031
Q15.4844 15.9219 20.4844 11.0625
Q25.4844 6.20312 34.4219 6.20312
Q39.5938 6.20312 44.4531 7.46875
Q49.3125 8.73438 54.1094 11.2812
L54.1094 2.78125
Q49.2656 0.734375 44.1875 -0.34375
Q39.1094 -1.42188 33.8906 -1.42188
Q20.7969 -1.42188 13.1562 6.1875
Q5.51562 13.8125 5.51562 26.8125
Q5.51562 40.2344 12.7656 48.1094
Q20.0156 56 32.3281 56
Q43.3594 56 49.7812 48.8906
Q56.2031 41.7969 56.2031 29.5938
M47.2188 32.2344
Q47.125 39.5938 43.0938 43.9844
Q39.0625 48.3906 32.4219 48.3906
Q24.9062 48.3906 20.3906 44.1406
Q15.875 39.8906 15.1875 32.1719
z
" id="DejaVuSans-65"/>
       <path d="
M18.1094 8.20312
L18.1094 -20.7969
L9.07812 -20.7969
L9.07812 54.6875
L18.1094 54.6875
L18.1094 46.3906
Q20.9531 51.2656 25.2656 53.625
Q29.5938 56 35.5938 56
Q45.5625 56 51.7812 48.0938
Q58.0156 40.1875 58.0156 27.2969
Q58.0156 14.4062 51.7812 6.48438
Q45.5625 -1.42188 35.5938 -1.42188
Q29.5938 -1.42188 25.2656 0.953125
Q20.9531 3.32812 18.1094 8.20312
M48.6875 27.2969
Q48.6875 37.2031 44.6094 42.8438
Q40.5312 48.4844 33.4062 48.4844
Q26.2656 48.4844 22.1875 42.8438
Q18.1094 37.2031 18.1094 27.2969
Q18.1094 17.3906 22.1875 11.75
Q26.2656 6.10938 33.4062 6.10938
Q40.5312 6.10938 44.6094 11.75
Q48.6875 17.3906 48.6875 27.2969" id="DejaVuSans-70"/>
      </defs>
      <g transform="translate(45.4478879148 401.918125)scale(0.12 -0.12)">
       <use xlink:href="#DejaVuSans-53"/>
       <use x="63.4765625" xlink:href="#DejaVuSans-65"/>
       <use x="125.0" xlink:href="#DejaVuSans-70"/>
       <use x="188.4765625" xlink:href="#DejaVuSans-20"/>
       <use x="220.263671875" xlink:href="#DejaVuSans-32"/>
       <use x="283.88671875" xlink:href="#DejaVuSans-30"/>
       <use x="347.509765625" xlink:href="#DejaVuSans-31"/>
       <use x="411.1328125" xlink:href="#DejaVuSans-33"/>
      </g>
     </g>
    </g>
    <g id="xtick_2">
     <g id="line2d_5">
      <g>
       <use style="stroke:#000000;stroke-width:0.5;" x="115.077002683" xlink:href="#m93b0483c22" y="388.8"/>
      </g>
     </g>
     <g id="line2d_6">
      <g>
       <use style="stroke:#000000;stroke-width:0.5;" x="115.077002683" xlink:href="#m741efc42ff" y="43.2"/>
      </g>
     </g>
     <g id="text_2">
      <!-- Dec 2013 -->
      <defs>
       <path d="
M19.6719 64.7969
L19.6719 8.10938
L31.5938 8.10938
Q46.6875 8.10938 53.6875 14.9375
Q60.6875 21.7812 60.6875 36.5312
Q60.6875 51.1719 53.6875 57.9844
Q46.6875 64.7969 31.5938 64.7969
z

M9.8125 72.9062
L30.0781 72.9062
Q51.2656 72.9062 61.1719 64.0938
Q71.0938 55.2812 71.0938 36.5312
Q71.0938 17.6719 61.125 8.82812
Q51.1719 0 30.0781 0
L9.8125 0
z
" id="DejaVuSans-44"/>
       <path d="
M48.7812 52.5938
L48.7812 44.1875
Q44.9688 46.2969 41.1406 47.3438
Q37.3125 48.3906 33.4062 48.3906
Q24.6562 48.3906 19.8125 42.8438
Q14.9844 37.3125 14.9844 27.2969
Q14.9844 17.2812 19.8125 11.7344
Q24.6562 6.20312 33.4062 6.20312
Q37.3125 6.20312 41.1406 7.25
Q44.9688 8.29688 48.7812 10.4062
L48.7812 2.09375
Q45.0156 0.34375 40.9844 -0.53125
Q36.9688 -1.42188 32.4219 -1.42188
Q20.0625 -1.42188 12.7812 6.34375
Q5.51562 14.1094 5.51562 27.2969
Q5.51562 40.6719 12.8594 48.3281
Q20.2188 56 33.0156 56
Q37.1562 56 41.1094 55.1406
Q45.0625 54.2969 48.7812 52.5938" id="DejaVuSans-63"/>
      </defs>
      <g transform="translate(86.7701276832 401.918125)scale(0.12 -0.12)">
       <use xlink:href="#DejaVuSans-44"/>
       <use x="77.001953125" xlink:href="#DejaVuSans-65"/>
       <use x="138.525390625" xlink:href="#DejaVuSans-63"/>
       <use x="193.505859375" xlink:href="#DejaVuSans-20"/>
       <use x="225.29296875" xlink:href="#DejaVuSans-32"/>
       <use x="288.916015625" xlink:href="#DejaVuSans-30"/>
       <use x="352.5390625" xlink:href="#DejaVuSans-31"/>
       <use x="416.162109375" xlink:href="#DejaVuSans-33"/>
      </g>
     </g>
    </g>
    <g id="xtick_3">
     <g id="line2d_7">
      <g>
       <use style="stroke:#000000;stroke-width:0.5;" x="156.242782399" xlink:href="#m93b0483c22" y="388.8"/>
      </g>
     </g>
     <g id="line2d_8">
      <g>
       <use style="stroke:#000000;stroke-width:0.5;" x="156.242782399" xlink:href="#m741efc42ff" y="43.2"/>
      </g>
     </g>
     <g id="text_3">
      <!-- Mar 2014 -->
      <defs>
       <path d="
M9.8125 72.9062
L24.5156 72.9062
L43.1094 23.2969
L61.8125 72.9062
L76.5156 72.9062
L76.5156 0
L66.8906 0
L66.8906 64.0156
L48.0938 14.0156
L38.1875 14.0156
L19.3906 64.0156
L19.3906 0
L9.8125 0
z
" id="DejaVuSans-4d"/>
       <path d="
M41.1094 46.2969
Q39.5938 47.1719 37.8125 47.5781
Q36.0312 48 33.8906 48
Q26.2656 48 22.1875 43.0469
Q18.1094 38.0938 18.1094 28.8125
L18.1094 0
L9.07812 0
L9.07812 54.6875
L18.1094 54.6875
L18.1094 46.1875
Q20.9531 51.1719 25.4844 53.5781
Q30.0312 56 36.5312 56
Q37.4531 56 38.5781 55.875
Q39.7031 55.7656 41.0625 55.5156
z
" id="DejaVuSans-72"/>
       <path d="
M37.7969 64.3125
L12.8906 25.3906
L37.7969 25.3906
z

M35.2031 72.9062
L47.6094 72.9062
L47.6094 25.3906
L58.0156 25.3906
L58.0156 17.1875
L47.6094 17.1875
L47.6094 0
L37.7969 0
L37.7969 17.1875
L4.89062 17.1875
L4.89062 26.7031
z
" id="DejaVuSans-34"/>
       <path d="
M34.2812 27.4844
Q23.3906 27.4844 19.1875 25
Q14.9844 22.5156 14.9844 16.5
Q14.9844 11.7188 18.1406 8.90625
Q21.2969 6.10938 26.7031 6.10938
Q34.1875 6.10938 38.7031 11.4062
Q43.2188 16.7031 43.2188 25.4844
L43.2188 27.4844
z

M52.2031 31.2031
L52.2031 0
L43.2188 0
L43.2188 8.29688
Q40.1406 3.32812 35.5469 0.953125
Q30.9531 -1.42188 24.3125 -1.42188
Q15.9219 -1.42188 10.9531 3.29688
Q6 8.01562 6 15.9219
Q6 25.1406 12.1719 29.8281
Q18.3594 34.5156 30.6094 34.5156
L43.2188 34.5156
L43.2188 35.4062
Q43.2188 41.6094 39.1406 45
Q35.0625 48.3906 27.6875 48.3906
Q23 48.3906 18.5469 47.2656
Q14.1094 46.1406 10.0156 43.8906
L10.0156 52.2031
Q14.9375 54.1094 19.5781 55.0469
Q24.2188 56 28.6094 56
Q40.4844 56 46.3438 49.8438
Q52.2031 43.7031 52.2031 31.2031" id="DejaVuSans-61"/>
      </defs>
      <g transform="translate(128.082157399 401.918125)scale(0.12 -0.12)">
       <use xlink:href="#DejaVuSans-4d"/>
       <use x="86.279296875" xlink:href="#DejaVuSans-61"/>
       <use x="147.55859375" xlink:href="#DejaVuSans-72"/>
       <use x="188.671875" xlink:href="#DejaVuSans-20"/>
       <use x="220.458984375" xlink:href="#DejaVuSans-32"/>
       <use x="284.08203125" xlink:href="#DejaVuSans-30"/>
       <use x="347.705078125" xlink:href="#DejaVuSans-31"/>
       <use x="411.328125" xlink:href="#DejaVuSans-34"/>
      </g>
     </g>
    </g>
    <g id="xtick_4">
     <g id="line2d_9">
      <g>
       <use style="stroke:#000000;stroke-width:0.5;" x="198.32335722" xlink:href="#m93b0483c22" y="388.8"/>
      </g>
     </g>
     <g id="line2d_10">
      <g>
       <use style="stroke:#000000;stroke-width:0.5;" x="198.32335722" xlink:href="#m741efc42ff" y="43.2"/>
      </g>
     </g>
     <g id="text_4">
      <!-- Jun 2014 -->
      <defs>
       <path d="
M8.5 21.5781
L8.5 54.6875
L17.4844 54.6875
L17.4844 21.9219
Q17.4844 14.1562 20.5 10.2656
Q23.5312 6.39062 29.5938 6.39062
Q36.8594 6.39062 41.0781 11.0312
Q45.3125 15.6719 45.3125 23.6875
L45.3125 54.6875
L54.2969 54.6875
L54.2969 0
L45.3125 0
L45.3125 8.40625
Q42.0469 3.42188 37.7188 1
Q33.4062 -1.42188 27.6875 -1.42188
Q18.2656 -1.42188 13.375 4.4375
Q8.5 10.2969 8.5 21.5781
M31.1094 56
z
" id="DejaVuSans-75"/>
       <path d="
M54.8906 33.0156
L54.8906 0
L45.9062 0
L45.9062 32.7188
Q45.9062 40.4844 42.875 44.3281
Q39.8438 48.1875 33.7969 48.1875
Q26.5156 48.1875 22.3125 43.5469
Q18.1094 38.9219 18.1094 30.9062
L18.1094 0
L9.07812 0
L9.07812 54.6875
L18.1094 54.6875
L18.1094 46.1875
Q21.3438 51.125 25.7031 53.5625
Q30.0781 56 35.7969 56
Q45.2188 56 50.0469 50.1719
Q54.8906 44.3438 54.8906 33.0156" id="DejaVuSans-6e"/>
       <path d="
M9.8125 72.9062
L19.6719 72.9062
L19.6719 5.07812
Q19.6719 -8.10938 14.6719 -14.0625
Q9.67188 -20.0156 -1.42188 -20.0156
L-5.17188 -20.0156
L-5.17188 -11.7188
L-2.09375 -11.7188
Q4.4375 -11.7188 7.125 -8.04688
Q9.8125 -4.39062 9.8125 5.07812
z
" id="DejaVuSans-4a"/>
      </defs>
      <g transform="translate(171.79773222 401.918125)scale(0.12 -0.12)">
       <use xlink:href="#DejaVuSans-4a"/>
       <use x="29.4921875" xlink:href="#DejaVuSans-75"/>
       <use x="92.87109375" xlink:href="#DejaVuSans-6e"/>
       <use x="156.25" xlink:href="#DejaVuSans-20"/>
       <use x="188.037109375" xlink:href="#DejaVuSans-32"/>
       <use x="251.66015625" xlink:href="#DejaVuSans-30"/>
       <use x="315.283203125" xlink:href="#DejaVuSans-31"/>
       <use x="378.90625" xlink:href="#DejaVuSans-34"/>
      </g>
     </g>
    </g>
    <g id="xtick_5">
     <g id="line2d_11">
      <g>
       <use style="stroke:#000000;stroke-width:0.5;" x="240.403932041" xlink:href="#m93b0483c22" y="388.8"/>
      </g>
     </g>
     <g id="line2d_12">
      <g>
       <use style="stroke:#000000;stroke-width:0.5;" x="240.403932041" xlink:href="#m741efc42ff" y="43.2"/>
      </g>
     </g>
     <g id="text_5">
      <!-- Sep 2014 -->
      <g transform="translate(212.253619541 401.918125)scale(0.12 -0.12)">
       <use xlink:href="#DejaVuSans-53"/>
       <use x="63.4765625" xlink:href="#DejaVuSans-65"/>
       <use x="125.0" xlink:href="#DejaVuSans-70"/>
       <use x="188.4765625" xlink:href="#DejaVuSans-20"/>
       <use x="220.263671875" xlink:href="#DejaVuSans-32"/>
       <use x="283.88671875" xlink:href="#DejaVuSans-30"/>
       <use x="347.509765625" xlink:href="#DejaVuSans-31"/>
       <use x="411.1328125" xlink:href="#DejaVuSans-34"/>
      </g>
     </g>
    </g>
    <g id="xtick_6">
     <g id="line2d_13">
      <g>
       <use style="stroke:#000000;stroke-width:0.5;" x="282.027109309" xlink:href="#m93b0483c22" y="388.8"/>
      </g>
     </g>
     <g id="line2d_14">
      <g>
       <use style="stroke:#000000;stroke-width:0.5;" x="282.027109309" xlink:href="#m741efc42ff" y="43.2"/>
      </g>
     </g>
     <g id="text_6">
      <!-- Dec 2014 -->
      <g transform="translate(253.575859309 401.918125)scale(0.12 -0.12)">
       <use xlink:href="#DejaVuSans-44"/>
       <use x="77.001953125" xlink:href="#DejaVuSans-65"/>
       <use x="138.525390625" xlink:href="#DejaVuSans-63"/>
       <use x="193.505859375" xlink:href="#DejaVuSans-20"/>
       <use x="225.29296875" xlink:href="#DejaVuSans-32"/>
       <use x="288.916015625" xlink:href="#DejaVuSans-30"/>
       <use x="352.5390625" xlink:href="#DejaVuSans-31"/>
       <use x="416.162109375" xlink:href="#DejaVuSans-34"/>
      </g>
     </g>
    </g>
    <g id="xtick_7">
     <g id="line2d_15">
      <g>
       <use style="stroke:#000000;stroke-width:0.5;" x="323.192889025" xlink:href="#m93b0483c22" y="388.8"/>
      </g>
     </g>
     <g id="line2d_16">
      <g>
       <use style="stroke:#000000;stroke-width:0.5;" x="323.192889025" xlink:href="#m741efc42ff" y="43.2"/>
      </g>
     </g>
     <g id="text_7">
      <!-- Mar 2015 -->
      <defs>
       <path d="
M10.7969 72.9062
L49.5156 72.9062
L49.5156 64.5938
L19.8281 64.5938
L19.8281 46.7344
Q21.9688 47.4688 24.1094 47.8281
Q26.2656 48.1875 28.4219 48.1875
Q40.625 48.1875 47.75 41.5
Q54.8906 34.8125 54.8906 23.3906
Q54.8906 11.625 47.5625 5.09375
Q40.2344 -1.42188 26.9062 -1.42188
Q22.3125 -1.42188 17.5469 -0.640625
Q12.7969 0.140625 7.71875 1.70312
L7.71875 11.625
Q12.1094 9.23438 16.7969 8.0625
Q21.4844 6.89062 26.7031 6.89062
Q35.1562 6.89062 40.0781 11.3281
Q45.0156 15.7656 45.0156 23.3906
Q45.0156 31 40.0781 35.4375
Q35.1562 39.8906 26.7031 39.8906
Q22.75 39.8906 18.8125 39.0156
Q14.8906 38.1406 10.7969 36.2812
z
" id="DejaVuSans-35"/>
      </defs>
      <g transform="translate(295.219764025 401.918125)scale(0.12 -0.12)">
       <use xlink:href="#DejaVuSans-4d"/>
       <use x="86.279296875" xlink:href="#DejaVuSans-61"/>
       <use x="147.55859375" xlink:href="#DejaVuSans-72"/>
       <use x="188.671875" xlink:href="#DejaVuSans-20"/>
       <use x="220.458984375" xlink:href="#DejaVuSans-32"/>
       <use x="284.08203125" xlink:href="#DejaVuSans-30"/>
       <use x="347.705078125" xlink:href="#DejaVuSans-31"/>
       <use x="411.328125" xlink:href="#DejaVuSans-35"/>
      </g>
     </g>
    </g>
    <g id="xtick_8">
     <g id="line2d_17">
      <g>
       <use style="stroke:#000000;stroke-width:0.5;" x="365.273463846" xlink:href="#m93b0483c22" y="388.8"/>
      </g>
     </g>
     <g id="line2d_18">
      <g>
       <use style="stroke:#000000;stroke-width:0.5;" x="365.273463846" xlink:href="#m741efc42ff" y="43.2"/>
      </g>
     </g>
     <g id="text_8">
      <!-- Jun 2015 -->
      <g transform="translate(338.935338846 401.918125)scale(0.12 -0.12)">
       <use xlink:href="#DejaVuSans-4a"/>
       <use x="29.4921875" xlink:href="#DejaVuSans-75"/>
       <use x="92.87109375" xlink:href="#DejaVuSans-6e"/>
       <use x="156.25" xlink:href="#DejaVuSans-20"/>
       <use x="188.037109375" xlink:href="#DejaVuSans-32"/>
       <use x="251.66015625" xlink:href="#DejaVuSans-30"/>
       <use x="315.283203125" xlink:href="#DejaVuSans-31"/>
       <use x="378.90625" xlink:href="#DejaVuSans-35"/>
      </g>
     </g>
    </g>
    <g id="xtick_9">
     <g id="line2d_19">
      <g>
       <use style="stroke:#000000;stroke-width:0.5;" x="407.354038667" xlink:href="#m93b0483c22" y="388.8"/>
      </g>
     </g>
     <g id="line2d_20">
      <g>
       <use style="stroke:#000000;stroke-width:0.5;" x="407.354038667" xlink:href="#m741efc42ff" y="43.2"/>
      </g>
     </g>
     <g id="text_9">
      <!-- Sep 2015 -->
      <g transform="translate(379.391226167 401.918125)scale(0.12 -0.12)">
       <use xlink:href="#DejaVuSans-53"/>
       <use x="63.4765625" xlink:href="#DejaVuSans-65"/>
       <use x="125.0" xlink:href="#DejaVuSans-70"/>
       <use x="188.4765625" xlink:href="#DejaVuSans-20"/>
       <use x="220.263671875" xlink:href="#DejaVuSans-32"/>
       <use x="283.88671875" xlink:href="#DejaVuSans-30"/>
       <use x="347.509765625" xlink:href="#DejaVuSans-31"/>
       <use x="411.1328125" xlink:href="#DejaVuSans-35"/>
      </g>
     </g>
    </g>
    <g id="xtick_10">
     <g id="line2d_21">
      <g>
       <use style="stroke:#000000;stroke-width:0.5;" x="448.977215936" xlink:href="#m93b0483c22" y="388.8"/>
      </g>
     </g>
     <g id="line2d_22">
      <g>
       <use style="stroke:#000000;stroke-width:0.5;" x="448.977215936" xlink:href="#m741efc42ff" y="43.2"/>
      </g>
     </g>
     <g id="text_10">
      <!-- Dec 2015 -->
      <g transform="translate(420.713465936 401.918125)scale(0.12 -0.12)">
       <use xlink:href="#DejaVuSans-44"/>
       <use x="77.001953125" xlink:href="#DejaVuSans-65"/>
       <use x="138.525390625" xlink:href="#DejaVuSans-63"/>
       <use x="193.505859375" xlink:href="#DejaVuSans-20"/>
       <use x="225.29296875" xlink:href="#DejaVuSans-32"/>
       <use x="288.916015625" xlink:href="#DejaVuSans-30"/>
       <use x="352.5390625" xlink:href="#DejaVuSans-31"/>
       <use x="416.162109375" xlink:href="#DejaVuSans-35"/>
      </g>
     </g>
    </g>
    <g id="xtick_11">
     <g id="line2d_23">
      <g>
       <use style="stroke:#000000;stroke-width:0.5;" x="490.600393204" xlink:href="#m93b0483c22" y="388.8"/>
      </g>
     </g>
     <g id="line2d_24">
      <g>
       <use style="stroke:#000000;stroke-width:0.5;" x="490.600393204" xlink:href="#m741efc42ff" y="43.2"/>
      </g>
     </g>
     <g id="text_11">
      <!-- Mar 2016 -->
      <defs>
       <path d="
M33.0156 40.375
Q26.375 40.375 22.4844 35.8281
Q18.6094 31.2969 18.6094 23.3906
Q18.6094 15.5312 22.4844 10.9531
Q26.375 6.39062 33.0156 6.39062
Q39.6562 6.39062 43.5312 10.9531
Q47.4062 15.5312 47.4062 23.3906
Q47.4062 31.2969 43.5312 35.8281
Q39.6562 40.375 33.0156 40.375
M52.5938 71.2969
L52.5938 62.3125
Q48.875 64.0625 45.0938 64.9844
Q41.3125 65.9219 37.5938 65.9219
Q27.8281 65.9219 22.6719 59.3281
Q17.5312 52.7344 16.7969 39.4062
Q19.6719 43.6562 24.0156 45.9219
Q28.375 48.1875 33.5938 48.1875
Q44.5781 48.1875 50.9531 41.5156
Q57.3281 34.8594 57.3281 23.3906
Q57.3281 12.1562 50.6875 5.35938
Q44.0469 -1.42188 33.0156 -1.42188
Q20.3594 -1.42188 13.6719 8.26562
Q6.98438 17.9688 6.98438 36.375
Q6.98438 53.6562 15.1875 63.9375
Q23.3906 74.2188 37.2031 74.2188
Q40.9219 74.2188 44.7031 73.4844
Q48.4844 72.75 52.5938 71.2969" id="DejaVuSans-36"/>
      </defs>
      <g transform="translate(462.481018204 401.918125)scale(0.12 -0.12)">
       <use xlink:href="#DejaVuSans-4d"/>
       <use x="86.279296875" xlink:href="#DejaVuSans-61"/>
       <use x="147.55859375" xlink:href="#DejaVuSans-72"/>
       <use x="188.671875" xlink:href="#DejaVuSans-20"/>
       <use x="220.458984375" xlink:href="#DejaVuSans-32"/>
       <use x="284.08203125" xlink:href="#DejaVuSans-30"/>
       <use x="347.705078125" xlink:href="#DejaVuSans-31"/>
       <use x="411.328125" xlink:href="#DejaVuSans-36"/>
      </g>
     </g>
    </g>
   </g>
   <g id="matplotlib.axis_2">
    <g id="ytick_1">
     <g id="line2d_25">
      <defs>
       <path d="
M0 0
L4 0" id="m728421d6d4" style="stroke:#000000;stroke-width:0.5;"/>
      </defs>
      <g>
       <use style="stroke:#000000;stroke-width:0.5;" x="72.0" xlink:href="#m728421d6d4" y="388.8"/>
      </g>
     </g>
     <g id="line2d_26">
      <defs>
       <path d="
M0 0
L-4 0" id="mcb0005524f" style="stroke:#000000;stroke-width:0.5;"/>
      </defs>
      <g>
       <use style="stroke:#000000;stroke-width:0.5;" x="518.4" xlink:href="#mcb0005524f" y="388.8"/>
      </g>
     </g>
     <g id="text_12">
      <!-- 50 -->
      <g transform="translate(54.453125 392.11125)scale(0.12 -0.12)">
       <use xlink:href="#DejaVuSans-35"/>
       <use x="63.623046875" xlink:href="#DejaVuSans-30"/>
      </g>
     </g>
    </g>
    <g id="ytick_2">
     <g id="line2d_27">
      <g>
       <use style="stroke:#000000;stroke-width:0.5;" x="72.0" xlink:href="#m728421d6d4" y="339.428571429"/>
      </g>
     </g>
     <g id="line2d_28">
      <g>
       <use style="stroke:#000000;stroke-width:0.5;" x="518.4" xlink:href="#mcb0005524f" y="339.428571429"/>
      </g>
     </g>
     <g id="text_13">
      <!-- 100 -->
      <g transform="translate(47.21 342.739821429)scale(0.12 -0.12)">
       <use xlink:href="#DejaVuSans-31"/>
       <use x="63.623046875" xlink:href="#DejaVuSans-30"/>
       <use x="127.24609375" xlink:href="#DejaVuSans-30"/>
      </g>
     </g>
    </g>
    <g id="ytick_3">
     <g id="line2d_29">
      <g>
       <use style="stroke:#000000;stroke-width:0.5;" x="72.0" xlink:href="#m728421d6d4" y="290.057142857"/>
      </g>
     </g>
     <g id="line2d_30">
      <g>
       <use style="stroke:#000000;stroke-width:0.5;" x="518.4" xlink:href="#mcb0005524f" y="290.057142857"/>
      </g>
     </g>
     <g id="text_14">
      <!-- 150 -->
      <g transform="translate(47.21 293.368392857)scale(0.12 -0.12)">
       <use xlink:href="#DejaVuSans-31"/>
       <use x="63.623046875" xlink:href="#DejaVuSans-35"/>
       <use x="127.24609375" xlink:href="#DejaVuSans-30"/>
      </g>
     </g>
    </g>
    <g id="ytick_4">
     <g id="line2d_31">
      <g>
       <use style="stroke:#000000;stroke-width:0.5;" x="72.0" xlink:href="#m728421d6d4" y="240.685714286"/>
      </g>
     </g>
     <g id="line2d_32">
      <g>
       <use style="stroke:#000000;stroke-width:0.5;" x="518.4" xlink:href="#mcb0005524f" y="240.685714286"/>
      </g>
     </g>
     <g id="text_15">
      <!-- 200 -->
      <g transform="translate(46.77125 243.996964286)scale(0.12 -0.12)">
       <use xlink:href="#DejaVuSans-32"/>
       <use x="63.623046875" xlink:href="#DejaVuSans-30"/>
       <use x="127.24609375" xlink:href="#DejaVuSans-30"/>
      </g>
     </g>
    </g>
    <g id="ytick_5">
     <g id="line2d_33">
      <g>
       <use style="stroke:#000000;stroke-width:0.5;" x="72.0" xlink:href="#m728421d6d4" y="191.314285714"/>
      </g>
     </g>
     <g id="line2d_34">
      <g>
       <use style="stroke:#000000;stroke-width:0.5;" x="518.4" xlink:href="#mcb0005524f" y="191.314285714"/>
      </g>
     </g>
     <g id="text_16">
      <!-- 250 -->
      <g transform="translate(46.77125 194.625535714)scale(0.12 -0.12)">
       <use xlink:href="#DejaVuSans-32"/>
       <use x="63.623046875" xlink:href="#DejaVuSans-35"/>
       <use x="127.24609375" xlink:href="#DejaVuSans-30"/>
      </g>
     </g>
    </g>
    <g id="ytick_6">
     <g id="line2d_35">
      <g>
       <use style="stroke:#000000;stroke-width:0.5;" x="72.0" xlink:href="#m728421d6d4" y="141.942857143"/>
      </g>
     </g>
     <g id="line2d_36">
      <g>
       <use style="stroke:#000000;stroke-width:0.5;" x="518.4" xlink:href="#mcb0005524f" y="141.942857143"/>
      </g>
     </g>
     <g id="text_17">
      <!-- 300 -->
      <g transform="translate(46.806875 145.254107143)scale(0.12 -0.12)">
       <use xlink:href="#DejaVuSans-33"/>
       <use x="63.623046875" xlink:href="#DejaVuSans-30"/>
       <use x="127.24609375" xlink:href="#DejaVuSans-30"/>
      </g>
     </g>
    </g>
    <g id="ytick_7">
     <g id="line2d_37">
      <g>
       <use style="stroke:#000000;stroke-width:0.5;" x="72.0" xlink:href="#m728421d6d4" y="92.5714285714"/>
      </g>
     </g>
     <g id="line2d_38">
      <g>
       <use style="stroke:#000000;stroke-width:0.5;" x="518.4" xlink:href="#mcb0005524f" y="92.5714285714"/>
      </g>
     </g>
     <g id="text_18">
      <!-- 350 -->
      <g transform="translate(46.806875 95.8826785714)scale(0.12 -0.12)">
       <use xlink:href="#DejaVuSans-33"/>
       <use x="63.623046875" xlink:href="#DejaVuSans-35"/>
       <use x="127.24609375" xlink:href="#DejaVuSans-30"/>
      </g>
     </g>
    </g>
    <g id="ytick_8">
     <g id="line2d_39">
      <g>
       <use style="stroke:#000000;stroke-width:0.5;" x="72.0" xlink:href="#m728421d6d4" y="43.2"/>
      </g>
     </g>
     <g id="line2d_40">
      <g>
       <use style="stroke:#000000;stroke-width:0.5;" x="518.4" xlink:href="#mcb0005524f" y="43.2"/>
      </g>
     </g>
     <g id="text_19">
      <!-- 400 -->
      <g transform="translate(46.47875 46.51125)scale(0.12 -0.12)">
       <use xlink:href="#DejaVuSans-34"/>
       <use x="63.623046875" xlink:href="#DejaVuSans-30"/>
       <use x="127.24609375" xlink:href="#DejaVuSans-30"/>
      </g>
     </g>
    </g>
   </g>
   <g id="patch_3">
    <path d="
M72 43.2
L518.4 43.2" style="fill:none;stroke:#000000;"/>
   </g>
   <g id="patch_4">
    <path d="
M518.4 388.8
L518.4 43.2" style="fill:none;stroke:#000000;"/>
   </g>
   <g id="patch_5">
    <path d="
M72 388.8
L518.4 388.8" style="fill:none;stroke:#000000;"/>
   </g>
   <g id="patch_6">
    <path d="
M72 388.8
L72 43.2" style="fill:none;stroke:#000000;"/>
   </g>
  </g>
 </g>
 <defs>
  <clipPath id="p7ff5b81e1d">
   <rect height="345.6" width="446.4" x="72.0" y="43.2"/>
  </clipPath>
 </defs>
</svg>
