<?xml version="1.0" encoding="utf-8" standalone="no"?>
<!DOCTYPE svg PUBLIC "-//W3C//DTD SVG 1.1//EN"
  "http://www.w3.org/Graphics/SVG/1.1/DTD/svg11.dtd">
<!-- Created with matplotlib (http://matplotlib.org/) -->
<svg height="432pt" version="1.1" viewBox="0 0 576 432" width="576pt" xmlns="http://www.w3.org/2000/svg" xmlns:xlink="http://www.w3.org/1999/xlink">
 <defs>
  <style type="text/css">
*{stroke-linecap:butt;stroke-linejoin:round;}
  </style>
 </defs>
 <g id="figure_1">
  <g id="patch_1">
   <path d="
M0 432
L576 432
L576 0
L0 0
z
" style="fill:#ffffff;"/>
  </g>
  <g id="axes_1">
   <g id="patch_2">
    <path d="
M72 388.8
L518.4 388.8
L518.4 43.2
L72 43.2
z
" style="fill:#ffffff;"/>
   </g>
   <g id="line2d_1">
    <path clip-path="url(#p7ff5b81e1d)" d="
M72 197.438
L73.2435 158.4
L73.2536 71.4446
L73.2536 71.4446
L73.2536 71.4446
L73.3071 175.071
L73.5519 241.297
L73.6225 229.574
L73.8821 263.269
L73.9619 251.983
L74.0718 258.557
L74.0848 253.049
L75.4099 293.571
L75.5071 289.484
L75.5553 279.6
L75.8653 282.084
L75.9922 265.201
L76.3687 267.614
L76.4403 263.001
L77.1559 270.413
L77.1559 265.743
L77.3266 262.433
L77.7471 263.651
L78.3462 266.695
L78.4497 260.099
L79.4937 261.472
L79.4972 257.665
L80.6472 266.37
L80.954 263.824
L82.0189 268.529
L82.0591 266.521
L82.7133 267.651
L83.2117 269.915
L83.3843 270.082
L83.7604 268.66
L86.0935 275.445
L86.0935 272.83
L86.3718 271.851
L86.5165 270.654
L86.5561 268.36
L86.8287 266.493
L86.8407 264.147
L87.3148 262.857
L87.3543 260.535
L87.9224 260.972
L87.9297 258.558
L88.3644 258.352
L88.808 258.889
L90.1044 262.566
L90.5512 261.584
L91.1271 261.87
L91.5236 260.442
L91.528 258.535
L91.9805 258.304
L91.9818 256.8
L92.1521 257.224
L92.3107 256.723
L92.3804 253.246
L92.4456 252.259
L93.4792 256.828
L93.5517 255.438
L94.5282 255.332
L94.7958 255.896
L95.4347 255.413
L95.6035 254.652
L96.0126 253.597
L96.4803 254.141
L96.903 251.258
L98.1702 254.475
L98.3384 251.671
L98.8687 251.826
L98.8713 250.548
L99.2892 250.751
L99.5381 249.916
L99.5634 248.369
L100.098 249.736
L101.497 250.553
L101.65 251.323
L101.708 251.294
L101.884 249.863
L102.454 249.421
L105.307 253.776
L105.727 252.746
L106.52 253.091
L106.61 244.523
L107.12 244.812
L107.466 243.77
L108.702 246.946
L108.702 245.642
L109.314 247.149
L109.873 247.897
L110.041 246.923
L110.31 246.587
L111.205 247.742
L112.065 249.858
L112.147 249.092
L112.387 248.706
L113.464 250.934
L114.404 251.484
L115.112 252.824
L115.259 251.96
L115.779 251.634
L116.422 252.306
L117.168 252.851
L117.924 254.193
L118.367 254.642
L118.989 254.762
L119.467 254.348
L119.469 252.589
L120.336 254.056
L120.467 253.676
L120.801 253.659
L121.497 254.727
L121.665 253.309
L122.096 253.916
L122.524 253.999
L122.902 252.486
L124.246 254.725
L124.338 253.928
L124.782 254.128
L125.375 255.469
L125.376 254.678
L126.131 257.204
L126.309 256.659
L127.193 257.07
L127.504 256.554
L127.521 255.722
L128.101 255.77
L128.101 254.94
L128.828 256.626
L128.842 255.152
L128.921 255.229
L129.049 254.859
L129.251 254.661
L129.409 256.437
L129.603 257.254
L129.776 256.452
L129.776 255.649
L129.776 255.649
L129.776 255.649
L129.887 256.587
L130.203 257.434
L130.203 256.65
L131.231 258.83
L131.529 259.12
L131.782 260.425
L131.788 259.978
L131.99 259.45
L132.049 258.546
L132.197 258.646
L132.661 260.814
L133.036 261.823
L133.129 261.674
L133.873 262.728
L133.938 262.483
L134.271 262.692
L134.418 261.481
L134.419 260.879
L134.894 262.208
L135.266 262.428
L135.771 263.771
L135.771 263.12
L137.303 267.445
L138.368 268.415
L138.812 268.2
L138.87 265.575
L139.031 265.633
L139.039 265.134
L139.548 265.988
L139.665 265.476
L139.665 264.876
L139.869 265.469
L140.365 266.471
L140.381 265.999
L141.107 266.894
L141.128 266.487
L141.837 267.444
L142.493 267.96
L142.493 267.402
L143.396 268.706
L143.594 268.775
L145.365 272.9
L145.892 273.762
L145.992 273.023
L146.191 273.176
L146.314 272.826
L146.628 272.622
L146.738 272.417
L146.755 271.988
L147.724 273.377
L147.749 272.875
L148.908 273.848
L148.908 273.362
L149.074 273.447
L149.127 272.351
L149.407 271.821
L149.808 272.515
L149.981 272.057
L150.48 271.81
L150.77 271.831
L150.77 271.383
L152.568 273.79
L152.568 273.334
L152.76 273.264
L152.765 272.806
L153.102 272.767
L153.955 273.467
L154.46 274.055
L154.576 273.581
L154.854 273.56
L154.873 273.182
L155.879 274.118
L155.879 273.676
L156.27 273.79
L156.304 272.994
L156.572 272.865
L156.74 272.406
L157.134 272.465
L157.839 272.856
L157.98 272.194
L158.797 273.711
L159.124 273.893
L160.06 273.976
L160.321 273.889
L160.392 273.608
L161.751 274.016
L161.817 273.402
L162.34 273.94
L162.687 274.093
L162.798 273.962
L162.798 273.562
L162.982 273.243
L162.986 272.871
L163.123 272.865
L163.173 272.545
L164.091 272.975
L164.47 272.872
L165.389 273.598
L165.446 273.368
L165.731 273.335
L166.116 273.667
L166.163 273.405
L167.241 274.263
L167.721 274.346
L167.783 274.057
L168.255 273.858
L168.59 274.023
L168.88 273.861
L168.942 273.558
L169.814 274.082
L169.958 273.89
L170.799 273.897
L170.941 273.392
L171.725 274.057
L172.07 273.993
L172.742 274.409
L173.109 274.154
L174.817 275.964
L175.045 275.972
L175.359 275.816
L175.502 275.36
L175.867 275.418
L175.919 275.19
L176.169 275.009
L176.422 275.109
L176.755 274.717
L177.311 275.097
L177.52 274.839
L177.543 274.206
L177.724 274.215
L177.776 272.972
L178.061 273.018
L178.109 272.768
L178.242 272.713
L178.607 272.968
L178.607 272.626
L179.054 273.014
L179.191 272.617
L179.197 272.286
L179.932 272.87
L180.612 273.142
L181.163 273.521
L181.163 273.193
L181.41 272.961
L181.436 272.659
L181.86 272.903
L181.918 272.375
L182.288 272.619
L182.607 272.674
L182.678 272.2
L183.001 272.212
L183.198 271.595
L183.533 271.683
L183.533 271.365
L184.093 271.801
L184.131 271.58
L184.478 271.338
L185.244 271.808
L185.418 271.817
L185.461 271.583
L185.967 271.968
L186.183 271.869
L186.33 271.179
L186.625 271.187
L186.729 270.75
L186.819 270.649
L186.819 270.349
L187.28 270.543
L188.107 271.217
L188.273 270.925
L188.657 270.752
L188.657 270.452
L189.422 270.651
L190.857 271.991
L190.999 271.951
L191.284 272.149
L191.403 272.076
L191.94 272.459
L192.125 272.247
L192.355 272.344
L192.581 272.202
L192.59 271.93
L192.766 271.977
L192.866 271.547
L193.098 271.442
L193.184 271.017
L193.624 271.313
L193.678 270.847
L193.977 270.816
L194.405 270.915
L194.566 270.272
L195.098 270.573
L195.298 270.479
L195.858 270.929
L195.971 270.836
L196.248 270.806
L196.295 269.652
L196.708 269.938
L196.865 269.574
L197.245 269.849
L197.577 269.066
L198.043 269.576
L198.105 269.404
L198.327 269.292
L198.452 269.055
L198.719 269.101
L199.007 269.281
L199.159 268.805
L199.496 268.961
L199.496 268.692
L200.066 268.624
L200.08 268.367
L200.772 268.819
L200.783 268.366
L201.06 268.587
L201.06 268.326
L201.51 268.797
L202.353 268.644
L202.807 268.939
L202.864 268.798
L203.069 268.673
L203.838 269.352
L203.966 269.156
L204.563 269.657
L204.598 269.177
L205.063 269.454
L205.158 268.809
L205.766 268.974
L205.766 268.753
L206.274 269.101
L206.682 269.191
L207.177 269.431
L207.271 269.086
L207.685 269.102
L208.188 269.099
L208.35 269.07
L208.359 268.835
L208.997 269.177
L209.029 268.986
L209.741 269.175
L210.031 268.967
L210.44 269.31
L210.492 269.176
L210.9 269.402
L211.717 270.031
L211.812 269.865
L212.011 269.845
L212.159 269.653
L212.292 269.685
L212.292 269.446
L212.754 269.65
L213.27 270.03
L213.365 269.688
L214.58 269.913
L214.671 269.9
L214.727 269.245
L215.071 269.066
L215.487 269.04
L215.491 268.643
L215.617 268.635
L215.655 268.445
L215.982 268.52
L216.49 268.935
L216.557 268.849
L216.576 268.647
L216.923 268.64
L216.961 268.463
L217.358 268.071
L217.473 267.786
L217.473 267.562
L217.706 267.276
L218.2 267.692
L218.234 267.517
L219.093 268.201
L219.217 268.142
L220.832 268.973
L221.031 268.879
L221.33 268.935
L222.43 269.596
L222.431 269.458
L222.727 269.433
L222.822 268.91
L223.107 269.034
L223.16 268.861
L223.655 269.036
L223.686 268.462
L223.822 268.386
L223.857 268.016
L224.114 267.996
L224.47 268.094
L226.072 269.082
L226.104 268.489
L226.308 268.494
L226.93 268.748
L227.514 269.074
L227.652 268.897
L227.833 268.914
L227.904 268.713
L228.578 269.009
L228.578 268.803
L229.129 268.904
L229.167 268.748
L229.314 268.647
L229.314 268.482
L229.794 268.538
L230.079 268.435
L230.646 268.571
L230.646 268.429
L231.009 268.439
L231.433 268.579
L231.556 268.325
L232.031 268.103
L232.069 267.639
L232.321 267.552
L233 268.043
L233.318 268.077
L233.323 267.882
L233.717 267.573
L233.798 267.199
L234.319 267.328
L234.763 267.563
L234.842 267.337
L235.038 267.194
L235.271 267.429
L235.674 267.486
L237.107 268.128
L237.107 267.935
L237.379 267.834
L237.826 267.995
L237.992 267.384
L238.884 267.587
L238.928 267.24
L239.185 267.06
L239.203 266.713
L239.787 266.775
L239.802 266.408
L239.878 266.454
L240.006 266.306
L240.73 266.681
L241.062 266.319
L241.911 266.327
L242.039 266.096
L243.331 266.556
L243.934 266.083
L243.934 265.907
L244.409 266.233
L244.8 266.137
L245.722 266.653
L246.019 266.644
L246.172 266.249
L247.021 266.368
L247.026 266.192
L247.072 265.754
L247.867 266.282
L247.924 265.951
L248.456 266.239
L248.665 266.159
L248.698 265.826
L248.897 265.841
L248.969 265.585
L249.67 265.948
L249.921 265.798
L251.531 266.434
L251.531 266.31
L251.942 266.381
L251.985 266.252
L252.507 266.427
L252.576 265.849
L252.672 265.712
L253.02 265.715
L253.352 265.848
L253.484 265.737
L253.666 265.731
L253.699 265.424
L253.851 265.331
L253.851 265.159
L254.226 265.347
L254.295 265.231
L254.421 265.314
L254.739 265.386
L254.739 265.216
L255.062 265.339
L255.3 264.849
L255.476 264.817
L256.06 265.231
L256.198 264.57
L256.733 264.836
L256.972 264.669
L257.038 264.59
L257.58 264.928
L257.635 264.674
L257.874 264.746
L257.907 264.596
L258.283 264.586
L258.344 264.429
L258.945 264.849
L258.945 264.694
L259.736 265.216
L259.736 265.054
L259.865 265.03
L259.865 264.864
L260.045 264.728
L262.348 265.95
L262.657 266.014
L263.227 266.258
L263.369 266.052
L263.549 266.073
L263.565 265.938
L263.822 265.912
L264.362 266.222
L264.471 265.912
L264.889 266.096
L265.06 265.555
L265.846 265.958
L266.082 265.684
L266.086 265.533
L267.128 265.963
L267.128 265.842
L268.053 266.261
L268.076 266.187
L268.257 266.077
L269.007 266.298
L269.15 266.216
L269.496 266.301
L270.394 266.828
L270.779 266.69
L270.837 266.692
L270.893 266.416
L271.24 266.341
L271.278 266.216
L271.77 266.248
L271.881 266.105
L272.664 266.57
L273.066 266.605
L273.809 266.861
L275.101 267.202
L275.101 267.053
L275.386 267.035
L276.146 267.384
L276.339 267.302
L276.93 266.743
L277.115 266.583
L277.218 266.328
L277.706 266.43
L277.837 266.199
L278.617 266.425
L278.618 266.323
L278.735 266.216
L279.419 266.465
L279.49 266.331
L279.931 266.19
L280.568 266.691
L281.551 266.839
L281.551 266.695
L281.746 266.756
L281.76 266.649
L282.178 266.75
L282.278 266.575
L282.672 266.5
L282.829 266.397
L283.123 266.514
L283.323 266.46
L284.444 266.939
L284.463 266.536
L284.833 266.598
L284.882 266.493
L286.552 266.667
L288.12 267.55
L288.148 267.423
L288.538 267.068
L289.084 267.065
L289.084 266.931
L289.502 266.691
L289.502 266.556
L290.808 266.634
L292.414 267.463
L294.921 268.1
L294.969 268.001
L295.259 268.058
L295.273 267.934
L295.956 267.83
L298.184 268.725
L298.422 268.58
L298.431 268.454
L299.453 268.937
L300.198 268.953
L301.082 269.399
L301.11 269.295
L302.677 269.852
L302.711 269.642
L303.504 269.758
L303.66 269.731
L304.33 269.904
L304.402 269.84
L304.957 269.937
L305.39 270.03
L306.406 270.332
L306.601 270.295
L306.601 269.788
L307.004 269.631
L308.097 269.977
L308.199 269.708
L310.234 270.341
L310.7 270.413
L310.778 270.31
L311.146 270.279
L311.255 270.24
L311.255 270.119
L312.228 270.254
L312.239 270.142
L312.281 270.072
L312.581 270.005
L312.59 269.887
L313.051 269.927
L313.16 269.647
L313.184 269.562
L313.45 269.466
L313.651 269.215
L314.309 269.4
L314.309 269.278
L315.383 269.741
L315.654 269.727
L315.663 269.496
L315.953 269.52
L317.33 269.899
L318.256 269.916
L318.456 269.857
L319.325 270.197
L319.487 270.139
L319.582 269.998
L319.767 269.611
L319.942 269.608
L319.942 269.491
L320.308 269.5
L320.322 269.404
L320.726 269.524
L320.736 269.415
L321.168 269.543
L321.177 269.443
L321.648 269.456
L322.512 269.89
L322.512 269.779
L322.773 269.511
L322.773 269.398
L323.231 269.477
L323.98 269.734
L323.98 269.506
L324.576 269.542
L324.787 269.527
L325.409 269.642
L325.504 269.623
L326.155 269.866
L326.174 269.775
L326.435 269.72
L326.435 269.609
L326.611 269.56
L327.551 269.915
L327.684 269.587
L328.045 269.61
L328.107 269.539
L328.659 269.566
L328.763 269.254
L330.102 269.716
L330.273 269.528
L330.571 269.7
L330.9 269.74
L331.888 270.034
L331.888 269.928
L332.334 270.081
L332.353 269.984
L332.391 269.574
L332.994 269.627
L333.051 269.571
L333.303 269.632
L333.313 269.535
L333.322 269.44
L333.621 269.353
L333.769 269.106
L334.415 269.336
L334.415 269.227
L334.415 269.12
L334.633 269.191
L335.141 269.389
L335.43 269.421
L335.43 269.314
L335.534 269.211
L336.028 269.552
L336.062 269.462
L336.262 269.35
L336.804 269.55
L336.894 269.234
L337.692 269.679
L338.01 269.444
L338.405 269.415
L338.412 269.364
L338.599 269.447
L338.599 269.343
L338.819 268.881
L339.078 268.984
L339.079 268.878
L339.088 268.804
L339.383 268.649
L339.483 268.345
L339.582 268.186
L339.668 268.011
L340.005 268.155
L340.024 268.092
L340.081 267.97
L340.556 267.96
L340.779 267.814
L340.988 267.604
L341.495 267.72
L341.967 267.76
L342.266 267.754
L342.342 267.546
L343.068 267.51
L343.111 267.331
L343.206 267.265
L343.774 267.372
L343.923 267.274
L344.161 267.389
L344.18 267.31
L344.213 267.229
L344.674 267.205
L344.674 267.105
L344.997 267.067
L344.997 266.966
L345.291 266.983
L345.296 266.884
L345.448 266.743
L345.871 266.696
L345.914 266.32
L346.688 266.192
L346.7 266.018
L346.797 266.021
L346.892 265.881
L347.163 265.702
L347.842 265.824
L348.516 265.994
L348.74 266.072
L348.749 265.985
L348.749 265.886
L349.083 265.835
L349.083 265.738
L349.979 266.149
L350.012 265.994
L351.105 265.985
L351.219 265.891
L352.145 266.086
L352.33 266.022
L352.354 265.931
L353.166 266.106
L353.209 265.919
L353.73 265.892
L353.744 265.828
L355.033 266.005
L355.085 265.933
L355.793 266.201
L355.864 266.089
L356.007 265.891
L356.384 265.892
L357.408 266.289
L357.408 266.194
L357.408 266.102
L357.697 266.1
L357.788 265.797
L358.514 265.849
L358.571 265.605
L359.165 265.718
L359.64 265.737
L359.645 265.554
L359.906 265.458
L359.939 265.205
L361.098 265.169
L361.098 265.076
L361.521 264.965
L361.545 264.907
L361.877 264.723
L362.457 264.953
L362.618 264.871
L363.145 264.875
L363.183 264.712
L363.38 264.805
L363.38 264.715
L363.639 264.574
L363.643 264.486
L363.782 264.393
L363.834 264.354
L364.105 264.322
L364.152 264.265
L364.277 264.31
L364.277 264.219
L364.328 263.85
L364.998 263.966
L364.998 263.876
L365.055 263.643
L365.154 263.442
L366.019 263.489
L366.28 263.37
L366.28 263.28
L366.56 263.444
L366.574 263.375
L366.869 263.372
L366.921 263.325
L367.477 263.521
L367.496 263.359
L367.771 263.241
L367.885 263.153
L368.569 263.348
L368.603 263.296
L370.593 263.828
L370.669 263.692
L370.84 263.638
L371.391 263.932
L371.581 263.652
L371.818 263.637
L372.369 263.8
L372.412 263.755
L372.692 263.712
L372.744 263.588
L372.958 263.694
L373.366 263.589
L374.25 263.88
L374.991 263.918
L375 263.754
L375.547 263.944
L376.117 264.21
L376.117 264.125
L376.325 264.09
L376.558 264.188
L376.563 264.114
L376.563 264.027
L377.912 264.499
L377.974 264.377
L377.974 264.292
L378.187 264.178
L379.213 264.55
L379.213 264.465
L380.068 264.651
L380.106 264.516
L381.047 264.662
L381.099 264.543
L381.417 264.494
L382.077 264.705
L382.79 264.694
L383.269 264.821
L383.326 264.415
L384.751 264.788
L384.756 264.706
L385.051 264.646
L385.051 264.483
L388.887 265.114
L388.887 265.037
L389.534 265.002
L389.549 264.77
L389.824 264.788
L390.465 264.64
L394.213 265.525
L394.274 265.386
L395.015 265.399
L395.134 265.225
L395.139 265.149
L396.041 265.265
L397.756 265.195
L399.262 265.541
L399.869 265.587
L400.154 265.59
L401.133 265.778
L402.471 265.721
L404.592 265.612
L404.605 265.464
L405.711 265.716
L405.711 265.642
L405.767 265.524
L406.98 265.719
L406.992 265.647
L409.893 266.039
L409.893 265.963
L410.159 265.945
L411.052 265.999
L411.951 265.988
L413.807 266.274
L414.262 265.948
L415.345 266.196
L415.345 266.121
L416.637 266.142
L416.65 266.072
L417.397 266.091
L418.246 266.26
L418.398 266.179
L418.398 266.104
L419.804 266.387
L419.861 266.192
L420.203 266.204
L421.159 266.327
L421.609 266.328
L422.882 266.537
L423.584 266.443
L423.901 266.391
L424.876 266.442
L424.902 266.301
L425.396 266.327
L425.864 266.333
L425.864 266.114
L426.004 265.977
L426.491 266.097
L426.491 266.025
L426.523 265.961
L428.138 266.125
L428.523 266.074
L428.98 266.059
L429.043 265.875
L429.829 265.904
L429.829 265.832
L430.817 265.701
L431.76 265.787
L431.76 265.716
L432.393 265.582
L432.577 265.194
L432.951 265.057
L433.052 264.904
L433.362 264.64
L433.464 264.342
L433.533 264.162
L433.939 264.146
L434.021 263.849
L434.312 263.823
L434.312 263.75
L434.844 263.821
L435.383 263.707
L435.756 263.629
L435.775 263.489
L436.586 263.586
L436.586 263.514
L436.769 263.472
L438.625 263.998
L439.037 263.926
L439.968 264.047
L440.633 264.003
L441.05 264.072
L441.513 264.052
L441.551 264.004
L441.962 264.045
L441.962 263.983
L442.197 264.071
L442.209 264.013
L442.26 263.896
L443.514 264.241
L444.363 264.369
L444.508 264.243
L444.762 264.186
L444.793 264.074
L444.971 264.08
L444.977 264.017
L446.212 264.106
L446.214 264.04
L446.262 263.936
L446.541 263.945
L446.541 263.88
L446.693 263.797
L447.149 263.864
L448.036 264.026
L448.036 263.958
L448.124 263.958
L448.188 263.777
L448.194 263.712
L448.815 263.551
L449.942 263.858
L450.372 263.826
L451.379 263.794
L452.253 263.452
L453.07 263.722
L453.07 263.657
L453.083 263.609
L453.444 263.56
L453.678 263.307
L454.064 263.342
L454.128 263.25
L454.584 263.252
L455.014 263.156
L455.331 263.099
L455.331 263.033
L455.958 263.123
L455.958 263.06
L457.263 263.004
L457.263 262.939
L457.491 262.953
L457.491 262.894
L457.541 262.8
L457.76 262.795
L458.105 262.748
L458.599 262.744
L458.662 262.583
L459.036 262.645
L459.036 262.582
L459.283 262.19
L459.58 262.059
L459.587 261.997
L460.385 262.151
L460.467 262.088
L460.967 262.035
L460.967 261.97
L461.126 261.935
L461.879 262.22
L461.886 262.158
L461.886 262.094
L462.259 262.001
L462.741 261.96
L462.781 261.907
L463.04 261.794
L463.05 261.692
L463.963 261.704
L463.963 261.642
L464.305 261.525
L465.074 261.592
L465.074 261.528
L465.818 261.331
L465.907 261.137
L466.369 261.284
L466.376 261.221
L466.407 261.178
L467.25 261.186
L467.25 261.125
L467.712 261.05
L467.788 260.916
L468.168 260.877
L468.263 260.811
L468.681 260.963
L468.681 260.902
L468.687 260.841
L469.491 260.591
L469.624 260.438
L470.707 260.528
L470.916 260.457
L470.916 260.399
L472.791 260.797
L473.259 260.695
L473.266 260.635
L473.893 260.474
L473.931 260.303
L474.184 260.161
L474.197 259.858
L474.45 259.812
L474.526 259.744
L474.783 259.714
L474.863 259.645
L475.076 259.723
L475.096 259.688
L475.533 259.538
L475.539 259.365
L476.286 259.054
L476.307 258.959
L476.4 258.883
L476.407 258.823
L476.755 258.855
L476.755 258.821
L476.85 258.707
L476.875 258.615
L477.167 258.556
L477.293 258.437
L477.382 258.334
L477.578 258.207
L477.578 258.026
L477.648 258.033
L478.129 257.802
L478.516 257.784
L478.991 257.767
L479.117 257.529
L479.352 257.308
L480.346 257.611
L480.371 257.212
L480.859 257.123
L480.884 257.079
L481.182 257.107
L481.182 257.047
L481.226 256.843
L481.644 256.831
L481.682 256.801
L481.891 256.821
L481.891 256.76
L481.897 256.71
L482.36 256.604
L482.36 256.428
L482.651 256.476
L482.651 256.416
L482.651 256.356
L482.847 256.438
L482.847 256.381
L483.74 256.154
L484.095 256.063
L484.133 255.859
L484.507 255.802
L484.646 255.601
L485.501 255.775
L485.976 255.738
L486.052 255.618
L486.204 255.511
L486.204 255.394
L486.755 255.276
L486.786 255.234
L487.306 255.376
L487.306 255.263
L487.401 255.153
L487.401 254.928
L489.155 255.233
L489.218 254.977
L489.453 254.843
L490.402 255.062
L490.434 254.899
L490.941 254.82
L490.941 254.761
L491.764 254.854
L491.872 254.734
L492.125 254.747
L492.125 254.689
L492.125 254.63
L492.372 254.706
L493.157 254.536
L493.246 254.297
L493.626 254.216
L493.778 254.123
L494.424 254.152
L494.943 254.033
L495.089 253.985
L495.519 254.002
L495.519 253.944
L495.982 253.732
L496.52 253.838
L496.526 253.786
L498.768 253.273
L498.793 253.23
L499.078 253.132
L499.078 253.076
L499.211 253.035
L499.211 252.978
L499.446 252.813
L499.598 252.677
L499.699 252.619
L500.326 252.552
L500.364 252.294
L501.023 252.044
L501.092 251.908
L501.453 251.879
L501.783 251.86
L501.897 251.757
L501.954 251.621
L502.859 251.561
L503.062 251.496
L503.119 251.3
L503.239 251.215
L503.302 251.136
L504.164 250.986
L504.93 251.098
L504.936 251.05
L505.145 251.092
L505.145 250.98
L505.424 250.905
L505.646 250.588
L506.038 250.58
L506.051 250.533
L506.849 250.601
L506.849 250.545
L506.944 250.547
L508.134 250.711
L508.153 250.66
L508.381 250.609
L508.73 250.575
L508.761 250.487
L509.008 250.479
L509.008 250.423
L509.015 250.373
L509.762 250.494
L509.914 250.36
L509.952 250.22
L510.877 250.456
L510.965 250.35
L512.029 250.465
L514.068 250.58
L514.132 250.453
L514.29 250.376
L514.752 250.458
L514.759 250.41
L515.151 250.236
L515.196 250.213
L515.538 250.156
L515.645 249.817
L515.854 249.688
L516.12 249.609
L516.285 249.576
L516.943 249.652
L517.038 249.549
L517.374 249.462
L517.703 249.262
L517.703 249.208
L518.115 249.196
L518.147 249.157
L518.4 249.251
L518.4 249.251" style="fill:none;stroke:#ff0000;stroke-linecap:square;"/>
   </g>
   <g id="line2d_2">
    <path clip-path="url(#p7ff5b81e1d)" d="
M73.7678 373.964
L73.986 365.464
L75.9862 371.841
L77.4355 370.693
L77.4355 366.175
L77.8186 362.085
L77.8186 344.323
L79.6628 347.291
L81.771 348.998
L88.3527 357.297
L91.5236 358.358
L96.3419 361.702
L105.727 366.366
L106.62 365.468
L110.778 366.475
L114.884 367.105
L114.884 365.979
L119.524 366.938
L123.114 367.412
L123.556 366.556
L123.556 363.699
L125.372 363.675
L127.046 363.825
L127.046 362.937
L128.814 362.764
L129.324 362.951
L129.822 362.969
L130.012 362.508
L131.167 362.373
L131.62 362.023
L133.43 363.253
L133.937 362.959
L133.938 361.588
L134.833 361.672
L137.178 362.716
L139.755 363.344
L139.865 362.779
L140.218 362.479
L140.381 361.973
L143.829 362.593
L144.76 362.177
L144.831 361.128
L145.441 360.859
L146.74 361.019
L147.751 360.987
L149.625 361.637
L149.808 361.212
L149.84 360.736
L150.641 360.698
L153.197 361.365
L153.615 361.017
L155.329 361.289
L157.98 361.824
L158.92 361.881
L163.114 362.852
L163.76 362.604
L164.577 362.416
L165.764 362.321
L170.913 363.396
L173.91 363.838
L181.215 365.233
L182.649 365.333
L191.483 367.253
L198.988 368.598
L199.159 368.347
L199.159 368.074
L200.004 367.984
L203.723 368.524
L203.728 368.265
L204.85 368.2
L204.973 367.991
L215.028 369.072
L220.556 368.702
L221.086 368.355
L223.691 368.383
L224.208 368.24
L229.533 368.913
L234.53 369.426
L235.7 369.212
L237.082 369.232
L237.113 369.048
L238.459 369.005
L249.921 370.179
L252.102 370.267
L258.945 370.844
L262.002 371.057
L263.008 370.99
L266.684 371.272
L267.128 371.161
L272.959 371.449
L273.135 371.322
L274.033 371.258
L276.004 371.327
L280.33 371.7
L280.416 371.579
L283.361 371.717
L283.403 371.578
L286.937 371.641
L287.175 371.532
L295.696 371.751
L296.793 371.59
L298.132 371.546
L298.194 371.422
L299.965 371.302
L300.198 371.191
L302.03 371.082
L302.093 370.96
L304.931 370.953
L306.406 370.82
L314.471 371.262
L315.782 371.129
L316.276 371.064
L318.043 371.096
L318.043 370.976
L318.893 370.708
L321.372 370.732
L323.722 370.174
L327.352 370.322
L327.352 370.208
L331.171 370.353
L337.108 370.497
L337.996 370.387
L339.9 369.962
L343.078 370.141
L343.239 369.946
L343.711 369.883
L346.954 370.017
L351.813 370.057
L351.813 369.958
L352.188 369.905
L353.632 369.831
L354.259 369.694
L354.266 369.403
L355.384 369.418
L355.384 369.321
L355.655 369.186
L358.087 369.198
L358.087 369.103
L359.208 368.943
L359.208 368.849
L368.384 369.324
L369.03 369.289
L370.521 369.282
L371.999 369.083
L373.78 368.987
L375.96 369.016
L376.102 368.878
L378.13 368.904
L380.035 368.887
L380.035 368.801
L384.12 368.801
L385.982 368.68
L391.976 368.355
L394.369 368.402
L402.306 368.706
L405.764 368.702
L414.642 368.988
L416.511 368.848
L426.922 369.311
L428.442 368.967
L434.331 369.161
L437.175 369.216
L437.175 369.145
L437.447 369.087
L444.059 369.085
L444.274 369.022
L447.466 369.037
L447.58 368.981
L448.46 368.927
L452.228 368.711
L453.944 368.634
L453.944 368.567
L457.199 368.027
L457.199 367.961
L459.504 367.933
L459.796 367.75
L465.521 367.419
L471.828 367.706
L471.898 367.653
L474.197 367.509
L474.95 367.4
L479.402 367.488
L479.402 367.427
L480.321 367.321
L480.34 367.14
L482.683 366.953
L483.24 366.881
L484.602 366.796
L486.641 366.767
L486.647 366.708
L487.401 366.663
L487.401 366.606
L491.713 366.469
L491.739 366.414
L492.283 366.395
L494.918 366.405
L495.019 366.297
L496.383 366.197
L496.383 366.139
L498.154 366.198
L498.154 366.14
L498.154 366.083
L499.705 366.027
L502.619 365.996
L507.951 365.701
L508.21 365.602
L509.781 365.564
L514.176 365.552
L516.551 365.382
L516.557 365.328
L518.216 365.224
L518.216 365.224" style="fill:none;stroke:#008000;stroke-linecap:square;"/>
   </g>
   <g id="matplotlib.axis_1">
    <g id="xtick_1">
     <g id="line2d_3">
      <defs>
       <path d="
M0 0
L0 -4" id="m93b0483c22" style="stroke:#000000;stroke-width:0.5;"/>
      </defs>
      <g>
       <use style="stroke:#000000;stroke-width:0.5;" x="74.751626838" xlink:href="#m93b0483c22" y="388.8"/>
      </g>
     </g>
     <g id="line2d_4">
      <defs>
       <path d="
M0 0
L0 4" id="m741efc42ff" style="stroke:#000000;stroke-width:0.5;"/>
      </defs>
      <g>
       <use style="stroke:#000000;stroke-width:0.5;" x="74.751626838" xlink:href="#m741efc42ff" y="43.2"/>
      </g>
     </g>
     <g id="text_1">
      <!-- Sep 2013 -->
      <defs>
       <path d="
M40.5781 39.3125
Q47.6562 37.7969 51.625 33
Q55.6094 28.2188 55.6094 21.1875
Q55.6094 10.4062 48.1875 4.48438
Q40.7656 -1.42188 27.0938 -1.42188
Q22.5156 -1.42188 17.6562 -0.515625
Q12.7969 0.390625 7.625 2.20312
L7.625 11.7188
Q11.7188 9.32812 16.5938 8.10938
Q21.4844 6.89062 26.8125 6.89062
Q36.0781 6.89062 40.9375 10.5469
Q45.7969 14.2031 45.7969 21.1875
Q45.7969 27.6406 41.2812 31.2656
Q36.7656 34.9062 28.7188 34.9062
L20.2188 34.9062
L20.2188 43.0156
L29.1094 43.0156
Q36.375 43.0156 40.2344 45.9219
Q44.0938 48.8281 44.0938 54.2969
Q44.0938 59.9062 40.1094 62.9062
Q36.1406 65.9219 28.7188 65.9219
Q24.6562 65.9219 20.0156 65.0312
Q15.375 64.1562 9.8125 62.3125
L9.8125 71.0938
Q15.4375 72.6562 20.3438 73.4375
Q25.25 74.2188 29.5938 74.2188
Q40.8281 74.2188 47.3594 69.1094
Q53.9062 64.0156 53.9062 55.3281
Q53.9062 49.2656 50.4375 45.0938
Q46.9688 40.9219 40.5781 39.3125" id="DejaVuSans-33"/>
       <path d="
M12.4062 8.29688
L28.5156 8.29688
L28.5156 63.9219
L10.9844 60.4062
L10.9844 69.3906
L28.4219 72.9062
L38.2812 72.9062
L38.2812 8.29688
L54.3906 8.29688
L54.3906 0
L12.4062 0
z
" id="DejaVuSans-31"/>
       <path d="
M31.7812 66.4062
Q24.1719 66.4062 20.3281 58.9062
Q16.5 51.4219 16.5 36.375
Q16.5 21.3906 20.3281 13.8906
Q24.1719 6.39062 31.7812 6.39062
Q39.4531 6.39062 43.2812 13.8906
Q47.125 21.3906 47.125 36.375
Q47.125 51.4219 43.2812 58.9062
Q39.4531 66.4062 31.7812 66.4062
M31.7812 74.2188
Q44.0469 74.2188 50.5156 64.5156
Q56.9844 54.8281 56.9844 36.375
Q56.9844 17.9688 50.5156 8.26562
Q44.0469 -1.42188 31.7812 -1.42188
Q19.5312 -1.42188 13.0625 8.26562
Q6.59375 17.9688 6.59375 36.375
Q6.59375 54.8281 13.0625 64.5156
Q19.5312 74.2188 31.7812 74.2188" id="DejaVuSans-30"/>
       <path id="DejaVuSans-20"/>
       <path d="
M19.1875 8.29688
L53.6094 8.29688
L53.6094 0
L7.32812 0
L7.32812 8.29688
Q12.9375 14.1094 22.625 23.8906
Q32.3281 33.6875 34.8125 36.5312
Q39.5469 41.8438 41.4219 45.5312
Q43.3125 49.2188 43.3125 52.7812
Q43.3125 58.5938 39.2344 62.25
Q35.1562 65.9219 28.6094 65.9219
Q23.9688 65.9219 18.8125 64.3125
Q13.6719 62.7031 7.8125 59.4219
L7.8125 69.3906
Q13.7656 71.7812 18.9375 73
Q24.125 74.2188 28.4219 74.2188
Q39.75 74.2188 46.4844 68.5469
Q53.2188 62.8906 53.2188 53.4219
Q53.2188 48.9219 51.5312 44.8906
Q49.8594 40.875 45.4062 35.4062
Q44.1875 33.9844 37.6406 27.2188
Q31.1094 20.4531 19.1875 8.29688" id="DejaVuSans-32"/>
       <path d="
M53.5156 70.5156
L53.5156 60.8906
Q47.9062 63.5781 42.9219 64.8906
Q37.9375 66.2188 33.2969 66.2188
Q25.25 66.2188 20.875 63.0938
Q16.5 59.9688 16.5 54.2031
Q16.5 49.3594 19.4062 46.8906
Q22.3125 44.4375 30.4219 42.9219
L36.375 41.7031
Q47.4062 39.5938 52.6562 34.2969
Q57.9062 29 57.9062 20.125
Q57.9062 9.51562 50.7969 4.04688
Q43.7031 -1.42188 29.9844 -1.42188
Q24.8125 -1.42188 18.9688 -0.25
Q13.1406 0.921875 6.89062 3.21875
L6.89062 13.375
Q12.8906 10.0156 18.6562 8.29688
Q24.4219 6.59375 29.9844 6.59375
Q38.4219 6.59375 43.0156 9.90625
Q47.6094 13.2344 47.6094 19.3906
Q47.6094 24.75 44.3125 27.7812
Q41.0156 30.8125 33.5 32.3281
L27.4844 33.5
Q16.4531 35.6875 11.5156 40.375
Q6.59375 45.0625 6.59375 53.4219
Q6.59375 63.0938 13.4062 68.6562
Q20.2188 74.2188 32.1719 74.2188
Q37.3125 74.2188 42.625 73.2812
Q47.9531 72.3594 53.5156 70.5156" id="DejaVuSans-53"/>
       <path d="
M56.2031 29.5938
L56.2031 25.2031
L14.8906 25.2031
Q15.4844 15.9219 20.4844 11.0625
Q25.4844 6.20312 34.4219 6.20312
Q39.5938 6.20312 44.4531 7.46875
Q49.3125 8.73438 54.1094 11.2812
L54.1094 2.78125
Q49.2656 0.734375 44.1875 -0.34375
Q39.1094 -1.42188 33.8906 -1.42188
Q20.7969 -1.42188 13.1562 6.1875
Q5.51562 13.8125 5.51562 26.8125
Q5.51562 40.2344 12.7656 48.1094
Q20.0156 56 32.3281 56
Q43.3594 56 49.7812 48.8906
Q56.2031 41.7969 56.2031 29.5938
M47.2188 32.2344
Q47.125 39.5938 43.0938 43.9844
Q39.0625 48.3906 32.4219 48.3906
Q24.9062 48.3906 20.3906 44.1406
Q15.875 39.8906 15.1875 32.1719
z
" id="DejaVuSans-65"/>
       <path d="
M18.1094 8.20312
L18.1094 -20.7969
L9.07812 -20.7969
L9.07812 54.6875
L18.1094 54.6875
L18.1094 46.3906
Q20.9531 51.2656 25.2656 53.625
Q29.5938 56 35.5938 56
Q45.5625 56 51.7812 48.0938
Q58.0156 40.1875 58.0156 27.2969
Q58.0156 14.4062 51.7812 6.48438
Q45.5625 -1.42188 35.5938 -1.42188
Q29.5938 -1.42188 25.2656 0.953125
Q20.9531 3.32812 18.1094 8.20312
M48.6875 27.2969
Q48.6875 37.2031 44.6094 42.8438
Q40.5312 48.4844 33.4062 48.4844
Q26.2656 48.4844 22.1875 42.8438
Q18.1094 37.2031 18.1094 27.2969
Q18.1094 17.3906 22.1875 11.75
Q26.2656 6.10938 33.4062 6.10938
Q40.5312 6.10938 44.6094 11.75
Q48.6875 17.3906 48.6875 27.2969" id="DejaVuSans-70"/>
      </defs>
      <g transform="translate(46.745689338 401.918125)scale(0.12 -0.12)">
       <use xlink:href="#DejaVuSans-53"/>
       <use x="63.4765625" xlink:href="#DejaVuSans-65"/>
       <use x="125.0" xlink:href="#DejaVuSans-70"/>
       <use x="188.4765625" xlink:href="#DejaVuSans-20"/>
       <use x="220.263671875" xlink:href="#DejaVuSans-32"/>
       <use x="283.88671875" xlink:href="#DejaVuSans-30"/>
       <use x="347.509765625" xlink:href="#DejaVuSans-31"/>
       <use x="411.1328125" xlink:href="#DejaVuSans-33"/>
      </g>
     </g>
    </g>
    <g id="xtick_2">
     <g id="line2d_5">
      <g>
       <use style="stroke:#000000;stroke-width:0.5;" x="116.244513013" xlink:href="#m93b0483c22" y="388.8"/>
      </g>
     </g>
     <g id="line2d_6">
      <g>
       <use style="stroke:#000000;stroke-width:0.5;" x="116.244513013" xlink:href="#m741efc42ff" y="43.2"/>
      </g>
     </g>
     <g id="text_2">
      <!-- Dec 2013 -->
      <defs>
       <path d="
M19.6719 64.7969
L19.6719 8.10938
L31.5938 8.10938
Q46.6875 8.10938 53.6875 14.9375
Q60.6875 21.7812 60.6875 36.5312
Q60.6875 51.1719 53.6875 57.9844
Q46.6875 64.7969 31.5938 64.7969
z

M9.8125 72.9062
L30.0781 72.9062
Q51.2656 72.9062 61.1719 64.0938
Q71.0938 55.2812 71.0938 36.5312
Q71.0938 17.6719 61.125 8.82812
Q51.1719 0 30.0781 0
L9.8125 0
z
" id="DejaVuSans-44"/>
       <path d="
M48.7812 52.5938
L48.7812 44.1875
Q44.9688 46.2969 41.1406 47.3438
Q37.3125 48.3906 33.4062 48.3906
Q24.6562 48.3906 19.8125 42.8438
Q14.9844 37.3125 14.9844 27.2969
Q14.9844 17.2812 19.8125 11.7344
Q24.6562 6.20312 33.4062 6.20312
Q37.3125 6.20312 41.1406 7.25
Q44.9688 8.29688 48.7812 10.4062
L48.7812 2.09375
Q45.0156 0.34375 40.9844 -0.53125
Q36.9688 -1.42188 32.4219 -1.42188
Q20.0625 -1.42188 12.7812 6.34375
Q5.51562 14.1094 5.51562 27.2969
Q5.51562 40.6719 12.8594 48.3281
Q20.2188 56 33.0156 56
Q37.1562 56 41.1094 55.1406
Q45.0625 54.2969 48.7812 52.5938" id="DejaVuSans-63"/>
      </defs>
      <g transform="translate(87.9376380125 401.918125)scale(0.12 -0.12)">
       <use xlink:href="#DejaVuSans-44"/>
       <use x="77.001953125" xlink:href="#DejaVuSans-65"/>
       <use x="138.525390625" xlink:href="#DejaVuSans-63"/>
       <use x="193.505859375" xlink:href="#DejaVuSans-20"/>
       <use x="225.29296875" xlink:href="#DejaVuSans-32"/>
       <use x="288.916015625" xlink:href="#DejaVuSans-30"/>
       <use x="352.5390625" xlink:href="#DejaVuSans-31"/>
       <use x="416.162109375" xlink:href="#DejaVuSans-33"/>
      </g>
     </g>
    </g>
    <g id="xtick_3">
     <g id="line2d_7">
      <g>
       <use style="stroke:#000000;stroke-width:0.5;" x="157.281433405" xlink:href="#m93b0483c22" y="388.8"/>
      </g>
     </g>
     <g id="line2d_8">
      <g>
       <use style="stroke:#000000;stroke-width:0.5;" x="157.281433405" xlink:href="#m741efc42ff" y="43.2"/>
      </g>
     </g>
     <g id="text_3">
      <!-- Mar 2014 -->
      <defs>
       <path d="
M9.8125 72.9062
L24.5156 72.9062
L43.1094 23.2969
L61.8125 72.9062
L76.5156 72.9062
L76.5156 0
L66.8906 0
L66.8906 64.0156
L48.0938 14.0156
L38.1875 14.0156
L19.3906 64.0156
L19.3906 0
L9.8125 0
z
" id="DejaVuSans-4d"/>
       <path d="
M41.1094 46.2969
Q39.5938 47.1719 37.8125 47.5781
Q36.0312 48 33.8906 48
Q26.2656 48 22.1875 43.0469
Q18.1094 38.0938 18.1094 28.8125
L18.1094 0
L9.07812 0
L9.07812 54.6875
L18.1094 54.6875
L18.1094 46.1875
Q20.9531 51.1719 25.4844 53.5781
Q30.0312 56 36.5312 56
Q37.4531 56 38.5781 55.875
Q39.7031 55.7656 41.0625 55.5156
z
" id="DejaVuSans-72"/>
       <path d="
M37.7969 64.3125
L12.8906 25.3906
L37.7969 25.3906
z

M35.2031 72.9062
L47.6094 72.9062
L47.6094 25.3906
L58.0156 25.3906
L58.0156 17.1875
L47.6094 17.1875
L47.6094 0
L37.7969 0
L37.7969 17.1875
L4.89062 17.1875
L4.89062 26.7031
z
" id="DejaVuSans-34"/>
       <path d="
M34.2812 27.4844
Q23.3906 27.4844 19.1875 25
Q14.9844 22.5156 14.9844 16.5
Q14.9844 11.7188 18.1406 8.90625
Q21.2969 6.10938 26.7031 6.10938
Q34.1875 6.10938 38.7031 11.4062
Q43.2188 16.7031 43.2188 25.4844
L43.2188 27.4844
z

M52.2031 31.2031
L52.2031 0
L43.2188 0
L43.2188 8.29688
Q40.1406 3.32812 35.5469 0.953125
Q30.9531 -1.42188 24.3125 -1.42188
Q15.9219 -1.42188 10.9531 3.29688
Q6 8.01562 6 15.9219
Q6 25.1406 12.1719 29.8281
Q18.3594 34.5156 30.6094 34.5156
L43.2188 34.5156
L43.2188 35.4062
Q43.2188 41.6094 39.1406 45
Q35.0625 48.3906 27.6875 48.3906
Q23 48.3906 18.5469 47.2656
Q14.1094 46.1406 10.0156 43.8906
L10.0156 52.2031
Q14.9375 54.1094 19.5781 55.0469
Q24.2188 56 28.6094 56
Q40.4844 56 46.3438 49.8438
Q52.2031 43.7031 52.2031 31.2031" id="DejaVuSans-61"/>
      </defs>
      <g transform="translate(129.120808405 401.918125)scale(0.12 -0.12)">
       <use xlink:href="#DejaVuSans-4d"/>
       <use x="86.279296875" xlink:href="#DejaVuSans-61"/>
       <use x="147.55859375" xlink:href="#DejaVuSans-72"/>
       <use x="188.671875" xlink:href="#DejaVuSans-20"/>
       <use x="220.458984375" xlink:href="#DejaVuSans-32"/>
       <use x="284.08203125" xlink:href="#DejaVuSans-30"/>
       <use x="347.705078125" xlink:href="#DejaVuSans-31"/>
       <use x="411.328125" xlink:href="#DejaVuSans-34"/>
      </g>
     </g>
    </g>
    <g id="xtick_4">
     <g id="line2d_9">
      <g>
       <use style="stroke:#000000;stroke-width:0.5;" x="199.230285362" xlink:href="#m93b0483c22" y="388.8"/>
      </g>
     </g>
     <g id="line2d_10">
      <g>
       <use style="stroke:#000000;stroke-width:0.5;" x="199.230285362" xlink:href="#m741efc42ff" y="43.2"/>
      </g>
     </g>
     <g id="text_4">
      <!-- Jun 2014 -->
      <defs>
       <path d="
M8.5 21.5781
L8.5 54.6875
L17.4844 54.6875
L17.4844 21.9219
Q17.4844 14.1562 20.5 10.2656
Q23.5312 6.39062 29.5938 6.39062
Q36.8594 6.39062 41.0781 11.0312
Q45.3125 15.6719 45.3125 23.6875
L45.3125 54.6875
L54.2969 54.6875
L54.2969 0
L45.3125 0
L45.3125 8.40625
Q42.0469 3.42188 37.7188 1
Q33.4062 -1.42188 27.6875 -1.42188
Q18.2656 -1.42188 13.375 4.4375
Q8.5 10.2969 8.5 21.5781
M31.1094 56
z
" id="DejaVuSans-75"/>
       <path d="
M54.8906 33.0156
L54.8906 0
L45.9062 0
L45.9062 32.7188
Q45.9062 40.4844 42.875 44.3281
Q39.8438 48.1875 33.7969 48.1875
Q26.5156 48.1875 22.3125 43.5469
Q18.1094 38.9219 18.1094 30.9062
L18.1094 0
L9.07812 0
L9.07812 54.6875
L18.1094 54.6875
L18.1094 46.1875
Q21.3438 51.125 25.7031 53.5625
Q30.0781 56 35.7969 56
Q45.2188 56 50.0469 50.1719
Q54.8906 44.3438 54.8906 33.0156" id="DejaVuSans-6e"/>
       <path d="
M9.8125 72.9062
L19.6719 72.9062
L19.6719 5.07812
Q19.6719 -8.10938 14.6719 -14.0625
Q9.67188 -20.0156 -1.42188 -20.0156
L-5.17188 -20.0156
L-5.17188 -11.7188
L-2.09375 -11.7188
Q4.4375 -11.7188 7.125 -8.04688
Q9.8125 -4.39062 9.8125 5.07812
z
" id="DejaVuSans-4a"/>
      </defs>
      <g transform="translate(172.704660362 401.918125)scale(0.12 -0.12)">
       <use xlink:href="#DejaVuSans-4a"/>
       <use x="29.4921875" xlink:href="#DejaVuSans-75"/>
       <use x="92.87109375" xlink:href="#DejaVuSans-6e"/>
       <use x="156.25" xlink:href="#DejaVuSans-20"/>
       <use x="188.037109375" xlink:href="#DejaVuSans-32"/>
       <use x="251.66015625" xlink:href="#DejaVuSans-30"/>
       <use x="315.283203125" xlink:href="#DejaVuSans-31"/>
       <use x="378.90625" xlink:href="#DejaVuSans-34"/>
      </g>
     </g>
    </g>
    <g id="xtick_5">
     <g id="line2d_11">
      <g>
       <use style="stroke:#000000;stroke-width:0.5;" x="241.179137318" xlink:href="#m93b0483c22" y="388.8"/>
      </g>
     </g>
     <g id="line2d_12">
      <g>
       <use style="stroke:#000000;stroke-width:0.5;" x="241.179137318" xlink:href="#m741efc42ff" y="43.2"/>
      </g>
     </g>
     <g id="text_5">
      <!-- Sep 2014 -->
      <g transform="translate(213.028824818 401.918125)scale(0.12 -0.12)">
       <use xlink:href="#DejaVuSans-53"/>
       <use x="63.4765625" xlink:href="#DejaVuSans-65"/>
       <use x="125.0" xlink:href="#DejaVuSans-70"/>
       <use x="188.4765625" xlink:href="#DejaVuSans-20"/>
       <use x="220.263671875" xlink:href="#DejaVuSans-32"/>
       <use x="283.88671875" xlink:href="#DejaVuSans-30"/>
       <use x="347.509765625" xlink:href="#DejaVuSans-31"/>
       <use x="411.1328125" xlink:href="#DejaVuSans-34"/>
      </g>
     </g>
    </g>
    <g id="xtick_6">
     <g id="line2d_13">
      <g>
       <use style="stroke:#000000;stroke-width:0.5;" x="282.672023493" xlink:href="#m93b0483c22" y="388.8"/>
      </g>
     </g>
     <g id="line2d_14">
      <g>
       <use style="stroke:#000000;stroke-width:0.5;" x="282.672023493" xlink:href="#m741efc42ff" y="43.2"/>
      </g>
     </g>
     <g id="text_6">
      <!-- Dec 2014 -->
      <g transform="translate(254.220773493 401.918125)scale(0.12 -0.12)">
       <use xlink:href="#DejaVuSans-44"/>
       <use x="77.001953125" xlink:href="#DejaVuSans-65"/>
       <use x="138.525390625" xlink:href="#DejaVuSans-63"/>
       <use x="193.505859375" xlink:href="#DejaVuSans-20"/>
       <use x="225.29296875" xlink:href="#DejaVuSans-32"/>
       <use x="288.916015625" xlink:href="#DejaVuSans-30"/>
       <use x="352.5390625" xlink:href="#DejaVuSans-31"/>
       <use x="416.162109375" xlink:href="#DejaVuSans-34"/>
      </g>
     </g>
    </g>
    <g id="xtick_7">
     <g id="line2d_15">
      <g>
       <use style="stroke:#000000;stroke-width:0.5;" x="323.708943885" xlink:href="#m93b0483c22" y="388.8"/>
      </g>
     </g>
     <g id="line2d_16">
      <g>
       <use style="stroke:#000000;stroke-width:0.5;" x="323.708943885" xlink:href="#m741efc42ff" y="43.2"/>
      </g>
     </g>
     <g id="text_7">
      <!-- Mar 2015 -->
      <defs>
       <path d="
M10.7969 72.9062
L49.5156 72.9062
L49.5156 64.5938
L19.8281 64.5938
L19.8281 46.7344
Q21.9688 47.4688 24.1094 47.8281
Q26.2656 48.1875 28.4219 48.1875
Q40.625 48.1875 47.75 41.5
Q54.8906 34.8125 54.8906 23.3906
Q54.8906 11.625 47.5625 5.09375
Q40.2344 -1.42188 26.9062 -1.42188
Q22.3125 -1.42188 17.5469 -0.640625
Q12.7969 0.140625 7.71875 1.70312
L7.71875 11.625
Q12.1094 9.23438 16.7969 8.0625
Q21.4844 6.89062 26.7031 6.89062
Q35.1562 6.89062 40.0781 11.3281
Q45.0156 15.7656 45.0156 23.3906
Q45.0156 31 40.0781 35.4375
Q35.1562 39.8906 26.7031 39.8906
Q22.75 39.8906 18.8125 39.0156
Q14.8906 38.1406 10.7969 36.2812
z
" id="DejaVuSans-35"/>
      </defs>
      <g transform="translate(295.735818885 401.918125)scale(0.12 -0.12)">
       <use xlink:href="#DejaVuSans-4d"/>
       <use x="86.279296875" xlink:href="#DejaVuSans-61"/>
       <use x="147.55859375" xlink:href="#DejaVuSans-72"/>
       <use x="188.671875" xlink:href="#DejaVuSans-20"/>
       <use x="220.458984375" xlink:href="#DejaVuSans-32"/>
       <use x="284.08203125" xlink:href="#DejaVuSans-30"/>
       <use x="347.705078125" xlink:href="#DejaVuSans-31"/>
       <use x="411.328125" xlink:href="#DejaVuSans-35"/>
      </g>
     </g>
    </g>
    <g id="xtick_8">
     <g id="line2d_17">
      <g>
       <use style="stroke:#000000;stroke-width:0.5;" x="365.657795842" xlink:href="#m93b0483c22" y="388.8"/>
      </g>
     </g>
     <g id="line2d_18">
      <g>
       <use style="stroke:#000000;stroke-width:0.5;" x="365.657795842" xlink:href="#m741efc42ff" y="43.2"/>
      </g>
     </g>
     <g id="text_8">
      <!-- Jun 2015 -->
      <g transform="translate(339.319670842 401.918125)scale(0.12 -0.12)">
       <use xlink:href="#DejaVuSans-4a"/>
       <use x="29.4921875" xlink:href="#DejaVuSans-75"/>
       <use x="92.87109375" xlink:href="#DejaVuSans-6e"/>
       <use x="156.25" xlink:href="#DejaVuSans-20"/>
       <use x="188.037109375" xlink:href="#DejaVuSans-32"/>
       <use x="251.66015625" xlink:href="#DejaVuSans-30"/>
       <use x="315.283203125" xlink:href="#DejaVuSans-31"/>
       <use x="378.90625" xlink:href="#DejaVuSans-35"/>
      </g>
     </g>
    </g>
    <g id="xtick_9">
     <g id="line2d_19">
      <g>
       <use style="stroke:#000000;stroke-width:0.5;" x="407.606647799" xlink:href="#m93b0483c22" y="388.8"/>
      </g>
     </g>
     <g id="line2d_20">
      <g>
       <use style="stroke:#000000;stroke-width:0.5;" x="407.606647799" xlink:href="#m741efc42ff" y="43.2"/>
      </g>
     </g>
     <g id="text_9">
      <!-- Sep 2015 -->
      <g transform="translate(379.643835299 401.918125)scale(0.12 -0.12)">
       <use xlink:href="#DejaVuSans-53"/>
       <use x="63.4765625" xlink:href="#DejaVuSans-65"/>
       <use x="125.0" xlink:href="#DejaVuSans-70"/>
       <use x="188.4765625" xlink:href="#DejaVuSans-20"/>
       <use x="220.263671875" xlink:href="#DejaVuSans-32"/>
       <use x="283.88671875" xlink:href="#DejaVuSans-30"/>
       <use x="347.509765625" xlink:href="#DejaVuSans-31"/>
       <use x="411.1328125" xlink:href="#DejaVuSans-35"/>
      </g>
     </g>
    </g>
    <g id="xtick_10">
     <g id="line2d_21">
      <g>
       <use style="stroke:#000000;stroke-width:0.5;" x="449.099533973" xlink:href="#m93b0483c22" y="388.8"/>
      </g>
     </g>
     <g id="line2d_22">
      <g>
       <use style="stroke:#000000;stroke-width:0.5;" x="449.099533973" xlink:href="#m741efc42ff" y="43.2"/>
      </g>
     </g>
     <g id="text_10">
      <!-- Dec 2015 -->
      <g transform="translate(420.835783973 401.918125)scale(0.12 -0.12)">
       <use xlink:href="#DejaVuSans-44"/>
       <use x="77.001953125" xlink:href="#DejaVuSans-65"/>
       <use x="138.525390625" xlink:href="#DejaVuSans-63"/>
       <use x="193.505859375" xlink:href="#DejaVuSans-20"/>
       <use x="225.29296875" xlink:href="#DejaVuSans-32"/>
       <use x="288.916015625" xlink:href="#DejaVuSans-30"/>
       <use x="352.5390625" xlink:href="#DejaVuSans-31"/>
       <use x="416.162109375" xlink:href="#DejaVuSans-35"/>
      </g>
     </g>
    </g>
    <g id="xtick_11">
     <g id="line2d_23">
      <g>
       <use style="stroke:#000000;stroke-width:0.5;" x="490.592420148" xlink:href="#m93b0483c22" y="388.8"/>
      </g>
     </g>
     <g id="line2d_24">
      <g>
       <use style="stroke:#000000;stroke-width:0.5;" x="490.592420148" xlink:href="#m741efc42ff" y="43.2"/>
      </g>
     </g>
     <g id="text_11">
      <!-- Mar 2016 -->
      <defs>
       <path d="
M33.0156 40.375
Q26.375 40.375 22.4844 35.8281
Q18.6094 31.2969 18.6094 23.3906
Q18.6094 15.5312 22.4844 10.9531
Q26.375 6.39062 33.0156 6.39062
Q39.6562 6.39062 43.5312 10.9531
Q47.4062 15.5312 47.4062 23.3906
Q47.4062 31.2969 43.5312 35.8281
Q39.6562 40.375 33.0156 40.375
M52.5938 71.2969
L52.5938 62.3125
Q48.875 64.0625 45.0938 64.9844
Q41.3125 65.9219 37.5938 65.9219
Q27.8281 65.9219 22.6719 59.3281
Q17.5312 52.7344 16.7969 39.4062
Q19.6719 43.6562 24.0156 45.9219
Q28.375 48.1875 33.5938 48.1875
Q44.5781 48.1875 50.9531 41.5156
Q57.3281 34.8594 57.3281 23.3906
Q57.3281 12.1562 50.6875 5.35938
Q44.0469 -1.42188 33.0156 -1.42188
Q20.3594 -1.42188 13.6719 8.26562
Q6.98438 17.9688 6.98438 36.375
Q6.98438 53.6562 15.1875 63.9375
Q23.3906 74.2188 37.2031 74.2188
Q40.9219 74.2188 44.7031 73.4844
Q48.4844 72.75 52.5938 71.2969" id="DejaVuSans-36"/>
      </defs>
      <g transform="translate(462.473045148 401.918125)scale(0.12 -0.12)">
       <use xlink:href="#DejaVuSans-4d"/>
       <use x="86.279296875" xlink:href="#DejaVuSans-61"/>
       <use x="147.55859375" xlink:href="#DejaVuSans-72"/>
       <use x="188.671875" xlink:href="#DejaVuSans-20"/>
       <use x="220.458984375" xlink:href="#DejaVuSans-32"/>
       <use x="284.08203125" xlink:href="#DejaVuSans-30"/>
       <use x="347.705078125" xlink:href="#DejaVuSans-31"/>
       <use x="411.328125" xlink:href="#DejaVuSans-36"/>
      </g>
     </g>
    </g>
   </g>
   <g id="matplotlib.axis_2">
    <g id="ytick_1">
     <g id="line2d_25">
      <defs>
       <path d="
M0 0
L4 0" id="m728421d6d4" style="stroke:#000000;stroke-width:0.5;"/>
      </defs>
      <g>
       <use style="stroke:#000000;stroke-width:0.5;" x="72.0" xlink:href="#m728421d6d4" y="388.8"/>
      </g>
     </g>
     <g id="line2d_26">
      <defs>
       <path d="
M0 0
L-4 0" id="mcb0005524f" style="stroke:#000000;stroke-width:0.5;"/>
      </defs>
      <g>
       <use style="stroke:#000000;stroke-width:0.5;" x="518.4" xlink:href="#mcb0005524f" y="388.8"/>
      </g>
     </g>
     <g id="text_12">
      <!-- 0 -->
      <g transform="translate(61.953125 392.11125)scale(0.12 -0.12)">
       <use xlink:href="#DejaVuSans-30"/>
      </g>
     </g>
    </g>
    <g id="ytick_2">
     <g id="line2d_27">
      <g>
       <use style="stroke:#000000;stroke-width:0.5;" x="72.0" xlink:href="#m728421d6d4" y="331.2"/>
      </g>
     </g>
     <g id="line2d_28">
      <g>
       <use style="stroke:#000000;stroke-width:0.5;" x="518.4" xlink:href="#mcb0005524f" y="331.2"/>
      </g>
     </g>
     <g id="text_13">
      <!-- 500 -->
      <g transform="translate(46.818125 334.51125)scale(0.12 -0.12)">
       <use xlink:href="#DejaVuSans-35"/>
       <use x="63.623046875" xlink:href="#DejaVuSans-30"/>
       <use x="127.24609375" xlink:href="#DejaVuSans-30"/>
      </g>
     </g>
    </g>
    <g id="ytick_3">
     <g id="line2d_29">
      <g>
       <use style="stroke:#000000;stroke-width:0.5;" x="72.0" xlink:href="#m728421d6d4" y="273.6"/>
      </g>
     </g>
     <g id="line2d_30">
      <g>
       <use style="stroke:#000000;stroke-width:0.5;" x="518.4" xlink:href="#mcb0005524f" y="273.6"/>
      </g>
     </g>
     <g id="text_14">
      <!-- 1000 -->
      <g transform="translate(39.575 276.91125)scale(0.12 -0.12)">
       <use xlink:href="#DejaVuSans-31"/>
       <use x="63.623046875" xlink:href="#DejaVuSans-30"/>
       <use x="127.24609375" xlink:href="#DejaVuSans-30"/>
       <use x="190.869140625" xlink:href="#DejaVuSans-30"/>
      </g>
     </g>
    </g>
    <g id="ytick_4">
     <g id="line2d_31">
      <g>
       <use style="stroke:#000000;stroke-width:0.5;" x="72.0" xlink:href="#m728421d6d4" y="216.0"/>
      </g>
     </g>
     <g id="line2d_32">
      <g>
       <use style="stroke:#000000;stroke-width:0.5;" x="518.4" xlink:href="#mcb0005524f" y="216.0"/>
      </g>
     </g>
     <g id="text_15">
      <!-- 1500 -->
      <g transform="translate(39.575 219.31125)scale(0.12 -0.12)">
       <use xlink:href="#DejaVuSans-31"/>
       <use x="63.623046875" xlink:href="#DejaVuSans-35"/>
       <use x="127.24609375" xlink:href="#DejaVuSans-30"/>
       <use x="190.869140625" xlink:href="#DejaVuSans-30"/>
      </g>
     </g>
    </g>
    <g id="ytick_5">
     <g id="line2d_33">
      <g>
       <use style="stroke:#000000;stroke-width:0.5;" x="72.0" xlink:href="#m728421d6d4" y="158.4"/>
      </g>
     </g>
     <g id="line2d_34">
      <g>
       <use style="stroke:#000000;stroke-width:0.5;" x="518.4" xlink:href="#mcb0005524f" y="158.4"/>
      </g>
     </g>
     <g id="text_16">
      <!-- 2000 -->
      <g transform="translate(39.13625 161.71125)scale(0.12 -0.12)">
       <use xlink:href="#DejaVuSans-32"/>
       <use x="63.623046875" xlink:href="#DejaVuSans-30"/>
       <use x="127.24609375" xlink:href="#DejaVuSans-30"/>
       <use x="190.869140625" xlink:href="#DejaVuSans-30"/>
      </g>
     </g>
    </g>
    <g id="ytick_6">
     <g id="line2d_35">
      <g>
       <use style="stroke:#000000;stroke-width:0.5;" x="72.0" xlink:href="#m728421d6d4" y="100.8"/>
      </g>
     </g>
     <g id="line2d_36">
      <g>
       <use style="stroke:#000000;stroke-width:0.5;" x="518.4" xlink:href="#mcb0005524f" y="100.8"/>
      </g>
     </g>
     <g id="text_17">
      <!-- 2500 -->
      <g transform="translate(39.13625 104.11125)scale(0.12 -0.12)">
       <use xlink:href="#DejaVuSans-32"/>
       <use x="63.623046875" xlink:href="#DejaVuSans-35"/>
       <use x="127.24609375" xlink:href="#DejaVuSans-30"/>
       <use x="190.869140625" xlink:href="#DejaVuSans-30"/>
      </g>
     </g>
    </g>
    <g id="ytick_7">
     <g id="line2d_37">
      <g>
       <use style="stroke:#000000;stroke-width:0.5;" x="72.0" xlink:href="#m728421d6d4" y="43.2"/>
      </g>
     </g>
     <g id="line2d_38">
      <g>
       <use style="stroke:#000000;stroke-width:0.5;" x="518.4" xlink:href="#mcb0005524f" y="43.2"/>
      </g>
     </g>
     <g id="text_18">
      <!-- 3000 -->
      <g transform="translate(39.171875 46.51125)scale(0.12 -0.12)">
       <use xlink:href="#DejaVuSans-33"/>
       <use x="63.623046875" xlink:href="#DejaVuSans-30"/>
       <use x="127.24609375" xlink:href="#DejaVuSans-30"/>
       <use x="190.869140625" xlink:href="#DejaVuSans-30"/>
      </g>
     </g>
    </g>
   </g>
   <g id="patch_3">
    <path d="
M72 43.2
L518.4 43.2" style="fill:none;stroke:#000000;"/>
   </g>
   <g id="patch_4">
    <path d="
M518.4 388.8
L518.4 43.2" style="fill:none;stroke:#000000;"/>
   </g>
   <g id="patch_5">
    <path d="
M72 388.8
L518.4 388.8" style="fill:none;stroke:#000000;"/>
   </g>
   <g id="patch_6">
    <path d="
M72 388.8
L72 43.2" style="fill:none;stroke:#000000;"/>
   </g>
  </g>
 </g>
 <defs>
  <clipPath id="p7ff5b81e1d">
   <rect height="345.6" width="446.4" x="72.0" y="43.2"/>
  </clipPath>
 </defs>
</svg>
