<?xml version="1.0" encoding="utf-8" standalone="no"?>
<!DOCTYPE svg PUBLIC "-//W3C//DTD SVG 1.1//EN"
  "http://www.w3.org/Graphics/SVG/1.1/DTD/svg11.dtd">
<!-- Created with matplotlib (http://matplotlib.org/) -->
<svg height="432pt" version="1.1" viewBox="0 0 576 432" width="576pt" xmlns="http://www.w3.org/2000/svg" xmlns:xlink="http://www.w3.org/1999/xlink">
 <defs>
  <style type="text/css">
*{stroke-linecap:butt;stroke-linejoin:round;}
  </style>
 </defs>
 <g id="figure_1">
  <g id="patch_1">
   <path d="
M0 432
L576 432
L576 0
L0 0
z
" style="fill:#ffffff;"/>
  </g>
  <g id="axes_1">
   <g id="patch_2">
    <path d="
M72 388.8
L518.4 388.8
L518.4 43.2
L72 43.2
z
" style="fill:#ffffff;"/>
   </g>
   <g id="line2d_1">
    <path clip-path="url(#p7ff5b81e1d)" d="
M72.0524 261.685
L72.0616 117.826
L72.0718 130.851
L72.5285 230.09
L72.7473 243.147
L73.8846 277.158
L74.286 277.132
L74.6764 275.965
L74.7761 256.919
L74.8142 234.329
L75.1159 229.765
L75.5415 229.975
L75.9197 226.046
L77.2238 237.572
L78.0502 234.942
L78.4224 232.987
L78.9181 225.504
L79.2881 221.233
L80.0643 219.24
L80.6227 218.539
L81.3096 222.018
L81.5002 215.735
L81.5637 204.559
L82.1732 208.852
L85.3107 223.461
L85.3107 217.995
L86.7202 220.124
L87.0177 216.712
L88.5501 223.153
L89.4419 223.681
L90.3369 220.975
L90.3509 216.68
L90.7968 215.608
L90.7971 211.832
L93.5859 228.023
L94.0277 225.152
L94.849 224.547
L95.0233 221.231
L95.3085 219.519
L96.6516 221.288
L96.9937 220.074
L97.0035 213.905
L97.1712 212.948
L97.1718 209.513
L97.7048 208.98
L97.7067 204.081
L98.4222 204.54
L100.34 207.745
L104.583 220.498
L105.462 219.931
L107.567 225.561
L107.574 222.916
L107.863 221.926
L109.084 223.566
L109.18 221.648
L109.18 218.965
L110.343 220.525
L111.022 220.91
L111.496 217.922
L111.496 215.413
L118.364 233.462
L118.366 231.409
L121.001 239.008
L125.964 251.163
L126.099 249.512
L126.821 248.448
L127.897 249.889
L128.484 253.58
L128.678 252.724
L128.69 249.521
L128.935 250.464
L130.554 254.435
L130.576 253.157
L130.924 251.839
L131.002 251.115
L131.829 254.002
L131.829 252.469
L132.026 252.313
L132.814 253.725
L132.86 252.508
L133.36 253.077
L133.408 250.534
L133.595 249.866
L134.226 250.799
L135.777 255.551
L136.477 255.723
L137.767 256.242
L138.441 257.352
L138.469 256.412
L138.94 257.214
L139.371 257.695
L140.069 257.557
L140.312 257.3
L140.868 256.994
L141.574 257.68
L141.687 257.104
L144.701 263.781
L145.734 265.387
L146.706 266.238
L147.003 265.608
L147.545 265.277
L148.06 266.284
L148.151 264.709
L148.303 263.825
L151.091 269.083
L152.615 270.7
L154.512 272.171
L154.693 271.405
L154.72 269.556
L158.524 275.284
L160.253 276.319
L160.318 275.579
L160.866 275.461
L161.208 275.004
L162.014 275.495
L162.528 275.283
L162.528 274.422
L163.567 274.674
L163.591 273.925
L164.406 272.925
L165.201 273.575
L165.367 272.295
L166.296 271.531
L166.597 271.166
L167.468 271.584
L167.988 271.443
L168.505 271.128
L169.85 271.706
L170.251 271.445
L170.284 269.944
L170.641 269.6
L171.291 269.759
L171.556 269.239
L171.58 266.174
L174.481 268.287
L174.776 267.864
L174.986 265.935
L175.694 265.953
L176.231 263.736
L176.231 263
L176.806 263.078
L177.163 262.96
L177.382 262.707
L178.192 263.436
L180.236 265.618
L180.936 265.993
L180.936 264.587
L181.212 264.29
L183.212 266.594
L183.566 266.344
L183.599 265.741
L183.947 265.584
L185.384 267.053
L186.458 267.881
L186.843 267.69
L189.063 269.707
L190.46 270.27
L190.797 270.004
L191.24 269.906
L191.478 269.076
L191.861 268.271
L192.136 267.906
L192.422 265.28
L193.603 266.042
L193.603 265.431
L194.613 266.049
L195.156 266.163
L195.618 265.585
L195.995 265.549
L196.28 265.371
L196.462 265.062
L196.582 264.622
L196.582 264.03
L196.709 263.488
L196.952 263.376
L197.176 263.128
L198.817 264.417
L199.115 264.184
L199.244 263.292
L199.72 263.28
L200.887 264.506
L201.797 264.886
L202.455 264.724
L202.469 264.177
L203.117 264.221
L203.377 264.037
L203.603 263.211
L205.017 263.925
L205.017 262.841
L206.338 262.575
L207.271 263.037
L209.529 264.532
L209.529 264.013
L210.086 264.364
L210.891 264.646
L211.854 265.158
L212.025 264.877
L212.329 264.69
L212.511 264.428
L217.318 268.849
L217.389 268.562
L217.389 268.077
L217.608 268.02
L218.215 268.174
L221.604 270.439
L222.087 270.515
L222.369 270.358
L222.777 269.802
L223.258 269.967
L223.492 269.749
L225.183 270.85
L225.321 270.16
L225.998 270.245
L226.193 270.095
L226.245 269.682
L226.433 269.335
L226.433 268.889
L227.055 269.125
L227.081 268.348
L227.386 268.208
L227.386 267.797
L227.949 267.851
L227.949 267.405
L229.423 267.88
L230.104 267.826
L230.835 268.097
L230.835 267.709
L232.677 268.889
L232.972 268.196
L234.472 268.429
L238.465 270.601
L238.77 270.418
L238.951 270.165
L239.991 270.206
L242.306 271.483
L243.176 271.688
L244.253 272.133
L244.358 271.818
L244.734 271.764
L246.302 272.506
L246.306 272.116
L246.611 272.011
L246.63 271.637
L247.011 271.537
L247.016 271.152
L247.302 271.084
L247.983 271.167
L248.24 271.05
L248.255 270.68
L249.198 271.002
L249.21 270.632
L250.027 270.896
L250.332 270.734
L250.427 270.424
L252.042 270.908
L253.176 271.336
L253.176 271.01
L253.598 270.951
L253.708 270.764
L254.033 270.674
L254.043 269.945
L254.2 269.778
L255.262 269.909
L255.491 269.807
L258.261 271.217
L258.261 270.912
L258.459 270.702
L258.459 269.989
L258.75 269.834
L258.751 269.166
L258.921 268.865
L259.364 268.892
L259.483 268.627
L260.141 268.801
L262.189 270.01
L263.265 270.12
L263.333 269.861
L264.395 270.387
L264.395 270.044
L265.4 270.587
L266.319 270.841
L266.486 270.715
L266.882 270.619
L268.616 271.481
L269.549 271.757
L269.717 271.605
L269.745 271.303
L270.112 271.107
L270.131 270.802
L271.064 271.136
L271.064 270.811
L271.403 270.683
L273.372 271.68
L273.403 271.477
L274.08 271.287
L274.729 271.431
L274.729 271.113
L275.208 271.15
L275.371 270.982
L275.928 271.143
L275.99 270.892
L276.481 270.978
L276.586 270.437
L277.962 270.948
L278.205 270.827
L279.554 271.195
L280.702 271.8
L280.702 271.489
L280.935 271.336
L281.326 271.355
L282.293 271.599
L282.293 271.292
L282.436 271.099
L282.498 270.543
L283.26 270.759
L283.641 270.741
L283.836 270.297
L283.855 270.016
L284.842 270.103
L285.494 269.87
L285.642 269.34
L286.871 269.564
L286.995 269.08
L287.295 268.383
L288.367 268.818
L290.077 269.702
L290.472 269.661
L292.33 270.382
L293.026 270.51
L295.732 271.86
L297.814 272.314
L297.814 272.033
L299.233 272.22
L300.143 272.567
L300.553 272.524
L301.496 272.681
L305.336 274.599
L305.765 274.527
L306.227 274.206
L306.741 274.259
L306.979 274.052
L307.575 273.84
L309.318 274.386
L309.318 274.12
L310.119 274.252
L310.171 274.025
L310.662 274.019
L311.567 274.241
L311.991 274.211
L312.529 274.292
L312.636 274.104
L312.636 273.579
L313.077 273.656
L313.354 273.555
L315.149 274.043
L315.183 273.565
L315.464 273.538
L315.616 273.331
L315.712 272.382
L316.117 272.355
L316.3 272.151
L318.346 272.949
L318.408 272.762
L318.822 272.74
L318.846 272.518
L319.038 272.437
L320.89 272.928
L320.909 272.189
L321.2 272.084
L322.195 272.536
L322.252 272.109
L322.495 271.984
L323.515 272.326
L323.848 272.038
L323.848 271.793
L324.026 271.644
L324.089 271.443
L324.873 271.44
L325.006 271.336
L325.07 270.896
L325.682 270.978
L325.744 270.813
L327.059 271.054
L327.183 270.923
L327.359 270.332
L327.517 270.162
L327.828 270.126
L327.96 269.905
L328.185 269.792
L328.23 269.109
L329.336 269.398
L329.589 269.088
L331.423 269.783
L331.69 269.697
L331.728 269.267
L332.724 269.42
L332.733 269.196
L332.852 269.058
L332.852 268.823
L333.114 268.776
L333.257 268.271
L333.443 268.13
L334.647 268.645
L334.708 268.481
L335.896 269.121
L336.006 268.797
L336.344 268.772
L336.955 268.907
L336.955 268.683
L337.121 268.528
L337.961 268.683
L338.294 268.747
L338.294 268.524
L338.634 268.615
L338.94 268.483
L339.25 268.494
L339.26 268.062
L339.45 267.901
L340.47 268.297
L341.861 269.185
L342.28 269.271
L342.409 269.158
L343.785 269.264
L345.334 269.895
L345.448 269.788
L347.415 270.777
L347.415 270.564
L348.068 270.675
L349.207 271.137
L349.207 270.924
L349.545 270.96
L349.569 270.352
L350.031 270.377
L350.093 270.212
L351.951 271.028
L352.765 270.962
L352.803 270.846
L353.227 270.619
L354.199 271
L354.199 270.791
L355.993 271.625
L355.993 271.42
L356.799 271.51
L357.944 272.04
L357.987 271.841
L358.777 271.962
L359.259 271.964
L359.33 271.802
L360.497 272.186
L360.535 272.035
L360.926 272.036
L361.464 272.194
L361.564 271.872
L361.966 271.639
L362.307 271.576
L362.936 271.729
L362.951 271.135
L363.313 271.163
L363.365 270.8
L363.794 270.873
L363.87 270.544
L364.723 270.737
L364.789 270.585
L365.633 270.927
L366.095 270.662
L368.196 271.037
L369.42 271.736
L369.582 271.57
L370.273 271.489
L370.33 271.134
L372.617 272.357
L373.741 272.781
L373.812 272.457
L375.697 273.368
L375.697 273.182
L376.07 273.204
L376.113 272.486
L376.185 272.362
L376.623 272.441
L376.647 272.265
L377.909 272.815
L378.376 272.86
L378.443 272.187
L378.891 272.004
L378.953 271.323
L379.205 271.216
L379.748 271.318
L379.815 271.02
L380.11 270.953
L380.71 271.063
L381.287 271.304
L381.287 270.942
L382.478 271.51
L382.583 271.233
L382.673 271.12
L383.054 271.198
L383.13 271.062
L383.512 271.051
L384.331 271.37
L384.331 271.019
L387.042 271.284
L387.266 271.196
L388.323 271.128
L390.181 271.673
L391.382 271.897
L391.691 271.616
L394.95 272.32
L394.95 272.147
L395.807 272.119
L396.684 272.237
L396.684 272.065
L397.279 272.098
L397.498 271.954
L397.498 271.782
L397.937 271.749
L401.138 272.48
L401.259 272.367
L401.741 272.353
L401.811 272.037
L403.05 272.149
L403.139 271.83
L403.139 271.661
L405.356 271.877
L408.303 272.729
L408.627 272.611
L408.627 272.278
L409.662 272.443
L410.336 272.416
L410.336 272.252
L412.146 272.269
L412.768 272.337
L415.798 273.107
L415.817 272.621
L416.427 272.644
L416.722 272.385
L417.824 272.48
L417.824 272.319
L419.425 272.661
L419.52 272.544
L422.302 273.058
L422.849 272.787
L423.719 272.909
L423.808 272.761
L425.51 272.676
L426.965 272.926
L426.965 272.767
L427.251 272.686
L427.251 272.527
L428.127 272.673
L429.658 273.132
L429.715 272.847
L430.02 272.603
L430.153 272.343
L430.153 272.187
L431.551 272.311
L431.551 272.157
L431.989 272.032
L432.218 271.932
L435.063 272.777
L435.063 272.47
L436.569 272.266
L437.534 272.522
L437.833 272.482
L438.925 272.796
L438.925 272.646
L439.148 272.545
L439.167 272.255
L439.338 272.214
L441.047 272.502
L441.415 272.479
L442.794 272.648
L442.832 272.364
L443.765 272.492
L443.765 272.343
L445.665 272.512
L445.677 272.227
L446.249 272.308
L447.608 272.646
L447.805 272.574
L447.805 272.426
L447.989 272.419
L449.19 272.721
L449.196 272.582
L449.349 272.513
L449.374 272.086
L451.585 272.26
L452.531 272.508
L452.798 272.443
L452.811 272.308
L452.982 272.263
L452.982 272.124
L453.535 272.209
L453.535 272.065
L453.935 271.974
L455.828 272.389
L456.018 272.144
L456.018 271.86
L456.133 271.777
L456.704 271.787
L457.015 271.782
L457.635 271.839
L457.854 271.747
L458.508 271.891
L458.508 271.608
L459.035 271.675
L459.201 271.554
L459.969 271.789
L460.191 271.706
L460.23 271.172
L460.719 271.232
L460.719 271.092
L460.839 271.013
L460.839 270.734
L461.69 270.775
L461.76 270.537
L461.811 269.866
L462.205 269.754
L462.249 269.633
L465.33 270.114
L465.33 269.975
L465.61 269.942
L465.61 269.802
L466.346 269.747
L466.378 269.367
L466.753 269.099
L466.753 268.963
L467.452 269.074
L467.483 268.946
L468.576 268.926
L468.633 268.546
L469.586 268.548
L470.329 268.326
L470.412 268.107
L472.171 268.558
L472.616 268.463
L472.628 268.198
L473.632 268.062
L473.695 267.7
L473.905 267.602
L474.451 267.606
L474.496 267.363
L475.341 267.71
L475.455 267.684
L475.506 267.052
L476.255 266.947
L476.725 266.776
L476.725 266.663
L476.878 266.655
L476.897 266.53
L477.246 266.531
L477.291 266.296
L477.551 266.277
L477.634 266.088
L478.034 265.887
L478.866 265.981
L478.866 265.852
L478.98 265.653
L478.98 265.525
L480.384 265.819
L480.384 265.559
L480.511 265.503
L480.511 265.372
L481.184 265.205
L481.642 265.268
L481.705 265.054
L481.881 265.036
L481.896 264.916
L482.277 264.789
L482.709 264.729
L484.576 265.122
L484.64 265.045
L485.319 264.896
L485.802 264.817
L486.818 265.101
L487.123 264.827
L487.289 264.803
L487.301 264.556
L487.79 264.403
L487.809 264.281
L488.171 264.26
L488.171 264.132
L488.286 264.074
L488.286 263.947
L489.162 263.984
L489.442 263.798
L489.442 263.673
L490.083 263.679
L490.109 263.442
L491.436 263.683
L491.538 263.479
L492.745 263.694
L492.745 263.569
L494.269 263.851
L494.269 263.727
L494.904 263.579
L495.006 263.381
L495.527 263.417
L495.546 263.298
L495.94 263.186
L495.961 262.834
L497.172 262.984
L497.286 262.786
L497.667 262.805
L497.667 262.557
L498.087 262.427
L498.125 262.079
L499.3 262.333
L500.056 261.99
L500.392 261.995
L500.392 261.749
L500.907 261.818
L500.907 261.696
L501.44 261.823
L501.498 261.61
L502.273 261.631
L502.723 261.411
L503.168 261.209
L503.213 261.112
L503.429 260.993
L503.448 260.88
L504.026 260.798
L505.582 261.185
L506.471 261.366
L506.566 261.296
L508.288 261.57
L508.288 261.451
L508.821 261.306
L508.821 261.186
L509.596 261.058
L509.596 260.94
L510.073 260.909
L510.295 260.923
L510.295 260.803
L510.492 260.735
L510.492 260.618
L511.368 260.703
L511.559 260.682
L512.556 260.849
L513.369 260.705
L513.458 260.627
L516.05 261.226
L516.437 261.125
L517.098 261.162
L517.117 261.06
L517.752 261.161
L517.752 261.047
L517.943 261.036
L517.943 260.92
L518.381 260.84
L518.4 260.732
L518.4 260.732" style="fill:none;stroke:#ff0000;stroke-linecap:square;"/>
   </g>
   <g id="line2d_2">
    <path clip-path="url(#p7ff5b81e1d)" d="
M72 71.9102
L72.8467 344.373
L73.1379 328.912
L73.2034 312.35
L74.3642 322.824
L76.1303 329.283
L76.2065 320.91
L78.4195 322.89
L81.3084 328.499
L84.5202 331.789
L90.7952 338.407
L90.7968 334.211
L91.7197 332.838
L92.2892 330.503
L95.4324 327.631
L95.4324 323.863
L97.7041 325.206
L100.495 327.756
L100.552 324.75
L104.583 325.659
L104.583 319.77
L114.144 330.626
L119.961 334.789
L119.961 332.638
L120.656 331.602
L122.465 330.775
L122.465 326.721
L128.929 334.126
L129.445 333.037
L130.925 334.034
L130.984 331.037
L132.016 332.009
L132.369 331.014
L133.776 332.116
L133.961 331.043
L138.711 335.474
L138.777 332.991
L139.178 332.393
L139.178 331.117
L139.649 330.544
L140.069 329.494
L143.382 331.225
L145.626 332.497
L145.719 331.516
L146.912 331.471
L147.594 330.995
L148.824 331.808
L148.824 329.706
L152.579 332.214
L152.625 331.263
L153.527 329.143
L153.527 328.188
L155.163 328.687
L155.234 327.803
L159.863 330.619
L161.68 331.014
L162.257 329.824
L162.871 328.38
L163.519 327.811
L164.761 327.779
L166.84 328.59
L168.895 328.986
L170.165 328.837
L170.165 328.039
L171.58 328.269
L171.58 327.485
L173.461 327.935
L174.776 327.194
L175.805 327.093
L178.397 328.392
L178.916 328.024
L179.121 327.494
L180.936 328.104
L180.936 327.401
L182.089 327.557
L186.262 329.803
L187.61 329.988
L190.109 330.815
L190.46 330.489
L191.478 330.499
L195.557 331.662
L195.842 331.268
L196.717 331.241
L199.191 332.073
L200.43 332.278
L200.882 332.039
L204.923 333.632
L207.299 333.689
L208.895 333.407
L209.315 333.148
L211.644 333.839
L211.825 333.365
L214.225 333.947
L215.712 334.181
L216.141 333.96
L217.318 333.988
L217.489 333.649
L219.258 334.094
L219.757 333.769
L222.072 334.339
L222.172 333.519
L222.549 333.171
L222.777 332.803
L223.063 332.568
L223.258 332.167
L224.378 331.79
L224.445 330.906
L224.621 330.483
L227.503 331.018
L228.456 330.947
L228.761 330.202
L231.729 331.052
L231.729 330.622
L235.311 331.719
L236.797 331.954
L237.631 331.766
L237.726 331.451
L240.723 331.814
L240.847 331.033
L245.87 332.651
L247.712 332.972
L248.164 332.73
L248.912 332.664
L254.157 333.514
L257.786 334.729
L260.819 335.056
L266.319 336.299
L266.508 336.065
L267.886 335.817
L268.068 335.56
L272.937 336.654
L273.16 336.402
L273.16 336.076
L273.337 335.789
L275.99 336.43
L276.152 336.174
L277.681 336.405
L281.564 337.421
L285.232 337.913
L285.721 337.723
L287.119 337.557
L287.376 337.309
L287.757 337.108
L292.152 338.03
L292.542 337.812
L297.609 338.472
L299.233 338.556
L301.605 338.855
L301.605 338.58
L302.401 338.233
L303.306 338.159
L303.306 337.882
L305.746 338.216
L306.231 338.055
L307.056 337.967
L313.787 339.312
L314.416 339.241
L316.569 339.512
L316.974 339.358
L317.57 339.266
L317.736 339.08
L318.212 338.961
L318.503 338.77
L319.823 338.903
L320.056 338.77
L322.267 339.126
L322.281 338.88
L322.472 338.654
L324.604 338.814
L324.604 338.567
L325.811 338.665
L326.13 338.483
L327.312 338.571
L327.55 338.393
L328.003 338.251
L328.903 338.263
L329.132 337.627
L330.075 337.638
L334.146 338.132
L334.206 337.69
L335.339 337.557
L335.533 337.421
L336.401 337.486
L336.673 337.361
L338.375 337.497
L338.375 337.27
L338.964 337.186
L341.256 337.47
L341.341 336.837
L345.324 337.773
L346.124 337.543
L351.586 338.51
L351.955 338.388
L354.966 338.904
L355.133 338.788
L355.225 338.425
L357.105 338.638
L357.105 338.435
L357.301 338.268
L357.301 337.863
L362.703 338.911
L362.936 338.799
L362.986 338.616
L363.775 338.625
L363.881 338.474
L367.038 338.801
L367.9 338.636
L369.815 338.971
L370.173 338.881
L370.273 338.523
L370.623 338.426
L370.768 338.106
L371.597 337.919
L373.836 338.295
L374.665 338.108
L374.698 337.559
L374.898 337.445
L374.898 337.071
L375.756 337.118
L375.756 336.931
L376.194 336.657
L378.3 336.995
L378.762 336.915
L378.762 336.732
L384.693 337.518
L386.775 337.602
L391.515 337.92
L394.326 338.125
L394.326 337.951
L394.74 337.834
L398.642 338.102
L398.889 337.959
L401.195 337.759
L406.753 338.284
L406.753 338.115
L415.112 338.803
L415.553 338.7
L417.659 338.815
L418.275 338.597
L420.937 338.486
L422.175 338.194
L422.372 338.074
L422.817 337.984
L427.505 338.382
L428.267 338.183
L428.28 338.027
L430.522 338.226
L430.522 338.068
L433.456 338.474
L433.456 338.164
L433.717 338.046
L433.717 337.735
L435.229 337.421
L435.229 337.268
L438.36 337.368
L439.167 337.34
L439.23 337.048
L440.158 337.092
L440.501 336.693
L441.612 336.605
L444.674 336.908
L444.845 336.817
L445.271 336.725
L445.303 336.586
L447.799 336.761
L447.799 336.467
L448.339 336.008
L448.339 335.862
L449.285 335.873
L449.298 335.731
L449.431 335.619
L451.585 335.866
L451.686 335.755
L452.544 335.612
L452.639 335.488
L454.437 335.418
L454.888 335.347
L458.33 335.507
L458.94 335.185
L459.925 335.244
L460.306 335.031
L460.331 334.762
L460.839 334.71
L460.865 334.577
L461.341 334.38
L461.697 334.296
L463.895 334.275
L467.547 334.714
L467.655 334.605
L468.385 334.599
L468.385 334.462
L469.929 334.236
L469.948 334.104
L470.951 334.174
L471.104 334.042
L472.196 334.144
L473.213 333.787
L473.416 333.669
L473.416 333.534
L473.607 333.305
L475.207 333.183
L476.725 333.005
L476.725 332.872
L477.303 332.494
L478.097 332.282
L478.104 332.152
L478.65 332.001
L479.647 331.68
L481.667 331.835
L482.338 331.725
L482.709 331.535
L482.753 331.286
L486.317 331.055
L486.317 330.928
L486.647 330.881
L487.289 330.916
L487.403 330.191
L488.171 329.671
L489.423 329.619
L489.423 329.494
L495.87 329.491
L495.961 329.269
L496.412 329.198
L497.68 329.181
L498.239 329.029
L501.517 329.283
L501.517 329.16
L502.666 329.103
L504.286 329.29
L504.286 329.168
L504.642 329.108
L505.652 329.044
L506.014 328.985
L507.322 329.013
L507.494 328.684
L507.754 328.587
L507.792 328.361
L508.415 328.361
L508.447 328.127
L508.675 328.034
L511.203 328.327
L513.49 328.403
L513.49 328.284
L514.589 328.004
L514.633 327.775
L515.7 327.74
L516.85 327.446
L517.943 327.559
L517.968 327.446
L517.968 327.446" style="fill:none;stroke:#008000;stroke-linecap:square;"/>
   </g>
   <g id="matplotlib.axis_1">
    <g id="xtick_1">
     <g id="line2d_3">
      <defs>
       <path d="
M0 0
L0 -4" id="m93b0483c22" style="stroke:#000000;stroke-width:0.5;"/>
      </defs>
      <g>
       <use style="stroke:#000000;stroke-width:0.5;" x="73.5146048327" xlink:href="#m93b0483c22" y="388.8"/>
      </g>
     </g>
     <g id="line2d_4">
      <defs>
       <path d="
M0 0
L0 4" id="m741efc42ff" style="stroke:#000000;stroke-width:0.5;"/>
      </defs>
      <g>
       <use style="stroke:#000000;stroke-width:0.5;" x="73.5146048327" xlink:href="#m741efc42ff" y="43.2"/>
      </g>
     </g>
     <g id="text_1">
      <!-- Sep 2013 -->
      <defs>
       <path d="
M40.5781 39.3125
Q47.6562 37.7969 51.625 33
Q55.6094 28.2188 55.6094 21.1875
Q55.6094 10.4062 48.1875 4.48438
Q40.7656 -1.42188 27.0938 -1.42188
Q22.5156 -1.42188 17.6562 -0.515625
Q12.7969 0.390625 7.625 2.20312
L7.625 11.7188
Q11.7188 9.32812 16.5938 8.10938
Q21.4844 6.89062 26.8125 6.89062
Q36.0781 6.89062 40.9375 10.5469
Q45.7969 14.2031 45.7969 21.1875
Q45.7969 27.6406 41.2812 31.2656
Q36.7656 34.9062 28.7188 34.9062
L20.2188 34.9062
L20.2188 43.0156
L29.1094 43.0156
Q36.375 43.0156 40.2344 45.9219
Q44.0938 48.8281 44.0938 54.2969
Q44.0938 59.9062 40.1094 62.9062
Q36.1406 65.9219 28.7188 65.9219
Q24.6562 65.9219 20.0156 65.0312
Q15.375 64.1562 9.8125 62.3125
L9.8125 71.0938
Q15.4375 72.6562 20.3438 73.4375
Q25.25 74.2188 29.5938 74.2188
Q40.8281 74.2188 47.3594 69.1094
Q53.9062 64.0156 53.9062 55.3281
Q53.9062 49.2656 50.4375 45.0938
Q46.9688 40.9219 40.5781 39.3125" id="DejaVuSans-33"/>
       <path d="
M12.4062 8.29688
L28.5156 8.29688
L28.5156 63.9219
L10.9844 60.4062
L10.9844 69.3906
L28.4219 72.9062
L38.2812 72.9062
L38.2812 8.29688
L54.3906 8.29688
L54.3906 0
L12.4062 0
z
" id="DejaVuSans-31"/>
       <path d="
M31.7812 66.4062
Q24.1719 66.4062 20.3281 58.9062
Q16.5 51.4219 16.5 36.375
Q16.5 21.3906 20.3281 13.8906
Q24.1719 6.39062 31.7812 6.39062
Q39.4531 6.39062 43.2812 13.8906
Q47.125 21.3906 47.125 36.375
Q47.125 51.4219 43.2812 58.9062
Q39.4531 66.4062 31.7812 66.4062
M31.7812 74.2188
Q44.0469 74.2188 50.5156 64.5156
Q56.9844 54.8281 56.9844 36.375
Q56.9844 17.9688 50.5156 8.26562
Q44.0469 -1.42188 31.7812 -1.42188
Q19.5312 -1.42188 13.0625 8.26562
Q6.59375 17.9688 6.59375 36.375
Q6.59375 54.8281 13.0625 64.5156
Q19.5312 74.2188 31.7812 74.2188" id="DejaVuSans-30"/>
       <path id="DejaVuSans-20"/>
       <path d="
M19.1875 8.29688
L53.6094 8.29688
L53.6094 0
L7.32812 0
L7.32812 8.29688
Q12.9375 14.1094 22.625 23.8906
Q32.3281 33.6875 34.8125 36.5312
Q39.5469 41.8438 41.4219 45.5312
Q43.3125 49.2188 43.3125 52.7812
Q43.3125 58.5938 39.2344 62.25
Q35.1562 65.9219 28.6094 65.9219
Q23.9688 65.9219 18.8125 64.3125
Q13.6719 62.7031 7.8125 59.4219
L7.8125 69.3906
Q13.7656 71.7812 18.9375 73
Q24.125 74.2188 28.4219 74.2188
Q39.75 74.2188 46.4844 68.5469
Q53.2188 62.8906 53.2188 53.4219
Q53.2188 48.9219 51.5312 44.8906
Q49.8594 40.875 45.4062 35.4062
Q44.1875 33.9844 37.6406 27.2188
Q31.1094 20.4531 19.1875 8.29688" id="DejaVuSans-32"/>
       <path d="
M53.5156 70.5156
L53.5156 60.8906
Q47.9062 63.5781 42.9219 64.8906
Q37.9375 66.2188 33.2969 66.2188
Q25.25 66.2188 20.875 63.0938
Q16.5 59.9688 16.5 54.2031
Q16.5 49.3594 19.4062 46.8906
Q22.3125 44.4375 30.4219 42.9219
L36.375 41.7031
Q47.4062 39.5938 52.6562 34.2969
Q57.9062 29 57.9062 20.125
Q57.9062 9.51562 50.7969 4.04688
Q43.7031 -1.42188 29.9844 -1.42188
Q24.8125 -1.42188 18.9688 -0.25
Q13.1406 0.921875 6.89062 3.21875
L6.89062 13.375
Q12.8906 10.0156 18.6562 8.29688
Q24.4219 6.59375 29.9844 6.59375
Q38.4219 6.59375 43.0156 9.90625
Q47.6094 13.2344 47.6094 19.3906
Q47.6094 24.75 44.3125 27.7812
Q41.0156 30.8125 33.5 32.3281
L27.4844 33.5
Q16.4531 35.6875 11.5156 40.375
Q6.59375 45.0625 6.59375 53.4219
Q6.59375 63.0938 13.4062 68.6562
Q20.2188 74.2188 32.1719 74.2188
Q37.3125 74.2188 42.625 73.2812
Q47.9531 72.3594 53.5156 70.5156" id="DejaVuSans-53"/>
       <path d="
M56.2031 29.5938
L56.2031 25.2031
L14.8906 25.2031
Q15.4844 15.9219 20.4844 11.0625
Q25.4844 6.20312 34.4219 6.20312
Q39.5938 6.20312 44.4531 7.46875
Q49.3125 8.73438 54.1094 11.2812
L54.1094 2.78125
Q49.2656 0.734375 44.1875 -0.34375
Q39.1094 -1.42188 33.8906 -1.42188
Q20.7969 -1.42188 13.1562 6.1875
Q5.51562 13.8125 5.51562 26.8125
Q5.51562 40.2344 12.7656 48.1094
Q20.0156 56 32.3281 56
Q43.3594 56 49.7812 48.8906
Q56.2031 41.7969 56.2031 29.5938
M47.2188 32.2344
Q47.125 39.5938 43.0938 43.9844
Q39.0625 48.3906 32.4219 48.3906
Q24.9062 48.3906 20.3906 44.1406
Q15.875 39.8906 15.1875 32.1719
z
" id="DejaVuSans-65"/>
       <path d="
M18.1094 8.20312
L18.1094 -20.7969
L9.07812 -20.7969
L9.07812 54.6875
L18.1094 54.6875
L18.1094 46.3906
Q20.9531 51.2656 25.2656 53.625
Q29.5938 56 35.5938 56
Q45.5625 56 51.7812 48.0938
Q58.0156 40.1875 58.0156 27.2969
Q58.0156 14.4062 51.7812 6.48438
Q45.5625 -1.42188 35.5938 -1.42188
Q29.5938 -1.42188 25.2656 0.953125
Q20.9531 3.32812 18.1094 8.20312
M48.6875 27.2969
Q48.6875 37.2031 44.6094 42.8438
Q40.5312 48.4844 33.4062 48.4844
Q26.2656 48.4844 22.1875 42.8438
Q18.1094 37.2031 18.1094 27.2969
Q18.1094 17.3906 22.1875 11.75
Q26.2656 6.10938 33.4062 6.10938
Q40.5312 6.10938 44.6094 11.75
Q48.6875 17.3906 48.6875 27.2969" id="DejaVuSans-70"/>
      </defs>
      <g transform="translate(45.5086673327 401.918125)scale(0.12 -0.12)">
       <use xlink:href="#DejaVuSans-53"/>
       <use x="63.4765625" xlink:href="#DejaVuSans-65"/>
       <use x="125.0" xlink:href="#DejaVuSans-70"/>
       <use x="188.4765625" xlink:href="#DejaVuSans-20"/>
       <use x="220.263671875" xlink:href="#DejaVuSans-32"/>
       <use x="283.88671875" xlink:href="#DejaVuSans-30"/>
       <use x="347.509765625" xlink:href="#DejaVuSans-31"/>
       <use x="411.1328125" xlink:href="#DejaVuSans-33"/>
      </g>
     </g>
    </g>
    <g id="xtick_2">
     <g id="line2d_5">
      <g>
       <use style="stroke:#000000;stroke-width:0.5;" x="115.132096397" xlink:href="#m93b0483c22" y="388.8"/>
      </g>
     </g>
     <g id="line2d_6">
      <g>
       <use style="stroke:#000000;stroke-width:0.5;" x="115.132096397" xlink:href="#m741efc42ff" y="43.2"/>
      </g>
     </g>
     <g id="text_2">
      <!-- Dec 2013 -->
      <defs>
       <path d="
M19.6719 64.7969
L19.6719 8.10938
L31.5938 8.10938
Q46.6875 8.10938 53.6875 14.9375
Q60.6875 21.7812 60.6875 36.5312
Q60.6875 51.1719 53.6875 57.9844
Q46.6875 64.7969 31.5938 64.7969
z

M9.8125 72.9062
L30.0781 72.9062
Q51.2656 72.9062 61.1719 64.0938
Q71.0938 55.2812 71.0938 36.5312
Q71.0938 17.6719 61.125 8.82812
Q51.1719 0 30.0781 0
L9.8125 0
z
" id="DejaVuSans-44"/>
       <path d="
M48.7812 52.5938
L48.7812 44.1875
Q44.9688 46.2969 41.1406 47.3438
Q37.3125 48.3906 33.4062 48.3906
Q24.6562 48.3906 19.8125 42.8438
Q14.9844 37.3125 14.9844 27.2969
Q14.9844 17.2812 19.8125 11.7344
Q24.6562 6.20312 33.4062 6.20312
Q37.3125 6.20312 41.1406 7.25
Q44.9688 8.29688 48.7812 10.4062
L48.7812 2.09375
Q45.0156 0.34375 40.9844 -0.53125
Q36.9688 -1.42188 32.4219 -1.42188
Q20.0625 -1.42188 12.7812 6.34375
Q5.51562 14.1094 5.51562 27.2969
Q5.51562 40.6719 12.8594 48.3281
Q20.2188 56 33.0156 56
Q37.1562 56 41.1094 55.1406
Q45.0625 54.2969 48.7812 52.5938" id="DejaVuSans-63"/>
      </defs>
      <g transform="translate(86.8252213966 401.918125)scale(0.12 -0.12)">
       <use xlink:href="#DejaVuSans-44"/>
       <use x="77.001953125" xlink:href="#DejaVuSans-65"/>
       <use x="138.525390625" xlink:href="#DejaVuSans-63"/>
       <use x="193.505859375" xlink:href="#DejaVuSans-20"/>
       <use x="225.29296875" xlink:href="#DejaVuSans-32"/>
       <use x="288.916015625" xlink:href="#DejaVuSans-30"/>
       <use x="352.5390625" xlink:href="#DejaVuSans-31"/>
       <use x="416.162109375" xlink:href="#DejaVuSans-33"/>
      </g>
     </g>
    </g>
    <g id="xtick_3">
     <g id="line2d_7">
      <g>
       <use style="stroke:#000000;stroke-width:0.5;" x="156.292252888" xlink:href="#m93b0483c22" y="388.8"/>
      </g>
     </g>
     <g id="line2d_8">
      <g>
       <use style="stroke:#000000;stroke-width:0.5;" x="156.292252888" xlink:href="#m741efc42ff" y="43.2"/>
      </g>
     </g>
     <g id="text_3">
      <!-- Mar 2014 -->
      <defs>
       <path d="
M9.8125 72.9062
L24.5156 72.9062
L43.1094 23.2969
L61.8125 72.9062
L76.5156 72.9062
L76.5156 0
L66.8906 0
L66.8906 64.0156
L48.0938 14.0156
L38.1875 14.0156
L19.3906 64.0156
L19.3906 0
L9.8125 0
z
" id="DejaVuSans-4d"/>
       <path d="
M41.1094 46.2969
Q39.5938 47.1719 37.8125 47.5781
Q36.0312 48 33.8906 48
Q26.2656 48 22.1875 43.0469
Q18.1094 38.0938 18.1094 28.8125
L18.1094 0
L9.07812 0
L9.07812 54.6875
L18.1094 54.6875
L18.1094 46.1875
Q20.9531 51.1719 25.4844 53.5781
Q30.0312 56 36.5312 56
Q37.4531 56 38.5781 55.875
Q39.7031 55.7656 41.0625 55.5156
z
" id="DejaVuSans-72"/>
       <path d="
M37.7969 64.3125
L12.8906 25.3906
L37.7969 25.3906
z

M35.2031 72.9062
L47.6094 72.9062
L47.6094 25.3906
L58.0156 25.3906
L58.0156 17.1875
L47.6094 17.1875
L47.6094 0
L37.7969 0
L37.7969 17.1875
L4.89062 17.1875
L4.89062 26.7031
z
" id="DejaVuSans-34"/>
       <path d="
M34.2812 27.4844
Q23.3906 27.4844 19.1875 25
Q14.9844 22.5156 14.9844 16.5
Q14.9844 11.7188 18.1406 8.90625
Q21.2969 6.10938 26.7031 6.10938
Q34.1875 6.10938 38.7031 11.4062
Q43.2188 16.7031 43.2188 25.4844
L43.2188 27.4844
z

M52.2031 31.2031
L52.2031 0
L43.2188 0
L43.2188 8.29688
Q40.1406 3.32812 35.5469 0.953125
Q30.9531 -1.42188 24.3125 -1.42188
Q15.9219 -1.42188 10.9531 3.29688
Q6 8.01562 6 15.9219
Q6 25.1406 12.1719 29.8281
Q18.3594 34.5156 30.6094 34.5156
L43.2188 34.5156
L43.2188 35.4062
Q43.2188 41.6094 39.1406 45
Q35.0625 48.3906 27.6875 48.3906
Q23 48.3906 18.5469 47.2656
Q14.1094 46.1406 10.0156 43.8906
L10.0156 52.2031
Q14.9375 54.1094 19.5781 55.0469
Q24.2188 56 28.6094 56
Q40.4844 56 46.3438 49.8438
Q52.2031 43.7031 52.2031 31.2031" id="DejaVuSans-61"/>
      </defs>
      <g transform="translate(128.131627888 401.918125)scale(0.12 -0.12)">
       <use xlink:href="#DejaVuSans-4d"/>
       <use x="86.279296875" xlink:href="#DejaVuSans-61"/>
       <use x="147.55859375" xlink:href="#DejaVuSans-72"/>
       <use x="188.671875" xlink:href="#DejaVuSans-20"/>
       <use x="220.458984375" xlink:href="#DejaVuSans-32"/>
       <use x="284.08203125" xlink:href="#DejaVuSans-30"/>
       <use x="347.705078125" xlink:href="#DejaVuSans-31"/>
       <use x="411.328125" xlink:href="#DejaVuSans-34"/>
      </g>
     </g>
    </g>
    <g id="xtick_4">
     <g id="line2d_9">
      <g>
       <use style="stroke:#000000;stroke-width:0.5;" x="198.367079524" xlink:href="#m93b0483c22" y="388.8"/>
      </g>
     </g>
     <g id="line2d_10">
      <g>
       <use style="stroke:#000000;stroke-width:0.5;" x="198.367079524" xlink:href="#m741efc42ff" y="43.2"/>
      </g>
     </g>
     <g id="text_4">
      <!-- Jun 2014 -->
      <defs>
       <path d="
M8.5 21.5781
L8.5 54.6875
L17.4844 54.6875
L17.4844 21.9219
Q17.4844 14.1562 20.5 10.2656
Q23.5312 6.39062 29.5938 6.39062
Q36.8594 6.39062 41.0781 11.0312
Q45.3125 15.6719 45.3125 23.6875
L45.3125 54.6875
L54.2969 54.6875
L54.2969 0
L45.3125 0
L45.3125 8.40625
Q42.0469 3.42188 37.7188 1
Q33.4062 -1.42188 27.6875 -1.42188
Q18.2656 -1.42188 13.375 4.4375
Q8.5 10.2969 8.5 21.5781
M31.1094 56
z
" id="DejaVuSans-75"/>
       <path d="
M54.8906 33.0156
L54.8906 0
L45.9062 0
L45.9062 32.7188
Q45.9062 40.4844 42.875 44.3281
Q39.8438 48.1875 33.7969 48.1875
Q26.5156 48.1875 22.3125 43.5469
Q18.1094 38.9219 18.1094 30.9062
L18.1094 0
L9.07812 0
L9.07812 54.6875
L18.1094 54.6875
L18.1094 46.1875
Q21.3438 51.125 25.7031 53.5625
Q30.0781 56 35.7969 56
Q45.2188 56 50.0469 50.1719
Q54.8906 44.3438 54.8906 33.0156" id="DejaVuSans-6e"/>
       <path d="
M9.8125 72.9062
L19.6719 72.9062
L19.6719 5.07812
Q19.6719 -8.10938 14.6719 -14.0625
Q9.67188 -20.0156 -1.42188 -20.0156
L-5.17188 -20.0156
L-5.17188 -11.7188
L-2.09375 -11.7188
Q4.4375 -11.7188 7.125 -8.04688
Q9.8125 -4.39062 9.8125 5.07812
z
" id="DejaVuSans-4a"/>
      </defs>
      <g transform="translate(171.841454524 401.918125)scale(0.12 -0.12)">
       <use xlink:href="#DejaVuSans-4a"/>
       <use x="29.4921875" xlink:href="#DejaVuSans-75"/>
       <use x="92.87109375" xlink:href="#DejaVuSans-6e"/>
       <use x="156.25" xlink:href="#DejaVuSans-20"/>
       <use x="188.037109375" xlink:href="#DejaVuSans-32"/>
       <use x="251.66015625" xlink:href="#DejaVuSans-30"/>
       <use x="315.283203125" xlink:href="#DejaVuSans-31"/>
       <use x="378.90625" xlink:href="#DejaVuSans-34"/>
      </g>
     </g>
    </g>
    <g id="xtick_5">
     <g id="line2d_11">
      <g>
       <use style="stroke:#000000;stroke-width:0.5;" x="240.44190616" xlink:href="#m93b0483c22" y="388.8"/>
      </g>
     </g>
     <g id="line2d_12">
      <g>
       <use style="stroke:#000000;stroke-width:0.5;" x="240.44190616" xlink:href="#m741efc42ff" y="43.2"/>
      </g>
     </g>
     <g id="text_5">
      <!-- Sep 2014 -->
      <g transform="translate(212.29159366 401.918125)scale(0.12 -0.12)">
       <use xlink:href="#DejaVuSans-53"/>
       <use x="63.4765625" xlink:href="#DejaVuSans-65"/>
       <use x="125.0" xlink:href="#DejaVuSans-70"/>
       <use x="188.4765625" xlink:href="#DejaVuSans-20"/>
       <use x="220.263671875" xlink:href="#DejaVuSans-32"/>
       <use x="283.88671875" xlink:href="#DejaVuSans-30"/>
       <use x="347.509765625" xlink:href="#DejaVuSans-31"/>
       <use x="411.1328125" xlink:href="#DejaVuSans-34"/>
      </g>
     </g>
    </g>
    <g id="xtick_6">
     <g id="line2d_13">
      <g>
       <use style="stroke:#000000;stroke-width:0.5;" x="282.059397724" xlink:href="#m93b0483c22" y="388.8"/>
      </g>
     </g>
     <g id="line2d_14">
      <g>
       <use style="stroke:#000000;stroke-width:0.5;" x="282.059397724" xlink:href="#m741efc42ff" y="43.2"/>
      </g>
     </g>
     <g id="text_6">
      <!-- Dec 2014 -->
      <g transform="translate(253.608147724 401.918125)scale(0.12 -0.12)">
       <use xlink:href="#DejaVuSans-44"/>
       <use x="77.001953125" xlink:href="#DejaVuSans-65"/>
       <use x="138.525390625" xlink:href="#DejaVuSans-63"/>
       <use x="193.505859375" xlink:href="#DejaVuSans-20"/>
       <use x="225.29296875" xlink:href="#DejaVuSans-32"/>
       <use x="288.916015625" xlink:href="#DejaVuSans-30"/>
       <use x="352.5390625" xlink:href="#DejaVuSans-31"/>
       <use x="416.162109375" xlink:href="#DejaVuSans-34"/>
      </g>
     </g>
    </g>
    <g id="xtick_7">
     <g id="line2d_15">
      <g>
       <use style="stroke:#000000;stroke-width:0.5;" x="323.219554216" xlink:href="#m93b0483c22" y="388.8"/>
      </g>
     </g>
     <g id="line2d_16">
      <g>
       <use style="stroke:#000000;stroke-width:0.5;" x="323.219554216" xlink:href="#m741efc42ff" y="43.2"/>
      </g>
     </g>
     <g id="text_7">
      <!-- Mar 2015 -->
      <defs>
       <path d="
M10.7969 72.9062
L49.5156 72.9062
L49.5156 64.5938
L19.8281 64.5938
L19.8281 46.7344
Q21.9688 47.4688 24.1094 47.8281
Q26.2656 48.1875 28.4219 48.1875
Q40.625 48.1875 47.75 41.5
Q54.8906 34.8125 54.8906 23.3906
Q54.8906 11.625 47.5625 5.09375
Q40.2344 -1.42188 26.9062 -1.42188
Q22.3125 -1.42188 17.5469 -0.640625
Q12.7969 0.140625 7.71875 1.70312
L7.71875 11.625
Q12.1094 9.23438 16.7969 8.0625
Q21.4844 6.89062 26.7031 6.89062
Q35.1562 6.89062 40.0781 11.3281
Q45.0156 15.7656 45.0156 23.3906
Q45.0156 31 40.0781 35.4375
Q35.1562 39.8906 26.7031 39.8906
Q22.75 39.8906 18.8125 39.0156
Q14.8906 38.1406 10.7969 36.2812
z
" id="DejaVuSans-35"/>
      </defs>
      <g transform="translate(295.246429216 401.918125)scale(0.12 -0.12)">
       <use xlink:href="#DejaVuSans-4d"/>
       <use x="86.279296875" xlink:href="#DejaVuSans-61"/>
       <use x="147.55859375" xlink:href="#DejaVuSans-72"/>
       <use x="188.671875" xlink:href="#DejaVuSans-20"/>
       <use x="220.458984375" xlink:href="#DejaVuSans-32"/>
       <use x="284.08203125" xlink:href="#DejaVuSans-30"/>
       <use x="347.705078125" xlink:href="#DejaVuSans-31"/>
       <use x="411.328125" xlink:href="#DejaVuSans-35"/>
      </g>
     </g>
    </g>
    <g id="xtick_8">
     <g id="line2d_17">
      <g>
       <use style="stroke:#000000;stroke-width:0.5;" x="365.294380852" xlink:href="#m93b0483c22" y="388.8"/>
      </g>
     </g>
     <g id="line2d_18">
      <g>
       <use style="stroke:#000000;stroke-width:0.5;" x="365.294380852" xlink:href="#m741efc42ff" y="43.2"/>
      </g>
     </g>
     <g id="text_8">
      <!-- Jun 2015 -->
      <g transform="translate(338.956255852 401.918125)scale(0.12 -0.12)">
       <use xlink:href="#DejaVuSans-4a"/>
       <use x="29.4921875" xlink:href="#DejaVuSans-75"/>
       <use x="92.87109375" xlink:href="#DejaVuSans-6e"/>
       <use x="156.25" xlink:href="#DejaVuSans-20"/>
       <use x="188.037109375" xlink:href="#DejaVuSans-32"/>
       <use x="251.66015625" xlink:href="#DejaVuSans-30"/>
       <use x="315.283203125" xlink:href="#DejaVuSans-31"/>
       <use x="378.90625" xlink:href="#DejaVuSans-35"/>
      </g>
     </g>
    </g>
    <g id="xtick_9">
     <g id="line2d_19">
      <g>
       <use style="stroke:#000000;stroke-width:0.5;" x="407.369207488" xlink:href="#m93b0483c22" y="388.8"/>
      </g>
     </g>
     <g id="line2d_20">
      <g>
       <use style="stroke:#000000;stroke-width:0.5;" x="407.369207488" xlink:href="#m741efc42ff" y="43.2"/>
      </g>
     </g>
     <g id="text_9">
      <!-- Sep 2015 -->
      <g transform="translate(379.406394988 401.918125)scale(0.12 -0.12)">
       <use xlink:href="#DejaVuSans-53"/>
       <use x="63.4765625" xlink:href="#DejaVuSans-65"/>
       <use x="125.0" xlink:href="#DejaVuSans-70"/>
       <use x="188.4765625" xlink:href="#DejaVuSans-20"/>
       <use x="220.263671875" xlink:href="#DejaVuSans-32"/>
       <use x="283.88671875" xlink:href="#DejaVuSans-30"/>
       <use x="347.509765625" xlink:href="#DejaVuSans-31"/>
       <use x="411.1328125" xlink:href="#DejaVuSans-35"/>
      </g>
     </g>
    </g>
    <g id="xtick_10">
     <g id="line2d_21">
      <g>
       <use style="stroke:#000000;stroke-width:0.5;" x="448.986699052" xlink:href="#m93b0483c22" y="388.8"/>
      </g>
     </g>
     <g id="line2d_22">
      <g>
       <use style="stroke:#000000;stroke-width:0.5;" x="448.986699052" xlink:href="#m741efc42ff" y="43.2"/>
      </g>
     </g>
     <g id="text_10">
      <!-- Dec 2015 -->
      <g transform="translate(420.722949052 401.918125)scale(0.12 -0.12)">
       <use xlink:href="#DejaVuSans-44"/>
       <use x="77.001953125" xlink:href="#DejaVuSans-65"/>
       <use x="138.525390625" xlink:href="#DejaVuSans-63"/>
       <use x="193.505859375" xlink:href="#DejaVuSans-20"/>
       <use x="225.29296875" xlink:href="#DejaVuSans-32"/>
       <use x="288.916015625" xlink:href="#DejaVuSans-30"/>
       <use x="352.5390625" xlink:href="#DejaVuSans-31"/>
       <use x="416.162109375" xlink:href="#DejaVuSans-35"/>
      </g>
     </g>
    </g>
    <g id="xtick_11">
     <g id="line2d_23">
      <g>
       <use style="stroke:#000000;stroke-width:0.5;" x="490.604190616" xlink:href="#m93b0483c22" y="388.8"/>
      </g>
     </g>
     <g id="line2d_24">
      <g>
       <use style="stroke:#000000;stroke-width:0.5;" x="490.604190616" xlink:href="#m741efc42ff" y="43.2"/>
      </g>
     </g>
     <g id="text_11">
      <!-- Mar 2016 -->
      <defs>
       <path d="
M33.0156 40.375
Q26.375 40.375 22.4844 35.8281
Q18.6094 31.2969 18.6094 23.3906
Q18.6094 15.5312 22.4844 10.9531
Q26.375 6.39062 33.0156 6.39062
Q39.6562 6.39062 43.5312 10.9531
Q47.4062 15.5312 47.4062 23.3906
Q47.4062 31.2969 43.5312 35.8281
Q39.6562 40.375 33.0156 40.375
M52.5938 71.2969
L52.5938 62.3125
Q48.875 64.0625 45.0938 64.9844
Q41.3125 65.9219 37.5938 65.9219
Q27.8281 65.9219 22.6719 59.3281
Q17.5312 52.7344 16.7969 39.4062
Q19.6719 43.6562 24.0156 45.9219
Q28.375 48.1875 33.5938 48.1875
Q44.5781 48.1875 50.9531 41.5156
Q57.3281 34.8594 57.3281 23.3906
Q57.3281 12.1562 50.6875 5.35938
Q44.0469 -1.42188 33.0156 -1.42188
Q20.3594 -1.42188 13.6719 8.26562
Q6.98438 17.9688 6.98438 36.375
Q6.98438 53.6562 15.1875 63.9375
Q23.3906 74.2188 37.2031 74.2188
Q40.9219 74.2188 44.7031 73.4844
Q48.4844 72.75 52.5938 71.2969" id="DejaVuSans-36"/>
      </defs>
      <g transform="translate(462.484815616 401.918125)scale(0.12 -0.12)">
       <use xlink:href="#DejaVuSans-4d"/>
       <use x="86.279296875" xlink:href="#DejaVuSans-61"/>
       <use x="147.55859375" xlink:href="#DejaVuSans-72"/>
       <use x="188.671875" xlink:href="#DejaVuSans-20"/>
       <use x="220.458984375" xlink:href="#DejaVuSans-32"/>
       <use x="284.08203125" xlink:href="#DejaVuSans-30"/>
       <use x="347.705078125" xlink:href="#DejaVuSans-31"/>
       <use x="411.328125" xlink:href="#DejaVuSans-36"/>
      </g>
     </g>
    </g>
   </g>
   <g id="matplotlib.axis_2">
    <g id="ytick_1">
     <g id="line2d_25">
      <defs>
       <path d="
M0 0
L4 0" id="m728421d6d4" style="stroke:#000000;stroke-width:0.5;"/>
      </defs>
      <g>
       <use style="stroke:#000000;stroke-width:0.5;" x="72.0" xlink:href="#m728421d6d4" y="388.8"/>
      </g>
     </g>
     <g id="line2d_26">
      <defs>
       <path d="
M0 0
L-4 0" id="mcb0005524f" style="stroke:#000000;stroke-width:0.5;"/>
      </defs>
      <g>
       <use style="stroke:#000000;stroke-width:0.5;" x="518.4" xlink:href="#mcb0005524f" y="388.8"/>
      </g>
     </g>
     <g id="text_12">
      <!-- 0 -->
      <g transform="translate(61.953125 392.11125)scale(0.12 -0.12)">
       <use xlink:href="#DejaVuSans-30"/>
      </g>
     </g>
    </g>
    <g id="ytick_2">
     <g id="line2d_27">
      <g>
       <use style="stroke:#000000;stroke-width:0.5;" x="72.0" xlink:href="#m728421d6d4" y="339.428571429"/>
      </g>
     </g>
     <g id="line2d_28">
      <g>
       <use style="stroke:#000000;stroke-width:0.5;" x="518.4" xlink:href="#mcb0005524f" y="339.428571429"/>
      </g>
     </g>
     <g id="text_13">
      <!-- 200 -->
      <g transform="translate(46.77125 342.739821429)scale(0.12 -0.12)">
       <use xlink:href="#DejaVuSans-32"/>
       <use x="63.623046875" xlink:href="#DejaVuSans-30"/>
       <use x="127.24609375" xlink:href="#DejaVuSans-30"/>
      </g>
     </g>
    </g>
    <g id="ytick_3">
     <g id="line2d_29">
      <g>
       <use style="stroke:#000000;stroke-width:0.5;" x="72.0" xlink:href="#m728421d6d4" y="290.057142857"/>
      </g>
     </g>
     <g id="line2d_30">
      <g>
       <use style="stroke:#000000;stroke-width:0.5;" x="518.4" xlink:href="#mcb0005524f" y="290.057142857"/>
      </g>
     </g>
     <g id="text_14">
      <!-- 400 -->
      <g transform="translate(46.47875 293.368392857)scale(0.12 -0.12)">
       <use xlink:href="#DejaVuSans-34"/>
       <use x="63.623046875" xlink:href="#DejaVuSans-30"/>
       <use x="127.24609375" xlink:href="#DejaVuSans-30"/>
      </g>
     </g>
    </g>
    <g id="ytick_4">
     <g id="line2d_31">
      <g>
       <use style="stroke:#000000;stroke-width:0.5;" x="72.0" xlink:href="#m728421d6d4" y="240.685714286"/>
      </g>
     </g>
     <g id="line2d_32">
      <g>
       <use style="stroke:#000000;stroke-width:0.5;" x="518.4" xlink:href="#mcb0005524f" y="240.685714286"/>
      </g>
     </g>
     <g id="text_15">
      <!-- 600 -->
      <g transform="translate(46.73 243.996964286)scale(0.12 -0.12)">
       <use xlink:href="#DejaVuSans-36"/>
       <use x="63.623046875" xlink:href="#DejaVuSans-30"/>
       <use x="127.24609375" xlink:href="#DejaVuSans-30"/>
      </g>
     </g>
    </g>
    <g id="ytick_5">
     <g id="line2d_33">
      <g>
       <use style="stroke:#000000;stroke-width:0.5;" x="72.0" xlink:href="#m728421d6d4" y="191.314285714"/>
      </g>
     </g>
     <g id="line2d_34">
      <g>
       <use style="stroke:#000000;stroke-width:0.5;" x="518.4" xlink:href="#mcb0005524f" y="191.314285714"/>
      </g>
     </g>
     <g id="text_16">
      <!-- 800 -->
      <defs>
       <path d="
M31.7812 34.625
Q24.75 34.625 20.7188 30.8594
Q16.7031 27.0938 16.7031 20.5156
Q16.7031 13.9219 20.7188 10.1562
Q24.75 6.39062 31.7812 6.39062
Q38.8125 6.39062 42.8594 10.1719
Q46.9219 13.9688 46.9219 20.5156
Q46.9219 27.0938 42.8906 30.8594
Q38.875 34.625 31.7812 34.625
M21.9219 38.8125
Q15.5781 40.375 12.0312 44.7188
Q8.5 49.0781 8.5 55.3281
Q8.5 64.0625 14.7188 69.1406
Q20.9531 74.2188 31.7812 74.2188
Q42.6719 74.2188 48.875 69.1406
Q55.0781 64.0625 55.0781 55.3281
Q55.0781 49.0781 51.5312 44.7188
Q48 40.375 41.7031 38.8125
Q48.8281 37.1562 52.7969 32.3125
Q56.7812 27.4844 56.7812 20.5156
Q56.7812 9.90625 50.3125 4.23438
Q43.8438 -1.42188 31.7812 -1.42188
Q19.7344 -1.42188 13.25 4.23438
Q6.78125 9.90625 6.78125 20.5156
Q6.78125 27.4844 10.7812 32.3125
Q14.7969 37.1562 21.9219 38.8125
M18.3125 54.3906
Q18.3125 48.7344 21.8438 45.5625
Q25.3906 42.3906 31.7812 42.3906
Q38.1406 42.3906 41.7188 45.5625
Q45.3125 48.7344 45.3125 54.3906
Q45.3125 60.0625 41.7188 63.2344
Q38.1406 66.4062 31.7812 66.4062
Q25.3906 66.4062 21.8438 63.2344
Q18.3125 60.0625 18.3125 54.3906" id="DejaVuSans-38"/>
      </defs>
      <g transform="translate(46.705625 194.625535714)scale(0.12 -0.12)">
       <use xlink:href="#DejaVuSans-38"/>
       <use x="63.623046875" xlink:href="#DejaVuSans-30"/>
       <use x="127.24609375" xlink:href="#DejaVuSans-30"/>
      </g>
     </g>
    </g>
    <g id="ytick_6">
     <g id="line2d_35">
      <g>
       <use style="stroke:#000000;stroke-width:0.5;" x="72.0" xlink:href="#m728421d6d4" y="141.942857143"/>
      </g>
     </g>
     <g id="line2d_36">
      <g>
       <use style="stroke:#000000;stroke-width:0.5;" x="518.4" xlink:href="#mcb0005524f" y="141.942857143"/>
      </g>
     </g>
     <g id="text_17">
      <!-- 1000 -->
      <g transform="translate(39.575 145.254107143)scale(0.12 -0.12)">
       <use xlink:href="#DejaVuSans-31"/>
       <use x="63.623046875" xlink:href="#DejaVuSans-30"/>
       <use x="127.24609375" xlink:href="#DejaVuSans-30"/>
       <use x="190.869140625" xlink:href="#DejaVuSans-30"/>
      </g>
     </g>
    </g>
    <g id="ytick_7">
     <g id="line2d_37">
      <g>
       <use style="stroke:#000000;stroke-width:0.5;" x="72.0" xlink:href="#m728421d6d4" y="92.5714285714"/>
      </g>
     </g>
     <g id="line2d_38">
      <g>
       <use style="stroke:#000000;stroke-width:0.5;" x="518.4" xlink:href="#mcb0005524f" y="92.5714285714"/>
      </g>
     </g>
     <g id="text_18">
      <!-- 1200 -->
      <g transform="translate(39.575 95.8826785714)scale(0.12 -0.12)">
       <use xlink:href="#DejaVuSans-31"/>
       <use x="63.623046875" xlink:href="#DejaVuSans-32"/>
       <use x="127.24609375" xlink:href="#DejaVuSans-30"/>
       <use x="190.869140625" xlink:href="#DejaVuSans-30"/>
      </g>
     </g>
    </g>
    <g id="ytick_8">
     <g id="line2d_39">
      <g>
       <use style="stroke:#000000;stroke-width:0.5;" x="72.0" xlink:href="#m728421d6d4" y="43.2"/>
      </g>
     </g>
     <g id="line2d_40">
      <g>
       <use style="stroke:#000000;stroke-width:0.5;" x="518.4" xlink:href="#mcb0005524f" y="43.2"/>
      </g>
     </g>
     <g id="text_19">
      <!-- 1400 -->
      <g transform="translate(39.575 46.51125)scale(0.12 -0.12)">
       <use xlink:href="#DejaVuSans-31"/>
       <use x="63.623046875" xlink:href="#DejaVuSans-34"/>
       <use x="127.24609375" xlink:href="#DejaVuSans-30"/>
       <use x="190.869140625" xlink:href="#DejaVuSans-30"/>
      </g>
     </g>
    </g>
   </g>
   <g id="patch_3">
    <path d="
M72 43.2
L518.4 43.2" style="fill:none;stroke:#000000;"/>
   </g>
   <g id="patch_4">
    <path d="
M518.4 388.8
L518.4 43.2" style="fill:none;stroke:#000000;"/>
   </g>
   <g id="patch_5">
    <path d="
M72 388.8
L518.4 388.8" style="fill:none;stroke:#000000;"/>
   </g>
   <g id="patch_6">
    <path d="
M72 388.8
L72 43.2" style="fill:none;stroke:#000000;"/>
   </g>
  </g>
 </g>
 <defs>
  <clipPath id="p7ff5b81e1d">
   <rect height="345.6" width="446.4" x="72.0" y="43.2"/>
  </clipPath>
 </defs>
</svg>
