<?xml version="1.0" encoding="utf-8" standalone="no"?>
<!DOCTYPE svg PUBLIC "-//W3C//DTD SVG 1.1//EN"
  "http://www.w3.org/Graphics/SVG/1.1/DTD/svg11.dtd">
<!-- Created with matplotlib (http://matplotlib.org/) -->
<svg height="432pt" version="1.1" viewBox="0 0 576 432" width="576pt" xmlns="http://www.w3.org/2000/svg" xmlns:xlink="http://www.w3.org/1999/xlink">
 <defs>
  <style type="text/css">
*{stroke-linecap:butt;stroke-linejoin:round;}
  </style>
 </defs>
 <g id="figure_1">
  <g id="patch_1">
   <path d="
M0 432
L576 432
L576 0
L0 0
z
" style="fill:#ffffff;"/>
  </g>
  <g id="axes_1">
   <g id="patch_2">
    <path d="
M72 388.8
L518.4 388.8
L518.4 43.2
L72 43.2
z
" style="fill:#ffffff;"/>
   </g>
   <g id="line2d_1">
    <path clip-path="url(#p7ff5b81e1d)" d="
M72.3809 350.416
L73.8958 375.302
L73.9034 346.112
L74.2659 324.393
L77.879 352.182
L79.2719 346.006
L80.8399 342.147
L82.6191 340.657
L85.6245 339.872
L87.5905 336.433
L87.9136 328.508
L88.5082 320.746
L91.5524 324.924
L92.2868 321.539
L92.8694 314.545
L94.1035 311.057
L94.817 304.79
L95.7128 301.905
L96.3662 296.199
L96.6699 289.847
L99.1235 298.201
L101.287 298.177
L102.346 294.401
L105.48 297.046
L106.77 294.082
L110.567 302.165
L114.376 308.046
L115.363 305.142
L115.736 301.118
L117.257 301.01
L118.373 299.348
L123.369 304.489
L126.119 308.493
L127.073 306.379
L128.489 311.737
L128.677 308.931
L130.105 311.521
L130.174 308.927
L130.728 308.921
L131.164 307.94
L131.54 306.313
L133.798 310.399
L134.739 310.829
L135.252 310.264
L138.429 314.574
L138.454 312.113
L141.114 316.698
L141.451 314.74
L141.575 313.102
L142.86 314.114
L146.912 321.273
L148.084 322.282
L149.717 324.109
L149.917 322.579
L150.855 322.236
L151.201 320.8
L152.158 320.484
L155.327 324.08
L155.77 322.945
L156.944 322.439
L158.14 321.432
L158.4 319.882
L163.918 325.31
L167.314 328.216
L167.314 326.577
L169.913 327.597
L171.232 327.656
L171.352 326.326
L176.598 330.616
L176.908 329.761
L177.527 329.181
L177.737 328.1
L178.266 327.488
L180.7 329.037
L181.691 329.088
L181.954 328.136
L182.368 327.278
L184.36 328.413
L184.927 327.817
L185.622 327.464
L186.926 327.731
L187.114 326.459
L187.847 326.151
L188.215 325.177
L188.944 324.657
L189.906 324.328
L192.598 326.488
L193.513 326.264
L193.608 325.2
L194.242 324.629
L194.676 322.774
L195.367 322.271
L195.429 321.182
L195.821 320.619
L198.878 321.971
L199.203 321.233
L201.595 320.8
L202.238 320.442
L204.026 321.155
L205.445 321.858
L206.469 321.814
L207.333 321.579
L210.256 323.834
L210.753 322.248
L211.02 321.383
L211.02 320.451
L213.443 321.683
L213.787 320.94
L215.57 321.607
L216.574 321.853
L216.689 321.071
L217.614 321.236
L219.63 322.262
L221.178 322.696
L221.218 320.99
L221.917 320.563
L222.574 320.366
L222.891 319.841
L223.056 319.149
L224.199 319.219
L224.323 318.53
L224.658 317.886
L225.776 318.116
L227.107 318.646
L231.317 321.366
L231.985 321.055
L231.985 320.19
L232.605 319.87
L234.439 320.616
L234.511 320.009
L235.611 320.083
L240.729 323.362
L241.41 323.255
L241.415 321.65
L245.481 324.006
L246.897 324.278
L249.317 325.44
L250.058 325.21
L250.33 324.651
L250.344 323.895
L250.857 323.594
L251.897 323.511
L255.023 325.232
L255.538 325.085
L256.972 325.655
L257.219 325.171
L257.711 324.807
L260.341 326.036
L261.899 326.512
L262.624 326.311
L262.913 325.796
L263.057 325.231
L263.353 324.754
L263.368 324.096
L264.415 324.238
L264.997 324
L266.083 324.195
L269.39 325.684
L270.529 325.718
L270.606 325.183
L273.254 326.224
L273.712 325.861
L274.364 325.68
L274.507 325.115
L275.394 325.187
L275.465 324.603
L276.228 324.606
L277.018 323.985
L277.116 322.86
L277.79 322.644
L278.176 322.362
L278.181 321.735
L279.835 322.459
L280.7 322.355
L280.735 321.769
L281.195 321.579
L281.66 321.211
L282.431 321.05
L282.879 320.718
L283.027 320.291
L283.332 319.861
L283.403 318.707
L284.657 318.927
L284.876 318.563
L285.486 318.289
L285.729 317.856
L286.567 317.786
L288.021 318.233
L288.021 317.636
L289.193 317.868
L289.674 317.603
L289.838 317.147
L291.204 317.422
L292.376 317.423
L292.642 317.014
L292.646 316.437
L295.078 317.288
L295.206 316.815
L299.657 318.196
L299.657 317.633
L299.9 317.276
L299.914 316.726
L300.233 315.81
L302.182 316.315
L303.188 316.347
L303.778 316.121
L303.916 315.699
L304.274 315.366
L305.355 315.458
L305.477 314.973
L305.708 314.548
L309.32 314.835
L309.749 314.589
L311.769 315.182
L313.87 316.082
L315.515 315.622
L316.758 315.375
L317.111 315.073
L319.131 315.49
L319.383 315.138
L321.618 316.137
L322.538 316.338
L322.643 315.448
L324.53 316.299
L324.858 316.069
L326.413 316.572
L326.537 316.191
L327.717 316.511
L328.332 316.383
L328.494 315.959
L330.147 316.672
L331.077 316.719
L332.13 316.889
L333.251 317.317
L333.488 317.027
L333.545 316.632
L334.121 316.539
L334.183 315.709
L334.545 315.562
L334.684 315.196
L335.136 315.066
L337.766 316.695
L337.766 316.24
L338.01 315.983
L338.758 315.774
L340.182 316.283
L340.182 315.833
L340.373 315.401
L341.755 316.148
L341.917 315.884
L342.365 315.798
L342.522 315.479
L343.251 315.387
L343.613 315.144
L343.794 314.842
L343.875 313.624
L345.262 314.208
L345.262 313.77
L345.448 313.415
L345.834 313.17
L346.534 313.233
L346.548 312.816
L346.844 312.532
L347.253 312.358
L347.253 311.924
L349.655 313.138
L352.49 314.302
L353.162 314.197
L354.41 314.209
L354.563 313.837
L355.001 313.721
L355.049 313.373
L355.239 313.223
L355.287 312.457
L355.53 312.215
L356.54 312.311
L357.798 312.626
L357.822 312.237
L358.675 312.323
L358.675 311.914
L359.585 312.044
L359.647 311.279
L360.486 311.332
L360.552 310.59
L360.643 309.886
L362.32 310.439
L362.83 310.326
L363.421 309.146
L363.84 308.643
L364.588 308.793
L364.636 308.445
L364.784 308.198
L366.051 308.282
L366.246 308.098
L366.27 307.71
L366.518 307.49
L366.723 306.509
L368.572 307.459
L369.205 307.477
L370.273 307.918
L370.811 307.968
L372.174 308.429
L372.374 308.119
L374.69 309.247
L374.714 308.892
L376.191 309.534
L377.086 309.798
L377.677 309.841
L377.944 309.57
L379.426 310.008
L379.831 309.871
L380.422 309.85
L380.451 309.499
L380.908 309.42
L382.109 309.793
L382.49 309.751
L382.509 309.416
L382.986 309.378
L383.114 309.192
L384.05 309.043
L384.463 308.95
L384.54 308.309
L384.911 308.081
L385.916 307.663
L385.916 307.307
L386.621 307.124
L388.564 307.102
L388.63 306.784
L391.134 307.343
L395.484 308.637
L395.532 308.344
L396.237 308.223
L396.404 307.951
L397.342 307.963
L399.205 308.332
L400.278 308.36
L402.231 308.675
L405.44 308.874
L405.589 308.635
L406.24 308.519
L409.722 309.067
L412.822 309.528
L413.635 309.45
L415.141 309.676
L416.285 309.707
L416.304 309.386
L416.802 309.236
L419.182 309.519
L422.765 309.284
L422.765 308.963
L422.936 308.739
L423.14 308.139
L423.667 308.006
L423.781 307.421
L424.055 307.142
L424.652 307.08
L425.617 307.127
L426.882 307.333
L427.549 307.321
L427.879 307.112
L427.905 306.808
L430.509 307.259
L430.922 307.13
L431.011 306.884
L431.64 306.588
L431.85 306.331
L432.536 306.406
L434.175 306.889
L434.239 306.303
L435.033 306.374
L435.058 306.084
L437.098 306.411
L437.39 306.218
L437.924 306.175
L437.949 304.966
L438.044 304.711
L440.344 305.532
L440.649 305.388
L441.913 305.358
L441.913 305.057
L442.949 305.325
L445.306 304.969
L445.63 304.78
L446.647 304.694
L447.231 304.698
L447.231 304.403
L447.479 304.178
L447.492 303.598
L450.23 304.724
L450.859 304.726
L451.71 304.869
L452.002 304.677
L452.104 303.87
L452.441 303.707
L452.593 303.505
L453.178 303.533
L453.362 303.289
L453.406 302.74
L453.629 302.589
L454.004 302.501
L454.436 302.133
L454.448 301.85
L454.899 301.762
L455.757 301.9
L455.763 301.614
L456.392 301.464
L456.577 301.22
L456.634 300.699
L457.11 300.132
L457.174 299.898
L459.353 300.662
L459.404 300.146
L459.957 300.125
L459.963 299.573
L460.389 299.517
L462.231 300.119
L462.624 300.016
L462.638 299.752
L463.055 299.586
L463.905 299.368
L465.522 299.579
L465.852 299.174
L466.335 299.134
L466.354 298.592
L466.755 298.529
L466.761 298.252
L467.657 298.127
L468.013 297.742
L469.143 298.092
L469.493 297.97
L470.338 298.176
L470.547 298.027
L470.547 297.754
L471.348 297.84
L471.348 297.567
L472.364 297.835
L472.364 297.567
L472.631 297.379
L473.235 297.139
L473.483 296.941
L474.048 296.958
L474.099 296.471
L474.936 296.469
L474.936 296.204
L475.127 296.184
L475.127 295.915
L475.427 295.844
L476.024 295.954
L476.043 295.429
L476.323 295.267
L476.774 295.241
L476.805 295.04
L477.676 295.317
L477.809 294.885
L477.86 294.4
L478.197 294.314
L479.175 294.546
L479.194 294.299
L479.461 294.15
L479.461 293.892
L479.69 293.766
L480.382 293.896
L480.509 292.952
L481.062 292.696
L482.917 293.422
L483.387 293.406
L483.565 293.177
L483.584 292.927
L484.194 292.991
L484.213 292.754
L485.065 292.357
L485.484 292.285
L485.56 292.071
L486.589 292.389
L486.589 292.134
L486.786 291.962
L486.805 291.731
L486.983 291.589
L487.46 291.6
L488.762 291.918
L488.807 291.445
L490.433 291.849
L490.598 291.182
L491.062 290.89
L492.377 291.219
L493.33 290.945
L493.394 290.487
L493.622 290.319
L493.794 289.655
L497.345 290.742
L498.197 289.838
L498.464 289.774
L498.648 289.567
L499.347 289.674
L499.83 289.412
L500.287 289.376
L502.301 289.77
L502.314 289.534
L503.241 289.676
L503.33 289.256
L504.15 289.353
L505.789 289.906
L506.691 289.676
L506.691 289.434
L507.472 289.282
L507.898 289.208
L507.955 288.762
L508.762 288.609
L508.915 288.469
L510.249 287.997
L510.274 287.786
L510.706 287.737
L510.84 287.559
L510.84 287.32
L511.17 287.227
L511.214 287.015
L512.193 287.035
L512.428 286.868
L514.702 286.96
L514.709 286.732
L517.18 287.355
L517.879 286.959
L518.044 286.837
L518.044 286.837" style="fill:none;stroke:#ff0000;stroke-linecap:square;"/>
   </g>
   <g id="line2d_2">
    <path clip-path="url(#p7ff5b81e1d)" d="
M72 61.2903
L72.2313 162.045
L73.1318 278.316
L73.1318 239.653
L74.6706 287.748
L75.0569 277.681
L75.2131 261.078
L75.7633 253.82
L77.1198 258.971
L78.9136 267.202
L80.3478 265.035
L80.3513 250.853
L83.1982 272.888
L87.0206 281.962
L90.7929 291.467
L93.4107 300.678
L95.1826 299.427
L95.3071 291.963
L96.6626 289.516
L97.0025 285.107
L97.7058 284.827
L104.166 298.498
L107.274 301.043
L107.362 291.265
L108.271 289.51
L109.18 286.788
L110.412 286.169
L111.733 285.87
L114.689 289.483
L115.736 286.996
L115.736 282.37
L116.752 280.902
L117.89 280.269
L118.795 277.996
L120.21 278.884
L125.231 291.726
L126.826 290.248
L127.002 287.069
L127.472 284.857
L127.903 284.594
L128.032 278.783
L128.537 280.59
L128.725 278.319
L128.936 270.794
L130.127 272.201
L130.728 273.45
L131.337 273.577
L131.614 270.082
L132.032 269.425
L132.343 267.626
L132.726 266.16
L132.989 262.193
L134.867 269.152
L136.508 272.611
L137.775 272.132
L138.463 272.875
L138.721 271.883
L139.185 268.813
L139.693 268.716
L140.143 266.92
L140.213 264.911
L142.389 269.095
L142.497 267.379
L143.319 268.303
L143.495 267.236
L144.43 267.769
L146.55 271.946
L147.76 273.036
L147.77 270.954
L149.509 276.009
L149.643 274.123
L150.167 273.187
L150.243 271.446
L151.772 273.798
L152.144 272.579
L157.023 281.585
L157.062 280.048
L157.671 279.91
L157.838 278.698
L157.838 276.877
L158.536 276.518
L159.37 276.484
L160.264 275.694
L160.364 274.231
L161.043 274
L161.804 272.228
L162.978 272.531
L164.779 270.369
L166.376 272.027
L167.063 271.831
L167.258 270.603
L167.597 269.679
L170.179 271.89
L173.901 276.986
L174.839 276.987
L174.954 275.708
L175.945 276.069
L176.35 275.177
L176.669 274.065
L176.812 272.988
L177.117 272.161
L177.265 271.122
L181.02 276.077
L183.818 280.125
L184.174 278.055
L185.351 278.861
L188.953 283.407
L189.101 282.434
L189.575 281.78
L189.949 280.97
L190.087 280.054
L191.426 281.185
L191.498 280.188
L192.155 279.897
L193.065 280.162
L194.257 280.713
L194.623 280.142
L195.176 279.888
L195.619 279.448
L195.821 278.658
L197.034 279.725
L197.351 279.058
L199.117 279.351
L199.203 278.396
L200.475 279.508
L200.656 278.832
L201.323 278.687
L201.838 278.255
L202.705 278.667
L203.405 276.266
L204.945 277.681
L204.963 276.637
L205.454 276.22
L206.169 276.053
L206.459 275.429
L206.823 274.989
L207.05 273.209
L207.09 272.211
L207.788 270.928
L208.394 270.704
L208.64 269.933
L208.709 267.924
L209.719 268.755
L209.804 267.896
L210.7 268.322
L211.01 267.569
L211.02 266.689
L211.872 266.801
L211.901 265.825
L212.344 265.387
L213.878 266.624
L214.746 265.682
L214.827 264.843
L215.157 264.183
L215.737 264.401
L216.399 264.416
L218.24 266.749
L218.462 266.149
L221.201 268.954
L221.629 268.405
L221.71 267.76
L223.542 267.797
L224.658 268.419
L225.209 268.104
L227.096 269.954
L227.206 269.361
L229.893 271.66
L230.441 271.535
L231.151 270.491
L231.317 268.106
L231.585 267.554
L231.999 267.298
L232.705 267.355
L233.977 267.975
L234.035 267.262
L234.777 267.478
L234.777 266.639
L235.373 266.583
L235.883 266.395
L236.688 266.529
L238.099 267.24
L238.394 266.829
L238.471 266.162
L239.146 266.37
L240.024 266.504
L240.033 264.894
L240.214 264.158
L240.753 263.953
L241.415 264.194
L242.125 264.24
L242.134 263.451
L242.949 263.603
L243.164 263.062
L243.507 262.681
L245.985 264.846
L246.742 264.052
L248.989 265.995
L249.325 265.75
L250.551 266.374
L251.297 266.357
L252.389 266.79
L253.684 266.816
L253.74 266.138
L255.386 267.506
L255.524 267.036
L259.422 271.189
L259.422 270.478
L260.36 270.704
L260.87 270.615
L261.095 270.284
L261.957 270.364
L261.957 269.664
L262.498 269.602
L262.833 269.178
L263.515 269.308
L264.187 268.646
L264.246 268.017
L264.873 268.186
L265.682 268.557
L266.083 268.224
L266.936 268.492
L267.441 268.398
L268.079 267.604
L269.523 268.219
L269.789 265.971
L271.472 266.278
L272.854 266.837
L273.102 266.484
L273.254 265.34
L275.294 267.029
L275.741 266.817
L275.894 266.4
L276.228 266.22
L278.181 267.944
L280.7 269.33
L282.112 270.274
L282.751 269.558
L283.241 269.481
L285.171 270.225
L285.228 269.692
L285.729 268.882
L286.644 268.529
L288.307 269.539
L288.95 269.665
L291.199 271.096
L291.199 270.514
L291.628 270.306
L292.175 269.469
L292.642 269.25
L292.976 268.923
L293.496 268.862
L294.692 269.285
L295.092 268.952
L295.687 269.012
L296.888 269.28
L296.979 268.831
L297.894 268.884
L297.946 268.377
L298.88 268.579
L298.947 268.094
L299.409 267.843
L299.952 267.853
L301.558 268.49
L302.444 268.684
L302.444 267.586
L303.33 267.684
L303.488 266.77
L304.841 267.35
L304.889 266.849
L305.336 266.672
L306.061 266.644
L306.285 266.31
L307.519 266.679
L307.528 266.148
L308.448 266.323
L308.448 265.787
L310.216 266.55
L310.654 265.815
L310.768 264.872
L310.859 264.441
L311.069 264.02
L312.117 264.41
L312.145 263.949
L312.555 263.718
L313.084 263.793
L313.179 263.484
L315.994 265.457
L316.11 264.981
L317.12 264.914
L318.173 265.46
L318.454 265.139
L318.459 264.644
L318.608 264.261
L318.907 264.037
L319.074 263.222
L319.664 263.333
L319.841 262.967
L319.917 261.561
L320.509 261.763
L320.54 260.797
L321.322 260.938
L321.632 260.698
L322.252 260.908
L322.28 260.454
L323.014 260.694
L323.286 260.608
L324.53 261.306
L324.53 260.816
L325.268 261.146
L325.421 260.903
L326.25 260.553
L326.25 260.065
L326.537 259.87
L326.645 259.423
L327.107 259.352
L327.107 258.876
L327.565 258.866
L327.689 258.561
L328.108 258.363
L328.337 257.688
L329.418 258.288
L329.557 257.444
L331.477 258.819
L332.268 258.606
L332.268 258.137
L333.321 257.984
L333.511 257.69
L333.588 257.321
L333.978 257.113
L334.407 257.286
L334.584 257.127
L335.109 257.167
L335.818 257.605
L335.956 257.277
L336.018 256.478
L337.365 257.638
L338.01 257.848
L338.233 257.333
L339.615 258.267
L339.892 258.064
L340.12 257.489
L341.307 258.423
L341.431 258.156
L342.235 258.583
L342.36 257.933
L343.156 258.083
L343.237 257.732
L345.262 259.022
L347.325 259.995
L348.378 260.123
L348.631 259.845
L349.55 260.274
L349.655 259.194
L350.05 258.975
L350.074 258.588
L351.456 259.232
L351.542 258.925
L351.98 258.957
L352.995 259.331
L353.291 259.169
L353.391 258.821
L354.529 259.359
L354.834 259.286
L357.355 261.202
L358.817 262.168
L359.585 261.838
L359.595 261.045
L360.338 260.894
L360.552 260.607
L361.51 260.713
L361.51 260.311
L362.992 261.066
L363.421 261.061
L363.712 260.943
L363.912 260.373
L364.641 260.695
L364.855 260.568
L364.874 260.188
L365.594 260.434
L365.965 260.417
L366.065 260.155
L366.065 259.379
L367.576 260.234
L367.957 260.156
L367.957 259.393
L368.343 259.304
L369.015 259.68
L369.163 259.336
L370.273 260.126
L370.835 260.368
L370.835 259.99
L371.088 259.769
L371.097 259.4
L371.593 259.455
L372.488 259.845
L372.508 259.491
L373.084 259.674
L373.084 259.297
L373.294 259.008
L373.294 258.634
L373.437 258.4
L373.594 256.722
L374.752 257.306
L374.785 256.236
L374.904 256.01
L374.904 255.647
L375.567 255.696
L375.695 255.113
L375.772 254.596
L376.215 254.594
L376.215 254.225
L376.482 254.028
L377.496 254.732
L377.887 254.688
L379.525 255.554
L381.137 256.162
L381.323 256.053
L382.538 256.891
L382.538 256.17
L383.062 256.356
L383.114 256.077
L385.916 256.534
L390.867 258.612
L392.687 259.02
L393.473 258.729
L394.369 258.866
L394.383 258.528
L394.803 258.049
L395.494 258.162
L395.494 257.818
L396.204 257.826
L396.204 257.48
L396.394 257.239
L398.143 257.746
L398.896 257.506
L400.373 257.973
L401.494 258.178
L401.774 257.921
L405.553 259.091
L405.852 258.841
L409.023 259.737
L409.15 259.504
L410.605 259.771
L410.935 259.524
L413.349 259.769
L413.356 259.45
L414.582 259.419
L414.982 259.25
L414.982 258.921
L416.494 259.316
L416.79 259.094
L416.875 258.502
L418.21 258.917
L419.347 258.877
L420.865 259.276
L420.865 258.955
L421.005 258.741
L422.479 258.954
L422.708 258.719
L423.432 258.513
L423.445 258.196
L425.497 258.878
L426.151 258.952
L427.326 259.296
L427.549 258.809
L427.574 258.516
L427.93 258.371
L428.934 258.744
L429.683 258.755
L429.861 258.249
L430.509 258.251
L430.757 258.137
L430.757 257.826
L431.24 257.209
L431.24 256.897
L431.507 256.397
L432.079 256.508
L432.11 256.219
L432.441 255.777
L432.905 255.789
L433.273 255.676
L433.769 255.752
L434.772 256.216
L435.973 256.295
L436.145 255.831
L437.142 255.855
L437.187 255.589
L437.574 255.499
L437.631 255.238
L437.905 255.078
L437.911 254.78
L438.527 254.954
L439.207 254.975
L439.804 255.192
L440.535 254.671
L440.547 254.378
L441.697 254.588
L441.913 254.425
L442.568 254.668
L442.86 254.494
L442.949 254.293
L443.826 254.598
L444.804 254.656
L444.912 254.498
L445.204 254.321
L445.636 254.242
L445.649 253.659
L446.316 253.802
L446.596 253.649
L446.932 253.609
L447.079 253.123
L447.752 253.117
L447.911 252.601
L448.082 252.515
L448.146 252.261
L448.419 251.86
L448.858 251.827
L448.946 251.311
L449.747 251.49
L449.963 251.092
L450.141 250.827
L450.154 250.263
L450.319 250.123
L450.592 249.095
L450.864 249.011
L451.564 249.116
L451.659 248.363
L451.761 247.327
L451.996 247.126
L452.021 246.853
L452.187 246.706
L452.263 246.202
L452.492 246.003
L452.581 245.769
L453.4 245.763
L453.4 245.477
L453.838 245.513
L454.105 244.325
L454.264 244.069
L454.734 244.101
L454.899 243.959
L455.382 244.082
L455.389 243.8
L455.941 243.677
L456.1 243.42
L456.634 243.29
L456.64 243.013
L457.072 242.779
L457.25 242.721
L457.269 242.478
L458.819 243.18
L458.819 242.621
L459.112 242.581
L459.995 242.922
L460.389 242.642
L460.694 242.521
L461.767 242.405
L461.882 242.234
L461.888 241.965
L462.345 242.039
L462.345 241.76
L464.321 241.704
L464.378 241.489
L465.382 241.037
L465.465 240.84
L465.763 240.74
L465.763 240.466
L465.922 240.352
L465.929 240.084
L466.431 239.909
L466.456 239.672
L466.621 239.446
L467.212 239.618
L467.517 239.495
L467.53 239.227
L468.146 239.42
L468.171 238.894
L469.366 239.167
L469.398 238.91
L469.537 238.793
L469.664 238.116
L470.096 238.164
L470.49 237.929
L470.852 237.845
L470.852 237.574
L471.666 237.532
L472.193 237.668
L473.622 238.402
L473.629 238.138
L474.112 238.226
L474.188 238.029
L474.429 237.877
L474.594 237.244
L474.976 237.447
L475.046 237.027
L475.122 236.893
L475.592 237.149
L476.043 237.207
L476.105 236.969
L476.882 236.802
L477.422 236.744
L477.593 236.54
L477.695 236.168
L478.051 235.888
L478.057 235.628
L478.591 235.803
L478.641 235.573
L479.061 235.619
L479.061 235.356
L479.537 235.465
L479.938 235.441
L480.122 235.2
L480.922 235.499
L481.361 235.519
L481.977 235.765
L482.429 235.794
L482.441 235.296
L483.68 235.117
L483.724 234.65
L484.15 234.643
L484.181 234.157
L484.512 234.099
L484.658 233.424
L485.007 233.39
L485.033 233.152
L485.401 233.133
L485.884 232.131
L486.1 231.854
L486.481 231.305
L486.507 230.553
L486.729 230.491
L486.735 230.25
L487.199 230.38
L487.345 230.008
L487.841 230.19
L488.394 230.268
L488.711 230.161
L489.486 230.07
L489.601 229.919
L490.954 229.752
L490.954 229.499
L491.519 229.596
L491.577 229.397
L492.225 229.515
L492.377 229.144
L492.377 228.896
L493.883 229.129
L494.194 229.031
L494.988 229.046
L496.03 229.153
L496.786 229.249
L496.939 228.908
L496.99 228.453
L498.159 228.373
L498.159 228.126
L498.686 228.258
L498.737 227.805
L498.934 227.74
L498.934 227.493
L499.366 227.004
L499.588 226.848
L499.709 226.224
L501.005 226.805
L501.005 226.56
L501.431 226.369
L501.672 225.835
L501.685 225.606
L503.464 226.212
L503.533 225.788
L503.908 225.725
L503.921 225.49
L504.137 225.345
L504.169 224.157
L504.442 224.185
L504.601 223.99
L504.601 223.75
L504.893 223.474
L505.046 223.266
L506.539 223.892
L506.551 223.664
L506.704 223.581
L507.193 223.425
L508.336 223.826
L508.552 223.529
L508.864 222.983
L509.277 223.088
L510.16 223.492
L510.16 223.256
L510.3 223.177
L512.174 224.219
L512.536 224.176
L512.644 224.005
L514.459 224.764
L514.474 224.551
L515.732 224.847
L516.126 224.787
L516.265 224.439
L516.666 224.428
L517.504 224.731
L517.561 224.559
L518.4 224.84
L518.4 224.84" style="fill:none;stroke:#008000;stroke-linecap:square;"/>
   </g>
   <g id="matplotlib.axis_1">
    <g id="xtick_1">
     <g id="line2d_3">
      <defs>
       <path d="
M0 0
L0 -4" id="m93b0483c22" style="stroke:#000000;stroke-width:0.5;"/>
      </defs>
      <g>
       <use style="stroke:#000000;stroke-width:0.5;" x="73.5085749419" xlink:href="#m93b0483c22" y="388.8"/>
      </g>
     </g>
     <g id="line2d_4">
      <defs>
       <path d="
M0 0
L0 4" id="m741efc42ff" style="stroke:#000000;stroke-width:0.5;"/>
      </defs>
      <g>
       <use style="stroke:#000000;stroke-width:0.5;" x="73.5085749419" xlink:href="#m741efc42ff" y="43.2"/>
      </g>
     </g>
     <g id="text_1">
      <!-- Sep 2013 -->
      <defs>
       <path d="
M40.5781 39.3125
Q47.6562 37.7969 51.625 33
Q55.6094 28.2188 55.6094 21.1875
Q55.6094 10.4062 48.1875 4.48438
Q40.7656 -1.42188 27.0938 -1.42188
Q22.5156 -1.42188 17.6562 -0.515625
Q12.7969 0.390625 7.625 2.20312
L7.625 11.7188
Q11.7188 9.32812 16.5938 8.10938
Q21.4844 6.89062 26.8125 6.89062
Q36.0781 6.89062 40.9375 10.5469
Q45.7969 14.2031 45.7969 21.1875
Q45.7969 27.6406 41.2812 31.2656
Q36.7656 34.9062 28.7188 34.9062
L20.2188 34.9062
L20.2188 43.0156
L29.1094 43.0156
Q36.375 43.0156 40.2344 45.9219
Q44.0938 48.8281 44.0938 54.2969
Q44.0938 59.9062 40.1094 62.9062
Q36.1406 65.9219 28.7188 65.9219
Q24.6562 65.9219 20.0156 65.0312
Q15.375 64.1562 9.8125 62.3125
L9.8125 71.0938
Q15.4375 72.6562 20.3438 73.4375
Q25.25 74.2188 29.5938 74.2188
Q40.8281 74.2188 47.3594 69.1094
Q53.9062 64.0156 53.9062 55.3281
Q53.9062 49.2656 50.4375 45.0938
Q46.9688 40.9219 40.5781 39.3125" id="DejaVuSans-33"/>
       <path d="
M12.4062 8.29688
L28.5156 8.29688
L28.5156 63.9219
L10.9844 60.4062
L10.9844 69.3906
L28.4219 72.9062
L38.2812 72.9062
L38.2812 8.29688
L54.3906 8.29688
L54.3906 0
L12.4062 0
z
" id="DejaVuSans-31"/>
       <path d="
M31.7812 66.4062
Q24.1719 66.4062 20.3281 58.9062
Q16.5 51.4219 16.5 36.375
Q16.5 21.3906 20.3281 13.8906
Q24.1719 6.39062 31.7812 6.39062
Q39.4531 6.39062 43.2812 13.8906
Q47.125 21.3906 47.125 36.375
Q47.125 51.4219 43.2812 58.9062
Q39.4531 66.4062 31.7812 66.4062
M31.7812 74.2188
Q44.0469 74.2188 50.5156 64.5156
Q56.9844 54.8281 56.9844 36.375
Q56.9844 17.9688 50.5156 8.26562
Q44.0469 -1.42188 31.7812 -1.42188
Q19.5312 -1.42188 13.0625 8.26562
Q6.59375 17.9688 6.59375 36.375
Q6.59375 54.8281 13.0625 64.5156
Q19.5312 74.2188 31.7812 74.2188" id="DejaVuSans-30"/>
       <path id="DejaVuSans-20"/>
       <path d="
M19.1875 8.29688
L53.6094 8.29688
L53.6094 0
L7.32812 0
L7.32812 8.29688
Q12.9375 14.1094 22.625 23.8906
Q32.3281 33.6875 34.8125 36.5312
Q39.5469 41.8438 41.4219 45.5312
Q43.3125 49.2188 43.3125 52.7812
Q43.3125 58.5938 39.2344 62.25
Q35.1562 65.9219 28.6094 65.9219
Q23.9688 65.9219 18.8125 64.3125
Q13.6719 62.7031 7.8125 59.4219
L7.8125 69.3906
Q13.7656 71.7812 18.9375 73
Q24.125 74.2188 28.4219 74.2188
Q39.75 74.2188 46.4844 68.5469
Q53.2188 62.8906 53.2188 53.4219
Q53.2188 48.9219 51.5312 44.8906
Q49.8594 40.875 45.4062 35.4062
Q44.1875 33.9844 37.6406 27.2188
Q31.1094 20.4531 19.1875 8.29688" id="DejaVuSans-32"/>
       <path d="
M53.5156 70.5156
L53.5156 60.8906
Q47.9062 63.5781 42.9219 64.8906
Q37.9375 66.2188 33.2969 66.2188
Q25.25 66.2188 20.875 63.0938
Q16.5 59.9688 16.5 54.2031
Q16.5 49.3594 19.4062 46.8906
Q22.3125 44.4375 30.4219 42.9219
L36.375 41.7031
Q47.4062 39.5938 52.6562 34.2969
Q57.9062 29 57.9062 20.125
Q57.9062 9.51562 50.7969 4.04688
Q43.7031 -1.42188 29.9844 -1.42188
Q24.8125 -1.42188 18.9688 -0.25
Q13.1406 0.921875 6.89062 3.21875
L6.89062 13.375
Q12.8906 10.0156 18.6562 8.29688
Q24.4219 6.59375 29.9844 6.59375
Q38.4219 6.59375 43.0156 9.90625
Q47.6094 13.2344 47.6094 19.3906
Q47.6094 24.75 44.3125 27.7812
Q41.0156 30.8125 33.5 32.3281
L27.4844 33.5
Q16.4531 35.6875 11.5156 40.375
Q6.59375 45.0625 6.59375 53.4219
Q6.59375 63.0938 13.4062 68.6562
Q20.2188 74.2188 32.1719 74.2188
Q37.3125 74.2188 42.625 73.2812
Q47.9531 72.3594 53.5156 70.5156" id="DejaVuSans-53"/>
       <path d="
M56.2031 29.5938
L56.2031 25.2031
L14.8906 25.2031
Q15.4844 15.9219 20.4844 11.0625
Q25.4844 6.20312 34.4219 6.20312
Q39.5938 6.20312 44.4531 7.46875
Q49.3125 8.73438 54.1094 11.2812
L54.1094 2.78125
Q49.2656 0.734375 44.1875 -0.34375
Q39.1094 -1.42188 33.8906 -1.42188
Q20.7969 -1.42188 13.1562 6.1875
Q5.51562 13.8125 5.51562 26.8125
Q5.51562 40.2344 12.7656 48.1094
Q20.0156 56 32.3281 56
Q43.3594 56 49.7812 48.8906
Q56.2031 41.7969 56.2031 29.5938
M47.2188 32.2344
Q47.125 39.5938 43.0938 43.9844
Q39.0625 48.3906 32.4219 48.3906
Q24.9062 48.3906 20.3906 44.1406
Q15.875 39.8906 15.1875 32.1719
z
" id="DejaVuSans-65"/>
       <path d="
M18.1094 8.20312
L18.1094 -20.7969
L9.07812 -20.7969
L9.07812 54.6875
L18.1094 54.6875
L18.1094 46.3906
Q20.9531 51.2656 25.2656 53.625
Q29.5938 56 35.5938 56
Q45.5625 56 51.7812 48.0938
Q58.0156 40.1875 58.0156 27.2969
Q58.0156 14.4062 51.7812 6.48438
Q45.5625 -1.42188 35.5938 -1.42188
Q29.5938 -1.42188 25.2656 0.953125
Q20.9531 3.32812 18.1094 8.20312
M48.6875 27.2969
Q48.6875 37.2031 44.6094 42.8438
Q40.5312 48.4844 33.4062 48.4844
Q26.2656 48.4844 22.1875 42.8438
Q18.1094 37.2031 18.1094 27.2969
Q18.1094 17.3906 22.1875 11.75
Q26.2656 6.10938 33.4062 6.10938
Q40.5312 6.10938 44.6094 11.75
Q48.6875 17.3906 48.6875 27.2969" id="DejaVuSans-70"/>
      </defs>
      <g transform="translate(45.5026374419 401.918125)scale(0.12 -0.12)">
       <use xlink:href="#DejaVuSans-53"/>
       <use x="63.4765625" xlink:href="#DejaVuSans-65"/>
       <use x="125.0" xlink:href="#DejaVuSans-70"/>
       <use x="188.4765625" xlink:href="#DejaVuSans-20"/>
       <use x="220.263671875" xlink:href="#DejaVuSans-32"/>
       <use x="283.88671875" xlink:href="#DejaVuSans-30"/>
       <use x="347.509765625" xlink:href="#DejaVuSans-31"/>
       <use x="411.1328125" xlink:href="#DejaVuSans-33"/>
      </g>
     </g>
    </g>
    <g id="xtick_2">
     <g id="line2d_5">
      <g>
       <use style="stroke:#000000;stroke-width:0.5;" x="115.134951102" xlink:href="#m93b0483c22" y="388.8"/>
      </g>
     </g>
     <g id="line2d_6">
      <g>
       <use style="stroke:#000000;stroke-width:0.5;" x="115.134951102" xlink:href="#m741efc42ff" y="43.2"/>
      </g>
     </g>
     <g id="text_2">
      <!-- Dec 2013 -->
      <defs>
       <path d="
M19.6719 64.7969
L19.6719 8.10938
L31.5938 8.10938
Q46.6875 8.10938 53.6875 14.9375
Q60.6875 21.7812 60.6875 36.5312
Q60.6875 51.1719 53.6875 57.9844
Q46.6875 64.7969 31.5938 64.7969
z

M9.8125 72.9062
L30.0781 72.9062
Q51.2656 72.9062 61.1719 64.0938
Q71.0938 55.2812 71.0938 36.5312
Q71.0938 17.6719 61.125 8.82812
Q51.1719 0 30.0781 0
L9.8125 0
z
" id="DejaVuSans-44"/>
       <path d="
M48.7812 52.5938
L48.7812 44.1875
Q44.9688 46.2969 41.1406 47.3438
Q37.3125 48.3906 33.4062 48.3906
Q24.6562 48.3906 19.8125 42.8438
Q14.9844 37.3125 14.9844 27.2969
Q14.9844 17.2812 19.8125 11.7344
Q24.6562 6.20312 33.4062 6.20312
Q37.3125 6.20312 41.1406 7.25
Q44.9688 8.29688 48.7812 10.4062
L48.7812 2.09375
Q45.0156 0.34375 40.9844 -0.53125
Q36.9688 -1.42188 32.4219 -1.42188
Q20.0625 -1.42188 12.7812 6.34375
Q5.51562 14.1094 5.51562 27.2969
Q5.51562 40.6719 12.8594 48.3281
Q20.2188 56 33.0156 56
Q37.1562 56 41.1094 55.1406
Q45.0625 54.2969 48.7812 52.5938" id="DejaVuSans-63"/>
      </defs>
      <g transform="translate(86.8280761019 401.918125)scale(0.12 -0.12)">
       <use xlink:href="#DejaVuSans-44"/>
       <use x="77.001953125" xlink:href="#DejaVuSans-65"/>
       <use x="138.525390625" xlink:href="#DejaVuSans-63"/>
       <use x="193.505859375" xlink:href="#DejaVuSans-20"/>
       <use x="225.29296875" xlink:href="#DejaVuSans-32"/>
       <use x="288.916015625" xlink:href="#DejaVuSans-30"/>
       <use x="352.5390625" xlink:href="#DejaVuSans-31"/>
       <use x="416.162109375" xlink:href="#DejaVuSans-33"/>
      </g>
     </g>
    </g>
    <g id="xtick_3">
     <g id="line2d_7">
      <g>
       <use style="stroke:#000000;stroke-width:0.5;" x="156.303894557" xlink:href="#m93b0483c22" y="388.8"/>
      </g>
     </g>
     <g id="line2d_8">
      <g>
       <use style="stroke:#000000;stroke-width:0.5;" x="156.303894557" xlink:href="#m741efc42ff" y="43.2"/>
      </g>
     </g>
     <g id="text_3">
      <!-- Mar 2014 -->
      <defs>
       <path d="
M9.8125 72.9062
L24.5156 72.9062
L43.1094 23.2969
L61.8125 72.9062
L76.5156 72.9062
L76.5156 0
L66.8906 0
L66.8906 64.0156
L48.0938 14.0156
L38.1875 14.0156
L19.3906 64.0156
L19.3906 0
L9.8125 0
z
" id="DejaVuSans-4d"/>
       <path d="
M41.1094 46.2969
Q39.5938 47.1719 37.8125 47.5781
Q36.0312 48 33.8906 48
Q26.2656 48 22.1875 43.0469
Q18.1094 38.0938 18.1094 28.8125
L18.1094 0
L9.07812 0
L9.07812 54.6875
L18.1094 54.6875
L18.1094 46.1875
Q20.9531 51.1719 25.4844 53.5781
Q30.0312 56 36.5312 56
Q37.4531 56 38.5781 55.875
Q39.7031 55.7656 41.0625 55.5156
z
" id="DejaVuSans-72"/>
       <path d="
M37.7969 64.3125
L12.8906 25.3906
L37.7969 25.3906
z

M35.2031 72.9062
L47.6094 72.9062
L47.6094 25.3906
L58.0156 25.3906
L58.0156 17.1875
L47.6094 17.1875
L47.6094 0
L37.7969 0
L37.7969 17.1875
L4.89062 17.1875
L4.89062 26.7031
z
" id="DejaVuSans-34"/>
       <path d="
M34.2812 27.4844
Q23.3906 27.4844 19.1875 25
Q14.9844 22.5156 14.9844 16.5
Q14.9844 11.7188 18.1406 8.90625
Q21.2969 6.10938 26.7031 6.10938
Q34.1875 6.10938 38.7031 11.4062
Q43.2188 16.7031 43.2188 25.4844
L43.2188 27.4844
z

M52.2031 31.2031
L52.2031 0
L43.2188 0
L43.2188 8.29688
Q40.1406 3.32812 35.5469 0.953125
Q30.9531 -1.42188 24.3125 -1.42188
Q15.9219 -1.42188 10.9531 3.29688
Q6 8.01562 6 15.9219
Q6 25.1406 12.1719 29.8281
Q18.3594 34.5156 30.6094 34.5156
L43.2188 34.5156
L43.2188 35.4062
Q43.2188 41.6094 39.1406 45
Q35.0625 48.3906 27.6875 48.3906
Q23 48.3906 18.5469 47.2656
Q14.1094 46.1406 10.0156 43.8906
L10.0156 52.2031
Q14.9375 54.1094 19.5781 55.0469
Q24.2188 56 28.6094 56
Q40.4844 56 46.3438 49.8438
Q52.2031 43.7031 52.2031 31.2031" id="DejaVuSans-61"/>
      </defs>
      <g transform="translate(128.143269557 401.918125)scale(0.12 -0.12)">
       <use xlink:href="#DejaVuSans-4d"/>
       <use x="86.279296875" xlink:href="#DejaVuSans-61"/>
       <use x="147.55859375" xlink:href="#DejaVuSans-72"/>
       <use x="188.671875" xlink:href="#DejaVuSans-20"/>
       <use x="220.458984375" xlink:href="#DejaVuSans-32"/>
       <use x="284.08203125" xlink:href="#DejaVuSans-30"/>
       <use x="347.705078125" xlink:href="#DejaVuSans-31"/>
       <use x="411.328125" xlink:href="#DejaVuSans-34"/>
      </g>
     </g>
    </g>
    <g id="xtick_4">
     <g id="line2d_9">
      <g>
       <use style="stroke:#000000;stroke-width:0.5;" x="198.387703422" xlink:href="#m93b0483c22" y="388.8"/>
      </g>
     </g>
     <g id="line2d_10">
      <g>
       <use style="stroke:#000000;stroke-width:0.5;" x="198.387703422" xlink:href="#m741efc42ff" y="43.2"/>
      </g>
     </g>
     <g id="text_4">
      <!-- Jun 2014 -->
      <defs>
       <path d="
M8.5 21.5781
L8.5 54.6875
L17.4844 54.6875
L17.4844 21.9219
Q17.4844 14.1562 20.5 10.2656
Q23.5312 6.39062 29.5938 6.39062
Q36.8594 6.39062 41.0781 11.0312
Q45.3125 15.6719 45.3125 23.6875
L45.3125 54.6875
L54.2969 54.6875
L54.2969 0
L45.3125 0
L45.3125 8.40625
Q42.0469 3.42188 37.7188 1
Q33.4062 -1.42188 27.6875 -1.42188
Q18.2656 -1.42188 13.375 4.4375
Q8.5 10.2969 8.5 21.5781
M31.1094 56
z
" id="DejaVuSans-75"/>
       <path d="
M54.8906 33.0156
L54.8906 0
L45.9062 0
L45.9062 32.7188
Q45.9062 40.4844 42.875 44.3281
Q39.8438 48.1875 33.7969 48.1875
Q26.5156 48.1875 22.3125 43.5469
Q18.1094 38.9219 18.1094 30.9062
L18.1094 0
L9.07812 0
L9.07812 54.6875
L18.1094 54.6875
L18.1094 46.1875
Q21.3438 51.125 25.7031 53.5625
Q30.0781 56 35.7969 56
Q45.2188 56 50.0469 50.1719
Q54.8906 44.3438 54.8906 33.0156" id="DejaVuSans-6e"/>
       <path d="
M9.8125 72.9062
L19.6719 72.9062
L19.6719 5.07812
Q19.6719 -8.10938 14.6719 -14.0625
Q9.67188 -20.0156 -1.42188 -20.0156
L-5.17188 -20.0156
L-5.17188 -11.7188
L-2.09375 -11.7188
Q4.4375 -11.7188 7.125 -8.04688
Q9.8125 -4.39062 9.8125 5.07812
z
" id="DejaVuSans-4a"/>
      </defs>
      <g transform="translate(171.862078422 401.918125)scale(0.12 -0.12)">
       <use xlink:href="#DejaVuSans-4a"/>
       <use x="29.4921875" xlink:href="#DejaVuSans-75"/>
       <use x="92.87109375" xlink:href="#DejaVuSans-6e"/>
       <use x="156.25" xlink:href="#DejaVuSans-20"/>
       <use x="188.037109375" xlink:href="#DejaVuSans-32"/>
       <use x="251.66015625" xlink:href="#DejaVuSans-30"/>
       <use x="315.283203125" xlink:href="#DejaVuSans-31"/>
       <use x="378.90625" xlink:href="#DejaVuSans-34"/>
      </g>
     </g>
    </g>
    <g id="xtick_5">
     <g id="line2d_11">
      <g>
       <use style="stroke:#000000;stroke-width:0.5;" x="240.471512287" xlink:href="#m93b0483c22" y="388.8"/>
      </g>
     </g>
     <g id="line2d_12">
      <g>
       <use style="stroke:#000000;stroke-width:0.5;" x="240.471512287" xlink:href="#m741efc42ff" y="43.2"/>
      </g>
     </g>
     <g id="text_5">
      <!-- Sep 2014 -->
      <g transform="translate(212.321199787 401.918125)scale(0.12 -0.12)">
       <use xlink:href="#DejaVuSans-53"/>
       <use x="63.4765625" xlink:href="#DejaVuSans-65"/>
       <use x="125.0" xlink:href="#DejaVuSans-70"/>
       <use x="188.4765625" xlink:href="#DejaVuSans-20"/>
       <use x="220.263671875" xlink:href="#DejaVuSans-32"/>
       <use x="283.88671875" xlink:href="#DejaVuSans-30"/>
       <use x="347.509765625" xlink:href="#DejaVuSans-31"/>
       <use x="411.1328125" xlink:href="#DejaVuSans-34"/>
      </g>
     </g>
    </g>
    <g id="xtick_6">
     <g id="line2d_13">
      <g>
       <use style="stroke:#000000;stroke-width:0.5;" x="282.097888447" xlink:href="#m93b0483c22" y="388.8"/>
      </g>
     </g>
     <g id="line2d_14">
      <g>
       <use style="stroke:#000000;stroke-width:0.5;" x="282.097888447" xlink:href="#m741efc42ff" y="43.2"/>
      </g>
     </g>
     <g id="text_6">
      <!-- Dec 2014 -->
      <g transform="translate(253.646638447 401.918125)scale(0.12 -0.12)">
       <use xlink:href="#DejaVuSans-44"/>
       <use x="77.001953125" xlink:href="#DejaVuSans-65"/>
       <use x="138.525390625" xlink:href="#DejaVuSans-63"/>
       <use x="193.505859375" xlink:href="#DejaVuSans-20"/>
       <use x="225.29296875" xlink:href="#DejaVuSans-32"/>
       <use x="288.916015625" xlink:href="#DejaVuSans-30"/>
       <use x="352.5390625" xlink:href="#DejaVuSans-31"/>
       <use x="416.162109375" xlink:href="#DejaVuSans-34"/>
      </g>
     </g>
    </g>
    <g id="xtick_7">
     <g id="line2d_15">
      <g>
       <use style="stroke:#000000;stroke-width:0.5;" x="323.266831902" xlink:href="#m93b0483c22" y="388.8"/>
      </g>
     </g>
     <g id="line2d_16">
      <g>
       <use style="stroke:#000000;stroke-width:0.5;" x="323.266831902" xlink:href="#m741efc42ff" y="43.2"/>
      </g>
     </g>
     <g id="text_7">
      <!-- Mar 2015 -->
      <defs>
       <path d="
M10.7969 72.9062
L49.5156 72.9062
L49.5156 64.5938
L19.8281 64.5938
L19.8281 46.7344
Q21.9688 47.4688 24.1094 47.8281
Q26.2656 48.1875 28.4219 48.1875
Q40.625 48.1875 47.75 41.5
Q54.8906 34.8125 54.8906 23.3906
Q54.8906 11.625 47.5625 5.09375
Q40.2344 -1.42188 26.9062 -1.42188
Q22.3125 -1.42188 17.5469 -0.640625
Q12.7969 0.140625 7.71875 1.70312
L7.71875 11.625
Q12.1094 9.23438 16.7969 8.0625
Q21.4844 6.89062 26.7031 6.89062
Q35.1562 6.89062 40.0781 11.3281
Q45.0156 15.7656 45.0156 23.3906
Q45.0156 31 40.0781 35.4375
Q35.1562 39.8906 26.7031 39.8906
Q22.75 39.8906 18.8125 39.0156
Q14.8906 38.1406 10.7969 36.2812
z
" id="DejaVuSans-35"/>
      </defs>
      <g transform="translate(295.293706902 401.918125)scale(0.12 -0.12)">
       <use xlink:href="#DejaVuSans-4d"/>
       <use x="86.279296875" xlink:href="#DejaVuSans-61"/>
       <use x="147.55859375" xlink:href="#DejaVuSans-72"/>
       <use x="188.671875" xlink:href="#DejaVuSans-20"/>
       <use x="220.458984375" xlink:href="#DejaVuSans-32"/>
       <use x="284.08203125" xlink:href="#DejaVuSans-30"/>
       <use x="347.705078125" xlink:href="#DejaVuSans-31"/>
       <use x="411.328125" xlink:href="#DejaVuSans-35"/>
      </g>
     </g>
    </g>
    <g id="xtick_8">
     <g id="line2d_17">
      <g>
       <use style="stroke:#000000;stroke-width:0.5;" x="365.350640767" xlink:href="#m93b0483c22" y="388.8"/>
      </g>
     </g>
     <g id="line2d_18">
      <g>
       <use style="stroke:#000000;stroke-width:0.5;" x="365.350640767" xlink:href="#m741efc42ff" y="43.2"/>
      </g>
     </g>
     <g id="text_8">
      <!-- Jun 2015 -->
      <g transform="translate(339.012515767 401.918125)scale(0.12 -0.12)">
       <use xlink:href="#DejaVuSans-4a"/>
       <use x="29.4921875" xlink:href="#DejaVuSans-75"/>
       <use x="92.87109375" xlink:href="#DejaVuSans-6e"/>
       <use x="156.25" xlink:href="#DejaVuSans-20"/>
       <use x="188.037109375" xlink:href="#DejaVuSans-32"/>
       <use x="251.66015625" xlink:href="#DejaVuSans-30"/>
       <use x="315.283203125" xlink:href="#DejaVuSans-31"/>
       <use x="378.90625" xlink:href="#DejaVuSans-35"/>
      </g>
     </g>
    </g>
    <g id="xtick_9">
     <g id="line2d_19">
      <g>
       <use style="stroke:#000000;stroke-width:0.5;" x="407.434449632" xlink:href="#m93b0483c22" y="388.8"/>
      </g>
     </g>
     <g id="line2d_20">
      <g>
       <use style="stroke:#000000;stroke-width:0.5;" x="407.434449632" xlink:href="#m741efc42ff" y="43.2"/>
      </g>
     </g>
     <g id="text_9">
      <!-- Sep 2015 -->
      <g transform="translate(379.471637132 401.918125)scale(0.12 -0.12)">
       <use xlink:href="#DejaVuSans-53"/>
       <use x="63.4765625" xlink:href="#DejaVuSans-65"/>
       <use x="125.0" xlink:href="#DejaVuSans-70"/>
       <use x="188.4765625" xlink:href="#DejaVuSans-20"/>
       <use x="220.263671875" xlink:href="#DejaVuSans-32"/>
       <use x="283.88671875" xlink:href="#DejaVuSans-30"/>
       <use x="347.509765625" xlink:href="#DejaVuSans-31"/>
       <use x="411.1328125" xlink:href="#DejaVuSans-35"/>
      </g>
     </g>
    </g>
    <g id="xtick_10">
     <g id="line2d_21">
      <g>
       <use style="stroke:#000000;stroke-width:0.5;" x="449.060825792" xlink:href="#m93b0483c22" y="388.8"/>
      </g>
     </g>
     <g id="line2d_22">
      <g>
       <use style="stroke:#000000;stroke-width:0.5;" x="449.060825792" xlink:href="#m741efc42ff" y="43.2"/>
      </g>
     </g>
     <g id="text_10">
      <!-- Dec 2015 -->
      <g transform="translate(420.797075792 401.918125)scale(0.12 -0.12)">
       <use xlink:href="#DejaVuSans-44"/>
       <use x="77.001953125" xlink:href="#DejaVuSans-65"/>
       <use x="138.525390625" xlink:href="#DejaVuSans-63"/>
       <use x="193.505859375" xlink:href="#DejaVuSans-20"/>
       <use x="225.29296875" xlink:href="#DejaVuSans-32"/>
       <use x="288.916015625" xlink:href="#DejaVuSans-30"/>
       <use x="352.5390625" xlink:href="#DejaVuSans-31"/>
       <use x="416.162109375" xlink:href="#DejaVuSans-35"/>
      </g>
     </g>
    </g>
    <g id="xtick_11">
     <g id="line2d_23">
      <g>
       <use style="stroke:#000000;stroke-width:0.5;" x="490.687201952" xlink:href="#m93b0483c22" y="388.8"/>
      </g>
     </g>
     <g id="line2d_24">
      <g>
       <use style="stroke:#000000;stroke-width:0.5;" x="490.687201952" xlink:href="#m741efc42ff" y="43.2"/>
      </g>
     </g>
     <g id="text_11">
      <!-- Mar 2016 -->
      <defs>
       <path d="
M33.0156 40.375
Q26.375 40.375 22.4844 35.8281
Q18.6094 31.2969 18.6094 23.3906
Q18.6094 15.5312 22.4844 10.9531
Q26.375 6.39062 33.0156 6.39062
Q39.6562 6.39062 43.5312 10.9531
Q47.4062 15.5312 47.4062 23.3906
Q47.4062 31.2969 43.5312 35.8281
Q39.6562 40.375 33.0156 40.375
M52.5938 71.2969
L52.5938 62.3125
Q48.875 64.0625 45.0938 64.9844
Q41.3125 65.9219 37.5938 65.9219
Q27.8281 65.9219 22.6719 59.3281
Q17.5312 52.7344 16.7969 39.4062
Q19.6719 43.6562 24.0156 45.9219
Q28.375 48.1875 33.5938 48.1875
Q44.5781 48.1875 50.9531 41.5156
Q57.3281 34.8594 57.3281 23.3906
Q57.3281 12.1562 50.6875 5.35938
Q44.0469 -1.42188 33.0156 -1.42188
Q20.3594 -1.42188 13.6719 8.26562
Q6.98438 17.9688 6.98438 36.375
Q6.98438 53.6562 15.1875 63.9375
Q23.3906 74.2188 37.2031 74.2188
Q40.9219 74.2188 44.7031 73.4844
Q48.4844 72.75 52.5938 71.2969" id="DejaVuSans-36"/>
      </defs>
      <g transform="translate(462.567826952 401.918125)scale(0.12 -0.12)">
       <use xlink:href="#DejaVuSans-4d"/>
       <use x="86.279296875" xlink:href="#DejaVuSans-61"/>
       <use x="147.55859375" xlink:href="#DejaVuSans-72"/>
       <use x="188.671875" xlink:href="#DejaVuSans-20"/>
       <use x="220.458984375" xlink:href="#DejaVuSans-32"/>
       <use x="284.08203125" xlink:href="#DejaVuSans-30"/>
       <use x="347.705078125" xlink:href="#DejaVuSans-31"/>
       <use x="411.328125" xlink:href="#DejaVuSans-36"/>
      </g>
     </g>
    </g>
   </g>
   <g id="matplotlib.axis_2">
    <g id="ytick_1">
     <g id="line2d_25">
      <defs>
       <path d="
M0 0
L4 0" id="m728421d6d4" style="stroke:#000000;stroke-width:0.5;"/>
      </defs>
      <g>
       <use style="stroke:#000000;stroke-width:0.5;" x="72.0" xlink:href="#m728421d6d4" y="388.8"/>
      </g>
     </g>
     <g id="line2d_26">
      <defs>
       <path d="
M0 0
L-4 0" id="mcb0005524f" style="stroke:#000000;stroke-width:0.5;"/>
      </defs>
      <g>
       <use style="stroke:#000000;stroke-width:0.5;" x="518.4" xlink:href="#mcb0005524f" y="388.8"/>
      </g>
     </g>
     <g id="text_12">
      <!-- 100 -->
      <g transform="translate(47.21 392.11125)scale(0.12 -0.12)">
       <use xlink:href="#DejaVuSans-31"/>
       <use x="63.623046875" xlink:href="#DejaVuSans-30"/>
       <use x="127.24609375" xlink:href="#DejaVuSans-30"/>
      </g>
     </g>
    </g>
    <g id="ytick_2">
     <g id="line2d_27">
      <g>
       <use style="stroke:#000000;stroke-width:0.5;" x="72.0" xlink:href="#m728421d6d4" y="339.428571429"/>
      </g>
     </g>
     <g id="line2d_28">
      <g>
       <use style="stroke:#000000;stroke-width:0.5;" x="518.4" xlink:href="#mcb0005524f" y="339.428571429"/>
      </g>
     </g>
     <g id="text_13">
      <!-- 200 -->
      <g transform="translate(46.77125 342.739821429)scale(0.12 -0.12)">
       <use xlink:href="#DejaVuSans-32"/>
       <use x="63.623046875" xlink:href="#DejaVuSans-30"/>
       <use x="127.24609375" xlink:href="#DejaVuSans-30"/>
      </g>
     </g>
    </g>
    <g id="ytick_3">
     <g id="line2d_29">
      <g>
       <use style="stroke:#000000;stroke-width:0.5;" x="72.0" xlink:href="#m728421d6d4" y="290.057142857"/>
      </g>
     </g>
     <g id="line2d_30">
      <g>
       <use style="stroke:#000000;stroke-width:0.5;" x="518.4" xlink:href="#mcb0005524f" y="290.057142857"/>
      </g>
     </g>
     <g id="text_14">
      <!-- 300 -->
      <g transform="translate(46.806875 293.368392857)scale(0.12 -0.12)">
       <use xlink:href="#DejaVuSans-33"/>
       <use x="63.623046875" xlink:href="#DejaVuSans-30"/>
       <use x="127.24609375" xlink:href="#DejaVuSans-30"/>
      </g>
     </g>
    </g>
    <g id="ytick_4">
     <g id="line2d_31">
      <g>
       <use style="stroke:#000000;stroke-width:0.5;" x="72.0" xlink:href="#m728421d6d4" y="240.685714286"/>
      </g>
     </g>
     <g id="line2d_32">
      <g>
       <use style="stroke:#000000;stroke-width:0.5;" x="518.4" xlink:href="#mcb0005524f" y="240.685714286"/>
      </g>
     </g>
     <g id="text_15">
      <!-- 400 -->
      <g transform="translate(46.47875 243.996964286)scale(0.12 -0.12)">
       <use xlink:href="#DejaVuSans-34"/>
       <use x="63.623046875" xlink:href="#DejaVuSans-30"/>
       <use x="127.24609375" xlink:href="#DejaVuSans-30"/>
      </g>
     </g>
    </g>
    <g id="ytick_5">
     <g id="line2d_33">
      <g>
       <use style="stroke:#000000;stroke-width:0.5;" x="72.0" xlink:href="#m728421d6d4" y="191.314285714"/>
      </g>
     </g>
     <g id="line2d_34">
      <g>
       <use style="stroke:#000000;stroke-width:0.5;" x="518.4" xlink:href="#mcb0005524f" y="191.314285714"/>
      </g>
     </g>
     <g id="text_16">
      <!-- 500 -->
      <g transform="translate(46.818125 194.625535714)scale(0.12 -0.12)">
       <use xlink:href="#DejaVuSans-35"/>
       <use x="63.623046875" xlink:href="#DejaVuSans-30"/>
       <use x="127.24609375" xlink:href="#DejaVuSans-30"/>
      </g>
     </g>
    </g>
    <g id="ytick_6">
     <g id="line2d_35">
      <g>
       <use style="stroke:#000000;stroke-width:0.5;" x="72.0" xlink:href="#m728421d6d4" y="141.942857143"/>
      </g>
     </g>
     <g id="line2d_36">
      <g>
       <use style="stroke:#000000;stroke-width:0.5;" x="518.4" xlink:href="#mcb0005524f" y="141.942857143"/>
      </g>
     </g>
     <g id="text_17">
      <!-- 600 -->
      <g transform="translate(46.73 145.254107143)scale(0.12 -0.12)">
       <use xlink:href="#DejaVuSans-36"/>
       <use x="63.623046875" xlink:href="#DejaVuSans-30"/>
       <use x="127.24609375" xlink:href="#DejaVuSans-30"/>
      </g>
     </g>
    </g>
    <g id="ytick_7">
     <g id="line2d_37">
      <g>
       <use style="stroke:#000000;stroke-width:0.5;" x="72.0" xlink:href="#m728421d6d4" y="92.5714285714"/>
      </g>
     </g>
     <g id="line2d_38">
      <g>
       <use style="stroke:#000000;stroke-width:0.5;" x="518.4" xlink:href="#mcb0005524f" y="92.5714285714"/>
      </g>
     </g>
     <g id="text_18">
      <!-- 700 -->
      <defs>
       <path d="
M8.20312 72.9062
L55.0781 72.9062
L55.0781 68.7031
L28.6094 0
L18.3125 0
L43.2188 64.5938
L8.20312 64.5938
z
" id="DejaVuSans-37"/>
      </defs>
      <g transform="translate(46.87625 95.8826785714)scale(0.12 -0.12)">
       <use xlink:href="#DejaVuSans-37"/>
       <use x="63.623046875" xlink:href="#DejaVuSans-30"/>
       <use x="127.24609375" xlink:href="#DejaVuSans-30"/>
      </g>
     </g>
    </g>
    <g id="ytick_8">
     <g id="line2d_39">
      <g>
       <use style="stroke:#000000;stroke-width:0.5;" x="72.0" xlink:href="#m728421d6d4" y="43.2"/>
      </g>
     </g>
     <g id="line2d_40">
      <g>
       <use style="stroke:#000000;stroke-width:0.5;" x="518.4" xlink:href="#mcb0005524f" y="43.2"/>
      </g>
     </g>
     <g id="text_19">
      <!-- 800 -->
      <defs>
       <path d="
M31.7812 34.625
Q24.75 34.625 20.7188 30.8594
Q16.7031 27.0938 16.7031 20.5156
Q16.7031 13.9219 20.7188 10.1562
Q24.75 6.39062 31.7812 6.39062
Q38.8125 6.39062 42.8594 10.1719
Q46.9219 13.9688 46.9219 20.5156
Q46.9219 27.0938 42.8906 30.8594
Q38.875 34.625 31.7812 34.625
M21.9219 38.8125
Q15.5781 40.375 12.0312 44.7188
Q8.5 49.0781 8.5 55.3281
Q8.5 64.0625 14.7188 69.1406
Q20.9531 74.2188 31.7812 74.2188
Q42.6719 74.2188 48.875 69.1406
Q55.0781 64.0625 55.0781 55.3281
Q55.0781 49.0781 51.5312 44.7188
Q48 40.375 41.7031 38.8125
Q48.8281 37.1562 52.7969 32.3125
Q56.7812 27.4844 56.7812 20.5156
Q56.7812 9.90625 50.3125 4.23438
Q43.8438 -1.42188 31.7812 -1.42188
Q19.7344 -1.42188 13.25 4.23438
Q6.78125 9.90625 6.78125 20.5156
Q6.78125 27.4844 10.7812 32.3125
Q14.7969 37.1562 21.9219 38.8125
M18.3125 54.3906
Q18.3125 48.7344 21.8438 45.5625
Q25.3906 42.3906 31.7812 42.3906
Q38.1406 42.3906 41.7188 45.5625
Q45.3125 48.7344 45.3125 54.3906
Q45.3125 60.0625 41.7188 63.2344
Q38.1406 66.4062 31.7812 66.4062
Q25.3906 66.4062 21.8438 63.2344
Q18.3125 60.0625 18.3125 54.3906" id="DejaVuSans-38"/>
      </defs>
      <g transform="translate(46.705625 46.51125)scale(0.12 -0.12)">
       <use xlink:href="#DejaVuSans-38"/>
       <use x="63.623046875" xlink:href="#DejaVuSans-30"/>
       <use x="127.24609375" xlink:href="#DejaVuSans-30"/>
      </g>
     </g>
    </g>
   </g>
   <g id="patch_3">
    <path d="
M72 43.2
L518.4 43.2" style="fill:none;stroke:#000000;"/>
   </g>
   <g id="patch_4">
    <path d="
M518.4 388.8
L518.4 43.2" style="fill:none;stroke:#000000;"/>
   </g>
   <g id="patch_5">
    <path d="
M72 388.8
L518.4 388.8" style="fill:none;stroke:#000000;"/>
   </g>
   <g id="patch_6">
    <path d="
M72 388.8
L72 43.2" style="fill:none;stroke:#000000;"/>
   </g>
  </g>
 </g>
 <defs>
  <clipPath id="p7ff5b81e1d">
   <rect height="345.6" width="446.4" x="72.0" y="43.2"/>
  </clipPath>
 </defs>
</svg>
