<?xml version="1.0" encoding="utf-8" standalone="no"?>
<!DOCTYPE svg PUBLIC "-//W3C//DTD SVG 1.1//EN"
  "http://www.w3.org/Graphics/SVG/1.1/DTD/svg11.dtd">
<!-- Created with matplotlib (http://matplotlib.org/) -->
<svg height="432pt" version="1.1" viewBox="0 0 576 432" width="576pt" xmlns="http://www.w3.org/2000/svg" xmlns:xlink="http://www.w3.org/1999/xlink">
 <defs>
  <style type="text/css">
*{stroke-linecap:butt;stroke-linejoin:round;}
  </style>
 </defs>
 <g id="figure_1">
  <g id="patch_1">
   <path d="
M0 432
L576 432
L576 0
L0 0
z
" style="fill:#ffffff;"/>
  </g>
  <g id="axes_1">
   <g id="patch_2">
    <path d="
M72 388.8
L518.4 388.8
L518.4 43.2
L72 43.2
z
" style="fill:#ffffff;"/>
   </g>
   <g id="line2d_1">
    <path clip-path="url(#p7ff5b81e1d)" d="
M84.0317 355.234
L84.1761 302.102
L84.279 276.601
L84.4106 281.753
L84.4502 248.101
L84.5581 218.907
L84.7039 231.469
L84.7039 224.522
L84.7874 203.103
L84.919 213.532
L84.9246 208.654
L85.085 185.902
L85.3109 190.23
L85.3298 178.607
L85.7594 192.301
L85.7594 187.184
L85.7594 187.184
L85.7594 187.184
L85.8317 195.605
L85.8502 195.171
L86.2585 214.084
L86.2749 211.28
L86.2848 202.294
L87.2246 228.849
L87.4604 227.573
L87.5618 226.35
L87.644 223.235
L87.8038 222.736
L87.9899 221.574
L89.2202 235.964
L90.2037 240.306
L90.6509 246.908
L90.6518 244.65
L91.0573 245.885
L92.1307 253.444
L92.3006 251.546
L92.5 251.871
L92.5748 250.806
L92.8539 251.729
L93.2893 253.963
L93.3202 249.794
L93.828 252.75
L93.8716 251.381
L94.2598 251.664
L94.7676 253.67
L96.4383 258.616
L96.5533 257.341
L96.7882 256.892
L97.7503 259.857
L97.8916 258.885
L97.8953 256.126
L99.1504 260.716
L99.1692 258.094
L100.885 264.389
L100.914 263.49
L103.423 274.075
L105.638 280.226
L105.64 279.362
L105.817 278.682
L106.204 277.993
L107.082 280.742
L107.196 280.179
L107.196 279.044
L107.61 278.216
L107.977 277.836
L108.013 277.461
L108.446 278.084
L108.47 277.018
L108.719 276.669
L108.989 276.661
L109.315 278.054
L109.398 277.448
L109.668 277.123
L109.669 275.129
L111.178 277.739
L111.628 277.938
L111.703 277.522
L111.744 276.159
L114.279 278.025
L114.814 278.327
L115.235 277.723
L116.132 279.001
L116.137 278.139
L118.381 282.346
L118.382 281.636
L118.541 281.806
L118.769 281.536
L119.104 279.203
L119.709 279.473
L119.73 279.314
L120.613 281.372
L121.5 282.149
L122.33 282.172
L123.182 283.48
L123.252 282.116
L124.152 282.634
L124.162 282.365
L124.621 282.312
L126.545 285.274
L127.32 285.703
L127.32 285.004
L127.547 284.575
L128.056 285.459
L128.136 284.968
L128.442 284.526
L129.09 284.396
L129.709 285.345
L129.769 284.843
L129.945 284.768
L129.945 284.166
L132.202 287.895
L132.527 287.591
L133.27 288.671
L133.963 289.386
L135.171 291.519
L135.247 290.846
L135.333 290.973
L137.818 293.509
L137.952 293.422
L137.992 293.002
L138.257 293.517
L138.446 291.063
L138.616 290.86
L138.763 292.065
L139.198 293.401
L139.227 292.135
L139.397 292.772
L140.411 293.504
L140.517 292.982
L140.968 293.679
L141.312 293.498
L141.448 293.934
L141.532 293.311
L141.932 294.267
L141.95 293.041
L142.356 294.202
L142.43 293.121
L142.657 292.885
L142.67 292.097
L143.325 293.237
L143.543 293.188
L143.558 292.355
L143.804 292.907
L144.618 293.927
L144.622 293.101
L144.926 293.087
L145.008 292.247
L145.021 291.476
L145.323 291.871
L145.381 291.734
L145.851 292.586
L145.95 292.469
L145.957 292.142
L146.324 291.945
L146.337 291.632
L146.672 291.464
L146.727 290.804
L147.624 291.685
L148.026 291.611
L148.099 291.44
L148.105 290.637
L148.239 290.837
L148.511 290.784
L148.69 290.997
L148.695 290.64
L148.826 290.447
L149.094 291.084
L149.107 290.841
L149.304 290.892
L149.348 290.639
L149.576 290.672
L149.787 289.679
L149.787 289.287
L149.91 289.422
L150.421 289.327
L150.791 289.422
L150.928 289.284
L151.037 288.739
L151.66 289.524
L151.788 289.002
L152.184 289.001
L152.582 289.322
L153.072 289.904
L153.383 290.137
L153.557 290.671
L154.737 291.457
L154.84 291.436
L154.885 290.801
L155.04 290.942
L155.155 290.875
L155.252 290.615
L155.702 290.886
L155.982 290.812
L156.101 290.433
L156.233 290.487
L156.458 290.388
L156.849 290.625
L156.907 289.731
L157.046 289.713
L157.056 289.387
L157.351 289.245
L157.521 288.298
L157.717 288.532
L158.079 289.269
L158.08 288.961
L158.349 288.661
L158.442 287.703
L158.702 287.939
L158.831 287.286
L159.218 287.403
L159.29 286.871
L159.346 286.805
L159.615 286.897
L159.704 285.846
L160.139 286.109
L160.454 286.073
L160.495 285.885
L160.639 285.887
L160.934 286.163
L161.117 285.201
L161.483 285.043
L161.826 284.744
L162.46 285.464
L162.8 285.297
L162.961 285.298
L162.971 285.005
L163.166 284.969
L163.377 285.314
L163.597 285.252
L163.653 285.113
L164.247 285.598
L164.283 285.083
L164.571 285.356
L164.675 285.072
L165.053 284.739
L165.108 283.392
L165.37 283.289
L165.563 283.499
L165.835 282.77
L165.926 282.463
L166.283 281.885
L166.578 281.904
L166.749 281.759
L166.852 281.745
L166.916 281.367
L167.296 281.648
L167.371 281.311
L167.482 281.259
L167.709 280.984
L168.194 281.526
L168.432 281.515
L168.441 280.974
L168.632 280.97
L168.655 280.744
L169.165 281.113
L169.505 281.125
L169.93 280.941
L170.384 280.824
L170.389 280.559
L170.458 280.578
L171.582 281.71
L172.071 282.032
L172.178 281.473
L172.34 281.07
L173.096 281.537
L173.117 281.376
L173.508 281.481
L173.986 281.733
L174.714 282.425
L174.769 282.245
L174.89 282.003
L175.338 282.165
L175.36 281.975
L175.732 281.916
L176.216 282.489
L176.526 282.541
L176.888 282.744
L177.032 282.521
L177.328 282.503
L177.463 281.946
L178.2 282.081
L179.354 283.015
L179.354 282.776
L179.503 282.593
L179.748 282.776
L179.748 282.538
L180.013 282.316
L180.031 282.092
L180.402 282.19
L180.639 281.943
L180.972 282.153
L181.446 282.162
L181.533 281.65
L181.751 281.59
L182.349 281.901
L182.808 282.282
L183.091 282.249
L183.17 281.891
L183.656 281.9
L183.661 281.686
L183.99 281.845
L184.03 281.399
L184.231 281.495
L184.896 281.202
L184.904 280.983
L185.478 281.277
L185.896 281.252
L185.97 281.183
L185.97 280.956
L186.308 281.243
L186.475 280.89
L187.208 281.538
L187.268 281.445
L187.694 281.56
L187.755 280.979
L187.973 280.679
L188.144 280.8
L188.161 280.591
L188.515 280.712
L188.524 280.507
L188.974 280.76
L189.178 280.631
L189.757 280.588
L189.757 280.372
L189.989 280.571
L190.726 281.39
L190.791 281.1
L190.895 281.027
L191.635 281.494
L191.676 280.913
L192.265 281.253
L192.553 281.127
L192.632 281.124
L192.956 281.259
L192.975 281.086
L194.018 282.129
L194.208 282.069
L194.231 281.907
L194.833 282.322
L195.335 282.472
L195.603 282.471
L195.668 281.972
L196.071 282.219
L196.315 281.143
L196.643 281.342
L197.476 281.343
L197.561 281.106
L197.954 280.972
L197.958 280.784
L198.116 280.671
L198.415 280.78
L198.924 280.987
L199.136 281.079
L199.196 280.837
L199.386 280.561
L201.035 281.644
L201.059 281.526
L202.321 282.256
L202.77 282.054
L202.942 281.93
L203.637 282.509
L204.064 282.408
L204.611 282.642
L204.716 282.594
L205.037 282.675
L205.043 282.495
L206.187 283.05
L206.224 282.758
L206.648 282.839
L207.119 283.238
L207.244 283.034
L207.349 282.776
L208.245 283.271
L208.491 283.173
L208.588 282.777
L208.635 282.665
L208.908 282.87
L208.973 282.61
L209.025 282.346
L209.321 282.369
L209.322 282.198
L209.631 282.329
L209.774 282.267
L210.452 282.689
L210.508 282.616
L210.739 282.476
L210.763 282.342
L210.907 282.372
L211.32 282.191
L211.337 282.053
L211.774 282.093
L211.774 281.93
L212.487 281.837
L212.698 281.938
L212.698 281.777
L212.923 281.819
L213.498 282.308
L213.591 282.239
L213.901 282.365
L213.914 282.047
L214.272 281.99
L215.765 282.982
L216.024 282.973
L216.093 282.787
L216.21 282.524
L216.922 283.004
L217.13 282.822
L217.225 282.67
L218.101 283.081
L218.982 283.668
L219.121 283.524
L219.761 283.845
L219.798 283.409
L220.452 283.618
L222.009 284.713
L222.028 284.585
L222.037 284.439
L222.237 284.348
L222.818 284.644
L222.867 284.292
L223.391 284.017
L223.423 283.743
L224.151 283.88
L224.272 283.552
L224.641 283.481
L225.426 283.993
L225.602 283.674
L225.65 283.585
L225.973 283.616
L226.102 283.468
L226.103 283.326
L226.367 283.001
L226.413 282.908
L226.872 283.135
L226.891 283.023
L226.981 282.992
L227.275 283.029
L227.776 283.274
L227.799 283.226
L228.1 283.291
L228.314 283.045
L228.342 282.906
L228.682 282.841
L229.357 283.061
L229.65 282.771
L229.677 282.652
L230.039 282.505
L230.405 282.677
L230.813 283.082
L231.397 283.251
L231.397 283.144
L231.694 283.21
L231.759 282.99
L232.269 282.965
L232.269 282.823
L233.348 283.135
L234.095 283.559
L234.244 283.459
L234.452 283.619
L234.475 283.514
L234.577 283.19
L234.795 283.185
L235.328 283.481
L235.644 283.552
L235.954 283.742
L236.265 283.611
L237.015 283.877
L239.881 284.999
L240.209 285.01
L240.209 284.909
L240.247 284.842
L240.488 284.825
L241.207 285.091
L241.225 284.985
L242.04 285.073
L242.482 285.308
L242.495 285.19
L242.544 285.14
L242.797 285.065
L242.936 284.672
L243.019 284.183
L243.439 284.196
L243.807 284.336
L243.812 284.082
L243.895 284.097
L244.174 284.042
L245.147 284.522
L245.221 283.951
L245.374 283.97
L245.374 283.845
L245.564 283.71
L245.564 283.582
L245.699 283.669
L245.715 283.547
L245.945 283.522
L246.079 283.626
L246.343 283.622
L246.45 283.212
L247.035 283.245
L247.363 283.111
L247.873 283.269
L248.963 283.633
L249.709 284.083
L250.14 284.026
L250.14 283.933
L250.835 284.065
L251.03 284.172
L251.294 284.173
L251.832 284.464
L251.869 284.376
L251.874 284.263
L252.171 284.265
L252.963 284.443
L253.07 284.137
L253.174 284.098
L253.691 284.191
L254.406 283.918
L254.428 283.899
L254.773 283.837
L254.773 283.72
L255.413 283.7
L255.471 283.217
L256.334 283.543
L256.405 283.258
L256.607 283.245
L256.964 283.233
L256.978 283.015
L257.252 283.097
L257.275 283
L257.859 282.889
L257.882 282.675
L257.996 282.722
L258.003 282.629
L258.553 282.655
L258.553 282.576
L260.061 282.486
L260.499 282.374
L260.557 282.178
L260.746 282.144
L260.817 281.927
L261.22 281.884
L261.22 281.773
L262.068 282.149
L262.121 282.104
L262.472 282.229
L262.564 281.895
L262.597 281.928
L262.838 281.837
L262.977 281.68
L263.241 281.344
L263.343 281.35
L263.927 281.613
L263.937 281.397
L264.39 281.696
L264.39 281.598
L264.756 281.634
L264.756 281.524
L265.007 281.507
L265.221 281.371
L265.232 281.194
L266.579 281.721
L267.031 281.819
L267.031 281.716
L267.489 281.824
L267.926 281.927
L268.076 281.952
L270.172 282.931
L270.362 282.789
L270.394 282.695
L270.626 282.785
L270.626 282.697
L270.626 282.59
L270.858 282.591
L271.785 283.224
L271.794 283.097
L271.794 282.997
L271.954 282.864
L271.962 282.765
L272.304 282.811
L272.304 282.706
L272.717 282.719
L272.786 282.594
L272.821 282.428
L273.431 282.49
L273.482 282.336
L273.667 282.414
L273.676 282.328
L273.707 282.141
L274.344 282.183
L275.067 282.47
L275.072 282.367
L275.633 282.432
L275.948 282.456
L276.37 282.541
L276.555 282.528
L276.639 282.35
L276.802 282.251
L276.802 282.167
L277.552 282.418
L277.691 282.234
L278.387 282.221
L278.486 282.145
L279.063 282.375
L279.541 282.513
L279.541 282.418
L279.542 282.341
L279.759 282.258
L279.777 282.165
L280.264 282.179
L281.22 282.649
L281.31 282.555
L281.516 282.543
L281.771 282.735
L282.569 282.976
L282.571 282.887
L283.004 282.65
L283.509 282.966
L283.514 282.872
L283.544 282.853
L284.39 283.026
L284.395 282.838
L285.929 283.402
L286.085 283.247
L286.085 283.06
L287.067 283.452
L287.348 283.36
L288.572 283.892
L288.702 283.886
L289.587 284.188
L289.601 284.11
L290.074 284.236
L290.148 284.119
L291.094 284.154
L292.137 284.435
L292.183 284.373
L293.18 284.332
L294.594 284.638
L295.067 284.606
L296.23 284.649
L297.042 284.866
L297.093 284.806
L297.635 284.961
L298.173 285.091
L298.173 285.001
L298.196 284.929
L298.437 284.84
L298.603 284.745
L299.225 284.697
L299.726 284.828
L299.818 284.73
L301.024 285.199
L301.042 285.127
L302.173 285.18
L303.713 285.642
L305.145 285.995
L305.238 285.897
L305.521 285.881
L306.439 286.252
L306.578 286.11
L306.795 286.027
L306.809 285.952
L307.48 286.066
L307.482 285.982
L310.117 286.342
L310.117 286.261
L310.552 286.026
L314.621 286.398
L314.686 286.371
L315.022 286.413
L315.537 286.607
L315.56 286.536
L316.22 286.497
L316.452 286.487
L316.452 286.405
L316.763 286.39
L317.138 286.299
L317.547 286.181
L318.594 286.354
L318.812 286.308
L318.965 286.148
L319.363 286.047
L319.836 286.228
L319.859 286.162
L320.652 286.145
L320.768 286.054
L320.912 285.947
L321.941 286.189
L322.057 285.998
L322.377 285.89
L322.381 285.815
L322.488 285.842
L322.52 285.704
L322.826 285.624
L323.36 285.824
L323.383 285.531
L324.906 286.077
L325.251 286.101
L328.635 287.331
L328.645 287.271
L328.668 287.222
L329.54 287.551
L329.553 287.495
L330.601 287.73
L331.092 287.703
L332.186 288.11
L334.912 289.039
L336.187 289.167
L336.206 289.113
L336.415 289.131
L337.94 289.795
L338.083 289.653
L338.204 289.725
L339.122 289.955
L339.126 289.883
L339.284 289.88
L339.845 290.078
L340.735 290.34
L341.565 290.793
L341.593 290.746
L342.529 290.734
L342.872 290.95
L342.881 290.889
L343.943 291.364
L344.179 291.306
L344.393 291.395
L345.329 291.915
L345.538 291.889
L345.978 292.114
L345.983 292.048
L345.997 291.956
L346.414 291.933
L346.553 291.917
L347.156 292.174
L348.018 292.326
L348.018 292.259
L348.426 292.198
L350.545 292.842
L352.71 293.614
L352.849 293.612
L353.372 293.79
L353.372 293.724
L353.405 293.68
L353.961 293.785
L354.184 293.846
L354.184 293.78
L354.518 293.684
L354.536 293.629
L354.689 293.576
L354.689 293.51
L354.865 293.474
L356.849 294.013
L357.243 294.081
L358.704 294.568
L359.182 294.556
L360.006 294.929
L360.234 294.792
L360.693 294.68
L361.782 294.969
L361.986 294.756
L362.648 294.929
L363.011 294.717
L363.785 294.897
L363.785 294.836
L363.85 294.808
L364.337 294.969
L364.364 294.875
L366.001 295.301
L366.01 295.245
L366.882 295.372
L366.882 295.312
L367.166 295.335
L367.169 295.277
L367.183 295.231
L367.419 295.259
L368.495 295.629
L369.365 295.774
L370.243 296.021
L370.294 295.874
L370.66 295.942
L370.669 295.89
L370.887 295.814
L371.457 296.033
L371.466 295.914
L371.554 295.782
L372.857 295.689
L373.701 295.961
L374.012 295.984
L374.656 296.22
L375.639 296.277
L375.959 296.217
L377.66 296.568
L378.513 296.469
L378.638 296.443
L379.565 296.633
L380.947 296.866
L380.965 296.823
L381.336 296.692
L381.369 296.652
L381.601 296.662
L383.158 297.103
L383.464 297.002
L383.469 296.896
L383.575 296.913
L383.617 296.817
L385.138 296.82
L385.56 296.904
L385.791 296.814
L385.815 296.724
L386.644 296.778
L387.34 296.87
L388.049 297.203
L388.054 297.152
L394.15 297.915
L394.243 297.877
L394.59 297.792
L394.697 297.687
L396.839 297.517
L396.853 297.469
L397.873 297.507
L398.535 297.417
L399.63 297.531
L399.667 297.492
L400.112 297.437
L402.309 297.291
L403.06 297.088
L404.95 297.389
L406.594 297.409
L406.786 297.362
L407.219 297.289
L408.054 297.157
L408.096 297.058
L408.962 297.243
L408.962 297.191
L409.623 296.983
L410.037 296.922
L411.638 296.932
L411.663 296.889
L412.813 296.778
L414.673 296.763
L414.803 296.635
L415.378 296.662
L415.384 296.612
L415.421 296.573
L415.687 296.514
L415.848 296.469
L416.521 296.434
L416.75 296.422
L418.301 296.67
L418.308 296.62
L418.765 296.525
L418.784 296.481
L419.989 296.428
L420.471 296.365
L420.527 296.291
L421.911 296.269
L423.636 296.487
L423.661 296.444
L424.878 296.261
L424.903 296.215
L425.651 296.234
L425.892 296.16
L425.929 296.122
L427.097 296.219
L427.097 296.17
L427.159 296.143
L428.847 296.317
L428.976 296.224
L432.073 296.634
L432.076 296.589
L433.248 296.541
L434.255 296.764
L435.491 296.788
L435.646 296.711
L436.431 296.716
L437.043 296.872
L437.21 296.797
L438.576 297.031
L438.978 296.959
L439.707 297.105
L443.088 297.322
L445.023 297.719
L445.048 297.636
L445.938 297.695
L446.704 297.722
L446.772 297.709
L448.515 297.927
L448.583 297.914
L450.821 298.325
L451.482 298.377
L451.909 298.469
L451.921 298.385
L452.088 298.361
L452.595 298.338
L453.38 298.328
L454.573 298.525
L454.696 298.476
L456.384 298.703
L456.446 298.589
L461.224 298.98
L461.972 299.198
L467.504 299.763
L468.901 300.01
L469.748 300.033
L469.865 300.017
L470.817 300.036
L472.455 300.136
L472.455 300.055
L472.498 299.991
L473.351 300.034
L474.34 300.238
L475.965 300.402
L476.362 300.572
L477.066 300.726
L477.097 300.697
L478.834 300.907
L480.967 300.862
L481.838 300.897
L485.473 301.461
L486.672 301.67
L487.593 301.752
L488.026 301.755
L488.532 301.879
L488.532 301.84
L490.3 301.96
L491.178 301.992
L491.592 301.988
L492.482 302.112
L492.482 302.072
L492.519 302.046
L493.972 302.144
L493.997 302.117
L494.769 302.119
L496.172 302.112
L496.617 302.163
L497.885 302.275
L498.342 302.197
L500.635 302.293
L501.76 302.365
L502.669 302.459
L505.432 302.394
L505.932 302.425
L505.97 302.406
L510.871 302.976
L511.65 302.953
L511.662 302.921
L512.213 302.949
L513.82 303.036
L513.82 303.001
L514.66 303.142
L514.66 303.111
L514.747 303.066
L516.144 303.236
L516.41 303.211
L517.009 303.205
L518.4 303.251
L518.4 303.216" style="fill:none;stroke:#ff0000;stroke-linecap:square;"/>
   </g>
   <g id="line2d_2">
    <path clip-path="url(#p7ff5b81e1d)" d="
M72 66.1109
L83.9764 228.131
L83.9897 233.334
L84.0144 190.222
L84.0395 221.48
L84.0395 221.48
L84.0546 240.894
L84.279 263.104
L84.3383 260.329
L84.4721 236.741
L84.5003 252.069
L84.567 245.799
L84.7039 254.351
L84.797 253.614
L84.9243 246.709
L84.9611 243.954
L85.3112 243.224
L85.3486 245.207
L85.7282 245.892
L85.8323 253.809
L86.7085 277.339
L86.7465 275.136
L86.9493 274.12
L86.9573 267.933
L87.4163 273.167
L87.5964 266.732
L87.7896 265.215
L87.8038 260.283
L88.0443 257.95
L89.4397 269.994
L90.1913 271.001
L90.2037 268.755
L90.2374 269.828
L90.6376 270.479
L90.7674 266.705
L91.172 266.906
L91.5444 266.624
L92.0704 267.117
L92.1103 265.669
L92.5816 268.555
L92.7173 268.102
L92.9821 263.074
L93.0282 261.197
L93.2281 260.652
L94.2425 268.579
L96.0254 274.485
L96.3651 274.147
L96.7116 273.994
L96.7897 272.686
L97.3989 274.082
L97.831 273.67
L99.1507 278.262
L99.7768 279.962
L100.495 280.874
L100.885 280.816
L102.304 284.957
L103.168 288.77
L103.426 289.111
L104.798 291.365
L104.798 288.956
L105.17 289.218
L106.466 290.765
L106.525 290.121
L106.973 290.614
L107.287 290.79
L108.307 292.4
L108.492 292.977
L108.816 292.327
L108.983 291.609
L108.983 290.513
L108.99 290.567
L109.315 290.856
L109.829 291.913
L110.303 292.335
L111.704 294.438
L111.705 293.7
L112.102 293.362
L112.607 293.477
L112.672 292.594
L113.507 292.565
L113.769 292.121
L114.273 291.487
L116.227 294.092
L116.426 293.392
L116.43 292.632
L116.543 292.401
L117.819 293.821
L118.152 293.35
L118.382 293.331
L118.834 294.116
L118.879 292.024
L119.118 291.467
L119.118 290.619
L119.728 291.06
L121.338 293.952
L121.5 293.571
L122.408 294.347
L123.182 295.211
L123.252 294.562
L124.833 296.519
L125.51 296.856
L125.515 296.233
L126.392 296.754
L126.545 296.385
L127.463 297.351
L127.537 296.741
L127.897 296.434
L128.112 296.937
L129.521 297.678
L129.521 296.996
L129.832 296.691
L130.111 296.724
L130.284 296.192
L130.777 296.907
L131.324 297.905
L131.324 297.257
L131.695 297.098
L131.757 296.203
L131.757 295.564
L133.527 297.314
L133.963 297.511
L133.963 296.9
L134.871 298.499
L135.21 298.587
L135.333 298.776
L135.333 298.205
L137.34 299.353
L137.563 299.16
L137.565 298.621
L137.818 298.292
L137.818 297.709
L138.442 299.321
L138.499 298.684
L138.672 298.655
L138.709 298.138
L138.904 299.07
L139.119 298.005
L139.372 298.955
L139.53 298.868
L139.607 298.699
L140.471 299.276
L140.921 300.465
L141.066 299.959
L141.127 299.46
L141.352 299.356
L141.532 298.743
L141.808 298.856
L141.818 298.624
L142.013 298.984
L142.378 299.489
L142.459 299.425
L142.799 298.831
L143.221 299.056
L143.326 298.835
L143.33 298.528
L143.555 298.296
L144.139 299.86
L144.516 300.105
L144.576 299.992
L145.013 300.682
L145.818 302.409
L145.907 302.162
L145.957 301.546
L146.324 301.707
L146.4 300.623
L146.704 300.462
L147.205 300.919
L147.616 300.758
L148.193 301.39
L148.477 300.939
L148.559 300.328
L148.862 300.792
L148.878 300.48
L149.285 301.191
L149.334 300.947
L149.672 301.043
L149.787 300.737
L149.832 299.862
L150.31 300.044
L150.829 300.402
L151.03 300.281
L151.269 300.28
L151.679 300.71
L152.183 301.064
L152.248 300.243
L152.474 300.192
L152.665 298.589
L152.858 298.356
L152.86 298.013
L153.541 299.571
L153.803 299.713
L154.917 300.917
L154.988 300.643
L155.623 301.212
L156.242 302.02
L156.485 301.84
L156.527 301.643
L156.87 301.669
L156.917 301.41
L157.344 301.463
L157.54 301.609
L157.672 301.548
L157.681 301.23
L157.816 301.363
L158.058 301.894
L158.182 301.349
L158.305 301.162
L158.331 300.902
L159.023 302.014
L159.063 301.742
L159.55 302.264
L159.615 302.053
L160.505 302.784
L160.658 302.147
L161.107 302.76
L161.182 302.276
L161.831 302.519
L161.9 302.379
L161.928 301.518
L163.235 302.224
L163.37 301.383
L163.685 301.545
L163.685 301.254
L163.861 301.066
L163.861 300.77
L164.06 300.357
L164.093 300.093
L164.251 300.016
L165.094 300.784
L165.423 300.787
L165.864 301.011
L165.901 300.811
L166.689 300.918
L166.733 300.714
L166.93 300.998
L167.389 301.089
L167.417 300.896
L167.598 300.746
L167.616 300.517
L167.74 300.382
L167.751 300.134
L168.034 300.116
L168.159 299.484
L168.562 299.652
L168.701 299.341
L168.744 299.131
L169.478 299.406
L169.536 298.993
L169.847 298.798
L169.883 298.315
L170.314 298.336
L170.457 298.465
L170.5 298.09
L170.783 297.931
L170.857 297.058
L171.636 297.545
L171.775 297.003
L172.112 296.934
L172.169 296.521
L173.147 296.932
L173.49 296.817
L174.807 298.006
L174.881 297.354
L175.292 297.43
L176.276 297.984
L176.636 298.042
L176.713 297.35
L176.883 297.265
L178.181 297.918
L178.2 297.687
L180.203 299.118
L180.411 298.953
L180.685 299.166
L180.721 298.951
L180.907 298.863
L181.144 298.926
L181.446 298.72
L181.57 298.476
L182.192 298.253
L182.841 298.846
L182.896 298.442
L183.142 298.321
L183.967 298.585
L183.986 298.402
L184.435 298.556
L184.497 298.164
L184.894 298.304
L185.376 298.602
L185.502 298.524
L186.007 298.624
L186.021 298.43
L186.531 298.191
L186.809 297.632
L186.86 297.488
L187.259 297.308
L187.286 296.925
L187.68 297.104
L187.795 296.813
L188.436 297.122
L188.955 297.617
L188.992 297.244
L189.502 297.396
L189.529 297.2
L189.859 297.297
L190.054 296.939
L190.099 296.765
L190.406 296.709
L191.167 297.099
L192.103 297.873
L192.126 297.702
L192.627 298.11
L192.78 297.677
L193.489 298.011
L193.531 297.888
L194.189 298.092
L194.189 297.89
L194.332 297.892
L194.463 297.638
L194.811 297.57
L195.246 297.757
L195.365 297.534
L197.407 297.761
L197.539 297.737
L198.278 298.166
L198.375 298.074
L198.39 297.889
L198.64 297.785
L199.257 298.491
L199.312 298.393
L200.601 298.801
L200.656 298.514
L201.073 298.744
L201.109 298.586
L201.347 298.352
L201.44 298.106
L201.468 297.934
L202.395 298.331
L202.896 298.366
L202.97 298.115
L204.259 299.216
L204.862 299.553
L205.111 299.833
L205.362 299.863
L205.408 299.737
L205.557 299.692
L205.566 299.515
L205.784 299.583
L205.93 299.5
L206.683 299.757
L206.706 299.614
L207.244 299.694
L207.703 299.946
L207.735 299.817
L208.282 299.968
L208.987 300.204
L209.126 299.697
L209.849 300.19
L210.27 300.224
L210.753 300.451
L211.333 300.76
L211.555 300.715
L212.079 300.898
L212.284 300.68
L212.534 300.574
L212.534 300.405
L212.955 300.642
L212.955 300.476
L213.229 300.204
L213.781 299.591
L215.317 299.603
L215.552 299.534
L216.488 300.006
L217.188 299.509
L217.22 299.394
L217.516 299.183
L217.633 299.003
L218.347 299.005
L218.762 299.283
L218.852 299.144
L219.708 299.467
L219.75 299.354
L220.535 299.514
L221.042 299.75
L221.116 299.595
L221.824 299.881
L221.93 299.7
L222.096 299.687
L223.423 300.187
L224.056 300.454
L224.082 300.252
L224.508 300.371
L224.636 300.281
L225.112 300.596
L225.389 300.605
L225.625 300.84
L225.65 300.721
L225.904 300.767
L225.922 300.487
L226.107 300.534
L226.247 300.426
L226.413 300.508
L226.445 300.388
L226.845 300.482
L227.826 301.094
L228.931 301.201
L228.935 301.066
L231.015 302.083
L231.75 302.16
L231.751 302.036
L233.224 302.4
L233.348 302.274
L234.1 302.162
L234.373 301.964
L234.373 301.83
L235.268 301.978
L235.314 301.859
L235.838 301.86
L236.112 301.784
L236.776 301.98
L236.946 301.939
L237.611 302.109
L237.938 301.939
L237.962 301.425
L238.985 301.767
L239.273 301.772
L239.389 301.388
L239.617 301.332
L240.729 301.777
L240.733 301.69
L241.196 301.545
L241.216 301.225
L242.797 302.047
L242.797 301.916
L242.908 301.724
L242.987 301.699
L243.279 301.746
L243.439 301.585
L243.599 301.586
L244.211 301.666
L244.252 301.446
L244.952 301.668
L244.952 301.543
L246.955 302.708
L247.453 302.757
L247.453 302.663
L247.46 302.589
L249.454 302.851
L250.14 302.985
L250.358 302.996
L251.014 303.287
L251.014 303.208
L251.197 303.162
L251.197 303.04
L251.832 303.272
L251.832 303.16
L251.841 303.075
L252.765 303.077
L252.806 302.877
L252.963 302.798
L253.705 303.054
L254.985 303.109
L254.989 302.99
L255.453 303.018
L255.685 303.002
L256.607 303.141
L256.788 303.046
L256.955 302.957
L257.442 302.978
L258.132 302.839
L258.553 302.778
L259.801 303.224
L259.906 303.151
L260.631 303.251
L260.814 303.208
L261.683 303.413
L261.716 303.362
L261.906 303.314
L262.149 303.434
L262.149 303.323
L262.597 303.029
L262.597 302.916
L263.073 302.935
L263.176 302.873
L263.44 302.938
L263.505 302.893
L266.004 303.574
L266.015 303.434
L266.797 303.498
L267.659 303.497
L268.735 303.919
L269.197 303.964
L270.584 304.404
L270.626 304.27
L270.765 304.216
L271.516 304.406
L272.391 304.513
L272.536 304.341
L273.106 304.505
L274.103 304.848
L275.053 305.176
L275.053 305.074
L275.072 304.872
L275.53 304.834
L276.198 304.931
L277.557 305.431
L277.561 305.332
L277.691 305.181
L279.212 305.625
L279.323 305.564
L279.542 305.59
L281.729 306.455
L281.942 306.394
L282.68 306.687
L282.68 306.59
L282.823 306.455
L283.273 306.551
L284.168 306.625
L284.335 306.535
L285.109 306.725
L285.299 306.589
L285.789 306.734
L285.789 306.682
L287.112 306.639
L287.658 306.644
L288.007 306.536
L289.682 306.876
L289.694 306.791
L289.754 306.735
L289.967 306.702
L291.692 307.238
L291.743 307.177
L292.818 307.016
L293.648 307.175
L293.699 307.126
L294.626 307.25
L296.837 307.37
L297.32 307.505
L297.324 307.416
L297.448 307.243
L298.497 307.466
L298.595 307.311
L299.105 307.372
L299.258 307.307
L300.426 307.57
L300.671 307.4
L301.988 307.396
L303.546 307.79
L304.002 307.528
L304.002 307.441
L304.232 307.426
L306.587 307.894
L307.801 307.868
L308.191 307.898
L308.191 307.814
L309.049 307.946
L309.058 307.866
L309.294 307.811
L309.304 307.736
L310.217 307.776
L310.347 307.702
L311.033 307.769
L311.269 307.651
L313.147 307.767
L313.188 307.713
L314.621 308.038
L314.848 307.855
L315.564 307.998
L315.942 307.965
L315.965 307.894
L316.791 307.968
L316.829 307.894
L317.314 307.746
L317.314 307.668
L317.62 307.654
L318.244 307.776
L318.362 307.709
L318.807 307.886
L318.812 307.806
L321.292 308.093
L321.373 307.887
L322.534 308.143
L322.686 308.101
L324.189 308.557
L324.31 308.401
L325.052 308.495
L325.358 308.443
L325.368 308.371
L326.169 308.344
L329.238 309.342
L329.238 309.267
L329.333 309.165
L329.507 309.055
L329.998 309.135
L330.031 309.077
L330.198 309.122
L330.215 309.051
L330.388 309.02
L330.624 309.104
L330.828 309.047
L331.999 309.175
L331.999 309.101
L332.636 309.228
L332.682 309.118
L333.146 309.195
L333.953 309.417
L334.092 309.385
L334.388 309.318
L334.393 309.25
L335.107 309.355
L335.367 309.312
L336.841 309.708
L338.083 310.156
L338.134 309.982
L338.273 309.965
L341.342 309.889
L341.347 309.837
L341.526 309.853
L342.552 310.223
L342.872 310.15
L343.869 310.414
L345.969 311.083
L345.969 311.014
L346.094 310.986
L346.539 311.004
L346.539 310.936
L347.587 311.338
L349.126 311.493
L350.915 311.519
L354.049 312.404
L354.059 312.343
L355.162 312.323
L355.18 312.224
L355.751 312.187
L356.766 312.467
L357.146 312.435
L357.202 312.329
L357.745 312.361
L357.751 312.239
L358.676 312.344
L359.182 312.234
L359.626 312.481
L360.248 312.497
L360.442 312.429
L361.316 312.514
L362.505 312.446
L363.191 312.52
L363.757 312.342
L363.757 312.217
L365.315 312.584
L366.423 312.639
L367.085 312.705
L367.609 312.87
L367.628 312.762
L367.95 312.703
L368.036 312.634
L369.158 312.852
L369.374 312.741
L369.408 312.694
L370.229 312.814
L370.326 312.51
L370.938 312.65
L370.961 312.602
L371.443 312.697
L371.443 312.638
L371.466 312.593
L373.223 312.777
L374.044 312.999
L375.481 313.264
L375.583 313.203
L375.935 313.185
L376.515 313.21
L376.895 313.228
L378.596 313.408
L378.596 313.35
L379.49 313.504
L380.474 313.751
L380.701 313.639
L380.91 313.616
L380.933 313.512
L382.004 313.433
L384.03 313.908
L384.03 313.852
L384.433 313.865
L385.175 313.988
L385.671 313.944
L385.74 313.894
L386.046 313.851
L386.116 313.745
L387.372 313.929
L387.534 313.902
L387.534 313.846
L387.582 313.764
L389.324 313.966
L389.329 313.914
L390.984 313.937
L390.984 313.882
L394.641 314.258
L394.646 314.205
L395.592 314.167
L397.4 313.893
L398.308 313.908
L398.999 313.956
L400.784 314.121
L400.784 314.069
L403.148 313.905
L404.112 313.952
L404.113 313.902
L404.264 313.861
L406.702 314.125
L406.749 314.089
L408.503 314.195
L408.503 314.098
L409.623 314.179
L409.654 314.135
L420.391 314.284
L421.676 314.418
L421.911 314.287
L423.858 314.298
L424.007 314.186
L424.013 314.14
L425.014 314.258
L425.651 314.243
L427.085 314.348
L427.085 314.3
L429.347 314.393
L429.378 314.304
L430.219 314.343
L430.305 314.275
L431.912 314.57
L431.912 314.522
L432.833 314.495
L433.489 314.452
L434.546 314.575
L434.713 314.503
L434.719 314.455
L439.862 314.716
L439.923 314.682
L440.931 314.822
L440.949 314.781
L441.648 314.778
L441.648 314.733
L441.679 314.649
L441.833 314.627
L441.833 314.581
L441.901 314.414
L443.02 314.556
L443.125 314.409
L445.425 314.727
L445.474 314.652
L446.537 314.702
L446.568 314.666
L446.976 314.664
L447.242 314.604
L447.267 314.568
L447.891 314.509
L447.916 314.469
L448.144 314.403
L448.169 314.368
L448.818 314.317
L449.276 314.339
L449.276 314.295
L449.306 314.264
L450.19 314.49
L450.197 314.446
L450.753 314.467
L450.821 314.437
L454.727 314.982
L454.727 314.939
L459.882 315.593
L459.882 315.549
L463.053 315.921
L463.053 315.878
L463.14 315.863
L463.925 315.95
L464.451 315.975
L467.016 315.975
L468.814 316.335
L468.882 316.31
L470.391 316.617
L471.639 316.762
L471.744 316.745
L473.407 317.003
L473.407 316.962
L473.5 316.862
L474.309 316.839
L474.402 316.786
L475.589 316.787
L476.243 316.938
L476.578 316.985
L477.462 317.102
L477.462 317.061
L479.118 317.211
L480.552 317.359
L480.571 317.322
L482.401 317.621
L482.425 317.589
L484.113 317.584
L484.206 317.54
L485.269 317.527
L486.004 317.575
L487.067 317.596
L487.067 317.558
L488.106 317.64
L489.299 317.796
L489.484 317.731
L491.691 317.964
L491.691 317.928
L494.905 318.315
L497.761 318.43
L498.787 318.503
L498.818 318.471
L500.635 318.615
L501.773 318.675
L502.354 318.653
L503.516 318.687
L503.615 318.61
L506.452 318.847
L506.458 318.816
L508.071 319.056
L508.077 319.022
L508.152 319.002
L509.147 319.153
L509.796 319.201
L509.956 319.066
L515.983 319.491
L517.603 319.676
L518.375 319.72
L518.375 319.72" style="fill:none;stroke:#008000;stroke-linecap:square;"/>
   </g>
   <g id="matplotlib.axis_1">
    <g id="xtick_1">
     <g id="line2d_3">
      <defs>
       <path d="
M0 0
L0 -4" id="m93b0483c22" style="stroke:#000000;stroke-width:0.5;"/>
      </defs>
      <g>
       <use style="stroke:#000000;stroke-width:0.5;" x="112.597271211" xlink:href="#m93b0483c22" y="388.8"/>
      </g>
     </g>
     <g id="line2d_4">
      <defs>
       <path d="
M0 0
L0 4" id="m741efc42ff" style="stroke:#000000;stroke-width:0.5;"/>
      </defs>
      <g>
       <use style="stroke:#000000;stroke-width:0.5;" x="112.597271211" xlink:href="#m741efc42ff" y="43.2"/>
      </g>
     </g>
     <g id="text_1">
      <!-- Nov 2013 -->
      <defs>
       <path d="
M9.8125 72.9062
L23.0938 72.9062
L55.4219 11.9219
L55.4219 72.9062
L64.9844 72.9062
L64.9844 0
L51.7031 0
L19.3906 60.9844
L19.3906 0
L9.8125 0
z
" id="DejaVuSans-4e"/>
       <path d="
M30.6094 48.3906
Q23.3906 48.3906 19.1875 42.75
Q14.9844 37.1094 14.9844 27.2969
Q14.9844 17.4844 19.1562 11.8438
Q23.3438 6.20312 30.6094 6.20312
Q37.7969 6.20312 41.9844 11.8594
Q46.1875 17.5312 46.1875 27.2969
Q46.1875 37.0156 41.9844 42.7031
Q37.7969 48.3906 30.6094 48.3906
M30.6094 56
Q42.3281 56 49.0156 48.375
Q55.7188 40.7656 55.7188 27.2969
Q55.7188 13.875 49.0156 6.21875
Q42.3281 -1.42188 30.6094 -1.42188
Q18.8438 -1.42188 12.1719 6.21875
Q5.51562 13.875 5.51562 27.2969
Q5.51562 40.7656 12.1719 48.375
Q18.8438 56 30.6094 56" id="DejaVuSans-6f"/>
       <path d="
M40.5781 39.3125
Q47.6562 37.7969 51.625 33
Q55.6094 28.2188 55.6094 21.1875
Q55.6094 10.4062 48.1875 4.48438
Q40.7656 -1.42188 27.0938 -1.42188
Q22.5156 -1.42188 17.6562 -0.515625
Q12.7969 0.390625 7.625 2.20312
L7.625 11.7188
Q11.7188 9.32812 16.5938 8.10938
Q21.4844 6.89062 26.8125 6.89062
Q36.0781 6.89062 40.9375 10.5469
Q45.7969 14.2031 45.7969 21.1875
Q45.7969 27.6406 41.2812 31.2656
Q36.7656 34.9062 28.7188 34.9062
L20.2188 34.9062
L20.2188 43.0156
L29.1094 43.0156
Q36.375 43.0156 40.2344 45.9219
Q44.0938 48.8281 44.0938 54.2969
Q44.0938 59.9062 40.1094 62.9062
Q36.1406 65.9219 28.7188 65.9219
Q24.6562 65.9219 20.0156 65.0312
Q15.375 64.1562 9.8125 62.3125
L9.8125 71.0938
Q15.4375 72.6562 20.3438 73.4375
Q25.25 74.2188 29.5938 74.2188
Q40.8281 74.2188 47.3594 69.1094
Q53.9062 64.0156 53.9062 55.3281
Q53.9062 49.2656 50.4375 45.0938
Q46.9688 40.9219 40.5781 39.3125" id="DejaVuSans-33"/>
       <path d="
M12.4062 8.29688
L28.5156 8.29688
L28.5156 63.9219
L10.9844 60.4062
L10.9844 69.3906
L28.4219 72.9062
L38.2812 72.9062
L38.2812 8.29688
L54.3906 8.29688
L54.3906 0
L12.4062 0
z
" id="DejaVuSans-31"/>
       <path d="
M31.7812 66.4062
Q24.1719 66.4062 20.3281 58.9062
Q16.5 51.4219 16.5 36.375
Q16.5 21.3906 20.3281 13.8906
Q24.1719 6.39062 31.7812 6.39062
Q39.4531 6.39062 43.2812 13.8906
Q47.125 21.3906 47.125 36.375
Q47.125 51.4219 43.2812 58.9062
Q39.4531 66.4062 31.7812 66.4062
M31.7812 74.2188
Q44.0469 74.2188 50.5156 64.5156
Q56.9844 54.8281 56.9844 36.375
Q56.9844 17.9688 50.5156 8.26562
Q44.0469 -1.42188 31.7812 -1.42188
Q19.5312 -1.42188 13.0625 8.26562
Q6.59375 17.9688 6.59375 36.375
Q6.59375 54.8281 13.0625 64.5156
Q19.5312 74.2188 31.7812 74.2188" id="DejaVuSans-30"/>
       <path id="DejaVuSans-20"/>
       <path d="
M19.1875 8.29688
L53.6094 8.29688
L53.6094 0
L7.32812 0
L7.32812 8.29688
Q12.9375 14.1094 22.625 23.8906
Q32.3281 33.6875 34.8125 36.5312
Q39.5469 41.8438 41.4219 45.5312
Q43.3125 49.2188 43.3125 52.7812
Q43.3125 58.5938 39.2344 62.25
Q35.1562 65.9219 28.6094 65.9219
Q23.9688 65.9219 18.8125 64.3125
Q13.6719 62.7031 7.8125 59.4219
L7.8125 69.3906
Q13.7656 71.7812 18.9375 73
Q24.125 74.2188 28.4219 74.2188
Q39.75 74.2188 46.4844 68.5469
Q53.2188 62.8906 53.2188 53.4219
Q53.2188 48.9219 51.5312 44.8906
Q49.8594 40.875 45.4062 35.4062
Q44.1875 33.9844 37.6406 27.2188
Q31.1094 20.4531 19.1875 8.29688" id="DejaVuSans-32"/>
       <path d="
M2.98438 54.6875
L12.5 54.6875
L29.5938 8.79688
L46.6875 54.6875
L56.2031 54.6875
L35.6875 0
L23.4844 0
z
" id="DejaVuSans-76"/>
      </defs>
      <g transform="translate(84.190083711 401.918125)scale(0.12 -0.12)">
       <use xlink:href="#DejaVuSans-4e"/>
       <use x="74.8046875" xlink:href="#DejaVuSans-6f"/>
       <use x="135.986328125" xlink:href="#DejaVuSans-76"/>
       <use x="195.166015625" xlink:href="#DejaVuSans-20"/>
       <use x="226.953125" xlink:href="#DejaVuSans-32"/>
       <use x="290.576171875" xlink:href="#DejaVuSans-30"/>
       <use x="354.19921875" xlink:href="#DejaVuSans-31"/>
       <use x="417.822265625" xlink:href="#DejaVuSans-33"/>
      </g>
     </g>
    </g>
    <g id="xtick_2">
     <g id="line2d_5">
      <g>
       <use style="stroke:#000000;stroke-width:0.5;" x="153.541617459" xlink:href="#m93b0483c22" y="388.8"/>
      </g>
     </g>
     <g id="line2d_6">
      <g>
       <use style="stroke:#000000;stroke-width:0.5;" x="153.541617459" xlink:href="#m741efc42ff" y="43.2"/>
      </g>
     </g>
     <g id="text_2">
      <!-- Feb 2014 -->
      <defs>
       <path d="
M9.8125 72.9062
L51.7031 72.9062
L51.7031 64.5938
L19.6719 64.5938
L19.6719 43.1094
L48.5781 43.1094
L48.5781 34.8125
L19.6719 34.8125
L19.6719 0
L9.8125 0
z
" id="DejaVuSans-46"/>
       <path d="
M56.2031 29.5938
L56.2031 25.2031
L14.8906 25.2031
Q15.4844 15.9219 20.4844 11.0625
Q25.4844 6.20312 34.4219 6.20312
Q39.5938 6.20312 44.4531 7.46875
Q49.3125 8.73438 54.1094 11.2812
L54.1094 2.78125
Q49.2656 0.734375 44.1875 -0.34375
Q39.1094 -1.42188 33.8906 -1.42188
Q20.7969 -1.42188 13.1562 6.1875
Q5.51562 13.8125 5.51562 26.8125
Q5.51562 40.2344 12.7656 48.1094
Q20.0156 56 32.3281 56
Q43.3594 56 49.7812 48.8906
Q56.2031 41.7969 56.2031 29.5938
M47.2188 32.2344
Q47.125 39.5938 43.0938 43.9844
Q39.0625 48.3906 32.4219 48.3906
Q24.9062 48.3906 20.3906 44.1406
Q15.875 39.8906 15.1875 32.1719
z
" id="DejaVuSans-65"/>
       <path d="
M48.6875 27.2969
Q48.6875 37.2031 44.6094 42.8438
Q40.5312 48.4844 33.4062 48.4844
Q26.2656 48.4844 22.1875 42.8438
Q18.1094 37.2031 18.1094 27.2969
Q18.1094 17.3906 22.1875 11.75
Q26.2656 6.10938 33.4062 6.10938
Q40.5312 6.10938 44.6094 11.75
Q48.6875 17.3906 48.6875 27.2969
M18.1094 46.3906
Q20.9531 51.2656 25.2656 53.625
Q29.5938 56 35.5938 56
Q45.5625 56 51.7812 48.0938
Q58.0156 40.1875 58.0156 27.2969
Q58.0156 14.4062 51.7812 6.48438
Q45.5625 -1.42188 35.5938 -1.42188
Q29.5938 -1.42188 25.2656 0.953125
Q20.9531 3.32812 18.1094 8.20312
L18.1094 0
L9.07812 0
L9.07812 75.9844
L18.1094 75.9844
z
" id="DejaVuSans-62"/>
       <path d="
M37.7969 64.3125
L12.8906 25.3906
L37.7969 25.3906
z

M35.2031 72.9062
L47.6094 72.9062
L47.6094 25.3906
L58.0156 25.3906
L58.0156 17.1875
L47.6094 17.1875
L47.6094 0
L37.7969 0
L37.7969 17.1875
L4.89062 17.1875
L4.89062 26.7031
z
" id="DejaVuSans-34"/>
      </defs>
      <g transform="translate(126.079429959 401.918125)scale(0.12 -0.12)">
       <use xlink:href="#DejaVuSans-46"/>
       <use x="52.01953125" xlink:href="#DejaVuSans-65"/>
       <use x="113.54296875" xlink:href="#DejaVuSans-62"/>
       <use x="177.01953125" xlink:href="#DejaVuSans-20"/>
       <use x="208.806640625" xlink:href="#DejaVuSans-32"/>
       <use x="272.4296875" xlink:href="#DejaVuSans-30"/>
       <use x="336.052734375" xlink:href="#DejaVuSans-31"/>
       <use x="399.67578125" xlink:href="#DejaVuSans-34"/>
      </g>
     </g>
    </g>
    <g id="xtick_3">
     <g id="line2d_7">
      <g>
       <use style="stroke:#000000;stroke-width:0.5;" x="193.150821981" xlink:href="#m93b0483c22" y="388.8"/>
      </g>
     </g>
     <g id="line2d_8">
      <g>
       <use style="stroke:#000000;stroke-width:0.5;" x="193.150821981" xlink:href="#m741efc42ff" y="43.2"/>
      </g>
     </g>
     <g id="text_3">
      <!-- May 2014 -->
      <defs>
       <path d="
M9.8125 72.9062
L24.5156 72.9062
L43.1094 23.2969
L61.8125 72.9062
L76.5156 72.9062
L76.5156 0
L66.8906 0
L66.8906 64.0156
L48.0938 14.0156
L38.1875 14.0156
L19.3906 64.0156
L19.3906 0
L9.8125 0
z
" id="DejaVuSans-4d"/>
       <path d="
M32.1719 -5.07812
Q28.375 -14.8438 24.75 -17.8125
Q21.1406 -20.7969 15.0938 -20.7969
L7.90625 -20.7969
L7.90625 -13.2812
L13.1875 -13.2812
Q16.8906 -13.2812 18.9375 -11.5156
Q21 -9.76562 23.4844 -3.21875
L25.0938 0.875
L2.98438 54.6875
L12.5 54.6875
L29.5938 11.9219
L46.6875 54.6875
L56.2031 54.6875
z
" id="DejaVuSans-79"/>
       <path d="
M34.2812 27.4844
Q23.3906 27.4844 19.1875 25
Q14.9844 22.5156 14.9844 16.5
Q14.9844 11.7188 18.1406 8.90625
Q21.2969 6.10938 26.7031 6.10938
Q34.1875 6.10938 38.7031 11.4062
Q43.2188 16.7031 43.2188 25.4844
L43.2188 27.4844
z

M52.2031 31.2031
L52.2031 0
L43.2188 0
L43.2188 8.29688
Q40.1406 3.32812 35.5469 0.953125
Q30.9531 -1.42188 24.3125 -1.42188
Q15.9219 -1.42188 10.9531 3.29688
Q6 8.01562 6 15.9219
Q6 25.1406 12.1719 29.8281
Q18.3594 34.5156 30.6094 34.5156
L43.2188 34.5156
L43.2188 35.4062
Q43.2188 41.6094 39.1406 45
Q35.0625 48.3906 27.6875 48.3906
Q23 48.3906 18.5469 47.2656
Q14.1094 46.1406 10.0156 43.8906
L10.0156 52.2031
Q14.9375 54.1094 19.5781 55.0469
Q24.2188 56 28.6094 56
Q40.4844 56 46.3438 49.8438
Q52.2031 43.7031 52.2031 31.2031" id="DejaVuSans-61"/>
      </defs>
      <g transform="translate(163.905509481 401.918125)scale(0.12 -0.12)">
       <use xlink:href="#DejaVuSans-4d"/>
       <use x="86.279296875" xlink:href="#DejaVuSans-61"/>
       <use x="147.55859375" xlink:href="#DejaVuSans-79"/>
       <use x="206.73828125" xlink:href="#DejaVuSans-20"/>
       <use x="238.525390625" xlink:href="#DejaVuSans-32"/>
       <use x="302.1484375" xlink:href="#DejaVuSans-30"/>
       <use x="365.771484375" xlink:href="#DejaVuSans-31"/>
       <use x="429.39453125" xlink:href="#DejaVuSans-34"/>
      </g>
     </g>
    </g>
    <g id="xtick_4">
     <g id="line2d_9">
      <g>
       <use style="stroke:#000000;stroke-width:0.5;" x="234.095168228" xlink:href="#m93b0483c22" y="388.8"/>
      </g>
     </g>
     <g id="line2d_10">
      <g>
       <use style="stroke:#000000;stroke-width:0.5;" x="234.095168228" xlink:href="#m741efc42ff" y="43.2"/>
      </g>
     </g>
     <g id="text_4">
      <!-- Aug 2014 -->
      <defs>
       <path d="
M8.5 21.5781
L8.5 54.6875
L17.4844 54.6875
L17.4844 21.9219
Q17.4844 14.1562 20.5 10.2656
Q23.5312 6.39062 29.5938 6.39062
Q36.8594 6.39062 41.0781 11.0312
Q45.3125 15.6719 45.3125 23.6875
L45.3125 54.6875
L54.2969 54.6875
L54.2969 0
L45.3125 0
L45.3125 8.40625
Q42.0469 3.42188 37.7188 1
Q33.4062 -1.42188 27.6875 -1.42188
Q18.2656 -1.42188 13.375 4.4375
Q8.5 10.2969 8.5 21.5781
M31.1094 56
z
" id="DejaVuSans-75"/>
       <path d="
M45.4062 27.9844
Q45.4062 37.75 41.375 43.1094
Q37.3594 48.4844 30.0781 48.4844
Q22.8594 48.4844 18.8281 43.1094
Q14.7969 37.75 14.7969 27.9844
Q14.7969 18.2656 18.8281 12.8906
Q22.8594 7.51562 30.0781 7.51562
Q37.3594 7.51562 41.375 12.8906
Q45.4062 18.2656 45.4062 27.9844
M54.3906 6.78125
Q54.3906 -7.17188 48.1875 -13.9844
Q42 -20.7969 29.2031 -20.7969
Q24.4688 -20.7969 20.2656 -20.0938
Q16.0625 -19.3906 12.1094 -17.9219
L12.1094 -9.1875
Q16.0625 -11.3281 19.9219 -12.3438
Q23.7812 -13.375 27.7812 -13.375
Q36.625 -13.375 41.0156 -8.76562
Q45.4062 -4.15625 45.4062 5.17188
L45.4062 9.625
Q42.625 4.78125 38.2812 2.39062
Q33.9375 0 27.875 0
Q17.8281 0 11.6719 7.65625
Q5.51562 15.3281 5.51562 27.9844
Q5.51562 40.6719 11.6719 48.3281
Q17.8281 56 27.875 56
Q33.9375 56 38.2812 53.6094
Q42.625 51.2188 45.4062 46.3906
L45.4062 54.6875
L54.3906 54.6875
z
" id="DejaVuSans-67"/>
       <path d="
M34.1875 63.1875
L20.7969 26.9062
L47.6094 26.9062
z

M28.6094 72.9062
L39.7969 72.9062
L67.5781 0
L57.3281 0
L50.6875 18.7031
L17.8281 18.7031
L11.1875 0
L0.78125 0
z
" id="DejaVuSans-41"/>
      </defs>
      <g transform="translate(205.538918228 401.918125)scale(0.12 -0.12)">
       <use xlink:href="#DejaVuSans-41"/>
       <use x="68.408203125" xlink:href="#DejaVuSans-75"/>
       <use x="131.787109375" xlink:href="#DejaVuSans-67"/>
       <use x="195.263671875" xlink:href="#DejaVuSans-20"/>
       <use x="227.05078125" xlink:href="#DejaVuSans-32"/>
       <use x="290.673828125" xlink:href="#DejaVuSans-30"/>
       <use x="354.296875" xlink:href="#DejaVuSans-31"/>
       <use x="417.919921875" xlink:href="#DejaVuSans-34"/>
      </g>
     </g>
    </g>
    <g id="xtick_5">
     <g id="line2d_11">
      <g>
       <use style="stroke:#000000;stroke-width:0.5;" x="275.039514476" xlink:href="#m93b0483c22" y="388.8"/>
      </g>
     </g>
     <g id="line2d_12">
      <g>
       <use style="stroke:#000000;stroke-width:0.5;" x="275.039514476" xlink:href="#m741efc42ff" y="43.2"/>
      </g>
     </g>
     <g id="text_5">
      <!-- Nov 2014 -->
      <g transform="translate(246.487951976 401.918125)scale(0.12 -0.12)">
       <use xlink:href="#DejaVuSans-4e"/>
       <use x="74.8046875" xlink:href="#DejaVuSans-6f"/>
       <use x="135.986328125" xlink:href="#DejaVuSans-76"/>
       <use x="195.166015625" xlink:href="#DejaVuSans-20"/>
       <use x="226.953125" xlink:href="#DejaVuSans-32"/>
       <use x="290.576171875" xlink:href="#DejaVuSans-30"/>
       <use x="354.19921875" xlink:href="#DejaVuSans-31"/>
       <use x="417.822265625" xlink:href="#DejaVuSans-34"/>
      </g>
     </g>
    </g>
    <g id="xtick_6">
     <g id="line2d_13">
      <g>
       <use style="stroke:#000000;stroke-width:0.5;" x="315.983860723" xlink:href="#m93b0483c22" y="388.8"/>
      </g>
     </g>
     <g id="line2d_14">
      <g>
       <use style="stroke:#000000;stroke-width:0.5;" x="315.983860723" xlink:href="#m741efc42ff" y="43.2"/>
      </g>
     </g>
     <g id="text_6">
      <!-- Feb 2015 -->
      <defs>
       <path d="
M10.7969 72.9062
L49.5156 72.9062
L49.5156 64.5938
L19.8281 64.5938
L19.8281 46.7344
Q21.9688 47.4688 24.1094 47.8281
Q26.2656 48.1875 28.4219 48.1875
Q40.625 48.1875 47.75 41.5
Q54.8906 34.8125 54.8906 23.3906
Q54.8906 11.625 47.5625 5.09375
Q40.2344 -1.42188 26.9062 -1.42188
Q22.3125 -1.42188 17.5469 -0.640625
Q12.7969 0.140625 7.71875 1.70312
L7.71875 11.625
Q12.1094 9.23438 16.7969 8.0625
Q21.4844 6.89062 26.7031 6.89062
Q35.1562 6.89062 40.0781 11.3281
Q45.0156 15.7656 45.0156 23.3906
Q45.0156 31 40.0781 35.4375
Q35.1562 39.8906 26.7031 39.8906
Q22.75 39.8906 18.8125 39.0156
Q14.8906 38.1406 10.7969 36.2812
z
" id="DejaVuSans-35"/>
      </defs>
      <g transform="translate(288.709173223 401.918125)scale(0.12 -0.12)">
       <use xlink:href="#DejaVuSans-46"/>
       <use x="52.01953125" xlink:href="#DejaVuSans-65"/>
       <use x="113.54296875" xlink:href="#DejaVuSans-62"/>
       <use x="177.01953125" xlink:href="#DejaVuSans-20"/>
       <use x="208.806640625" xlink:href="#DejaVuSans-32"/>
       <use x="272.4296875" xlink:href="#DejaVuSans-30"/>
       <use x="336.052734375" xlink:href="#DejaVuSans-31"/>
       <use x="399.67578125" xlink:href="#DejaVuSans-35"/>
      </g>
     </g>
    </g>
    <g id="xtick_7">
     <g id="line2d_15">
      <g>
       <use style="stroke:#000000;stroke-width:0.5;" x="355.593065245" xlink:href="#m93b0483c22" y="388.8"/>
      </g>
     </g>
     <g id="line2d_16">
      <g>
       <use style="stroke:#000000;stroke-width:0.5;" x="355.593065245" xlink:href="#m741efc42ff" y="43.2"/>
      </g>
     </g>
     <g id="text_7">
      <!-- May 2015 -->
      <g transform="translate(326.535252745 401.918125)scale(0.12 -0.12)">
       <use xlink:href="#DejaVuSans-4d"/>
       <use x="86.279296875" xlink:href="#DejaVuSans-61"/>
       <use x="147.55859375" xlink:href="#DejaVuSans-79"/>
       <use x="206.73828125" xlink:href="#DejaVuSans-20"/>
       <use x="238.525390625" xlink:href="#DejaVuSans-32"/>
       <use x="302.1484375" xlink:href="#DejaVuSans-30"/>
       <use x="365.771484375" xlink:href="#DejaVuSans-31"/>
       <use x="429.39453125" xlink:href="#DejaVuSans-35"/>
      </g>
     </g>
    </g>
    <g id="xtick_8">
     <g id="line2d_17">
      <g>
       <use style="stroke:#000000;stroke-width:0.5;" x="396.537411493" xlink:href="#m93b0483c22" y="388.8"/>
      </g>
     </g>
     <g id="line2d_18">
      <g>
       <use style="stroke:#000000;stroke-width:0.5;" x="396.537411493" xlink:href="#m741efc42ff" y="43.2"/>
      </g>
     </g>
     <g id="text_8">
      <!-- Aug 2015 -->
      <g transform="translate(368.168661493 401.918125)scale(0.12 -0.12)">
       <use xlink:href="#DejaVuSans-41"/>
       <use x="68.408203125" xlink:href="#DejaVuSans-75"/>
       <use x="131.787109375" xlink:href="#DejaVuSans-67"/>
       <use x="195.263671875" xlink:href="#DejaVuSans-20"/>
       <use x="227.05078125" xlink:href="#DejaVuSans-32"/>
       <use x="290.673828125" xlink:href="#DejaVuSans-30"/>
       <use x="354.296875" xlink:href="#DejaVuSans-31"/>
       <use x="417.919921875" xlink:href="#DejaVuSans-35"/>
      </g>
     </g>
    </g>
    <g id="xtick_9">
     <g id="line2d_19">
      <g>
       <use style="stroke:#000000;stroke-width:0.5;" x="437.48175774" xlink:href="#m93b0483c22" y="388.8"/>
      </g>
     </g>
     <g id="line2d_20">
      <g>
       <use style="stroke:#000000;stroke-width:0.5;" x="437.48175774" xlink:href="#m741efc42ff" y="43.2"/>
      </g>
     </g>
     <g id="text_9">
      <!-- Nov 2015 -->
      <g transform="translate(409.11769524 401.918125)scale(0.12 -0.12)">
       <use xlink:href="#DejaVuSans-4e"/>
       <use x="74.8046875" xlink:href="#DejaVuSans-6f"/>
       <use x="135.986328125" xlink:href="#DejaVuSans-76"/>
       <use x="195.166015625" xlink:href="#DejaVuSans-20"/>
       <use x="226.953125" xlink:href="#DejaVuSans-32"/>
       <use x="290.576171875" xlink:href="#DejaVuSans-30"/>
       <use x="354.19921875" xlink:href="#DejaVuSans-31"/>
       <use x="417.822265625" xlink:href="#DejaVuSans-35"/>
      </g>
     </g>
    </g>
    <g id="xtick_10">
     <g id="line2d_21">
      <g>
       <use style="stroke:#000000;stroke-width:0.5;" x="478.426103988" xlink:href="#m93b0483c22" y="388.8"/>
      </g>
     </g>
     <g id="line2d_22">
      <g>
       <use style="stroke:#000000;stroke-width:0.5;" x="478.426103988" xlink:href="#m741efc42ff" y="43.2"/>
      </g>
     </g>
     <g id="text_10">
      <!-- Feb 2016 -->
      <defs>
       <path d="
M33.0156 40.375
Q26.375 40.375 22.4844 35.8281
Q18.6094 31.2969 18.6094 23.3906
Q18.6094 15.5312 22.4844 10.9531
Q26.375 6.39062 33.0156 6.39062
Q39.6562 6.39062 43.5312 10.9531
Q47.4062 15.5312 47.4062 23.3906
Q47.4062 31.2969 43.5312 35.8281
Q39.6562 40.375 33.0156 40.375
M52.5938 71.2969
L52.5938 62.3125
Q48.875 64.0625 45.0938 64.9844
Q41.3125 65.9219 37.5938 65.9219
Q27.8281 65.9219 22.6719 59.3281
Q17.5312 52.7344 16.7969 39.4062
Q19.6719 43.6562 24.0156 45.9219
Q28.375 48.1875 33.5938 48.1875
Q44.5781 48.1875 50.9531 41.5156
Q57.3281 34.8594 57.3281 23.3906
Q57.3281 12.1562 50.6875 5.35938
Q44.0469 -1.42188 33.0156 -1.42188
Q20.3594 -1.42188 13.6719 8.26562
Q6.98438 17.9688 6.98438 36.375
Q6.98438 53.6562 15.1875 63.9375
Q23.3906 74.2188 37.2031 74.2188
Q40.9219 74.2188 44.7031 73.4844
Q48.4844 72.75 52.5938 71.2969" id="DejaVuSans-36"/>
      </defs>
      <g transform="translate(451.005166488 401.918125)scale(0.12 -0.12)">
       <use xlink:href="#DejaVuSans-46"/>
       <use x="52.01953125" xlink:href="#DejaVuSans-65"/>
       <use x="113.54296875" xlink:href="#DejaVuSans-62"/>
       <use x="177.01953125" xlink:href="#DejaVuSans-20"/>
       <use x="208.806640625" xlink:href="#DejaVuSans-32"/>
       <use x="272.4296875" xlink:href="#DejaVuSans-30"/>
       <use x="336.052734375" xlink:href="#DejaVuSans-31"/>
       <use x="399.67578125" xlink:href="#DejaVuSans-36"/>
      </g>
     </g>
    </g>
   </g>
   <g id="matplotlib.axis_2">
    <g id="ytick_1">
     <g id="line2d_23">
      <defs>
       <path d="
M0 0
L4 0" id="m728421d6d4" style="stroke:#000000;stroke-width:0.5;"/>
      </defs>
      <g>
       <use style="stroke:#000000;stroke-width:0.5;" x="72.0" xlink:href="#m728421d6d4" y="388.8"/>
      </g>
     </g>
     <g id="line2d_24">
      <defs>
       <path d="
M0 0
L-4 0" id="mcb0005524f" style="stroke:#000000;stroke-width:0.5;"/>
      </defs>
      <g>
       <use style="stroke:#000000;stroke-width:0.5;" x="518.4" xlink:href="#mcb0005524f" y="388.8"/>
      </g>
     </g>
     <g id="text_11">
      <!-- 0 -->
      <g transform="translate(61.953125 392.11125)scale(0.12 -0.12)">
       <use xlink:href="#DejaVuSans-30"/>
      </g>
     </g>
    </g>
    <g id="ytick_2">
     <g id="line2d_25">
      <g>
       <use style="stroke:#000000;stroke-width:0.5;" x="72.0" xlink:href="#m728421d6d4" y="350.4"/>
      </g>
     </g>
     <g id="line2d_26">
      <g>
       <use style="stroke:#000000;stroke-width:0.5;" x="518.4" xlink:href="#mcb0005524f" y="350.4"/>
      </g>
     </g>
     <g id="text_12">
      <!-- 500 -->
      <g transform="translate(46.818125 353.71125)scale(0.12 -0.12)">
       <use xlink:href="#DejaVuSans-35"/>
       <use x="63.623046875" xlink:href="#DejaVuSans-30"/>
       <use x="127.24609375" xlink:href="#DejaVuSans-30"/>
      </g>
     </g>
    </g>
    <g id="ytick_3">
     <g id="line2d_27">
      <g>
       <use style="stroke:#000000;stroke-width:0.5;" x="72.0" xlink:href="#m728421d6d4" y="312.0"/>
      </g>
     </g>
     <g id="line2d_28">
      <g>
       <use style="stroke:#000000;stroke-width:0.5;" x="518.4" xlink:href="#mcb0005524f" y="312.0"/>
      </g>
     </g>
     <g id="text_13">
      <!-- 1000 -->
      <g transform="translate(39.575 315.31125)scale(0.12 -0.12)">
       <use xlink:href="#DejaVuSans-31"/>
       <use x="63.623046875" xlink:href="#DejaVuSans-30"/>
       <use x="127.24609375" xlink:href="#DejaVuSans-30"/>
       <use x="190.869140625" xlink:href="#DejaVuSans-30"/>
      </g>
     </g>
    </g>
    <g id="ytick_4">
     <g id="line2d_29">
      <g>
       <use style="stroke:#000000;stroke-width:0.5;" x="72.0" xlink:href="#m728421d6d4" y="273.6"/>
      </g>
     </g>
     <g id="line2d_30">
      <g>
       <use style="stroke:#000000;stroke-width:0.5;" x="518.4" xlink:href="#mcb0005524f" y="273.6"/>
      </g>
     </g>
     <g id="text_14">
      <!-- 1500 -->
      <g transform="translate(39.575 276.91125)scale(0.12 -0.12)">
       <use xlink:href="#DejaVuSans-31"/>
       <use x="63.623046875" xlink:href="#DejaVuSans-35"/>
       <use x="127.24609375" xlink:href="#DejaVuSans-30"/>
       <use x="190.869140625" xlink:href="#DejaVuSans-30"/>
      </g>
     </g>
    </g>
    <g id="ytick_5">
     <g id="line2d_31">
      <g>
       <use style="stroke:#000000;stroke-width:0.5;" x="72.0" xlink:href="#m728421d6d4" y="235.2"/>
      </g>
     </g>
     <g id="line2d_32">
      <g>
       <use style="stroke:#000000;stroke-width:0.5;" x="518.4" xlink:href="#mcb0005524f" y="235.2"/>
      </g>
     </g>
     <g id="text_15">
      <!-- 2000 -->
      <g transform="translate(39.13625 238.51125)scale(0.12 -0.12)">
       <use xlink:href="#DejaVuSans-32"/>
       <use x="63.623046875" xlink:href="#DejaVuSans-30"/>
       <use x="127.24609375" xlink:href="#DejaVuSans-30"/>
       <use x="190.869140625" xlink:href="#DejaVuSans-30"/>
      </g>
     </g>
    </g>
    <g id="ytick_6">
     <g id="line2d_33">
      <g>
       <use style="stroke:#000000;stroke-width:0.5;" x="72.0" xlink:href="#m728421d6d4" y="196.8"/>
      </g>
     </g>
     <g id="line2d_34">
      <g>
       <use style="stroke:#000000;stroke-width:0.5;" x="518.4" xlink:href="#mcb0005524f" y="196.8"/>
      </g>
     </g>
     <g id="text_16">
      <!-- 2500 -->
      <g transform="translate(39.13625 200.11125)scale(0.12 -0.12)">
       <use xlink:href="#DejaVuSans-32"/>
       <use x="63.623046875" xlink:href="#DejaVuSans-35"/>
       <use x="127.24609375" xlink:href="#DejaVuSans-30"/>
       <use x="190.869140625" xlink:href="#DejaVuSans-30"/>
      </g>
     </g>
    </g>
    <g id="ytick_7">
     <g id="line2d_35">
      <g>
       <use style="stroke:#000000;stroke-width:0.5;" x="72.0" xlink:href="#m728421d6d4" y="158.4"/>
      </g>
     </g>
     <g id="line2d_36">
      <g>
       <use style="stroke:#000000;stroke-width:0.5;" x="518.4" xlink:href="#mcb0005524f" y="158.4"/>
      </g>
     </g>
     <g id="text_17">
      <!-- 3000 -->
      <g transform="translate(39.171875 161.71125)scale(0.12 -0.12)">
       <use xlink:href="#DejaVuSans-33"/>
       <use x="63.623046875" xlink:href="#DejaVuSans-30"/>
       <use x="127.24609375" xlink:href="#DejaVuSans-30"/>
       <use x="190.869140625" xlink:href="#DejaVuSans-30"/>
      </g>
     </g>
    </g>
    <g id="ytick_8">
     <g id="line2d_37">
      <g>
       <use style="stroke:#000000;stroke-width:0.5;" x="72.0" xlink:href="#m728421d6d4" y="120.0"/>
      </g>
     </g>
     <g id="line2d_38">
      <g>
       <use style="stroke:#000000;stroke-width:0.5;" x="518.4" xlink:href="#mcb0005524f" y="120.0"/>
      </g>
     </g>
     <g id="text_18">
      <!-- 3500 -->
      <g transform="translate(39.171875 123.31125)scale(0.12 -0.12)">
       <use xlink:href="#DejaVuSans-33"/>
       <use x="63.623046875" xlink:href="#DejaVuSans-35"/>
       <use x="127.24609375" xlink:href="#DejaVuSans-30"/>
       <use x="190.869140625" xlink:href="#DejaVuSans-30"/>
      </g>
     </g>
    </g>
    <g id="ytick_9">
     <g id="line2d_39">
      <g>
       <use style="stroke:#000000;stroke-width:0.5;" x="72.0" xlink:href="#m728421d6d4" y="81.6"/>
      </g>
     </g>
     <g id="line2d_40">
      <g>
       <use style="stroke:#000000;stroke-width:0.5;" x="518.4" xlink:href="#mcb0005524f" y="81.6"/>
      </g>
     </g>
     <g id="text_19">
      <!-- 4000 -->
      <g transform="translate(38.84375 84.91125)scale(0.12 -0.12)">
       <use xlink:href="#DejaVuSans-34"/>
       <use x="63.623046875" xlink:href="#DejaVuSans-30"/>
       <use x="127.24609375" xlink:href="#DejaVuSans-30"/>
       <use x="190.869140625" xlink:href="#DejaVuSans-30"/>
      </g>
     </g>
    </g>
    <g id="ytick_10">
     <g id="line2d_41">
      <g>
       <use style="stroke:#000000;stroke-width:0.5;" x="72.0" xlink:href="#m728421d6d4" y="43.2"/>
      </g>
     </g>
     <g id="line2d_42">
      <g>
       <use style="stroke:#000000;stroke-width:0.5;" x="518.4" xlink:href="#mcb0005524f" y="43.2"/>
      </g>
     </g>
     <g id="text_20">
      <!-- 4500 -->
      <g transform="translate(38.84375 46.51125)scale(0.12 -0.12)">
       <use xlink:href="#DejaVuSans-34"/>
       <use x="63.623046875" xlink:href="#DejaVuSans-35"/>
       <use x="127.24609375" xlink:href="#DejaVuSans-30"/>
       <use x="190.869140625" xlink:href="#DejaVuSans-30"/>
      </g>
     </g>
    </g>
   </g>
   <g id="patch_3">
    <path d="
M72 43.2
L518.4 43.2" style="fill:none;stroke:#000000;"/>
   </g>
   <g id="patch_4">
    <path d="
M518.4 388.8
L518.4 43.2" style="fill:none;stroke:#000000;"/>
   </g>
   <g id="patch_5">
    <path d="
M72 388.8
L518.4 388.8" style="fill:none;stroke:#000000;"/>
   </g>
   <g id="patch_6">
    <path d="
M72 388.8
L72 43.2" style="fill:none;stroke:#000000;"/>
   </g>
  </g>
 </g>
 <defs>
  <clipPath id="p7ff5b81e1d">
   <rect height="345.6" width="446.4" x="72.0" y="43.2"/>
  </clipPath>
 </defs>
</svg>
