<?xml version="1.0" encoding="utf-8" standalone="no"?>
<!DOCTYPE svg PUBLIC "-//W3C//DTD SVG 1.1//EN"
  "http://www.w3.org/Graphics/SVG/1.1/DTD/svg11.dtd">
<!-- Created with matplotlib (http://matplotlib.org/) -->
<svg height="432pt" version="1.1" viewBox="0 0 576 432" width="576pt" xmlns="http://www.w3.org/2000/svg" xmlns:xlink="http://www.w3.org/1999/xlink">
 <defs>
  <style type="text/css">
*{stroke-linecap:butt;stroke-linejoin:round;}
  </style>
 </defs>
 <g id="figure_1">
  <g id="patch_1">
   <path d="
M0 432
L576 432
L576 0
L0 0
z
" style="fill:#ffffff;"/>
  </g>
  <g id="axes_1">
   <g id="patch_2">
    <path d="
M72 388.8
L518.4 388.8
L518.4 43.2
L72 43.2
z
" style="fill:#ffffff;"/>
   </g>
   <g id="line2d_1">
    <path clip-path="url(#p7ff5b81e1d)" d="
M72 250.615
L72.0473 197.91
L72.0473 197.91
L72.0473 197.91
L72.0606 211.298
L72.0606 211.298
L72.0606 211.298
L72.0581 58.2598
L72.5255 242.169
L72.7379 249.255
L72.75 226.637
L73.172 217.119
L73.9551 236.219
L73.9551 219.642
L74.3672 234.78
L75.0448 244.578
L75.0448 231.254
L75.2055 225.292
L75.2055 212.539
L75.6862 216.136
L76.1241 216.23
L76.221 186.595
L76.6436 186.12
L77.0475 168.49
L77.5356 171.513
L78.3961 174.225
L78.4183 160.799
L78.7244 158.279
L79.3426 163.623
L79.7145 159.357
L79.7659 152.831
L83.0111 194.493
L83.1016 190.615
L84.3101 191.39
L85.7378 199.103
L86.7796 201.137
L87.5763 202.156
L89.3449 211.881
L90.7831 218.862
L91.1088 219.222
L91.728 221.957
L91.9722 219.877
L93.5602 225.245
L93.5777 221.334
L95.6991 230.064
L96.3526 228.667
L96.9896 229.718
L97.0991 223.98
L97.6897 224.89
L98.0241 224.669
L98.5518 225.102
L98.8519 222.95
L99.9382 222.806
L100.421 221.932
L100.987 223.317
L103.124 226.081
L104.145 226.149
L105.027 226.603
L105.027 219.675
L106.427 222.984
L109.162 235.432
L109.162 229.255
L109.5 227.619
L109.622 224.862
L110.549 227.018
L111.004 226.502
L111.01 224.34
L112.798 222.642
L112.814 220.431
L113.75 221.347
L114.125 220.258
L114.662 219.189
L114.668 217.301
L115.251 215.942
L115.729 215.593
L116.142 214.448
L116.142 211.743
L116.522 211.428
L116.522 208.734
L117.245 209.643
L117.361 205.438
L117.868 204.381
L118.774 205.166
L119.681 207.153
L119.683 205.287
L120.182 205.061
L120.182 202.66
L120.421 198.956
L120.636 199.275
L122.622 204.552
L124.591 212.561
L124.64 208.951
L125.025 209.512
L125.206 208.263
L127.727 212.583
L127.73 210.712
L128.239 215.09
L128.301 210.219
L128.49 210.878
L128.633 209.739
L128.727 210.06
L128.756 208.698
L129.111 208.938
L130.091 211.523
L130.182 209.349
L130.644 211.613
L130.701 208.862
L130.929 208.239
L130.964 207.033
L131.119 206.835
L131.487 204.459
L131.912 207.618
L131.968 204.486
L132.283 204.609
L132.379 203.728
L132.721 203.714
L132.859 204.04
L133.341 205.877
L134.276 210.498
L134.725 210.551
L134.806 209.512
L135.09 209.85
L135.666 212.042
L136.499 213.912
L137.925 215.492
L137.993 214.825
L138.015 213.317
L138.344 212.835
L138.344 211.322
L138.535 211.266
L138.598 209.795
L138.891 211.032
L138.902 208.484
L139.161 208.786
L140.046 210.842
L140.142 210.141
L142.134 217.344
L142.359 216.811
L142.359 215.417
L142.569 215.836
L142.889 215.896
L142.93 215.191
L143.353 215.978
L143.372 214.954
L143.699 215.433
L145.239 220.936
L145.62 220.541
L146.046 220.623
L146.478 221.211
L146.892 221.329
L147.369 221.205
L148.045 223.358
L148.051 222.42
L149.095 224.96
L149.383 224.993
L149.489 224.594
L150.791 227.772
L150.869 225.947
L151.069 225.085
L152.079 227.411
L152.639 227.82
L152.913 227.115
L153.579 229.114
L153.756 228.099
L153.987 228.07
L154.3 227.614
L155.218 229.665
L155.289 226.879
L155.608 226.416
L155.613 225.338
L155.777 225.132
L155.789 223.008
L156.552 223.491
L156.606 222.634
L157.898 226.211
L158.057 225.752
L158.891 226.935
L160.733 229.792
L160.829 229.359
L161.297 229.97
L161.743 230.203
L163.506 233.018
L163.558 231.336
L164.093 231.602
L165.32 234.107
L165.382 232.425
L167.27 234.742
L167.271 233.839
L167.468 233.296
L168.007 233.561
L169.488 235.539
L169.793 234.786
L169.817 233.052
L170.136 232.816
L170.283 231.509
L170.824 231.009
L171.603 232.067
L172.141 231.902
L172.146 230.163
L172.55 230.402
L172.905 230.072
L173.979 231.89
L173.979 231.004
L174.566 230.47
L174.566 229.612
L175.266 230.104
L175.37 229.592
L176.751 231.9
L176.762 231.082
L177.971 233.873
L178.404 234.256
L178.64 234.16
L178.895 233.729
L179.547 234.672
L179.608 234.005
L179.876 233.866
L180.238 233.878
L180.993 235.142
L181.176 233.816
L181.176 233.008
L181.338 232.814
L181.338 231.996
L181.572 231.579
L181.591 230.807
L182.286 232.052
L182.958 232.552
L183.177 232.535
L183.463 232.272
L184.825 235.064
L184.901 234.54
L186.296 237.032
L186.417 236.676
L188.892 239.46
L188.992 238.285
L189.526 238.523
L190.145 239.317
L190.321 238.945
L190.75 239.217
L190.959 239.052
L191.183 238.605
L191.779 239.297
L192.674 240.61
L193.555 241.532
L193.66 240.994
L194.141 240.367
L194.241 238.657
L194.503 238.429
L194.565 237.19
L194.903 237.091
L195.756 238.364
L195.965 237.703
L196.191 237.272
L196.208 236.152
L196.382 235.997
L196.541 235.642
L196.666 235.032
L196.666 234.346
L196.88 234.342
L196.923 233.145
L197.418 232.784
L198.025 233.1
L198.026 232.542
L198.236 232.254
L198.561 232.282
L198.818 232.161
L198.941 231.568
L199.879 233.06
L199.879 232.4
L200.023 232.248
L200.438 232.722
L200.476 232.199
L200.635 232.035
L200.772 231.498
L201.071 231.536
L201.747 232.141
L201.757 231.502
L202.381 232.44
L202.606 231.287
L203.529 232.591
L203.529 231.947
L203.674 231.684
L203.969 229.604
L204.215 229.644
L204.215 229.006
L204.467 228.84
L205.627 230.068
L206.72 230.69
L206.844 230.503
L208.097 231.279
L208.349 231.258
L208.349 230.649
L208.702 230.58
L208.859 230.366
L209.226 230.64
L209.926 231.582
L209.926 230.976
L210.05 230.681
L210.05 230.078
L212.474 233.499
L212.698 233.141
L213.636 233.991
L214.107 234.171
L214.107 233.115
L214.498 232.945
L214.639 232.745
L215.942 235.056
L216.856 236.012
L217.059 235.94
L217.375 236.067
L217.394 235.541
L217.785 235.729
L218.232 236.324
L218.309 235.957
L218.718 235.903
L218.818 235.668
L219.085 235.492
L219.237 234.866
L220.595 235.671
L220.663 235.427
L221.452 234.973
L221.49 233.946
L221.881 234.061
L222.3 233.894
L222.3 233.353
L222.528 233.16
L223.843 235.421
L224.234 235.367
L224.358 234.565
L224.592 234.328
L225.005 234.425
L225.249 234.299
L225.467 234.35
L225.696 234.152
L225.796 233.776
L226.096 233.576
L227.554 235.523
L227.554 235.009
L227.909 234.856
L228.454 235.148
L228.454 234.634
L229.464 235.946
L229.576 235.479
L229.816 235.173
L230.702 235.49
L231.712 236.74
L231.936 236.43
L231.95 235.984
L232.888 236.73
L232.888 236.231
L233.017 235.914
L233.098 233.745
L233.364 233.479
L233.52 232.848
L233.966 233.135
L234.905 234.229
L235.146 234.1
L235.165 233.632
L235.541 233.839
L235.622 233.482
L236.079 233.689
L236.291 232.693
L236.755 232.7
L237.842 233.164
L238.042 232.989
L238.099 230.871
L238.4 230.844
L240.323 233.224
L240.59 233.024
L240.657 232.662
L240.847 232.591
L241.023 232.346
L241.336 231.116
L242.062 231.297
L242.062 230.829
L242.414 230.916
L242.709 230.764
L242.709 230.443
L243.114 230.468
L244.515 231.286
L245.006 231.409
L245.158 230.58
L245.748 230.949
L247.43 233.018
L247.73 233.133
L247.734 232.7
L248.211 232.945
L248.335 232.522
L248.914 232.579
L249.177 232.485
L249.177 232.047
L249.73 232.437
L249.982 232.371
L249.982 231.929
L250.621 232.265
L250.84 231.434
L251.221 231.387
L251.353 231.143
L251.683 231.072
L253.236 232.893
L253.874 233.334
L253.978 232.584
L254.583 233.33
L255.208 233.812
L255.208 233.387
L255.508 233.873
L255.522 233.477
L255.765 233.278
L255.979 232.666
L255.997 231.917
L256.584 232.535
L256.732 232.369
L257.341 232.424
L257.35 231.722
L257.503 231.427
L258.213 231.983
L258.297 231.08
L258.508 230.876
L259.579 232.05
L260.08 232.229
L260.766 232.688
L260.999 232.66
L261.657 233.213
L261.937 233.203
L262.119 232.952
L262.714 233.306
L262.762 232.563
L263.052 232.59
L263.567 232.913
L264.165 233.42
L264.17 233.132
L265.101 233.741
L265.101 233.342
L265.491 233.529
L266.421 234.219
L266.421 233.902
L266.953 234.397
L267.396 234.199
L267.396 233.808
L268.735 234.765
L268.796 234.569
L268.796 233.789
L270.522 235.477
L271.064 235.83
L271.411 235.907
L273.345 237.712
L273.512 237.554
L274.207 238.052
L274.403 237.909
L274.664 237.2
L275.207 237.662
L275.341 237.428
L276.005 237.653
L276.27 237.769
L276.322 237.096
L276.835 237.561
L277.465 237.953
L279.175 239.486
L279.724 239.807
L280.575 239.867
L280.612 239.302
L281.052 239.584
L281.08 238.987
L281.385 239
L281.509 238.752
L282.485 238.446
L282.843 238.481
L282.9 237.871
L283.243 237.93
L283.29 237.646
L283.614 237.683
L283.719 237.474
L283.738 237.158
L284.552 237.346
L284.672 236.856
L284.91 236.758
L285.124 235.688
L285.486 235.677
L285.657 235.516
L285.696 235.283
L286.367 235.546
L286.486 235.033
L286.486 234.693
L286.809 234.746
L286.915 234.567
L286.915 234.22
L287.896 235.048
L288.291 234.816
L289.68 236.244
L290.659 236.646
L291.065 236.74
L291.521 236.547
L292.935 237.469
L293.435 237.432
L293.712 237.344
L293.897 236.833
L294.112 236.646
L294.598 236.93
L295.083 236.663
L295.307 236.38
L295.307 236.048
L295.522 235.897
L295.717 235.45
L296.493 235.853
L296.855 235.83
L296.889 235.538
L297.708 235.522
L297.841 235.049
L298.184 234.997
L298.208 234.701
L298.494 234.44
L300.07 234.448
L300.085 233.818
L300.509 233.943
L301.09 233.814
L301.09 233.498
L301.235 233.221
L301.235 232.908
L302.142 233.55
L302.17 233.297
L302.371 233.169
L302.457 232.915
L302.776 232.772
L302.804 232.494
L303.056 232.126
L303.061 231.809
L303.395 231.611
L303.481 231.353
L303.771 231.342
L303.776 230.707
L304.128 230.786
L304.171 230.518
L304.619 230.587
L305.972 231.33
L306.067 230.496
L306.591 230.134
L307.429 230.512
L307.481 230.281
L308.963 231.307
L309.002 231.052
L309.649 231.083
L309.923 230.707
L310.53 230.925
L310.763 230.622
L311.306 230.853
L311.478 230.644
L311.525 230.41
L311.759 230.393
L312.587 230.731
L312.826 230.642
L313.026 229.804
L313.05 229.581
L313.983 230.329
L314.231 230.188
L314.259 229.636
L314.755 229.825
L315.345 229.694
L315.374 229.434
L315.998 229.157
L316.084 228.722
L316.284 228.546
L316.296 228.275
L316.588 228.381
L316.669 228.192
L316.669 227.893
L316.784 227.718
L317.455 228.043
L317.508 227.872
L318.573 228.405
L318.751 228.175
L319.003 228.356
L319.53 228.369
L319.923 228.765
L320.118 228.642
L322.18 230.585
L322.19 230.323
L323.161 230.962
L323.457 230.952
L323.581 230.813
L323.581 230.524
L324.747 230.968
L325.2 231.321
L325.257 231.146
L326.796 232.453
L326.843 232.308
L327.115 232.268
L327.234 232.134
L327.234 231.85
L327.448 231.795
L328.02 232.139
L328.199 232.042
L328.222 231.562
L328.839 231.992
L328.929 231.355
L328.996 230.898
L329.296 230.883
L329.787 231.122
L329.941 230.785
L330.211 230.779
L330.319 230.628
L331.249 231.134
L331.406 230.281
L332.135 230.485
L332.251 230.367
L332.688 230.652
L332.688 230.377
L333.078 229.813
L333.116 229.346
L333.435 229.588
L333.692 229.507
L333.702 228.728
L333.983 228.807
L334.034 228.679
L335.009 229.833
L335.826 230.452
L335.893 230.3
L335.898 230.062
L336.179 230.136
L336.179 229.871
L336.622 230.318
L336.783 230.276
L336.783 230.011
L337.822 230.521
L337.906 229.986
L337.998 229.9
L338.003 229.644
L338.579 230.272
L339.422 230.807
L339.529 230.335
L340.442 231.001
L340.689 230.934
L340.989 231.113
L340.989 230.602
L341.47 231.196
L341.761 231.27
L341.804 231.09
L343.175 232.367
L343.495 232.361
L343.518 232.179
L343.999 232.527
L344.019 232.084
L344.614 232.504
L345.147 233.054
L346.024 233.131
L346.033 232.889
L346.333 232.517
L346.333 231.76
L346.452 231.625
L346.8 231.737
L347.681 232.477
L347.786 231.632
L348.105 231.7
L348.243 231.591
L348.347 231.196
L348.562 231.101
L348.562 230.856
L350.377 232.498
L350.601 231.921
L350.796 231.937
L350.83 231.735
L351.425 232.063
L351.435 231.881
L351.777 232.024
L353.281 233.277
L353.616 233.312
L353.616 233.074
L353.949 232.95
L354.454 233.227
L354.659 232.971
L355.069 233.199
L355.121 232.595
L355.859 233.152
L356.993 233.672
L357.026 233.005
L357.374 232.926
L357.374 232.687
L357.669 232.67
L357.726 232.307
L358.15 232.172
L359.108 232.561
L359.108 232.334
L359.498 232.401
L359.513 232.175
L360.659 232.95
L360.659 232.717
L361.099 232.741
L362.447 233.486
L362.642 233.304
L362.642 233.072
L363.207 233.597
L363.3 233.463
L363.865 233.801
L364.13 233.833
L364.257 232.844
L364.514 232.833
L364.563 232.448
L365.033 232.756
L365.052 232.579
L365.59 233.013
L365.943 232.972
L365.943 232.747
L366.395 233.079
L366.471 232.964
L366.557 232.438
L366.976 232.762
L366.995 232.571
L367.948 233.191
L368.181 233.128
L368.353 232.926
L368.753 233.097
L368.758 232.873
L369.329 233.484
L369.801 233.575
L369.977 233.417
L370.891 234.121
L370.891 233.901
L371.039 233.924
L371.887 234.471
L371.992 233.967
L372.344 234.096
L372.397 233.959
L372.539 233.954
L372.954 234.156
L373.325 234.031
L373.683 234.212
L373.716 233.381
L375.011 234.242
L375.259 234.332
L375.54 234.285
L376.369 235.082
L376.502 234.871
L376.531 234.69
L376.664 234.624
L376.678 234.435
L376.845 234.081
L377.898 235.042
L378.198 235.043
L378.898 235.346
L378.922 235.166
L379.703 235.599
L379.736 235.229
L380.608 235.734
L380.679 235.422
L380.989 235.509
L381.551 235.987
L381.656 235.898
L382.323 236.201
L382.342 236.022
L382.98 236.481
L383.455 236.483
L383.485 235.913
L384.41 236.732
L384.842 236.783
L385.09 236.601
L385.785 236.786
L385.819 236.395
L386.014 236.279
L386.505 236.249
L386.566 235.875
L387.505 236.183
L388.38 236.04
L388.88 236.212
L389.158 236.121
L389.296 235.475
L389.458 235.437
L389.891 235.462
L391.191 235.959
L391.191 235.759
L392.625 236.223
L393.025 236.041
L393.306 235.965
L394.473 236.604
L394.473 236.406
L395.321 236.747
L395.383 236.642
L395.659 236.563
L395.702 236.184
L397.664 237.137
L397.983 237.095
L398.549 237.352
L398.845 237.317
L398.974 237.184
L398.993 236.999
L399.45 237.049
L399.822 236.834
L399.974 236.597
L401.052 236.93
L401.16 236.622
L401.738 236.779
L401.764 236.619
L401.967 236.472
L403.637 236.998
L403.929 236.916
L404.526 237.027
L404.532 236.834
L405.462 237.157
L405.765 237.11
L407.219 237.719
L407.219 237.523
L407.695 237.426
L407.759 236.706
L408.146 236.127
L408.171 235.962
L409.105 236.287
L409.105 236.093
L409.353 235.964
L409.823 236.014
L409.962 235.715
L410.445 235.708
L410.496 235.555
L412.503 236.117
L412.661 236.042
L412.68 235.85
L413.697 235.735
L413.697 235.553
L413.951 235.476
L414.097 235.229
L414.452 235.16
L415.424 235.508
L415.678 235.41
L415.968 235.44
L417.291 235.819
L418.561 235.835
L418.739 235.603
L420.054 235.651
L420.987 235.828
L421.178 235.512
L421.717 235.726
L421.775 235.602
L422.098 235.595
L422.098 235.407
L422.283 235.387
L423.146 235.744
L423.28 235.47
L423.527 235.392
L423.559 235.235
L424.137 235.328
L424.201 234.83
L424.69 235.036
L425.064 234.841
L425.096 234.685
L425.534 234.564
L426.341 234.912
L426.798 234.485
L427.242 234.588
L428.303 235.219
L428.633 235.24
L429.643 235.726
L431.224 236.028
L431.358 235.8
L431.745 235.728
L432.272 235.975
L432.393 235.779
L432.393 235.596
L432.825 235.72
L432.876 235.606
L433.199 235.606
L434.425 236.43
L434.508 235.593
L434.66 235.25
L434.914 235.198
L434.927 235.033
L435.905 235.553
L435.924 235.4
L436.311 235.441
L436.908 235.74
L436.965 235.461
L437.194 235.403
L437.194 235.226
L437.473 235.125
L437.486 234.963
L437.626 234.845
L438.401 234.99
L438.401 234.816
L438.845 234.725
L439.194 234.753
L439.29 234.383
L439.525 234.358
L439.525 234.015
L440.471 234.438
L440.852 234.349
L440.966 234.094
L441.15 233.909
L441.747 234.112
L441.747 233.945
L441.862 233.929
L442.281 234.038
L442.306 233.378
L442.44 233.413
L442.44 233.245
L442.725 233.032
L442.808 232.784
L443.894 233.159
L444.751 233.318
L445.05 233.299
L445.05 233.127
L445.189 233.065
L445.196 232.9
L446.167 232.883
L446.32 232.726
L446.618 232.955
L446.803 232.839
L446.815 232.512
L447.063 232.572
L447.26 232.462
L447.457 232.569
L447.527 232.303
L447.717 232.269
L447.787 232.044
L447.92 232.039
L447.92 231.87
L448.181 231.821
L448.428 231.959
L448.466 231.475
L448.714 231.427
L448.822 231.186
L449.679 231.454
L449.679 231.282
L450.022 231.167
L450.022 230.998
L450.702 231.329
L450.962 231.167
L451.077 230.963
L452.118 231.295
L452.328 231.213
L452.855 231.442
L453.49 231.866
L453.49 231.705
L453.826 231.617
L454.106 231.609
L454.214 231.396
L454.258 231.273
L454.627 231.346
L455.763 232.045
L455.941 231.944
L456.208 232.095
L456.906 231.802
L457.122 231.95
L457.122 231.784
L457.503 231.745
L457.522 231.457
L458.367 231.375
L458.473 231.145
L458.958 231.32
L459.18 231.272
L459.39 231.343
L460.298 231.908
L460.603 231.883
L460.965 231.999
L461.098 231.789
L461.473 231.817
L461.511 231.688
L461.892 231.799
L462.006 231.59
L462.462 231.653
L462.489 231.529
L465.175 232.008
L465.372 231.586
L466.032 231.746
L466.21 231.576
L466.229 231.447
L466.547 231.51
L466.648 231.292
L466.699 231.041
L467.582 231.337
L467.658 231.122
L467.83 231.009
L467.893 230.746
L468.414 230.855
L468.579 230.895
L470.11 231.543
L470.599 231.635
L470.637 231.516
L471.227 231.643
L471.278 231.524
L472.701 232.305
L472.847 232.169
L472.91 231.772
L473.304 231.866
L473.329 231.583
L473.59 231.527
L474.428 231.864
L474.849 232.278
L474.893 232.207
L474.961 231.878
L475.165 231.835
L475.177 231.706
L475.362 231.844
L475.398 231.574
L475.577 231.494
L475.825 231.609
L475.889 231.357
L475.889 231.202
L476.225 231.123
L476.263 230.684
L477.267 231.189
L477.521 231.087
L477.641 231.075
L478.848 231.379
L479.07 231.152
L479.743 231.263
L479.902 231.259
L480.182 231.25
L481.357 231.904
L481.522 231.794
L481.846 231.993
L482.182 231.587
L482.932 232.011
L482.938 231.874
L483.554 232.214
L483.573 232.076
L484.524 232.443
L484.818 232.299
L486.215 232.683
L486.297 232.166
L486.367 232.106
L486.818 232.419
L486.856 232.316
L487.04 232.228
L487.669 232.512
L487.942 232.45
L488.222 232.559
L488.222 232.411
L488.457 232.34
L488.463 232.199
L490.273 232.579
L490.33 232.187
L491.803 232.725
L492.064 232.706
L492.775 232.805
L492.781 232.512
L493.004 232.443
L493.004 232.297
L493.277 232.432
L493.277 232.285
L494.325 232.398
L495.049 232.6
L495.334 232.422
L495.436 232.334
L496.668 232.868
L496.719 232.625
L497.551 232.878
L497.557 232.735
L497.779 232.74
L497.798 232.601
L498.078 232.604
L498.23 232.469
L498.275 232.372
L499.596 232.528
L499.875 232.374
L499.932 232.283
L500.471 232.378
L500.523 232.279
L502.784 233.132
L502.784 232.993
L503.133 232.938
L504.467 233.418
L504.556 233.205
L504.556 233.067
L504.911 233.086
L505.451 233.281
L505.553 232.686
L506.499 232.733
L506.531 232.628
L506.931 232.604
L507.007 232.517
L507.394 232.594
L507.394 232.315
L508.156 232.459
L508.169 232.33
L509.071 232.583
L509.56 232.705
L510.487 232.926
L510.512 232.815
L510.83 232.818
L511.764 233.064
L511.764 232.928
L513.224 233.484
L513.231 233.355
L513.72 233.274
L513.72 233.137
L514.247 233.356
L515.879 233.071
L516.552 233.395
L516.755 233.333
L516.787 233.078
L517.041 233.161
L517.041 233.024
L517.289 232.995
L517.295 232.868
L517.917 233.055
L517.968 232.958
L518.197 232.907
L518.197 232.774
L518.197 232.774" style="fill:none;stroke:#ff0000;stroke-linecap:square;"/>
   </g>
   <g id="line2d_2">
    <path clip-path="url(#p7ff5b81e1d)" d="
M72.0489 330.551
L72.5449 381.652
L72.7125 355.087
L73.0183 352.681
L73.0183 329.279
L73.3638 316.563
L76.1578 366.152
L77.0805 351.169
L77.3603 343.315
L77.3781 323.572
L77.541 314.383
L78.9327 319.731
L79.7088 315.61
L80.3521 313.044
L82.1439 322.926
L82.8117 318.835
L82.9136 312.506
L86.6716 323.286
L87.8265 323.894
L90.3274 326.884
L92.861 335.921
L94.2496 335.907
L97.2712 338.02
L101.405 346.723
L101.784 343.535
L103.221 341.841
L103.628 339.071
L104.474 337.284
L109.548 346.405
L113.75 352.287
L113.75 349.655
L114.668 348.613
L115.122 346.276
L116.745 346.614
L119.681 349.488
L120.632 349.496
L123.674 352.188
L124.28 351.939
L127.046 353.961
L127.759 353.847
L127.954 346.819
L128.658 348.787
L128.755 347.65
L129.087 347.385
L130.153 347.979
L130.545 347.228
L130.645 346.106
L131.578 348.257
L132.897 350.571
L133.421 350.358
L133.463 348.925
L134.168 347.124
L134.613 346.799
L134.7 345.594
L135.667 346.883
L135.793 345.566
L136.07 344.584
L136.888 344.151
L137.918 344.051
L139.337 346.837
L140.277 347.001
L140.277 345.556
L142.449 348.025
L142.827 347.581
L144.53 349.767
L144.777 348.996
L144.867 347.945
L144.954 345.522
L145.305 345.037
L146.125 344.844
L149.227 349.965
L149.881 350.07
L151.069 350.534
L151.117 349.502
L151.331 348.872
L155.118 352.862
L157.304 354.729
L157.914 354.543
L159.811 355.486
L160.215 354.716
L161.519 355.275
L161.832 354.792
L162.105 354.143
L162.784 353.722
L165.311 355.406
L165.32 354.445
L166.511 354.461
L166.605 352.747
L166.954 352.139
L167.191 351.486
L167.191 350.531
L168.345 350.679
L169.1 350.508
L169.817 350.01
L170.412 349.853
L170.763 349.256
L173.132 350.826
L173.132 349.93
L174.427 350.252
L174.97 349.095
L177.29 350.812
L178.533 351.541
L180.786 353.2
L180.924 352.585
L181.331 352.275
L181.605 351.692
L182.529 351.932
L182.86 351.493
L183.453 351.297
L183.629 350.841
L183.658 350.085
L185.452 351.337
L186.292 351.365
L187.263 351.631
L188.168 351.706
L188.483 351.196
L189.345 351.24
L190.288 351.49
L190.564 351.212
L192.122 351.917
L193.584 351.894
L193.665 351.224
L195.099 351.918
L196.683 352.968
L196.88 351.772
L197.781 351.893
L197.891 351.319
L198.261 350.949
L198.372 350.351
L200.317 351.72
L200.433 351.196
L201.237 350.647
L201.848 350.561
L203.353 350.669
L203.67 350.32
L203.724 349.726
L204.124 348.799
L204.129 348.165
L205.51 348.871
L206.544 349.1
L206.947 348.883
L206.997 348.304
L207.274 347.866
L207.392 347.35
L209.016 348.016
L209.191 347.654
L210.631 348.525
L211.321 348.351
L211.398 347.827
L211.998 347.833
L212.031 347.292
L215.17 348.544
L215.46 348.136
L215.578 347.194
L215.651 346.151
L215.913 345.88
L215.98 345.397
L218.866 347.552
L219.135 347.144
L219.209 346.663
L220.25 346.903
L220.25 346.392
L220.966 346.382
L222.057 346.819
L222.891 346.523
L224.372 347.204
L224.815 346.477
L224.834 345.975
L227.909 347.93
L228.468 347.788
L229.257 347.975
L229.469 347.612
L232.788 348.291
L233.966 348.673
L234.275 348.385
L236.013 349.329
L236.584 349.172
L238.098 349.684
L240.282 350.682
L241.181 350.855
L242.709 351.506
L243.192 351.326
L244.386 351.161
L247.949 352.508
L248.887 352.664
L248.914 352.264
L249.241 351.996
L249.241 351.61
L249.982 351.538
L250.035 351.21
L251.654 351.693
L252.074 351.525
L255.46 353.441
L256.36 353.368
L258.099 354.05
L258.856 354.079
L260.064 354.365
L263.757 355.825
L263.757 355.422
L264 355.115
L264.495 355.071
L265.976 355.207
L270.825 357.366
L272.107 357.649
L272.859 357.613
L273.283 357.443
L275.846 358.612
L276.794 358.877
L277.017 358.635
L277.422 358.475
L279.594 359.394
L280.264 359.352
L281.08 359.535
L281.545 359.392
L281.899 358.844
L282.376 358.677
L282.928 358.643
L284.562 359.094
L286.915 359.914
L286.915 359.568
L287.753 359.63
L287.753 359.283
L287.939 359.035
L289.239 358.994
L289.359 358.412
L290.054 358.376
L290.192 357.778
L290.854 357.327
L291.402 357.259
L293.321 357.731
L293.626 357.182
L297.708 358.2
L297.87 357.967
L299.275 358.197
L299.437 357.984
L300.042 357.929
L300.051 357.611
L301.583 357.868
L302.342 357.572
L307.434 359.35
L308.058 359.316
L308.063 359.007
L308.244 358.718
L308.263 358.411
L308.753 358.255
L313.05 359.531
L313.502 359.418
L314.702 359.606
L315.15 359.529
L315.877 359.593
L316.079 359.386
L319.865 360.937
L320.808 361.073
L322.704 361.762
L323.157 361.676
L324.314 361.989
L326.1 361.949
L327.024 362.059
L327.315 361.946
L327.315 361.384
L327.448 361.126
L328.867 361.502
L328.901 361.258
L330.787 361.543
L331.554 361.321
L331.849 361.184
L332.973 361.432
L333.078 361.252
L333.078 360.98
L333.973 361.164
L334.593 360.767
L334.826 360.569
L335.998 361.038
L336.584 361.064
L336.886 360.735
L337.796 360.879
L338.541 361.118
L338.573 360.887
L340.461 361.303
L340.461 361.043
L341.471 361.105
L342.085 360.835
L343.452 361.163
L343.518 360.971
L345.295 361.343
L346.419 361.331
L346.643 361.131
L347.548 361.291
L347.605 361.076
L348.743 361.327
L349.258 360.823
L350.601 361.058
L350.601 360.816
L351.32 360.604
L352.735 360.968
L352.759 360.742
L353.068 360.564
L353.678 360.615
L354.454 359.713
L355.126 359.912
L355.652 359.925
L355.802 359.708
L356.093 359.579
L356.764 359.546
L357.403 359.632
L357.412 359.394
L359.203 359.186
L359.47 359.02
L360.237 359.122
L360.899 358.921
L360.918 358.696
L362.047 358.715
L362.451 358.373
L362.796 358.263
L363.254 358.26
L363.418 357.662
L364.066 357.753
L364.076 357.298
L364.619 357.095
L366.838 358.014
L367.867 358.3
L368.329 358.27
L369.291 358.543
L369.334 358.344
L369.796 357.888
L369.967 357.69
L369.986 357.253
L371.153 357.669
L372.511 358.027
L372.525 357.59
L372.892 357.518
L372.954 357.334
L373.463 357.341
L373.473 357.129
L374.273 357.03
L375.192 357.209
L375.207 356.995
L376.14 356.791
L376.383 356.652
L376.445 356.259
L377.326 356.483
L377.893 356.495
L378.203 356.374
L379.131 356.519
L379.246 356.358
L381.199 356.771
L383.385 357.584
L383.485 357.453
L383.775 357.356
L385.296 357.656
L385.296 357.448
L386.033 357.186
L386.552 357.064
L387.829 357.153
L388.475 356.701
L389.267 356.718
L391.044 356.931
L391.453 356.853
L391.601 356.684
L393.425 356.883
L393.949 356.825
L394.302 356.518
L395.783 356.538
L397.664 356.802
L397.664 356.602
L398.041 356.298
L399.831 356.363
L401.541 356.593
L402.234 356.552
L402.437 356.363
L404.952 355.877
L407.479 356.274
L407.714 356.177
L408.184 356.107
L410.515 356.012
L410.515 355.819
L412.147 355.844
L413.62 356.051
L413.62 355.859
L413.887 355.727
L417.52 356.412
L417.577 356.24
L418.949 356.035
L420.771 356.331
L420.943 356.007
L421.806 355.879
L421.914 355.356
L422.753 355.402
L424.924 355.765
L425.064 355.624
L430.367 356.574
L430.799 356.341
L430.869 355.829
L433.136 356.393
L433.199 356.241
L435.898 356.78
L437.213 357.009
L437.378 356.884
L438.775 357.165
L438.852 357.012
L439.271 356.802
L439.645 356.764
L439.645 356.587
L440.446 356.661
L440.49 356.322
L441.379 356.241
L442.922 356.474
L443.284 356.407
L444.097 356.467
L444.237 356.349
L446.618 356.611
L446.834 356.475
L448.225 356.823
L448.244 356.673
L448.619 356.616
L448.911 356.033
L449.679 356.095
L449.679 355.925
L450.251 355.941
L450.251 355.6
L450.753 355.411
L451.439 355.424
L451.54 354.817
L452.918 355.1
L452.918 354.931
L453.191 354.817
L453.191 354.65
L453.934 354.437
L454.112 354.303
L454.112 354.136
L455.293 354.24
L455.605 353.972
L456.106 354.026
L457.602 354.288
L458.475 354.22
L458.475 354.055
L458.97 353.873
L460.26 354.152
L460.323 353.85
L461.117 353.911
L461.244 353.79
L461.727 353.782
L461.727 353.619
L465.601 354.194
L465.601 354.039
L466.293 354.155
L466.718 353.969
L466.718 353.651
L467.804 353.797
L467.944 353.535
L467.944 353.376
L468.573 353.462
L468.763 353.328
L469.646 353.476
L469.928 352.964
L471.951 353.429
L471.951 353.273
L472.466 353.305
L472.548 353.024
L474.072 353.214
L474.072 353.059
L474.326 352.955
L474.326 352.8
L474.777 352.728
L475.87 353.112
L476.187 353.049
L476.784 353.161
L476.784 352.852
L477.889 353.09
L477.927 352.959
L478.892 352.988
L479.356 352.848
L479.362 352.696
L479.807 352.527
L479.877 352.142
L480.017 352.039
L481.846 352.348
L482.081 352.24
L482.481 352.227
L482.531 352.095
L483.541 352.146
L483.897 351.928
L485.275 352.064
L485.472 351.989
L486.335 352.1
L486.386 351.993
L487.993 352.103
L489.066 351.945
L489.073 351.511
L489.416 351.444
L490.736 351.677
L490.825 351.409
L491.892 351.58
L492.051 351.302
L493.486 351.311
L493.512 351.032
L497.684 351.066
L498.173 351.053
L498.218 350.925
L498.681 350.924
L500.955 351.466
L500.986 351.338
L501.228 351.235
L501.228 351.092
L502.269 351.259
L503.139 351.067
L503.171 350.939
L503.94 350.848
L504.035 350.614
L504.435 350.598
L504.448 350.319
L505.165 350.119
L505.464 350.029
L505.495 349.898
L505.819 349.857
L505.857 349.586
L506.683 349.458
L508.722 349.77
L508.817 349.532
L508.817 349.393
L509.147 349.38
L509.172 349.25
L509.541 349.223
L511.319 349.345
L511.319 349.208
L511.713 349.049
L511.713 348.91
L512.862 348.719
L512.913 348.598
L513.599 348.52
L515.04 348.688
L516.869 348.78
L516.869 348.644
L517.225 348.586
L518.4 348.694
L518.4 348.694" style="fill:none;stroke:#008000;stroke-linecap:square;"/>
   </g>
   <g id="matplotlib.axis_1">
    <g id="xtick_1">
     <g id="line2d_3">
      <defs>
       <path d="
M0 0
L0 -4" id="m93b0483c22" style="stroke:#000000;stroke-width:0.5;"/>
      </defs>
      <g>
       <use style="stroke:#000000;stroke-width:0.5;" x="73.5038385701" xlink:href="#m93b0483c22" y="388.8"/>
      </g>
     </g>
     <g id="line2d_4">
      <defs>
       <path d="
M0 0
L0 4" id="m741efc42ff" style="stroke:#000000;stroke-width:0.5;"/>
      </defs>
      <g>
       <use style="stroke:#000000;stroke-width:0.5;" x="73.5038385701" xlink:href="#m741efc42ff" y="43.2"/>
      </g>
     </g>
     <g id="text_1">
      <!-- Sep 2013 -->
      <defs>
       <path d="
M40.5781 39.3125
Q47.6562 37.7969 51.625 33
Q55.6094 28.2188 55.6094 21.1875
Q55.6094 10.4062 48.1875 4.48438
Q40.7656 -1.42188 27.0938 -1.42188
Q22.5156 -1.42188 17.6562 -0.515625
Q12.7969 0.390625 7.625 2.20312
L7.625 11.7188
Q11.7188 9.32812 16.5938 8.10938
Q21.4844 6.89062 26.8125 6.89062
Q36.0781 6.89062 40.9375 10.5469
Q45.7969 14.2031 45.7969 21.1875
Q45.7969 27.6406 41.2812 31.2656
Q36.7656 34.9062 28.7188 34.9062
L20.2188 34.9062
L20.2188 43.0156
L29.1094 43.0156
Q36.375 43.0156 40.2344 45.9219
Q44.0938 48.8281 44.0938 54.2969
Q44.0938 59.9062 40.1094 62.9062
Q36.1406 65.9219 28.7188 65.9219
Q24.6562 65.9219 20.0156 65.0312
Q15.375 64.1562 9.8125 62.3125
L9.8125 71.0938
Q15.4375 72.6562 20.3438 73.4375
Q25.25 74.2188 29.5938 74.2188
Q40.8281 74.2188 47.3594 69.1094
Q53.9062 64.0156 53.9062 55.3281
Q53.9062 49.2656 50.4375 45.0938
Q46.9688 40.9219 40.5781 39.3125" id="DejaVuSans-33"/>
       <path d="
M12.4062 8.29688
L28.5156 8.29688
L28.5156 63.9219
L10.9844 60.4062
L10.9844 69.3906
L28.4219 72.9062
L38.2812 72.9062
L38.2812 8.29688
L54.3906 8.29688
L54.3906 0
L12.4062 0
z
" id="DejaVuSans-31"/>
       <path d="
M31.7812 66.4062
Q24.1719 66.4062 20.3281 58.9062
Q16.5 51.4219 16.5 36.375
Q16.5 21.3906 20.3281 13.8906
Q24.1719 6.39062 31.7812 6.39062
Q39.4531 6.39062 43.2812 13.8906
Q47.125 21.3906 47.125 36.375
Q47.125 51.4219 43.2812 58.9062
Q39.4531 66.4062 31.7812 66.4062
M31.7812 74.2188
Q44.0469 74.2188 50.5156 64.5156
Q56.9844 54.8281 56.9844 36.375
Q56.9844 17.9688 50.5156 8.26562
Q44.0469 -1.42188 31.7812 -1.42188
Q19.5312 -1.42188 13.0625 8.26562
Q6.59375 17.9688 6.59375 36.375
Q6.59375 54.8281 13.0625 64.5156
Q19.5312 74.2188 31.7812 74.2188" id="DejaVuSans-30"/>
       <path id="DejaVuSans-20"/>
       <path d="
M19.1875 8.29688
L53.6094 8.29688
L53.6094 0
L7.32812 0
L7.32812 8.29688
Q12.9375 14.1094 22.625 23.8906
Q32.3281 33.6875 34.8125 36.5312
Q39.5469 41.8438 41.4219 45.5312
Q43.3125 49.2188 43.3125 52.7812
Q43.3125 58.5938 39.2344 62.25
Q35.1562 65.9219 28.6094 65.9219
Q23.9688 65.9219 18.8125 64.3125
Q13.6719 62.7031 7.8125 59.4219
L7.8125 69.3906
Q13.7656 71.7812 18.9375 73
Q24.125 74.2188 28.4219 74.2188
Q39.75 74.2188 46.4844 68.5469
Q53.2188 62.8906 53.2188 53.4219
Q53.2188 48.9219 51.5312 44.8906
Q49.8594 40.875 45.4062 35.4062
Q44.1875 33.9844 37.6406 27.2188
Q31.1094 20.4531 19.1875 8.29688" id="DejaVuSans-32"/>
       <path d="
M53.5156 70.5156
L53.5156 60.8906
Q47.9062 63.5781 42.9219 64.8906
Q37.9375 66.2188 33.2969 66.2188
Q25.25 66.2188 20.875 63.0938
Q16.5 59.9688 16.5 54.2031
Q16.5 49.3594 19.4062 46.8906
Q22.3125 44.4375 30.4219 42.9219
L36.375 41.7031
Q47.4062 39.5938 52.6562 34.2969
Q57.9062 29 57.9062 20.125
Q57.9062 9.51562 50.7969 4.04688
Q43.7031 -1.42188 29.9844 -1.42188
Q24.8125 -1.42188 18.9688 -0.25
Q13.1406 0.921875 6.89062 3.21875
L6.89062 13.375
Q12.8906 10.0156 18.6562 8.29688
Q24.4219 6.59375 29.9844 6.59375
Q38.4219 6.59375 43.0156 9.90625
Q47.6094 13.2344 47.6094 19.3906
Q47.6094 24.75 44.3125 27.7812
Q41.0156 30.8125 33.5 32.3281
L27.4844 33.5
Q16.4531 35.6875 11.5156 40.375
Q6.59375 45.0625 6.59375 53.4219
Q6.59375 63.0938 13.4062 68.6562
Q20.2188 74.2188 32.1719 74.2188
Q37.3125 74.2188 42.625 73.2812
Q47.9531 72.3594 53.5156 70.5156" id="DejaVuSans-53"/>
       <path d="
M56.2031 29.5938
L56.2031 25.2031
L14.8906 25.2031
Q15.4844 15.9219 20.4844 11.0625
Q25.4844 6.20312 34.4219 6.20312
Q39.5938 6.20312 44.4531 7.46875
Q49.3125 8.73438 54.1094 11.2812
L54.1094 2.78125
Q49.2656 0.734375 44.1875 -0.34375
Q39.1094 -1.42188 33.8906 -1.42188
Q20.7969 -1.42188 13.1562 6.1875
Q5.51562 13.8125 5.51562 26.8125
Q5.51562 40.2344 12.7656 48.1094
Q20.0156 56 32.3281 56
Q43.3594 56 49.7812 48.8906
Q56.2031 41.7969 56.2031 29.5938
M47.2188 32.2344
Q47.125 39.5938 43.0938 43.9844
Q39.0625 48.3906 32.4219 48.3906
Q24.9062 48.3906 20.3906 44.1406
Q15.875 39.8906 15.1875 32.1719
z
" id="DejaVuSans-65"/>
       <path d="
M18.1094 8.20312
L18.1094 -20.7969
L9.07812 -20.7969
L9.07812 54.6875
L18.1094 54.6875
L18.1094 46.3906
Q20.9531 51.2656 25.2656 53.625
Q29.5938 56 35.5938 56
Q45.5625 56 51.7812 48.0938
Q58.0156 40.1875 58.0156 27.2969
Q58.0156 14.4062 51.7812 6.48438
Q45.5625 -1.42188 35.5938 -1.42188
Q29.5938 -1.42188 25.2656 0.953125
Q20.9531 3.32812 18.1094 8.20312
M48.6875 27.2969
Q48.6875 37.2031 44.6094 42.8438
Q40.5312 48.4844 33.4062 48.4844
Q26.2656 48.4844 22.1875 42.8438
Q18.1094 37.2031 18.1094 27.2969
Q18.1094 17.3906 22.1875 11.75
Q26.2656 6.10938 33.4062 6.10938
Q40.5312 6.10938 44.6094 11.75
Q48.6875 17.3906 48.6875 27.2969" id="DejaVuSans-70"/>
      </defs>
      <g transform="translate(45.4979010701 401.918125)scale(0.12 -0.12)">
       <use xlink:href="#DejaVuSans-53"/>
       <use x="63.4765625" xlink:href="#DejaVuSans-65"/>
       <use x="125.0" xlink:href="#DejaVuSans-70"/>
       <use x="188.4765625" xlink:href="#DejaVuSans-20"/>
       <use x="220.263671875" xlink:href="#DejaVuSans-32"/>
       <use x="283.88671875" xlink:href="#DejaVuSans-30"/>
       <use x="347.509765625" xlink:href="#DejaVuSans-31"/>
       <use x="411.1328125" xlink:href="#DejaVuSans-33"/>
      </g>
     </g>
    </g>
    <g id="xtick_2">
     <g id="line2d_5">
      <g>
       <use style="stroke:#000000;stroke-width:0.5;" x="115.113426033" xlink:href="#m93b0483c22" y="388.8"/>
      </g>
     </g>
     <g id="line2d_6">
      <g>
       <use style="stroke:#000000;stroke-width:0.5;" x="115.113426033" xlink:href="#m741efc42ff" y="43.2"/>
      </g>
     </g>
     <g id="text_2">
      <!-- Dec 2013 -->
      <defs>
       <path d="
M19.6719 64.7969
L19.6719 8.10938
L31.5938 8.10938
Q46.6875 8.10938 53.6875 14.9375
Q60.6875 21.7812 60.6875 36.5312
Q60.6875 51.1719 53.6875 57.9844
Q46.6875 64.7969 31.5938 64.7969
z

M9.8125 72.9062
L30.0781 72.9062
Q51.2656 72.9062 61.1719 64.0938
Q71.0938 55.2812 71.0938 36.5312
Q71.0938 17.6719 61.125 8.82812
Q51.1719 0 30.0781 0
L9.8125 0
z
" id="DejaVuSans-44"/>
       <path d="
M48.7812 52.5938
L48.7812 44.1875
Q44.9688 46.2969 41.1406 47.3438
Q37.3125 48.3906 33.4062 48.3906
Q24.6562 48.3906 19.8125 42.8438
Q14.9844 37.3125 14.9844 27.2969
Q14.9844 17.2812 19.8125 11.7344
Q24.6562 6.20312 33.4062 6.20312
Q37.3125 6.20312 41.1406 7.25
Q44.9688 8.29688 48.7812 10.4062
L48.7812 2.09375
Q45.0156 0.34375 40.9844 -0.53125
Q36.9688 -1.42188 32.4219 -1.42188
Q20.0625 -1.42188 12.7812 6.34375
Q5.51562 14.1094 5.51562 27.2969
Q5.51562 40.6719 12.8594 48.3281
Q20.2188 56 33.0156 56
Q37.1562 56 41.1094 55.1406
Q45.0625 54.2969 48.7812 52.5938" id="DejaVuSans-63"/>
      </defs>
      <g transform="translate(86.8065510326 401.918125)scale(0.12 -0.12)">
       <use xlink:href="#DejaVuSans-44"/>
       <use x="77.001953125" xlink:href="#DejaVuSans-65"/>
       <use x="138.525390625" xlink:href="#DejaVuSans-63"/>
       <use x="193.505859375" xlink:href="#DejaVuSans-20"/>
       <use x="225.29296875" xlink:href="#DejaVuSans-32"/>
       <use x="288.916015625" xlink:href="#DejaVuSans-30"/>
       <use x="352.5390625" xlink:href="#DejaVuSans-31"/>
       <use x="416.162109375" xlink:href="#DejaVuSans-33"/>
      </g>
     </g>
    </g>
    <g id="xtick_3">
     <g id="line2d_7">
      <g>
       <use style="stroke:#000000;stroke-width:0.5;" x="156.265765281" xlink:href="#m93b0483c22" y="388.8"/>
      </g>
     </g>
     <g id="line2d_8">
      <g>
       <use style="stroke:#000000;stroke-width:0.5;" x="156.265765281" xlink:href="#m741efc42ff" y="43.2"/>
      </g>
     </g>
     <g id="text_3">
      <!-- Mar 2014 -->
      <defs>
       <path d="
M9.8125 72.9062
L24.5156 72.9062
L43.1094 23.2969
L61.8125 72.9062
L76.5156 72.9062
L76.5156 0
L66.8906 0
L66.8906 64.0156
L48.0938 14.0156
L38.1875 14.0156
L19.3906 64.0156
L19.3906 0
L9.8125 0
z
" id="DejaVuSans-4d"/>
       <path d="
M41.1094 46.2969
Q39.5938 47.1719 37.8125 47.5781
Q36.0312 48 33.8906 48
Q26.2656 48 22.1875 43.0469
Q18.1094 38.0938 18.1094 28.8125
L18.1094 0
L9.07812 0
L9.07812 54.6875
L18.1094 54.6875
L18.1094 46.1875
Q20.9531 51.1719 25.4844 53.5781
Q30.0312 56 36.5312 56
Q37.4531 56 38.5781 55.875
Q39.7031 55.7656 41.0625 55.5156
z
" id="DejaVuSans-72"/>
       <path d="
M37.7969 64.3125
L12.8906 25.3906
L37.7969 25.3906
z

M35.2031 72.9062
L47.6094 72.9062
L47.6094 25.3906
L58.0156 25.3906
L58.0156 17.1875
L47.6094 17.1875
L47.6094 0
L37.7969 0
L37.7969 17.1875
L4.89062 17.1875
L4.89062 26.7031
z
" id="DejaVuSans-34"/>
       <path d="
M34.2812 27.4844
Q23.3906 27.4844 19.1875 25
Q14.9844 22.5156 14.9844 16.5
Q14.9844 11.7188 18.1406 8.90625
Q21.2969 6.10938 26.7031 6.10938
Q34.1875 6.10938 38.7031 11.4062
Q43.2188 16.7031 43.2188 25.4844
L43.2188 27.4844
z

M52.2031 31.2031
L52.2031 0
L43.2188 0
L43.2188 8.29688
Q40.1406 3.32812 35.5469 0.953125
Q30.9531 -1.42188 24.3125 -1.42188
Q15.9219 -1.42188 10.9531 3.29688
Q6 8.01562 6 15.9219
Q6 25.1406 12.1719 29.8281
Q18.3594 34.5156 30.6094 34.5156
L43.2188 34.5156
L43.2188 35.4062
Q43.2188 41.6094 39.1406 45
Q35.0625 48.3906 27.6875 48.3906
Q23 48.3906 18.5469 47.2656
Q14.1094 46.1406 10.0156 43.8906
L10.0156 52.2031
Q14.9375 54.1094 19.5781 55.0469
Q24.2188 56 28.6094 56
Q40.4844 56 46.3438 49.8438
Q52.2031 43.7031 52.2031 31.2031" id="DejaVuSans-61"/>
      </defs>
      <g transform="translate(128.105140281 401.918125)scale(0.12 -0.12)">
       <use xlink:href="#DejaVuSans-4d"/>
       <use x="86.279296875" xlink:href="#DejaVuSans-61"/>
       <use x="147.55859375" xlink:href="#DejaVuSans-72"/>
       <use x="188.671875" xlink:href="#DejaVuSans-20"/>
       <use x="220.458984375" xlink:href="#DejaVuSans-32"/>
       <use x="284.08203125" xlink:href="#DejaVuSans-30"/>
       <use x="347.705078125" xlink:href="#DejaVuSans-31"/>
       <use x="411.328125" xlink:href="#DejaVuSans-34"/>
      </g>
     </g>
    </g>
    <g id="xtick_4">
     <g id="line2d_9">
      <g>
       <use style="stroke:#000000;stroke-width:0.5;" x="198.332600958" xlink:href="#m93b0483c22" y="388.8"/>
      </g>
     </g>
     <g id="line2d_10">
      <g>
       <use style="stroke:#000000;stroke-width:0.5;" x="198.332600958" xlink:href="#m741efc42ff" y="43.2"/>
      </g>
     </g>
     <g id="text_4">
      <!-- Jun 2014 -->
      <defs>
       <path d="
M8.5 21.5781
L8.5 54.6875
L17.4844 54.6875
L17.4844 21.9219
Q17.4844 14.1562 20.5 10.2656
Q23.5312 6.39062 29.5938 6.39062
Q36.8594 6.39062 41.0781 11.0312
Q45.3125 15.6719 45.3125 23.6875
L45.3125 54.6875
L54.2969 54.6875
L54.2969 0
L45.3125 0
L45.3125 8.40625
Q42.0469 3.42188 37.7188 1
Q33.4062 -1.42188 27.6875 -1.42188
Q18.2656 -1.42188 13.375 4.4375
Q8.5 10.2969 8.5 21.5781
M31.1094 56
z
" id="DejaVuSans-75"/>
       <path d="
M54.8906 33.0156
L54.8906 0
L45.9062 0
L45.9062 32.7188
Q45.9062 40.4844 42.875 44.3281
Q39.8438 48.1875 33.7969 48.1875
Q26.5156 48.1875 22.3125 43.5469
Q18.1094 38.9219 18.1094 30.9062
L18.1094 0
L9.07812 0
L9.07812 54.6875
L18.1094 54.6875
L18.1094 46.1875
Q21.3438 51.125 25.7031 53.5625
Q30.0781 56 35.7969 56
Q45.2188 56 50.0469 50.1719
Q54.8906 44.3438 54.8906 33.0156" id="DejaVuSans-6e"/>
       <path d="
M9.8125 72.9062
L19.6719 72.9062
L19.6719 5.07812
Q19.6719 -8.10938 14.6719 -14.0625
Q9.67188 -20.0156 -1.42188 -20.0156
L-5.17188 -20.0156
L-5.17188 -11.7188
L-2.09375 -11.7188
Q4.4375 -11.7188 7.125 -8.04688
Q9.8125 -4.39062 9.8125 5.07812
z
" id="DejaVuSans-4a"/>
      </defs>
      <g transform="translate(171.806975958 401.918125)scale(0.12 -0.12)">
       <use xlink:href="#DejaVuSans-4a"/>
       <use x="29.4921875" xlink:href="#DejaVuSans-75"/>
       <use x="92.87109375" xlink:href="#DejaVuSans-6e"/>
       <use x="156.25" xlink:href="#DejaVuSans-20"/>
       <use x="188.037109375" xlink:href="#DejaVuSans-32"/>
       <use x="251.66015625" xlink:href="#DejaVuSans-30"/>
       <use x="315.283203125" xlink:href="#DejaVuSans-31"/>
       <use x="378.90625" xlink:href="#DejaVuSans-34"/>
      </g>
     </g>
    </g>
    <g id="xtick_5">
     <g id="line2d_11">
      <g>
       <use style="stroke:#000000;stroke-width:0.5;" x="240.399436634" xlink:href="#m93b0483c22" y="388.8"/>
      </g>
     </g>
     <g id="line2d_12">
      <g>
       <use style="stroke:#000000;stroke-width:0.5;" x="240.399436634" xlink:href="#m741efc42ff" y="43.2"/>
      </g>
     </g>
     <g id="text_5">
      <!-- Sep 2014 -->
      <g transform="translate(212.249124134 401.918125)scale(0.12 -0.12)">
       <use xlink:href="#DejaVuSans-53"/>
       <use x="63.4765625" xlink:href="#DejaVuSans-65"/>
       <use x="125.0" xlink:href="#DejaVuSans-70"/>
       <use x="188.4765625" xlink:href="#DejaVuSans-20"/>
       <use x="220.263671875" xlink:href="#DejaVuSans-32"/>
       <use x="283.88671875" xlink:href="#DejaVuSans-30"/>
       <use x="347.509765625" xlink:href="#DejaVuSans-31"/>
       <use x="411.1328125" xlink:href="#DejaVuSans-34"/>
      </g>
     </g>
    </g>
    <g id="xtick_6">
     <g id="line2d_13">
      <g>
       <use style="stroke:#000000;stroke-width:0.5;" x="282.009024097" xlink:href="#m93b0483c22" y="388.8"/>
      </g>
     </g>
     <g id="line2d_14">
      <g>
       <use style="stroke:#000000;stroke-width:0.5;" x="282.009024097" xlink:href="#m741efc42ff" y="43.2"/>
      </g>
     </g>
     <g id="text_6">
      <!-- Dec 2014 -->
      <g transform="translate(253.557774097 401.918125)scale(0.12 -0.12)">
       <use xlink:href="#DejaVuSans-44"/>
       <use x="77.001953125" xlink:href="#DejaVuSans-65"/>
       <use x="138.525390625" xlink:href="#DejaVuSans-63"/>
       <use x="193.505859375" xlink:href="#DejaVuSans-20"/>
       <use x="225.29296875" xlink:href="#DejaVuSans-32"/>
       <use x="288.916015625" xlink:href="#DejaVuSans-30"/>
       <use x="352.5390625" xlink:href="#DejaVuSans-31"/>
       <use x="416.162109375" xlink:href="#DejaVuSans-34"/>
      </g>
     </g>
    </g>
    <g id="xtick_7">
     <g id="line2d_15">
      <g>
       <use style="stroke:#000000;stroke-width:0.5;" x="323.161363345" xlink:href="#m93b0483c22" y="388.8"/>
      </g>
     </g>
     <g id="line2d_16">
      <g>
       <use style="stroke:#000000;stroke-width:0.5;" x="323.161363345" xlink:href="#m741efc42ff" y="43.2"/>
      </g>
     </g>
     <g id="text_7">
      <!-- Mar 2015 -->
      <defs>
       <path d="
M10.7969 72.9062
L49.5156 72.9062
L49.5156 64.5938
L19.8281 64.5938
L19.8281 46.7344
Q21.9688 47.4688 24.1094 47.8281
Q26.2656 48.1875 28.4219 48.1875
Q40.625 48.1875 47.75 41.5
Q54.8906 34.8125 54.8906 23.3906
Q54.8906 11.625 47.5625 5.09375
Q40.2344 -1.42188 26.9062 -1.42188
Q22.3125 -1.42188 17.5469 -0.640625
Q12.7969 0.140625 7.71875 1.70312
L7.71875 11.625
Q12.1094 9.23438 16.7969 8.0625
Q21.4844 6.89062 26.7031 6.89062
Q35.1562 6.89062 40.0781 11.3281
Q45.0156 15.7656 45.0156 23.3906
Q45.0156 31 40.0781 35.4375
Q35.1562 39.8906 26.7031 39.8906
Q22.75 39.8906 18.8125 39.0156
Q14.8906 38.1406 10.7969 36.2812
z
" id="DejaVuSans-35"/>
      </defs>
      <g transform="translate(295.188238345 401.918125)scale(0.12 -0.12)">
       <use xlink:href="#DejaVuSans-4d"/>
       <use x="86.279296875" xlink:href="#DejaVuSans-61"/>
       <use x="147.55859375" xlink:href="#DejaVuSans-72"/>
       <use x="188.671875" xlink:href="#DejaVuSans-20"/>
       <use x="220.458984375" xlink:href="#DejaVuSans-32"/>
       <use x="284.08203125" xlink:href="#DejaVuSans-30"/>
       <use x="347.705078125" xlink:href="#DejaVuSans-31"/>
       <use x="411.328125" xlink:href="#DejaVuSans-35"/>
      </g>
     </g>
    </g>
    <g id="xtick_8">
     <g id="line2d_17">
      <g>
       <use style="stroke:#000000;stroke-width:0.5;" x="365.228199022" xlink:href="#m93b0483c22" y="388.8"/>
      </g>
     </g>
     <g id="line2d_18">
      <g>
       <use style="stroke:#000000;stroke-width:0.5;" x="365.228199022" xlink:href="#m741efc42ff" y="43.2"/>
      </g>
     </g>
     <g id="text_8">
      <!-- Jun 2015 -->
      <g transform="translate(338.890074022 401.918125)scale(0.12 -0.12)">
       <use xlink:href="#DejaVuSans-4a"/>
       <use x="29.4921875" xlink:href="#DejaVuSans-75"/>
       <use x="92.87109375" xlink:href="#DejaVuSans-6e"/>
       <use x="156.25" xlink:href="#DejaVuSans-20"/>
       <use x="188.037109375" xlink:href="#DejaVuSans-32"/>
       <use x="251.66015625" xlink:href="#DejaVuSans-30"/>
       <use x="315.283203125" xlink:href="#DejaVuSans-31"/>
       <use x="378.90625" xlink:href="#DejaVuSans-35"/>
      </g>
     </g>
    </g>
    <g id="xtick_9">
     <g id="line2d_19">
      <g>
       <use style="stroke:#000000;stroke-width:0.5;" x="407.295034698" xlink:href="#m93b0483c22" y="388.8"/>
      </g>
     </g>
     <g id="line2d_20">
      <g>
       <use style="stroke:#000000;stroke-width:0.5;" x="407.295034698" xlink:href="#m741efc42ff" y="43.2"/>
      </g>
     </g>
     <g id="text_9">
      <!-- Sep 2015 -->
      <g transform="translate(379.332222198 401.918125)scale(0.12 -0.12)">
       <use xlink:href="#DejaVuSans-53"/>
       <use x="63.4765625" xlink:href="#DejaVuSans-65"/>
       <use x="125.0" xlink:href="#DejaVuSans-70"/>
       <use x="188.4765625" xlink:href="#DejaVuSans-20"/>
       <use x="220.263671875" xlink:href="#DejaVuSans-32"/>
       <use x="283.88671875" xlink:href="#DejaVuSans-30"/>
       <use x="347.509765625" xlink:href="#DejaVuSans-31"/>
       <use x="411.1328125" xlink:href="#DejaVuSans-35"/>
      </g>
     </g>
    </g>
    <g id="xtick_10">
     <g id="line2d_21">
      <g>
       <use style="stroke:#000000;stroke-width:0.5;" x="448.904622161" xlink:href="#m93b0483c22" y="388.8"/>
      </g>
     </g>
     <g id="line2d_22">
      <g>
       <use style="stroke:#000000;stroke-width:0.5;" x="448.904622161" xlink:href="#m741efc42ff" y="43.2"/>
      </g>
     </g>
     <g id="text_10">
      <!-- Dec 2015 -->
      <g transform="translate(420.640872161 401.918125)scale(0.12 -0.12)">
       <use xlink:href="#DejaVuSans-44"/>
       <use x="77.001953125" xlink:href="#DejaVuSans-65"/>
       <use x="138.525390625" xlink:href="#DejaVuSans-63"/>
       <use x="193.505859375" xlink:href="#DejaVuSans-20"/>
       <use x="225.29296875" xlink:href="#DejaVuSans-32"/>
       <use x="288.916015625" xlink:href="#DejaVuSans-30"/>
       <use x="352.5390625" xlink:href="#DejaVuSans-31"/>
       <use x="416.162109375" xlink:href="#DejaVuSans-35"/>
      </g>
     </g>
    </g>
    <g id="xtick_11">
     <g id="line2d_23">
      <g>
       <use style="stroke:#000000;stroke-width:0.5;" x="490.514209623" xlink:href="#m93b0483c22" y="388.8"/>
      </g>
     </g>
     <g id="line2d_24">
      <g>
       <use style="stroke:#000000;stroke-width:0.5;" x="490.514209623" xlink:href="#m741efc42ff" y="43.2"/>
      </g>
     </g>
     <g id="text_11">
      <!-- Mar 2016 -->
      <defs>
       <path d="
M33.0156 40.375
Q26.375 40.375 22.4844 35.8281
Q18.6094 31.2969 18.6094 23.3906
Q18.6094 15.5312 22.4844 10.9531
Q26.375 6.39062 33.0156 6.39062
Q39.6562 6.39062 43.5312 10.9531
Q47.4062 15.5312 47.4062 23.3906
Q47.4062 31.2969 43.5312 35.8281
Q39.6562 40.375 33.0156 40.375
M52.5938 71.2969
L52.5938 62.3125
Q48.875 64.0625 45.0938 64.9844
Q41.3125 65.9219 37.5938 65.9219
Q27.8281 65.9219 22.6719 59.3281
Q17.5312 52.7344 16.7969 39.4062
Q19.6719 43.6562 24.0156 45.9219
Q28.375 48.1875 33.5938 48.1875
Q44.5781 48.1875 50.9531 41.5156
Q57.3281 34.8594 57.3281 23.3906
Q57.3281 12.1562 50.6875 5.35938
Q44.0469 -1.42188 33.0156 -1.42188
Q20.3594 -1.42188 13.6719 8.26562
Q6.98438 17.9688 6.98438 36.375
Q6.98438 53.6562 15.1875 63.9375
Q23.3906 74.2188 37.2031 74.2188
Q40.9219 74.2188 44.7031 73.4844
Q48.4844 72.75 52.5938 71.2969" id="DejaVuSans-36"/>
      </defs>
      <g transform="translate(462.394834623 401.918125)scale(0.12 -0.12)">
       <use xlink:href="#DejaVuSans-4d"/>
       <use x="86.279296875" xlink:href="#DejaVuSans-61"/>
       <use x="147.55859375" xlink:href="#DejaVuSans-72"/>
       <use x="188.671875" xlink:href="#DejaVuSans-20"/>
       <use x="220.458984375" xlink:href="#DejaVuSans-32"/>
       <use x="284.08203125" xlink:href="#DejaVuSans-30"/>
       <use x="347.705078125" xlink:href="#DejaVuSans-31"/>
       <use x="411.328125" xlink:href="#DejaVuSans-36"/>
      </g>
     </g>
    </g>
   </g>
   <g id="matplotlib.axis_2">
    <g id="ytick_1">
     <g id="line2d_25">
      <defs>
       <path d="
M0 0
L4 0" id="m728421d6d4" style="stroke:#000000;stroke-width:0.5;"/>
      </defs>
      <g>
       <use style="stroke:#000000;stroke-width:0.5;" x="72.0" xlink:href="#m728421d6d4" y="388.8"/>
      </g>
     </g>
     <g id="line2d_26">
      <defs>
       <path d="
M0 0
L-4 0" id="mcb0005524f" style="stroke:#000000;stroke-width:0.5;"/>
      </defs>
      <g>
       <use style="stroke:#000000;stroke-width:0.5;" x="518.4" xlink:href="#mcb0005524f" y="388.8"/>
      </g>
     </g>
     <g id="text_12">
      <!-- 200 -->
      <g transform="translate(46.77125 392.11125)scale(0.12 -0.12)">
       <use xlink:href="#DejaVuSans-32"/>
       <use x="63.623046875" xlink:href="#DejaVuSans-30"/>
       <use x="127.24609375" xlink:href="#DejaVuSans-30"/>
      </g>
     </g>
    </g>
    <g id="ytick_2">
     <g id="line2d_27">
      <g>
       <use style="stroke:#000000;stroke-width:0.5;" x="72.0" xlink:href="#m728421d6d4" y="331.2"/>
      </g>
     </g>
     <g id="line2d_28">
      <g>
       <use style="stroke:#000000;stroke-width:0.5;" x="518.4" xlink:href="#mcb0005524f" y="331.2"/>
      </g>
     </g>
     <g id="text_13">
      <!-- 400 -->
      <g transform="translate(46.47875 334.51125)scale(0.12 -0.12)">
       <use xlink:href="#DejaVuSans-34"/>
       <use x="63.623046875" xlink:href="#DejaVuSans-30"/>
       <use x="127.24609375" xlink:href="#DejaVuSans-30"/>
      </g>
     </g>
    </g>
    <g id="ytick_3">
     <g id="line2d_29">
      <g>
       <use style="stroke:#000000;stroke-width:0.5;" x="72.0" xlink:href="#m728421d6d4" y="273.6"/>
      </g>
     </g>
     <g id="line2d_30">
      <g>
       <use style="stroke:#000000;stroke-width:0.5;" x="518.4" xlink:href="#mcb0005524f" y="273.6"/>
      </g>
     </g>
     <g id="text_14">
      <!-- 600 -->
      <g transform="translate(46.73 276.91125)scale(0.12 -0.12)">
       <use xlink:href="#DejaVuSans-36"/>
       <use x="63.623046875" xlink:href="#DejaVuSans-30"/>
       <use x="127.24609375" xlink:href="#DejaVuSans-30"/>
      </g>
     </g>
    </g>
    <g id="ytick_4">
     <g id="line2d_31">
      <g>
       <use style="stroke:#000000;stroke-width:0.5;" x="72.0" xlink:href="#m728421d6d4" y="216.0"/>
      </g>
     </g>
     <g id="line2d_32">
      <g>
       <use style="stroke:#000000;stroke-width:0.5;" x="518.4" xlink:href="#mcb0005524f" y="216.0"/>
      </g>
     </g>
     <g id="text_15">
      <!-- 800 -->
      <defs>
       <path d="
M31.7812 34.625
Q24.75 34.625 20.7188 30.8594
Q16.7031 27.0938 16.7031 20.5156
Q16.7031 13.9219 20.7188 10.1562
Q24.75 6.39062 31.7812 6.39062
Q38.8125 6.39062 42.8594 10.1719
Q46.9219 13.9688 46.9219 20.5156
Q46.9219 27.0938 42.8906 30.8594
Q38.875 34.625 31.7812 34.625
M21.9219 38.8125
Q15.5781 40.375 12.0312 44.7188
Q8.5 49.0781 8.5 55.3281
Q8.5 64.0625 14.7188 69.1406
Q20.9531 74.2188 31.7812 74.2188
Q42.6719 74.2188 48.875 69.1406
Q55.0781 64.0625 55.0781 55.3281
Q55.0781 49.0781 51.5312 44.7188
Q48 40.375 41.7031 38.8125
Q48.8281 37.1562 52.7969 32.3125
Q56.7812 27.4844 56.7812 20.5156
Q56.7812 9.90625 50.3125 4.23438
Q43.8438 -1.42188 31.7812 -1.42188
Q19.7344 -1.42188 13.25 4.23438
Q6.78125 9.90625 6.78125 20.5156
Q6.78125 27.4844 10.7812 32.3125
Q14.7969 37.1562 21.9219 38.8125
M18.3125 54.3906
Q18.3125 48.7344 21.8438 45.5625
Q25.3906 42.3906 31.7812 42.3906
Q38.1406 42.3906 41.7188 45.5625
Q45.3125 48.7344 45.3125 54.3906
Q45.3125 60.0625 41.7188 63.2344
Q38.1406 66.4062 31.7812 66.4062
Q25.3906 66.4062 21.8438 63.2344
Q18.3125 60.0625 18.3125 54.3906" id="DejaVuSans-38"/>
      </defs>
      <g transform="translate(46.705625 219.31125)scale(0.12 -0.12)">
       <use xlink:href="#DejaVuSans-38"/>
       <use x="63.623046875" xlink:href="#DejaVuSans-30"/>
       <use x="127.24609375" xlink:href="#DejaVuSans-30"/>
      </g>
     </g>
    </g>
    <g id="ytick_5">
     <g id="line2d_33">
      <g>
       <use style="stroke:#000000;stroke-width:0.5;" x="72.0" xlink:href="#m728421d6d4" y="158.4"/>
      </g>
     </g>
     <g id="line2d_34">
      <g>
       <use style="stroke:#000000;stroke-width:0.5;" x="518.4" xlink:href="#mcb0005524f" y="158.4"/>
      </g>
     </g>
     <g id="text_16">
      <!-- 1000 -->
      <g transform="translate(39.575 161.71125)scale(0.12 -0.12)">
       <use xlink:href="#DejaVuSans-31"/>
       <use x="63.623046875" xlink:href="#DejaVuSans-30"/>
       <use x="127.24609375" xlink:href="#DejaVuSans-30"/>
       <use x="190.869140625" xlink:href="#DejaVuSans-30"/>
      </g>
     </g>
    </g>
    <g id="ytick_6">
     <g id="line2d_35">
      <g>
       <use style="stroke:#000000;stroke-width:0.5;" x="72.0" xlink:href="#m728421d6d4" y="100.8"/>
      </g>
     </g>
     <g id="line2d_36">
      <g>
       <use style="stroke:#000000;stroke-width:0.5;" x="518.4" xlink:href="#mcb0005524f" y="100.8"/>
      </g>
     </g>
     <g id="text_17">
      <!-- 1200 -->
      <g transform="translate(39.575 104.11125)scale(0.12 -0.12)">
       <use xlink:href="#DejaVuSans-31"/>
       <use x="63.623046875" xlink:href="#DejaVuSans-32"/>
       <use x="127.24609375" xlink:href="#DejaVuSans-30"/>
       <use x="190.869140625" xlink:href="#DejaVuSans-30"/>
      </g>
     </g>
    </g>
    <g id="ytick_7">
     <g id="line2d_37">
      <g>
       <use style="stroke:#000000;stroke-width:0.5;" x="72.0" xlink:href="#m728421d6d4" y="43.2"/>
      </g>
     </g>
     <g id="line2d_38">
      <g>
       <use style="stroke:#000000;stroke-width:0.5;" x="518.4" xlink:href="#mcb0005524f" y="43.2"/>
      </g>
     </g>
     <g id="text_18">
      <!-- 1400 -->
      <g transform="translate(39.575 46.51125)scale(0.12 -0.12)">
       <use xlink:href="#DejaVuSans-31"/>
       <use x="63.623046875" xlink:href="#DejaVuSans-34"/>
       <use x="127.24609375" xlink:href="#DejaVuSans-30"/>
       <use x="190.869140625" xlink:href="#DejaVuSans-30"/>
      </g>
     </g>
    </g>
   </g>
   <g id="patch_3">
    <path d="
M72 43.2
L518.4 43.2" style="fill:none;stroke:#000000;"/>
   </g>
   <g id="patch_4">
    <path d="
M518.4 388.8
L518.4 43.2" style="fill:none;stroke:#000000;"/>
   </g>
   <g id="patch_5">
    <path d="
M72 388.8
L518.4 388.8" style="fill:none;stroke:#000000;"/>
   </g>
   <g id="patch_6">
    <path d="
M72 388.8
L72 43.2" style="fill:none;stroke:#000000;"/>
   </g>
  </g>
 </g>
 <defs>
  <clipPath id="p7ff5b81e1d">
   <rect height="345.6" width="446.4" x="72.0" y="43.2"/>
  </clipPath>
 </defs>
</svg>
