<?xml version="1.0" encoding="utf-8" standalone="no"?>
<!DOCTYPE svg PUBLIC "-//W3C//DTD SVG 1.1//EN"
  "http://www.w3.org/Graphics/SVG/1.1/DTD/svg11.dtd">
<!-- Created with matplotlib (http://matplotlib.org/) -->
<svg height="432pt" version="1.1" viewBox="0 0 576 432" width="576pt" xmlns="http://www.w3.org/2000/svg" xmlns:xlink="http://www.w3.org/1999/xlink">
 <defs>
  <style type="text/css">
*{stroke-linecap:butt;stroke-linejoin:round;}
  </style>
 </defs>
 <g id="figure_1">
  <g id="patch_1">
   <path d="
M0 432
L576 432
L576 0
L0 0
z
" style="fill:#ffffff;"/>
  </g>
  <g id="axes_1">
   <g id="patch_2">
    <path d="
M72 388.8
L518.4 388.8
L518.4 43.2
L72 43.2
z
" style="fill:#ffffff;"/>
   </g>
   <g id="line2d_1">
    <path clip-path="url(#p7ff5b81e1d)" d="
M83.9813 338.887
L84.0302 332.495
L84.4579 365.113
L85.3011 371.17
L86.2308 372.675
L87.1033 373.118
L87.1033 370.519
L87.9983 368.047
L90.6588 370.515
L97.8931 375.076
L98.3017 374.031
L102.269 374.995
L102.599 374.409
L108.819 376.331
L108.991 375.661
L117.043 377.205
L125.512 378.716
L126.688 378.373
L126.688 377.277
L129.947 377.518
L130.556 377.158
L130.89 376.759
L139.654 378.937
L139.654 378.544
L141.815 378.864
L142.32 378.75
L142.466 378.467
L143.114 377.919
L143.222 377.288
L143.581 377.046
L144.261 376.996
L146.881 377.149
L149.189 377.379
L149.189 377.079
L151.593 377.325
L152.251 377.234
L153.556 377.341
L156.048 377.312
L160.151 377.526
L161.05 377.237
L162.194 377.177
L165.853 377.603
L166.737 377.501
L166.924 377.351
L169.993 377.584
L170.354 377.399
L171.647 377.43
L176.21 377.82
L176.252 377.633
L181.509 378.044
L182.297 377.774
L183.141 377.519
L184.115 377.279
L184.124 377.104
L190.777 377.883
L193.303 377.577
L193.493 377.452
L199.154 377.982
L199.154 377.835
L203.771 378.219
L205.139 378.12
L207.772 378.133
L209.778 377.967
L209.849 377.855
L210.809 377.832
L218.767 378.396
L226.683 378.546
L226.701 378.436
L230.475 378.545
L230.813 378.481
L232.292 378.397
L234.731 378.286
L235.192 378.027
L242.482 378.305
L243.321 378.084
L245.951 378.094
L249.172 378.059
L260.094 378.662
L273.298 379.434
L296.436 380.149
L297.229 380.113
L300.752 380.065
L317.957 379.887
L317.966 379.826
L320.418 379.644
L323.511 379.626
L326.45 379.484
L333.701 379.363
L333.811 379.2
L335.145 379.107
L337.382 379.062
L340.94 378.966
L345.272 379.081
L345.676 378.997
L353.779 379.185
L353.779 379.135
L365.309 379.256
L367.159 379.199
L368.369 379.081
L378.156 379.154
L379.996 379.031
L383.065 379.002
L384.892 378.917
L400.738 378.864
L401.614 378.768
L405.775 378.644
L408.928 378.565
L434.564 378.467
L434.642 378.397
L436.083 378.311
L436.379 378.25
L436.954 378.169
L439.142 378.068
L439.192 378.035
L441.238 377.934
L445.206 377.927
L450.708 377.813
L453.378 377.712
L453.502 377.686
L458.62 377.468
L459.726 377.392
L461.735 377.302
L461.735 377.236
L469.858 377.066
L469.926 377.039
L471.953 376.965
L471.978 376.904
L475.977 376.795
L477.887 376.786
L477.918 376.757
L480.947 376.688
L480.947 376.658
L480.947 376.628
L482.703 376.554
L482.907 376.504
L485.966 376.455
L485.997 376.427
L488.136 376.376
L488.136 376.347
L501.537 375.962
L504.677 375.944
L507.372 375.861
L514.79 375.864
L514.79 375.837
L518.202 375.748
L518.202 375.748" style="fill:none;stroke:#ff0000;stroke-linecap:square;"/>
   </g>
   <g id="line2d_2">
    <path clip-path="url(#p7ff5b81e1d)" d="
M72 91.8928
L83.977 253.271
L83.9792 226.851
L84.0157 242.607
L84.105 326.395
L84.1473 321.68
L84.4474 331.052
L84.4586 326.513
L84.8959 343.706
L84.8959 338.791
L85.8086 347.684
L86.0858 343.87
L87.2241 353.517
L87.6648 353.13
L87.8021 351.008
L88.4984 351.483
L88.9138 350.453
L88.9249 348.498
L89.6994 344.46
L89.7643 342.704
L90.2239 342.615
L90.2394 339.508
L90.6588 339.429
L91.5458 340.472
L91.9655 339.239
L94.6631 346.747
L96.358 347.768
L96.9301 347.657
L97.3683 347.032
L99.6629 349.535
L101.182 350.338
L102.267 350.253
L103.608 352.721
L104.291 352.28
L106.791 354.096
L108.348 354.923
L108.348 353.247
L108.991 353.324
L111.562 355.043
L111.651 354.571
L114.275 355.562
L115.281 355.594
L115.594 354.987
L118.589 356.615
L120.17 356.769
L122.641 358.001
L125.959 359.324
L126.395 358.949
L129.152 359.647
L129.152 359.14
L130.643 359.518
L130.643 358.522
L132.204 359.032
L132.221 358.561
L135.153 359.861
L135.261 359.618
L138.739 361.34
L138.753 360.996
L140.535 362.438
L140.971 362.477
L141.049 361.45
L141.934 362.123
L142.462 362.066
L142.663 361.773
L142.726 361.478
L143.157 361.475
L143.174 361.177
L144.256 361.438
L144.893 361.526
L144.987 360.971
L145.51 361.213
L145.568 360.935
L145.786 360.723
L145.792 360.425
L145.911 360.175
L146.332 360.148
L146.332 359.835
L146.505 359.57
L148.894 360.265
L149.098 360.17
L149.189 359.944
L150.283 360.313
L151.228 360.461
L151.273 360.233
L151.623 360.132
L152.453 360.318
L152.558 360.12
L153.374 360.456
L153.465 360.319
L155.018 360.419
L155.144 359.722
L155.659 359.656
L155.717 359.185
L156.202 358.893
L156.244 358.704
L157.017 358.798
L157.518 358.735
L157.898 358.363
L158.45 358.33
L158.45 358.09
L159.792 358.456
L161.213 358.961
L161.384 358.751
L161.894 358.719
L161.903 358.49
L162.432 358.473
L162.743 358.327
L162.784 358.154
L164.115 358.142
L166.808 359.114
L167.011 358.81
L167.049 358.631
L167.392 358.59
L167.42 358.405
L168.998 358.835
L170.156 358.696
L170.299 358.499
L171.175 358.718
L171.358 358.438
L171.76 358.421
L171.811 358.246
L173.12 358.405
L173.171 357.855
L176.004 358.432
L176.004 358.241
L176.15 358.131
L176.178 357.763
L178.19 358.215
L181.474 358.331
L181.556 357.831
L181.797 357.714
L182.191 357.648
L182.858 357.768
L183.141 357.643
L184.156 357.803
L184.555 357.752
L184.638 357.627
L185.093 357.611
L185.32 357.479
L186.447 357.618
L187.753 357.837
L188.041 357.746
L188.922 357.92
L189.084 357.837
L189.089 357.507
L190.058 357.722
L190.369 357.513
L191.4 357.76
L191.721 357.544
L192.075 357.499
L193.44 357.88
L193.664 357.497
L194.912 357.817
L195.213 357.731
L196.187 357.93
L196.262 357.809
L197.026 357.873
L197.425 357.383
L199.276 357.75
L200.424 357.81
L200.706 357.799
L200.869 357.673
L201.117 357.652
L202.316 357.863
L202.719 357.804
L202.886 357.587
L202.96 357.49
L203.609 357.541
L203.77 357.197
L204.944 357.23
L205.345 356.935
L207.661 357.017
L207.693 356.89
L208.941 357.218
L208.941 357.087
L209.778 357.214
L209.778 357.1
L210.313 357.14
L210.313 357.009
L210.698 356.886
L210.744 356.775
L212.437 356.877
L212.438 356.765
L212.654 356.593
L213.123 356.498
L213.131 356.374
L214.554 356.403
L214.708 356.304
L216.252 356.541
L216.485 356.362
L216.539 356.256
L217.364 356.338
L218.709 356.574
L218.767 356.479
L219.719 356.505
L221.24 356.663
L221.953 356.518
L223.164 356.678
L223.267 356.493
L223.308 356.402
L225.385 356.805
L226.015 356.617
L226.038 356.513
L226.692 356.35
L226.701 356.242
L231.249 356.872
L232.765 357.074
L233.122 357.021
L236.683 357.331
L237.23 356.993
L237.616 356.962
L240.735 357.376
L240.735 357.283
L241.201 357.182
L242.087 357.231
L244.694 357.437
L248.3 357.955
L248.355 357.436
L253.261 357.874
L254.415 357.759
L254.508 357.598
L254.605 357.444
L255.241 357.381
L258.002 357.645
L258.449 357.459
L259.682 357.331
L259.691 357.251
L261.255 357.47
L261.255 357.384
L262.556 357.614
L262.556 357.53
L262.598 357.456
L263.363 357.488
L263.511 357.392
L264.735 357.222
L264.791 357.099
L266.488 357.285
L266.585 357.241
L269.732 357.064
L272.792 357.488
L272.792 357.409
L273.225 357.41
L274.169 357.56
L274.169 357.482
L274.174 357.404
L275.059 357.399
L278.633 357.748
L280.873 357.704
L280.873 357.631
L281.684 357.258
L282.102 357.136
L282.774 356.935
L284.146 357.015
L285.741 357.128
L285.795 357.072
L287.966 357.32
L287.971 357.249
L288.995 357.199
L289.723 357.23
L290.372 357.191
L292.139 357.235
L294.118 357.18
L295.041 357.226
L297.512 357.305
L297.618 357.125
L299.036 357.054
L300.89 357.094
L302.162 356.976
L303.358 356.918
L303.845 356.807
L303.872 356.681
L304.707 356.743
L304.707 356.678
L304.763 356.621
L305.579 356.556
L306 356.57
L308.198 356.713
L309.672 356.437
L309.746 356.329
L311.689 355.844
L312.948 355.849
L313.279 355.788
L314.016 355.697
L314.039 355.643
L314.813 355.548
L315.568 355.428
L317.791 355.359
L318.615 355.477
L318.615 355.417
L319.273 355.387
L319.334 355.281
L322.82 355.346
L322.889 355.306
L324.238 355.346
L324.382 355.203
L325.314 355.18
L325.356 355.135
L325.653 355.07
L325.699 355.014
L326.539 355.04
L326.543 354.983
L326.927 354.881
L328.49 354.94
L328.49 354.884
L328.93 354.876
L329.259 354.807
L332.395 354.705
L332.495 354.508
L333.585 354.53
L334.002 354.332
L334.599 354.281
L334.679 354.19
L335.542 354.179
L336.365 354.107
L340.191 353.899
L340.474 353.889
L341.778 353.872
L341.778 353.821
L344.299 353.623
L344.308 353.573
L348.225 353.631
L348.323 353.612
L350.066 353.675
L350.893 353.601
L351.104 353.558
L351.865 353.551
L352.931 353.6
L353.789 353.448
L355.986 353.582
L356.079 353.509
L360.701 353.892
L360.706 353.847
L363.622 354.072
L364.387 354.009
L367.154 354.235
L367.154 354.189
L367.956 354.201
L367.961 354.157
L369.848 354.125
L369.848 354.08
L372.259 354.1
L372.3 354.019
L373.589 354.047
L373.645 353.968
L375.091 354.093
L375.184 354.029
L376.969 353.633
L378.188 353.619
L378.188 353.576
L378.462 353.521
L383.473 353.71
L383.696 353.629
L386.598 353.703
L387.139 353.634
L387.14 353.592
L389.389 353.634
L394.294 353.701
L394.521 353.669
L398.225 353.805
L398.248 353.727
L402.249 353.591
L402.513 353.566
L404.348 353.592
L404.372 353.557
L416.407 353.302
L416.407 353.264
L416.933 353.182
L416.97 353.148
L418.75 353.075
L420.92 352.924
L420.982 352.856
L424.437 352.89
L424.505 352.825
L425.921 352.875
L425.921 352.838
L426.087 352.805
L427.688 352.798
L428.844 352.546
L428.974 352.459
L429.357 352.355
L429.484 352.303
L430.625 352.277
L431.224 352.227
L432.498 352.137
L433.765 352.122
L434.71 352.002
L435.557 351.934
L435.934 351.769
L436.478 351.714
L436.54 351.618
L437.838 351.612
L437.925 351.523
L439.192 351.427
L439.229 351.4
L440.323 351.368
L440.41 351.343
L441.831 351.379
L442.283 351.154
L442.314 351.087
L443.696 351.031
L444.057 350.913
L444.156 350.823
L445.021 350.648
L445.305 350.577
L446.708 350.636
L446.708 350.602
L446.746 350.543
L447.191 350.49
L447.191 350.456
L447.283 350.37
L449.873 350.243
L449.873 350.175
L450.312 350.071
L450.411 350.02
L452.785 349.706
L452.785 349.672
L456.141 349.439
L456.154 349.376
L459.207 349.032
L460.122 348.998
L460.443 348.802
L461.229 348.776
L461.229 348.745
L463.54 348.42
L464.116 348.39
L467.669 348.334
L467.669 348.302
L467.694 348.275
L468.405 348.182
L468.43 348.122
L468.986 348.012
L469.066 347.999
L470.241 348.008
L470.297 347.926
L471.119 347.925
L471.119 347.895
L471.762 347.75
L472.893 347.735
L472.893 347.703
L475.953 347.732
L476.095 347.674
L477.022 347.684
L477.028 347.653
L477.801 347.578
L477.887 347.548
L478.388 347.48
L479.562 347.526
L479.655 347.482
L479.779 347.418
L482.758 347.296
L483.624 347.212
L484.446 347.155
L484.483 347.129
L485.905 347.061
L486.01 346.934
L486.356 346.822
L486.387 346.737
L488.532 346.614
L488.538 346.586
L489.372 346.5
L489.867 346.408
L490.324 346.297
L490.442 346.288
L492.024 346.359
L492.024 346.329
L492.179 346.272
L492.605 346.128
L501.123 345.606
L501.142 345.55
L501.958 345.523
L501.958 345.466
L503.509 345.277
L503.719 345.21
L503.781 345.19
L504.585 345.128
L504.733 345.042
L507.138 344.903
L507.848 344.859
L509.789 344.856
L510.309 344.751
L510.488 344.727
L511.65 344.71
L511.65 344.683
L512.169 344.652
L513.764 344.645
L514.017 344.554
L518.4 344.401
L518.4 344.401" style="fill:none;stroke:#008000;stroke-linecap:square;"/>
   </g>
   <g id="matplotlib.axis_1">
    <g id="xtick_1">
     <g id="line2d_3">
      <defs>
       <path d="
M0 0
L0 -4" id="m93b0483c22" style="stroke:#000000;stroke-width:0.5;"/>
      </defs>
      <g>
       <use style="stroke:#000000;stroke-width:0.5;" x="112.599238406" xlink:href="#m93b0483c22" y="388.8"/>
      </g>
     </g>
     <g id="line2d_4">
      <defs>
       <path d="
M0 0
L0 4" id="m741efc42ff" style="stroke:#000000;stroke-width:0.5;"/>
      </defs>
      <g>
       <use style="stroke:#000000;stroke-width:0.5;" x="112.599238406" xlink:href="#m741efc42ff" y="43.2"/>
      </g>
     </g>
     <g id="text_1">
      <!-- Nov 2013 -->
      <defs>
       <path d="
M9.8125 72.9062
L23.0938 72.9062
L55.4219 11.9219
L55.4219 72.9062
L64.9844 72.9062
L64.9844 0
L51.7031 0
L19.3906 60.9844
L19.3906 0
L9.8125 0
z
" id="DejaVuSans-4e"/>
       <path d="
M30.6094 48.3906
Q23.3906 48.3906 19.1875 42.75
Q14.9844 37.1094 14.9844 27.2969
Q14.9844 17.4844 19.1562 11.8438
Q23.3438 6.20312 30.6094 6.20312
Q37.7969 6.20312 41.9844 11.8594
Q46.1875 17.5312 46.1875 27.2969
Q46.1875 37.0156 41.9844 42.7031
Q37.7969 48.3906 30.6094 48.3906
M30.6094 56
Q42.3281 56 49.0156 48.375
Q55.7188 40.7656 55.7188 27.2969
Q55.7188 13.875 49.0156 6.21875
Q42.3281 -1.42188 30.6094 -1.42188
Q18.8438 -1.42188 12.1719 6.21875
Q5.51562 13.875 5.51562 27.2969
Q5.51562 40.7656 12.1719 48.375
Q18.8438 56 30.6094 56" id="DejaVuSans-6f"/>
       <path d="
M40.5781 39.3125
Q47.6562 37.7969 51.625 33
Q55.6094 28.2188 55.6094 21.1875
Q55.6094 10.4062 48.1875 4.48438
Q40.7656 -1.42188 27.0938 -1.42188
Q22.5156 -1.42188 17.6562 -0.515625
Q12.7969 0.390625 7.625 2.20312
L7.625 11.7188
Q11.7188 9.32812 16.5938 8.10938
Q21.4844 6.89062 26.8125 6.89062
Q36.0781 6.89062 40.9375 10.5469
Q45.7969 14.2031 45.7969 21.1875
Q45.7969 27.6406 41.2812 31.2656
Q36.7656 34.9062 28.7188 34.9062
L20.2188 34.9062
L20.2188 43.0156
L29.1094 43.0156
Q36.375 43.0156 40.2344 45.9219
Q44.0938 48.8281 44.0938 54.2969
Q44.0938 59.9062 40.1094 62.9062
Q36.1406 65.9219 28.7188 65.9219
Q24.6562 65.9219 20.0156 65.0312
Q15.375 64.1562 9.8125 62.3125
L9.8125 71.0938
Q15.4375 72.6562 20.3438 73.4375
Q25.25 74.2188 29.5938 74.2188
Q40.8281 74.2188 47.3594 69.1094
Q53.9062 64.0156 53.9062 55.3281
Q53.9062 49.2656 50.4375 45.0938
Q46.9688 40.9219 40.5781 39.3125" id="DejaVuSans-33"/>
       <path d="
M12.4062 8.29688
L28.5156 8.29688
L28.5156 63.9219
L10.9844 60.4062
L10.9844 69.3906
L28.4219 72.9062
L38.2812 72.9062
L38.2812 8.29688
L54.3906 8.29688
L54.3906 0
L12.4062 0
z
" id="DejaVuSans-31"/>
       <path d="
M31.7812 66.4062
Q24.1719 66.4062 20.3281 58.9062
Q16.5 51.4219 16.5 36.375
Q16.5 21.3906 20.3281 13.8906
Q24.1719 6.39062 31.7812 6.39062
Q39.4531 6.39062 43.2812 13.8906
Q47.125 21.3906 47.125 36.375
Q47.125 51.4219 43.2812 58.9062
Q39.4531 66.4062 31.7812 66.4062
M31.7812 74.2188
Q44.0469 74.2188 50.5156 64.5156
Q56.9844 54.8281 56.9844 36.375
Q56.9844 17.9688 50.5156 8.26562
Q44.0469 -1.42188 31.7812 -1.42188
Q19.5312 -1.42188 13.0625 8.26562
Q6.59375 17.9688 6.59375 36.375
Q6.59375 54.8281 13.0625 64.5156
Q19.5312 74.2188 31.7812 74.2188" id="DejaVuSans-30"/>
       <path id="DejaVuSans-20"/>
       <path d="
M19.1875 8.29688
L53.6094 8.29688
L53.6094 0
L7.32812 0
L7.32812 8.29688
Q12.9375 14.1094 22.625 23.8906
Q32.3281 33.6875 34.8125 36.5312
Q39.5469 41.8438 41.4219 45.5312
Q43.3125 49.2188 43.3125 52.7812
Q43.3125 58.5938 39.2344 62.25
Q35.1562 65.9219 28.6094 65.9219
Q23.9688 65.9219 18.8125 64.3125
Q13.6719 62.7031 7.8125 59.4219
L7.8125 69.3906
Q13.7656 71.7812 18.9375 73
Q24.125 74.2188 28.4219 74.2188
Q39.75 74.2188 46.4844 68.5469
Q53.2188 62.8906 53.2188 53.4219
Q53.2188 48.9219 51.5312 44.8906
Q49.8594 40.875 45.4062 35.4062
Q44.1875 33.9844 37.6406 27.2188
Q31.1094 20.4531 19.1875 8.29688" id="DejaVuSans-32"/>
       <path d="
M2.98438 54.6875
L12.5 54.6875
L29.5938 8.79688
L46.6875 54.6875
L56.2031 54.6875
L35.6875 0
L23.4844 0
z
" id="DejaVuSans-76"/>
      </defs>
      <g transform="translate(84.1920509065 401.918125)scale(0.12 -0.12)">
       <use xlink:href="#DejaVuSans-4e"/>
       <use x="74.8046875" xlink:href="#DejaVuSans-6f"/>
       <use x="135.986328125" xlink:href="#DejaVuSans-76"/>
       <use x="195.166015625" xlink:href="#DejaVuSans-20"/>
       <use x="226.953125" xlink:href="#DejaVuSans-32"/>
       <use x="290.576171875" xlink:href="#DejaVuSans-30"/>
       <use x="354.19921875" xlink:href="#DejaVuSans-31"/>
       <use x="417.822265625" xlink:href="#DejaVuSans-33"/>
      </g>
     </g>
    </g>
    <g id="xtick_2">
     <g id="line2d_5">
      <g>
       <use style="stroke:#000000;stroke-width:0.5;" x="153.544633535" xlink:href="#m93b0483c22" y="388.8"/>
      </g>
     </g>
     <g id="line2d_6">
      <g>
       <use style="stroke:#000000;stroke-width:0.5;" x="153.544633535" xlink:href="#m741efc42ff" y="43.2"/>
      </g>
     </g>
     <g id="text_2">
      <!-- Feb 2014 -->
      <defs>
       <path d="
M9.8125 72.9062
L51.7031 72.9062
L51.7031 64.5938
L19.6719 64.5938
L19.6719 43.1094
L48.5781 43.1094
L48.5781 34.8125
L19.6719 34.8125
L19.6719 0
L9.8125 0
z
" id="DejaVuSans-46"/>
       <path d="
M56.2031 29.5938
L56.2031 25.2031
L14.8906 25.2031
Q15.4844 15.9219 20.4844 11.0625
Q25.4844 6.20312 34.4219 6.20312
Q39.5938 6.20312 44.4531 7.46875
Q49.3125 8.73438 54.1094 11.2812
L54.1094 2.78125
Q49.2656 0.734375 44.1875 -0.34375
Q39.1094 -1.42188 33.8906 -1.42188
Q20.7969 -1.42188 13.1562 6.1875
Q5.51562 13.8125 5.51562 26.8125
Q5.51562 40.2344 12.7656 48.1094
Q20.0156 56 32.3281 56
Q43.3594 56 49.7812 48.8906
Q56.2031 41.7969 56.2031 29.5938
M47.2188 32.2344
Q47.125 39.5938 43.0938 43.9844
Q39.0625 48.3906 32.4219 48.3906
Q24.9062 48.3906 20.3906 44.1406
Q15.875 39.8906 15.1875 32.1719
z
" id="DejaVuSans-65"/>
       <path d="
M48.6875 27.2969
Q48.6875 37.2031 44.6094 42.8438
Q40.5312 48.4844 33.4062 48.4844
Q26.2656 48.4844 22.1875 42.8438
Q18.1094 37.2031 18.1094 27.2969
Q18.1094 17.3906 22.1875 11.75
Q26.2656 6.10938 33.4062 6.10938
Q40.5312 6.10938 44.6094 11.75
Q48.6875 17.3906 48.6875 27.2969
M18.1094 46.3906
Q20.9531 51.2656 25.2656 53.625
Q29.5938 56 35.5938 56
Q45.5625 56 51.7812 48.0938
Q58.0156 40.1875 58.0156 27.2969
Q58.0156 14.4062 51.7812 6.48438
Q45.5625 -1.42188 35.5938 -1.42188
Q29.5938 -1.42188 25.2656 0.953125
Q20.9531 3.32812 18.1094 8.20312
L18.1094 0
L9.07812 0
L9.07812 75.9844
L18.1094 75.9844
z
" id="DejaVuSans-62"/>
       <path d="
M37.7969 64.3125
L12.8906 25.3906
L37.7969 25.3906
z

M35.2031 72.9062
L47.6094 72.9062
L47.6094 25.3906
L58.0156 25.3906
L58.0156 17.1875
L47.6094 17.1875
L47.6094 0
L37.7969 0
L37.7969 17.1875
L4.89062 17.1875
L4.89062 26.7031
z
" id="DejaVuSans-34"/>
      </defs>
      <g transform="translate(126.082446035 401.918125)scale(0.12 -0.12)">
       <use xlink:href="#DejaVuSans-46"/>
       <use x="52.01953125" xlink:href="#DejaVuSans-65"/>
       <use x="113.54296875" xlink:href="#DejaVuSans-62"/>
       <use x="177.01953125" xlink:href="#DejaVuSans-20"/>
       <use x="208.806640625" xlink:href="#DejaVuSans-32"/>
       <use x="272.4296875" xlink:href="#DejaVuSans-30"/>
       <use x="336.052734375" xlink:href="#DejaVuSans-31"/>
       <use x="399.67578125" xlink:href="#DejaVuSans-34"/>
      </g>
     </g>
    </g>
    <g id="xtick_3">
     <g id="line2d_7">
      <g>
       <use style="stroke:#000000;stroke-width:0.5;" x="193.154852736" xlink:href="#m93b0483c22" y="388.8"/>
      </g>
     </g>
     <g id="line2d_8">
      <g>
       <use style="stroke:#000000;stroke-width:0.5;" x="193.154852736" xlink:href="#m741efc42ff" y="43.2"/>
      </g>
     </g>
     <g id="text_3">
      <!-- May 2014 -->
      <defs>
       <path d="
M9.8125 72.9062
L24.5156 72.9062
L43.1094 23.2969
L61.8125 72.9062
L76.5156 72.9062
L76.5156 0
L66.8906 0
L66.8906 64.0156
L48.0938 14.0156
L38.1875 14.0156
L19.3906 64.0156
L19.3906 0
L9.8125 0
z
" id="DejaVuSans-4d"/>
       <path d="
M32.1719 -5.07812
Q28.375 -14.8438 24.75 -17.8125
Q21.1406 -20.7969 15.0938 -20.7969
L7.90625 -20.7969
L7.90625 -13.2812
L13.1875 -13.2812
Q16.8906 -13.2812 18.9375 -11.5156
Q21 -9.76562 23.4844 -3.21875
L25.0938 0.875
L2.98438 54.6875
L12.5 54.6875
L29.5938 11.9219
L46.6875 54.6875
L56.2031 54.6875
z
" id="DejaVuSans-79"/>
       <path d="
M34.2812 27.4844
Q23.3906 27.4844 19.1875 25
Q14.9844 22.5156 14.9844 16.5
Q14.9844 11.7188 18.1406 8.90625
Q21.2969 6.10938 26.7031 6.10938
Q34.1875 6.10938 38.7031 11.4062
Q43.2188 16.7031 43.2188 25.4844
L43.2188 27.4844
z

M52.2031 31.2031
L52.2031 0
L43.2188 0
L43.2188 8.29688
Q40.1406 3.32812 35.5469 0.953125
Q30.9531 -1.42188 24.3125 -1.42188
Q15.9219 -1.42188 10.9531 3.29688
Q6 8.01562 6 15.9219
Q6 25.1406 12.1719 29.8281
Q18.3594 34.5156 30.6094 34.5156
L43.2188 34.5156
L43.2188 35.4062
Q43.2188 41.6094 39.1406 45
Q35.0625 48.3906 27.6875 48.3906
Q23 48.3906 18.5469 47.2656
Q14.1094 46.1406 10.0156 43.8906
L10.0156 52.2031
Q14.9375 54.1094 19.5781 55.0469
Q24.2188 56 28.6094 56
Q40.4844 56 46.3438 49.8438
Q52.2031 43.7031 52.2031 31.2031" id="DejaVuSans-61"/>
      </defs>
      <g transform="translate(163.909540236 401.918125)scale(0.12 -0.12)">
       <use xlink:href="#DejaVuSans-4d"/>
       <use x="86.279296875" xlink:href="#DejaVuSans-61"/>
       <use x="147.55859375" xlink:href="#DejaVuSans-79"/>
       <use x="206.73828125" xlink:href="#DejaVuSans-20"/>
       <use x="238.525390625" xlink:href="#DejaVuSans-32"/>
       <use x="302.1484375" xlink:href="#DejaVuSans-30"/>
       <use x="365.771484375" xlink:href="#DejaVuSans-31"/>
       <use x="429.39453125" xlink:href="#DejaVuSans-34"/>
      </g>
     </g>
    </g>
    <g id="xtick_4">
     <g id="line2d_9">
      <g>
       <use style="stroke:#000000;stroke-width:0.5;" x="234.100247864" xlink:href="#m93b0483c22" y="388.8"/>
      </g>
     </g>
     <g id="line2d_10">
      <g>
       <use style="stroke:#000000;stroke-width:0.5;" x="234.100247864" xlink:href="#m741efc42ff" y="43.2"/>
      </g>
     </g>
     <g id="text_4">
      <!-- Aug 2014 -->
      <defs>
       <path d="
M8.5 21.5781
L8.5 54.6875
L17.4844 54.6875
L17.4844 21.9219
Q17.4844 14.1562 20.5 10.2656
Q23.5312 6.39062 29.5938 6.39062
Q36.8594 6.39062 41.0781 11.0312
Q45.3125 15.6719 45.3125 23.6875
L45.3125 54.6875
L54.2969 54.6875
L54.2969 0
L45.3125 0
L45.3125 8.40625
Q42.0469 3.42188 37.7188 1
Q33.4062 -1.42188 27.6875 -1.42188
Q18.2656 -1.42188 13.375 4.4375
Q8.5 10.2969 8.5 21.5781
M31.1094 56
z
" id="DejaVuSans-75"/>
       <path d="
M45.4062 27.9844
Q45.4062 37.75 41.375 43.1094
Q37.3594 48.4844 30.0781 48.4844
Q22.8594 48.4844 18.8281 43.1094
Q14.7969 37.75 14.7969 27.9844
Q14.7969 18.2656 18.8281 12.8906
Q22.8594 7.51562 30.0781 7.51562
Q37.3594 7.51562 41.375 12.8906
Q45.4062 18.2656 45.4062 27.9844
M54.3906 6.78125
Q54.3906 -7.17188 48.1875 -13.9844
Q42 -20.7969 29.2031 -20.7969
Q24.4688 -20.7969 20.2656 -20.0938
Q16.0625 -19.3906 12.1094 -17.9219
L12.1094 -9.1875
Q16.0625 -11.3281 19.9219 -12.3438
Q23.7812 -13.375 27.7812 -13.375
Q36.625 -13.375 41.0156 -8.76562
Q45.4062 -4.15625 45.4062 5.17188
L45.4062 9.625
Q42.625 4.78125 38.2812 2.39062
Q33.9375 0 27.875 0
Q17.8281 0 11.6719 7.65625
Q5.51562 15.3281 5.51562 27.9844
Q5.51562 40.6719 11.6719 48.3281
Q17.8281 56 27.875 56
Q33.9375 56 38.2812 53.6094
Q42.625 51.2188 45.4062 46.3906
L45.4062 54.6875
L54.3906 54.6875
z
" id="DejaVuSans-67"/>
       <path d="
M34.1875 63.1875
L20.7969 26.9062
L47.6094 26.9062
z

M28.6094 72.9062
L39.7969 72.9062
L67.5781 0
L57.3281 0
L50.6875 18.7031
L17.8281 18.7031
L11.1875 0
L0.78125 0
z
" id="DejaVuSans-41"/>
      </defs>
      <g transform="translate(205.543997864 401.918125)scale(0.12 -0.12)">
       <use xlink:href="#DejaVuSans-41"/>
       <use x="68.408203125" xlink:href="#DejaVuSans-75"/>
       <use x="131.787109375" xlink:href="#DejaVuSans-67"/>
       <use x="195.263671875" xlink:href="#DejaVuSans-20"/>
       <use x="227.05078125" xlink:href="#DejaVuSans-32"/>
       <use x="290.673828125" xlink:href="#DejaVuSans-30"/>
       <use x="354.296875" xlink:href="#DejaVuSans-31"/>
       <use x="417.919921875" xlink:href="#DejaVuSans-34"/>
      </g>
     </g>
    </g>
    <g id="xtick_5">
     <g id="line2d_11">
      <g>
       <use style="stroke:#000000;stroke-width:0.5;" x="275.045642993" xlink:href="#m93b0483c22" y="388.8"/>
      </g>
     </g>
     <g id="line2d_12">
      <g>
       <use style="stroke:#000000;stroke-width:0.5;" x="275.045642993" xlink:href="#m741efc42ff" y="43.2"/>
      </g>
     </g>
     <g id="text_5">
      <!-- Nov 2014 -->
      <g transform="translate(246.494080493 401.918125)scale(0.12 -0.12)">
       <use xlink:href="#DejaVuSans-4e"/>
       <use x="74.8046875" xlink:href="#DejaVuSans-6f"/>
       <use x="135.986328125" xlink:href="#DejaVuSans-76"/>
       <use x="195.166015625" xlink:href="#DejaVuSans-20"/>
       <use x="226.953125" xlink:href="#DejaVuSans-32"/>
       <use x="290.576171875" xlink:href="#DejaVuSans-30"/>
       <use x="354.19921875" xlink:href="#DejaVuSans-31"/>
       <use x="417.822265625" xlink:href="#DejaVuSans-34"/>
      </g>
     </g>
    </g>
    <g id="xtick_6">
     <g id="line2d_13">
      <g>
       <use style="stroke:#000000;stroke-width:0.5;" x="315.991038121" xlink:href="#m93b0483c22" y="388.8"/>
      </g>
     </g>
     <g id="line2d_14">
      <g>
       <use style="stroke:#000000;stroke-width:0.5;" x="315.991038121" xlink:href="#m741efc42ff" y="43.2"/>
      </g>
     </g>
     <g id="text_6">
      <!-- Feb 2015 -->
      <defs>
       <path d="
M10.7969 72.9062
L49.5156 72.9062
L49.5156 64.5938
L19.8281 64.5938
L19.8281 46.7344
Q21.9688 47.4688 24.1094 47.8281
Q26.2656 48.1875 28.4219 48.1875
Q40.625 48.1875 47.75 41.5
Q54.8906 34.8125 54.8906 23.3906
Q54.8906 11.625 47.5625 5.09375
Q40.2344 -1.42188 26.9062 -1.42188
Q22.3125 -1.42188 17.5469 -0.640625
Q12.7969 0.140625 7.71875 1.70312
L7.71875 11.625
Q12.1094 9.23438 16.7969 8.0625
Q21.4844 6.89062 26.7031 6.89062
Q35.1562 6.89062 40.0781 11.3281
Q45.0156 15.7656 45.0156 23.3906
Q45.0156 31 40.0781 35.4375
Q35.1562 39.8906 26.7031 39.8906
Q22.75 39.8906 18.8125 39.0156
Q14.8906 38.1406 10.7969 36.2812
z
" id="DejaVuSans-35"/>
      </defs>
      <g transform="translate(288.716350621 401.918125)scale(0.12 -0.12)">
       <use xlink:href="#DejaVuSans-46"/>
       <use x="52.01953125" xlink:href="#DejaVuSans-65"/>
       <use x="113.54296875" xlink:href="#DejaVuSans-62"/>
       <use x="177.01953125" xlink:href="#DejaVuSans-20"/>
       <use x="208.806640625" xlink:href="#DejaVuSans-32"/>
       <use x="272.4296875" xlink:href="#DejaVuSans-30"/>
       <use x="336.052734375" xlink:href="#DejaVuSans-31"/>
       <use x="399.67578125" xlink:href="#DejaVuSans-35"/>
      </g>
     </g>
    </g>
    <g id="xtick_7">
     <g id="line2d_15">
      <g>
       <use style="stroke:#000000;stroke-width:0.5;" x="355.601257322" xlink:href="#m93b0483c22" y="388.8"/>
      </g>
     </g>
     <g id="line2d_16">
      <g>
       <use style="stroke:#000000;stroke-width:0.5;" x="355.601257322" xlink:href="#m741efc42ff" y="43.2"/>
      </g>
     </g>
     <g id="text_7">
      <!-- May 2015 -->
      <g transform="translate(326.543444822 401.918125)scale(0.12 -0.12)">
       <use xlink:href="#DejaVuSans-4d"/>
       <use x="86.279296875" xlink:href="#DejaVuSans-61"/>
       <use x="147.55859375" xlink:href="#DejaVuSans-79"/>
       <use x="206.73828125" xlink:href="#DejaVuSans-20"/>
       <use x="238.525390625" xlink:href="#DejaVuSans-32"/>
       <use x="302.1484375" xlink:href="#DejaVuSans-30"/>
       <use x="365.771484375" xlink:href="#DejaVuSans-31"/>
       <use x="429.39453125" xlink:href="#DejaVuSans-35"/>
      </g>
     </g>
    </g>
    <g id="xtick_8">
     <g id="line2d_17">
      <g>
       <use style="stroke:#000000;stroke-width:0.5;" x="396.54665245" xlink:href="#m93b0483c22" y="388.8"/>
      </g>
     </g>
     <g id="line2d_18">
      <g>
       <use style="stroke:#000000;stroke-width:0.5;" x="396.54665245" xlink:href="#m741efc42ff" y="43.2"/>
      </g>
     </g>
     <g id="text_8">
      <!-- Aug 2015 -->
      <g transform="translate(368.17790245 401.918125)scale(0.12 -0.12)">
       <use xlink:href="#DejaVuSans-41"/>
       <use x="68.408203125" xlink:href="#DejaVuSans-75"/>
       <use x="131.787109375" xlink:href="#DejaVuSans-67"/>
       <use x="195.263671875" xlink:href="#DejaVuSans-20"/>
       <use x="227.05078125" xlink:href="#DejaVuSans-32"/>
       <use x="290.673828125" xlink:href="#DejaVuSans-30"/>
       <use x="354.296875" xlink:href="#DejaVuSans-31"/>
       <use x="417.919921875" xlink:href="#DejaVuSans-35"/>
      </g>
     </g>
    </g>
    <g id="xtick_9">
     <g id="line2d_19">
      <g>
       <use style="stroke:#000000;stroke-width:0.5;" x="437.492047579" xlink:href="#m93b0483c22" y="388.8"/>
      </g>
     </g>
     <g id="line2d_20">
      <g>
       <use style="stroke:#000000;stroke-width:0.5;" x="437.492047579" xlink:href="#m741efc42ff" y="43.2"/>
      </g>
     </g>
     <g id="text_9">
      <!-- Nov 2015 -->
      <g transform="translate(409.127985079 401.918125)scale(0.12 -0.12)">
       <use xlink:href="#DejaVuSans-4e"/>
       <use x="74.8046875" xlink:href="#DejaVuSans-6f"/>
       <use x="135.986328125" xlink:href="#DejaVuSans-76"/>
       <use x="195.166015625" xlink:href="#DejaVuSans-20"/>
       <use x="226.953125" xlink:href="#DejaVuSans-32"/>
       <use x="290.576171875" xlink:href="#DejaVuSans-30"/>
       <use x="354.19921875" xlink:href="#DejaVuSans-31"/>
       <use x="417.822265625" xlink:href="#DejaVuSans-35"/>
      </g>
     </g>
    </g>
    <g id="xtick_10">
     <g id="line2d_21">
      <g>
       <use style="stroke:#000000;stroke-width:0.5;" x="478.437442707" xlink:href="#m93b0483c22" y="388.8"/>
      </g>
     </g>
     <g id="line2d_22">
      <g>
       <use style="stroke:#000000;stroke-width:0.5;" x="478.437442707" xlink:href="#m741efc42ff" y="43.2"/>
      </g>
     </g>
     <g id="text_10">
      <!-- Feb 2016 -->
      <defs>
       <path d="
M33.0156 40.375
Q26.375 40.375 22.4844 35.8281
Q18.6094 31.2969 18.6094 23.3906
Q18.6094 15.5312 22.4844 10.9531
Q26.375 6.39062 33.0156 6.39062
Q39.6562 6.39062 43.5312 10.9531
Q47.4062 15.5312 47.4062 23.3906
Q47.4062 31.2969 43.5312 35.8281
Q39.6562 40.375 33.0156 40.375
M52.5938 71.2969
L52.5938 62.3125
Q48.875 64.0625 45.0938 64.9844
Q41.3125 65.9219 37.5938 65.9219
Q27.8281 65.9219 22.6719 59.3281
Q17.5312 52.7344 16.7969 39.4062
Q19.6719 43.6562 24.0156 45.9219
Q28.375 48.1875 33.5938 48.1875
Q44.5781 48.1875 50.9531 41.5156
Q57.3281 34.8594 57.3281 23.3906
Q57.3281 12.1562 50.6875 5.35938
Q44.0469 -1.42188 33.0156 -1.42188
Q20.3594 -1.42188 13.6719 8.26562
Q6.98438 17.9688 6.98438 36.375
Q6.98438 53.6562 15.1875 63.9375
Q23.3906 74.2188 37.2031 74.2188
Q40.9219 74.2188 44.7031 73.4844
Q48.4844 72.75 52.5938 71.2969" id="DejaVuSans-36"/>
      </defs>
      <g transform="translate(451.016505207 401.918125)scale(0.12 -0.12)">
       <use xlink:href="#DejaVuSans-46"/>
       <use x="52.01953125" xlink:href="#DejaVuSans-65"/>
       <use x="113.54296875" xlink:href="#DejaVuSans-62"/>
       <use x="177.01953125" xlink:href="#DejaVuSans-20"/>
       <use x="208.806640625" xlink:href="#DejaVuSans-32"/>
       <use x="272.4296875" xlink:href="#DejaVuSans-30"/>
       <use x="336.052734375" xlink:href="#DejaVuSans-31"/>
       <use x="399.67578125" xlink:href="#DejaVuSans-36"/>
      </g>
     </g>
    </g>
   </g>
   <g id="matplotlib.axis_2">
    <g id="ytick_1">
     <g id="line2d_23">
      <defs>
       <path d="
M0 0
L4 0" id="m728421d6d4" style="stroke:#000000;stroke-width:0.5;"/>
      </defs>
      <g>
       <use style="stroke:#000000;stroke-width:0.5;" x="72.0" xlink:href="#m728421d6d4" y="388.8"/>
      </g>
     </g>
     <g id="line2d_24">
      <defs>
       <path d="
M0 0
L-4 0" id="mcb0005524f" style="stroke:#000000;stroke-width:0.5;"/>
      </defs>
      <g>
       <use style="stroke:#000000;stroke-width:0.5;" x="518.4" xlink:href="#mcb0005524f" y="388.8"/>
      </g>
     </g>
     <g id="text_11">
      <!-- 0 -->
      <g transform="translate(61.953125 392.11125)scale(0.12 -0.12)">
       <use xlink:href="#DejaVuSans-30"/>
      </g>
     </g>
    </g>
    <g id="ytick_2">
     <g id="line2d_25">
      <g>
       <use style="stroke:#000000;stroke-width:0.5;" x="72.0" xlink:href="#m728421d6d4" y="331.2"/>
      </g>
     </g>
     <g id="line2d_26">
      <g>
       <use style="stroke:#000000;stroke-width:0.5;" x="518.4" xlink:href="#mcb0005524f" y="331.2"/>
      </g>
     </g>
     <g id="text_12">
      <!-- 1000 -->
      <g transform="translate(39.575 334.51125)scale(0.12 -0.12)">
       <use xlink:href="#DejaVuSans-31"/>
       <use x="63.623046875" xlink:href="#DejaVuSans-30"/>
       <use x="127.24609375" xlink:href="#DejaVuSans-30"/>
       <use x="190.869140625" xlink:href="#DejaVuSans-30"/>
      </g>
     </g>
    </g>
    <g id="ytick_3">
     <g id="line2d_27">
      <g>
       <use style="stroke:#000000;stroke-width:0.5;" x="72.0" xlink:href="#m728421d6d4" y="273.6"/>
      </g>
     </g>
     <g id="line2d_28">
      <g>
       <use style="stroke:#000000;stroke-width:0.5;" x="518.4" xlink:href="#mcb0005524f" y="273.6"/>
      </g>
     </g>
     <g id="text_13">
      <!-- 2000 -->
      <g transform="translate(39.13625 276.91125)scale(0.12 -0.12)">
       <use xlink:href="#DejaVuSans-32"/>
       <use x="63.623046875" xlink:href="#DejaVuSans-30"/>
       <use x="127.24609375" xlink:href="#DejaVuSans-30"/>
       <use x="190.869140625" xlink:href="#DejaVuSans-30"/>
      </g>
     </g>
    </g>
    <g id="ytick_4">
     <g id="line2d_29">
      <g>
       <use style="stroke:#000000;stroke-width:0.5;" x="72.0" xlink:href="#m728421d6d4" y="216.0"/>
      </g>
     </g>
     <g id="line2d_30">
      <g>
       <use style="stroke:#000000;stroke-width:0.5;" x="518.4" xlink:href="#mcb0005524f" y="216.0"/>
      </g>
     </g>
     <g id="text_14">
      <!-- 3000 -->
      <g transform="translate(39.171875 219.31125)scale(0.12 -0.12)">
       <use xlink:href="#DejaVuSans-33"/>
       <use x="63.623046875" xlink:href="#DejaVuSans-30"/>
       <use x="127.24609375" xlink:href="#DejaVuSans-30"/>
       <use x="190.869140625" xlink:href="#DejaVuSans-30"/>
      </g>
     </g>
    </g>
    <g id="ytick_5">
     <g id="line2d_31">
      <g>
       <use style="stroke:#000000;stroke-width:0.5;" x="72.0" xlink:href="#m728421d6d4" y="158.4"/>
      </g>
     </g>
     <g id="line2d_32">
      <g>
       <use style="stroke:#000000;stroke-width:0.5;" x="518.4" xlink:href="#mcb0005524f" y="158.4"/>
      </g>
     </g>
     <g id="text_15">
      <!-- 4000 -->
      <g transform="translate(38.84375 161.71125)scale(0.12 -0.12)">
       <use xlink:href="#DejaVuSans-34"/>
       <use x="63.623046875" xlink:href="#DejaVuSans-30"/>
       <use x="127.24609375" xlink:href="#DejaVuSans-30"/>
       <use x="190.869140625" xlink:href="#DejaVuSans-30"/>
      </g>
     </g>
    </g>
    <g id="ytick_6">
     <g id="line2d_33">
      <g>
       <use style="stroke:#000000;stroke-width:0.5;" x="72.0" xlink:href="#m728421d6d4" y="100.8"/>
      </g>
     </g>
     <g id="line2d_34">
      <g>
       <use style="stroke:#000000;stroke-width:0.5;" x="518.4" xlink:href="#mcb0005524f" y="100.8"/>
      </g>
     </g>
     <g id="text_16">
      <!-- 5000 -->
      <g transform="translate(39.183125 104.11125)scale(0.12 -0.12)">
       <use xlink:href="#DejaVuSans-35"/>
       <use x="63.623046875" xlink:href="#DejaVuSans-30"/>
       <use x="127.24609375" xlink:href="#DejaVuSans-30"/>
       <use x="190.869140625" xlink:href="#DejaVuSans-30"/>
      </g>
     </g>
    </g>
    <g id="ytick_7">
     <g id="line2d_35">
      <g>
       <use style="stroke:#000000;stroke-width:0.5;" x="72.0" xlink:href="#m728421d6d4" y="43.2"/>
      </g>
     </g>
     <g id="line2d_36">
      <g>
       <use style="stroke:#000000;stroke-width:0.5;" x="518.4" xlink:href="#mcb0005524f" y="43.2"/>
      </g>
     </g>
     <g id="text_17">
      <!-- 6000 -->
      <g transform="translate(39.095 46.51125)scale(0.12 -0.12)">
       <use xlink:href="#DejaVuSans-36"/>
       <use x="63.623046875" xlink:href="#DejaVuSans-30"/>
       <use x="127.24609375" xlink:href="#DejaVuSans-30"/>
       <use x="190.869140625" xlink:href="#DejaVuSans-30"/>
      </g>
     </g>
    </g>
   </g>
   <g id="patch_3">
    <path d="
M72 43.2
L518.4 43.2" style="fill:none;stroke:#000000;"/>
   </g>
   <g id="patch_4">
    <path d="
M518.4 388.8
L518.4 43.2" style="fill:none;stroke:#000000;"/>
   </g>
   <g id="patch_5">
    <path d="
M72 388.8
L518.4 388.8" style="fill:none;stroke:#000000;"/>
   </g>
   <g id="patch_6">
    <path d="
M72 388.8
L72 43.2" style="fill:none;stroke:#000000;"/>
   </g>
  </g>
 </g>
 <defs>
  <clipPath id="p7ff5b81e1d">
   <rect height="345.6" width="446.4" x="72.0" y="43.2"/>
  </clipPath>
 </defs>
</svg>
