<?xml version="1.0" encoding="utf-8" standalone="no"?>
<!DOCTYPE svg PUBLIC "-//W3C//DTD SVG 1.1//EN"
  "http://www.w3.org/Graphics/SVG/1.1/DTD/svg11.dtd">
<!-- Created with matplotlib (http://matplotlib.org/) -->
<svg height="432pt" version="1.1" viewBox="0 0 576 432" width="576pt" xmlns="http://www.w3.org/2000/svg" xmlns:xlink="http://www.w3.org/1999/xlink">
 <defs>
  <style type="text/css">
*{stroke-linecap:butt;stroke-linejoin:round;}
  </style>
 </defs>
 <g id="figure_1">
  <g id="patch_1">
   <path d="
M0 432
L576 432
L576 0
L0 0
z
" style="fill:#ffffff;"/>
  </g>
  <g id="axes_1">
   <g id="patch_2">
    <path d="
M72 388.8
L518.4 388.8
L518.4 43.2
L72 43.2
z
" style="fill:#ffffff;"/>
   </g>
   <g id="line2d_1">
    <path clip-path="url(#p7ff5b81e1d)" d="
M72 242
L72.0302 91.2829
L72.0458 51.8795
L72.0458 51.8795
L72.0646 160.898
L72.3015 185.341
L73.0099 305.58
L73.4281 302.739
L74.3382 321.819
L75.3102 332.25
L77.125 342.222
L77.6112 335.035
L79.3846 332.086
L80.8038 332.601
L80.82 324.96
L81.1723 312.414
L82.9839 320.318
L85.0552 322.217
L85.253 317.339
L87.595 320.808
L87.5953 314.956
L90.8683 325.555
L91.1358 322.442
L91.2642 318.781
L92.0004 318.135
L92.208 314.958
L94.2772 316.916
L95.1898 315.569
L95.4585 312.863
L95.8684 310.082
L96.6551 307.152
L97.726 311.121
L97.7276 308.112
L101.447 313.611
L102.378 312.085
L103.059 308.83
L104.195 308.328
L105.409 308.003
L105.514 302.415
L106.011 300.057
L107.391 300.88
L107.391 294.475
L107.6 291.999
L110.377 298.95
L111.066 299.371
L111.066 296.442
L111.417 291.086
L113.809 295.636
L113.975 293.148
L114.707 291.842
L114.728 289.781
L115.353 288.273
L115.353 285.511
L116.582 286.576
L118.415 289.489
L118.415 286.879
L119.748 288.359
L121.151 292.35
L121.626 290.354
L122.426 289.01
L122.516 286.787
L123.302 287.245
L124.343 288.882
L127.126 294.892
L127.569 294.181
L127.809 292.921
L128.43 298.102
L129.021 301.337
L129.228 300.186
L130.784 305.044
L131.046 304.183
L131.392 304.069
L132.571 308.867
L133.055 309.101
L133.379 308.626
L133.428 305.549
L133.964 306.061
L134.757 307.2
L135.145 305.9
L135.713 306.6
L137.312 308.356
L137.896 307.937
L138.066 307.294
L139.483 311.366
L140.302 311.803
L140.942 311.499
L142.484 314.113
L143.5 316.414
L143.58 315.522
L144.365 315.405
L144.527 314.785
L144.98 314.871
L145.409 312.092
L146.612 313.191
L146.815 312.497
L146.97 311.267
L148.033 313.008
L148.149 311.039
L149.274 313.226
L149.527 312.823
L150.903 314.508
L151.172 313.789
L151.33 312.087
L151.804 311.834
L152.608 311.923
L155.408 316.688
L156.395 317.293
L156.672 316.376
L157.44 317.057
L157.607 316.116
L157.912 315.932
L158.094 315.131
L158.645 315.15
L159.424 315.3
L160.354 315.197
L160.464 314.424
L161.737 314.491
L162.302 314.741
L162.355 313.799
L164.516 315.248
L165.868 316.733
L166.626 316.631
L168.677 318.693
L170.528 320.066
L170.552 319.252
L170.838 318.626
L171.296 318.268
L171.773 318.249
L173.247 317.403
L174.582 318.239
L175.353 318.3
L176.8 319.41
L178.341 321.455
L178.627 320.933
L178.859 318.799
L179.49 318.689
L180.118 319.016
L180.421 318.611
L180.581 315.605
L181.866 316.855
L182.29 316.661
L182.662 316.337
L183.13 316.208
L183.635 316.203
L183.764 314.908
L184.294 315.047
L184.589 314.622
L185.562 315.4
L186.092 315.459
L187.423 316.472
L187.922 316.407
L189.259 316.626
L191.983 319.583
L192.35 319.297
L192.417 318.708
L193.299 319.165
L193.733 318.914
L194.348 318.893
L194.372 318.233
L194.792 318.128
L195.29 317.414
L195.551 316.288
L196.414 316.986
L196.66 314.651
L196.86 314.133
L198.205 315.134
L198.205 314.534
L198.426 314.131
L198.661 313.033
L199.166 313.084
L199.601 312.971
L199.881 312.745
L199.891 312.102
L200.196 311.86
L200.678 312.067
L200.778 311.619
L202.562 313.324
L202.571 312.688
L205.333 315.492
L205.722 315.352
L206.493 315.426
L206.652 315.075
L207.503 315.471
L208.114 314.936
L209.006 314.577
L209.057 314.08
L209.249 313.657
L210.184 314.473
L210.57 314.298
L211.291 314.521
L211.607 314.177
L211.982 314.049
L212.035 313.548
L212.655 313.163
L214.892 314.203
L215.226 313.852
L217.486 315.615
L217.634 315.387
L218.393 315.926
L219.108 316.162
L219.429 315.984
L220.248 316.17
L222.662 317.583
L222.71 317.111
L223.043 317.117
L223.225 315.717
L226.158 317.596
L226.211 317.114
L226.63 317.182
L227.093 317.077
L227.385 316.012
L227.751 315.87
L228.724 316.275
L228.91 315.829
L229.449 315.986
L229.688 315.701
L230.556 315.916
L230.561 315.413
L230.875 314.552
L231.219 314.417
L231.419 314.077
L231.453 313.592
L231.648 313.291
L232.774 313.438
L232.855 312.522
L233.275 311.933
L233.313 311.463
L234.696 312.032
L235.137 311.854
L235.592 311.963
L235.635 311.537
L236.78 311.987
L236.809 311.536
L236.99 311.268
L237.391 311.039
L239.294 312.581
L240.138 312.715
L240.188 312.35
L240.549 312.201
L241.417 312.54
L241.502 312.164
L243.436 313.598
L244.276 313.903
L246.074 314.99
L246.143 314.609
L247.071 314.451
L247.431 313.957
L247.741 313.713
L248.147 313.627
L248.378 313.337
L248.823 313.378
L249.039 312.625
L249.42 312.577
L249.621 312.382
L249.745 312.059
L250.422 312.101
L250.632 311.84
L251.152 311.947
L251.366 311.617
L251.929 311.634
L252.578 311.798
L252.75 311.395
L252.774 310.991
L253.408 311.227
L254.123 310.574
L254.572 310.655
L256.259 312.037
L256.36 311.71
L257.367 312.401
L257.614 312.283
L258.48 312.58
L258.95 312.104
L258.97 311.775
L261.407 312.704
L261.526 312.448
L262.008 312.413
L262.56 311.63
L262.971 311.524
L263.262 310.996
L264.88 312.119
L264.946 311.791
L266.239 312.505
L266.239 312.107
L267.131 312.577
L268.056 312.877
L268.056 312.484
L270.298 313.753
L273.203 315.662
L273.575 315.451
L273.999 315.511
L274.86 315.802
L275.943 316.376
L276.126 315.835
L276.565 315.916
L277.119 315.716
L277.321 315.504
L278.077 315.766
L278.236 315.636
L278.611 315.486
L279.085 315.468
L279.085 315.121
L279.999 315.258
L280.028 315.025
L280.561 314.18
L282.07 314.819
L282.632 314.784
L284.631 315.687
L284.85 315.427
L284.917 315.145
L285.303 315.104
L285.938 315.193
L287.259 315.848
L287.316 315.568
L288.003 315.669
L288.161 315.432
L288.17 315.091
L288.909 315.306
L289.165 315.216
L289.177 314.897
L289.947 315.097
L290.536 314.879
L291.364 315.031
L293.298 315.543
L293.612 315.406
L294.204 315.456
L294.6 315.371
L294.824 315.163
L294.838 314.518
L298.525 316.072
L298.75 315.929
L300.777 316.916
L300.872 316.685
L301.142 316.509
L302.298 316.772
L303.586 317.265
L304.02 317.231
L304.669 317.376
L304.736 317.09
L305.88 317.43
L306.434 317.45
L306.453 317.155
L310.249 318.044
L311.013 318.168
L311.076 317.916
L312 317.495
L312.042 317.233
L312.272 317.05
L313.359 317.294
L313.523 316.831
L314.099 316.84
L315.668 317.638
L315.964 316.918
L317.323 317.526
L317.337 317.24
L317.786 316.881
L318.372 317.102
L319.322 317.191
L319.336 316.919
L319.894 317.043
L320.524 317.299
L320.609 316.759
L321.21 316.572
L321.449 316.384
L321.548 315.886
L321.902 315.835
L321.902 315.541
L322.866 315.765
L323.905 316.373
L324.215 316.298
L325.257 316.781
L325.261 316.502
L327.922 317.761
L329.023 317.348
L329.639 317.502
L329.658 317.249
L329.939 317.211
L330.178 317.027
L331.141 317.419
L331.489 317.04
L332.12 317.231
L332.205 317.043
L332.901 317.276
L333.154 317.184
L333.938 317.57
L334.275 317.513
L335.758 318.267
L335.887 318.189
L336.211 318.142
L336.288 317.975
L336.979 318.024
L337.271 317.804
L337.914 317.979
L338.114 317.821
L338.612 317.791
L339.326 318.054
L339.774 318.071
L339.808 317.847
L340.166 317.852
L340.313 317.725
L341.577 318.014
L341.711 317.894
L341.716 317.646
L342.493 317.44
L343.085 317.656
L344.12 317.776
L344.12 317.519
L344.344 317.408
L344.387 316.963
L345.485 317.535
L345.532 317.353
L346.591 317.424
L347.139 317.346
L347.509 317.277
L347.583 316.643
L347.95 316.602
L349.877 317.668
L351.009 318.061
L351.014 317.842
L351.457 317.843
L352.577 318.278
L353.13 318.343
L353.321 317.983
L353.681 317.737
L354.513 317.999
L354.842 317.943
L354.942 317.769
L355.142 317.7
L355.453 317.762
L355.963 317.978
L356.822 318.156
L357.14 318.007
L357.628 318.12
L357.685 317.725
L358.286 317.853
L358.347 317.643
L358.987 317.776
L360.614 318.552
L361.754 318.79
L362.14 318.28
L362.407 318.263
L362.593 318.054
L363.104 318.091
L363.242 317.989
L363.261 317.771
L363.633 317.787
L365.479 318.448
L366.442 318.925
L366.614 318.643
L366.896 318.572
L368.594 318.841
L368.641 318.649
L368.813 318.581
L369.271 318.685
L369.624 318.479
L370.211 318.688
L370.211 318.464
L370.573 318.261
L371.007 318.15
L371.045 317.956
L372.233 317.98
L372.238 317.766
L372.891 317.804
L373.196 317.731
L374.16 318.164
L374.222 317.991
L375.162 318.366
L375.243 318.224
L376.64 318.702
L376.821 318.538
L377.26 318.595
L377.399 317.913
L378.009 317.909
L378.667 317.971
L378.744 317.824
L381 318.814
L381.2 318.347
L381.405 318.01
L382.531 318.431
L382.85 318.458
L382.917 318.304
L383.342 318.37
L383.366 317.984
L384.343 317.963
L384.439 317.624
L385.56 317.7
L387.115 317.564
L388.496 317.796
L388.531 317.39
L389.384 317.331
L390.334 317.52
L390.783 317.458
L391.584 317.503
L391.598 317.312
L392.366 317.129
L393.559 317.12
L394.017 317.117
L394.293 316.982
L395.328 317.216
L395.81 317.01
L396.611 317.122
L397.031 317.06
L398.152 317.273
L398.457 317.151
L398.481 316.77
L399.013 316.805
L399.087 316.462
L399.459 316.177
L399.697 316.028
L400.637 316.214
L401.259 316.214
L405.869 316.786
L407.207 317.123
L408.097 317.2
L408.199 317.066
L409.42 316.675
L409.502 316.522
L409.782 316.402
L409.986 315.888
L412.123 315.982
L412.587 315.906
L412.644 315.743
L413.433 315.44
L414.501 315.125
L415.76 315.314
L415.83 315.15
L416.218 315.092
L416.32 314.75
L416.657 314.644
L417.738 314.695
L417.738 314.505
L418.546 314.626
L418.68 314.519
L419.57 314.471
L421.459 314.996
L421.459 314.807
L422.858 315.225
L423.182 314.959
L423.494 314.886
L424.251 314.984
L424.702 314.571
L424.702 314.386
L425.911 314.656
L426.038 314.353
L426.305 314.254
L427.17 314.423
L427.291 314.321
L428.55 314.632
L428.792 314.438
L429.593 314.595
L430.076 314.033
L431.043 314.06
L431.768 314.201
L432.022 314.023
L432.353 313.945
L432.353 313.768
L432.487 313.695
L432.821 313.653
L432.836 313.303
L433.256 313.134
L433.275 312.968
L433.816 313.049
L433.828 312.871
L434.293 312.775
L434.305 312.617
L434.719 312.458
L436.417 312.7
L436.531 312.416
L436.843 312.329
L438.153 312.793
L438.185 312.625
L439.094 312.704
L439.285 312.448
L440.131 312.713
L440.144 312.543
L440.595 312.219
L441.047 312.102
L441.11 311.971
L441.664 311.882
L442.363 312.037
L444.118 312.767
L445.066 312.839
L445.072 312.677
L445.32 312.714
L445.594 312.612
L445.594 312.09
L445.721 311.975
L446.949 311.793
L447.088 311.737
L447.088 311.566
L448.895 312.075
L448.895 311.905
L449.378 311.769
L449.721 311.718
L450.637 311.987
L450.765 311.887
L451.279 311.788
L451.547 311.554
L452.074 311.665
L452.094 311.514
L452.437 311.483
L453.257 311.668
L453.257 311.5
L453.442 311.452
L454.726 311.926
L454.752 311.78
L455.146 311.623
L456.068 311.565
L456.921 311.714
L457.003 311.444
L457.48 311.382
L457.62 311.338
L457.62 311.173
L457.925 311.001
L458.027 310.889
L458.402 310.901
L458.58 310.697
L459.42 310.69
L459.445 310.546
L460.857 310.946
L461.341 310.66
L461.684 310.634
L461.735 310.492
L462.027 310.418
L462.504 310.484
L462.651 310.276
L462.733 310.185
L463.032 310.133
L464.368 310.184
L466.32 310.504
L466.333 310.349
L466.568 310.256
L466.581 310.103
L467.223 310.315
L468.883 310.112
L469.475 310.276
L469.545 310.158
L470.003 310.045
L470.003 309.916
L470.486 309.846
L470.524 309.719
L470.714 309.615
L471.274 309.573
L471.821 309.193
L472.133 309.148
L473.634 309.595
L474.429 309.61
L474.83 309.663
L474.83 309.506
L474.976 309.452
L476.731 310.016
L476.826 309.773
L477.526 309.849
L477.825 309.909
L478.2 309.825
L478.505 309.813
L478.537 309.529
L478.715 309.502
L478.753 308.904
L478.932 308.786
L479.173 308.794
L479.224 308.526
L480.013 308.588
L480.102 308.47
L481.94 308.817
L481.952 308.669
L482.162 308.582
L482.162 308.43
L482.391 308.443
L483.212 307.906
L483.778 307.918
L484.465 307.87
L484.688 307.429
L485.527 307.629
L485.552 307.503
L486.01 307.4
L486.748 307.548
L486.805 307.426
L486.964 307.414
L487.46 307.445
L488.16 307.489
L488.198 307.36
L489.431 307.361
L489.718 307.232
L489.718 307.083
L490.195 306.855
L491.88 307.199
L492.02 307.144
L493.858 307.475
L494.182 307.445
L495.543 307.578
L496.09 307.627
L496.116 307.488
L496.599 307.278
L496.936 307.196
L496.974 307.068
L501.019 307.924
L502.056 308.262
L502.723 307.907
L503.251 307.984
L503.308 307.862
L504.091 307.911
L504.599 307.972
L504.72 307.769
L505.115 307.664
L506.03 307.86
L506.068 307.738
L509.911 307.995
L510.171 307.941
L510.177 307.675
L510.66 307.49
L512.053 307.652
L512.161 307.298
L513.815 307.722
L514.75 307.718
L514.826 307.621
L516.301 307.822
L517.179 308.011
L517.573 307.749
L518.317 307.784
L518.317 307.784" style="fill:none;stroke:#ff0000;stroke-linecap:square;"/>
   </g>
   <g id="line2d_2">
    <path clip-path="url(#p7ff5b81e1d)" d="
M72.1421 387.372
L72.5193 373.7
L72.9393 372.389
L73.8739 370.814
L74.3127 365.985
L77.0868 382.875
L77.1189 372.869
L80.06 377.467
L81.199 375.582
L83.0284 376.741
L83.03 369.937
L88.1159 377.026
L88.1159 371.329
L91.2677 375.026
L91.7291 370.66
L91.7329 365.898
L95.6518 371.16
L97.727 372.969
L98.14 370.028
L100.493 370.471
L107.389 376.67
L107.391 373.769
L109.675 374.623
L111.064 374.314
L111.509 371.847
L111.769 369.41
L118.85 376.537
L120.617 376.611
L128.581 382.996
L128.741 381.365
L129.011 380.75
L130.111 379.95
L130.176 376.584
L130.636 375.851
L130.724 374.342
L131.048 373.476
L131.116 369.984
L131.392 368.824
L131.892 368.676
L131.892 366.88
L132.863 367.564
L134.05 368.932
L134.756 368.497
L135.161 368.025
L135.161 366.399
L135.845 366.272
L136.322 365.376
L139.72 369.486
L139.758 366.754
L140.773 366.377
L142.552 367.744
L142.651 366.598
L144.757 368.736
L145.224 368.461
L146.569 368.726
L148.033 368.374
L148.111 367.319
L150.696 369.881
L152.999 371.318
L153.662 371.234
L154.797 371.205
L154.858 370.272
L156.395 370.906
L158.031 370.564
L158.103 368.514
L159.699 369.027
L159.952 368.062
L160.968 366.878
L161.683 366.564
L162.63 366.56
L163 365.854
L163.669 365.315
L163.993 364.588
L164.516 363.934
L165.012 363.538
L165.821 363.462
L166.388 362.922
L167.347 363.023
L171.458 364.628
L171.964 364.208
L177.387 367.956
L178.694 368.485
L179.177 368.101
L180.454 368.432
L180.463 367.61
L181.837 368.143
L182.071 367.599
L182.705 367.297
L182.874 366.685
L182.901 365.912
L183.366 365.553
L183.621 364.899
L184.694 365.273
L185.639 365.399
L188.305 366.811
L189.965 367.233
L191.544 368.026
L191.663 367.442
L192.932 367.805
L193.676 367.534
L196.523 369.285
L197.31 369.288
L198.205 369.177
L198.283 368.618
L200.735 369.98
L200.764 369.362
L201.134 368.965
L203.273 368.557
L206.705 370.413
L207.118 370.117
L209.057 370.7
L209.359 370.279
L212.559 371.973
L213.842 372.06
L214.304 371.72
L215.298 371.71
L215.316 371.208
L217.266 372.054
L217.468 371.548
L219.285 372.352
L219.995 372.261
L220.725 372.056
L222.752 372.782
L224.032 372.02
L226.363 372.386
L227.374 372.038
L229.101 372.384
L229.717 372.316
L231.386 372.579
L233.561 373.22
L233.971 373.002
L235.137 373.198
L235.54 372.934
L235.592 372.531
L235.798 372.134
L236.074 371.841
L236.989 371.72
L237.2 371.347
L238.774 371.276
L240.114 371.437
L240.553 371.213
L242.032 371.634
L242.506 371.415
L243.697 371.496
L247.245 372.78
L247.756 372.593
L249.166 372.886
L249.745 372.759
L249.745 372.313
L250.707 372.278
L252.077 372.484
L252.548 372.284
L254.818 373.004
L257.982 373.57
L259.274 373.839
L259.734 373.609
L259.859 372.898
L262.079 373.477
L263.439 373.292
L266.252 374.308
L266.601 374.046
L267.627 374.168
L268.032 373.515
L269.22 373.613
L271.676 374.292
L271.757 373.959
L272.478 373.44
L274.566 373.2
L276.432 373.428
L278.236 373.998
L278.718 373.791
L279.828 373.978
L280.233 373.842
L281.377 374.001
L283.868 374.668
L283.868 374.311
L290.765 376.748
L292.577 376.978
L293.016 376.781
L294.628 377.038
L294.848 376.766
L299.179 377.516
L300.123 377.185
L302.15 377.468
L302.498 377.315
L304.669 377.714
L305.275 377.579
L307.816 377.732
L307.994 377.532
L311.027 378.081
L311.118 377.811
L314.371 378.691
L315.458 378.71
L315.573 378.462
L316.113 378.38
L317.113 378.431
L317.266 378.15
L317.786 377.722
L318.444 377.748
L320.609 378.326
L320.643 378.053
L320.958 377.843
L321.674 377.799
L322.131 377.395
L323.266 377.581
L323.532 377.428
L325.05 377.428
L325.289 376.997
L326.271 377.075
L326.682 376.918
L327.626 377.001
L330.321 377.438
L330.893 377.344
L331.103 377.142
L332.009 376.653
L332.62 376.603
L333.168 376.28
L333.536 376.196
L333.598 375.97
L334.242 375.9
L334.475 374.985
L334.519 374.463
L335.817 374.78
L335.838 374.51
L336.35 374.523
L338.277 374.852
L338.291 374.37
L338.496 374.207
L339.565 374.364
L339.951 374.307
L341.253 374.598
L341.577 373.961
L342.159 374.006
L342.493 373.86
L344.997 374.07
L345.255 373.902
L347.287 374.467
L347.573 374.301
L347.578 374.05
L347.74 373.888
L348.885 374.018
L348.999 373.816
L349.81 373.871
L349.92 373.695
L351.742 373.76
L351.78 373.521
L352.076 373.167
L353.178 373.307
L353.547 373.143
L353.612 372.955
L354.124 372.873
L357.208 373.804
L358.186 373.945
L358.782 373.675
L359.064 373.535
L359.116 373.346
L359.402 373.168
L360.614 373.343
L361.055 373.264
L361.076 373.053
L363.051 373.41
L364.458 373.1
L366.075 373.299
L366.476 373.248
L366.481 373.023
L367.182 373.084
L367.377 372.963
L368.279 373.09
L368.584 372.95
L368.684 372.777
L369.527 372.895
L372.987 374.042
L374.174 374.229
L374.608 374.14
L378.93 374.849
L380.194 375.017
L380.966 374.794
L381.095 374.629
L381.138 374.233
L382.526 374.574
L382.526 374.363
L383.342 374.456
L384.816 374.804
L387.83 374.899
L388.097 374.773
L388.703 374.649
L393.907 375.087
L394.293 374.751
L394.742 374.648
L395.6 374.639
L395.82 374.504
L395.843 374.111
L396.578 374.043
L396.592 373.851
L396.955 373.723
L397.718 373.688
L398.419 373.399
L398.495 373.226
L399.497 373.263
L399.778 373.098
L400.899 372.756
L404.507 372.951
L404.507 372.753
L405.642 372.53
L406.793 372.616
L406.806 372.422
L409.401 372.71
L409.433 372.525
L410.215 372.467
L414.45 372.807
L417.847 373.291
L418.158 373.149
L418.19 372.967
L418.921 372.734
L420.314 372.65
L420.314 372.46
L420.435 372.305
L421.045 372.26
L421.262 372.097
L421.262 371.91
L421.459 371.773
L423.996 371.97
L424.143 371.829
L428.27 372.192
L428.69 372.113
L430.019 372.245
L430.222 372.119
L432.378 372.31
L432.824 372.068
L433.587 372.073
L433.746 371.945
L434.744 371.901
L437.911 372.349
L438.306 372.277
L439.107 372.307
L439.311 372.188
L439.743 372.119
L440.646 372.218
L440.716 372.052
L442.35 372.311
L442.401 372.166
L442.834 372.097
L443.877 372.258
L444.22 372.148
L444.22 371.973
L444.341 371.842
L447.623 372.015
L447.839 371.87
L447.839 371.697
L448.386 371.751
L448.392 371.581
L449.378 371.339
L449.766 371.076
L450.186 371.018
L451.534 371.023
L451.54 370.855
L455.693 370.819
L457.175 371.117
L457.398 370.986
L457.537 370.736
L457.868 370.667
L457.913 370.525
L462.74 371.328
L466.594 371.593
L466.823 371.349
L471.115 372.338
L472.031 372.402
L473.71 372.715
L474.13 372.652
L475.863 372.958
L477.323 373.096
L478.677 373.054
L478.677 372.899
L479.822 372.868
L481.8 373.273
L481.933 373.16
L483.046 373.133
L483.091 372.995
L484.166 372.985
L484.229 372.84
L485.476 372.84
L488.236 373.153
L488.579 373.051
L490.513 373.172
L491.002 373.134
L492.796 373.238
L493.877 372.961
L496.014 373.183
L496.09 373.052
L498.163 373.333
L498.456 373.112
L500.536 373.432
L500.65 373.317
L504.091 373.645
L504.122 373.367
L504.777 373.104
L505.731 373.16
L507.379 373.433
L507.83 373.387
L511.741 373.755
L511.964 373.509
L513.707 373.764
L513.802 373.655
L514.73 373.593
L514.902 373.501
L515.799 373.43
L518.4 373.695
L518.4 373.695" style="fill:none;stroke:#008000;stroke-linecap:square;"/>
   </g>
   <g id="matplotlib.axis_1">
    <g id="xtick_1">
     <g id="line2d_3">
      <defs>
       <path d="
M0 0
L0 -4" id="m93b0483c22" style="stroke:#000000;stroke-width:0.5;"/>
      </defs>
      <g>
       <use style="stroke:#000000;stroke-width:0.5;" x="73.5056641272" xlink:href="#m93b0483c22" y="388.8"/>
      </g>
     </g>
     <g id="line2d_4">
      <defs>
       <path d="
M0 0
L0 4" id="m741efc42ff" style="stroke:#000000;stroke-width:0.5;"/>
      </defs>
      <g>
       <use style="stroke:#000000;stroke-width:0.5;" x="73.5056641272" xlink:href="#m741efc42ff" y="43.2"/>
      </g>
     </g>
     <g id="text_1">
      <!-- Sep 2013 -->
      <defs>
       <path d="
M40.5781 39.3125
Q47.6562 37.7969 51.625 33
Q55.6094 28.2188 55.6094 21.1875
Q55.6094 10.4062 48.1875 4.48438
Q40.7656 -1.42188 27.0938 -1.42188
Q22.5156 -1.42188 17.6562 -0.515625
Q12.7969 0.390625 7.625 2.20312
L7.625 11.7188
Q11.7188 9.32812 16.5938 8.10938
Q21.4844 6.89062 26.8125 6.89062
Q36.0781 6.89062 40.9375 10.5469
Q45.7969 14.2031 45.7969 21.1875
Q45.7969 27.6406 41.2812 31.2656
Q36.7656 34.9062 28.7188 34.9062
L20.2188 34.9062
L20.2188 43.0156
L29.1094 43.0156
Q36.375 43.0156 40.2344 45.9219
Q44.0938 48.8281 44.0938 54.2969
Q44.0938 59.9062 40.1094 62.9062
Q36.1406 65.9219 28.7188 65.9219
Q24.6562 65.9219 20.0156 65.0312
Q15.375 64.1562 9.8125 62.3125
L9.8125 71.0938
Q15.4375 72.6562 20.3438 73.4375
Q25.25 74.2188 29.5938 74.2188
Q40.8281 74.2188 47.3594 69.1094
Q53.9062 64.0156 53.9062 55.3281
Q53.9062 49.2656 50.4375 45.0938
Q46.9688 40.9219 40.5781 39.3125" id="DejaVuSans-33"/>
       <path d="
M12.4062 8.29688
L28.5156 8.29688
L28.5156 63.9219
L10.9844 60.4062
L10.9844 69.3906
L28.4219 72.9062
L38.2812 72.9062
L38.2812 8.29688
L54.3906 8.29688
L54.3906 0
L12.4062 0
z
" id="DejaVuSans-31"/>
       <path d="
M31.7812 66.4062
Q24.1719 66.4062 20.3281 58.9062
Q16.5 51.4219 16.5 36.375
Q16.5 21.3906 20.3281 13.8906
Q24.1719 6.39062 31.7812 6.39062
Q39.4531 6.39062 43.2812 13.8906
Q47.125 21.3906 47.125 36.375
Q47.125 51.4219 43.2812 58.9062
Q39.4531 66.4062 31.7812 66.4062
M31.7812 74.2188
Q44.0469 74.2188 50.5156 64.5156
Q56.9844 54.8281 56.9844 36.375
Q56.9844 17.9688 50.5156 8.26562
Q44.0469 -1.42188 31.7812 -1.42188
Q19.5312 -1.42188 13.0625 8.26562
Q6.59375 17.9688 6.59375 36.375
Q6.59375 54.8281 13.0625 64.5156
Q19.5312 74.2188 31.7812 74.2188" id="DejaVuSans-30"/>
       <path id="DejaVuSans-20"/>
       <path d="
M19.1875 8.29688
L53.6094 8.29688
L53.6094 0
L7.32812 0
L7.32812 8.29688
Q12.9375 14.1094 22.625 23.8906
Q32.3281 33.6875 34.8125 36.5312
Q39.5469 41.8438 41.4219 45.5312
Q43.3125 49.2188 43.3125 52.7812
Q43.3125 58.5938 39.2344 62.25
Q35.1562 65.9219 28.6094 65.9219
Q23.9688 65.9219 18.8125 64.3125
Q13.6719 62.7031 7.8125 59.4219
L7.8125 69.3906
Q13.7656 71.7812 18.9375 73
Q24.125 74.2188 28.4219 74.2188
Q39.75 74.2188 46.4844 68.5469
Q53.2188 62.8906 53.2188 53.4219
Q53.2188 48.9219 51.5312 44.8906
Q49.8594 40.875 45.4062 35.4062
Q44.1875 33.9844 37.6406 27.2188
Q31.1094 20.4531 19.1875 8.29688" id="DejaVuSans-32"/>
       <path d="
M53.5156 70.5156
L53.5156 60.8906
Q47.9062 63.5781 42.9219 64.8906
Q37.9375 66.2188 33.2969 66.2188
Q25.25 66.2188 20.875 63.0938
Q16.5 59.9688 16.5 54.2031
Q16.5 49.3594 19.4062 46.8906
Q22.3125 44.4375 30.4219 42.9219
L36.375 41.7031
Q47.4062 39.5938 52.6562 34.2969
Q57.9062 29 57.9062 20.125
Q57.9062 9.51562 50.7969 4.04688
Q43.7031 -1.42188 29.9844 -1.42188
Q24.8125 -1.42188 18.9688 -0.25
Q13.1406 0.921875 6.89062 3.21875
L6.89062 13.375
Q12.8906 10.0156 18.6562 8.29688
Q24.4219 6.59375 29.9844 6.59375
Q38.4219 6.59375 43.0156 9.90625
Q47.6094 13.2344 47.6094 19.3906
Q47.6094 24.75 44.3125 27.7812
Q41.0156 30.8125 33.5 32.3281
L27.4844 33.5
Q16.4531 35.6875 11.5156 40.375
Q6.59375 45.0625 6.59375 53.4219
Q6.59375 63.0938 13.4062 68.6562
Q20.2188 74.2188 32.1719 74.2188
Q37.3125 74.2188 42.625 73.2812
Q47.9531 72.3594 53.5156 70.5156" id="DejaVuSans-53"/>
       <path d="
M56.2031 29.5938
L56.2031 25.2031
L14.8906 25.2031
Q15.4844 15.9219 20.4844 11.0625
Q25.4844 6.20312 34.4219 6.20312
Q39.5938 6.20312 44.4531 7.46875
Q49.3125 8.73438 54.1094 11.2812
L54.1094 2.78125
Q49.2656 0.734375 44.1875 -0.34375
Q39.1094 -1.42188 33.8906 -1.42188
Q20.7969 -1.42188 13.1562 6.1875
Q5.51562 13.8125 5.51562 26.8125
Q5.51562 40.2344 12.7656 48.1094
Q20.0156 56 32.3281 56
Q43.3594 56 49.7812 48.8906
Q56.2031 41.7969 56.2031 29.5938
M47.2188 32.2344
Q47.125 39.5938 43.0938 43.9844
Q39.0625 48.3906 32.4219 48.3906
Q24.9062 48.3906 20.3906 44.1406
Q15.875 39.8906 15.1875 32.1719
z
" id="DejaVuSans-65"/>
       <path d="
M18.1094 8.20312
L18.1094 -20.7969
L9.07812 -20.7969
L9.07812 54.6875
L18.1094 54.6875
L18.1094 46.3906
Q20.9531 51.2656 25.2656 53.625
Q29.5938 56 35.5938 56
Q45.5625 56 51.7812 48.0938
Q58.0156 40.1875 58.0156 27.2969
Q58.0156 14.4062 51.7812 6.48438
Q45.5625 -1.42188 35.5938 -1.42188
Q29.5938 -1.42188 25.2656 0.953125
Q20.9531 3.32812 18.1094 8.20312
M48.6875 27.2969
Q48.6875 37.2031 44.6094 42.8438
Q40.5312 48.4844 33.4062 48.4844
Q26.2656 48.4844 22.1875 42.8438
Q18.1094 37.2031 18.1094 27.2969
Q18.1094 17.3906 22.1875 11.75
Q26.2656 6.10938 33.4062 6.10938
Q40.5312 6.10938 44.6094 11.75
Q48.6875 17.3906 48.6875 27.2969" id="DejaVuSans-70"/>
      </defs>
      <g transform="translate(45.4997266272 401.918125)scale(0.12 -0.12)">
       <use xlink:href="#DejaVuSans-53"/>
       <use x="63.4765625" xlink:href="#DejaVuSans-65"/>
       <use x="125.0" xlink:href="#DejaVuSans-70"/>
       <use x="188.4765625" xlink:href="#DejaVuSans-20"/>
       <use x="220.263671875" xlink:href="#DejaVuSans-32"/>
       <use x="283.88671875" xlink:href="#DejaVuSans-30"/>
       <use x="347.509765625" xlink:href="#DejaVuSans-31"/>
       <use x="411.1328125" xlink:href="#DejaVuSans-33"/>
      </g>
     </g>
    </g>
    <g id="xtick_2">
     <g id="line2d_5">
      <g>
       <use style="stroke:#000000;stroke-width:0.5;" x="115.174561113" xlink:href="#m93b0483c22" y="388.8"/>
      </g>
     </g>
     <g id="line2d_6">
      <g>
       <use style="stroke:#000000;stroke-width:0.5;" x="115.174561113" xlink:href="#m741efc42ff" y="43.2"/>
      </g>
     </g>
     <g id="text_2">
      <!-- Dec 2013 -->
      <defs>
       <path d="
M19.6719 64.7969
L19.6719 8.10938
L31.5938 8.10938
Q46.6875 8.10938 53.6875 14.9375
Q60.6875 21.7812 60.6875 36.5312
Q60.6875 51.1719 53.6875 57.9844
Q46.6875 64.7969 31.5938 64.7969
z

M9.8125 72.9062
L30.0781 72.9062
Q51.2656 72.9062 61.1719 64.0938
Q71.0938 55.2812 71.0938 36.5312
Q71.0938 17.6719 61.125 8.82812
Q51.1719 0 30.0781 0
L9.8125 0
z
" id="DejaVuSans-44"/>
       <path d="
M48.7812 52.5938
L48.7812 44.1875
Q44.9688 46.2969 41.1406 47.3438
Q37.3125 48.3906 33.4062 48.3906
Q24.6562 48.3906 19.8125 42.8438
Q14.9844 37.3125 14.9844 27.2969
Q14.9844 17.2812 19.8125 11.7344
Q24.6562 6.20312 33.4062 6.20312
Q37.3125 6.20312 41.1406 7.25
Q44.9688 8.29688 48.7812 10.4062
L48.7812 2.09375
Q45.0156 0.34375 40.9844 -0.53125
Q36.9688 -1.42188 32.4219 -1.42188
Q20.0625 -1.42188 12.7812 6.34375
Q5.51562 14.1094 5.51562 27.2969
Q5.51562 40.6719 12.8594 48.3281
Q20.2188 56 33.0156 56
Q37.1562 56 41.1094 55.1406
Q45.0625 54.2969 48.7812 52.5938" id="DejaVuSans-63"/>
      </defs>
      <g transform="translate(86.8676861129 401.918125)scale(0.12 -0.12)">
       <use xlink:href="#DejaVuSans-44"/>
       <use x="77.001953125" xlink:href="#DejaVuSans-65"/>
       <use x="138.525390625" xlink:href="#DejaVuSans-63"/>
       <use x="193.505859375" xlink:href="#DejaVuSans-20"/>
       <use x="225.29296875" xlink:href="#DejaVuSans-32"/>
       <use x="288.916015625" xlink:href="#DejaVuSans-30"/>
       <use x="352.5390625" xlink:href="#DejaVuSans-31"/>
       <use x="416.162109375" xlink:href="#DejaVuSans-33"/>
      </g>
     </g>
    </g>
    <g id="xtick_3">
     <g id="line2d_7">
      <g>
       <use style="stroke:#000000;stroke-width:0.5;" x="156.385558132" xlink:href="#m93b0483c22" y="388.8"/>
      </g>
     </g>
     <g id="line2d_8">
      <g>
       <use style="stroke:#000000;stroke-width:0.5;" x="156.385558132" xlink:href="#m741efc42ff" y="43.2"/>
      </g>
     </g>
     <g id="text_3">
      <!-- Mar 2014 -->
      <defs>
       <path d="
M9.8125 72.9062
L24.5156 72.9062
L43.1094 23.2969
L61.8125 72.9062
L76.5156 72.9062
L76.5156 0
L66.8906 0
L66.8906 64.0156
L48.0938 14.0156
L38.1875 14.0156
L19.3906 64.0156
L19.3906 0
L9.8125 0
z
" id="DejaVuSans-4d"/>
       <path d="
M41.1094 46.2969
Q39.5938 47.1719 37.8125 47.5781
Q36.0312 48 33.8906 48
Q26.2656 48 22.1875 43.0469
Q18.1094 38.0938 18.1094 28.8125
L18.1094 0
L9.07812 0
L9.07812 54.6875
L18.1094 54.6875
L18.1094 46.1875
Q20.9531 51.1719 25.4844 53.5781
Q30.0312 56 36.5312 56
Q37.4531 56 38.5781 55.875
Q39.7031 55.7656 41.0625 55.5156
z
" id="DejaVuSans-72"/>
       <path d="
M37.7969 64.3125
L12.8906 25.3906
L37.7969 25.3906
z

M35.2031 72.9062
L47.6094 72.9062
L47.6094 25.3906
L58.0156 25.3906
L58.0156 17.1875
L47.6094 17.1875
L47.6094 0
L37.7969 0
L37.7969 17.1875
L4.89062 17.1875
L4.89062 26.7031
z
" id="DejaVuSans-34"/>
       <path d="
M34.2812 27.4844
Q23.3906 27.4844 19.1875 25
Q14.9844 22.5156 14.9844 16.5
Q14.9844 11.7188 18.1406 8.90625
Q21.2969 6.10938 26.7031 6.10938
Q34.1875 6.10938 38.7031 11.4062
Q43.2188 16.7031 43.2188 25.4844
L43.2188 27.4844
z

M52.2031 31.2031
L52.2031 0
L43.2188 0
L43.2188 8.29688
Q40.1406 3.32812 35.5469 0.953125
Q30.9531 -1.42188 24.3125 -1.42188
Q15.9219 -1.42188 10.9531 3.29688
Q6 8.01562 6 15.9219
Q6 25.1406 12.1719 29.8281
Q18.3594 34.5156 30.6094 34.5156
L43.2188 34.5156
L43.2188 35.4062
Q43.2188 41.6094 39.1406 45
Q35.0625 48.3906 27.6875 48.3906
Q23 48.3906 18.5469 47.2656
Q14.1094 46.1406 10.0156 43.8906
L10.0156 52.2031
Q14.9375 54.1094 19.5781 55.0469
Q24.2188 56 28.6094 56
Q40.4844 56 46.3438 49.8438
Q52.2031 43.7031 52.2031 31.2031" id="DejaVuSans-61"/>
      </defs>
      <g transform="translate(128.224933132 401.918125)scale(0.12 -0.12)">
       <use xlink:href="#DejaVuSans-4d"/>
       <use x="86.279296875" xlink:href="#DejaVuSans-61"/>
       <use x="147.55859375" xlink:href="#DejaVuSans-72"/>
       <use x="188.671875" xlink:href="#DejaVuSans-20"/>
       <use x="220.458984375" xlink:href="#DejaVuSans-32"/>
       <use x="284.08203125" xlink:href="#DejaVuSans-30"/>
       <use x="347.705078125" xlink:href="#DejaVuSans-31"/>
       <use x="411.328125" xlink:href="#DejaVuSans-34"/>
      </g>
     </g>
    </g>
    <g id="xtick_4">
     <g id="line2d_9">
      <g>
       <use style="stroke:#000000;stroke-width:0.5;" x="198.512355084" xlink:href="#m93b0483c22" y="388.8"/>
      </g>
     </g>
     <g id="line2d_10">
      <g>
       <use style="stroke:#000000;stroke-width:0.5;" x="198.512355084" xlink:href="#m741efc42ff" y="43.2"/>
      </g>
     </g>
     <g id="text_4">
      <!-- Jun 2014 -->
      <defs>
       <path d="
M8.5 21.5781
L8.5 54.6875
L17.4844 54.6875
L17.4844 21.9219
Q17.4844 14.1562 20.5 10.2656
Q23.5312 6.39062 29.5938 6.39062
Q36.8594 6.39062 41.0781 11.0312
Q45.3125 15.6719 45.3125 23.6875
L45.3125 54.6875
L54.2969 54.6875
L54.2969 0
L45.3125 0
L45.3125 8.40625
Q42.0469 3.42188 37.7188 1
Q33.4062 -1.42188 27.6875 -1.42188
Q18.2656 -1.42188 13.375 4.4375
Q8.5 10.2969 8.5 21.5781
M31.1094 56
z
" id="DejaVuSans-75"/>
       <path d="
M54.8906 33.0156
L54.8906 0
L45.9062 0
L45.9062 32.7188
Q45.9062 40.4844 42.875 44.3281
Q39.8438 48.1875 33.7969 48.1875
Q26.5156 48.1875 22.3125 43.5469
Q18.1094 38.9219 18.1094 30.9062
L18.1094 0
L9.07812 0
L9.07812 54.6875
L18.1094 54.6875
L18.1094 46.1875
Q21.3438 51.125 25.7031 53.5625
Q30.0781 56 35.7969 56
Q45.2188 56 50.0469 50.1719
Q54.8906 44.3438 54.8906 33.0156" id="DejaVuSans-6e"/>
       <path d="
M9.8125 72.9062
L19.6719 72.9062
L19.6719 5.07812
Q19.6719 -8.10938 14.6719 -14.0625
Q9.67188 -20.0156 -1.42188 -20.0156
L-5.17188 -20.0156
L-5.17188 -11.7188
L-2.09375 -11.7188
Q4.4375 -11.7188 7.125 -8.04688
Q9.8125 -4.39062 9.8125 5.07812
z
" id="DejaVuSans-4a"/>
      </defs>
      <g transform="translate(171.986730084 401.918125)scale(0.12 -0.12)">
       <use xlink:href="#DejaVuSans-4a"/>
       <use x="29.4921875" xlink:href="#DejaVuSans-75"/>
       <use x="92.87109375" xlink:href="#DejaVuSans-6e"/>
       <use x="156.25" xlink:href="#DejaVuSans-20"/>
       <use x="188.037109375" xlink:href="#DejaVuSans-32"/>
       <use x="251.66015625" xlink:href="#DejaVuSans-30"/>
       <use x="315.283203125" xlink:href="#DejaVuSans-31"/>
       <use x="378.90625" xlink:href="#DejaVuSans-34"/>
      </g>
     </g>
    </g>
    <g id="xtick_5">
     <g id="line2d_11">
      <g>
       <use style="stroke:#000000;stroke-width:0.5;" x="240.639152037" xlink:href="#m93b0483c22" y="388.8"/>
      </g>
     </g>
     <g id="line2d_12">
      <g>
       <use style="stroke:#000000;stroke-width:0.5;" x="240.639152037" xlink:href="#m741efc42ff" y="43.2"/>
      </g>
     </g>
     <g id="text_5">
      <!-- Sep 2014 -->
      <g transform="translate(212.488839537 401.918125)scale(0.12 -0.12)">
       <use xlink:href="#DejaVuSans-53"/>
       <use x="63.4765625" xlink:href="#DejaVuSans-65"/>
       <use x="125.0" xlink:href="#DejaVuSans-70"/>
       <use x="188.4765625" xlink:href="#DejaVuSans-20"/>
       <use x="220.263671875" xlink:href="#DejaVuSans-32"/>
       <use x="283.88671875" xlink:href="#DejaVuSans-30"/>
       <use x="347.509765625" xlink:href="#DejaVuSans-31"/>
       <use x="411.1328125" xlink:href="#DejaVuSans-34"/>
      </g>
     </g>
    </g>
    <g id="xtick_6">
     <g id="line2d_13">
      <g>
       <use style="stroke:#000000;stroke-width:0.5;" x="282.308049023" xlink:href="#m93b0483c22" y="388.8"/>
      </g>
     </g>
     <g id="line2d_14">
      <g>
       <use style="stroke:#000000;stroke-width:0.5;" x="282.308049023" xlink:href="#m741efc42ff" y="43.2"/>
      </g>
     </g>
     <g id="text_6">
      <!-- Dec 2014 -->
      <g transform="translate(253.856799023 401.918125)scale(0.12 -0.12)">
       <use xlink:href="#DejaVuSans-44"/>
       <use x="77.001953125" xlink:href="#DejaVuSans-65"/>
       <use x="138.525390625" xlink:href="#DejaVuSans-63"/>
       <use x="193.505859375" xlink:href="#DejaVuSans-20"/>
       <use x="225.29296875" xlink:href="#DejaVuSans-32"/>
       <use x="288.916015625" xlink:href="#DejaVuSans-30"/>
       <use x="352.5390625" xlink:href="#DejaVuSans-31"/>
       <use x="416.162109375" xlink:href="#DejaVuSans-34"/>
      </g>
     </g>
    </g>
    <g id="xtick_7">
     <g id="line2d_15">
      <g>
       <use style="stroke:#000000;stroke-width:0.5;" x="323.519046042" xlink:href="#m93b0483c22" y="388.8"/>
      </g>
     </g>
     <g id="line2d_16">
      <g>
       <use style="stroke:#000000;stroke-width:0.5;" x="323.519046042" xlink:href="#m741efc42ff" y="43.2"/>
      </g>
     </g>
     <g id="text_7">
      <!-- Mar 2015 -->
      <defs>
       <path d="
M10.7969 72.9062
L49.5156 72.9062
L49.5156 64.5938
L19.8281 64.5938
L19.8281 46.7344
Q21.9688 47.4688 24.1094 47.8281
Q26.2656 48.1875 28.4219 48.1875
Q40.625 48.1875 47.75 41.5
Q54.8906 34.8125 54.8906 23.3906
Q54.8906 11.625 47.5625 5.09375
Q40.2344 -1.42188 26.9062 -1.42188
Q22.3125 -1.42188 17.5469 -0.640625
Q12.7969 0.140625 7.71875 1.70312
L7.71875 11.625
Q12.1094 9.23438 16.7969 8.0625
Q21.4844 6.89062 26.7031 6.89062
Q35.1562 6.89062 40.0781 11.3281
Q45.0156 15.7656 45.0156 23.3906
Q45.0156 31 40.0781 35.4375
Q35.1562 39.8906 26.7031 39.8906
Q22.75 39.8906 18.8125 39.0156
Q14.8906 38.1406 10.7969 36.2812
z
" id="DejaVuSans-35"/>
      </defs>
      <g transform="translate(295.545921042 401.918125)scale(0.12 -0.12)">
       <use xlink:href="#DejaVuSans-4d"/>
       <use x="86.279296875" xlink:href="#DejaVuSans-61"/>
       <use x="147.55859375" xlink:href="#DejaVuSans-72"/>
       <use x="188.671875" xlink:href="#DejaVuSans-20"/>
       <use x="220.458984375" xlink:href="#DejaVuSans-32"/>
       <use x="284.08203125" xlink:href="#DejaVuSans-30"/>
       <use x="347.705078125" xlink:href="#DejaVuSans-31"/>
       <use x="411.328125" xlink:href="#DejaVuSans-35"/>
      </g>
     </g>
    </g>
    <g id="xtick_8">
     <g id="line2d_17">
      <g>
       <use style="stroke:#000000;stroke-width:0.5;" x="365.645842994" xlink:href="#m93b0483c22" y="388.8"/>
      </g>
     </g>
     <g id="line2d_18">
      <g>
       <use style="stroke:#000000;stroke-width:0.5;" x="365.645842994" xlink:href="#m741efc42ff" y="43.2"/>
      </g>
     </g>
     <g id="text_8">
      <!-- Jun 2015 -->
      <g transform="translate(339.307717994 401.918125)scale(0.12 -0.12)">
       <use xlink:href="#DejaVuSans-4a"/>
       <use x="29.4921875" xlink:href="#DejaVuSans-75"/>
       <use x="92.87109375" xlink:href="#DejaVuSans-6e"/>
       <use x="156.25" xlink:href="#DejaVuSans-20"/>
       <use x="188.037109375" xlink:href="#DejaVuSans-32"/>
       <use x="251.66015625" xlink:href="#DejaVuSans-30"/>
       <use x="315.283203125" xlink:href="#DejaVuSans-31"/>
       <use x="378.90625" xlink:href="#DejaVuSans-35"/>
      </g>
     </g>
    </g>
    <g id="xtick_9">
     <g id="line2d_19">
      <g>
       <use style="stroke:#000000;stroke-width:0.5;" x="407.772639947" xlink:href="#m93b0483c22" y="388.8"/>
      </g>
     </g>
     <g id="line2d_20">
      <g>
       <use style="stroke:#000000;stroke-width:0.5;" x="407.772639947" xlink:href="#m741efc42ff" y="43.2"/>
      </g>
     </g>
     <g id="text_9">
      <!-- Sep 2015 -->
      <g transform="translate(379.809827447 401.918125)scale(0.12 -0.12)">
       <use xlink:href="#DejaVuSans-53"/>
       <use x="63.4765625" xlink:href="#DejaVuSans-65"/>
       <use x="125.0" xlink:href="#DejaVuSans-70"/>
       <use x="188.4765625" xlink:href="#DejaVuSans-20"/>
       <use x="220.263671875" xlink:href="#DejaVuSans-32"/>
       <use x="283.88671875" xlink:href="#DejaVuSans-30"/>
       <use x="347.509765625" xlink:href="#DejaVuSans-31"/>
       <use x="411.1328125" xlink:href="#DejaVuSans-35"/>
      </g>
     </g>
    </g>
    <g id="xtick_10">
     <g id="line2d_21">
      <g>
       <use style="stroke:#000000;stroke-width:0.5;" x="449.441536933" xlink:href="#m93b0483c22" y="388.8"/>
      </g>
     </g>
     <g id="line2d_22">
      <g>
       <use style="stroke:#000000;stroke-width:0.5;" x="449.441536933" xlink:href="#m741efc42ff" y="43.2"/>
      </g>
     </g>
     <g id="text_10">
      <!-- Dec 2015 -->
      <g transform="translate(421.177786933 401.918125)scale(0.12 -0.12)">
       <use xlink:href="#DejaVuSans-44"/>
       <use x="77.001953125" xlink:href="#DejaVuSans-65"/>
       <use x="138.525390625" xlink:href="#DejaVuSans-63"/>
       <use x="193.505859375" xlink:href="#DejaVuSans-20"/>
       <use x="225.29296875" xlink:href="#DejaVuSans-32"/>
       <use x="288.916015625" xlink:href="#DejaVuSans-30"/>
       <use x="352.5390625" xlink:href="#DejaVuSans-31"/>
       <use x="416.162109375" xlink:href="#DejaVuSans-35"/>
      </g>
     </g>
    </g>
    <g id="xtick_11">
     <g id="line2d_23">
      <g>
       <use style="stroke:#000000;stroke-width:0.5;" x="491.110433918" xlink:href="#m93b0483c22" y="388.8"/>
      </g>
     </g>
     <g id="line2d_24">
      <g>
       <use style="stroke:#000000;stroke-width:0.5;" x="491.110433918" xlink:href="#m741efc42ff" y="43.2"/>
      </g>
     </g>
     <g id="text_11">
      <!-- Mar 2016 -->
      <defs>
       <path d="
M33.0156 40.375
Q26.375 40.375 22.4844 35.8281
Q18.6094 31.2969 18.6094 23.3906
Q18.6094 15.5312 22.4844 10.9531
Q26.375 6.39062 33.0156 6.39062
Q39.6562 6.39062 43.5312 10.9531
Q47.4062 15.5312 47.4062 23.3906
Q47.4062 31.2969 43.5312 35.8281
Q39.6562 40.375 33.0156 40.375
M52.5938 71.2969
L52.5938 62.3125
Q48.875 64.0625 45.0938 64.9844
Q41.3125 65.9219 37.5938 65.9219
Q27.8281 65.9219 22.6719 59.3281
Q17.5312 52.7344 16.7969 39.4062
Q19.6719 43.6562 24.0156 45.9219
Q28.375 48.1875 33.5938 48.1875
Q44.5781 48.1875 50.9531 41.5156
Q57.3281 34.8594 57.3281 23.3906
Q57.3281 12.1562 50.6875 5.35938
Q44.0469 -1.42188 33.0156 -1.42188
Q20.3594 -1.42188 13.6719 8.26562
Q6.98438 17.9688 6.98438 36.375
Q6.98438 53.6562 15.1875 63.9375
Q23.3906 74.2188 37.2031 74.2188
Q40.9219 74.2188 44.7031 73.4844
Q48.4844 72.75 52.5938 71.2969" id="DejaVuSans-36"/>
      </defs>
      <g transform="translate(462.991058918 401.918125)scale(0.12 -0.12)">
       <use xlink:href="#DejaVuSans-4d"/>
       <use x="86.279296875" xlink:href="#DejaVuSans-61"/>
       <use x="147.55859375" xlink:href="#DejaVuSans-72"/>
       <use x="188.671875" xlink:href="#DejaVuSans-20"/>
       <use x="220.458984375" xlink:href="#DejaVuSans-32"/>
       <use x="284.08203125" xlink:href="#DejaVuSans-30"/>
       <use x="347.705078125" xlink:href="#DejaVuSans-31"/>
       <use x="411.328125" xlink:href="#DejaVuSans-36"/>
      </g>
     </g>
    </g>
   </g>
   <g id="matplotlib.axis_2">
    <g id="ytick_1">
     <g id="line2d_25">
      <defs>
       <path d="
M0 0
L4 0" id="m728421d6d4" style="stroke:#000000;stroke-width:0.5;"/>
      </defs>
      <g>
       <use style="stroke:#000000;stroke-width:0.5;" x="72.0" xlink:href="#m728421d6d4" y="388.8"/>
      </g>
     </g>
     <g id="line2d_26">
      <defs>
       <path d="
M0 0
L-4 0" id="mcb0005524f" style="stroke:#000000;stroke-width:0.5;"/>
      </defs>
      <g>
       <use style="stroke:#000000;stroke-width:0.5;" x="518.4" xlink:href="#mcb0005524f" y="388.8"/>
      </g>
     </g>
     <g id="text_12">
      <!-- 200 -->
      <g transform="translate(46.77125 392.11125)scale(0.12 -0.12)">
       <use xlink:href="#DejaVuSans-32"/>
       <use x="63.623046875" xlink:href="#DejaVuSans-30"/>
       <use x="127.24609375" xlink:href="#DejaVuSans-30"/>
      </g>
     </g>
    </g>
    <g id="ytick_2">
     <g id="line2d_27">
      <g>
       <use style="stroke:#000000;stroke-width:0.5;" x="72.0" xlink:href="#m728421d6d4" y="331.2"/>
      </g>
     </g>
     <g id="line2d_28">
      <g>
       <use style="stroke:#000000;stroke-width:0.5;" x="518.4" xlink:href="#mcb0005524f" y="331.2"/>
      </g>
     </g>
     <g id="text_13">
      <!-- 400 -->
      <g transform="translate(46.47875 334.51125)scale(0.12 -0.12)">
       <use xlink:href="#DejaVuSans-34"/>
       <use x="63.623046875" xlink:href="#DejaVuSans-30"/>
       <use x="127.24609375" xlink:href="#DejaVuSans-30"/>
      </g>
     </g>
    </g>
    <g id="ytick_3">
     <g id="line2d_29">
      <g>
       <use style="stroke:#000000;stroke-width:0.5;" x="72.0" xlink:href="#m728421d6d4" y="273.6"/>
      </g>
     </g>
     <g id="line2d_30">
      <g>
       <use style="stroke:#000000;stroke-width:0.5;" x="518.4" xlink:href="#mcb0005524f" y="273.6"/>
      </g>
     </g>
     <g id="text_14">
      <!-- 600 -->
      <g transform="translate(46.73 276.91125)scale(0.12 -0.12)">
       <use xlink:href="#DejaVuSans-36"/>
       <use x="63.623046875" xlink:href="#DejaVuSans-30"/>
       <use x="127.24609375" xlink:href="#DejaVuSans-30"/>
      </g>
     </g>
    </g>
    <g id="ytick_4">
     <g id="line2d_31">
      <g>
       <use style="stroke:#000000;stroke-width:0.5;" x="72.0" xlink:href="#m728421d6d4" y="216.0"/>
      </g>
     </g>
     <g id="line2d_32">
      <g>
       <use style="stroke:#000000;stroke-width:0.5;" x="518.4" xlink:href="#mcb0005524f" y="216.0"/>
      </g>
     </g>
     <g id="text_15">
      <!-- 800 -->
      <defs>
       <path d="
M31.7812 34.625
Q24.75 34.625 20.7188 30.8594
Q16.7031 27.0938 16.7031 20.5156
Q16.7031 13.9219 20.7188 10.1562
Q24.75 6.39062 31.7812 6.39062
Q38.8125 6.39062 42.8594 10.1719
Q46.9219 13.9688 46.9219 20.5156
Q46.9219 27.0938 42.8906 30.8594
Q38.875 34.625 31.7812 34.625
M21.9219 38.8125
Q15.5781 40.375 12.0312 44.7188
Q8.5 49.0781 8.5 55.3281
Q8.5 64.0625 14.7188 69.1406
Q20.9531 74.2188 31.7812 74.2188
Q42.6719 74.2188 48.875 69.1406
Q55.0781 64.0625 55.0781 55.3281
Q55.0781 49.0781 51.5312 44.7188
Q48 40.375 41.7031 38.8125
Q48.8281 37.1562 52.7969 32.3125
Q56.7812 27.4844 56.7812 20.5156
Q56.7812 9.90625 50.3125 4.23438
Q43.8438 -1.42188 31.7812 -1.42188
Q19.7344 -1.42188 13.25 4.23438
Q6.78125 9.90625 6.78125 20.5156
Q6.78125 27.4844 10.7812 32.3125
Q14.7969 37.1562 21.9219 38.8125
M18.3125 54.3906
Q18.3125 48.7344 21.8438 45.5625
Q25.3906 42.3906 31.7812 42.3906
Q38.1406 42.3906 41.7188 45.5625
Q45.3125 48.7344 45.3125 54.3906
Q45.3125 60.0625 41.7188 63.2344
Q38.1406 66.4062 31.7812 66.4062
Q25.3906 66.4062 21.8438 63.2344
Q18.3125 60.0625 18.3125 54.3906" id="DejaVuSans-38"/>
      </defs>
      <g transform="translate(46.705625 219.31125)scale(0.12 -0.12)">
       <use xlink:href="#DejaVuSans-38"/>
       <use x="63.623046875" xlink:href="#DejaVuSans-30"/>
       <use x="127.24609375" xlink:href="#DejaVuSans-30"/>
      </g>
     </g>
    </g>
    <g id="ytick_5">
     <g id="line2d_33">
      <g>
       <use style="stroke:#000000;stroke-width:0.5;" x="72.0" xlink:href="#m728421d6d4" y="158.4"/>
      </g>
     </g>
     <g id="line2d_34">
      <g>
       <use style="stroke:#000000;stroke-width:0.5;" x="518.4" xlink:href="#mcb0005524f" y="158.4"/>
      </g>
     </g>
     <g id="text_16">
      <!-- 1000 -->
      <g transform="translate(39.575 161.71125)scale(0.12 -0.12)">
       <use xlink:href="#DejaVuSans-31"/>
       <use x="63.623046875" xlink:href="#DejaVuSans-30"/>
       <use x="127.24609375" xlink:href="#DejaVuSans-30"/>
       <use x="190.869140625" xlink:href="#DejaVuSans-30"/>
      </g>
     </g>
    </g>
    <g id="ytick_6">
     <g id="line2d_35">
      <g>
       <use style="stroke:#000000;stroke-width:0.5;" x="72.0" xlink:href="#m728421d6d4" y="100.8"/>
      </g>
     </g>
     <g id="line2d_36">
      <g>
       <use style="stroke:#000000;stroke-width:0.5;" x="518.4" xlink:href="#mcb0005524f" y="100.8"/>
      </g>
     </g>
     <g id="text_17">
      <!-- 1200 -->
      <g transform="translate(39.575 104.11125)scale(0.12 -0.12)">
       <use xlink:href="#DejaVuSans-31"/>
       <use x="63.623046875" xlink:href="#DejaVuSans-32"/>
       <use x="127.24609375" xlink:href="#DejaVuSans-30"/>
       <use x="190.869140625" xlink:href="#DejaVuSans-30"/>
      </g>
     </g>
    </g>
    <g id="ytick_7">
     <g id="line2d_37">
      <g>
       <use style="stroke:#000000;stroke-width:0.5;" x="72.0" xlink:href="#m728421d6d4" y="43.2"/>
      </g>
     </g>
     <g id="line2d_38">
      <g>
       <use style="stroke:#000000;stroke-width:0.5;" x="518.4" xlink:href="#mcb0005524f" y="43.2"/>
      </g>
     </g>
     <g id="text_18">
      <!-- 1400 -->
      <g transform="translate(39.575 46.51125)scale(0.12 -0.12)">
       <use xlink:href="#DejaVuSans-31"/>
       <use x="63.623046875" xlink:href="#DejaVuSans-34"/>
       <use x="127.24609375" xlink:href="#DejaVuSans-30"/>
       <use x="190.869140625" xlink:href="#DejaVuSans-30"/>
      </g>
     </g>
    </g>
   </g>
   <g id="patch_3">
    <path d="
M72 43.2
L518.4 43.2" style="fill:none;stroke:#000000;"/>
   </g>
   <g id="patch_4">
    <path d="
M518.4 388.8
L518.4 43.2" style="fill:none;stroke:#000000;"/>
   </g>
   <g id="patch_5">
    <path d="
M72 388.8
L518.4 388.8" style="fill:none;stroke:#000000;"/>
   </g>
   <g id="patch_6">
    <path d="
M72 388.8
L72 43.2" style="fill:none;stroke:#000000;"/>
   </g>
  </g>
 </g>
 <defs>
  <clipPath id="p7ff5b81e1d">
   <rect height="345.6" width="446.4" x="72.0" y="43.2"/>
  </clipPath>
 </defs>
</svg>
