<?xml version="1.0" encoding="utf-8" standalone="no"?>
<!DOCTYPE svg PUBLIC "-//W3C//DTD SVG 1.1//EN"
  "http://www.w3.org/Graphics/SVG/1.1/DTD/svg11.dtd">
<!-- Created with matplotlib (http://matplotlib.org/) -->
<svg height="432pt" version="1.1" viewBox="0 0 576 432" width="576pt" xmlns="http://www.w3.org/2000/svg" xmlns:xlink="http://www.w3.org/1999/xlink">
 <defs>
  <style type="text/css">
*{stroke-linecap:butt;stroke-linejoin:round;}
  </style>
 </defs>
 <g id="figure_1">
  <g id="patch_1">
   <path d="
M0 432
L576 432
L576 0
L0 0
z
" style="fill:#ffffff;"/>
  </g>
  <g id="axes_1">
   <g id="patch_2">
    <path d="
M72 388.8
L518.4 388.8
L518.4 43.2
L72 43.2
z
" style="fill:#ffffff;"/>
   </g>
   <g id="line2d_1">
    <path clip-path="url(#p7ff5b81e1d)" d="
M132.715 387.484
L133.537 386.239
L136.458 385.24
L143.445 383.685
L144.847 382.821
L145.067 381.859
L148.498 381.38
L149.355 380.588
L155.205 380.469
L155.249 379.645
L162.171 379.688
L162.171 378.93
L162.918 378.236
L169.822 378.28
L170.746 377.699
L170.746 377.006
L174.895 376.848
L177.444 376.554
L180.674 375.788
L181.17 375.261
L184.305 375.17
L195.581 376.182
L196.524 375.802
L202.284 376.07
L230.297 378.052
L233.585 377.934
L234.004 377.597
L235.652 377.369
L235.652 377.001
L242.431 376.507
L243.789 376.27
L250.387 376.48
L251.145 376.208
L251.345 375.889
L265.48 376.817
L276.69 377.059
L279.272 376.976
L280.656 376.82
L280.697 376.552
L287.052 376.737
L289.553 376.643
L303.941 377.223
L314.317 376.865
L314.731 376.653
L318.033 376.426
L318.55 376.235
L320.186 376.142
L320.768 375.952
L324.121 375.998
L324.726 375.816
L333.064 375.776
L342.082 376.12
L344.016 375.867
L344.016 375.675
L345.307 375.582
L345.774 375.42
L345.912 375.242
L345.912 374.86
L346.351 374.702
L356.055 374.832
L357.627 374.564
L357.627 374.384
L358.547 374.27
L361.501 374.132
L366.531 374.174
L366.531 374.002
L370.524 373.985
L371.086 373.872
L386.979 374.601
L392.601 374.51
L393.32 374.228
L393.32 374.074
L394.502 373.981
L394.502 373.83
L403.16 374.033
L405.23 373.949
L405.751 373.678
L407.701 373.612
L407.701 373.465
L408.178 373.339
L414.625 373.139
L416.239 373.055
L440.161 373.323
L440.161 373.19
L442.93 373.092
L443.699 373
L450.261 373.121
L451.556 373.064
L459.662 373.036
L461.282 373.008
L467.57 373.03
L470.886 372.866
L503.091 373.633
L511.4 373.719
L514.678 373.461
L514.976 373.37
L516.901 373.249
L516.901 373.249" style="fill:none;stroke:#ff0000;stroke-linecap:square;"/>
   </g>
   <g id="line2d_2">
    <path clip-path="url(#p7ff5b81e1d)" d="
M72 289.307
L72.0187 122.199
L72.0969 125.653
L72.1496 105.389
L72.3306 81.4907
L72.4767 132.663
L72.6667 136.329
L72.7038 79.1966
L72.9099 75.2486
L73.1424 86.3025
L73.3438 87.2127
L73.3543 77.8968
L74.6453 164.922
L76.3836 204.077
L76.591 199.809
L80.0672 234.753
L80.7475 236.296
L80.7637 231.105
L81.5155 233.904
L81.6197 220.689
L82.9187 225.65
L83.8299 226.184
L83.9782 222.079
L84.354 218.646
L84.4413 209.116
L85.1804 209.466
L85.4792 207.111
L86.7935 209.943
L87.1203 208.19
L87.5996 208.025
L87.6571 200.188
L88.9145 203.11
L89.321 201.567
L90.7664 206.752
L91.9279 214.052
L92.8248 216.239
L93.522 216.206
L93.7237 213.836
L94.7635 213.829
L96.6155 220.164
L97.0039 220.857
L97.6493 222.509
L97.6506 220.542
L98.0612 219.597
L98.0625 216.801
L98.3687 212.761
L98.8791 212.871
L100.212 212.834
L100.291 210.483
L100.44 209.097
L101.363 208.219
L101.761 207.405
L101.761 204.668
L103.183 205.614
L104.535 207.711
L105.087 206.22
L106.673 209.019
L107.489 211.252
L107.489 208.804
L107.769 208.398
L107.808 206.215
L108.551 206.034
L108.684 204.299
L108.685 202.354
L109.029 201.639
L109.59 202.263
L110.844 204.639
L111.836 206.916
L111.898 205.491
L112.306 204.808
L112.306 202.661
L113.24 203.585
L113.242 201.556
L113.714 201.189
L114.626 201.446
L114.632 200.289
L116.004 201.872
L116.106 200.179
L116.487 200.4
L116.698 198.638
L118.748 202.297
L119.068 201.147
L119.068 199.348
L119.81 200.817
L120.346 201.183
L120.469 197.962
L120.599 197.192
L120.601 196.186
L120.802 194.406
L121.046 194.397
L121.521 193.249
L121.522 189.686
L121.973 188.633
L122.665 189.94
L123.286 190.093
L123.313 188.89
L124.234 190.296
L124.238 189.504
L124.509 188.464
L124.556 184.123
L124.982 185.549
L125.172 185.031
L125.382 183.747
L125.402 182.097
L126.064 178.727
L126.064 177.158
L126.768 176.522
L126.863 173.735
L127.79 178.379
L128.185 182.218
L128.296 178.106
L128.65 180.265
L128.696 179.954
L128.761 178.357
L130.408 185.989
L130.613 181.705
L130.871 181.64
L131.07 178.033
L131.388 178.058
L131.504 177.821
L131.84 179.203
L131.934 179.053
L132.39 180.774
L132.715 180.827
L132.821 180.538
L132.822 179.244
L132.939 179.084
L133.309 180.128
L133.426 178.184
L133.537 176.223
L133.717 176.28
L134.267 178.534
L134.58 176.961
L134.664 173.01
L134.764 172.709
L134.794 171.692
L135.01 171.565
L135.191 169.9
L135.466 169.805
L135.729 170.09
L135.95 169.959
L136.018 167.852
L136.39 167.575
L136.458 165.684
L136.883 166.152
L137.348 165.967
L137.348 164.824
L138.448 168.817
L138.586 168.15
L138.87 169.696
L138.946 167.721
L139.124 167.775
L140.036 170.414
L140.172 170.394
L140.262 168.596
L140.812 167.819
L141.406 168.781
L141.611 169.695
L141.939 169.496
L142.447 171.03
L142.524 169.637
L143.445 173.976
L143.589 173.67
L144.847 176.531
L145.067 173.643
L145.681 173.929
L146.049 173.631
L146.473 174.431
L146.653 172.346
L147.392 172.316
L147.441 170.572
L147.558 170.469
L147.731 169.565
L147.935 170.183
L147.974 169.458
L148.072 169.651
L148.355 168.631
L148.493 168.922
L148.498 168.041
L148.893 168.839
L149.141 168.948
L149.45 167.83
L149.803 167.362
L150.627 168.581
L150.641 166.928
L151.486 168.66
L152.066 169.643
L152.353 169.386
L153.113 170.891
L153.4 171.046
L154.768 173.328
L154.829 172.903
L155.089 172.477
L155.253 169.935
L155.267 169.329
L155.534 169
L156.156 170.205
L156.425 169.72
L156.841 169.89
L156.971 169.48
L156.992 168.907
L157.46 170.03
L157.564 168.764
L158.328 170.596
L158.578 170.745
L159.106 171.514
L159.854 172.079
L160.198 171.627
L160.675 171.739
L160.851 170.763
L161.609 171.888
L161.942 171.332
L162.171 171.631
L162.204 170.194
L162.585 170.185
L162.599 168.744
L162.918 168.467
L163.439 168.234
L163.581 167.104
L163.847 166.586
L163.953 165.475
L164.381 165.416
L164.916 166.416
L165.177 166.011
L165.664 166.338
L165.744 165.93
L165.996 165.677
L166.549 166.33
L167.106 167.259
L167.246 166.896
L167.678 167.407
L168.582 167.739
L168.774 167.26
L169.198 167.45
L169.407 167.127
L169.793 167.033
L169.822 166.47
L170.341 167.222
L170.608 166.335
L170.717 165.989
L170.746 164.712
L171.499 165.791
L172.156 166.513
L173.449 169.108
L173.509 168.659
L173.995 169.067
L174.895 170.345
L174.972 169.915
L175.329 169.95
L177.301 173.891
L177.444 173.528
L178.016 174.616
L178.106 173.749
L178.378 173.671
L178.61 173.798
L178.61 173.168
L178.821 172.814
L178.921 171.881
L178.993 171.577
L179.317 171.395
L179.779 171.557
L179.864 171.295
L179.983 170.403
L180.193 170.181
L180.674 170.696
L180.803 169.917
L181.17 170.333
L181.31 170.267
L181.43 170.031
L181.855 170.56
L181.861 169.979
L183.147 171.907
L183.228 171.538
L184.305 173.679
L184.486 172.47
L185.011 173.243
L185.286 173.267
L186.239 174.831
L186.663 175.219
L187.611 176.887
L187.726 176.691
L188.202 177.073
L188.249 176.644
L188.459 176.263
L188.68 176.399
L189.026 175.929
L189.088 175.619
L190.293 177.574
L190.369 177.352
L190.442 176.466
L190.997 177.249
L191.365 177.402
L191.632 177.262
L191.708 175.858
L191.896 175.934
L191.943 174.968
L192.37 175.375
L192.642 175.366
L192.77 174.757
L193.18 174.859
L193.204 174.406
L194.204 175.815
L194.228 175.373
L194.409 175.087
L195.014 175.953
L195.314 175.982
L195.465 175.036
L195.749 174.661
L195.891 174.527
L196.315 175.114
L196.524 175.112
L196.753 174.714
L196.867 174.379
L196.877 173.886
L197.061 173.703
L197.061 172.316
L197.177 172.128
L197.535 172.12
L197.87 172.29
L198.973 174.115
L199.126 173.997
L199.14 173.048
L199.403 173.108
L199.862 172.494
L199.883 171.593
L200.126 171.853
L200.46 170.279
L200.756 170.479
L200.756 170.119
L201.884 171.866
L202.284 171.896
L202.807 172.317
L203.229 172.449
L203.566 171.96
L203.647 171.141
L203.748 170.845
L204.226 171.493
L204.411 171.307
L204.938 171.681
L204.971 171.241
L205.109 170.954
L205.843 171.669
L206.081 171.717
L206.82 172.878
L207.32 173.33
L207.434 173.076
L207.714 172.893
L207.714 172.149
L207.868 171.964
L207.911 171.614
L208.566 172.175
L208.78 172.082
L208.844 171.838
L209.445 172.606
L209.56 172.002
L209.769 172.275
L209.778 171.84
L210.035 171.986
L210.11 171.216
L210.822 171.476
L210.946 170.42
L211.395 170.635
L211.395 170.347
L211.512 170.169
L212.046 170.773
L212.279 170.717
L213.177 171.319
L213.561 171.355
L213.651 170.267
L214.094 170.59
L214.094 169.822
L214.242 169.661
L214.28 168.865
L214.761 168.784
L214.8 168.411
L215.082 168.233
L215.438 168.547
L215.565 167.997
L215.695 168.233
L215.898 168.01
L215.924 166.601
L216.167 166.713
L216.948 167.495
L217.305 168.046
L217.791 166.722
L217.963 166.711
L218.764 167.35
L218.816 167.171
L218.862 166.423
L219.721 167.55
L220.053 167.613
L220.431 167.262
L220.652 167.284
L220.652 166.995
L220.888 166.845
L220.917 166.524
L221.075 166.344
L221.179 166.485
L221.879 166.613
L221.97 166.421
L223.261 167.945
L223.465 168.014
L223.512 167.705
L223.805 167.406
L224.209 167.677
L224.785 168.308
L225 167.369
L225.304 167.669
L225.304 167.275
L226.367 168.568
L226.383 168.26
L227.336 169.212
L227.501 169.037
L227.558 168.447
L227.929 167.861
L228.301 167.88
L228.339 167.58
L228.491 167.489
L228.763 167.053
L229.221 167.698
L229.43 167.62
L230.173 167.995
L230.316 167.347
L231.142 167.7
L231.507 167.936
L231.693 167.731
L232.56 168.612
L232.617 168.356
L232.998 167.996
L233.094 167.268
L233.356 167.123
L233.537 167.272
L233.585 166.612
L233.927 166.603
L234.004 166.24
L234.151 165.959
L234.897 165.791
L235.242 166.033
L235.338 165.923
L235.352 165.393
L235.652 165.345
L235.652 164.981
L235.778 164.736
L235.971 164.818
L236.071 164.199
L236.281 164.15
L236.9 164.289
L236.938 163.988
L237.16 163.903
L237.586 164.069
L238.155 164.899
L238.444 165.023
L238.501 164.815
L239.192 165.549
L239.249 164.948
L239.487 165.024
L240.573 166.015
L240.826 165.677
L240.84 165.062
L241.016 165.049
L241.507 163.462
L241.593 162.89
L241.764 162.825
L241.788 162.409
L241.964 162.143
L242.431 162.604
L242.56 162.439
L243.441 163.033
L243.601 162.381
L244.024 161.95
L244.456 161.909
L244.489 161.306
L244.949 161.433
L244.949 161.107
L246.816 163.236
L246.816 162.653
L247.548 163.36
L247.553 163.03
L247.862 163.165
L247.896 162.895
L248.909 163.882
L249.473 164.156
L249.573 163.377
L249.735 163.162
L250.387 163.705
L250.716 162.478
L250.931 162.644
L251.345 162.359
L251.569 162.361
L251.817 162.525
L251.979 162.323
L251.979 161.668
L252.129 161.537
L252.129 161.21
L252.931 161.694
L253.232 161.009
L253.446 160.866
L253.989 161.606
L254.394 161.616
L254.579 161.709
L254.799 161.635
L255.032 161.212
L255.313 161.283
L255.5 161.577
L255.523 161.459
L255.661 161.178
L256.341 161.862
L256.4 161.448
L257.5 162.449
L257.505 162.143
L257.734 162.314
L259.017 163.715
L259.077 163.203
L259.587 163.62
L260.061 163.821
L260.087 163.567
L260.849 164.066
L261.012 164.09
L261.959 165.099
L262.064 164.53
L262.231 164.463
L262.594 164.65
L262.847 163.932
L263.489 164.507
L263.627 164.065
L263.755 164.055
L265.48 165.909
L265.561 165.189
L266.004 165.157
L266.027 164.638
L267.32 166.007
L267.357 165.676
L267.837 165.612
L267.867 165.488
L268.305 165.543
L268.305 165.258
L268.795 164.728
L269.677 165.339
L269.954 165.303
L269.958 165.023
L270.12 165.041
L270.13 164.76
L270.516 164.461
L270.535 164.096
L271.207 164.552
L271.378 164.49
L271.43 164.181
L271.973 164.229
L272.917 164.757
L273.026 164.611
L273.041 164.336
L273.346 164.288
L273.674 164.384
L273.684 164.144
L273.793 164.206
L274.136 164.198
L274.279 163.737
L274.508 163.746
L274.684 163.285
L274.889 163.227
L274.975 162.537
L275.208 162.774
L275.304 162.542
L275.456 162.529
L275.57 162.068
L275.659 162.02
L275.866 162.056
L276.69 162.935
L277.03 162.924
L277.372 162.994
L277.395 162.783
L278.091 163.427
L278.119 163.178
L278.267 163.019
L278.792 163.381
L278.824 163.04
L279.272 162.504
L279.726 163.227
L280.266 163.43
L280.468 163.352
L280.468 163.088
L280.62 163.254
L280.697 162.899
L281.617 163.666
L281.617 163.432
L281.959 163.187
L283.226 163.485
L283.812 164.112
L285.168 165.077
L285.418 164.992
L286.333 165.758
L286.356 165.531
L286.914 165.835
L287.971 166.185
L288.11 165.966
L288.362 166.128
L288.474 166.048
L289.224 166.703
L289.291 166.572
L290.068 166.781
L290.511 166.844
L290.606 166.665
L290.944 166.667
L291.006 166.509
L291.319 166.601
L291.435 166.244
L291.645 166.35
L292.307 166.286
L292.495 166.222
L293.183 166.718
L293.226 166.54
L294.093 167.204
L294.303 167.039
L295.675 167.837
L295.758 167.69
L296.028 167.667
L296.128 167.081
L297.557 167.619
L298.333 168.195
L298.629 168.215
L298.705 168.075
L299.715 168.47
L299.729 168.236
L300.101 168.458
L300.256 168.345
L300.463 168.338
L301.611 169.149
L301.616 168.911
L302.149 168.836
L302.807 169.134
L303.5 169.741
L303.917 169.769
L303.974 169.415
L304.336 169.479
L304.355 169.277
L304.665 169.267
L304.813 169.018
L305.799 169.028
L306.249 169.301
L306.27 169.09
L306.404 168.9
L306.642 169.011
L306.875 168.887
L308.067 169.908
L308.381 169.953
L309.262 170.174
L309.262 169.941
L310.601 170.826
L310.61 170.603
L310.801 170.667
L310.849 170.481
L311.03 170.356
L311.287 170.415
L311.301 170.192
L311.978 170.658
L312.049 170.345
L312.349 170.328
L312.95 170.726
L312.954 170.502
L313.093 170.62
L313.364 170.607
L313.907 171.04
L314.317 171.219
L314.731 171.072
L315.613 171.99
L315.646 171.82
L317.571 173.092
L317.599 172.934
L318.028 173.014
L318.047 172.616
L318.347 172.694
L318.557 172.06
L318.632 171.292
L318.795 171.181
L319.067 171.492
L319.541 171.741
L319.542 171.533
L319.891 171.838
L319.953 171.353
L320.129 171.262
L320.371 170.503
L320.849 170.53
L321.068 170.505
L322.23 171.712
L322.487 171.743
L322.597 171.504
L322.74 171.457
L322.74 171.257
L323.131 171.435
L323.14 171.236
L323.583 171.824
L324.121 172.039
L324.126 171.835
L324.264 171.695
L324.517 170.893
L324.726 170.663
L325.008 171.015
L325.251 171.068
L325.255 170.855
L327.151 172.503
L327.523 172.353
L327.523 172.142
L328.242 172.73
L328.485 172.758
L328.576 172.449
L329.033 172.909
L329.343 173.003
L329.405 172.638
L329.819 172.212
L330.048 172.364
L330.056 172.19
L330.272 172.125
L330.644 172.24
L330.677 172.094
L331.304 172.652
L331.31 172.482
L331.794 172.792
L333.216 174.373
L333.855 174.773
L333.878 174.198
L334.188 174.741
L334.331 174.62
L334.879 175.067
L334.931 174.783
L336.642 176.288
L336.665 176.129
L336.875 175.867
L337.556 176.318
L337.561 175.935
L337.899 175.69
L337.914 175.563
L337.995 175.585
L338.367 176.011
L338.504 175.904
L339.448 176.333
L340.038 176.788
L340.329 176.694
L340.519 176.941
L340.772 176.91
L341.21 177.422
L341.348 177.252
L342.325 178.005
L342.369 177.7
L342.806 177.894
L343.035 177.841
L343.545 178.022
L344.016 178.397
L344.016 178.222
L344.088 178.23
L344.86 178.741
L345.279 179.161
L345.307 179.029
L345.687 179.215
L345.765 178.896
L345.774 178.741
L345.912 178.742
L345.912 178.367
L346.351 178.667
L346.465 178.587
L347.246 179.257
L347.352 179.175
L347.58 179.151
L348.957 180.031
L348.995 179.908
L349.247 180.029
L349.262 179.872
L349.556 180.099
L349.589 179.947
L349.981 180.037
L350.014 179.912
L350.324 179.919
L350.362 179.785
L351.253 180.419
L351.434 180.238
L351.434 180.056
L352.764 180.912
L353.826 181.631
L353.826 181.449
L354.926 182.042
L355.486 182.829
L356.485 183.23
L356.884 183.205
L357.046 183.058
L357.461 183.323
L357.627 183.19
L357.627 183.014
L357.851 183.172
L358.175 183.236
L358.175 183.062
L358.547 183.233
L359.233 183.649
L359.314 183.539
L359.566 183.549
L360.405 184.114
L360.452 184.007
L360.967 184.423
L361.024 184.312
L361.501 184.683
L362.817 185.403
L362.965 185.283
L364.311 186.317
L364.373 186.055
L365.057 186.39
L365.126 186.348
L366.479 187.217
L366.531 186.966
L367.503 187.632
L367.699 187.559
L367.946 187.743
L367.956 187.577
L368.366 187.466
L368.742 187.633
L368.833 187.292
L369.29 187.526
L369.523 187.511
L369.538 187.37
L370.071 187.867
L370.128 187.77
L370.524 187.453
L371.086 187.859
L371.2 187.686
L371.562 187.465
L371.62 187.229
L371.829 187.147
L371.829 186.981
L372.082 186.972
L372.086 186.654
L372.544 186.635
L372.825 186.699
L372.825 186.533
L373.916 187.216
L374.226 187.248
L376.441 189.369
L376.498 189.158
L377.051 189.184
L377.127 188.78
L377.313 188.705
L378.975 189.922
L379.337 189.987
L379.766 190.226
L379.876 189.559
L380.228 189.658
L380.228 189.498
L380.79 189.68
L382.615 190.923
L382.891 190.966
L382.891 190.81
L382.987 190.86
L383.258 190.864
L383.946 191.307
L384.235 191.394
L384.425 190.842
L385.845 191.263
L386.607 191.251
L386.979 191.256
L387.036 191.119
L387.408 191.146
L387.422 191.008
L387.898 190.973
L388.326 190.837
L388.402 190.732
L389.413 190.868
L389.433 190.738
L389.642 190.669
L391.581 191.359
L391.681 191.14
L392.691 191.108
L393.32 190.924
L393.42 190.728
L393.987 190.789
L394.039 190.675
L394.43 190.77
L394.502 190.366
L394.711 190.277
L395.311 190.397
L395.421 190.064
L396.302 190.248
L396.312 190.125
L396.579 190.068
L396.598 189.937
L397.131 190.094
L397.212 189.697
L398.06 189.84
L398.089 189.714
L398.966 189.659
L400.471 190.393
L400.897 190.413
L400.897 190.265
L401.737 190.58
L401.794 190.342
L402.08 190.267
L403.16 190.414
L404.824 190.831
L404.856 190.697
L405.351 190.601
L406.679 189.943
L407.701 190.177
L407.701 190.032
L407.746 189.93
L408.178 190.014
L409.118 190.227
L409.391 190.163
L410.045 190.362
L410.293 190.256
L410.293 189.969
L410.763 190.005
L410.827 189.888
L413.101 190.401
L413.126 190.27
L414.581 190.694
L414.644 190.292
L416.302 190.517
L418.589 191.421
L418.589 191.28
L419.059 190.998
L419.637 191.227
L419.675 191.117
L420.469 191.223
L420.558 191.004
L421.32 191.001
L421.516 191.035
L422.381 191.311
L422.845 191.341
L423.251 191.422
L423.512 191.353
L423.512 191.212
L424.985 191.794
L425.049 191.677
L425.379 191.708
L425.43 191.596
L425.964 191.804
L426.91 192.304
L426.958 192.211
L427.374 192.294
L427.412 192.184
L427.749 192.217
L428.733 192.666
L429.044 192.702
L429.133 192.493
L429.603 192.602
L429.61 192.473
L429.921 192.483
L430.448 192.68
L430.448 192.545
L431.261 192.532
L431.261 192.396
L431.395 192.409
L431.878 192.605
L432.926 193.177
L433.25 193.207
L435.085 194.368
L435.638 194.606
L435.695 194.389
L437.36 194.763
L437.499 194.751
L440.148 196.128
L440.18 195.752
L440.98 195.761
L441.056 195.566
L441.387 195.616
L442.028 196.014
L442.06 195.907
L442.079 195.792
L442.441 195.679
L442.473 195.582
L443.731 195.672
L443.731 195.542
L444.353 195.734
L445.007 195.908
L448.19 197.675
L448.933 197.99
L448.946 197.864
L448.952 197.738
L449.117 197.624
L449.81 198.056
L449.841 197.946
L450.597 197.739
L451.938 198.418
L451.938 198.292
L456.645 200.819
L456.975 200.809
L457.407 200.947
L458.41 201.24
L458.48 201.168
L458.817 201.221
L459.662 201.496
L459.7 201.418
L460.812 201.845
L460.85 201.77
L461.491 201.83
L461.675 201.755
L462.929 202.347
L464.956 202.556
L465.792 202.886
L465.798 202.766
L466.281 202.735
L466.992 203.053
L466.992 202.935
L467.945 202.952
L468.574 203.228
L468.777 203.151
L469.743 203.478
L469.743 203.24
L470.816 203.88
L470.829 203.77
L470.886 203.7
L472.957 204.751
L472.957 204.636
L473.554 204.895
L473.567 204.785
L473.872 204.7
L474.367 204.94
L474.38 204.842
L474.45 204.796
L475.001 205.01
L476.755 206.041
L477.632 206.387
L478.229 206.627
L479.341 206.842
L479.963 207.241
L482.136 207.675
L482.968 207.996
L483.139 208.02
L483.139 207.684
L483.622 207.883
L484.06 207.914
L485.826 208.572
L487.598 209.744
L489.117 210.179
L490.762 210.811
L490.762 210.701
L492.236 211.323
L493.462 211.529
L494.84 211.864
L494.967 211.849
L499.185 213.348
L499.433 213.319
L500.524 213.855
L501.027 213.958
L503.25 214.576
L506.585 215.5
L507.188 215.449
L508.637 215.863
L508.643 215.766
L509.221 215.971
L509.31 215.831
L510.447 216.142
L510.542 215.992
L511.4 216.21
L511.578 216.029
L512.378 216.36
L512.378 216.258
L512.956 216.352
L512.956 216.251
L513.604 216.356
L514.538 216.655
L515.421 216.706
L516.825 217.057
L517.091 217.028
L517.758 216.944
L518.4 217.205
L518.4 217.205" style="fill:none;stroke:#008000;stroke-linecap:square;"/>
   </g>
   <g id="matplotlib.axis_1">
    <g id="xtick_1">
     <g id="line2d_3">
      <defs>
       <path d="
M0 0
L0 -4" id="m93b0483c22" style="stroke:#000000;stroke-width:0.5;"/>
      </defs>
      <g>
       <use style="stroke:#000000;stroke-width:0.5;" x="73.4581333052" xlink:href="#m93b0483c22" y="388.8"/>
      </g>
     </g>
     <g id="line2d_4">
      <defs>
       <path d="
M0 0
L0 4" id="m741efc42ff" style="stroke:#000000;stroke-width:0.5;"/>
      </defs>
      <g>
       <use style="stroke:#000000;stroke-width:0.5;" x="73.4581333052" xlink:href="#m741efc42ff" y="43.2"/>
      </g>
     </g>
     <g id="text_1">
      <!-- Sep 2013 -->
      <defs>
       <path d="
M40.5781 39.3125
Q47.6562 37.7969 51.625 33
Q55.6094 28.2188 55.6094 21.1875
Q55.6094 10.4062 48.1875 4.48438
Q40.7656 -1.42188 27.0938 -1.42188
Q22.5156 -1.42188 17.6562 -0.515625
Q12.7969 0.390625 7.625 2.20312
L7.625 11.7188
Q11.7188 9.32812 16.5938 8.10938
Q21.4844 6.89062 26.8125 6.89062
Q36.0781 6.89062 40.9375 10.5469
Q45.7969 14.2031 45.7969 21.1875
Q45.7969 27.6406 41.2812 31.2656
Q36.7656 34.9062 28.7188 34.9062
L20.2188 34.9062
L20.2188 43.0156
L29.1094 43.0156
Q36.375 43.0156 40.2344 45.9219
Q44.0938 48.8281 44.0938 54.2969
Q44.0938 59.9062 40.1094 62.9062
Q36.1406 65.9219 28.7188 65.9219
Q24.6562 65.9219 20.0156 65.0312
Q15.375 64.1562 9.8125 62.3125
L9.8125 71.0938
Q15.4375 72.6562 20.3438 73.4375
Q25.25 74.2188 29.5938 74.2188
Q40.8281 74.2188 47.3594 69.1094
Q53.9062 64.0156 53.9062 55.3281
Q53.9062 49.2656 50.4375 45.0938
Q46.9688 40.9219 40.5781 39.3125" id="DejaVuSans-33"/>
       <path d="
M12.4062 8.29688
L28.5156 8.29688
L28.5156 63.9219
L10.9844 60.4062
L10.9844 69.3906
L28.4219 72.9062
L38.2812 72.9062
L38.2812 8.29688
L54.3906 8.29688
L54.3906 0
L12.4062 0
z
" id="DejaVuSans-31"/>
       <path d="
M31.7812 66.4062
Q24.1719 66.4062 20.3281 58.9062
Q16.5 51.4219 16.5 36.375
Q16.5 21.3906 20.3281 13.8906
Q24.1719 6.39062 31.7812 6.39062
Q39.4531 6.39062 43.2812 13.8906
Q47.125 21.3906 47.125 36.375
Q47.125 51.4219 43.2812 58.9062
Q39.4531 66.4062 31.7812 66.4062
M31.7812 74.2188
Q44.0469 74.2188 50.5156 64.5156
Q56.9844 54.8281 56.9844 36.375
Q56.9844 17.9688 50.5156 8.26562
Q44.0469 -1.42188 31.7812 -1.42188
Q19.5312 -1.42188 13.0625 8.26562
Q6.59375 17.9688 6.59375 36.375
Q6.59375 54.8281 13.0625 64.5156
Q19.5312 74.2188 31.7812 74.2188" id="DejaVuSans-30"/>
       <path id="DejaVuSans-20"/>
       <path d="
M19.1875 8.29688
L53.6094 8.29688
L53.6094 0
L7.32812 0
L7.32812 8.29688
Q12.9375 14.1094 22.625 23.8906
Q32.3281 33.6875 34.8125 36.5312
Q39.5469 41.8438 41.4219 45.5312
Q43.3125 49.2188 43.3125 52.7812
Q43.3125 58.5938 39.2344 62.25
Q35.1562 65.9219 28.6094 65.9219
Q23.9688 65.9219 18.8125 64.3125
Q13.6719 62.7031 7.8125 59.4219
L7.8125 69.3906
Q13.7656 71.7812 18.9375 73
Q24.125 74.2188 28.4219 74.2188
Q39.75 74.2188 46.4844 68.5469
Q53.2188 62.8906 53.2188 53.4219
Q53.2188 48.9219 51.5312 44.8906
Q49.8594 40.875 45.4062 35.4062
Q44.1875 33.9844 37.6406 27.2188
Q31.1094 20.4531 19.1875 8.29688" id="DejaVuSans-32"/>
       <path d="
M53.5156 70.5156
L53.5156 60.8906
Q47.9062 63.5781 42.9219 64.8906
Q37.9375 66.2188 33.2969 66.2188
Q25.25 66.2188 20.875 63.0938
Q16.5 59.9688 16.5 54.2031
Q16.5 49.3594 19.4062 46.8906
Q22.3125 44.4375 30.4219 42.9219
L36.375 41.7031
Q47.4062 39.5938 52.6562 34.2969
Q57.9062 29 57.9062 20.125
Q57.9062 9.51562 50.7969 4.04688
Q43.7031 -1.42188 29.9844 -1.42188
Q24.8125 -1.42188 18.9688 -0.25
Q13.1406 0.921875 6.89062 3.21875
L6.89062 13.375
Q12.8906 10.0156 18.6562 8.29688
Q24.4219 6.59375 29.9844 6.59375
Q38.4219 6.59375 43.0156 9.90625
Q47.6094 13.2344 47.6094 19.3906
Q47.6094 24.75 44.3125 27.7812
Q41.0156 30.8125 33.5 32.3281
L27.4844 33.5
Q16.4531 35.6875 11.5156 40.375
Q6.59375 45.0625 6.59375 53.4219
Q6.59375 63.0938 13.4062 68.6562
Q20.2188 74.2188 32.1719 74.2188
Q37.3125 74.2188 42.625 73.2812
Q47.9531 72.3594 53.5156 70.5156" id="DejaVuSans-53"/>
       <path d="
M56.2031 29.5938
L56.2031 25.2031
L14.8906 25.2031
Q15.4844 15.9219 20.4844 11.0625
Q25.4844 6.20312 34.4219 6.20312
Q39.5938 6.20312 44.4531 7.46875
Q49.3125 8.73438 54.1094 11.2812
L54.1094 2.78125
Q49.2656 0.734375 44.1875 -0.34375
Q39.1094 -1.42188 33.8906 -1.42188
Q20.7969 -1.42188 13.1562 6.1875
Q5.51562 13.8125 5.51562 26.8125
Q5.51562 40.2344 12.7656 48.1094
Q20.0156 56 32.3281 56
Q43.3594 56 49.7812 48.8906
Q56.2031 41.7969 56.2031 29.5938
M47.2188 32.2344
Q47.125 39.5938 43.0938 43.9844
Q39.0625 48.3906 32.4219 48.3906
Q24.9062 48.3906 20.3906 44.1406
Q15.875 39.8906 15.1875 32.1719
z
" id="DejaVuSans-65"/>
       <path d="
M18.1094 8.20312
L18.1094 -20.7969
L9.07812 -20.7969
L9.07812 54.6875
L18.1094 54.6875
L18.1094 46.3906
Q20.9531 51.2656 25.2656 53.625
Q29.5938 56 35.5938 56
Q45.5625 56 51.7812 48.0938
Q58.0156 40.1875 58.0156 27.2969
Q58.0156 14.4062 51.7812 6.48438
Q45.5625 -1.42188 35.5938 -1.42188
Q29.5938 -1.42188 25.2656 0.953125
Q20.9531 3.32812 18.1094 8.20312
M48.6875 27.2969
Q48.6875 37.2031 44.6094 42.8438
Q40.5312 48.4844 33.4062 48.4844
Q26.2656 48.4844 22.1875 42.8438
Q18.1094 37.2031 18.1094 27.2969
Q18.1094 17.3906 22.1875 11.75
Q26.2656 6.10938 33.4062 6.10938
Q40.5312 6.10938 44.6094 11.75
Q48.6875 17.3906 48.6875 27.2969" id="DejaVuSans-70"/>
      </defs>
      <g transform="translate(45.4521958052 401.918125)scale(0.12 -0.12)">
       <use xlink:href="#DejaVuSans-53"/>
       <use x="63.4765625" xlink:href="#DejaVuSans-65"/>
       <use x="125.0" xlink:href="#DejaVuSans-70"/>
       <use x="188.4765625" xlink:href="#DejaVuSans-20"/>
       <use x="220.263671875" xlink:href="#DejaVuSans-32"/>
       <use x="283.88671875" xlink:href="#DejaVuSans-30"/>
       <use x="347.509765625" xlink:href="#DejaVuSans-31"/>
       <use x="411.1328125" xlink:href="#DejaVuSans-33"/>
      </g>
     </g>
    </g>
    <g id="xtick_2">
     <g id="line2d_5">
      <g>
       <use style="stroke:#000000;stroke-width:0.5;" x="115.077342262" xlink:href="#m93b0483c22" y="388.8"/>
      </g>
     </g>
     <g id="line2d_6">
      <g>
       <use style="stroke:#000000;stroke-width:0.5;" x="115.077342262" xlink:href="#m741efc42ff" y="43.2"/>
      </g>
     </g>
     <g id="text_2">
      <!-- Dec 2013 -->
      <defs>
       <path d="
M19.6719 64.7969
L19.6719 8.10938
L31.5938 8.10938
Q46.6875 8.10938 53.6875 14.9375
Q60.6875 21.7812 60.6875 36.5312
Q60.6875 51.1719 53.6875 57.9844
Q46.6875 64.7969 31.5938 64.7969
z

M9.8125 72.9062
L30.0781 72.9062
Q51.2656 72.9062 61.1719 64.0938
Q71.0938 55.2812 71.0938 36.5312
Q71.0938 17.6719 61.125 8.82812
Q51.1719 0 30.0781 0
L9.8125 0
z
" id="DejaVuSans-44"/>
       <path d="
M48.7812 52.5938
L48.7812 44.1875
Q44.9688 46.2969 41.1406 47.3438
Q37.3125 48.3906 33.4062 48.3906
Q24.6562 48.3906 19.8125 42.8438
Q14.9844 37.3125 14.9844 27.2969
Q14.9844 17.2812 19.8125 11.7344
Q24.6562 6.20312 33.4062 6.20312
Q37.3125 6.20312 41.1406 7.25
Q44.9688 8.29688 48.7812 10.4062
L48.7812 2.09375
Q45.0156 0.34375 40.9844 -0.53125
Q36.9688 -1.42188 32.4219 -1.42188
Q20.0625 -1.42188 12.7812 6.34375
Q5.51562 14.1094 5.51562 27.2969
Q5.51562 40.6719 12.8594 48.3281
Q20.2188 56 33.0156 56
Q37.1562 56 41.1094 55.1406
Q45.0625 54.2969 48.7812 52.5938" id="DejaVuSans-63"/>
      </defs>
      <g transform="translate(86.770467262 401.918125)scale(0.12 -0.12)">
       <use xlink:href="#DejaVuSans-44"/>
       <use x="77.001953125" xlink:href="#DejaVuSans-65"/>
       <use x="138.525390625" xlink:href="#DejaVuSans-63"/>
       <use x="193.505859375" xlink:href="#DejaVuSans-20"/>
       <use x="225.29296875" xlink:href="#DejaVuSans-32"/>
       <use x="288.916015625" xlink:href="#DejaVuSans-30"/>
       <use x="352.5390625" xlink:href="#DejaVuSans-31"/>
       <use x="416.162109375" xlink:href="#DejaVuSans-33"/>
      </g>
     </g>
    </g>
    <g id="xtick_3">
     <g id="line2d_7">
      <g>
       <use style="stroke:#000000;stroke-width:0.5;" x="156.239197274" xlink:href="#m93b0483c22" y="388.8"/>
      </g>
     </g>
     <g id="line2d_8">
      <g>
       <use style="stroke:#000000;stroke-width:0.5;" x="156.239197274" xlink:href="#m741efc42ff" y="43.2"/>
      </g>
     </g>
     <g id="text_3">
      <!-- Mar 2014 -->
      <defs>
       <path d="
M9.8125 72.9062
L24.5156 72.9062
L43.1094 23.2969
L61.8125 72.9062
L76.5156 72.9062
L76.5156 0
L66.8906 0
L66.8906 64.0156
L48.0938 14.0156
L38.1875 14.0156
L19.3906 64.0156
L19.3906 0
L9.8125 0
z
" id="DejaVuSans-4d"/>
       <path d="
M41.1094 46.2969
Q39.5938 47.1719 37.8125 47.5781
Q36.0312 48 33.8906 48
Q26.2656 48 22.1875 43.0469
Q18.1094 38.0938 18.1094 28.8125
L18.1094 0
L9.07812 0
L9.07812 54.6875
L18.1094 54.6875
L18.1094 46.1875
Q20.9531 51.1719 25.4844 53.5781
Q30.0312 56 36.5312 56
Q37.4531 56 38.5781 55.875
Q39.7031 55.7656 41.0625 55.5156
z
" id="DejaVuSans-72"/>
       <path d="
M37.7969 64.3125
L12.8906 25.3906
L37.7969 25.3906
z

M35.2031 72.9062
L47.6094 72.9062
L47.6094 25.3906
L58.0156 25.3906
L58.0156 17.1875
L47.6094 17.1875
L47.6094 0
L37.7969 0
L37.7969 17.1875
L4.89062 17.1875
L4.89062 26.7031
z
" id="DejaVuSans-34"/>
       <path d="
M34.2812 27.4844
Q23.3906 27.4844 19.1875 25
Q14.9844 22.5156 14.9844 16.5
Q14.9844 11.7188 18.1406 8.90625
Q21.2969 6.10938 26.7031 6.10938
Q34.1875 6.10938 38.7031 11.4062
Q43.2188 16.7031 43.2188 25.4844
L43.2188 27.4844
z

M52.2031 31.2031
L52.2031 0
L43.2188 0
L43.2188 8.29688
Q40.1406 3.32812 35.5469 0.953125
Q30.9531 -1.42188 24.3125 -1.42188
Q15.9219 -1.42188 10.9531 3.29688
Q6 8.01562 6 15.9219
Q6 25.1406 12.1719 29.8281
Q18.3594 34.5156 30.6094 34.5156
L43.2188 34.5156
L43.2188 35.4062
Q43.2188 41.6094 39.1406 45
Q35.0625 48.3906 27.6875 48.3906
Q23 48.3906 18.5469 47.2656
Q14.1094 46.1406 10.0156 43.8906
L10.0156 52.2031
Q14.9375 54.1094 19.5781 55.0469
Q24.2188 56 28.6094 56
Q40.4844 56 46.3438 49.8438
Q52.2031 43.7031 52.2031 31.2031" id="DejaVuSans-61"/>
      </defs>
      <g transform="translate(128.078572274 401.918125)scale(0.12 -0.12)">
       <use xlink:href="#DejaVuSans-4d"/>
       <use x="86.279296875" xlink:href="#DejaVuSans-61"/>
       <use x="147.55859375" xlink:href="#DejaVuSans-72"/>
       <use x="188.671875" xlink:href="#DejaVuSans-20"/>
       <use x="220.458984375" xlink:href="#DejaVuSans-32"/>
       <use x="284.08203125" xlink:href="#DejaVuSans-30"/>
       <use x="347.705078125" xlink:href="#DejaVuSans-31"/>
       <use x="411.328125" xlink:href="#DejaVuSans-34"/>
      </g>
     </g>
    </g>
    <g id="xtick_4">
     <g id="line2d_9">
      <g>
       <use style="stroke:#000000;stroke-width:0.5;" x="198.315760175" xlink:href="#m93b0483c22" y="388.8"/>
      </g>
     </g>
     <g id="line2d_10">
      <g>
       <use style="stroke:#000000;stroke-width:0.5;" x="198.315760175" xlink:href="#m741efc42ff" y="43.2"/>
      </g>
     </g>
     <g id="text_4">
      <!-- Jun 2014 -->
      <defs>
       <path d="
M8.5 21.5781
L8.5 54.6875
L17.4844 54.6875
L17.4844 21.9219
Q17.4844 14.1562 20.5 10.2656
Q23.5312 6.39062 29.5938 6.39062
Q36.8594 6.39062 41.0781 11.0312
Q45.3125 15.6719 45.3125 23.6875
L45.3125 54.6875
L54.2969 54.6875
L54.2969 0
L45.3125 0
L45.3125 8.40625
Q42.0469 3.42188 37.7188 1
Q33.4062 -1.42188 27.6875 -1.42188
Q18.2656 -1.42188 13.375 4.4375
Q8.5 10.2969 8.5 21.5781
M31.1094 56
z
" id="DejaVuSans-75"/>
       <path d="
M54.8906 33.0156
L54.8906 0
L45.9062 0
L45.9062 32.7188
Q45.9062 40.4844 42.875 44.3281
Q39.8438 48.1875 33.7969 48.1875
Q26.5156 48.1875 22.3125 43.5469
Q18.1094 38.9219 18.1094 30.9062
L18.1094 0
L9.07812 0
L9.07812 54.6875
L18.1094 54.6875
L18.1094 46.1875
Q21.3438 51.125 25.7031 53.5625
Q30.0781 56 35.7969 56
Q45.2188 56 50.0469 50.1719
Q54.8906 44.3438 54.8906 33.0156" id="DejaVuSans-6e"/>
       <path d="
M9.8125 72.9062
L19.6719 72.9062
L19.6719 5.07812
Q19.6719 -8.10938 14.6719 -14.0625
Q9.67188 -20.0156 -1.42188 -20.0156
L-5.17188 -20.0156
L-5.17188 -11.7188
L-2.09375 -11.7188
Q4.4375 -11.7188 7.125 -8.04688
Q9.8125 -4.39062 9.8125 5.07812
z
" id="DejaVuSans-4a"/>
      </defs>
      <g transform="translate(171.790135175 401.918125)scale(0.12 -0.12)">
       <use xlink:href="#DejaVuSans-4a"/>
       <use x="29.4921875" xlink:href="#DejaVuSans-75"/>
       <use x="92.87109375" xlink:href="#DejaVuSans-6e"/>
       <use x="156.25" xlink:href="#DejaVuSans-20"/>
       <use x="188.037109375" xlink:href="#DejaVuSans-32"/>
       <use x="251.66015625" xlink:href="#DejaVuSans-30"/>
       <use x="315.283203125" xlink:href="#DejaVuSans-31"/>
       <use x="378.90625" xlink:href="#DejaVuSans-34"/>
      </g>
     </g>
    </g>
    <g id="xtick_5">
     <g id="line2d_11">
      <g>
       <use style="stroke:#000000;stroke-width:0.5;" x="240.392323077" xlink:href="#m93b0483c22" y="388.8"/>
      </g>
     </g>
     <g id="line2d_12">
      <g>
       <use style="stroke:#000000;stroke-width:0.5;" x="240.392323077" xlink:href="#m741efc42ff" y="43.2"/>
      </g>
     </g>
     <g id="text_5">
      <!-- Sep 2014 -->
      <g transform="translate(212.242010577 401.918125)scale(0.12 -0.12)">
       <use xlink:href="#DejaVuSans-53"/>
       <use x="63.4765625" xlink:href="#DejaVuSans-65"/>
       <use x="125.0" xlink:href="#DejaVuSans-70"/>
       <use x="188.4765625" xlink:href="#DejaVuSans-20"/>
       <use x="220.263671875" xlink:href="#DejaVuSans-32"/>
       <use x="283.88671875" xlink:href="#DejaVuSans-30"/>
       <use x="347.509765625" xlink:href="#DejaVuSans-31"/>
       <use x="411.1328125" xlink:href="#DejaVuSans-34"/>
      </g>
     </g>
    </g>
    <g id="xtick_6">
     <g id="line2d_13">
      <g>
       <use style="stroke:#000000;stroke-width:0.5;" x="282.011532034" xlink:href="#m93b0483c22" y="388.8"/>
      </g>
     </g>
     <g id="line2d_14">
      <g>
       <use style="stroke:#000000;stroke-width:0.5;" x="282.011532034" xlink:href="#m741efc42ff" y="43.2"/>
      </g>
     </g>
     <g id="text_6">
      <!-- Dec 2014 -->
      <g transform="translate(253.560282034 401.918125)scale(0.12 -0.12)">
       <use xlink:href="#DejaVuSans-44"/>
       <use x="77.001953125" xlink:href="#DejaVuSans-65"/>
       <use x="138.525390625" xlink:href="#DejaVuSans-63"/>
       <use x="193.505859375" xlink:href="#DejaVuSans-20"/>
       <use x="225.29296875" xlink:href="#DejaVuSans-32"/>
       <use x="288.916015625" xlink:href="#DejaVuSans-30"/>
       <use x="352.5390625" xlink:href="#DejaVuSans-31"/>
       <use x="416.162109375" xlink:href="#DejaVuSans-34"/>
      </g>
     </g>
    </g>
    <g id="xtick_7">
     <g id="line2d_15">
      <g>
       <use style="stroke:#000000;stroke-width:0.5;" x="323.173387046" xlink:href="#m93b0483c22" y="388.8"/>
      </g>
     </g>
     <g id="line2d_16">
      <g>
       <use style="stroke:#000000;stroke-width:0.5;" x="323.173387046" xlink:href="#m741efc42ff" y="43.2"/>
      </g>
     </g>
     <g id="text_7">
      <!-- Mar 2015 -->
      <defs>
       <path d="
M10.7969 72.9062
L49.5156 72.9062
L49.5156 64.5938
L19.8281 64.5938
L19.8281 46.7344
Q21.9688 47.4688 24.1094 47.8281
Q26.2656 48.1875 28.4219 48.1875
Q40.625 48.1875 47.75 41.5
Q54.8906 34.8125 54.8906 23.3906
Q54.8906 11.625 47.5625 5.09375
Q40.2344 -1.42188 26.9062 -1.42188
Q22.3125 -1.42188 17.5469 -0.640625
Q12.7969 0.140625 7.71875 1.70312
L7.71875 11.625
Q12.1094 9.23438 16.7969 8.0625
Q21.4844 6.89062 26.7031 6.89062
Q35.1562 6.89062 40.0781 11.3281
Q45.0156 15.7656 45.0156 23.3906
Q45.0156 31 40.0781 35.4375
Q35.1562 39.8906 26.7031 39.8906
Q22.75 39.8906 18.8125 39.0156
Q14.8906 38.1406 10.7969 36.2812
z
" id="DejaVuSans-35"/>
      </defs>
      <g transform="translate(295.200262046 401.918125)scale(0.12 -0.12)">
       <use xlink:href="#DejaVuSans-4d"/>
       <use x="86.279296875" xlink:href="#DejaVuSans-61"/>
       <use x="147.55859375" xlink:href="#DejaVuSans-72"/>
       <use x="188.671875" xlink:href="#DejaVuSans-20"/>
       <use x="220.458984375" xlink:href="#DejaVuSans-32"/>
       <use x="284.08203125" xlink:href="#DejaVuSans-30"/>
       <use x="347.705078125" xlink:href="#DejaVuSans-31"/>
       <use x="411.328125" xlink:href="#DejaVuSans-35"/>
      </g>
     </g>
    </g>
    <g id="xtick_8">
     <g id="line2d_17">
      <g>
       <use style="stroke:#000000;stroke-width:0.5;" x="365.249949947" xlink:href="#m93b0483c22" y="388.8"/>
      </g>
     </g>
     <g id="line2d_18">
      <g>
       <use style="stroke:#000000;stroke-width:0.5;" x="365.249949947" xlink:href="#m741efc42ff" y="43.2"/>
      </g>
     </g>
     <g id="text_8">
      <!-- Jun 2015 -->
      <g transform="translate(338.911824947 401.918125)scale(0.12 -0.12)">
       <use xlink:href="#DejaVuSans-4a"/>
       <use x="29.4921875" xlink:href="#DejaVuSans-75"/>
       <use x="92.87109375" xlink:href="#DejaVuSans-6e"/>
       <use x="156.25" xlink:href="#DejaVuSans-20"/>
       <use x="188.037109375" xlink:href="#DejaVuSans-32"/>
       <use x="251.66015625" xlink:href="#DejaVuSans-30"/>
       <use x="315.283203125" xlink:href="#DejaVuSans-31"/>
       <use x="378.90625" xlink:href="#DejaVuSans-35"/>
      </g>
     </g>
    </g>
    <g id="xtick_9">
     <g id="line2d_19">
      <g>
       <use style="stroke:#000000;stroke-width:0.5;" x="407.326512848" xlink:href="#m93b0483c22" y="388.8"/>
      </g>
     </g>
     <g id="line2d_20">
      <g>
       <use style="stroke:#000000;stroke-width:0.5;" x="407.326512848" xlink:href="#m741efc42ff" y="43.2"/>
      </g>
     </g>
     <g id="text_9">
      <!-- Sep 2015 -->
      <g transform="translate(379.363700348 401.918125)scale(0.12 -0.12)">
       <use xlink:href="#DejaVuSans-53"/>
       <use x="63.4765625" xlink:href="#DejaVuSans-65"/>
       <use x="125.0" xlink:href="#DejaVuSans-70"/>
       <use x="188.4765625" xlink:href="#DejaVuSans-20"/>
       <use x="220.263671875" xlink:href="#DejaVuSans-32"/>
       <use x="283.88671875" xlink:href="#DejaVuSans-30"/>
       <use x="347.509765625" xlink:href="#DejaVuSans-31"/>
       <use x="411.1328125" xlink:href="#DejaVuSans-35"/>
      </g>
     </g>
    </g>
    <g id="xtick_10">
     <g id="line2d_21">
      <g>
       <use style="stroke:#000000;stroke-width:0.5;" x="448.945721805" xlink:href="#m93b0483c22" y="388.8"/>
      </g>
     </g>
     <g id="line2d_22">
      <g>
       <use style="stroke:#000000;stroke-width:0.5;" x="448.945721805" xlink:href="#m741efc42ff" y="43.2"/>
      </g>
     </g>
     <g id="text_10">
      <!-- Dec 2015 -->
      <g transform="translate(420.681971805 401.918125)scale(0.12 -0.12)">
       <use xlink:href="#DejaVuSans-44"/>
       <use x="77.001953125" xlink:href="#DejaVuSans-65"/>
       <use x="138.525390625" xlink:href="#DejaVuSans-63"/>
       <use x="193.505859375" xlink:href="#DejaVuSans-20"/>
       <use x="225.29296875" xlink:href="#DejaVuSans-32"/>
       <use x="288.916015625" xlink:href="#DejaVuSans-30"/>
       <use x="352.5390625" xlink:href="#DejaVuSans-31"/>
       <use x="416.162109375" xlink:href="#DejaVuSans-35"/>
      </g>
     </g>
    </g>
    <g id="xtick_11">
     <g id="line2d_23">
      <g>
       <use style="stroke:#000000;stroke-width:0.5;" x="490.564930762" xlink:href="#m93b0483c22" y="388.8"/>
      </g>
     </g>
     <g id="line2d_24">
      <g>
       <use style="stroke:#000000;stroke-width:0.5;" x="490.564930762" xlink:href="#m741efc42ff" y="43.2"/>
      </g>
     </g>
     <g id="text_11">
      <!-- Mar 2016 -->
      <defs>
       <path d="
M33.0156 40.375
Q26.375 40.375 22.4844 35.8281
Q18.6094 31.2969 18.6094 23.3906
Q18.6094 15.5312 22.4844 10.9531
Q26.375 6.39062 33.0156 6.39062
Q39.6562 6.39062 43.5312 10.9531
Q47.4062 15.5312 47.4062 23.3906
Q47.4062 31.2969 43.5312 35.8281
Q39.6562 40.375 33.0156 40.375
M52.5938 71.2969
L52.5938 62.3125
Q48.875 64.0625 45.0938 64.9844
Q41.3125 65.9219 37.5938 65.9219
Q27.8281 65.9219 22.6719 59.3281
Q17.5312 52.7344 16.7969 39.4062
Q19.6719 43.6562 24.0156 45.9219
Q28.375 48.1875 33.5938 48.1875
Q44.5781 48.1875 50.9531 41.5156
Q57.3281 34.8594 57.3281 23.3906
Q57.3281 12.1562 50.6875 5.35938
Q44.0469 -1.42188 33.0156 -1.42188
Q20.3594 -1.42188 13.6719 8.26562
Q6.98438 17.9688 6.98438 36.375
Q6.98438 53.6562 15.1875 63.9375
Q23.3906 74.2188 37.2031 74.2188
Q40.9219 74.2188 44.7031 73.4844
Q48.4844 72.75 52.5938 71.2969" id="DejaVuSans-36"/>
      </defs>
      <g transform="translate(462.445555762 401.918125)scale(0.12 -0.12)">
       <use xlink:href="#DejaVuSans-4d"/>
       <use x="86.279296875" xlink:href="#DejaVuSans-61"/>
       <use x="147.55859375" xlink:href="#DejaVuSans-72"/>
       <use x="188.671875" xlink:href="#DejaVuSans-20"/>
       <use x="220.458984375" xlink:href="#DejaVuSans-32"/>
       <use x="284.08203125" xlink:href="#DejaVuSans-30"/>
       <use x="347.705078125" xlink:href="#DejaVuSans-31"/>
       <use x="411.328125" xlink:href="#DejaVuSans-36"/>
      </g>
     </g>
    </g>
   </g>
   <g id="matplotlib.axis_2">
    <g id="ytick_1">
     <g id="line2d_25">
      <defs>
       <path d="
M0 0
L4 0" id="m728421d6d4" style="stroke:#000000;stroke-width:0.5;"/>
      </defs>
      <g>
       <use style="stroke:#000000;stroke-width:0.5;" x="72.0" xlink:href="#m728421d6d4" y="388.8"/>
      </g>
     </g>
     <g id="line2d_26">
      <defs>
       <path d="
M0 0
L-4 0" id="mcb0005524f" style="stroke:#000000;stroke-width:0.5;"/>
      </defs>
      <g>
       <use style="stroke:#000000;stroke-width:0.5;" x="518.4" xlink:href="#mcb0005524f" y="388.8"/>
      </g>
     </g>
     <g id="text_12">
      <!-- 0 -->
      <g transform="translate(61.953125 392.11125)scale(0.12 -0.12)">
       <use xlink:href="#DejaVuSans-30"/>
      </g>
     </g>
    </g>
    <g id="ytick_2">
     <g id="line2d_27">
      <g>
       <use style="stroke:#000000;stroke-width:0.5;" x="72.0" xlink:href="#m728421d6d4" y="345.6"/>
      </g>
     </g>
     <g id="line2d_28">
      <g>
       <use style="stroke:#000000;stroke-width:0.5;" x="518.4" xlink:href="#mcb0005524f" y="345.6"/>
      </g>
     </g>
     <g id="text_13">
      <!-- 200 -->
      <g transform="translate(46.77125 348.91125)scale(0.12 -0.12)">
       <use xlink:href="#DejaVuSans-32"/>
       <use x="63.623046875" xlink:href="#DejaVuSans-30"/>
       <use x="127.24609375" xlink:href="#DejaVuSans-30"/>
      </g>
     </g>
    </g>
    <g id="ytick_3">
     <g id="line2d_29">
      <g>
       <use style="stroke:#000000;stroke-width:0.5;" x="72.0" xlink:href="#m728421d6d4" y="302.4"/>
      </g>
     </g>
     <g id="line2d_30">
      <g>
       <use style="stroke:#000000;stroke-width:0.5;" x="518.4" xlink:href="#mcb0005524f" y="302.4"/>
      </g>
     </g>
     <g id="text_14">
      <!-- 400 -->
      <g transform="translate(46.47875 305.71125)scale(0.12 -0.12)">
       <use xlink:href="#DejaVuSans-34"/>
       <use x="63.623046875" xlink:href="#DejaVuSans-30"/>
       <use x="127.24609375" xlink:href="#DejaVuSans-30"/>
      </g>
     </g>
    </g>
    <g id="ytick_4">
     <g id="line2d_31">
      <g>
       <use style="stroke:#000000;stroke-width:0.5;" x="72.0" xlink:href="#m728421d6d4" y="259.2"/>
      </g>
     </g>
     <g id="line2d_32">
      <g>
       <use style="stroke:#000000;stroke-width:0.5;" x="518.4" xlink:href="#mcb0005524f" y="259.2"/>
      </g>
     </g>
     <g id="text_15">
      <!-- 600 -->
      <g transform="translate(46.73 262.51125)scale(0.12 -0.12)">
       <use xlink:href="#DejaVuSans-36"/>
       <use x="63.623046875" xlink:href="#DejaVuSans-30"/>
       <use x="127.24609375" xlink:href="#DejaVuSans-30"/>
      </g>
     </g>
    </g>
    <g id="ytick_5">
     <g id="line2d_33">
      <g>
       <use style="stroke:#000000;stroke-width:0.5;" x="72.0" xlink:href="#m728421d6d4" y="216.0"/>
      </g>
     </g>
     <g id="line2d_34">
      <g>
       <use style="stroke:#000000;stroke-width:0.5;" x="518.4" xlink:href="#mcb0005524f" y="216.0"/>
      </g>
     </g>
     <g id="text_16">
      <!-- 800 -->
      <defs>
       <path d="
M31.7812 34.625
Q24.75 34.625 20.7188 30.8594
Q16.7031 27.0938 16.7031 20.5156
Q16.7031 13.9219 20.7188 10.1562
Q24.75 6.39062 31.7812 6.39062
Q38.8125 6.39062 42.8594 10.1719
Q46.9219 13.9688 46.9219 20.5156
Q46.9219 27.0938 42.8906 30.8594
Q38.875 34.625 31.7812 34.625
M21.9219 38.8125
Q15.5781 40.375 12.0312 44.7188
Q8.5 49.0781 8.5 55.3281
Q8.5 64.0625 14.7188 69.1406
Q20.9531 74.2188 31.7812 74.2188
Q42.6719 74.2188 48.875 69.1406
Q55.0781 64.0625 55.0781 55.3281
Q55.0781 49.0781 51.5312 44.7188
Q48 40.375 41.7031 38.8125
Q48.8281 37.1562 52.7969 32.3125
Q56.7812 27.4844 56.7812 20.5156
Q56.7812 9.90625 50.3125 4.23438
Q43.8438 -1.42188 31.7812 -1.42188
Q19.7344 -1.42188 13.25 4.23438
Q6.78125 9.90625 6.78125 20.5156
Q6.78125 27.4844 10.7812 32.3125
Q14.7969 37.1562 21.9219 38.8125
M18.3125 54.3906
Q18.3125 48.7344 21.8438 45.5625
Q25.3906 42.3906 31.7812 42.3906
Q38.1406 42.3906 41.7188 45.5625
Q45.3125 48.7344 45.3125 54.3906
Q45.3125 60.0625 41.7188 63.2344
Q38.1406 66.4062 31.7812 66.4062
Q25.3906 66.4062 21.8438 63.2344
Q18.3125 60.0625 18.3125 54.3906" id="DejaVuSans-38"/>
      </defs>
      <g transform="translate(46.705625 219.31125)scale(0.12 -0.12)">
       <use xlink:href="#DejaVuSans-38"/>
       <use x="63.623046875" xlink:href="#DejaVuSans-30"/>
       <use x="127.24609375" xlink:href="#DejaVuSans-30"/>
      </g>
     </g>
    </g>
    <g id="ytick_6">
     <g id="line2d_35">
      <g>
       <use style="stroke:#000000;stroke-width:0.5;" x="72.0" xlink:href="#m728421d6d4" y="172.8"/>
      </g>
     </g>
     <g id="line2d_36">
      <g>
       <use style="stroke:#000000;stroke-width:0.5;" x="518.4" xlink:href="#mcb0005524f" y="172.8"/>
      </g>
     </g>
     <g id="text_17">
      <!-- 1000 -->
      <g transform="translate(39.575 176.11125)scale(0.12 -0.12)">
       <use xlink:href="#DejaVuSans-31"/>
       <use x="63.623046875" xlink:href="#DejaVuSans-30"/>
       <use x="127.24609375" xlink:href="#DejaVuSans-30"/>
       <use x="190.869140625" xlink:href="#DejaVuSans-30"/>
      </g>
     </g>
    </g>
    <g id="ytick_7">
     <g id="line2d_37">
      <g>
       <use style="stroke:#000000;stroke-width:0.5;" x="72.0" xlink:href="#m728421d6d4" y="129.6"/>
      </g>
     </g>
     <g id="line2d_38">
      <g>
       <use style="stroke:#000000;stroke-width:0.5;" x="518.4" xlink:href="#mcb0005524f" y="129.6"/>
      </g>
     </g>
     <g id="text_18">
      <!-- 1200 -->
      <g transform="translate(39.575 132.91125)scale(0.12 -0.12)">
       <use xlink:href="#DejaVuSans-31"/>
       <use x="63.623046875" xlink:href="#DejaVuSans-32"/>
       <use x="127.24609375" xlink:href="#DejaVuSans-30"/>
       <use x="190.869140625" xlink:href="#DejaVuSans-30"/>
      </g>
     </g>
    </g>
    <g id="ytick_8">
     <g id="line2d_39">
      <g>
       <use style="stroke:#000000;stroke-width:0.5;" x="72.0" xlink:href="#m728421d6d4" y="86.4"/>
      </g>
     </g>
     <g id="line2d_40">
      <g>
       <use style="stroke:#000000;stroke-width:0.5;" x="518.4" xlink:href="#mcb0005524f" y="86.4"/>
      </g>
     </g>
     <g id="text_19">
      <!-- 1400 -->
      <g transform="translate(39.575 89.71125)scale(0.12 -0.12)">
       <use xlink:href="#DejaVuSans-31"/>
       <use x="63.623046875" xlink:href="#DejaVuSans-34"/>
       <use x="127.24609375" xlink:href="#DejaVuSans-30"/>
       <use x="190.869140625" xlink:href="#DejaVuSans-30"/>
      </g>
     </g>
    </g>
    <g id="ytick_9">
     <g id="line2d_41">
      <g>
       <use style="stroke:#000000;stroke-width:0.5;" x="72.0" xlink:href="#m728421d6d4" y="43.2"/>
      </g>
     </g>
     <g id="line2d_42">
      <g>
       <use style="stroke:#000000;stroke-width:0.5;" x="518.4" xlink:href="#mcb0005524f" y="43.2"/>
      </g>
     </g>
     <g id="text_20">
      <!-- 1600 -->
      <g transform="translate(39.575 46.51125)scale(0.12 -0.12)">
       <use xlink:href="#DejaVuSans-31"/>
       <use x="63.623046875" xlink:href="#DejaVuSans-36"/>
       <use x="127.24609375" xlink:href="#DejaVuSans-30"/>
       <use x="190.869140625" xlink:href="#DejaVuSans-30"/>
      </g>
     </g>
    </g>
   </g>
   <g id="patch_3">
    <path d="
M72 43.2
L518.4 43.2" style="fill:none;stroke:#000000;"/>
   </g>
   <g id="patch_4">
    <path d="
M518.4 388.8
L518.4 43.2" style="fill:none;stroke:#000000;"/>
   </g>
   <g id="patch_5">
    <path d="
M72 388.8
L518.4 388.8" style="fill:none;stroke:#000000;"/>
   </g>
   <g id="patch_6">
    <path d="
M72 388.8
L72 43.2" style="fill:none;stroke:#000000;"/>
   </g>
  </g>
 </g>
 <defs>
  <clipPath id="p7ff5b81e1d">
   <rect height="345.6" width="446.4" x="72.0" y="43.2"/>
  </clipPath>
 </defs>
</svg>
