<?xml version="1.0" encoding="utf-8" standalone="no"?>
<!DOCTYPE svg PUBLIC "-//W3C//DTD SVG 1.1//EN"
  "http://www.w3.org/Graphics/SVG/1.1/DTD/svg11.dtd">
<!-- Created with matplotlib (http://matplotlib.org/) -->
<svg height="432pt" version="1.1" viewBox="0 0 576 432" width="576pt" xmlns="http://www.w3.org/2000/svg" xmlns:xlink="http://www.w3.org/1999/xlink">
 <defs>
  <style type="text/css">
*{stroke-linecap:butt;stroke-linejoin:round;}
  </style>
 </defs>
 <g id="figure_1">
  <g id="patch_1">
   <path d="
M0 432
L576 432
L576 0
L0 0
z
" style="fill:#ffffff;"/>
  </g>
  <g id="axes_1">
   <g id="patch_2">
    <path d="
M72 388.8
L518.4 388.8
L518.4 43.2
L72 43.2
z
" style="fill:#ffffff;"/>
   </g>
   <g id="line2d_1">
    <path clip-path="url(#p7ff5b81e1d)" d="
M72 204.185
L72.0013 54.887
L73.4073 81.3267
L74.807 242.235
L74.8121 223.092
L74.8121 223.092
L74.8121 223.092
L74.8288 263.446
L74.8418 258.418
L75.1982 289.099
L75.2411 271.146
L75.3024 281.737
L75.9009 310.282
L75.9606 308.409
L76.1078 304.29
L76.1318 296.654
L76.202 298.902
L76.5875 299.407
L76.6655 302.427
L77.0282 306.293
L77.0794 305.863
L77.1192 305.63
L77.959 315.434
L78.0128 314.613
L78.4519 316.201
L78.8403 315.999
L79.8668 319.898
L80.0567 318.313
L81.2441 323.245
L81.676 323.719
L82.0068 322.564
L82.1155 314.873
L82.7955 315.057
L83.084 315.267
L83.7032 317.218
L84.4616 320.388
L84.7216 319.127
L84.8947 319.345
L86.5921 322.389
L87.4335 322.655
L87.7501 322.07
L88.4575 322.945
L88.9985 322.969
L89.8493 323.427
L90.3994 324.521
L90.3994 323.368
L92.0544 324.354
L92.087 321.478
L92.087 320.378
L93.4674 321.864
L94.4115 325.116
L95.5313 326.287
L95.6182 325.609
L96.0081 324.902
L96.0675 323.604
L96.9127 323.975
L96.9155 322.468
L97.0549 321.692
L97.823 322.112
L97.828 321.273
L97.9525 320.512
L99.0094 321.695
L99.0103 320.895
L99.7434 322.377
L100.17 322.362
L100.341 322.651
L100.341 321.849
L101.199 323.32
L101.622 323.368
L101.84 322.749
L103.021 322.956
L103.569 324.081
L104.414 324.157
L106.658 324.643
L108.062 326.155
L109.944 327.985
L110.337 327.945
L110.445 327.101
L111.755 328.308
L112.218 328.454
L113.484 329.44
L114.068 330.087
L114.515 329.928
L114.518 328.997
L115.397 329.246
L116.449 329.73
L116.486 328.665
L116.764 328.526
L117.458 328.526
L117.686 328.222
L118.287 327.735
L118.287 327.187
L118.728 327.218
L118.963 326.477
L119.798 327.058
L119.889 326.784
L120.889 326.234
L120.898 325.658
L121.892 326.375
L121.937 325.939
L122.386 325.523
L123.517 326.293
L124.402 326.51
L124.973 326.412
L124.974 325.621
L125.877 326.123
L125.877 325.663
L127.195 326.841
L127.265 325.963
L127.722 326.447
L129.509 326.709
L129.554 326.484
L129.997 326.636
L130.229 326.454
L130.836 329.01
L130.853 328.69
L131.148 328.926
L131.15 328.533
L131.221 328.54
L131.267 328.542
L131.421 328.666
L131.423 328.299
L132.555 329.155
L132.588 329.109
L132.924 329.259
L133.02 329.128
L133.172 329.429
L133.415 329.521
L133.46 329.004
L133.521 328.428
L133.522 328.077
L133.793 328.234
L133.901 327.814
L134.561 328.945
L134.852 328.888
L135.908 329.871
L136.187 329.944
L136.41 330.182
L136.766 330.031
L136.768 329.72
L137.161 329.562
L137.732 330.177
L138.439 330.712
L138.586 330.618
L138.69 330.337
L138.948 330.254
L140.373 331.122
L140.497 330.797
L140.79 330.71
L140.79 330.405
L140.927 330.44
L140.932 330.161
L141.067 329.989
L141.347 330.351
L141.347 330.051
L142.174 330.771
L143.075 330.851
L143.075 330.564
L143.612 330.82
L143.869 330.666
L143.983 330.746
L144.4 330.895
L145.003 331.551
L145.254 331.189
L145.332 330.804
L145.67 330.912
L145.709 330.441
L145.902 330.726
L146.688 330.763
L146.697 330.509
L147.062 330.658
L147.37 330.929
L147.37 330.67
L147.508 330.61
L148.123 330.937
L148.602 330.52
L150.162 331.603
L150.911 332.631
L151.141 332.579
L151.773 333.066
L151.873 332.785
L152.075 332.672
L153.077 333.002
L153.176 332.698
L153.465 332.718
L153.494 332.541
L153.641 332.547
L153.898 331.982
L154.15 331.746
L154.171 331.519
L154.356 331.325
L154.361 331.093
L156.333 332.228
L156.333 332.003
L156.593 331.854
L156.911 331.955
L156.911 331.736
L157.048 331.558
L157.1 331.016
L158.508 331.993
L158.532 331.813
L159.442 332.014
L159.503 331.902
L160.28 331.993
L160.882 332.309
L161.243 332.279
L161.304 331.912
L161.366 331.782
L163.029 331.945
L163.063 331.57
L164.352 332.494
L165.796 332.824
L165.845 332.717
L166.18 332.718
L166.29 332.582
L166.29 332.387
L167.266 332.896
L167.437 332.802
L167.584 332.385
L168.333 332.412
L168.518 332.269
L168.821 332.287
L169.385 332.54
L169.731 332.56
L169.755 332.205
L170.181 332.269
L171.717 332.675
L172.139 332.687
L172.181 332.359
L172.641 332.298
L173.617 332.765
L173.807 332.636
L173.893 332.379
L174.494 332.485
L174.527 332.329
L176.821 333.335
L176.861 333.019
L177.11 332.943
L178.869 333.608
L179.001 333.559
L179.077 333.31
L179.831 333.568
L179.84 333.403
L180.162 333.41
L180.215 332.961
L181.238 333.381
L181.655 333.266
L182.158 333.485
L182.281 333.265
L182.335 332.953
L182.608 332.963
L183.584 333.493
L183.617 333.349
L184.48 333.756
L184.751 333.564
L184.905 333.533
L185.409 333.537
L185.418 333.392
L185.817 333.319
L186.219 333.265
L186.357 332.937
L186.672 332.953
L189.333 334.109
L189.892 334.309
L189.998 334.09
L190.632 334.057
L192.504 334.699
L192.504 334.553
L193.044 334.604
L193.428 334.521
L193.428 334.377
L193.859 334.314
L193.968 334.258
L195.21 334.67
L195.22 334.39
L197.283 335.09
L197.532 335.039
L197.543 334.921
L198.139 335.201
L198.485 335.143
L198.702 335.144
L198.702 335.006
L198.931 335.025
L199.021 334.778
L199.708 334.594
L199.708 334.477
L200.026 334.476
L200.656 334.655
L200.803 334.343
L202.46 334.404
L204.774 335.575
L206.206 335.873
L207.495 335.908
L208.225 336.096
L208.372 335.992
L210.471 336.508
L210.471 336.387
L210.945 336.355
L211.344 336.348
L212.476 336.57
L213.05 335.995
L215.269 336.096
L215.269 335.979
L215.802 335.985
L216.86 336.098
L217.164 335.94
L217.164 335.835
L218.196 336.253
L218.201 336.14
L218.495 336.077
L219.055 336.102
L219.055 335.924
L219.338 335.805
L219.338 335.711
L220.789 336.129
L220.827 336.041
L221.183 335.973
L221.272 335.854
L223.135 336.221
L223.176 336.168
L224.41 336.382
L225.481 336.578
L225.481 336.488
L226.813 336.521
L226.912 336.467
L227.723 336.485
L229.021 336.94
L229.026 336.839
L229.073 336.706
L229.18 336.647
L230.784 336.82
L230.879 336.732
L232.786 337.272
L232.786 337.182
L233.238 337.022
L235.372 337.624
L235.391 337.438
L235.448 337.347
L235.822 337.398
L235.832 337.305
L235.936 337.24
L236.877 337.281
L237.205 337.175
L237.519 337.147
L237.519 337.048
L238.585 336.937
L239.128 336.999
L239.128 336.916
L239.552 336.836
L240.064 336.998
L240.33 336.95
L240.979 337.175
L244.642 337.756
L244.642 337.663
L245.536 337.698
L246.372 337.608
L248.224 337.929
L248.224 337.84
L248.287 337.443
L248.491 337.401
L249.004 337.393
L249.007 337.338
L249.998 337.452
L250.23 337.466
L251.067 337.684
L251.067 337.596
L251.071 337.513
L252.369 337.601
L252.37 337.442
L253.244 337.464
L253.5 337.432
L255.453 337.732
L255.554 337.549
L255.999 337.56
L257.183 337.738
L257.226 337.593
L257.51 337.582
L257.662 337.477
L258.173 337.246
L258.908 337.456
L258.908 337.372
L259.585 337.203
L259.585 337.126
L260.528 337.248
L261.439 336.972
L261.456 336.733
L261.911 336.676
L262.624 336.749
L262.857 336.709
L263.093 336.69
L264.159 336.877
L264.335 336.825
L266.017 337.143
L267.174 337.231
L267.325 337.129
L267.856 337.148
L267.856 337.069
L268.667 337.229
L268.667 337.169
L268.671 337.102
L269.396 337.155
L269.671 337.036
L270.581 337.006
L271.504 336.858
L272.793 337.055
L272.836 336.945
L273.145 336.765
L273.961 336.801
L274.212 336.738
L275.975 336.958
L279.164 336.701
L279.702 336.852
L279.702 336.8
L279.702 336.729
L280.278 336.649
L280.928 336.776
L280.928 336.706
L280.975 336.653
L281.492 336.769
L283.752 337.16
L284.43 337.19
L284.638 337.136
L286.373 337.021
L288.956 337.289
L289.141 337.222
L290.136 337.091
L290.194 337.04
L291.378 337.051
L291.411 336.998
L292.192 337.016
L292.643 336.894
L292.643 336.827
L294.392 337.115
L294.392 337.047
L294.819 337.019
L295.88 337.172
L295.966 337.133
L299.099 337.408
L301.421 337.68
L302.462 337.495
L302.667 337.463
L305.189 337.88
L305.411 337.745
L308.032 338.248
L309.397 338.324
L309.938 338.105
L309.968 338.062
L310.871 338.112
L311.814 338.139
L311.876 338.034
L312.596 338.017
L312.786 338.011
L314.221 338.151
L314.634 338.167
L314.634 338.107
L314.668 338.069
L315.814 338.148
L317.251 338.371
L317.605 338.27
L317.634 338.223
L318.331 338.291
L320.777 338.804
L321.445 338.781
L321.473 338.691
L322.336 338.719
L322.691 338.699
L322.691 338.641
L322.691 338.582
L323.947 338.661
L323.947 338.545
L324.445 338.586
L326.473 338.931
L326.473 338.876
L326.782 338.796
L326.867 338.718
L327.658 338.595
L327.658 338.538
L327.826 338.525
L328.829 338.645
L329.246 338.633
L330.182 338.67
L332.711 339.043
L335.637 339.351
L336.905 339.138
L337.284 339.107
L337.346 339.081
L337.592 339.108
L338.828 339.375
L338.828 339.321
L340.891 339.444
L340.976 339.388
L343.526 339.908
L343.616 339.868
L345.82 340.154
L345.82 340.103
L346.938 340.195
L351.242 340.87
L351.299 340.841
L353.659 341.031
L353.683 340.941
L354.294 340.923
L355.218 340.87
L357.204 341.107
L357.204 341.06
L357.242 341.025
L357.631 341.022
L358.668 341.091
L358.731 341.055
L361.73 341.09
L361.73 341.044
L362.839 341.16
L363.289 341.058
L365.193 341.249
L366.479 341.35
L366.782 341.269
L367.266 341.187
L368.816 341.503
L371.09 341.725
L371.92 341.591
L372.73 341.64
L374.062 341.771
L374.266 341.665
L374.593 341.674
L375.849 341.831
L376.275 341.758
L376.479 341.686
L376.871 341.682
L377.749 341.788
L383.323 342.017
L383.821 342.03
L384.574 342.023
L384.579 341.982
L386.034 342.018
L387.887 342.052
L387.887 341.97
L391.001 342.009
L391.001 341.968
L391.925 341.881
L392.029 341.811
L393.38 341.645
L394.2 341.609
L394.2 341.569
L394.205 341.529
L396.565 341.407
L398.636 341.472
L408.369 341.991
L408.401 341.953
L409.184 341.899
L409.184 341.86
L410.429 341.854
L413.286 341.84
L413.286 341.801
L414.613 341.821
L415.87 341.747
L419.561 341.744
L422.512 341.892
L424.654 341.829
L426.562 341.939
L428.243 342.148
L428.243 342.038
L431.093 341.99
L431.093 341.953
L432.818 342.089
L432.957 342.055
L433.589 342.083
L436.616 342.377
L437.716 342.343
L441.861 342.746
L441.918 342.686
L444.598 342.736
L447.504 343.04
L452.819 343.426
L453.255 343.419
L455.245 343.605
L458.19 343.992
L458.228 343.84
L466.652 344.317
L469.091 344.531
L469.097 344.5
L470.557 344.594
L470.614 344.569
L472.933 344.787
L472.965 344.763
L474.298 344.855
L474.298 344.824
L474.298 344.792
L475.947 345.009
L476.004 344.986
L476.933 345.039
L480.535 345.26
L480.554 345.236
L482.102 345.379
L482.128 345.322
L484.201 345.272
L484.82 345.197
L490.305 345.696
L490.305 345.667
L491.234 345.63
L495.96 345.788
L497.37 345.863
L497.37 345.834
L498.033 345.849
L500.238 345.963
L501.698 346.052
L501.698 345.995
L506.646 346.293
L508.668 346.448
L510.766 346.544
L514.634 346.85
L515.253 346.829
L518.312 347.06
L518.312 347.06" style="fill:none;stroke:#ff0000;stroke-linecap:square;"/>
   </g>
   <g id="line2d_2">
    <path clip-path="url(#p7ff5b81e1d)" d="
M74.7647 299.22
L74.8285 346.863
L74.8285 346.863
L74.8285 346.863
L74.8351 324.604
L75.1359 339.519
L75.2573 332.597
L75.2961 332.721
L75.51 337.397
L75.6089 336.782
L76.1113 340.121
L76.1742 335.268
L76.5931 334.918
L76.5998 331.399
L76.6661 331.458
L77.0077 332.012
L77.0203 328.772
L77.1022 329.688
L77.1556 329.222
L77.5113 329.688
L77.5669 327.894
L77.802 326.315
L77.8652 319.71
L77.9714 319.538
L78.0936 319.06
L78.536 319.655
L79.1752 321.279
L79.184 319.286
L79.3401 317.804
L80.3534 321.99
L80.3537 318.048
L80.6871 316.905
L81.1421 316.887
L82.4482 322.575
L82.4732 321.314
L83.0369 320.825
L83.0473 319.709
L83.4811 320.244
L83.5658 319.751
L84.029 320.195
L84.8271 322.795
L84.8951 320.821
L84.9835 319.611
L85.6856 320.02
L85.8015 319.544
L85.9112 317.021
L86.1387 316.128
L87.8676 318.559
L88.0405 318.287
L89.4237 320.058
L89.8497 319.831
L89.8576 317.582
L90.2743 317.133
L90.3018 315.686
L92.087 319.259
L92.1432 317.264
L92.6181 316.639
L92.7271 315.647
L93.4671 316.391
L93.4674 315.607
L93.7284 316.406
L93.8677 314.009
L94.3847 314.327
L94.4118 310.304
L94.8577 309.016
L95.6163 309.278
L96.2422 309.995
L96.2422 309.059
L96.6833 308.853
L96.9133 308.366
L98.2779 310.65
L99.63 311.719
L99.6404 309.652
L99.7434 309.736
L99.7434 308.912
L100.063 308.845
L100.17 307.405
L100.341 308.097
L100.342 307.577
L100.672 307.208
L100.751 306.761
L101.204 307.624
L101.205 306.889
L102.021 307.258
L102.265 305.29
L102.889 304.992
L103.114 305.459
L103.116 304.881
L104.034 305.144
L105.844 306.631
L105.845 306.205
L106.116 305.641
L107.639 307.115
L107.739 306.751
L108.063 306.928
L108.568 306.851
L108.573 306.416
L109.372 306.931
L109.723 306.521
L109.723 305.866
L109.942 305.793
L109.942 305.262
L110.104 305.262
L110.157 304.78
L110.404 304.691
L110.854 305.366
L111.3 304.904
L111.318 304.018
L111.754 304.214
L112.91 305.852
L113.458 306.175
L113.466 305.15
L114.068 306.355
L114.454 305.998
L114.454 304.524
L114.863 304.626
L114.967 303.817
L115.841 304.031
L115.848 303.065
L116.267 302.885
L118.131 305.399
L118.131 304.851
L118.7 304.007
L118.701 303.007
L119.076 303.182
L119.29 303.026
L119.713 303.202
L119.794 302.525
L119.965 302.587
L119.965 302.109
L120.418 301.976
L121.329 302.24
L121.933 302.891
L122.222 302.65
L122.224 302.452
L122.386 302.218
L122.386 301.734
L124.532 304.736
L124.973 304.772
L125.11 304.597
L125.174 304.687
L125.659 304.633
L126.643 305.888
L126.679 305.467
L127.061 305.915
L127.274 306.96
L128.173 307.514
L129.32 307.956
L129.961 308.64
L130.219 308.489
L130.314 309.042
L130.314 308.618
L130.716 308.989
L130.718 308.676
L130.802 308.943
L130.894 308.587
L130.894 308.18
L131.195 308.95
L131.221 308.726
L131.235 308.531
L131.389 308.987
L131.404 308.678
L132.234 309.41
L132.589 310.145
L132.638 310.005
L132.638 309.632
L133.121 310.623
L133.172 310.542
L133.39 310.643
L133.42 310.438
L133.597 310.744
L133.611 310.173
L133.789 309.94
L133.791 309.605
L133.895 309.639
L133.904 309.1
L134.05 309.464
L134.056 309.157
L134.368 309.664
L134.447 308.146
L134.556 308.197
L134.556 307.846
L134.896 308.148
L135.197 308.212
L135.448 309.007
L135.766 309.195
L135.815 308.751
L135.908 308.284
L136.053 307.939
L136.211 307.961
L136.292 307.593
L136.394 307.506
L136.423 307.286
L136.628 306.966
L136.675 306.639
L137.212 307.713
L137.264 307.203
L137.436 307.2
L137.568 307.366
L137.569 307.043
L138.223 307.734
L138.311 307.228
L138.426 306.991
L138.685 307.113
L138.88 306.964
L139.025 306.156
L139.056 305.921
L139.675 305.661
L139.811 305.47
L140.212 305.547
L140.423 305.94
L140.744 306.059
L140.927 306.298
L141.134 306.244
L141.135 305.987
L141.782 307.056
L142.106 307.407
L142.198 307.234
L142.535 307.082
L142.61 306.746
L143.114 307.111
L143.322 306.506
L143.322 306.219
L143.564 306.27
L143.613 306.043
L144.083 306.771
L144.523 306.659
L144.565 306.148
L145.356 307.116
L145.466 306.984
L145.75 306.919
L145.823 306.163
L145.899 306.12
L145.904 305.68
L146.227 305.909
L146.674 305.866
L146.707 305.187
L147.109 305.366
L147.419 305.875
L147.635 305.946
L147.683 305.528
L148.001 305.492
L148.043 305.303
L148.394 305.39
L148.892 305.976
L149.01 305.56
L149.117 305.364
L149.328 305.247
L149.413 304.911
L149.896 304.86
L149.992 304.656
L150.46 305.043
L150.678 305.07
L150.844 304.884
L150.972 305.047
L151.486 305.094
L151.489 304.862
L151.754 305.033
L151.84 304.586
L151.956 304.222
L152.129 304.253
L152.612 304.543
L152.944 304.544
L153.205 304.77
L153.207 304.537
L153.612 304.689
L153.645 304.549
L153.945 304.565
L154.035 304.227
L154.186 304.2
L154.361 304
L154.806 304.379
L155.375 304.551
L155.759 304.81
L155.844 304.526
L156.683 304.928
L156.778 304.592
L157.096 304.777
L157.574 305.186
L157.651 304.929
L158.006 305.072
L158.636 305.644
L158.965 305.411
L159.127 305.277
L159.17 305.082
L159.394 305.06
L159.555 304.543
L159.659 304.473
L159.944 304.558
L160.02 304.094
L160.062 304.021
L160.295 304.054
L160.861 303.683
L161.24 303.771
L161.243 303.168
L161.421 303.25
L161.455 302.858
L161.65 302.821
L162.154 302.911
L162.259 302.283
L162.608 302.229
L163.523 302.38
L163.598 301.94
L163.764 301.964
L163.86 301.787
L164.527 302.345
L164.561 302.195
L164.898 302.185
L165.803 302.385
L165.827 302.037
L165.935 302.138
L166.701 302.143
L167.032 301.735
L167.214 301.836
L167.258 301.525
L167.693 301.828
L168.105 301.739
L168.863 302.181
L169.044 301.513
L169.342 301.581
L169.373 301.398
L169.576 301.268
L169.717 301.176
L169.835 300.786
L169.902 300.704
L170.323 300.841
L170.366 300.727
L170.684 300.72
L170.849 300.471
L171.115 300.489
L171.172 299.975
L172.176 300.392
L172.186 300.216
L172.717 300.459
L173.412 300.624
L173.567 300.343
L173.935 300.59
L174.063 300.365
L174.537 300.47
L174.556 300.338
L174.731 300.208
L174.94 300.344
L175.177 300.256
L175.205 299.944
L176.077 300.629
L176.143 300.522
L177.186 301.157
L177.233 301.047
L177.75 301.008
L178.916 300.954
L179.068 301.043
L179.556 301.5
L179.575 301.37
L179.627 300.924
L179.94 300.777
L180.48 301.313
L180.802 301.083
L181.343 301.466
L181.636 301.347
L182.485 301.809
L182.584 301.436
L182.954 301.594
L182.968 301.453
L183.106 301.472
L183.162 301.241
L183.362 301.223
L183.902 301.553
L184.005 301.536
L184.504 301.576
L184.779 301.63
L184.807 301.506
L186.215 302.161
L186.223 302.017
L186.267 301.624
L186.603 301.635
L186.693 301.595
L186.75 301.366
L187.139 301.43
L188.151 302.184
L188.151 302.032
L189.044 302.217
L190.257 301.995
L190.276 301.866
L190.938 302.079
L191.163 301.609
L191.58 301.625
L191.589 301.481
L192.978 302.286
L192.983 302.143
L193.155 302.043
L193.625 302.194
L193.625 302.049
L194.1 302.355
L194.319 302.327
L194.561 302.476
L194.585 302.36
L194.741 302.126
L194.973 302.335
L195.907 302.254
L196.205 302.305
L196.229 302.185
L197.229 302.707
L197.272 302.231
L197.543 302.138
L197.543 302.048
L197.932 302.25
L197.932 302.139
L197.932 302.017
L198.13 302.111
L198.354 302.06
L198.419 301.436
L198.618 301.55
L198.618 301.413
L198.843 301.437
L198.843 301.188
L199.044 301.231
L199.708 301.592
L199.708 301.556
L200.482 301.603
L200.632 301.252
L200.969 301.484
L201.09 301.307
L201.243 300.912
L201.567 301.05
L201.567 300.945
L201.878 300.997
L202.024 300.765
L202.248 300.855
L202.286 300.627
L202.57 300.519
L202.76 300.127
L202.913 300.105
L203.466 300.477
L204.111 300.629
L204.315 300.517
L204.315 300.388
L204.424 300.396
L204.509 300.211
L204.737 300.075
L204.737 299.945
L204.95 299.989
L206.168 300.623
L206.549 300.631
L206.623 300.04
L207.03 300.058
L207.755 300.515
L207.921 300.416
L208.225 300.413
L208.225 300.288
L208.414 300.107
L208.443 299.831
L208.621 299.866
L208.632 299.758
L208.637 299.637
L208.875 299.617
L209.036 299.39
L209.835 299.356
L210.484 299.565
L210.945 299.417
L210.983 299.222
L211.191 299.238
L211.737 299.586
L211.752 299.481
L211.888 298.797
L212.049 298.777
L212.082 298.574
L212.519 298.802
L212.552 298.719
L212.564 298.538
L213.41 298.698
L213.618 298.834
L213.879 298.865
L214.472 299.277
L214.472 299.16
L214.895 299.334
L215.386 299.294
L215.395 299.178
L215.523 299.16
L216.182 299.235
L216.282 299.106
L216.334 299.038
L216.827 298.901
L217.221 298.499
L217.976 298.695
L217.976 298.673
L218.574 298.748
L218.898 298.873
L218.907 298.785
L219.055 298.705
L219.055 298.61
L219.476 298.556
L219.59 298.274
L219.613 298.193
L219.842 298.1
L220.073 298.271
L220.231 298.122
L220.231 298.026
L220.869 298.334
L221.269 298.312
L221.269 298.23
L222.026 298.471
L222.035 298.366
L222.054 298.279
L222.661 298.324
L222.936 297.967
L223.075 297.961
L223.635 298.301
L223.636 298.242
L224.064 297.978
L224.603 298.206
L224.614 297.972
L224.857 298.009
L224.857 297.93
L224.857 297.83
L225.476 298.171
L225.481 298.094
L225.481 297.997
L227.168 298.775
L227.269 298.427
L227.67 298.551
L227.789 298.429
L228.704 298.731
L228.718 298.643
L229.051 298.56
L229.051 298.41
L229.334 298.363
L229.355 298.225
L229.538 298.262
L229.547 298.166
L229.557 298.073
L230.031 298.33
L231.002 298.525
L231.012 298.433
L231.225 298.459
L231.225 298.394
L231.334 298.27
L232.637 298.753
L232.656 298.667
L232.95 298.176
L233.277 298.236
L233.462 298.07
L233.979 298.388
L233.992 298.301
L233.992 298.173
L234.325 298.071
L234.49 297.931
L234.5 297.803
L235.498 298.199
L235.524 298.138
L235.803 298.157
L236.404 298.525
L236.799 298.391
L236.837 298.338
L238.244 298.727
L238.256 298.607
L239.128 298.788
L239.629 298.654
L239.629 298.492
L240.054 298.559
L240.505 298.665
L240.974 298.696
L241.022 298.454
L241.386 298.257
L241.896 298.188
L242.227 298.162
L243.68 298.478
L243.724 298.435
L244.372 298.602
L244.382 298.518
L245.123 298.391
L245.536 298.544
L245.536 298.457
L245.552 298.256
L245.957 298.156
L246.595 298.279
L246.877 298.206
L247.363 298.469
L247.524 298.417
L247.818 298.564
L248.018 298.526
L248.979 298.935
L249.004 298.803
L250.519 299.42
L252.37 299.838
L252.97 300.047
L252.979 299.967
L253.102 299.869
L253.244 299.45
L253.734 299.459
L253.88 299.412
L255.453 300.143
L255.453 299.977
L255.843 300.058
L255.932 299.826
L256.432 299.717
L256.447 299.662
L256.6 299.557
L257.292 299.821
L257.756 299.835
L258.254 300.202
L258.581 300.209
L259.335 300.175
L259.585 300.232
L259.585 300.165
L259.585 300.104
L259.908 300.184
L259.908 300.105
L260.046 300.079
L260.818 300.389
L260.86 300.278
L260.932 300.148
L261.428 299.959
L261.429 299.892
L261.662 299.842
L261.704 299.779
L262.344 299.9
L262.357 299.826
L262.857 300.062
L262.857 299.981
L262.864 299.769
L264.173 300.063
L264.666 300.067
L264.666 300.003
L264.726 299.794
L265.554 299.858
L265.585 299.696
L265.847 299.638
L265.847 299.558
L266.264 299.683
L266.316 299.641
L266.953 299.908
L266.958 299.83
L267.107 299.636
L267.197 299.588
L267.577 299.63
L267.804 299.533
L267.837 299.401
L268.103 299.32
L269.145 299.693
L269.197 299.575
L269.648 299.474
L271.469 299.479
L271.469 299.423
L271.469 299.346
L271.87 299.348
L272.204 299.032
L272.749 298.988
L273.264 299.097
L273.622 299.122
L273.622 299.063
L273.695 298.966
L273.743 298.925
L274.701 299.191
L275.439 299.161
L275.562 298.88
L276.449 298.994
L276.979 299.207
L277.074 299.163
L277.844 299.467
L277.909 299.436
L278.444 299.49
L279.041 299.544
L279.226 299.494
L280.345 299.615
L280.579 299.65
L281.473 299.573
L281.473 299.502
L282.011 299.534
L282.011 299.396
L282.558 299.413
L284.12 299.502
L284.198 299.421
L285.425 299.085
L286.501 299.33
L286.562 299.271
L287.41 299.47
L288.288 299.272
L289.554 299.834
L289.554 299.766
L290.113 299.791
L290.176 299.703
L290.176 299.633
L291.008 299.86
L293.151 300.448
L293.174 300.398
L294.06 300.448
L294.169 300.406
L294.515 300.368
L294.629 300.348
L295.094 300.465
L295.103 300.404
L296.188 300.305
L296.89 300.439
L296.97 300.299
L297.691 300.316
L297.8 300.254
L298.577 300.213
L298.606 300.167
L301.44 300.031
L301.53 299.964
L302.648 300.078
L302.724 299.975
L302.724 299.91
L302.906 299.888
L303.482 299.983
L303.942 299.88
L304.677 299.971
L304.679 299.914
L305.312 299.885
L305.44 299.845
L305.947 299.88
L305.947 299.816
L306.454 299.779
L306.454 299.716
L307.397 299.964
L308.184 299.992
L309.961 300.423
L310.535 300.4
L310.539 300.28
L310.904 300.382
L310.909 300.322
L310.909 300.261
L311.653 300.221
L311.862 300.258
L311.862 300.196
L311.914 300.111
L312.35 299.991
L312.426 299.969
L312.739 299.971
L312.739 299.91
L312.743 299.848
L314.16 299.975
L314.634 300.036
L314.634 299.977
L316.028 300.348
L316.037 300.291
L316.995 300.163
L317.653 300.279
L318.3 300.268
L318.717 300.28
L319.179 300.265
L319.189 300.21
L319.663 300.188
L320.606 300.086
L320.611 300.03
L321.083 300.042
L321.909 300.304
L321.928 300.254
L322.426 300.292
L322.459 300.196
L322.653 300.008
L322.653 299.951
L322.863 299.887
L323.748 299.989
L324.945 300.431
L324.957 300.386
L326 300.406
L326.077 300.35
L326.696 300.452
L328.308 300.99
L328.654 300.944
L328.765 300.778
L329.727 300.981
L331.459 301.116
L331.535 300.997
L332.203 300.923
L332.218 300.872
L333.962 301.217
L333.967 301.114
L335.076 301.352
L335.219 301.255
L335.531 301.357
L335.535 301.306
L335.616 301.155
L336.331 301.178
L336.341 301.133
L336.791 301.284
L336.911 301.216
L336.948 301.14
L337.81 301.373
L337.829 301.339
L339.759 301.943
L339.771 301.864
L340.417 301.943
L342.455 302.42
L342.456 302.322
L344.27 302.647
L344.455 302.631
L345.431 302.899
L345.45 302.819
L345.493 302.819
L346.529 303.058
L346.531 303.011
L348.104 303.149
L349.218 303.566
L349.261 303.482
L351.365 303.848
L351.725 303.715
L354.199 304.349
L354.26 304.303
L355.602 304.621
L355.602 304.526
L356.117 304.65
L356.716 304.988
L356.73 304.906
L357.365 304.995
L357.649 304.953
L358.621 305.184
L359.242 305.197
L359.517 305.098
L359.531 305.059
L359.882 305.042
L360.019 304.997
L360.612 305.039
L362.441 304.986
L362.796 304.761
L363.071 304.678
L363.176 304.519
L363.389 304.548
L364.294 304.761
L364.294 304.714
L364.436 304.643
L365.417 304.589
L365.474 304.571
L366.133 304.609
L366.953 304.611
L367.825 304.872
L367.83 304.829
L368.086 304.626
L369.465 304.75
L369.503 304.681
L370.157 304.788
L370.181 304.626
L371.403 304.875
L372.337 305.151
L372.749 305.256
L372.749 305.169
L372.787 305.142
L373.261 305.149
L373.351 304.708
L373.745 304.574
L374.147 304.248
L374.906 304.324
L374.944 304.257
L375.967 304.4
L376.119 304.228
L376.365 304.117
L376.375 304.078
L376.996 304.101
L377.005 304.06
L377.83 304.174
L377.92 304.033
L378.65 304.027
L379.749 303.796
L380.418 303.836
L380.422 303.794
L380.422 303.752
L381.863 303.894
L381.863 303.851
L381.93 303.855
L382.669 303.83
L383.631 304.007
L384.181 303.749
L384.754 303.781
L385.427 303.662
L386.034 303.764
L386.039 303.727
L387.825 303.902
L388.579 303.701
L389.086 303.63
L389.772 303.738
L389.772 303.698
L390.018 303.623
L390.598 303.726
L390.598 303.685
L391.29 303.674
L391.29 303.633
L391.598 303.593
L392.399 303.604
L392.508 303.559
L394.271 303.413
L395.02 303.44
L396.304 303.572
L396.304 303.533
L396.319 303.46
L396.992 303.462
L397.759 303.35
L397.859 303.264
L397.897 303.2
L399.191 303.164
L399.195 303.125
L399.47 303.144
L399.47 303.065
L399.518 303.005
L399.925 302.887
L401.513 303.051
L401.516 303.022
L403.251 302.939
L405.861 303.049
L406.126 303.002
L407.257 302.991
L407.402 302.927
L407.851 302.84
L407.914 302.811
L409.305 302.986
L411.914 303.214
L415.908 303.366
L416.085 303.341
L421.431 303.302
L423.832 303.707
L423.858 303.61
L425.539 303.691
L425.551 303.659
L426.07 303.639
L426.07 303.603
L427.687 303.753
L428.382 303.632
L429.191 303.7
L429.191 303.666
L430.43 303.814
L430.638 303.82
L435.561 304.697
L435.561 304.557
L437.539 304.912
L437.552 304.883
L438.462 304.983
L438.462 304.95
L442.342 305.137
L444.244 305.64
L447.909 305.976
L447.934 305.881
L448.492 306.029
L449.767 306.269
L453.268 306.649
L455.113 307.096
L456.509 307.308
L456.516 307.261
L456.516 307.167
L456.598 307.172
L460.686 307.766
L461.95 307.759
L463.728 308.05
L465.494 308.115
L468.364 308.647
L471.372 309.052
L473.445 309.523
L476.004 309.78
L477.837 310.223
L479.726 310.569
L490.494 312.152
L490.93 312.174
L492.339 312.304
L492.434 312.279
L494.57 312.434
L494.646 312.404
L499.297 312.835
L499.297 312.806
L499.385 312.756
L501.167 312.94
L501.193 312.923
L501.616 312.916
L503.348 313.115
L507.6 313.568
L508.081 313.584
L509.363 313.705
L509.757 313.711
L510.811 313.828
L514.893 313.983
L516.119 313.911
L517.149 313.998
L518.4 314.061
L518.4 314.061" style="fill:none;stroke:#008000;stroke-linecap:square;"/>
   </g>
   <g id="matplotlib.axis_1">
    <g id="xtick_1">
     <g id="line2d_3">
      <defs>
       <path d="
M0 0
L0 -4" id="m93b0483c22" style="stroke:#000000;stroke-width:0.5;"/>
      </defs>
      <g>
       <use style="stroke:#000000;stroke-width:0.5;" x="76.274021377" xlink:href="#m93b0483c22" y="388.8"/>
      </g>
     </g>
     <g id="line2d_4">
      <defs>
       <path d="
M0 0
L0 4" id="m741efc42ff" style="stroke:#000000;stroke-width:0.5;"/>
      </defs>
      <g>
       <use style="stroke:#000000;stroke-width:0.5;" x="76.274021377" xlink:href="#m741efc42ff" y="43.2"/>
      </g>
     </g>
     <g id="text_1">
      <!-- Sep 2013 -->
      <defs>
       <path d="
M40.5781 39.3125
Q47.6562 37.7969 51.625 33
Q55.6094 28.2188 55.6094 21.1875
Q55.6094 10.4062 48.1875 4.48438
Q40.7656 -1.42188 27.0938 -1.42188
Q22.5156 -1.42188 17.6562 -0.515625
Q12.7969 0.390625 7.625 2.20312
L7.625 11.7188
Q11.7188 9.32812 16.5938 8.10938
Q21.4844 6.89062 26.8125 6.89062
Q36.0781 6.89062 40.9375 10.5469
Q45.7969 14.2031 45.7969 21.1875
Q45.7969 27.6406 41.2812 31.2656
Q36.7656 34.9062 28.7188 34.9062
L20.2188 34.9062
L20.2188 43.0156
L29.1094 43.0156
Q36.375 43.0156 40.2344 45.9219
Q44.0938 48.8281 44.0938 54.2969
Q44.0938 59.9062 40.1094 62.9062
Q36.1406 65.9219 28.7188 65.9219
Q24.6562 65.9219 20.0156 65.0312
Q15.375 64.1562 9.8125 62.3125
L9.8125 71.0938
Q15.4375 72.6562 20.3438 73.4375
Q25.25 74.2188 29.5938 74.2188
Q40.8281 74.2188 47.3594 69.1094
Q53.9062 64.0156 53.9062 55.3281
Q53.9062 49.2656 50.4375 45.0938
Q46.9688 40.9219 40.5781 39.3125" id="DejaVuSans-33"/>
       <path d="
M12.4062 8.29688
L28.5156 8.29688
L28.5156 63.9219
L10.9844 60.4062
L10.9844 69.3906
L28.4219 72.9062
L38.2812 72.9062
L38.2812 8.29688
L54.3906 8.29688
L54.3906 0
L12.4062 0
z
" id="DejaVuSans-31"/>
       <path d="
M31.7812 66.4062
Q24.1719 66.4062 20.3281 58.9062
Q16.5 51.4219 16.5 36.375
Q16.5 21.3906 20.3281 13.8906
Q24.1719 6.39062 31.7812 6.39062
Q39.4531 6.39062 43.2812 13.8906
Q47.125 21.3906 47.125 36.375
Q47.125 51.4219 43.2812 58.9062
Q39.4531 66.4062 31.7812 66.4062
M31.7812 74.2188
Q44.0469 74.2188 50.5156 64.5156
Q56.9844 54.8281 56.9844 36.375
Q56.9844 17.9688 50.5156 8.26562
Q44.0469 -1.42188 31.7812 -1.42188
Q19.5312 -1.42188 13.0625 8.26562
Q6.59375 17.9688 6.59375 36.375
Q6.59375 54.8281 13.0625 64.5156
Q19.5312 74.2188 31.7812 74.2188" id="DejaVuSans-30"/>
       <path id="DejaVuSans-20"/>
       <path d="
M19.1875 8.29688
L53.6094 8.29688
L53.6094 0
L7.32812 0
L7.32812 8.29688
Q12.9375 14.1094 22.625 23.8906
Q32.3281 33.6875 34.8125 36.5312
Q39.5469 41.8438 41.4219 45.5312
Q43.3125 49.2188 43.3125 52.7812
Q43.3125 58.5938 39.2344 62.25
Q35.1562 65.9219 28.6094 65.9219
Q23.9688 65.9219 18.8125 64.3125
Q13.6719 62.7031 7.8125 59.4219
L7.8125 69.3906
Q13.7656 71.7812 18.9375 73
Q24.125 74.2188 28.4219 74.2188
Q39.75 74.2188 46.4844 68.5469
Q53.2188 62.8906 53.2188 53.4219
Q53.2188 48.9219 51.5312 44.8906
Q49.8594 40.875 45.4062 35.4062
Q44.1875 33.9844 37.6406 27.2188
Q31.1094 20.4531 19.1875 8.29688" id="DejaVuSans-32"/>
       <path d="
M53.5156 70.5156
L53.5156 60.8906
Q47.9062 63.5781 42.9219 64.8906
Q37.9375 66.2188 33.2969 66.2188
Q25.25 66.2188 20.875 63.0938
Q16.5 59.9688 16.5 54.2031
Q16.5 49.3594 19.4062 46.8906
Q22.3125 44.4375 30.4219 42.9219
L36.375 41.7031
Q47.4062 39.5938 52.6562 34.2969
Q57.9062 29 57.9062 20.125
Q57.9062 9.51562 50.7969 4.04688
Q43.7031 -1.42188 29.9844 -1.42188
Q24.8125 -1.42188 18.9688 -0.25
Q13.1406 0.921875 6.89062 3.21875
L6.89062 13.375
Q12.8906 10.0156 18.6562 8.29688
Q24.4219 6.59375 29.9844 6.59375
Q38.4219 6.59375 43.0156 9.90625
Q47.6094 13.2344 47.6094 19.3906
Q47.6094 24.75 44.3125 27.7812
Q41.0156 30.8125 33.5 32.3281
L27.4844 33.5
Q16.4531 35.6875 11.5156 40.375
Q6.59375 45.0625 6.59375 53.4219
Q6.59375 63.0938 13.4062 68.6562
Q20.2188 74.2188 32.1719 74.2188
Q37.3125 74.2188 42.625 73.2812
Q47.9531 72.3594 53.5156 70.5156" id="DejaVuSans-53"/>
       <path d="
M56.2031 29.5938
L56.2031 25.2031
L14.8906 25.2031
Q15.4844 15.9219 20.4844 11.0625
Q25.4844 6.20312 34.4219 6.20312
Q39.5938 6.20312 44.4531 7.46875
Q49.3125 8.73438 54.1094 11.2812
L54.1094 2.78125
Q49.2656 0.734375 44.1875 -0.34375
Q39.1094 -1.42188 33.8906 -1.42188
Q20.7969 -1.42188 13.1562 6.1875
Q5.51562 13.8125 5.51562 26.8125
Q5.51562 40.2344 12.7656 48.1094
Q20.0156 56 32.3281 56
Q43.3594 56 49.7812 48.8906
Q56.2031 41.7969 56.2031 29.5938
M47.2188 32.2344
Q47.125 39.5938 43.0938 43.9844
Q39.0625 48.3906 32.4219 48.3906
Q24.9062 48.3906 20.3906 44.1406
Q15.875 39.8906 15.1875 32.1719
z
" id="DejaVuSans-65"/>
       <path d="
M18.1094 8.20312
L18.1094 -20.7969
L9.07812 -20.7969
L9.07812 54.6875
L18.1094 54.6875
L18.1094 46.3906
Q20.9531 51.2656 25.2656 53.625
Q29.5938 56 35.5938 56
Q45.5625 56 51.7812 48.0938
Q58.0156 40.1875 58.0156 27.2969
Q58.0156 14.4062 51.7812 6.48438
Q45.5625 -1.42188 35.5938 -1.42188
Q29.5938 -1.42188 25.2656 0.953125
Q20.9531 3.32812 18.1094 8.20312
M48.6875 27.2969
Q48.6875 37.2031 44.6094 42.8438
Q40.5312 48.4844 33.4062 48.4844
Q26.2656 48.4844 22.1875 42.8438
Q18.1094 37.2031 18.1094 27.2969
Q18.1094 17.3906 22.1875 11.75
Q26.2656 6.10938 33.4062 6.10938
Q40.5312 6.10938 44.6094 11.75
Q48.6875 17.3906 48.6875 27.2969" id="DejaVuSans-70"/>
      </defs>
      <g transform="translate(48.268083877 401.918125)scale(0.12 -0.12)">
       <use xlink:href="#DejaVuSans-53"/>
       <use x="63.4765625" xlink:href="#DejaVuSans-65"/>
       <use x="125.0" xlink:href="#DejaVuSans-70"/>
       <use x="188.4765625" xlink:href="#DejaVuSans-20"/>
       <use x="220.263671875" xlink:href="#DejaVuSans-32"/>
       <use x="283.88671875" xlink:href="#DejaVuSans-30"/>
       <use x="347.509765625" xlink:href="#DejaVuSans-31"/>
       <use x="411.1328125" xlink:href="#DejaVuSans-33"/>
      </g>
     </g>
    </g>
    <g id="xtick_2">
     <g id="line2d_5">
      <g>
       <use style="stroke:#000000;stroke-width:0.5;" x="117.677714823" xlink:href="#m93b0483c22" y="388.8"/>
      </g>
     </g>
     <g id="line2d_6">
      <g>
       <use style="stroke:#000000;stroke-width:0.5;" x="117.677714823" xlink:href="#m741efc42ff" y="43.2"/>
      </g>
     </g>
     <g id="text_2">
      <!-- Dec 2013 -->
      <defs>
       <path d="
M19.6719 64.7969
L19.6719 8.10938
L31.5938 8.10938
Q46.6875 8.10938 53.6875 14.9375
Q60.6875 21.7812 60.6875 36.5312
Q60.6875 51.1719 53.6875 57.9844
Q46.6875 64.7969 31.5938 64.7969
z

M9.8125 72.9062
L30.0781 72.9062
Q51.2656 72.9062 61.1719 64.0938
Q71.0938 55.2812 71.0938 36.5312
Q71.0938 17.6719 61.125 8.82812
Q51.1719 0 30.0781 0
L9.8125 0
z
" id="DejaVuSans-44"/>
       <path d="
M48.7812 52.5938
L48.7812 44.1875
Q44.9688 46.2969 41.1406 47.3438
Q37.3125 48.3906 33.4062 48.3906
Q24.6562 48.3906 19.8125 42.8438
Q14.9844 37.3125 14.9844 27.2969
Q14.9844 17.2812 19.8125 11.7344
Q24.6562 6.20312 33.4062 6.20312
Q37.3125 6.20312 41.1406 7.25
Q44.9688 8.29688 48.7812 10.4062
L48.7812 2.09375
Q45.0156 0.34375 40.9844 -0.53125
Q36.9688 -1.42188 32.4219 -1.42188
Q20.0625 -1.42188 12.7812 6.34375
Q5.51562 14.1094 5.51562 27.2969
Q5.51562 40.6719 12.8594 48.3281
Q20.2188 56 33.0156 56
Q37.1562 56 41.1094 55.1406
Q45.0625 54.2969 48.7812 52.5938" id="DejaVuSans-63"/>
      </defs>
      <g transform="translate(89.3708398229 401.918125)scale(0.12 -0.12)">
       <use xlink:href="#DejaVuSans-44"/>
       <use x="77.001953125" xlink:href="#DejaVuSans-65"/>
       <use x="138.525390625" xlink:href="#DejaVuSans-63"/>
       <use x="193.505859375" xlink:href="#DejaVuSans-20"/>
       <use x="225.29296875" xlink:href="#DejaVuSans-32"/>
       <use x="288.916015625" xlink:href="#DejaVuSans-30"/>
       <use x="352.5390625" xlink:href="#DejaVuSans-31"/>
       <use x="416.162109375" xlink:href="#DejaVuSans-33"/>
      </g>
     </g>
    </g>
    <g id="xtick_3">
     <g id="line2d_7">
      <g>
       <use style="stroke:#000000;stroke-width:0.5;" x="158.626422626" xlink:href="#m93b0483c22" y="388.8"/>
      </g>
     </g>
     <g id="line2d_8">
      <g>
       <use style="stroke:#000000;stroke-width:0.5;" x="158.626422626" xlink:href="#m741efc42ff" y="43.2"/>
      </g>
     </g>
     <g id="text_3">
      <!-- Mar 2014 -->
      <defs>
       <path d="
M9.8125 72.9062
L24.5156 72.9062
L43.1094 23.2969
L61.8125 72.9062
L76.5156 72.9062
L76.5156 0
L66.8906 0
L66.8906 64.0156
L48.0938 14.0156
L38.1875 14.0156
L19.3906 64.0156
L19.3906 0
L9.8125 0
z
" id="DejaVuSans-4d"/>
       <path d="
M41.1094 46.2969
Q39.5938 47.1719 37.8125 47.5781
Q36.0312 48 33.8906 48
Q26.2656 48 22.1875 43.0469
Q18.1094 38.0938 18.1094 28.8125
L18.1094 0
L9.07812 0
L9.07812 54.6875
L18.1094 54.6875
L18.1094 46.1875
Q20.9531 51.1719 25.4844 53.5781
Q30.0312 56 36.5312 56
Q37.4531 56 38.5781 55.875
Q39.7031 55.7656 41.0625 55.5156
z
" id="DejaVuSans-72"/>
       <path d="
M37.7969 64.3125
L12.8906 25.3906
L37.7969 25.3906
z

M35.2031 72.9062
L47.6094 72.9062
L47.6094 25.3906
L58.0156 25.3906
L58.0156 17.1875
L47.6094 17.1875
L47.6094 0
L37.7969 0
L37.7969 17.1875
L4.89062 17.1875
L4.89062 26.7031
z
" id="DejaVuSans-34"/>
       <path d="
M34.2812 27.4844
Q23.3906 27.4844 19.1875 25
Q14.9844 22.5156 14.9844 16.5
Q14.9844 11.7188 18.1406 8.90625
Q21.2969 6.10938 26.7031 6.10938
Q34.1875 6.10938 38.7031 11.4062
Q43.2188 16.7031 43.2188 25.4844
L43.2188 27.4844
z

M52.2031 31.2031
L52.2031 0
L43.2188 0
L43.2188 8.29688
Q40.1406 3.32812 35.5469 0.953125
Q30.9531 -1.42188 24.3125 -1.42188
Q15.9219 -1.42188 10.9531 3.29688
Q6 8.01562 6 15.9219
Q6 25.1406 12.1719 29.8281
Q18.3594 34.5156 30.6094 34.5156
L43.2188 34.5156
L43.2188 35.4062
Q43.2188 41.6094 39.1406 45
Q35.0625 48.3906 27.6875 48.3906
Q23 48.3906 18.5469 47.2656
Q14.1094 46.1406 10.0156 43.8906
L10.0156 52.2031
Q14.9375 54.1094 19.5781 55.0469
Q24.2188 56 28.6094 56
Q40.4844 56 46.3438 49.8438
Q52.2031 43.7031 52.2031 31.2031" id="DejaVuSans-61"/>
      </defs>
      <g transform="translate(130.465797626 401.918125)scale(0.12 -0.12)">
       <use xlink:href="#DejaVuSans-4d"/>
       <use x="86.279296875" xlink:href="#DejaVuSans-61"/>
       <use x="147.55859375" xlink:href="#DejaVuSans-72"/>
       <use x="188.671875" xlink:href="#DejaVuSans-20"/>
       <use x="220.458984375" xlink:href="#DejaVuSans-32"/>
       <use x="284.08203125" xlink:href="#DejaVuSans-30"/>
       <use x="347.705078125" xlink:href="#DejaVuSans-31"/>
       <use x="411.328125" xlink:href="#DejaVuSans-34"/>
      </g>
     </g>
    </g>
    <g id="xtick_4">
     <g id="line2d_9">
      <g>
       <use style="stroke:#000000;stroke-width:0.5;" x="200.485101715" xlink:href="#m93b0483c22" y="388.8"/>
      </g>
     </g>
     <g id="line2d_10">
      <g>
       <use style="stroke:#000000;stroke-width:0.5;" x="200.485101715" xlink:href="#m741efc42ff" y="43.2"/>
      </g>
     </g>
     <g id="text_4">
      <!-- Jun 2014 -->
      <defs>
       <path d="
M8.5 21.5781
L8.5 54.6875
L17.4844 54.6875
L17.4844 21.9219
Q17.4844 14.1562 20.5 10.2656
Q23.5312 6.39062 29.5938 6.39062
Q36.8594 6.39062 41.0781 11.0312
Q45.3125 15.6719 45.3125 23.6875
L45.3125 54.6875
L54.2969 54.6875
L54.2969 0
L45.3125 0
L45.3125 8.40625
Q42.0469 3.42188 37.7188 1
Q33.4062 -1.42188 27.6875 -1.42188
Q18.2656 -1.42188 13.375 4.4375
Q8.5 10.2969 8.5 21.5781
M31.1094 56
z
" id="DejaVuSans-75"/>
       <path d="
M54.8906 33.0156
L54.8906 0
L45.9062 0
L45.9062 32.7188
Q45.9062 40.4844 42.875 44.3281
Q39.8438 48.1875 33.7969 48.1875
Q26.5156 48.1875 22.3125 43.5469
Q18.1094 38.9219 18.1094 30.9062
L18.1094 0
L9.07812 0
L9.07812 54.6875
L18.1094 54.6875
L18.1094 46.1875
Q21.3438 51.125 25.7031 53.5625
Q30.0781 56 35.7969 56
Q45.2188 56 50.0469 50.1719
Q54.8906 44.3438 54.8906 33.0156" id="DejaVuSans-6e"/>
       <path d="
M9.8125 72.9062
L19.6719 72.9062
L19.6719 5.07812
Q19.6719 -8.10938 14.6719 -14.0625
Q9.67188 -20.0156 -1.42188 -20.0156
L-5.17188 -20.0156
L-5.17188 -11.7188
L-2.09375 -11.7188
Q4.4375 -11.7188 7.125 -8.04688
Q9.8125 -4.39062 9.8125 5.07812
z
" id="DejaVuSans-4a"/>
      </defs>
      <g transform="translate(173.959476715 401.918125)scale(0.12 -0.12)">
       <use xlink:href="#DejaVuSans-4a"/>
       <use x="29.4921875" xlink:href="#DejaVuSans-75"/>
       <use x="92.87109375" xlink:href="#DejaVuSans-6e"/>
       <use x="156.25" xlink:href="#DejaVuSans-20"/>
       <use x="188.037109375" xlink:href="#DejaVuSans-32"/>
       <use x="251.66015625" xlink:href="#DejaVuSans-30"/>
       <use x="315.283203125" xlink:href="#DejaVuSans-31"/>
       <use x="378.90625" xlink:href="#DejaVuSans-34"/>
      </g>
     </g>
    </g>
    <g id="xtick_5">
     <g id="line2d_11">
      <g>
       <use style="stroke:#000000;stroke-width:0.5;" x="242.343780803" xlink:href="#m93b0483c22" y="388.8"/>
      </g>
     </g>
     <g id="line2d_12">
      <g>
       <use style="stroke:#000000;stroke-width:0.5;" x="242.343780803" xlink:href="#m741efc42ff" y="43.2"/>
      </g>
     </g>
     <g id="text_5">
      <!-- Sep 2014 -->
      <g transform="translate(214.193468303 401.918125)scale(0.12 -0.12)">
       <use xlink:href="#DejaVuSans-53"/>
       <use x="63.4765625" xlink:href="#DejaVuSans-65"/>
       <use x="125.0" xlink:href="#DejaVuSans-70"/>
       <use x="188.4765625" xlink:href="#DejaVuSans-20"/>
       <use x="220.263671875" xlink:href="#DejaVuSans-32"/>
       <use x="283.88671875" xlink:href="#DejaVuSans-30"/>
       <use x="347.509765625" xlink:href="#DejaVuSans-31"/>
       <use x="411.1328125" xlink:href="#DejaVuSans-34"/>
      </g>
     </g>
    </g>
    <g id="xtick_6">
     <g id="line2d_13">
      <g>
       <use style="stroke:#000000;stroke-width:0.5;" x="283.747474248" xlink:href="#m93b0483c22" y="388.8"/>
      </g>
     </g>
     <g id="line2d_14">
      <g>
       <use style="stroke:#000000;stroke-width:0.5;" x="283.747474248" xlink:href="#m741efc42ff" y="43.2"/>
      </g>
     </g>
     <g id="text_6">
      <!-- Dec 2014 -->
      <g transform="translate(255.296224248 401.918125)scale(0.12 -0.12)">
       <use xlink:href="#DejaVuSans-44"/>
       <use x="77.001953125" xlink:href="#DejaVuSans-65"/>
       <use x="138.525390625" xlink:href="#DejaVuSans-63"/>
       <use x="193.505859375" xlink:href="#DejaVuSans-20"/>
       <use x="225.29296875" xlink:href="#DejaVuSans-32"/>
       <use x="288.916015625" xlink:href="#DejaVuSans-30"/>
       <use x="352.5390625" xlink:href="#DejaVuSans-31"/>
       <use x="416.162109375" xlink:href="#DejaVuSans-34"/>
      </g>
     </g>
    </g>
    <g id="xtick_7">
     <g id="line2d_15">
      <g>
       <use style="stroke:#000000;stroke-width:0.5;" x="324.696182052" xlink:href="#m93b0483c22" y="388.8"/>
      </g>
     </g>
     <g id="line2d_16">
      <g>
       <use style="stroke:#000000;stroke-width:0.5;" x="324.696182052" xlink:href="#m741efc42ff" y="43.2"/>
      </g>
     </g>
     <g id="text_7">
      <!-- Mar 2015 -->
      <defs>
       <path d="
M10.7969 72.9062
L49.5156 72.9062
L49.5156 64.5938
L19.8281 64.5938
L19.8281 46.7344
Q21.9688 47.4688 24.1094 47.8281
Q26.2656 48.1875 28.4219 48.1875
Q40.625 48.1875 47.75 41.5
Q54.8906 34.8125 54.8906 23.3906
Q54.8906 11.625 47.5625 5.09375
Q40.2344 -1.42188 26.9062 -1.42188
Q22.3125 -1.42188 17.5469 -0.640625
Q12.7969 0.140625 7.71875 1.70312
L7.71875 11.625
Q12.1094 9.23438 16.7969 8.0625
Q21.4844 6.89062 26.7031 6.89062
Q35.1562 6.89062 40.0781 11.3281
Q45.0156 15.7656 45.0156 23.3906
Q45.0156 31 40.0781 35.4375
Q35.1562 39.8906 26.7031 39.8906
Q22.75 39.8906 18.8125 39.0156
Q14.8906 38.1406 10.7969 36.2812
z
" id="DejaVuSans-35"/>
      </defs>
      <g transform="translate(296.723057052 401.918125)scale(0.12 -0.12)">
       <use xlink:href="#DejaVuSans-4d"/>
       <use x="86.279296875" xlink:href="#DejaVuSans-61"/>
       <use x="147.55859375" xlink:href="#DejaVuSans-72"/>
       <use x="188.671875" xlink:href="#DejaVuSans-20"/>
       <use x="220.458984375" xlink:href="#DejaVuSans-32"/>
       <use x="284.08203125" xlink:href="#DejaVuSans-30"/>
       <use x="347.705078125" xlink:href="#DejaVuSans-31"/>
       <use x="411.328125" xlink:href="#DejaVuSans-35"/>
      </g>
     </g>
    </g>
    <g id="xtick_8">
     <g id="line2d_17">
      <g>
       <use style="stroke:#000000;stroke-width:0.5;" x="366.55486114" xlink:href="#m93b0483c22" y="388.8"/>
      </g>
     </g>
     <g id="line2d_18">
      <g>
       <use style="stroke:#000000;stroke-width:0.5;" x="366.55486114" xlink:href="#m741efc42ff" y="43.2"/>
      </g>
     </g>
     <g id="text_8">
      <!-- Jun 2015 -->
      <g transform="translate(340.21673614 401.918125)scale(0.12 -0.12)">
       <use xlink:href="#DejaVuSans-4a"/>
       <use x="29.4921875" xlink:href="#DejaVuSans-75"/>
       <use x="92.87109375" xlink:href="#DejaVuSans-6e"/>
       <use x="156.25" xlink:href="#DejaVuSans-20"/>
       <use x="188.037109375" xlink:href="#DejaVuSans-32"/>
       <use x="251.66015625" xlink:href="#DejaVuSans-30"/>
       <use x="315.283203125" xlink:href="#DejaVuSans-31"/>
       <use x="378.90625" xlink:href="#DejaVuSans-35"/>
      </g>
     </g>
    </g>
    <g id="xtick_9">
     <g id="line2d_19">
      <g>
       <use style="stroke:#000000;stroke-width:0.5;" x="408.413540228" xlink:href="#m93b0483c22" y="388.8"/>
      </g>
     </g>
     <g id="line2d_20">
      <g>
       <use style="stroke:#000000;stroke-width:0.5;" x="408.413540228" xlink:href="#m741efc42ff" y="43.2"/>
      </g>
     </g>
     <g id="text_9">
      <!-- Sep 2015 -->
      <g transform="translate(380.450727728 401.918125)scale(0.12 -0.12)">
       <use xlink:href="#DejaVuSans-53"/>
       <use x="63.4765625" xlink:href="#DejaVuSans-65"/>
       <use x="125.0" xlink:href="#DejaVuSans-70"/>
       <use x="188.4765625" xlink:href="#DejaVuSans-20"/>
       <use x="220.263671875" xlink:href="#DejaVuSans-32"/>
       <use x="283.88671875" xlink:href="#DejaVuSans-30"/>
       <use x="347.509765625" xlink:href="#DejaVuSans-31"/>
       <use x="411.1328125" xlink:href="#DejaVuSans-35"/>
      </g>
     </g>
    </g>
    <g id="xtick_10">
     <g id="line2d_21">
      <g>
       <use style="stroke:#000000;stroke-width:0.5;" x="449.817233674" xlink:href="#m93b0483c22" y="388.8"/>
      </g>
     </g>
     <g id="line2d_22">
      <g>
       <use style="stroke:#000000;stroke-width:0.5;" x="449.817233674" xlink:href="#m741efc42ff" y="43.2"/>
      </g>
     </g>
     <g id="text_10">
      <!-- Dec 2015 -->
      <g transform="translate(421.553483674 401.918125)scale(0.12 -0.12)">
       <use xlink:href="#DejaVuSans-44"/>
       <use x="77.001953125" xlink:href="#DejaVuSans-65"/>
       <use x="138.525390625" xlink:href="#DejaVuSans-63"/>
       <use x="193.505859375" xlink:href="#DejaVuSans-20"/>
       <use x="225.29296875" xlink:href="#DejaVuSans-32"/>
       <use x="288.916015625" xlink:href="#DejaVuSans-30"/>
       <use x="352.5390625" xlink:href="#DejaVuSans-31"/>
       <use x="416.162109375" xlink:href="#DejaVuSans-35"/>
      </g>
     </g>
    </g>
    <g id="xtick_11">
     <g id="line2d_23">
      <g>
       <use style="stroke:#000000;stroke-width:0.5;" x="491.22092712" xlink:href="#m93b0483c22" y="388.8"/>
      </g>
     </g>
     <g id="line2d_24">
      <g>
       <use style="stroke:#000000;stroke-width:0.5;" x="491.22092712" xlink:href="#m741efc42ff" y="43.2"/>
      </g>
     </g>
     <g id="text_11">
      <!-- Mar 2016 -->
      <defs>
       <path d="
M33.0156 40.375
Q26.375 40.375 22.4844 35.8281
Q18.6094 31.2969 18.6094 23.3906
Q18.6094 15.5312 22.4844 10.9531
Q26.375 6.39062 33.0156 6.39062
Q39.6562 6.39062 43.5312 10.9531
Q47.4062 15.5312 47.4062 23.3906
Q47.4062 31.2969 43.5312 35.8281
Q39.6562 40.375 33.0156 40.375
M52.5938 71.2969
L52.5938 62.3125
Q48.875 64.0625 45.0938 64.9844
Q41.3125 65.9219 37.5938 65.9219
Q27.8281 65.9219 22.6719 59.3281
Q17.5312 52.7344 16.7969 39.4062
Q19.6719 43.6562 24.0156 45.9219
Q28.375 48.1875 33.5938 48.1875
Q44.5781 48.1875 50.9531 41.5156
Q57.3281 34.8594 57.3281 23.3906
Q57.3281 12.1562 50.6875 5.35938
Q44.0469 -1.42188 33.0156 -1.42188
Q20.3594 -1.42188 13.6719 8.26562
Q6.98438 17.9688 6.98438 36.375
Q6.98438 53.6562 15.1875 63.9375
Q23.3906 74.2188 37.2031 74.2188
Q40.9219 74.2188 44.7031 73.4844
Q48.4844 72.75 52.5938 71.2969" id="DejaVuSans-36"/>
      </defs>
      <g transform="translate(463.10155212 401.918125)scale(0.12 -0.12)">
       <use xlink:href="#DejaVuSans-4d"/>
       <use x="86.279296875" xlink:href="#DejaVuSans-61"/>
       <use x="147.55859375" xlink:href="#DejaVuSans-72"/>
       <use x="188.671875" xlink:href="#DejaVuSans-20"/>
       <use x="220.458984375" xlink:href="#DejaVuSans-32"/>
       <use x="284.08203125" xlink:href="#DejaVuSans-30"/>
       <use x="347.705078125" xlink:href="#DejaVuSans-31"/>
       <use x="411.328125" xlink:href="#DejaVuSans-36"/>
      </g>
     </g>
    </g>
   </g>
   <g id="matplotlib.axis_2">
    <g id="ytick_1">
     <g id="line2d_25">
      <defs>
       <path d="
M0 0
L4 0" id="m728421d6d4" style="stroke:#000000;stroke-width:0.5;"/>
      </defs>
      <g>
       <use style="stroke:#000000;stroke-width:0.5;" x="72.0" xlink:href="#m728421d6d4" y="388.8"/>
      </g>
     </g>
     <g id="line2d_26">
      <defs>
       <path d="
M0 0
L-4 0" id="mcb0005524f" style="stroke:#000000;stroke-width:0.5;"/>
      </defs>
      <g>
       <use style="stroke:#000000;stroke-width:0.5;" x="518.4" xlink:href="#mcb0005524f" y="388.8"/>
      </g>
     </g>
     <g id="text_12">
      <!-- 0 -->
      <g transform="translate(61.953125 392.11125)scale(0.12 -0.12)">
       <use xlink:href="#DejaVuSans-30"/>
      </g>
     </g>
    </g>
    <g id="ytick_2">
     <g id="line2d_27">
      <g>
       <use style="stroke:#000000;stroke-width:0.5;" x="72.0" xlink:href="#m728421d6d4" y="331.2"/>
      </g>
     </g>
     <g id="line2d_28">
      <g>
       <use style="stroke:#000000;stroke-width:0.5;" x="518.4" xlink:href="#mcb0005524f" y="331.2"/>
      </g>
     </g>
     <g id="text_13">
      <!-- 1000 -->
      <g transform="translate(39.575 334.51125)scale(0.12 -0.12)">
       <use xlink:href="#DejaVuSans-31"/>
       <use x="63.623046875" xlink:href="#DejaVuSans-30"/>
       <use x="127.24609375" xlink:href="#DejaVuSans-30"/>
       <use x="190.869140625" xlink:href="#DejaVuSans-30"/>
      </g>
     </g>
    </g>
    <g id="ytick_3">
     <g id="line2d_29">
      <g>
       <use style="stroke:#000000;stroke-width:0.5;" x="72.0" xlink:href="#m728421d6d4" y="273.6"/>
      </g>
     </g>
     <g id="line2d_30">
      <g>
       <use style="stroke:#000000;stroke-width:0.5;" x="518.4" xlink:href="#mcb0005524f" y="273.6"/>
      </g>
     </g>
     <g id="text_14">
      <!-- 2000 -->
      <g transform="translate(39.13625 276.91125)scale(0.12 -0.12)">
       <use xlink:href="#DejaVuSans-32"/>
       <use x="63.623046875" xlink:href="#DejaVuSans-30"/>
       <use x="127.24609375" xlink:href="#DejaVuSans-30"/>
       <use x="190.869140625" xlink:href="#DejaVuSans-30"/>
      </g>
     </g>
    </g>
    <g id="ytick_4">
     <g id="line2d_31">
      <g>
       <use style="stroke:#000000;stroke-width:0.5;" x="72.0" xlink:href="#m728421d6d4" y="216.0"/>
      </g>
     </g>
     <g id="line2d_32">
      <g>
       <use style="stroke:#000000;stroke-width:0.5;" x="518.4" xlink:href="#mcb0005524f" y="216.0"/>
      </g>
     </g>
     <g id="text_15">
      <!-- 3000 -->
      <g transform="translate(39.171875 219.31125)scale(0.12 -0.12)">
       <use xlink:href="#DejaVuSans-33"/>
       <use x="63.623046875" xlink:href="#DejaVuSans-30"/>
       <use x="127.24609375" xlink:href="#DejaVuSans-30"/>
       <use x="190.869140625" xlink:href="#DejaVuSans-30"/>
      </g>
     </g>
    </g>
    <g id="ytick_5">
     <g id="line2d_33">
      <g>
       <use style="stroke:#000000;stroke-width:0.5;" x="72.0" xlink:href="#m728421d6d4" y="158.4"/>
      </g>
     </g>
     <g id="line2d_34">
      <g>
       <use style="stroke:#000000;stroke-width:0.5;" x="518.4" xlink:href="#mcb0005524f" y="158.4"/>
      </g>
     </g>
     <g id="text_16">
      <!-- 4000 -->
      <g transform="translate(38.84375 161.71125)scale(0.12 -0.12)">
       <use xlink:href="#DejaVuSans-34"/>
       <use x="63.623046875" xlink:href="#DejaVuSans-30"/>
       <use x="127.24609375" xlink:href="#DejaVuSans-30"/>
       <use x="190.869140625" xlink:href="#DejaVuSans-30"/>
      </g>
     </g>
    </g>
    <g id="ytick_6">
     <g id="line2d_35">
      <g>
       <use style="stroke:#000000;stroke-width:0.5;" x="72.0" xlink:href="#m728421d6d4" y="100.8"/>
      </g>
     </g>
     <g id="line2d_36">
      <g>
       <use style="stroke:#000000;stroke-width:0.5;" x="518.4" xlink:href="#mcb0005524f" y="100.8"/>
      </g>
     </g>
     <g id="text_17">
      <!-- 5000 -->
      <g transform="translate(39.183125 104.11125)scale(0.12 -0.12)">
       <use xlink:href="#DejaVuSans-35"/>
       <use x="63.623046875" xlink:href="#DejaVuSans-30"/>
       <use x="127.24609375" xlink:href="#DejaVuSans-30"/>
       <use x="190.869140625" xlink:href="#DejaVuSans-30"/>
      </g>
     </g>
    </g>
    <g id="ytick_7">
     <g id="line2d_37">
      <g>
       <use style="stroke:#000000;stroke-width:0.5;" x="72.0" xlink:href="#m728421d6d4" y="43.2"/>
      </g>
     </g>
     <g id="line2d_38">
      <g>
       <use style="stroke:#000000;stroke-width:0.5;" x="518.4" xlink:href="#mcb0005524f" y="43.2"/>
      </g>
     </g>
     <g id="text_18">
      <!-- 6000 -->
      <g transform="translate(39.095 46.51125)scale(0.12 -0.12)">
       <use xlink:href="#DejaVuSans-36"/>
       <use x="63.623046875" xlink:href="#DejaVuSans-30"/>
       <use x="127.24609375" xlink:href="#DejaVuSans-30"/>
       <use x="190.869140625" xlink:href="#DejaVuSans-30"/>
      </g>
     </g>
    </g>
   </g>
   <g id="patch_3">
    <path d="
M72 43.2
L518.4 43.2" style="fill:none;stroke:#000000;"/>
   </g>
   <g id="patch_4">
    <path d="
M518.4 388.8
L518.4 43.2" style="fill:none;stroke:#000000;"/>
   </g>
   <g id="patch_5">
    <path d="
M72 388.8
L518.4 388.8" style="fill:none;stroke:#000000;"/>
   </g>
   <g id="patch_6">
    <path d="
M72 388.8
L72 43.2" style="fill:none;stroke:#000000;"/>
   </g>
  </g>
 </g>
 <defs>
  <clipPath id="p7ff5b81e1d">
   <rect height="345.6" width="446.4" x="72.0" y="43.2"/>
  </clipPath>
 </defs>
</svg>
