<?xml version="1.0" encoding="utf-8" standalone="no"?>
<!DOCTYPE svg PUBLIC "-//W3C//DTD SVG 1.1//EN"
  "http://www.w3.org/Graphics/SVG/1.1/DTD/svg11.dtd">
<!-- Created with matplotlib (http://matplotlib.org/) -->
<svg height="432pt" version="1.1" viewBox="0 0 576 432" width="576pt" xmlns="http://www.w3.org/2000/svg" xmlns:xlink="http://www.w3.org/1999/xlink">
 <defs>
  <style type="text/css">
*{stroke-linecap:butt;stroke-linejoin:round;}
  </style>
 </defs>
 <g id="figure_1">
  <g id="patch_1">
   <path d="
M0 432
L576 432
L576 0
L0 0
z
" style="fill:#ffffff;"/>
  </g>
  <g id="axes_1">
   <g id="patch_2">
    <path d="
M72 388.8
L518.4 388.8
L518.4 43.2
L72 43.2
z
" style="fill:#ffffff;"/>
   </g>
   <g id="line2d_1">
    <path clip-path="url(#p7ff5b81e1d)" d="
M72.047 321.628
L72.9474 368.876
L73.8844 366.106
L73.9682 360.947
L74.8131 360.986
L75.1386 357.21
L75.3193 353.338
L75.7418 350.434
L77.8841 352.6
L78.7073 351.555
L80.847 353.709
L82.6247 354.627
L83.0525 352.666
L84.3852 351.281
L85.2504 350.089
L85.3574 347.864
L87.1862 347.923
L91.2577 352.048
L91.9882 351.265
L96.645 354.024
L97.2199 353.765
L101.82 356.559
L102.35 355.265
L106.735 356.405
L106.771 355.095
L107.795 354.808
L107.87 353.77
L109.186 353.604
L109.206 352.447
L109.643 351.318
L111.03 351.538
L111.032 349.176
L112.408 349.166
L113.773 348.927
L116.063 349.326
L118.369 349.941
L118.371 348.997
L119.591 348.978
L120.657 349.086
L121.042 348.617
L122.623 348.467
L124.611 349.326
L124.78 348.906
L126.82 348.923
L126.82 347.157
L127.072 346.537
L127.516 346.182
L127.858 345.165
L128.17 344.907
L130.997 348.427
L132.551 350.062
L134.724 351.775
L134.737 351.159
L135.126 351.004
L135.288 350.556
L137.827 351.428
L137.954 351.017
L143.847 354.683
L147.407 356.068
L147.791 355.903
L147.804 355.411
L149.438 356.238
L151.611 356.899
L152.125 356.667
L155.589 357.827
L155.589 357.386
L155.813 357.1
L157.371 357.339
L157.371 356.912
L158.127 356.868
L159.875 357.063
L160.858 356.962
L160.875 356.575
L161.904 356.641
L162.649 356.528
L166.589 357.094
L166.856 356.857
L167.023 356.498
L169.262 356.844
L170.448 356.497
L170.772 356.219
L171.773 355.891
L172.473 355.686
L172.644 354.69
L172.94 354.399
L174.521 354.639
L175.702 354.334
L175.702 353.984
L178.585 354.589
L179.905 354.788
L183.754 355.728
L184.074 355.509
L184.097 354.887
L185.312 355.046
L187.69 354.987
L189.133 355.19
L190.296 354.971
L192.306 355.437
L192.43 355.2
L196.394 356.288
L196.456 356.034
L197.348 356.076
L199.176 356.371
L201.059 356.79
L201.115 356.537
L203.13 356.882
L203.135 356.627
L205.136 357.012
L205.388 356.797
L209.738 357.578
L210.249 357.515
L210.658 356.892
L215.627 357.242
L215.689 357.037
L218.824 357.768
L219.884 357.82
L226.444 359.036
L231.65 360.01
L231.963 359.851
L232.558 359.756
L234.017 359.687
L237.22 359.992
L238.523 360.078
L242.439 360.498
L242.439 360.311
L243.125 360.25
L245.827 360.567
L246.613 360.542
L246.877 360.403
L247.542 360.359
L247.723 360.227
L249.202 360.146
L251.639 360.065
L252.211 359.996
L252.616 359.712
L254.631 359.636
L255.398 359.461
L257.396 359.59
L257.404 359.429
L257.784 359.173
L259.066 359.097
L260.348 359.166
L260.515 359.021
L261.282 358.872
L261.445 358.746
L264.664 358.727
L264.973 358.627
L270.896 358.918
L271.076 358.81
L272.43 358.861
L274.926 359.02
L277.091 359.072
L277.456 358.962
L279.755 358.989
L279.805 358.735
L284.059 358.889
L284.059 358.605
L286.86 358.797
L286.865 358.661
L288.17 358.741
L291.224 359.13
L291.52 359.03
L293.94 359.099
L295.155 358.868
L301.69 359.254
L301.777 359.144
L302.044 359.042
L302.687 358.877
L307.956 359.25
L309.023 359.108
L311.972 359.261
L312.082 359.165
L312.549 359.115
L312.573 358.875
L313.146 358.749
L313.146 358.628
L316.212 358.73
L316.35 358.5
L316.35 358.379
L316.813 358.225
L318.032 358.179
L318.047 358.066
L319.457 357.962
L319.457 357.843
L322.039 357.813
L327.713 358.261
L328.428 358.126
L331.443 358.192
L332.349 358.008
L334.402 358.196
L334.55 358.128
L336.93 358.176
L338.046 358.075
L338.199 358.006
L341.5 357.791
L341.524 357.693
L342.244 357.733
L342.244 357.63
L342.873 357.522
L343.361 357.488
L346.865 357.674
L347.627 357.585
L348.242 357.402
L348.312 357.204
L349.504 357.092
L349.58 357.011
L350.155 356.795
L353.878 356.854
L353.887 356.672
L356.417 356.903
L356.546 356.826
L358.242 356.891
L360.228 357.008
L360.61 356.878
L361.129 356.583
L364.111 356.777
L364.145 356.69
L364.702 356.604
L371.877 357.405
L372.391 357.31
L376.188 357.658
L377.675 357.654
L378.318 357.372
L388.17 357.605
L388.178 357.525
L393.411 357.557
L400.366 358.048
L400.876 358.001
L409.961 358.146
L412.274 358.114
L412.274 358.036
L412.432 357.98
L413.652 357.924
L416.825 358.028
L416.927 357.892
L418.702 357.896
L421.904 358.046
L425.245 357.752
L435.745 358.141
L435.745 358.069
L435.751 357.997
L439.671 358.136
L439.69 358.068
L442.072 358.058
L442.898 358.013
L445.75 358.192
L445.75 358.123
L449.631 358.353
L449.669 358.29
L450.381 358.033
L452.623 358.137
L453.842 358.073
L455.227 358.09
L455.227 358.022
L455.354 357.984
L457.501 357.921
L459.439 357.93
L466.795 358.245
L467.309 358.106
L467.309 358.041
L468.885 358.014
L472.188 358.07
L473.693 358.166
L473.693 358.103
L473.871 358.047
L475.121 358.065
L478.127 358.208
L478.159 358.151
L480.001 358.183
L480.014 358.122
L492.013 358.27
L498.867 358.583
L507.83 358.505
L509.272 358.485
L515.942 358.552
L515.942 358.497
L516.513 358.437
L517.606 358.379
L518.4 358.285
L518.4 358.285" style="fill:none;stroke:#ff0000;stroke-linecap:square;"/>
   </g>
   <g id="line2d_2">
    <path clip-path="url(#p7ff5b81e1d)" d="
M72 225.396
L72 65.6583
L72.384 329.398
L73.0036 350.73
L73.8942 351.964
L74.2496 348.244
L74.2531 335.215
L74.701 337.238
L74.701 325.877
L75.3394 328.42
L75.3394 323.434
L76.0994 318.607
L78.4202 326.999
L78.8496 326.137
L78.8515 322.618
L80.8435 327.41
L81.312 326.456
L81.5048 323.626
L82.9795 327.115
L86.303 331.354
L87.0265 327.988
L87.0265 325.61
L87.5963 324.683
L87.8427 323.414
L87.8427 321.156
L88.8559 320.965
L91.0623 322.649
L91.991 323.957
L91.9926 320.427
L95.7172 325.203
L96.706 325.168
L97.1084 323.166
L97.7023 322.741
L97.7083 319.85
L98.4255 320.334
L99.4149 320.495
L100.345 318.172
L100.498 318.128
L105.469 322.623
L105.473 321.518
L105.86 320.439
L106.788 320.406
L107.362 320.162
L107.795 319.508
L109.186 320.925
L110.082 320.891
L110.944 321.122
L111.027 320.155
L111.508 318.828
L116.063 323.009
L116.543 322.754
L116.543 321.685
L117.891 322.516
L118.373 321.889
L120.861 324.622
L123.88 327.077
L123.88 326.164
L124.296 324.938
L124.692 324.933
L127.747 326.408
L127.979 326.823
L128.494 328.166
L128.669 327.621
L130.104 329.701
L130.168 329.215
L130.722 329.892
L130.727 327.737
L130.932 327.24
L130.997 326.743
L131.514 327.216
L131.622 327.145
L131.672 325.84
L132.368 326.326
L132.501 326.007
L132.869 325.908
L132.957 325.431
L133.278 325.296
L133.296 324.634
L133.966 325.436
L134.277 325.134
L134.304 324.579
L134.72 324.587
L134.737 323.429
L135.078 323.382
L135.23 323.237
L136.511 323.582
L136.535 323.053
L138.019 323.938
L138.46 323.878
L138.648 323.586
L139.162 324.103
L139.408 324.087
L139.432 323.553
L140.173 323.7
L141.443 324.267
L141.465 323.207
L143.07 325.21
L143.993 326.033
L146.261 327.546
L146.551 327.268
L146.599 326.867
L147.59 327.186
L147.785 327.035
L148.504 327.789
L148.83 327.232
L149.5 327.667
L150.155 327.641
L151.101 328.203
L151.249 328.002
L151.296 327.629
L152.585 328.114
L153.03 328.025
L153.03 327.575
L153.616 327.835
L153.848 327.068
L153.88 326.206
L154.401 326.176
L154.545 325.856
L155.242 326.094
L155.322 325.796
L155.679 325.622
L155.679 325.183
L156.165 325.172
L157.519 325.917
L157.519 325.493
L157.637 325.213
L158.199 325.429
L160.901 326.909
L161.226 326.678
L161.234 326.3
L161.759 326.369
L161.759 325.963
L162.173 325.979
L163.578 326.351
L164.439 326.444
L164.439 326.052
L165.355 326.579
L166.737 326.702
L166.827 326.416
L167.042 326.141
L167.042 325.378
L167.528 325.366
L168.985 325.477
L170.262 325.47
L170.448 325.308
L171.253 325.1
L171.317 324.432
L171.677 324.364
L171.709 323.667
L174.583 324.44
L175.003 324.401
L175.289 324.163
L176.165 324.438
L177.528 325.233
L178.004 325.291
L178.004 324.951
L179.042 325.132
L179.676 324.934
L179.7 324.291
L179.929 324.135
L180.691 324.312
L180.875 324.176
L183.243 325.077
L183.731 325.183
L184.074 325.067
L184.136 324.514
L185.073 324.905
L185.331 324.744
L185.331 324.433
L186.346 324.527
L186.346 324.221
L187.613 324.758
L188.242 324.891
L188.247 324.593
L189.295 324.924
L190.488 324.633
L191.039 324.732
L193.559 325.724
L193.559 325.439
L193.955 325.318
L194.536 325.477
L194.664 325.304
L194.993 325.203
L195.341 324.844
L198.524 326.692
L198.542 326.489
L198.734 326.353
L200.882 327.6
L200.882 327.339
L201.281 326.943
L202.226 327.319
L202.887 327.198
L203.376 326.944
L206.992 328.293
L207.485 328.027
L207.485 327.782
L208.414 327.98
L208.862 327.942
L208.871 327.465
L210.024 327.99
L210.21 327.651
L211.02 327.853
L211.477 327.798
L211.477 327.559
L212.02 327.61
L212.33 327.49
L213.428 327.819
L213.85 327.803
L215.142 328.142
L215.269 328.022
L215.279 327.8
L215.625 327.764
L215.693 327.369
L216.16 327.481
L216.559 327.419
L218.052 327.679
L220.181 328.487
L220.822 328.593
L222.335 329.137
L222.335 328.921
L223.027 328.912
L224.807 329.568
L225.508 329.679
L226.946 330.149
L227.09 329.843
L227.091 329.651
L227.956 329.597
L227.959 329.202
L230.591 329.893
L231.568 329.902
L231.749 329.641
L232.916 329.851
L232.93 329.455
L234.345 329.103
L235.877 329.72
L239.49 330.207
L240.01 330.247
L240.248 330.106
L240.335 329.766
L240.424 329.622
L241.082 329.513
L241.286 329.24
L241.39 329.104
L242.763 329.3
L242.897 328.987
L245.881 329.602
L247.494 329.908
L247.542 329.743
L248.013 329.76
L248.182 329.633
L248.182 329.464
L248.528 329.44
L250.677 330.101
L250.8 329.968
L251.248 329.973
L251.248 329.798
L253.416 330.246
L253.425 330.081
L254.615 330.431
L254.63 330.292
L256.193 330.517
L256.289 330.391
L257.389 330.709
L257.784 330.556
L257.798 330.426
L258.322 330.475
L259.066 330.233
L260.598 330.489
L261.073 330.534
L261.277 330.421
L261.277 330.259
L262.348 330.327
L264.254 330.777
L264.254 330.617
L266.703 331.207
L268.051 331.539
L268.137 331.414
L268.809 331.43
L268.809 331.274
L269.729 331.275
L270.124 331.233
L270.162 331.101
L270.791 331.155
L273.81 331.922
L274.921 331.96
L274.969 331.828
L275.754 332.034
L276.408 331.851
L276.508 331.133
L277.091 331.274
L277.222 331.14
L277.656 331.134
L279.362 331.49
L279.398 331.086
L279.787 331.109
L279.787 330.965
L280.675 330.957
L280.675 330.678
L281.801 330.821
L281.801 330.535
L282.063 330.455
L282.072 330.315
L282.882 330.425
L282.954 330.322
L283.378 330.331
L283.392 330.208
L283.754 330.175
L284.516 330.27
L284.559 330.145
L285.474 330.175
L285.607 330.08
L286.212 330.131
L286.212 329.992
L287.394 330.125
L289.152 330.579
L289.29 330.476
L290.114 330.484
L293.74 331.099
L293.773 330.842
L294.578 330.653
L294.65 330.423
L294.669 330.298
L295.383 330.386
L295.383 330.254
L295.982 330.252
L296.008 330.136
L296.917 330.113
L297.451 329.821
L300.109 330.213
L300.205 330.125
L302.525 330.359
L302.606 330.235
L303.159 330.271
L303.278 330.154
L304.269 330.214
L304.283 330.092
L304.793 330.093
L304.812 329.846
L305.293 329.727
L305.293 329.602
L306.498 329.798
L306.536 329.431
L307.065 329.43
L307.16 329.196
L307.262 329.102
L307.561 329.065
L309.728 329.386
L310.209 329.364
L311.338 329.438
L311.338 329.19
L311.982 328.856
L312.091 328.301
L314.054 328.729
L314.088 328.622
L314.297 328.402
L314.35 328.314
L315.033 328.159
L315.033 328.039
L315.626 328.099
L315.641 327.987
L315.86 327.952
L315.86 327.831
L316.412 327.62
L316.414 327.51
L316.679 327.364
L316.713 327.258
L317.632 327.307
L317.761 327.132
L317.784 327.021
L318.032 326.837
L318.114 326.544
L318.814 326.493
L318.895 325.83
L319.066 325.677
L319.457 325.576
L319.809 325.458
L319.968 324.84
L320.243 324.6
L321.29 324.709
L321.744 324.293
L322.082 324.276
L322.163 324.086
L322.229 324.014
L323.025 324.085
L323.03 323.972
L323.654 323.921
L323.859 323.874
L324.64 323.913
L325.24 323.684
L325.393 323.655
L326.393 323.714
L326.504 323.533
L326.832 323.384
L326.884 323.2
L327.222 323.102
L328.733 323.283
L329.347 322.943
L329.357 322.84
L329.647 322.853
L331.262 323.134
L331.324 322.966
L331.506 322.834
L331.872 322.821
L332.863 322.978
L332.863 322.868
L333.812 323.04
L334.459 323.031
L334.464 322.817
L335.089 322.851
L335.165 322.576
L335.288 322.47
L335.585 322.434
L335.585 322.326
L336.279 322.394
L336.427 322.252
L336.427 322.148
L337.237 322.2
L337.237 322.096
L337.26 322.001
L337.965 322.048
L338.046 321.909
L338.604 321.837
L339.547 322.061
L339.561 321.967
L339.647 321.831
L339.657 321.731
L339.895 321.666
L341.053 321.848
L341.081 321.683
L341.539 321.799
L341.539 321.695
L341.543 321.596
L342.42 321.756
L342.434 321.664
L343.597 321.385
L343.597 321.282
L344.078 321.373
L344.083 321.282
L344.459 321.291
L344.459 321.191
L344.469 321.093
L345.579 321.47
L346.265 321.221
L346.393 321.009
L346.746 320.898
L346.798 320.726
L346.798 320.626
L347.284 320.619
L347.475 320.505
L348.108 320.489
L348.204 320.35
L348.823 320.338
L349.08 320.226
L349.144 320.143
L349.619 320.259
L349.943 320.207
L351.014 320.451
L351.024 320.355
L351.115 320.196
L352.344 320.103
L352.344 320.005
L352.987 320.008
L353.13 319.827
L353.273 319.52
L354.197 319.539
L354.197 319.443
L354.616 319.085
L354.716 318.932
L355.026 318.302
L355.674 318.547
L356.408 318.529
L357.036 318.437
L357.065 318.352
L357.275 318.221
L357.46 317.937
L357.865 317.885
L358.237 317.791
L358.313 317.659
L359.266 317.777
L359.838 317.666
L360.595 317.846
L360.614 317.763
L360.714 317.598
L361.434 317.57
L361.434 317.476
L362.063 317.509
L362.892 317.551
L363.192 317.379
L363.23 317.303
L363.497 317.148
L363.511 316.881
L364.316 316.656
L365.579 316.862
L366.026 316.957
L366.026 316.865
L366.093 316.542
L366.165 316.489
L369.295 316.934
L369.895 316.916
L370.738 316.997
L370.771 316.924
L372.872 316.937
L372.877 316.849
L373.454 316.885
L373.454 316.623
L375.55 317.056
L375.745 316.949
L377.093 317.294
L379.009 317.04
L379.371 316.868
L379.484 316.723
L379.742 316.546
L379.866 316.36
L380.605 316.29
L380.681 316.067
L381.257 316.138
L381.315 316.009
L381.986 315.954
L382.625 316.112
L382.625 315.948
L384.54 316.41
L384.54 316.327
L385.409 316.308
L385.409 316.225
L386.793 316.207
L387.284 316.04
L388.17 316.121
L388.17 316.039
L389.309 315.552
L389.356 315.319
L390.314 315.365
L390.324 315.287
L390.643 315.26
L393.144 315.39
L393.196 315.326
L393.477 315.289
L394.14 315.378
L394.14 315.298
L394.864 315.04
L394.878 314.966
L396.35 315.061
L401.157 315.891
L402.377 315.973
L403.692 315.754
L405.487 315.824
L405.507 315.758
L405.813 315.74
L410.139 316.348
L410.387 316.213
L413.963 316.332
L414.116 316.233
L414.935 316.125
L415.132 316.022
L415.183 315.96
L415.481 315.775
L416.307 315.843
L416.307 315.766
L416.358 315.628
L416.704 315.529
L416.825 315.483
L418.219 315.583
L418.823 315.478
L418.835 315.258
L419.223 315.112
L419.731 315.082
L420.023 314.968
L421.345 315.023
L421.548 314.92
L422.92 315.2
L422.933 315.128
L425.238 314.927
L425.67 314.788
L427.208 314.993
L427.297 314.795
L427.856 314.627
L427.856 314.554
L428.592 314.661
L428.592 314.588
L428.732 314.495
L430.238 314.543
L430.238 314.471
L430.454 314.352
L430.555 314.093
L430.955 314.053
L430.955 313.982
L431.387 314.017
L431.387 313.946
L431.387 313.8
L432.353 313.927
L432.493 313.845
L433.462 313.888
L433.465 313.673
L433.757 313.597
L433.903 313.458
L435.192 313.235
L436.425 313.371
L437.136 313.452
L437.524 313.4
L438.8 313.593
L438.8 313.522
L439.188 313.541
L439.188 313.471
L439.353 313.385
L440.509 313.56
L440.547 313.455
L440.992 313.359
L441.017 313.301
L445.794 313.306
L445.794 313.237
L446.442 313.079
L446.442 312.874
L447.027 312.927
L447.567 312.69
L448.272 312.837
L448.272 312.77
L448.456 312.72
L448.894 312.687
L448.945 312.43
L449.021 312.376
L449.479 312.222
L449.479 312.154
L449.694 311.989
L452.54 312.283
L452.54 312.215
L455.329 312.488
L455.392 312.111
L455.742 312.123
L455.742 312.057
L455.888 311.73
L456.339 311.6
L456.339 311.402
L456.758 311.322
L456.771 311.256
L457.216 311.293
L457.216 311.161
L459.388 311.544
L460.392 311.644
L460.392 311.579
L461.732 311.383
L461.834 311.158
L462.569 311.281
L462.569 311.217
L462.583 311.034
L464.324 311.133
L464.324 311.071
L464.849 310.969
L464.909 310.846
L466.128 310.988
L466.128 310.926
L466.394 310.972
L466.394 310.908
L466.394 310.844
L467.665 310.85
L467.665 310.787
L468.179 310.812
L470.255 311.075
L470.255 310.894
L470.523 310.8
L471.248 310.662
L472.963 310.601
L472.982 310.551
L473.547 310.513
L473.56 310.392
L473.693 310.315
L474.865 310.499
L474.875 310.444
L474.88 310.393
L475.84 310.621
L475.948 310.529
L476.685 310.532
L476.749 310.436
L476.92 310.476
L476.92 310.414
L477.517 310.251
L477.778 310.201
L477.822 310.159
L478.534 310.164
L478.584 310.114
L480.318 310.391
L480.446 309.835
L481.379 310.016
L481.379 309.956
L481.741 309.868
L481.741 309.808
L484.975 309.776
L485.07 309.631
L488.723 309.383
L488.729 309.206
L489.409 309.159
L489.409 309.102
L493.823 309.089
L494.439 308.907
L495.926 309.005
L495.926 308.89
L498.232 308.889
L498.251 308.784
L498.416 308.786
L498.416 308.729
L498.568 308.62
L499.705 308.87
L499.705 308.812
L500.201 308.762
L500.201 308.704
L501.351 308.462
L501.351 308.405
L502.926 308.67
L502.926 308.614
L503.358 308.618
L504.069 308.644
L504.069 308.588
L504.088 308.539
L504.235 308.428
L504.539 308.325
L505.931 308.322
L505.931 308.266
L505.931 308.21
L506.655 308.17
L507.411 308.283
L507.411 308.172
L508.319 308.151
L508.389 308.116
L508.7 308.12
L508.7 308.012
L508.84 307.835
L511.203 308.046
L511.673 307.996
L511.673 307.942
L512.556 307.99
L514.639 308.335
L514.639 308.282
L515.218 308.217
L515.268 308.018
L516.05 307.885
L516.081 307.79
L516.564 307.737
L516.666 307.606
L517.428 307.561
L517.428 307.453
L518.362 307.523
L518.362 307.523" style="fill:none;stroke:#008000;stroke-linecap:square;"/>
   </g>
   <g id="matplotlib.axis_1">
    <g id="xtick_1">
     <g id="line2d_3">
      <defs>
       <path d="
M0 0
L0 -4" id="m93b0483c22" style="stroke:#000000;stroke-width:0.5;"/>
      </defs>
      <g>
       <use style="stroke:#000000;stroke-width:0.5;" x="73.5165902405" xlink:href="#m93b0483c22" y="388.8"/>
      </g>
     </g>
     <g id="line2d_4">
      <defs>
       <path d="
M0 0
L0 4" id="m741efc42ff" style="stroke:#000000;stroke-width:0.5;"/>
      </defs>
      <g>
       <use style="stroke:#000000;stroke-width:0.5;" x="73.5165902405" xlink:href="#m741efc42ff" y="43.2"/>
      </g>
     </g>
     <g id="text_1">
      <!-- Sep 2013 -->
      <defs>
       <path d="
M40.5781 39.3125
Q47.6562 37.7969 51.625 33
Q55.6094 28.2188 55.6094 21.1875
Q55.6094 10.4062 48.1875 4.48438
Q40.7656 -1.42188 27.0938 -1.42188
Q22.5156 -1.42188 17.6562 -0.515625
Q12.7969 0.390625 7.625 2.20312
L7.625 11.7188
Q11.7188 9.32812 16.5938 8.10938
Q21.4844 6.89062 26.8125 6.89062
Q36.0781 6.89062 40.9375 10.5469
Q45.7969 14.2031 45.7969 21.1875
Q45.7969 27.6406 41.2812 31.2656
Q36.7656 34.9062 28.7188 34.9062
L20.2188 34.9062
L20.2188 43.0156
L29.1094 43.0156
Q36.375 43.0156 40.2344 45.9219
Q44.0938 48.8281 44.0938 54.2969
Q44.0938 59.9062 40.1094 62.9062
Q36.1406 65.9219 28.7188 65.9219
Q24.6562 65.9219 20.0156 65.0312
Q15.375 64.1562 9.8125 62.3125
L9.8125 71.0938
Q15.4375 72.6562 20.3438 73.4375
Q25.25 74.2188 29.5938 74.2188
Q40.8281 74.2188 47.3594 69.1094
Q53.9062 64.0156 53.9062 55.3281
Q53.9062 49.2656 50.4375 45.0938
Q46.9688 40.9219 40.5781 39.3125" id="DejaVuSans-33"/>
       <path d="
M12.4062 8.29688
L28.5156 8.29688
L28.5156 63.9219
L10.9844 60.4062
L10.9844 69.3906
L28.4219 72.9062
L38.2812 72.9062
L38.2812 8.29688
L54.3906 8.29688
L54.3906 0
L12.4062 0
z
" id="DejaVuSans-31"/>
       <path d="
M31.7812 66.4062
Q24.1719 66.4062 20.3281 58.9062
Q16.5 51.4219 16.5 36.375
Q16.5 21.3906 20.3281 13.8906
Q24.1719 6.39062 31.7812 6.39062
Q39.4531 6.39062 43.2812 13.8906
Q47.125 21.3906 47.125 36.375
Q47.125 51.4219 43.2812 58.9062
Q39.4531 66.4062 31.7812 66.4062
M31.7812 74.2188
Q44.0469 74.2188 50.5156 64.5156
Q56.9844 54.8281 56.9844 36.375
Q56.9844 17.9688 50.5156 8.26562
Q44.0469 -1.42188 31.7812 -1.42188
Q19.5312 -1.42188 13.0625 8.26562
Q6.59375 17.9688 6.59375 36.375
Q6.59375 54.8281 13.0625 64.5156
Q19.5312 74.2188 31.7812 74.2188" id="DejaVuSans-30"/>
       <path id="DejaVuSans-20"/>
       <path d="
M19.1875 8.29688
L53.6094 8.29688
L53.6094 0
L7.32812 0
L7.32812 8.29688
Q12.9375 14.1094 22.625 23.8906
Q32.3281 33.6875 34.8125 36.5312
Q39.5469 41.8438 41.4219 45.5312
Q43.3125 49.2188 43.3125 52.7812
Q43.3125 58.5938 39.2344 62.25
Q35.1562 65.9219 28.6094 65.9219
Q23.9688 65.9219 18.8125 64.3125
Q13.6719 62.7031 7.8125 59.4219
L7.8125 69.3906
Q13.7656 71.7812 18.9375 73
Q24.125 74.2188 28.4219 74.2188
Q39.75 74.2188 46.4844 68.5469
Q53.2188 62.8906 53.2188 53.4219
Q53.2188 48.9219 51.5312 44.8906
Q49.8594 40.875 45.4062 35.4062
Q44.1875 33.9844 37.6406 27.2188
Q31.1094 20.4531 19.1875 8.29688" id="DejaVuSans-32"/>
       <path d="
M53.5156 70.5156
L53.5156 60.8906
Q47.9062 63.5781 42.9219 64.8906
Q37.9375 66.2188 33.2969 66.2188
Q25.25 66.2188 20.875 63.0938
Q16.5 59.9688 16.5 54.2031
Q16.5 49.3594 19.4062 46.8906
Q22.3125 44.4375 30.4219 42.9219
L36.375 41.7031
Q47.4062 39.5938 52.6562 34.2969
Q57.9062 29 57.9062 20.125
Q57.9062 9.51562 50.7969 4.04688
Q43.7031 -1.42188 29.9844 -1.42188
Q24.8125 -1.42188 18.9688 -0.25
Q13.1406 0.921875 6.89062 3.21875
L6.89062 13.375
Q12.8906 10.0156 18.6562 8.29688
Q24.4219 6.59375 29.9844 6.59375
Q38.4219 6.59375 43.0156 9.90625
Q47.6094 13.2344 47.6094 19.3906
Q47.6094 24.75 44.3125 27.7812
Q41.0156 30.8125 33.5 32.3281
L27.4844 33.5
Q16.4531 35.6875 11.5156 40.375
Q6.59375 45.0625 6.59375 53.4219
Q6.59375 63.0938 13.4062 68.6562
Q20.2188 74.2188 32.1719 74.2188
Q37.3125 74.2188 42.625 73.2812
Q47.9531 72.3594 53.5156 70.5156" id="DejaVuSans-53"/>
       <path d="
M56.2031 29.5938
L56.2031 25.2031
L14.8906 25.2031
Q15.4844 15.9219 20.4844 11.0625
Q25.4844 6.20312 34.4219 6.20312
Q39.5938 6.20312 44.4531 7.46875
Q49.3125 8.73438 54.1094 11.2812
L54.1094 2.78125
Q49.2656 0.734375 44.1875 -0.34375
Q39.1094 -1.42188 33.8906 -1.42188
Q20.7969 -1.42188 13.1562 6.1875
Q5.51562 13.8125 5.51562 26.8125
Q5.51562 40.2344 12.7656 48.1094
Q20.0156 56 32.3281 56
Q43.3594 56 49.7812 48.8906
Q56.2031 41.7969 56.2031 29.5938
M47.2188 32.2344
Q47.125 39.5938 43.0938 43.9844
Q39.0625 48.3906 32.4219 48.3906
Q24.9062 48.3906 20.3906 44.1406
Q15.875 39.8906 15.1875 32.1719
z
" id="DejaVuSans-65"/>
       <path d="
M18.1094 8.20312
L18.1094 -20.7969
L9.07812 -20.7969
L9.07812 54.6875
L18.1094 54.6875
L18.1094 46.3906
Q20.9531 51.2656 25.2656 53.625
Q29.5938 56 35.5938 56
Q45.5625 56 51.7812 48.0938
Q58.0156 40.1875 58.0156 27.2969
Q58.0156 14.4062 51.7812 6.48438
Q45.5625 -1.42188 35.5938 -1.42188
Q29.5938 -1.42188 25.2656 0.953125
Q20.9531 3.32812 18.1094 8.20312
M48.6875 27.2969
Q48.6875 37.2031 44.6094 42.8438
Q40.5312 48.4844 33.4062 48.4844
Q26.2656 48.4844 22.1875 42.8438
Q18.1094 37.2031 18.1094 27.2969
Q18.1094 17.3906 22.1875 11.75
Q26.2656 6.10938 33.4062 6.10938
Q40.5312 6.10938 44.6094 11.75
Q48.6875 17.3906 48.6875 27.2969" id="DejaVuSans-70"/>
      </defs>
      <g transform="translate(45.5106527405 401.918125)scale(0.12 -0.12)">
       <use xlink:href="#DejaVuSans-53"/>
       <use x="63.4765625" xlink:href="#DejaVuSans-65"/>
       <use x="125.0" xlink:href="#DejaVuSans-70"/>
       <use x="188.4765625" xlink:href="#DejaVuSans-20"/>
       <use x="220.263671875" xlink:href="#DejaVuSans-32"/>
       <use x="283.88671875" xlink:href="#DejaVuSans-30"/>
       <use x="347.509765625" xlink:href="#DejaVuSans-31"/>
       <use x="411.1328125" xlink:href="#DejaVuSans-33"/>
      </g>
     </g>
    </g>
    <g id="xtick_2">
     <g id="line2d_5">
      <g>
       <use style="stroke:#000000;stroke-width:0.5;" x="115.136272986" xlink:href="#m93b0483c22" y="388.8"/>
      </g>
     </g>
     <g id="line2d_6">
      <g>
       <use style="stroke:#000000;stroke-width:0.5;" x="115.136272986" xlink:href="#m741efc42ff" y="43.2"/>
      </g>
     </g>
     <g id="text_2">
      <!-- Dec 2013 -->
      <defs>
       <path d="
M19.6719 64.7969
L19.6719 8.10938
L31.5938 8.10938
Q46.6875 8.10938 53.6875 14.9375
Q60.6875 21.7812 60.6875 36.5312
Q60.6875 51.1719 53.6875 57.9844
Q46.6875 64.7969 31.5938 64.7969
z

M9.8125 72.9062
L30.0781 72.9062
Q51.2656 72.9062 61.1719 64.0938
Q71.0938 55.2812 71.0938 36.5312
Q71.0938 17.6719 61.125 8.82812
Q51.1719 0 30.0781 0
L9.8125 0
z
" id="DejaVuSans-44"/>
       <path d="
M48.7812 52.5938
L48.7812 44.1875
Q44.9688 46.2969 41.1406 47.3438
Q37.3125 48.3906 33.4062 48.3906
Q24.6562 48.3906 19.8125 42.8438
Q14.9844 37.3125 14.9844 27.2969
Q14.9844 17.2812 19.8125 11.7344
Q24.6562 6.20312 33.4062 6.20312
Q37.3125 6.20312 41.1406 7.25
Q44.9688 8.29688 48.7812 10.4062
L48.7812 2.09375
Q45.0156 0.34375 40.9844 -0.53125
Q36.9688 -1.42188 32.4219 -1.42188
Q20.0625 -1.42188 12.7812 6.34375
Q5.51562 14.1094 5.51562 27.2969
Q5.51562 40.6719 12.8594 48.3281
Q20.2188 56 33.0156 56
Q37.1562 56 41.1094 55.1406
Q45.0625 54.2969 48.7812 52.5938" id="DejaVuSans-63"/>
      </defs>
      <g transform="translate(86.8293979857 401.918125)scale(0.12 -0.12)">
       <use xlink:href="#DejaVuSans-44"/>
       <use x="77.001953125" xlink:href="#DejaVuSans-65"/>
       <use x="138.525390625" xlink:href="#DejaVuSans-63"/>
       <use x="193.505859375" xlink:href="#DejaVuSans-20"/>
       <use x="225.29296875" xlink:href="#DejaVuSans-32"/>
       <use x="288.916015625" xlink:href="#DejaVuSans-30"/>
       <use x="352.5390625" xlink:href="#DejaVuSans-31"/>
       <use x="416.162109375" xlink:href="#DejaVuSans-33"/>
      </g>
     </g>
    </g>
    <g id="xtick_3">
     <g id="line2d_7">
      <g>
       <use style="stroke:#000000;stroke-width:0.5;" x="156.29859658" xlink:href="#m93b0483c22" y="388.8"/>
      </g>
     </g>
     <g id="line2d_8">
      <g>
       <use style="stroke:#000000;stroke-width:0.5;" x="156.29859658" xlink:href="#m741efc42ff" y="43.2"/>
      </g>
     </g>
     <g id="text_3">
      <!-- Mar 2014 -->
      <defs>
       <path d="
M9.8125 72.9062
L24.5156 72.9062
L43.1094 23.2969
L61.8125 72.9062
L76.5156 72.9062
L76.5156 0
L66.8906 0
L66.8906 64.0156
L48.0938 14.0156
L38.1875 14.0156
L19.3906 64.0156
L19.3906 0
L9.8125 0
z
" id="DejaVuSans-4d"/>
       <path d="
M41.1094 46.2969
Q39.5938 47.1719 37.8125 47.5781
Q36.0312 48 33.8906 48
Q26.2656 48 22.1875 43.0469
Q18.1094 38.0938 18.1094 28.8125
L18.1094 0
L9.07812 0
L9.07812 54.6875
L18.1094 54.6875
L18.1094 46.1875
Q20.9531 51.1719 25.4844 53.5781
Q30.0312 56 36.5312 56
Q37.4531 56 38.5781 55.875
Q39.7031 55.7656 41.0625 55.5156
z
" id="DejaVuSans-72"/>
       <path d="
M37.7969 64.3125
L12.8906 25.3906
L37.7969 25.3906
z

M35.2031 72.9062
L47.6094 72.9062
L47.6094 25.3906
L58.0156 25.3906
L58.0156 17.1875
L47.6094 17.1875
L47.6094 0
L37.7969 0
L37.7969 17.1875
L4.89062 17.1875
L4.89062 26.7031
z
" id="DejaVuSans-34"/>
       <path d="
M34.2812 27.4844
Q23.3906 27.4844 19.1875 25
Q14.9844 22.5156 14.9844 16.5
Q14.9844 11.7188 18.1406 8.90625
Q21.2969 6.10938 26.7031 6.10938
Q34.1875 6.10938 38.7031 11.4062
Q43.2188 16.7031 43.2188 25.4844
L43.2188 27.4844
z

M52.2031 31.2031
L52.2031 0
L43.2188 0
L43.2188 8.29688
Q40.1406 3.32812 35.5469 0.953125
Q30.9531 -1.42188 24.3125 -1.42188
Q15.9219 -1.42188 10.9531 3.29688
Q6 8.01562 6 15.9219
Q6 25.1406 12.1719 29.8281
Q18.3594 34.5156 30.6094 34.5156
L43.2188 34.5156
L43.2188 35.4062
Q43.2188 41.6094 39.1406 45
Q35.0625 48.3906 27.6875 48.3906
Q23 48.3906 18.5469 47.2656
Q14.1094 46.1406 10.0156 43.8906
L10.0156 52.2031
Q14.9375 54.1094 19.5781 55.0469
Q24.2188 56 28.6094 56
Q40.4844 56 46.3438 49.8438
Q52.2031 43.7031 52.2031 31.2031" id="DejaVuSans-61"/>
      </defs>
      <g transform="translate(128.13797158 401.918125)scale(0.12 -0.12)">
       <use xlink:href="#DejaVuSans-4d"/>
       <use x="86.279296875" xlink:href="#DejaVuSans-61"/>
       <use x="147.55859375" xlink:href="#DejaVuSans-72"/>
       <use x="188.671875" xlink:href="#DejaVuSans-20"/>
       <use x="220.458984375" xlink:href="#DejaVuSans-32"/>
       <use x="284.08203125" xlink:href="#DejaVuSans-30"/>
       <use x="347.705078125" xlink:href="#DejaVuSans-31"/>
       <use x="411.328125" xlink:href="#DejaVuSans-34"/>
      </g>
     </g>
    </g>
    <g id="xtick_4">
     <g id="line2d_9">
      <g>
       <use style="stroke:#000000;stroke-width:0.5;" x="198.375638476" xlink:href="#m93b0483c22" y="388.8"/>
      </g>
     </g>
     <g id="line2d_10">
      <g>
       <use style="stroke:#000000;stroke-width:0.5;" x="198.375638476" xlink:href="#m741efc42ff" y="43.2"/>
      </g>
     </g>
     <g id="text_4">
      <!-- Jun 2014 -->
      <defs>
       <path d="
M8.5 21.5781
L8.5 54.6875
L17.4844 54.6875
L17.4844 21.9219
Q17.4844 14.1562 20.5 10.2656
Q23.5312 6.39062 29.5938 6.39062
Q36.8594 6.39062 41.0781 11.0312
Q45.3125 15.6719 45.3125 23.6875
L45.3125 54.6875
L54.2969 54.6875
L54.2969 0
L45.3125 0
L45.3125 8.40625
Q42.0469 3.42188 37.7188 1
Q33.4062 -1.42188 27.6875 -1.42188
Q18.2656 -1.42188 13.375 4.4375
Q8.5 10.2969 8.5 21.5781
M31.1094 56
z
" id="DejaVuSans-75"/>
       <path d="
M54.8906 33.0156
L54.8906 0
L45.9062 0
L45.9062 32.7188
Q45.9062 40.4844 42.875 44.3281
Q39.8438 48.1875 33.7969 48.1875
Q26.5156 48.1875 22.3125 43.5469
Q18.1094 38.9219 18.1094 30.9062
L18.1094 0
L9.07812 0
L9.07812 54.6875
L18.1094 54.6875
L18.1094 46.1875
Q21.3438 51.125 25.7031 53.5625
Q30.0781 56 35.7969 56
Q45.2188 56 50.0469 50.1719
Q54.8906 44.3438 54.8906 33.0156" id="DejaVuSans-6e"/>
       <path d="
M9.8125 72.9062
L19.6719 72.9062
L19.6719 5.07812
Q19.6719 -8.10938 14.6719 -14.0625
Q9.67188 -20.0156 -1.42188 -20.0156
L-5.17188 -20.0156
L-5.17188 -11.7188
L-2.09375 -11.7188
Q4.4375 -11.7188 7.125 -8.04688
Q9.8125 -4.39062 9.8125 5.07812
z
" id="DejaVuSans-4a"/>
      </defs>
      <g transform="translate(171.850013476 401.918125)scale(0.12 -0.12)">
       <use xlink:href="#DejaVuSans-4a"/>
       <use x="29.4921875" xlink:href="#DejaVuSans-75"/>
       <use x="92.87109375" xlink:href="#DejaVuSans-6e"/>
       <use x="156.25" xlink:href="#DejaVuSans-20"/>
       <use x="188.037109375" xlink:href="#DejaVuSans-32"/>
       <use x="251.66015625" xlink:href="#DejaVuSans-30"/>
       <use x="315.283203125" xlink:href="#DejaVuSans-31"/>
       <use x="378.90625" xlink:href="#DejaVuSans-34"/>
      </g>
     </g>
    </g>
    <g id="xtick_5">
     <g id="line2d_11">
      <g>
       <use style="stroke:#000000;stroke-width:0.5;" x="240.452680372" xlink:href="#m93b0483c22" y="388.8"/>
      </g>
     </g>
     <g id="line2d_12">
      <g>
       <use style="stroke:#000000;stroke-width:0.5;" x="240.452680372" xlink:href="#m741efc42ff" y="43.2"/>
      </g>
     </g>
     <g id="text_5">
      <!-- Sep 2014 -->
      <g transform="translate(212.302367872 401.918125)scale(0.12 -0.12)">
       <use xlink:href="#DejaVuSans-53"/>
       <use x="63.4765625" xlink:href="#DejaVuSans-65"/>
       <use x="125.0" xlink:href="#DejaVuSans-70"/>
       <use x="188.4765625" xlink:href="#DejaVuSans-20"/>
       <use x="220.263671875" xlink:href="#DejaVuSans-32"/>
       <use x="283.88671875" xlink:href="#DejaVuSans-30"/>
       <use x="347.509765625" xlink:href="#DejaVuSans-31"/>
       <use x="411.1328125" xlink:href="#DejaVuSans-34"/>
      </g>
     </g>
    </g>
    <g id="xtick_6">
     <g id="line2d_13">
      <g>
       <use style="stroke:#000000;stroke-width:0.5;" x="282.072363118" xlink:href="#m93b0483c22" y="388.8"/>
      </g>
     </g>
     <g id="line2d_14">
      <g>
       <use style="stroke:#000000;stroke-width:0.5;" x="282.072363118" xlink:href="#m741efc42ff" y="43.2"/>
      </g>
     </g>
     <g id="text_6">
      <!-- Dec 2014 -->
      <g transform="translate(253.621113118 401.918125)scale(0.12 -0.12)">
       <use xlink:href="#DejaVuSans-44"/>
       <use x="77.001953125" xlink:href="#DejaVuSans-65"/>
       <use x="138.525390625" xlink:href="#DejaVuSans-63"/>
       <use x="193.505859375" xlink:href="#DejaVuSans-20"/>
       <use x="225.29296875" xlink:href="#DejaVuSans-32"/>
       <use x="288.916015625" xlink:href="#DejaVuSans-30"/>
       <use x="352.5390625" xlink:href="#DejaVuSans-31"/>
       <use x="416.162109375" xlink:href="#DejaVuSans-34"/>
      </g>
     </g>
    </g>
    <g id="xtick_7">
     <g id="line2d_15">
      <g>
       <use style="stroke:#000000;stroke-width:0.5;" x="323.234686712" xlink:href="#m93b0483c22" y="388.8"/>
      </g>
     </g>
     <g id="line2d_16">
      <g>
       <use style="stroke:#000000;stroke-width:0.5;" x="323.234686712" xlink:href="#m741efc42ff" y="43.2"/>
      </g>
     </g>
     <g id="text_7">
      <!-- Mar 2015 -->
      <defs>
       <path d="
M10.7969 72.9062
L49.5156 72.9062
L49.5156 64.5938
L19.8281 64.5938
L19.8281 46.7344
Q21.9688 47.4688 24.1094 47.8281
Q26.2656 48.1875 28.4219 48.1875
Q40.625 48.1875 47.75 41.5
Q54.8906 34.8125 54.8906 23.3906
Q54.8906 11.625 47.5625 5.09375
Q40.2344 -1.42188 26.9062 -1.42188
Q22.3125 -1.42188 17.5469 -0.640625
Q12.7969 0.140625 7.71875 1.70312
L7.71875 11.625
Q12.1094 9.23438 16.7969 8.0625
Q21.4844 6.89062 26.7031 6.89062
Q35.1562 6.89062 40.0781 11.3281
Q45.0156 15.7656 45.0156 23.3906
Q45.0156 31 40.0781 35.4375
Q35.1562 39.8906 26.7031 39.8906
Q22.75 39.8906 18.8125 39.0156
Q14.8906 38.1406 10.7969 36.2812
z
" id="DejaVuSans-35"/>
      </defs>
      <g transform="translate(295.261561712 401.918125)scale(0.12 -0.12)">
       <use xlink:href="#DejaVuSans-4d"/>
       <use x="86.279296875" xlink:href="#DejaVuSans-61"/>
       <use x="147.55859375" xlink:href="#DejaVuSans-72"/>
       <use x="188.671875" xlink:href="#DejaVuSans-20"/>
       <use x="220.458984375" xlink:href="#DejaVuSans-32"/>
       <use x="284.08203125" xlink:href="#DejaVuSans-30"/>
       <use x="347.705078125" xlink:href="#DejaVuSans-31"/>
       <use x="411.328125" xlink:href="#DejaVuSans-35"/>
      </g>
     </g>
    </g>
    <g id="xtick_8">
     <g id="line2d_17">
      <g>
       <use style="stroke:#000000;stroke-width:0.5;" x="365.311728608" xlink:href="#m93b0483c22" y="388.8"/>
      </g>
     </g>
     <g id="line2d_18">
      <g>
       <use style="stroke:#000000;stroke-width:0.5;" x="365.311728608" xlink:href="#m741efc42ff" y="43.2"/>
      </g>
     </g>
     <g id="text_8">
      <!-- Jun 2015 -->
      <g transform="translate(338.973603608 401.918125)scale(0.12 -0.12)">
       <use xlink:href="#DejaVuSans-4a"/>
       <use x="29.4921875" xlink:href="#DejaVuSans-75"/>
       <use x="92.87109375" xlink:href="#DejaVuSans-6e"/>
       <use x="156.25" xlink:href="#DejaVuSans-20"/>
       <use x="188.037109375" xlink:href="#DejaVuSans-32"/>
       <use x="251.66015625" xlink:href="#DejaVuSans-30"/>
       <use x="315.283203125" xlink:href="#DejaVuSans-31"/>
       <use x="378.90625" xlink:href="#DejaVuSans-35"/>
      </g>
     </g>
    </g>
    <g id="xtick_9">
     <g id="line2d_19">
      <g>
       <use style="stroke:#000000;stroke-width:0.5;" x="407.388770504" xlink:href="#m93b0483c22" y="388.8"/>
      </g>
     </g>
     <g id="line2d_20">
      <g>
       <use style="stroke:#000000;stroke-width:0.5;" x="407.388770504" xlink:href="#m741efc42ff" y="43.2"/>
      </g>
     </g>
     <g id="text_9">
      <!-- Sep 2015 -->
      <g transform="translate(379.425958004 401.918125)scale(0.12 -0.12)">
       <use xlink:href="#DejaVuSans-53"/>
       <use x="63.4765625" xlink:href="#DejaVuSans-65"/>
       <use x="125.0" xlink:href="#DejaVuSans-70"/>
       <use x="188.4765625" xlink:href="#DejaVuSans-20"/>
       <use x="220.263671875" xlink:href="#DejaVuSans-32"/>
       <use x="283.88671875" xlink:href="#DejaVuSans-30"/>
       <use x="347.509765625" xlink:href="#DejaVuSans-31"/>
       <use x="411.1328125" xlink:href="#DejaVuSans-35"/>
      </g>
     </g>
    </g>
    <g id="xtick_10">
     <g id="line2d_21">
      <g>
       <use style="stroke:#000000;stroke-width:0.5;" x="449.00845325" xlink:href="#m93b0483c22" y="388.8"/>
      </g>
     </g>
     <g id="line2d_22">
      <g>
       <use style="stroke:#000000;stroke-width:0.5;" x="449.00845325" xlink:href="#m741efc42ff" y="43.2"/>
      </g>
     </g>
     <g id="text_10">
      <!-- Dec 2015 -->
      <g transform="translate(420.74470325 401.918125)scale(0.12 -0.12)">
       <use xlink:href="#DejaVuSans-44"/>
       <use x="77.001953125" xlink:href="#DejaVuSans-65"/>
       <use x="138.525390625" xlink:href="#DejaVuSans-63"/>
       <use x="193.505859375" xlink:href="#DejaVuSans-20"/>
       <use x="225.29296875" xlink:href="#DejaVuSans-32"/>
       <use x="288.916015625" xlink:href="#DejaVuSans-30"/>
       <use x="352.5390625" xlink:href="#DejaVuSans-31"/>
       <use x="416.162109375" xlink:href="#DejaVuSans-35"/>
      </g>
     </g>
    </g>
    <g id="xtick_11">
     <g id="line2d_23">
      <g>
       <use style="stroke:#000000;stroke-width:0.5;" x="490.628135995" xlink:href="#m93b0483c22" y="388.8"/>
      </g>
     </g>
     <g id="line2d_24">
      <g>
       <use style="stroke:#000000;stroke-width:0.5;" x="490.628135995" xlink:href="#m741efc42ff" y="43.2"/>
      </g>
     </g>
     <g id="text_11">
      <!-- Mar 2016 -->
      <defs>
       <path d="
M33.0156 40.375
Q26.375 40.375 22.4844 35.8281
Q18.6094 31.2969 18.6094 23.3906
Q18.6094 15.5312 22.4844 10.9531
Q26.375 6.39062 33.0156 6.39062
Q39.6562 6.39062 43.5312 10.9531
Q47.4062 15.5312 47.4062 23.3906
Q47.4062 31.2969 43.5312 35.8281
Q39.6562 40.375 33.0156 40.375
M52.5938 71.2969
L52.5938 62.3125
Q48.875 64.0625 45.0938 64.9844
Q41.3125 65.9219 37.5938 65.9219
Q27.8281 65.9219 22.6719 59.3281
Q17.5312 52.7344 16.7969 39.4062
Q19.6719 43.6562 24.0156 45.9219
Q28.375 48.1875 33.5938 48.1875
Q44.5781 48.1875 50.9531 41.5156
Q57.3281 34.8594 57.3281 23.3906
Q57.3281 12.1562 50.6875 5.35938
Q44.0469 -1.42188 33.0156 -1.42188
Q20.3594 -1.42188 13.6719 8.26562
Q6.98438 17.9688 6.98438 36.375
Q6.98438 53.6562 15.1875 63.9375
Q23.3906 74.2188 37.2031 74.2188
Q40.9219 74.2188 44.7031 73.4844
Q48.4844 72.75 52.5938 71.2969" id="DejaVuSans-36"/>
      </defs>
      <g transform="translate(462.508760995 401.918125)scale(0.12 -0.12)">
       <use xlink:href="#DejaVuSans-4d"/>
       <use x="86.279296875" xlink:href="#DejaVuSans-61"/>
       <use x="147.55859375" xlink:href="#DejaVuSans-72"/>
       <use x="188.671875" xlink:href="#DejaVuSans-20"/>
       <use x="220.458984375" xlink:href="#DejaVuSans-32"/>
       <use x="284.08203125" xlink:href="#DejaVuSans-30"/>
       <use x="347.705078125" xlink:href="#DejaVuSans-31"/>
       <use x="411.328125" xlink:href="#DejaVuSans-36"/>
      </g>
     </g>
    </g>
   </g>
   <g id="matplotlib.axis_2">
    <g id="ytick_1">
     <g id="line2d_25">
      <defs>
       <path d="
M0 0
L4 0" id="m728421d6d4" style="stroke:#000000;stroke-width:0.5;"/>
      </defs>
      <g>
       <use style="stroke:#000000;stroke-width:0.5;" x="72.0" xlink:href="#m728421d6d4" y="388.8"/>
      </g>
     </g>
     <g id="line2d_26">
      <defs>
       <path d="
M0 0
L-4 0" id="mcb0005524f" style="stroke:#000000;stroke-width:0.5;"/>
      </defs>
      <g>
       <use style="stroke:#000000;stroke-width:0.5;" x="518.4" xlink:href="#mcb0005524f" y="388.8"/>
      </g>
     </g>
     <g id="text_12">
      <!-- 0 -->
      <g transform="translate(61.953125 392.11125)scale(0.12 -0.12)">
       <use xlink:href="#DejaVuSans-30"/>
      </g>
     </g>
    </g>
    <g id="ytick_2">
     <g id="line2d_27">
      <g>
       <use style="stroke:#000000;stroke-width:0.5;" x="72.0" xlink:href="#m728421d6d4" y="331.2"/>
      </g>
     </g>
     <g id="line2d_28">
      <g>
       <use style="stroke:#000000;stroke-width:0.5;" x="518.4" xlink:href="#mcb0005524f" y="331.2"/>
      </g>
     </g>
     <g id="text_13">
      <!-- 500 -->
      <g transform="translate(46.818125 334.51125)scale(0.12 -0.12)">
       <use xlink:href="#DejaVuSans-35"/>
       <use x="63.623046875" xlink:href="#DejaVuSans-30"/>
       <use x="127.24609375" xlink:href="#DejaVuSans-30"/>
      </g>
     </g>
    </g>
    <g id="ytick_3">
     <g id="line2d_29">
      <g>
       <use style="stroke:#000000;stroke-width:0.5;" x="72.0" xlink:href="#m728421d6d4" y="273.6"/>
      </g>
     </g>
     <g id="line2d_30">
      <g>
       <use style="stroke:#000000;stroke-width:0.5;" x="518.4" xlink:href="#mcb0005524f" y="273.6"/>
      </g>
     </g>
     <g id="text_14">
      <!-- 1000 -->
      <g transform="translate(39.575 276.91125)scale(0.12 -0.12)">
       <use xlink:href="#DejaVuSans-31"/>
       <use x="63.623046875" xlink:href="#DejaVuSans-30"/>
       <use x="127.24609375" xlink:href="#DejaVuSans-30"/>
       <use x="190.869140625" xlink:href="#DejaVuSans-30"/>
      </g>
     </g>
    </g>
    <g id="ytick_4">
     <g id="line2d_31">
      <g>
       <use style="stroke:#000000;stroke-width:0.5;" x="72.0" xlink:href="#m728421d6d4" y="216.0"/>
      </g>
     </g>
     <g id="line2d_32">
      <g>
       <use style="stroke:#000000;stroke-width:0.5;" x="518.4" xlink:href="#mcb0005524f" y="216.0"/>
      </g>
     </g>
     <g id="text_15">
      <!-- 1500 -->
      <g transform="translate(39.575 219.31125)scale(0.12 -0.12)">
       <use xlink:href="#DejaVuSans-31"/>
       <use x="63.623046875" xlink:href="#DejaVuSans-35"/>
       <use x="127.24609375" xlink:href="#DejaVuSans-30"/>
       <use x="190.869140625" xlink:href="#DejaVuSans-30"/>
      </g>
     </g>
    </g>
    <g id="ytick_5">
     <g id="line2d_33">
      <g>
       <use style="stroke:#000000;stroke-width:0.5;" x="72.0" xlink:href="#m728421d6d4" y="158.4"/>
      </g>
     </g>
     <g id="line2d_34">
      <g>
       <use style="stroke:#000000;stroke-width:0.5;" x="518.4" xlink:href="#mcb0005524f" y="158.4"/>
      </g>
     </g>
     <g id="text_16">
      <!-- 2000 -->
      <g transform="translate(39.13625 161.71125)scale(0.12 -0.12)">
       <use xlink:href="#DejaVuSans-32"/>
       <use x="63.623046875" xlink:href="#DejaVuSans-30"/>
       <use x="127.24609375" xlink:href="#DejaVuSans-30"/>
       <use x="190.869140625" xlink:href="#DejaVuSans-30"/>
      </g>
     </g>
    </g>
    <g id="ytick_6">
     <g id="line2d_35">
      <g>
       <use style="stroke:#000000;stroke-width:0.5;" x="72.0" xlink:href="#m728421d6d4" y="100.8"/>
      </g>
     </g>
     <g id="line2d_36">
      <g>
       <use style="stroke:#000000;stroke-width:0.5;" x="518.4" xlink:href="#mcb0005524f" y="100.8"/>
      </g>
     </g>
     <g id="text_17">
      <!-- 2500 -->
      <g transform="translate(39.13625 104.11125)scale(0.12 -0.12)">
       <use xlink:href="#DejaVuSans-32"/>
       <use x="63.623046875" xlink:href="#DejaVuSans-35"/>
       <use x="127.24609375" xlink:href="#DejaVuSans-30"/>
       <use x="190.869140625" xlink:href="#DejaVuSans-30"/>
      </g>
     </g>
    </g>
    <g id="ytick_7">
     <g id="line2d_37">
      <g>
       <use style="stroke:#000000;stroke-width:0.5;" x="72.0" xlink:href="#m728421d6d4" y="43.2"/>
      </g>
     </g>
     <g id="line2d_38">
      <g>
       <use style="stroke:#000000;stroke-width:0.5;" x="518.4" xlink:href="#mcb0005524f" y="43.2"/>
      </g>
     </g>
     <g id="text_18">
      <!-- 3000 -->
      <g transform="translate(39.171875 46.51125)scale(0.12 -0.12)">
       <use xlink:href="#DejaVuSans-33"/>
       <use x="63.623046875" xlink:href="#DejaVuSans-30"/>
       <use x="127.24609375" xlink:href="#DejaVuSans-30"/>
       <use x="190.869140625" xlink:href="#DejaVuSans-30"/>
      </g>
     </g>
    </g>
   </g>
   <g id="patch_3">
    <path d="
M72 43.2
L518.4 43.2" style="fill:none;stroke:#000000;"/>
   </g>
   <g id="patch_4">
    <path d="
M518.4 388.8
L518.4 43.2" style="fill:none;stroke:#000000;"/>
   </g>
   <g id="patch_5">
    <path d="
M72 388.8
L518.4 388.8" style="fill:none;stroke:#000000;"/>
   </g>
   <g id="patch_6">
    <path d="
M72 388.8
L72 43.2" style="fill:none;stroke:#000000;"/>
   </g>
  </g>
 </g>
 <defs>
  <clipPath id="p7ff5b81e1d">
   <rect height="345.6" width="446.4" x="72.0" y="43.2"/>
  </clipPath>
 </defs>
</svg>
