<?xml version="1.0" encoding="utf-8" standalone="no"?>
<!DOCTYPE svg PUBLIC "-//W3C//DTD SVG 1.1//EN"
  "http://www.w3.org/Graphics/SVG/1.1/DTD/svg11.dtd">
<!-- Created with matplotlib (http://matplotlib.org/) -->
<svg height="432pt" version="1.1" viewBox="0 0 576 432" width="576pt" xmlns="http://www.w3.org/2000/svg" xmlns:xlink="http://www.w3.org/1999/xlink">
 <defs>
  <style type="text/css">
*{stroke-linecap:butt;stroke-linejoin:round;}
  </style>
 </defs>
 <g id="figure_1">
  <g id="patch_1">
   <path d="
M0 432
L576 432
L576 0
L0 0
z
" style="fill:#ffffff;"/>
  </g>
  <g id="axes_1">
   <g id="patch_2">
    <path d="
M72 388.8
L518.4 388.8
L518.4 43.2
L72 43.2
z
" style="fill:#ffffff;"/>
   </g>
   <g id="line2d_1">
    <path clip-path="url(#p7ff5b81e1d)" d="
M72 221.601
L72.0019 92.2749
L72.3792 329.07
L72.4532 319.756
L72.5354 306.924
L72.8479 315.464
L73.0029 312.521
L73.1401 305.248
L73.201 289.947
L73.4113 280.27
L73.6974 276.111
L74.3255 292.928
L75.3408 308.835
L76.1372 310.523
L76.1642 306.167
L77.0937 308.527
L78.2811 309.714
L81.5724 324.432
L85.1675 331.534
L86.239 331.253
L89.3759 335.427
L90.0529 332
L90.858 332.354
L90.858 330.27
L91.0568 328.435
L91.0596 326.727
L91.7462 327.103
L93.4106 328.268
L94.549 328.285
L99.6399 336.226
L107.215 342.095
L107.355 340.978
L108.109 340.976
L108.719 340.118
L109.191 339.845
L109.204 338.724
L111.025 338.301
L111.953 338.272
L112.831 337.815
L114.91 338.574
L116.537 338.986
L117.133 338.249
L118.801 339.051
L120.649 340.135
L122.63 340.832
L123.365 340.683
L125.971 341.563
L126.116 340.792
L127.81 341.549
L127.83 340.78
L129.153 343.74
L130.199 344.061
L130.236 343.417
L130.563 343.023
L130.651 342.465
L130.947 342.29
L130.957 341.59
L131.426 341.62
L131.506 339.682
L131.985 340.051
L132.378 339.86
L132.462 339.364
L132.766 338.971
L132.785 338.302
L133.269 338.407
L133.734 337.762
L133.773 337.243
L133.939 336.787
L134.901 337.614
L137.394 338.73
L137.398 338.143
L138.639 338.833
L138.905 338.7
L138.911 338.117
L139.357 338.29
L141.141 339.126
L141.197 338.635
L142.137 338.99
L142.376 338.637
L143.48 339.072
L144.364 338.191
L144.383 337.718
L145.24 338.132
L146.122 338.239
L146.126 337.737
L146.256 337.43
L147.785 337.691
L148.865 338.162
L149.38 338.146
L149.88 337.708
L150.242 337.435
L150.347 337.065
L151.109 337.228
L151.69 336.805
L152.143 336.671
L152.152 336.218
L152.952 336.224
L153.063 335.467
L153.529 334.977
L153.595 334.645
L154.573 334.896
L154.739 334.556
L154.816 333.361
L158.917 336.07
L159.035 335.777
L159.904 334.98
L161.198 335.271
L161.216 334.919
L162.523 335.428
L163.504 335.47
L163.513 335.085
L164.004 335.042
L164.093 334.688
L164.49 334.474
L164.709 334.164
L165.757 334.205
L165.823 333.893
L168.82 334.816
L168.957 334.516
L170.411 334.921
L172.245 335.589
L172.283 335.265
L173.494 335.604
L175.255 335.804
L175.699 335.005
L175.855 334.784
L176.231 334.639
L177.937 335.122
L177.937 334.784
L178.251 334.783
L178.642 334.668
L178.871 334.416
L179.356 334.352
L179.414 334.08
L180.914 334.77
L181.219 334.647
L181.748 334.717
L181.748 334.392
L182.053 334.22
L183.462 334.766
L185.439 335.78
L185.782 335.631
L185.901 335.448
L186.702 335.533
L187.535 335.388
L187.686 335.2
L187.712 334.917
L188.955 335.258
L189.131 334.804
L189.68 334.721
L189.917 334.518
L191.017 334.724
L192.427 335.228
L195.4 335.903
L195.971 336.015
L197.577 336.659
L198.05 336.569
L198.072 336.345
L199.149 336.635
L199.191 336.405
L199.445 336.263
L201.878 337.341
L201.916 337.109
L202.254 337.032
L203.318 337.236
L203.693 336.953
L203.75 336.725
L204.913 337.033
L204.922 336.585
L205.169 336.435
L205.579 336.39
L205.884 336.237
L206.613 336.358
L209.657 337.29
L209.752 336.868
L210.724 337.119
L210.862 336.883
L212.999 337.569
L213.216 337.403
L213.62 337.321
L213.884 337.02
L214.306 336.945
L214.697 336.607
L216.04 337.113
L216.111 336.912
L217.307 337.163
L217.307 336.745
L218.507 336.962
L218.512 336.737
L219.162 336.537
L219.162 336.313
L219.321 336.202
L219.736 336.097
L220.691 336.266
L220.778 335.673
L223.509 336.734
L224.886 337.101
L225.3 337.049
L226.186 337.004
L226.277 336.618
L227.069 336.758
L227.158 336.627
L229.359 337.301
L229.487 337.129
L230.097 337.07
L231.583 337.44
L232.198 337.303
L232.374 337.13
L233.549 337.407
L233.589 337.227
L233.779 337.074
L235.351 337.534
L235.846 337.521
L235.88 337.398
L236.784 337.457
L236.784 337.265
L238.061 337.305
L238.138 336.997
L239.113 337.018
L242.029 337.868
L242.101 337.707
L242.293 337.596
L243.563 337.475
L243.638 337.342
L247.307 337.321
L247.76 337.29
L247.76 336.931
L248.601 337.047
L248.813 336.901
L248.827 336.731
L249.132 336.657
L250.065 336.846
L250.346 336.739
L252.547 337.264
L253.637 336.969
L258.254 337.994
L258.287 337.844
L259.61 337.947
L259.672 337.818
L260.544 337.699
L261.169 337.46
L262.736 337.622
L262.776 337.466
L263.308 337.497
L263.322 337.379
L264.24 337.396
L265.299 337.405
L265.383 337.277
L266.299 337.252
L266.337 337.109
L266.543 337.052
L267.395 337.037
L267.609 336.911
L267.609 336.597
L270.554 337.128
L270.563 336.705
L270.791 336.59
L271.23 336.571
L271.444 336.369
L272.95 336.496
L273.788 336.342
L273.849 336.209
L274.578 336.073
L274.604 335.947
L275.081 335.801
L276.274 336.145
L276.572 336.112
L278.637 336.516
L278.784 336.393
L279.909 336.563
L281.648 336.688
L281.648 336.547
L282.324 336.425
L282.757 336.412
L283.691 336.582
L283.805 336.488
L285.144 336.608
L286.112 336.716
L286.25 336.47
L287.392 336.704
L287.416 336.575
L288.45 336.734
L288.473 336.47
L290.641 336.696
L291.198 336.571
L291.384 336.461
L293.97 336.573
L294.457 336.571
L302.845 337.93
L302.95 337.824
L305.75 338.41
L306.26 338.273
L308.27 338.46
L308.27 338.334
L309.471 338.466
L309.471 338.341
L310.352 338.176
L313.301 338.826
L313.448 338.743
L313.886 338.74
L313.934 338.517
L314.918 338.373
L319.544 339.179
L319.567 339.068
L326.796 340.397
L327.034 340.348
L329.583 340.699
L329.979 340.574
L334.455 341.506
L334.455 341.397
L335.55 341.634
L335.55 341.527
L336.227 341.501
L338.38 341.988
L338.38 341.883
L341.4 342.527
L341.4 342.423
L342.148 342.415
L344.949 342.81
L345.14 342.678
L345.335 342.519
L347.431 342.728
L347.431 342.628
L348.284 342.519
L351.713 343.078
L351.889 343.027
L353.714 343.206
L353.866 343.07
L353.871 342.876
L354.262 342.752
L357.296 342.806
L359.335 343.068
L360.087 343.033
L364.808 343.751
L366.642 343.68
L366.723 343.524
L368.195 343.68
L368.847 343.58
L368.905 343.516
L370.605 343.683
L370.734 343.634
L371.586 343.637
L374.402 343.918
L375.135 343.895
L375.25 343.835
L376.15 343.965
L376.15 343.878
L376.598 343.81
L376.941 343.702
L376.993 343.547
L377.608 343.544
L380.256 343.87
L381.528 343.973
L381.661 343.929
L383.929 344.302
L387.139 344.465
L389.759 344.647
L389.964 344.606
L392.108 344.499
L393.084 344.44
L395.642 344.637
L395.761 344.568
L398.481 344.424
L401.549 344.571
L402.133 344.552
L404.782 344.558
L406.23 344.422
L410.447 344.665
L416.448 344.997
L424.934 345.861
L425.004 345.797
L428.548 346.058
L430.212 345.919
L433.636 346.23
L435.122 346.121
L435.122 345.977
L437.542 345.977
L438.145 345.916
L438.666 345.78
L440.495 345.939
L440.584 345.812
L443.417 346.005
L443.448 345.94
L446.211 346.129
L449.584 346.535
L449.596 346.468
L452.544 346.71
L452.772 346.667
L455.814 347.038
L456.716 346.918
L458.418 346.925
L458.418 346.86
L458.723 346.826
L462.945 347.169
L468.314 347.367
L474.004 347.964
L476.1 347.991
L479.035 348.295
L481.861 348.606
L481.861 348.546
L482.966 348.447
L485.792 348.58
L490.13 349.056
L495.758 349.322
L495.758 349.264
L495.815 349.216
L507.444 349.714
L511.966 350.059
L511.966 350.003
L516.374 350.066
L516.374 350.066" style="fill:none;stroke:#ff0000;stroke-linecap:square;"/>
   </g>
   <g id="line2d_2">
    <path clip-path="url(#p7ff5b81e1d)" d="
M72.0587 335.737
L72.0775 246.613
L72.1556 248.455
L72.2083 237.647
L72.3893 224.902
L72.4967 245.358
L72.5354 238.533
L72.7253 241.908
L72.7444 212.401
L72.7625 212.67
L72.9686 211.736
L73.201 218.505
L73.4024 219.488
L73.4128 206.403
L74.7037 258.027
L76.4418 281.325
L76.6492 279.24
L80.1249 299.795
L80.1268 296.457
L80.8051 297.705
L80.8213 294.992
L81.5111 295.914
L81.5927 291.31
L81.6772 287.186
L82.976 290.559
L83.8871 291.23
L84.0354 289.104
L84.4111 287.375
L84.4984 282.321
L85.2374 282.815
L85.5362 281.699
L86.8503 283.626
L87.1771 282.842
L87.6563 282.98
L87.7138 278.85
L88.971 280.762
L89.3775 280.066
L90.8227 283.265
L91.9841 287.669
L92.8809 289.098
L93.5779 289.235
L93.7796 288.021
L94.8193 288.163
L96.671 291.942
L96.9936 291.267
L97.0594 290.78
L97.7047 291.899
L97.7059 290.905
L98.1166 290.501
L98.1178 289.021
L98.424 286.956
L98.9343 287.152
L100.267 287.259
L100.346 286.028
L100.495 285.471
L101.418 285.082
L101.816 284.727
L101.816 283.268
L103.238 283.917
L104.589 285.221
L105.142 284.469
L106.727 286.165
L107.543 287.532
L107.543 286.227
L107.823 286.084
L107.862 284.93
L108.605 284.912
L108.738 284.01
L108.739 282.988
L109.083 282.663
L109.644 283.096
L110.897 284.518
L111.89 285.881
L111.951 285.146
L112.36 284.83
L112.36 283.686
L113.294 284.275
L113.295 283.197
L113.768 283.056
L114.679 283.264
L114.686 282.675
L116.057 283.628
L116.159 282.735
L116.539 282.918
L116.751 281.985
L118.801 284.151
L119.121 283.56
L119.121 282.604
L119.862 283.479
L120.399 283.734
L120.522 282.031
L120.651 281.648
L120.654 281.134
L120.855 280.186
L120.855 279.244
L121.099 279.25
L121.573 278.658
L121.574 276.76
L122.025 276.221
L122.717 277.008
L123.338 277.146
L123.365 276.52
L124.286 277.359
L124.29 276.963
L124.561 276.428
L124.608 274.135
L125.034 274.979
L125.224 274.734
L125.434 274.06
L125.454 273.181
L126.116 271.426
L126.116 270.591
L126.819 270.278
L126.915 268.805
L127.841 271.435
L128.237 273.615
L128.347 270.646
L128.702 271.898
L128.747 271.765
L128.812 270.952
L130.459 275.264
L130.664 273.054
L130.922 273.054
L131.121 271.18
L131.439 271.262
L131.555 271.163
L131.891 271.966
L131.985 271.916
L131.986 271.253
L132.441 272.199
L132.765 272.265
L132.872 272.139
L132.872 271.449
L132.99 271.394
L133.36 272.012
L133.477 270.992
L133.588 269.962
L133.767 270.027
L134.317 271.318
L134.63 270.502
L134.714 268.42
L134.814 268.283
L134.844 267.746
L135.06 267.705
L135.111 267.47
L135.176 266.602
L135.242 266.216
L135.516 266.195
L135.779 266.387
L136 266.345
L136.068 265.228
L136.441 265.104
L136.509 264.108
L136.933 264.4
L137.398 263.701
L137.398 263.092
L138.498 265.365
L138.636 265.023
L138.914 265.818
L138.996 264.274
L139.174 264.338
L139.638 265.121
L140.222 265.293
L140.311 264.347
L140.861 263.976
L141.544 264.507
L141.66 264.534
L141.988 264.456
L142.496 265.362
L142.574 264.643
L143.495 267.135
L143.639 266.995
L144.896 268.68
L145.117 267.175
L145.73 267.4
L146.098 267.262
L146.522 267.744
L146.702 266.658
L147.441 266.701
L147.49 265.775
L147.607 265.746
L147.779 265.294
L147.984 265.671
L148.023 265.291
L148.12 265.427
L148.403 264.908
L148.541 265.099
L148.546 264.631
L148.942 265.106
L149.189 265.194
L149.499 264.644
L149.723 264.472
L149.851 263.951
L150.618 264.493
L150.685 263.75
L150.69 263.311
L151.534 264.348
L152.114 264.931
L152.401 264.814
L153.161 265.692
L153.448 265.806
L154.816 267.174
L154.877 266.96
L155.137 266.746
L155.301 265.414
L155.315 265.098
L155.582 264.938
L156.204 265.642
L156.472 265.393
L156.888 265.513
L157.019 265.307
L157.039 265.008
L157.507 265.665
L157.611 264.999
L158.375 266.053
L158.626 266.16
L159.154 266.616
L159.901 266.956
L160.246 266.725
L160.722 266.81
L160.898 266.328
L161.656 266.982
L161.989 266.713
L162.217 266.902
L162.251 266.138
L162.632 266.154
L162.646 265.387
L162.965 265.252
L162.965 264.855
L163.486 264.741
L163.627 264.171
L163.894 263.901
L164 263.32
L164.428 263.308
L164.962 263.891
L165.223 263.705
L165.71 263.909
L165.79 263.7
L166.042 263.579
L166.595 263.966
L167.152 264.507
L167.292 264.323
L167.724 264.63
L168.628 264.855
L168.82 264.606
L169.244 264.731
L169.453 264.569
L169.839 264.536
L169.868 264.239
L170.387 264.679
L170.654 264.22
L170.763 264.045
L170.792 263.366
L172.202 264.41
L173.494 265.88
L173.554 265.647
L174.04 265.893
L174.941 266.625
L175.017 266.401
L175.374 266.438
L177.075 268.4
L177.118 268.174
L177.346 268.331
L177.489 268.144
L178.061 268.772
L178.151 268.32
L178.423 268.294
L178.427 267.966
L178.655 268.044
L178.655 267.708
L178.866 267.527
L178.966 267.039
L179.037 266.886
L179.523 266.865
L179.823 266.927
L179.909 266.797
L180.028 266.331
L180.238 266.224
L180.719 266.529
L180.847 266.127
L181.354 266.356
L181.474 266.24
L181.899 266.553
L181.905 266.244
L183.191 267.356
L183.272 267.166
L184.349 268.38
L184.53 267.75
L185.054 268.198
L185.33 268.226
L186.283 269.117
L186.706 269.349
L187.654 270.296
L187.77 270.201
L188.245 270.429
L188.293 270.204
L188.502 270.006
L188.723 270.096
L189.131 269.703
L190.336 270.81
L190.412 270.7
L190.485 270.233
L191.04 270.684
L191.408 270.783
L191.675 270.719
L191.751 269.976
L191.939 270.031
L191.986 269.519
L192.413 269.76
L192.685 269.768
L192.813 269.455
L193.223 269.525
L193.246 269.285
L194.247 270.083
L194.271 269.85
L194.452 269.703
L195.057 270.199
L195.357 270.227
L195.507 269.738
L195.792 269.554
L195.933 269.492
L196.358 269.831
L196.708 269.747
L196.91 269.47
L196.919 269.208
L197.103 269.118
L197.103 268.382
L197.219 268.289
L197.912 268.402
L199.015 269.429
L199.168 269.375
L199.182 268.87
L199.582 268.838
L199.904 268.364
L199.925 268.129
L200.168 268.285
L200.501 267.466
L200.797 267.588
L200.798 267.399
L201.926 268.38
L202.326 268.418
L203.271 268.745
L203.607 268.506
L203.688 268.072
L203.789 267.918
L204.268 268.287
L204.453 268.195
L204.979 268.422
L205.012 268.188
L205.151 268.039
L206.122 268.482
L206.861 269.136
L207.361 269.396
L207.475 269.265
L207.755 269.173
L207.755 268.78
L207.909 268.687
L207.952 268.503
L208.607 268.823
L208.885 268.656
L209.485 269.09
L209.6 268.774
L209.809 268.935
L209.819 268.703
L210.076 268.793
L210.151 268.385
L210.862 268.547
L210.986 267.99
L211.435 268.118
L211.436 267.967
L211.553 267.878
L212.086 268.221
L212.319 268.199
L213.217 268.549
L213.601 268.578
L213.692 268.002
L214.134 268.189
L214.134 267.782
L214.282 267.702
L214.32 267.279
L214.801 267.25
L214.84 267.053
L215.122 266.963
L215.478 267.145
L215.605 266.857
L215.735 266.996
L215.938 266.881
L215.964 266.136
L216.207 266.206
L217.421 266.84
L217.569 266.668
L217.813 266.408
L217.831 266.274
L218.222 266.361
L218.855 266.553
L218.901 266.156
L219.76 266.785
L220.277 266.748
L220.47 266.649
L220.691 266.668
L220.691 266.517
L220.927 266.441
L220.956 266.272
L221.114 266.18
L221.218 266.265
L222.009 266.252
L223.299 267.113
L223.504 267.158
L223.551 266.995
L223.844 266.845
L224.247 267.001
L224.824 267.356
L225.038 266.86
L225.343 267.032
L225.343 266.822
L226.405 267.541
L226.422 267.377
L227.374 267.922
L227.539 267.832
L227.596 267.521
L227.968 267.219
L228.339 267.235
L228.377 267.077
L228.696 266.913
L228.801 266.807
L229.259 267.168
L229.468 267.132
L230.211 267.344
L230.229 267.279
L230.335 267.195
L230.354 267.007
L231.731 267.25
L232.598 267.741
L232.655 267.606
L233.036 267.421
L233.131 267.039
L233.393 266.965
L233.574 267.053
L233.623 266.703
L233.965 266.704
L234.041 266.517
L234.189 266.368
L234.934 266.299
L235.375 266.384
L235.389 266.105
L235.689 266.084
L235.689 265.89
L235.816 265.761
L236.008 265.812
L236.108 265.484
L236.651 265.54
L236.937 265.551
L236.975 265.391
L237.197 265.35
L237.623 265.447
L238.192 265.908
L238.481 265.982
L238.552 265.697
L239.229 266.09
L239.286 265.771
L239.524 265.819
L240.61 266.369
L240.862 266.195
L240.876 265.869
L241.053 265.867
L241.591 264.874
L241.629 264.732
L241.801 264.702
L241.825 264.485
L242.001 264.344
L242.468 264.603
L242.596 264.518
L243.478 264.855
L243.638 264.513
L244.061 264.293
L244.492 264.281
L244.526 263.961
L244.985 264.036
L244.985 263.862
L246.852 265.041
L246.852 264.732
L247.584 265.125
L247.588 264.949
L247.898 265.028
L247.931 264.885
L248.944 265.437
L249.508 265.597
L249.608 265.185
L249.77 265.072
L250.423 265.375
L250.751 264.727
L250.966 264.823
L251.604 264.683
L251.852 264.777
L252.014 264.672
L252.014 264.323
L252.165 264.255
L252.165 264.081
L252.966 264.356
L253.481 263.926
L254.153 264.332
L254.834 264.371
L255.067 264.153
L255.348 264.196
L255.534 264.362
L255.558 264.302
L255.696 264.153
L256.429 264.461
L256.434 264.319
L257.535 264.876
L257.539 264.713
L257.768 264.811
L259.051 265.587
L259.078 265.448
L259.111 265.315
L260.095 265.662
L260.121 265.528
L261.993 266.383
L262.098 266.08
L262.265 266.048
L262.689 266.059
L262.864 265.858
L262.88 265.779
L263.522 266.097
L263.66 265.864
L263.788 265.862
L265.513 266.889
L265.594 266.507
L266.037 266.498
L266.061 266.222
L267.353 266.975
L267.381 266.875
L267.39 266.802
L267.87 266.775
L267.9 266.711
L268.338 266.745
L268.338 266.593
L268.828 266.319
L269.71 266.661
L269.986 266.645
L269.991 266.496
L270.153 266.509
L270.163 266.36
L270.548 266.204
L270.567 266.012
L271.411 266.235
L271.463 266.074
L271.865 266.118
L271.865 266.004
L272.005 265.954
L272.949 266.251
L273.059 266.175
L273.073 266.028
L273.379 266.01
L273.707 266.066
L273.716 265.939
L273.826 265.976
L274.169 265.976
L274.311 265.731
L274.604 265.672
L274.604 265.559
L274.997 265.245
L275.007 265.106
L275.24 265.239
L275.336 265.116
L275.488 265.113
L275.602 264.868
L275.898 264.869
L276.722 265.357
L277.427 265.289
L278.122 265.648
L278.151 265.515
L278.299 265.432
L278.824 265.634
L278.824 265.542
L279.042 265.265
L279.251 265.285
L279.304 265.176
L279.757 265.575
L280.499 265.65
L280.499 265.509
L280.652 265.603
L280.688 265.516
L280.728 265.416
L281.648 265.842
L281.648 265.718
L281.795 265.644
L281.8 265.506
L281.99 265.447
L283.257 265.628
L284.629 266.323
L284.763 266.322
L285.199 266.512
L285.449 266.469
L286.363 266.891
L286.387 266.771
L287.506 267.134
L288.14 267.033
L289.321 267.377
L290.974 267.453
L291.036 267.37
L291.349 267.424
L291.465 267.235
L291.674 267.296
L292.525 267.236
L294.123 267.783
L294.332 267.699
L295.704 268.144
L295.787 268.067
L296.057 268.058
L296.157 267.747
L297.586 268.05
L298.658 268.382
L298.734 268.309
L299.744 268.533
L299.758 268.409
L300.285 268.475
L300.759 268.509
L301.64 268.789
L301.644 268.662
L302.178 268.631
L302.835 268.797
L303.816 269.179
L303.969 269.043
L304.002 268.966
L304.383 268.897
L304.741 268.804
L304.841 268.764
L305.812 268.778
L305.827 268.655
L306.277 268.807
L306.298 268.695
L306.67 268.531
L306.903 268.467
L308.408 269.057
L309.29 269.184
L309.29 269.06
L310.628 269.55
L310.638 269.431
L310.828 269.469
L310.876 269.246
L311.057 269.182
L311.314 269.217
L311.328 269.098
L312.053 269.282
L312.076 269.192
L312.61 269.253
L312.977 269.411
L312.981 269.291
L313.12 269.359
L313.391 269.355
L314.344 269.697
L314.758 269.623
L315.639 270.128
L315.673 270.038
L317.597 270.747
L317.626 270.664
L318.055 270.714
L318.074 270.502
L318.455 270.456
L318.576 270.329
L318.658 269.806
L318.821 269.748
L319.093 269.922
L319.917 270.12
L319.979 269.864
L320.184 269.73
L320.398 269.417
L321.094 269.427
L321.233 269.438
L322.256 269.976
L322.513 269.996
L322.623 269.871
L323.166 269.737
L323.609 270.062
L324.147 270.186
L324.152 270.076
L324.324 269.901
L324.465 269.744
L324.752 269.459
L325.033 269.655
L325.276 269.687
L325.281 269.574
L327.288 270.451
L327.343 270.383
L327.548 270.407
L327.548 270.295
L328.51 270.638
L328.601 270.475
L329.368 270.783
L329.43 270.589
L329.844 270.368
L330.073 270.454
L330.081 270.361
L330.297 270.329
L330.702 270.317
L331.329 270.625
L331.335 270.535
L331.818 270.707
L333.24 271.577
L333.879 271.798
L333.884 271.689
L333.903 271.492
L334.213 271.792
L334.355 271.729
L334.903 271.976
L334.912 271.88
L334.955 271.826
L336.665 272.662
L336.689 272.578
L336.899 272.442
L337.58 272.694
L337.585 272.49
L337.923 272.364
L338.018 272.312
L338.391 272.547
L338.661 272.524
L340.062 272.882
L340.352 272.835
L340.543 272.973
L341.007 273.021
L341.276 273.057
L341.372 273.049
L342.348 273.47
L342.392 273.308
L344.039 273.703
L344.039 273.609
L344.111 273.616
L345.71 274.166
L345.935 273.816
L345.935 273.717
L347.374 274.17
L347.817 274.248
L349.269 274.652
L349.284 274.569
L349.578 274.695
L349.611 274.614
L350.346 274.607
L350.384 274.536
L351.385 274.853
L351.456 274.694
L353.847 275.567
L353.847 275.47
L354.948 275.801
L355.507 276.234
L356.829 276.498
L357.067 276.373
L357.482 276.521
L357.872 276.445
L358.568 276.485
L359.254 276.718
L359.335 276.66
L359.587 276.667
L362.779 277.741
L362.986 277.635
L364.384 278.156
L364.394 278.068
L366.499 278.719
L366.551 278.586
L367.523 278.956
L367.719 278.918
L367.966 279.021
L367.976 278.933
L369.557 278.843
L370.148 279.065
L370.543 278.901
L371.105 279.127
L371.22 279.037
L371.586 278.844
L371.848 278.666
L372.101 278.578
L372.106 278.496
L372.563 278.492
L373.516 278.672
L374.244 278.839
L376.46 279.998
L376.469 279.915
L376.517 279.887
L377.069 279.909
L377.145 279.694
L377.331 279.655
L379.784 280.407
L379.894 280.053
L381.48 280.397
L382.909 280.841
L382.909 280.758
L383.276 280.707
L383.81 280.931
L383.81 280.847
L383.964 280.785
L384.281 280.769
L384.443 280.543
L385.863 280.778
L386.996 280.78
L387.053 280.707
L387.916 280.636
L388.9 280.546
L389.43 280.593
L389.45 280.524
L389.659 280.489
L391.65 280.816
L391.698 280.754
L393.113 280.702
L394.056 280.522
L394.485 280.513
L394.518 280.361
L394.727 280.315
L395.328 280.385
L395.437 280.127
L396.328 280.167
L397.219 280.022
L397.228 279.945
L398.557 279.96
L398.614 279.922
L398.981 279.938
L400.912 280.354
L400.912 280.276
L401.796 280.393
L401.809 280.324
L402.641 280.305
L405.245 280.525
L405.925 280.304
L406.687 280.219
L406.693 280.141
L410.059 280.387
L410.307 280.254
L410.307 280.178
L412.657 280.376
L414.639 280.523
L414.658 280.377
L416.316 280.508
L418.602 281.007
L418.602 280.931
L419.072 280.785
L419.688 280.853
L420.533 280.86
L420.571 280.799
L421.528 280.823
L422.394 280.902
L423.524 280.857
L424.998 281.179
L425.061 281.116
L425.976 281.191
L426.97 281.417
L429.615 281.647
L429.621 281.578
L431.889 281.668
L435.096 282.639
L435.674 282.71
L435.706 282.656
L438.321 283.111
L440.158 283.622
L440.19 283.422
L441.047 283.393
L441.067 283.331
L441.397 283.359
L442.038 283.508
L442.089 283.39
L443.251 283.303
L443.74 283.341
L443.74 283.272
L445.246 283.504
L448.942 284.556
L448.961 284.421
L449.126 284.361
L449.85 284.54
L450.606 284.435
L451.946 284.81
L451.946 284.743
L456.653 286.067
L457.415 286.144
L458.488 286.271
L460.159 286.52
L460.857 286.613
L461.657 286.661
L461.683 286.611
L462.936 286.936
L469.749 287.587
L469.749 287.46
L470.822 287.811
L470.835 287.753
L470.892 287.716
L472.963 288.293
L472.963 288.231
L473.661 288.305
L473.877 288.272
L474.775 288.404
L474.791 288.361
L475.007 288.452
L477.078 289.08
L478.558 289.317
L478.622 289.291
L483.144 290.07
L483.144 290.009
L483.144 289.891
L484.878 290.204
L484.897 290.149
L485.831 290.384
L487.603 291.022
L487.603 290.966
L490.765 291.556
L490.765 291.497
L492.239 291.84
L493.465 291.955
L495.916 292.321
L495.974 292.286
L499.187 292.962
L499.435 292.947
L501.029 293.301
L504.046 293.734
L504.954 293.889
L506.79 294.145
L506.834 294.109
L508.644 294.317
L509.305 294.41
L509.311 294.357
L510.524 294.503
L510.543 294.452
L511.471 294.546
L511.579 294.479
L512.792 294.654
L513.605 294.666
L514.678 294.833
L515.421 294.865
L516.901 295.041
L518.4 295.15
L518.4 295.15" style="fill:none;stroke:#008000;stroke-linecap:square;"/>
   </g>
   <g id="matplotlib.axis_1">
    <g id="xtick_1">
     <g id="line2d_3">
      <defs>
       <path d="
M0 0
L0 -4" id="m93b0483c22" style="stroke:#000000;stroke-width:0.5;"/>
      </defs>
      <g>
       <use style="stroke:#000000;stroke-width:0.5;" x="73.5166909488" xlink:href="#m93b0483c22" y="388.8"/>
      </g>
     </g>
     <g id="line2d_4">
      <defs>
       <path d="
M0 0
L0 4" id="m741efc42ff" style="stroke:#000000;stroke-width:0.5;"/>
      </defs>
      <g>
       <use style="stroke:#000000;stroke-width:0.5;" x="73.5166909488" xlink:href="#m741efc42ff" y="43.2"/>
      </g>
     </g>
     <g id="text_1">
      <!-- Sep 2013 -->
      <defs>
       <path d="
M40.5781 39.3125
Q47.6562 37.7969 51.625 33
Q55.6094 28.2188 55.6094 21.1875
Q55.6094 10.4062 48.1875 4.48438
Q40.7656 -1.42188 27.0938 -1.42188
Q22.5156 -1.42188 17.6562 -0.515625
Q12.7969 0.390625 7.625 2.20312
L7.625 11.7188
Q11.7188 9.32812 16.5938 8.10938
Q21.4844 6.89062 26.8125 6.89062
Q36.0781 6.89062 40.9375 10.5469
Q45.7969 14.2031 45.7969 21.1875
Q45.7969 27.6406 41.2812 31.2656
Q36.7656 34.9062 28.7188 34.9062
L20.2188 34.9062
L20.2188 43.0156
L29.1094 43.0156
Q36.375 43.0156 40.2344 45.9219
Q44.0938 48.8281 44.0938 54.2969
Q44.0938 59.9062 40.1094 62.9062
Q36.1406 65.9219 28.7188 65.9219
Q24.6562 65.9219 20.0156 65.0312
Q15.375 64.1562 9.8125 62.3125
L9.8125 71.0938
Q15.4375 72.6562 20.3438 73.4375
Q25.25 74.2188 29.5938 74.2188
Q40.8281 74.2188 47.3594 69.1094
Q53.9062 64.0156 53.9062 55.3281
Q53.9062 49.2656 50.4375 45.0938
Q46.9688 40.9219 40.5781 39.3125" id="DejaVuSans-33"/>
       <path d="
M12.4062 8.29688
L28.5156 8.29688
L28.5156 63.9219
L10.9844 60.4062
L10.9844 69.3906
L28.4219 72.9062
L38.2812 72.9062
L38.2812 8.29688
L54.3906 8.29688
L54.3906 0
L12.4062 0
z
" id="DejaVuSans-31"/>
       <path d="
M31.7812 66.4062
Q24.1719 66.4062 20.3281 58.9062
Q16.5 51.4219 16.5 36.375
Q16.5 21.3906 20.3281 13.8906
Q24.1719 6.39062 31.7812 6.39062
Q39.4531 6.39062 43.2812 13.8906
Q47.125 21.3906 47.125 36.375
Q47.125 51.4219 43.2812 58.9062
Q39.4531 66.4062 31.7812 66.4062
M31.7812 74.2188
Q44.0469 74.2188 50.5156 64.5156
Q56.9844 54.8281 56.9844 36.375
Q56.9844 17.9688 50.5156 8.26562
Q44.0469 -1.42188 31.7812 -1.42188
Q19.5312 -1.42188 13.0625 8.26562
Q6.59375 17.9688 6.59375 36.375
Q6.59375 54.8281 13.0625 64.5156
Q19.5312 74.2188 31.7812 74.2188" id="DejaVuSans-30"/>
       <path id="DejaVuSans-20"/>
       <path d="
M19.1875 8.29688
L53.6094 8.29688
L53.6094 0
L7.32812 0
L7.32812 8.29688
Q12.9375 14.1094 22.625 23.8906
Q32.3281 33.6875 34.8125 36.5312
Q39.5469 41.8438 41.4219 45.5312
Q43.3125 49.2188 43.3125 52.7812
Q43.3125 58.5938 39.2344 62.25
Q35.1562 65.9219 28.6094 65.9219
Q23.9688 65.9219 18.8125 64.3125
Q13.6719 62.7031 7.8125 59.4219
L7.8125 69.3906
Q13.7656 71.7812 18.9375 73
Q24.125 74.2188 28.4219 74.2188
Q39.75 74.2188 46.4844 68.5469
Q53.2188 62.8906 53.2188 53.4219
Q53.2188 48.9219 51.5312 44.8906
Q49.8594 40.875 45.4062 35.4062
Q44.1875 33.9844 37.6406 27.2188
Q31.1094 20.4531 19.1875 8.29688" id="DejaVuSans-32"/>
       <path d="
M53.5156 70.5156
L53.5156 60.8906
Q47.9062 63.5781 42.9219 64.8906
Q37.9375 66.2188 33.2969 66.2188
Q25.25 66.2188 20.875 63.0938
Q16.5 59.9688 16.5 54.2031
Q16.5 49.3594 19.4062 46.8906
Q22.3125 44.4375 30.4219 42.9219
L36.375 41.7031
Q47.4062 39.5938 52.6562 34.2969
Q57.9062 29 57.9062 20.125
Q57.9062 9.51562 50.7969 4.04688
Q43.7031 -1.42188 29.9844 -1.42188
Q24.8125 -1.42188 18.9688 -0.25
Q13.1406 0.921875 6.89062 3.21875
L6.89062 13.375
Q12.8906 10.0156 18.6562 8.29688
Q24.4219 6.59375 29.9844 6.59375
Q38.4219 6.59375 43.0156 9.90625
Q47.6094 13.2344 47.6094 19.3906
Q47.6094 24.75 44.3125 27.7812
Q41.0156 30.8125 33.5 32.3281
L27.4844 33.5
Q16.4531 35.6875 11.5156 40.375
Q6.59375 45.0625 6.59375 53.4219
Q6.59375 63.0938 13.4062 68.6562
Q20.2188 74.2188 32.1719 74.2188
Q37.3125 74.2188 42.625 73.2812
Q47.9531 72.3594 53.5156 70.5156" id="DejaVuSans-53"/>
       <path d="
M56.2031 29.5938
L56.2031 25.2031
L14.8906 25.2031
Q15.4844 15.9219 20.4844 11.0625
Q25.4844 6.20312 34.4219 6.20312
Q39.5938 6.20312 44.4531 7.46875
Q49.3125 8.73438 54.1094 11.2812
L54.1094 2.78125
Q49.2656 0.734375 44.1875 -0.34375
Q39.1094 -1.42188 33.8906 -1.42188
Q20.7969 -1.42188 13.1562 6.1875
Q5.51562 13.8125 5.51562 26.8125
Q5.51562 40.2344 12.7656 48.1094
Q20.0156 56 32.3281 56
Q43.3594 56 49.7812 48.8906
Q56.2031 41.7969 56.2031 29.5938
M47.2188 32.2344
Q47.125 39.5938 43.0938 43.9844
Q39.0625 48.3906 32.4219 48.3906
Q24.9062 48.3906 20.3906 44.1406
Q15.875 39.8906 15.1875 32.1719
z
" id="DejaVuSans-65"/>
       <path d="
M18.1094 8.20312
L18.1094 -20.7969
L9.07812 -20.7969
L9.07812 54.6875
L18.1094 54.6875
L18.1094 46.3906
Q20.9531 51.2656 25.2656 53.625
Q29.5938 56 35.5938 56
Q45.5625 56 51.7812 48.0938
Q58.0156 40.1875 58.0156 27.2969
Q58.0156 14.4062 51.7812 6.48438
Q45.5625 -1.42188 35.5938 -1.42188
Q29.5938 -1.42188 25.2656 0.953125
Q20.9531 3.32812 18.1094 8.20312
M48.6875 27.2969
Q48.6875 37.2031 44.6094 42.8438
Q40.5312 48.4844 33.4062 48.4844
Q26.2656 48.4844 22.1875 42.8438
Q18.1094 37.2031 18.1094 27.2969
Q18.1094 17.3906 22.1875 11.75
Q26.2656 6.10938 33.4062 6.10938
Q40.5312 6.10938 44.6094 11.75
Q48.6875 17.3906 48.6875 27.2969" id="DejaVuSans-70"/>
      </defs>
      <g transform="translate(45.5107534488 401.918125)scale(0.12 -0.12)">
       <use xlink:href="#DejaVuSans-53"/>
       <use x="63.4765625" xlink:href="#DejaVuSans-65"/>
       <use x="125.0" xlink:href="#DejaVuSans-70"/>
       <use x="188.4765625" xlink:href="#DejaVuSans-20"/>
       <use x="220.263671875" xlink:href="#DejaVuSans-32"/>
       <use x="283.88671875" xlink:href="#DejaVuSans-30"/>
       <use x="347.509765625" xlink:href="#DejaVuSans-31"/>
       <use x="411.1328125" xlink:href="#DejaVuSans-33"/>
      </g>
     </g>
    </g>
    <g id="xtick_2">
     <g id="line2d_5">
      <g>
       <use style="stroke:#000000;stroke-width:0.5;" x="115.13042251" xlink:href="#m93b0483c22" y="388.8"/>
      </g>
     </g>
     <g id="line2d_6">
      <g>
       <use style="stroke:#000000;stroke-width:0.5;" x="115.13042251" xlink:href="#m741efc42ff" y="43.2"/>
      </g>
     </g>
     <g id="text_2">
      <!-- Dec 2013 -->
      <defs>
       <path d="
M19.6719 64.7969
L19.6719 8.10938
L31.5938 8.10938
Q46.6875 8.10938 53.6875 14.9375
Q60.6875 21.7812 60.6875 36.5312
Q60.6875 51.1719 53.6875 57.9844
Q46.6875 64.7969 31.5938 64.7969
z

M9.8125 72.9062
L30.0781 72.9062
Q51.2656 72.9062 61.1719 64.0938
Q71.0938 55.2812 71.0938 36.5312
Q71.0938 17.6719 61.125 8.82812
Q51.1719 0 30.0781 0
L9.8125 0
z
" id="DejaVuSans-44"/>
       <path d="
M48.7812 52.5938
L48.7812 44.1875
Q44.9688 46.2969 41.1406 47.3438
Q37.3125 48.3906 33.4062 48.3906
Q24.6562 48.3906 19.8125 42.8438
Q14.9844 37.3125 14.9844 27.2969
Q14.9844 17.2812 19.8125 11.7344
Q24.6562 6.20312 33.4062 6.20312
Q37.3125 6.20312 41.1406 7.25
Q44.9688 8.29688 48.7812 10.4062
L48.7812 2.09375
Q45.0156 0.34375 40.9844 -0.53125
Q36.9688 -1.42188 32.4219 -1.42188
Q20.0625 -1.42188 12.7812 6.34375
Q5.51562 14.1094 5.51562 27.2969
Q5.51562 40.6719 12.8594 48.3281
Q20.2188 56 33.0156 56
Q37.1562 56 41.1094 55.1406
Q45.0625 54.2969 48.7812 52.5938" id="DejaVuSans-63"/>
      </defs>
      <g transform="translate(86.8235475096 401.918125)scale(0.12 -0.12)">
       <use xlink:href="#DejaVuSans-44"/>
       <use x="77.001953125" xlink:href="#DejaVuSans-65"/>
       <use x="138.525390625" xlink:href="#DejaVuSans-63"/>
       <use x="193.505859375" xlink:href="#DejaVuSans-20"/>
       <use x="225.29296875" xlink:href="#DejaVuSans-32"/>
       <use x="288.916015625" xlink:href="#DejaVuSans-30"/>
       <use x="352.5390625" xlink:href="#DejaVuSans-31"/>
       <use x="416.162109375" xlink:href="#DejaVuSans-33"/>
      </g>
     </g>
    </g>
    <g id="xtick_3">
     <g id="line2d_7">
      <g>
       <use style="stroke:#000000;stroke-width:0.5;" x="156.286860317" xlink:href="#m93b0483c22" y="388.8"/>
      </g>
     </g>
     <g id="line2d_8">
      <g>
       <use style="stroke:#000000;stroke-width:0.5;" x="156.286860317" xlink:href="#m741efc42ff" y="43.2"/>
      </g>
     </g>
     <g id="text_3">
      <!-- Mar 2014 -->
      <defs>
       <path d="
M9.8125 72.9062
L24.5156 72.9062
L43.1094 23.2969
L61.8125 72.9062
L76.5156 72.9062
L76.5156 0
L66.8906 0
L66.8906 64.0156
L48.0938 14.0156
L38.1875 14.0156
L19.3906 64.0156
L19.3906 0
L9.8125 0
z
" id="DejaVuSans-4d"/>
       <path d="
M41.1094 46.2969
Q39.5938 47.1719 37.8125 47.5781
Q36.0312 48 33.8906 48
Q26.2656 48 22.1875 43.0469
Q18.1094 38.0938 18.1094 28.8125
L18.1094 0
L9.07812 0
L9.07812 54.6875
L18.1094 54.6875
L18.1094 46.1875
Q20.9531 51.1719 25.4844 53.5781
Q30.0312 56 36.5312 56
Q37.4531 56 38.5781 55.875
Q39.7031 55.7656 41.0625 55.5156
z
" id="DejaVuSans-72"/>
       <path d="
M37.7969 64.3125
L12.8906 25.3906
L37.7969 25.3906
z

M35.2031 72.9062
L47.6094 72.9062
L47.6094 25.3906
L58.0156 25.3906
L58.0156 17.1875
L47.6094 17.1875
L47.6094 0
L37.7969 0
L37.7969 17.1875
L4.89062 17.1875
L4.89062 26.7031
z
" id="DejaVuSans-34"/>
       <path d="
M34.2812 27.4844
Q23.3906 27.4844 19.1875 25
Q14.9844 22.5156 14.9844 16.5
Q14.9844 11.7188 18.1406 8.90625
Q21.2969 6.10938 26.7031 6.10938
Q34.1875 6.10938 38.7031 11.4062
Q43.2188 16.7031 43.2188 25.4844
L43.2188 27.4844
z

M52.2031 31.2031
L52.2031 0
L43.2188 0
L43.2188 8.29688
Q40.1406 3.32812 35.5469 0.953125
Q30.9531 -1.42188 24.3125 -1.42188
Q15.9219 -1.42188 10.9531 3.29688
Q6 8.01562 6 15.9219
Q6 25.1406 12.1719 29.8281
Q18.3594 34.5156 30.6094 34.5156
L43.2188 34.5156
L43.2188 35.4062
Q43.2188 41.6094 39.1406 45
Q35.0625 48.3906 27.6875 48.3906
Q23 48.3906 18.5469 47.2656
Q14.1094 46.1406 10.0156 43.8906
L10.0156 52.2031
Q14.9375 54.1094 19.5781 55.0469
Q24.2188 56 28.6094 56
Q40.4844 56 46.3438 49.8438
Q52.2031 43.7031 52.2031 31.2031" id="DejaVuSans-61"/>
      </defs>
      <g transform="translate(128.126235317 401.918125)scale(0.12 -0.12)">
       <use xlink:href="#DejaVuSans-4d"/>
       <use x="86.279296875" xlink:href="#DejaVuSans-61"/>
       <use x="147.55859375" xlink:href="#DejaVuSans-72"/>
       <use x="188.671875" xlink:href="#DejaVuSans-20"/>
       <use x="220.458984375" xlink:href="#DejaVuSans-32"/>
       <use x="284.08203125" xlink:href="#DejaVuSans-30"/>
       <use x="347.705078125" xlink:href="#DejaVuSans-31"/>
       <use x="411.328125" xlink:href="#DejaVuSans-34"/>
      </g>
     </g>
    </g>
    <g id="xtick_4">
     <g id="line2d_9">
      <g>
       <use style="stroke:#000000;stroke-width:0.5;" x="198.357885631" xlink:href="#m93b0483c22" y="388.8"/>
      </g>
     </g>
     <g id="line2d_10">
      <g>
       <use style="stroke:#000000;stroke-width:0.5;" x="198.357885631" xlink:href="#m741efc42ff" y="43.2"/>
      </g>
     </g>
     <g id="text_4">
      <!-- Jun 2014 -->
      <defs>
       <path d="
M8.5 21.5781
L8.5 54.6875
L17.4844 54.6875
L17.4844 21.9219
Q17.4844 14.1562 20.5 10.2656
Q23.5312 6.39062 29.5938 6.39062
Q36.8594 6.39062 41.0781 11.0312
Q45.3125 15.6719 45.3125 23.6875
L45.3125 54.6875
L54.2969 54.6875
L54.2969 0
L45.3125 0
L45.3125 8.40625
Q42.0469 3.42188 37.7188 1
Q33.4062 -1.42188 27.6875 -1.42188
Q18.2656 -1.42188 13.375 4.4375
Q8.5 10.2969 8.5 21.5781
M31.1094 56
z
" id="DejaVuSans-75"/>
       <path d="
M54.8906 33.0156
L54.8906 0
L45.9062 0
L45.9062 32.7188
Q45.9062 40.4844 42.875 44.3281
Q39.8438 48.1875 33.7969 48.1875
Q26.5156 48.1875 22.3125 43.5469
Q18.1094 38.9219 18.1094 30.9062
L18.1094 0
L9.07812 0
L9.07812 54.6875
L18.1094 54.6875
L18.1094 46.1875
Q21.3438 51.125 25.7031 53.5625
Q30.0781 56 35.7969 56
Q45.2188 56 50.0469 50.1719
Q54.8906 44.3438 54.8906 33.0156" id="DejaVuSans-6e"/>
       <path d="
M9.8125 72.9062
L19.6719 72.9062
L19.6719 5.07812
Q19.6719 -8.10938 14.6719 -14.0625
Q9.67188 -20.0156 -1.42188 -20.0156
L-5.17188 -20.0156
L-5.17188 -11.7188
L-2.09375 -11.7188
Q4.4375 -11.7188 7.125 -8.04688
Q9.8125 -4.39062 9.8125 5.07812
z
" id="DejaVuSans-4a"/>
      </defs>
      <g transform="translate(171.832260631 401.918125)scale(0.12 -0.12)">
       <use xlink:href="#DejaVuSans-4a"/>
       <use x="29.4921875" xlink:href="#DejaVuSans-75"/>
       <use x="92.87109375" xlink:href="#DejaVuSans-6e"/>
       <use x="156.25" xlink:href="#DejaVuSans-20"/>
       <use x="188.037109375" xlink:href="#DejaVuSans-32"/>
       <use x="251.66015625" xlink:href="#DejaVuSans-30"/>
       <use x="315.283203125" xlink:href="#DejaVuSans-31"/>
       <use x="378.90625" xlink:href="#DejaVuSans-34"/>
      </g>
     </g>
    </g>
    <g id="xtick_5">
     <g id="line2d_11">
      <g>
       <use style="stroke:#000000;stroke-width:0.5;" x="240.428910945" xlink:href="#m93b0483c22" y="388.8"/>
      </g>
     </g>
     <g id="line2d_12">
      <g>
       <use style="stroke:#000000;stroke-width:0.5;" x="240.428910945" xlink:href="#m741efc42ff" y="43.2"/>
      </g>
     </g>
     <g id="text_5">
      <!-- Sep 2014 -->
      <g transform="translate(212.278598445 401.918125)scale(0.12 -0.12)">
       <use xlink:href="#DejaVuSans-53"/>
       <use x="63.4765625" xlink:href="#DejaVuSans-65"/>
       <use x="125.0" xlink:href="#DejaVuSans-70"/>
       <use x="188.4765625" xlink:href="#DejaVuSans-20"/>
       <use x="220.263671875" xlink:href="#DejaVuSans-32"/>
       <use x="283.88671875" xlink:href="#DejaVuSans-30"/>
       <use x="347.509765625" xlink:href="#DejaVuSans-31"/>
       <use x="411.1328125" xlink:href="#DejaVuSans-34"/>
      </g>
     </g>
    </g>
    <g id="xtick_6">
     <g id="line2d_13">
      <g>
       <use style="stroke:#000000;stroke-width:0.5;" x="282.042642506" xlink:href="#m93b0483c22" y="388.8"/>
      </g>
     </g>
     <g id="line2d_14">
      <g>
       <use style="stroke:#000000;stroke-width:0.5;" x="282.042642506" xlink:href="#m741efc42ff" y="43.2"/>
      </g>
     </g>
     <g id="text_6">
      <!-- Dec 2014 -->
      <g transform="translate(253.591392506 401.918125)scale(0.12 -0.12)">
       <use xlink:href="#DejaVuSans-44"/>
       <use x="77.001953125" xlink:href="#DejaVuSans-65"/>
       <use x="138.525390625" xlink:href="#DejaVuSans-63"/>
       <use x="193.505859375" xlink:href="#DejaVuSans-20"/>
       <use x="225.29296875" xlink:href="#DejaVuSans-32"/>
       <use x="288.916015625" xlink:href="#DejaVuSans-30"/>
       <use x="352.5390625" xlink:href="#DejaVuSans-31"/>
       <use x="416.162109375" xlink:href="#DejaVuSans-34"/>
      </g>
     </g>
    </g>
    <g id="xtick_7">
     <g id="line2d_15">
      <g>
       <use style="stroke:#000000;stroke-width:0.5;" x="323.199080313" xlink:href="#m93b0483c22" y="388.8"/>
      </g>
     </g>
     <g id="line2d_16">
      <g>
       <use style="stroke:#000000;stroke-width:0.5;" x="323.199080313" xlink:href="#m741efc42ff" y="43.2"/>
      </g>
     </g>
     <g id="text_7">
      <!-- Mar 2015 -->
      <defs>
       <path d="
M10.7969 72.9062
L49.5156 72.9062
L49.5156 64.5938
L19.8281 64.5938
L19.8281 46.7344
Q21.9688 47.4688 24.1094 47.8281
Q26.2656 48.1875 28.4219 48.1875
Q40.625 48.1875 47.75 41.5
Q54.8906 34.8125 54.8906 23.3906
Q54.8906 11.625 47.5625 5.09375
Q40.2344 -1.42188 26.9062 -1.42188
Q22.3125 -1.42188 17.5469 -0.640625
Q12.7969 0.140625 7.71875 1.70312
L7.71875 11.625
Q12.1094 9.23438 16.7969 8.0625
Q21.4844 6.89062 26.7031 6.89062
Q35.1562 6.89062 40.0781 11.3281
Q45.0156 15.7656 45.0156 23.3906
Q45.0156 31 40.0781 35.4375
Q35.1562 39.8906 26.7031 39.8906
Q22.75 39.8906 18.8125 39.0156
Q14.8906 38.1406 10.7969 36.2812
z
" id="DejaVuSans-35"/>
      </defs>
      <g transform="translate(295.225955313 401.918125)scale(0.12 -0.12)">
       <use xlink:href="#DejaVuSans-4d"/>
       <use x="86.279296875" xlink:href="#DejaVuSans-61"/>
       <use x="147.55859375" xlink:href="#DejaVuSans-72"/>
       <use x="188.671875" xlink:href="#DejaVuSans-20"/>
       <use x="220.458984375" xlink:href="#DejaVuSans-32"/>
       <use x="284.08203125" xlink:href="#DejaVuSans-30"/>
       <use x="347.705078125" xlink:href="#DejaVuSans-31"/>
       <use x="411.328125" xlink:href="#DejaVuSans-35"/>
      </g>
     </g>
    </g>
    <g id="xtick_8">
     <g id="line2d_17">
      <g>
       <use style="stroke:#000000;stroke-width:0.5;" x="365.270105627" xlink:href="#m93b0483c22" y="388.8"/>
      </g>
     </g>
     <g id="line2d_18">
      <g>
       <use style="stroke:#000000;stroke-width:0.5;" x="365.270105627" xlink:href="#m741efc42ff" y="43.2"/>
      </g>
     </g>
     <g id="text_8">
      <!-- Jun 2015 -->
      <g transform="translate(338.931980627 401.918125)scale(0.12 -0.12)">
       <use xlink:href="#DejaVuSans-4a"/>
       <use x="29.4921875" xlink:href="#DejaVuSans-75"/>
       <use x="92.87109375" xlink:href="#DejaVuSans-6e"/>
       <use x="156.25" xlink:href="#DejaVuSans-20"/>
       <use x="188.037109375" xlink:href="#DejaVuSans-32"/>
       <use x="251.66015625" xlink:href="#DejaVuSans-30"/>
       <use x="315.283203125" xlink:href="#DejaVuSans-31"/>
       <use x="378.90625" xlink:href="#DejaVuSans-35"/>
      </g>
     </g>
    </g>
    <g id="xtick_9">
     <g id="line2d_19">
      <g>
       <use style="stroke:#000000;stroke-width:0.5;" x="407.341130942" xlink:href="#m93b0483c22" y="388.8"/>
      </g>
     </g>
     <g id="line2d_20">
      <g>
       <use style="stroke:#000000;stroke-width:0.5;" x="407.341130942" xlink:href="#m741efc42ff" y="43.2"/>
      </g>
     </g>
     <g id="text_9">
      <!-- Sep 2015 -->
      <g transform="translate(379.378318442 401.918125)scale(0.12 -0.12)">
       <use xlink:href="#DejaVuSans-53"/>
       <use x="63.4765625" xlink:href="#DejaVuSans-65"/>
       <use x="125.0" xlink:href="#DejaVuSans-70"/>
       <use x="188.4765625" xlink:href="#DejaVuSans-20"/>
       <use x="220.263671875" xlink:href="#DejaVuSans-32"/>
       <use x="283.88671875" xlink:href="#DejaVuSans-30"/>
       <use x="347.509765625" xlink:href="#DejaVuSans-31"/>
       <use x="411.1328125" xlink:href="#DejaVuSans-35"/>
      </g>
     </g>
    </g>
    <g id="xtick_10">
     <g id="line2d_21">
      <g>
       <use style="stroke:#000000;stroke-width:0.5;" x="448.954862502" xlink:href="#m93b0483c22" y="388.8"/>
      </g>
     </g>
     <g id="line2d_22">
      <g>
       <use style="stroke:#000000;stroke-width:0.5;" x="448.954862502" xlink:href="#m741efc42ff" y="43.2"/>
      </g>
     </g>
     <g id="text_10">
      <!-- Dec 2015 -->
      <g transform="translate(420.691112502 401.918125)scale(0.12 -0.12)">
       <use xlink:href="#DejaVuSans-44"/>
       <use x="77.001953125" xlink:href="#DejaVuSans-65"/>
       <use x="138.525390625" xlink:href="#DejaVuSans-63"/>
       <use x="193.505859375" xlink:href="#DejaVuSans-20"/>
       <use x="225.29296875" xlink:href="#DejaVuSans-32"/>
       <use x="288.916015625" xlink:href="#DejaVuSans-30"/>
       <use x="352.5390625" xlink:href="#DejaVuSans-31"/>
       <use x="416.162109375" xlink:href="#DejaVuSans-35"/>
      </g>
     </g>
    </g>
    <g id="xtick_11">
     <g id="line2d_23">
      <g>
       <use style="stroke:#000000;stroke-width:0.5;" x="490.568594063" xlink:href="#m93b0483c22" y="388.8"/>
      </g>
     </g>
     <g id="line2d_24">
      <g>
       <use style="stroke:#000000;stroke-width:0.5;" x="490.568594063" xlink:href="#m741efc42ff" y="43.2"/>
      </g>
     </g>
     <g id="text_11">
      <!-- Mar 2016 -->
      <defs>
       <path d="
M33.0156 40.375
Q26.375 40.375 22.4844 35.8281
Q18.6094 31.2969 18.6094 23.3906
Q18.6094 15.5312 22.4844 10.9531
Q26.375 6.39062 33.0156 6.39062
Q39.6562 6.39062 43.5312 10.9531
Q47.4062 15.5312 47.4062 23.3906
Q47.4062 31.2969 43.5312 35.8281
Q39.6562 40.375 33.0156 40.375
M52.5938 71.2969
L52.5938 62.3125
Q48.875 64.0625 45.0938 64.9844
Q41.3125 65.9219 37.5938 65.9219
Q27.8281 65.9219 22.6719 59.3281
Q17.5312 52.7344 16.7969 39.4062
Q19.6719 43.6562 24.0156 45.9219
Q28.375 48.1875 33.5938 48.1875
Q44.5781 48.1875 50.9531 41.5156
Q57.3281 34.8594 57.3281 23.3906
Q57.3281 12.1562 50.6875 5.35938
Q44.0469 -1.42188 33.0156 -1.42188
Q20.3594 -1.42188 13.6719 8.26562
Q6.98438 17.9688 6.98438 36.375
Q6.98438 53.6562 15.1875 63.9375
Q23.3906 74.2188 37.2031 74.2188
Q40.9219 74.2188 44.7031 73.4844
Q48.4844 72.75 52.5938 71.2969" id="DejaVuSans-36"/>
      </defs>
      <g transform="translate(462.449219063 401.918125)scale(0.12 -0.12)">
       <use xlink:href="#DejaVuSans-4d"/>
       <use x="86.279296875" xlink:href="#DejaVuSans-61"/>
       <use x="147.55859375" xlink:href="#DejaVuSans-72"/>
       <use x="188.671875" xlink:href="#DejaVuSans-20"/>
       <use x="220.458984375" xlink:href="#DejaVuSans-32"/>
       <use x="284.08203125" xlink:href="#DejaVuSans-30"/>
       <use x="347.705078125" xlink:href="#DejaVuSans-31"/>
       <use x="411.328125" xlink:href="#DejaVuSans-36"/>
      </g>
     </g>
    </g>
   </g>
   <g id="matplotlib.axis_2">
    <g id="ytick_1">
     <g id="line2d_25">
      <defs>
       <path d="
M0 0
L4 0" id="m728421d6d4" style="stroke:#000000;stroke-width:0.5;"/>
      </defs>
      <g>
       <use style="stroke:#000000;stroke-width:0.5;" x="72.0" xlink:href="#m728421d6d4" y="388.8"/>
      </g>
     </g>
     <g id="line2d_26">
      <defs>
       <path d="
M0 0
L-4 0" id="mcb0005524f" style="stroke:#000000;stroke-width:0.5;"/>
      </defs>
      <g>
       <use style="stroke:#000000;stroke-width:0.5;" x="518.4" xlink:href="#mcb0005524f" y="388.8"/>
      </g>
     </g>
     <g id="text_12">
      <!-- 0 -->
      <g transform="translate(61.953125 392.11125)scale(0.12 -0.12)">
       <use xlink:href="#DejaVuSans-30"/>
      </g>
     </g>
    </g>
    <g id="ytick_2">
     <g id="line2d_27">
      <g>
       <use style="stroke:#000000;stroke-width:0.5;" x="72.0" xlink:href="#m728421d6d4" y="331.2"/>
      </g>
     </g>
     <g id="line2d_28">
      <g>
       <use style="stroke:#000000;stroke-width:0.5;" x="518.4" xlink:href="#mcb0005524f" y="331.2"/>
      </g>
     </g>
     <g id="text_13">
      <!-- 500 -->
      <g transform="translate(46.818125 334.51125)scale(0.12 -0.12)">
       <use xlink:href="#DejaVuSans-35"/>
       <use x="63.623046875" xlink:href="#DejaVuSans-30"/>
       <use x="127.24609375" xlink:href="#DejaVuSans-30"/>
      </g>
     </g>
    </g>
    <g id="ytick_3">
     <g id="line2d_29">
      <g>
       <use style="stroke:#000000;stroke-width:0.5;" x="72.0" xlink:href="#m728421d6d4" y="273.6"/>
      </g>
     </g>
     <g id="line2d_30">
      <g>
       <use style="stroke:#000000;stroke-width:0.5;" x="518.4" xlink:href="#mcb0005524f" y="273.6"/>
      </g>
     </g>
     <g id="text_14">
      <!-- 1000 -->
      <g transform="translate(39.575 276.91125)scale(0.12 -0.12)">
       <use xlink:href="#DejaVuSans-31"/>
       <use x="63.623046875" xlink:href="#DejaVuSans-30"/>
       <use x="127.24609375" xlink:href="#DejaVuSans-30"/>
       <use x="190.869140625" xlink:href="#DejaVuSans-30"/>
      </g>
     </g>
    </g>
    <g id="ytick_4">
     <g id="line2d_31">
      <g>
       <use style="stroke:#000000;stroke-width:0.5;" x="72.0" xlink:href="#m728421d6d4" y="216.0"/>
      </g>
     </g>
     <g id="line2d_32">
      <g>
       <use style="stroke:#000000;stroke-width:0.5;" x="518.4" xlink:href="#mcb0005524f" y="216.0"/>
      </g>
     </g>
     <g id="text_15">
      <!-- 1500 -->
      <g transform="translate(39.575 219.31125)scale(0.12 -0.12)">
       <use xlink:href="#DejaVuSans-31"/>
       <use x="63.623046875" xlink:href="#DejaVuSans-35"/>
       <use x="127.24609375" xlink:href="#DejaVuSans-30"/>
       <use x="190.869140625" xlink:href="#DejaVuSans-30"/>
      </g>
     </g>
    </g>
    <g id="ytick_5">
     <g id="line2d_33">
      <g>
       <use style="stroke:#000000;stroke-width:0.5;" x="72.0" xlink:href="#m728421d6d4" y="158.4"/>
      </g>
     </g>
     <g id="line2d_34">
      <g>
       <use style="stroke:#000000;stroke-width:0.5;" x="518.4" xlink:href="#mcb0005524f" y="158.4"/>
      </g>
     </g>
     <g id="text_16">
      <!-- 2000 -->
      <g transform="translate(39.13625 161.71125)scale(0.12 -0.12)">
       <use xlink:href="#DejaVuSans-32"/>
       <use x="63.623046875" xlink:href="#DejaVuSans-30"/>
       <use x="127.24609375" xlink:href="#DejaVuSans-30"/>
       <use x="190.869140625" xlink:href="#DejaVuSans-30"/>
      </g>
     </g>
    </g>
    <g id="ytick_6">
     <g id="line2d_35">
      <g>
       <use style="stroke:#000000;stroke-width:0.5;" x="72.0" xlink:href="#m728421d6d4" y="100.8"/>
      </g>
     </g>
     <g id="line2d_36">
      <g>
       <use style="stroke:#000000;stroke-width:0.5;" x="518.4" xlink:href="#mcb0005524f" y="100.8"/>
      </g>
     </g>
     <g id="text_17">
      <!-- 2500 -->
      <g transform="translate(39.13625 104.11125)scale(0.12 -0.12)">
       <use xlink:href="#DejaVuSans-32"/>
       <use x="63.623046875" xlink:href="#DejaVuSans-35"/>
       <use x="127.24609375" xlink:href="#DejaVuSans-30"/>
       <use x="190.869140625" xlink:href="#DejaVuSans-30"/>
      </g>
     </g>
    </g>
    <g id="ytick_7">
     <g id="line2d_37">
      <g>
       <use style="stroke:#000000;stroke-width:0.5;" x="72.0" xlink:href="#m728421d6d4" y="43.2"/>
      </g>
     </g>
     <g id="line2d_38">
      <g>
       <use style="stroke:#000000;stroke-width:0.5;" x="518.4" xlink:href="#mcb0005524f" y="43.2"/>
      </g>
     </g>
     <g id="text_18">
      <!-- 3000 -->
      <g transform="translate(39.171875 46.51125)scale(0.12 -0.12)">
       <use xlink:href="#DejaVuSans-33"/>
       <use x="63.623046875" xlink:href="#DejaVuSans-30"/>
       <use x="127.24609375" xlink:href="#DejaVuSans-30"/>
       <use x="190.869140625" xlink:href="#DejaVuSans-30"/>
      </g>
     </g>
    </g>
   </g>
   <g id="patch_3">
    <path d="
M72 43.2
L518.4 43.2" style="fill:none;stroke:#000000;"/>
   </g>
   <g id="patch_4">
    <path d="
M518.4 388.8
L518.4 43.2" style="fill:none;stroke:#000000;"/>
   </g>
   <g id="patch_5">
    <path d="
M72 388.8
L518.4 388.8" style="fill:none;stroke:#000000;"/>
   </g>
   <g id="patch_6">
    <path d="
M72 388.8
L72 43.2" style="fill:none;stroke:#000000;"/>
   </g>
  </g>
 </g>
 <defs>
  <clipPath id="p7ff5b81e1d">
   <rect height="345.6" width="446.4" x="72.0" y="43.2"/>
  </clipPath>
 </defs>
</svg>
