<?xml version="1.0" encoding="utf-8" standalone="no"?>
<!DOCTYPE svg PUBLIC "-//W3C//DTD SVG 1.1//EN"
  "http://www.w3.org/Graphics/SVG/1.1/DTD/svg11.dtd">
<!-- Created with matplotlib (http://matplotlib.org/) -->
<svg height="432pt" version="1.1" viewBox="0 0 576 432" width="576pt" xmlns="http://www.w3.org/2000/svg" xmlns:xlink="http://www.w3.org/1999/xlink">
 <defs>
  <style type="text/css">
*{stroke-linecap:butt;stroke-linejoin:round;}
  </style>
 </defs>
 <g id="figure_1">
  <g id="patch_1">
   <path d="
M0 432
L576 432
L576 0
L0 0
z
" style="fill:#ffffff;"/>
  </g>
  <g id="axes_1">
   <g id="patch_2">
    <path d="
M72 388.8
L518.4 388.8
L518.4 43.2
L72 43.2
z
" style="fill:#ffffff;"/>
   </g>
   <g id="line2d_1">
    <path clip-path="url(#p7ff5b81e1d)" d="
M72 241.19
L72.7418 119.358
L82.663 262.514
L83.3206 209.547
L86.1082 180.599
L86.1082 129.246
L87.1437 92.965
L94.133 128.259
L95.6438 104.315
L109.382 174.995
L109.612 151.519
L112.519 143.484
L123.89 185.549
L128.27 200.828
L129.311 189.718
L129.345 157.267
L130.475 152.525
L137.653 189.162
L149.399 231.866
L149.399 221.566
L151.435 218.88
L153.149 214.755
L154.199 208.946
L154.199 189.898
L155.524 184.719
L164.287 201.758
L165.659 197.18
L172.014 204.978
L175.313 205.568
L175.759 199.018
L178.363 199.682
L178.531 193.034
L181.145 193.765
L183.956 195.011
L186.225 194.425
L187.958 192.081
L188.897 187.913
L190.716 186.627
L192.091 184.113
L199.052 195.963
L199.651 191.917
L201.853 192.024
L204.075 191.575
L206.335 191.3
L207.034 187.408
L209.514 187.816
L209.634 183.175
L212.076 183.327
L215.514 185.298
L215.514 180.351
L218.947 184.041
L220.082 181.169
L221.231 178.919
L221.705 175.571
L224.253 176.57
L224.511 172.642
L225.779 170.477
L227.584 170.164
L229.346 169.368
L231.563 169.116
L233.45 168.538
L233.45 164.263
L234.039 161.188
L240.359 169.427
L240.421 165.443
L241.858 164.566
L242.193 157.184
L245.2 158.808
L249.032 162.042
L250.117 160.228
L250.122 156.475
L251.448 154.972
L253.42 154.894
L253.795 152.068
L255.331 152.161
L255.332 148.618
L257.184 148.991
L263.151 156.421
L266.403 159.313
L268.824 159.751
L271.639 160.951
L271.702 157.697
L275.134 157.139
L275.762 155.16
L275.853 152.182
L276.351 150.005
L277.328 148.691
L279.285 149.321
L283.365 153.538
L284.127 151.56
L286.473 152.283
L289.221 153.841
L290.179 152.546
L293.899 154.658
L296.547 152.654
L297.75 148.274
L299.429 147.842
L311.648 161.15
L315.704 164.499
L315.977 162.368
L317.078 161.245
L317.777 159.794
L318.659 158.591
L321.713 160.893
L321.935 158.764
L322.584 157.341
L322.718 155.159
L323.034 153.053
L325.419 154.824
L327.688 155.695
L329.225 155.707
L331.145 155.973
L331.193 153.692
L331.423 151.555
L331.519 147.046
L331.854 145.194
L333.032 144.762
L334.641 145.592
L334.669 143.314
L334.864 141.388
L337.375 143.939
L339.161 144.834
L339.769 143.63
L340.635 142.962
L341.267 141.871
L342.1 141.453
L342.393 139.561
L345.749 142.991
L349.278 145.906
L350.671 145.723
L351.825 145.274
L354.109 146.227
L354.15 144.356
L354.478 142.631
L355.679 142.786
L355.799 141.032
L356.709 139.964
L356.852 138.11
L357.29 136.58
L358.94 136.916
L358.969 134.969
L360.87 135.663
L363.206 136.868
L365.366 138.428
L365.604 136.976
L367.918 139.114
L368.243 137.561
L370.953 140.001
L371.135 138.626
L371.446 137.123
L373.218 137.776
L375.583 139.398
L376.991 139.777
L377.982 139.534
L380.539 140.837
L380.592 139.085
L382.512 140.14
L384.552 141.593
L386.654 141.654
L387.419 140.321
L389.794 140.611
L389.971 139.125
L394.846 139.434
L395.329 138.114
L397.541 138.299
L397.551 136.576
L399.054 136.244
L400.879 136.156
L401.244 134.656
L406.742 135.22
L407.719 134.313
L412.412 134.17
L414.62 134.406
L414.716 132.875
L417.477 133.338
L417.548 131.788
L419.108 131.484
L422.02 132.463
L422.894 131.749
L424.835 131.791
L425.55 130.877
L426.552 130.18
L427.95 129.981
L428.359 128.732
L429.036 128.007
L429.036 126.423
L433 127.328
L433.971 126.884
L434.386 125.827
L438.261 128.675
L438.478 127.3
L439.652 127.129
L440.035 125.977
L444.102 127.837
L444.651 126.951
L445.494 126.409
L446.017 125.442
L447.275 125.23
L447.409 123.98
L448.258 123.452
L449.075 123.134
L449.446 122.052
L449.695 119.446
L451.552 119.959
L451.782 118.681
L452.765 118.423
L454.336 118.829
L454.559 117.571
L455.057 116.713
L455.887 116.17
L455.938 114.831
L456.813 114.538
L456.972 113.404
L457.292 112.277
L457.362 111.002
L457.911 110.398
L458.402 109.672
L458.482 108.354
L460.586 109.166
L461.007 108.267
L461.109 107.032
L462.061 106.711
L462.942 106.292
L466.21 106.922
L468.113 107.885
L468.298 106.586
L469.977 107.359
L470.162 106.053
L470.417 105.163
L472.977 106.718
L474.975 107.717
L475.767 107.628
L476.227 107.158
L478.148 107.143
L478.48 106.299
L479.789 106.627
L480.07 105.736
L480.07 104.435
L481.372 104.819
L484.564 107.203
L485.018 106.367
L485.05 105.142
L486.02 104.909
L486.709 104.206
L487.693 104.338
L490.508 106.03
L490.923 105.169
L491.121 104.12
L492.398 104.071
L492.449 101.616
L494.613 102.136
L499.561 105.271
L503.927 107.293
L504.221 106.311
L505.351 106.371
L507.496 107.376
L509.673 108.274
L509.705 107.127
L513.031 109.634
L513.42 108.837
L513.484 107.721
L516.229 109.328
L516.708 108.577
L517.985 108.498
L518.4 107.721
L518.4 107.721" style="fill:none;stroke:#ff0000;stroke-linecap:square;"/>
   </g>
   <g id="line2d_2">
    <path clip-path="url(#p7ff5b81e1d)" d="
M85.9476 386.126
L90.9374 354.186
L91.278 313.507
L93.2542 280.503
L95.6418 252.587
L96.5091 188.835
L104.999 204.485
L107.776 193.46
L110.941 185.099
L113.977 175.02
L114.802 154.623
L116.457 143.157
L117.403 122.584
L117.452 79.5564
L118.324 63.5913
L121.737 68.1355
L126.487 81.8047
L127.657 87.6565
L127.657 52.6734
L129.851 65.4395
L130.475 57.3268
L131.046 51.9696
L133.725 66.6612
L138.819 95.4024
L138.923 84.4862
L140.399 79.716
L140.399 55.1349
L142.709 63.986
L144.173 62.5121
L144.876 55.5623
L145.463 48.5751
L147.175 49.7768
L148.73 53.4757
L149.093 45.5541
L157.666 83.0468
L164.492 101.545
L168.825 108.586
L182.559 142.68
L186.642 149.475
L189.419 150.857
L190.271 147.623
L196.189 159.027
L199.239 161.91
L201.287 162.131
L201.528 157.48
L206.844 165.454
L218.971 188.892
L221.243 188.537
L221.777 185.169
L222.662 182.529
L223.404 179.209
L225.918 180.123
L226.714 177.362
L231.297 181.815
L240.91 194.862
L245.2 198.163
L246.6 196.532
L247.891 194.545
L248.703 192.359
L250.291 191.133
L252.727 190.924
L260.867 201.773
L263.117 201.572
L267.234 204.652
L268.196 202.535
L269.317 200.609
L271.702 200.594
L271.702 197.295
L272.492 195.125
L272.755 192.105
L278.242 197.917
L279.123 192.886
L280.218 191.47
L280.218 188.35
L280.516 185.669
L280.568 179.75
L281.576 175.384
L284.146 176.002
L284.672 173.827
L284.672 170.791
L285.185 168.625
L287.737 169.328
L288.565 167.6
L292.822 170.541
L293.195 168.094
L299.788 173.74
L304.011 176.324
L304.806 174.487
L307.411 174.77
L314.856 181.499
L321.047 187.819
L322.321 187.097
L322.647 185.072
L323.614 184.282
L323.614 181.796
L327.32 184.35
L327.444 182.103
L329.139 182.108
L333.219 185.205
L334.339 184.894
L339.773 191.213
L339.821 189.166
L341.43 189.247
L341.468 187.151
L349.302 195.394
L350.231 194.363
L350.681 192.688
L354.889 195.506
L355.086 193.734
L356.709 193.81
L356.833 191.864
L357.164 190.117
L360.415 191.946
L360.578 190.134
L362.675 190.505
L362.684 188.503
L363.738 187.808
L363.79 183.902
L370.896 191.815
L370.896 189.892
L371.389 188.788
L372.5 188.267
L373.434 187.591
L374.803 187.356
L377.43 188.946
L379.696 189.476
L381.118 189.146
L381.205 187.49
L381.602 186.158
L383.268 186.601
L383.944 185.751
L389.823 188.505
L392.514 188.465
L394.578 188.163
L398.566 189.291
L398.566 185.84
L398.92 184.382
L398.92 182.66
L401.027 182.604
L404.166 182.656
L406.506 182.498
L408.351 180.41
L408.536 178.798
L409.047 177.477
L410.113 176.513
L418.828 180.537
L420.609 180.198
L421.573 179.306
L426.469 181.41
L429.317 182.277
L430.344 181.508
L433.013 182.287
L433.077 180.82
L444.664 190.108
L447.23 190.707
L448.679 190.811
L451.737 191.899
L454.055 192.501
L454.783 191.822
L456.902 192.302
L456.921 190.881
L460.056 192.381
L460.586 191.434
L463.076 192.262
L464.732 191.488
L469.358 193.591
L476.744 199.248
L481.353 202.297
L481.443 201.071
L483.479 201.355
L484.667 201.085
L490.648 204.553
L498.712 208.223
L507.981 213.559
L512.29 215.457
L513.108 214.836
L517.225 216.367
L517.27 215.235
L517.525 214.171
L517.525 214.171" style="fill:none;stroke:#008000;stroke-linecap:square;"/>
   </g>
   <g id="matplotlib.axis_1">
    <g id="xtick_1">
     <g id="line2d_3">
      <defs>
       <path d="
M0 0
L0 -4" id="m93b0483c22" style="stroke:#000000;stroke-width:0.5;"/>
      </defs>
      <g>
       <use style="stroke:#000000;stroke-width:0.5;" x="86.1595673586" xlink:href="#m93b0483c22" y="388.8"/>
      </g>
     </g>
     <g id="line2d_4">
      <defs>
       <path d="
M0 0
L0 4" id="m741efc42ff" style="stroke:#000000;stroke-width:0.5;"/>
      </defs>
      <g>
       <use style="stroke:#000000;stroke-width:0.5;" x="86.1595673586" xlink:href="#m741efc42ff" y="43.2"/>
      </g>
     </g>
     <g id="text_1">
      <!-- Oct 2013 -->
      <defs>
       <path d="
M39.4062 66.2188
Q28.6562 66.2188 22.3281 58.2031
Q16.0156 50.2031 16.0156 36.375
Q16.0156 22.6094 22.3281 14.5938
Q28.6562 6.59375 39.4062 6.59375
Q50.1406 6.59375 56.4219 14.5938
Q62.7031 22.6094 62.7031 36.375
Q62.7031 50.2031 56.4219 58.2031
Q50.1406 66.2188 39.4062 66.2188
M39.4062 74.2188
Q54.7344 74.2188 63.9062 63.9375
Q73.0938 53.6562 73.0938 36.375
Q73.0938 19.1406 63.9062 8.85938
Q54.7344 -1.42188 39.4062 -1.42188
Q24.0312 -1.42188 14.8125 8.82812
Q5.60938 19.0938 5.60938 36.375
Q5.60938 53.6562 14.8125 63.9375
Q24.0312 74.2188 39.4062 74.2188" id="DejaVuSans-4f"/>
       <path d="
M40.5781 39.3125
Q47.6562 37.7969 51.625 33
Q55.6094 28.2188 55.6094 21.1875
Q55.6094 10.4062 48.1875 4.48438
Q40.7656 -1.42188 27.0938 -1.42188
Q22.5156 -1.42188 17.6562 -0.515625
Q12.7969 0.390625 7.625 2.20312
L7.625 11.7188
Q11.7188 9.32812 16.5938 8.10938
Q21.4844 6.89062 26.8125 6.89062
Q36.0781 6.89062 40.9375 10.5469
Q45.7969 14.2031 45.7969 21.1875
Q45.7969 27.6406 41.2812 31.2656
Q36.7656 34.9062 28.7188 34.9062
L20.2188 34.9062
L20.2188 43.0156
L29.1094 43.0156
Q36.375 43.0156 40.2344 45.9219
Q44.0938 48.8281 44.0938 54.2969
Q44.0938 59.9062 40.1094 62.9062
Q36.1406 65.9219 28.7188 65.9219
Q24.6562 65.9219 20.0156 65.0312
Q15.375 64.1562 9.8125 62.3125
L9.8125 71.0938
Q15.4375 72.6562 20.3438 73.4375
Q25.25 74.2188 29.5938 74.2188
Q40.8281 74.2188 47.3594 69.1094
Q53.9062 64.0156 53.9062 55.3281
Q53.9062 49.2656 50.4375 45.0938
Q46.9688 40.9219 40.5781 39.3125" id="DejaVuSans-33"/>
       <path d="
M12.4062 8.29688
L28.5156 8.29688
L28.5156 63.9219
L10.9844 60.4062
L10.9844 69.3906
L28.4219 72.9062
L38.2812 72.9062
L38.2812 8.29688
L54.3906 8.29688
L54.3906 0
L12.4062 0
z
" id="DejaVuSans-31"/>
       <path d="
M31.7812 66.4062
Q24.1719 66.4062 20.3281 58.9062
Q16.5 51.4219 16.5 36.375
Q16.5 21.3906 20.3281 13.8906
Q24.1719 6.39062 31.7812 6.39062
Q39.4531 6.39062 43.2812 13.8906
Q47.125 21.3906 47.125 36.375
Q47.125 51.4219 43.2812 58.9062
Q39.4531 66.4062 31.7812 66.4062
M31.7812 74.2188
Q44.0469 74.2188 50.5156 64.5156
Q56.9844 54.8281 56.9844 36.375
Q56.9844 17.9688 50.5156 8.26562
Q44.0469 -1.42188 31.7812 -1.42188
Q19.5312 -1.42188 13.0625 8.26562
Q6.59375 17.9688 6.59375 36.375
Q6.59375 54.8281 13.0625 64.5156
Q19.5312 74.2188 31.7812 74.2188" id="DejaVuSans-30"/>
       <path id="DejaVuSans-20"/>
       <path d="
M19.1875 8.29688
L53.6094 8.29688
L53.6094 0
L7.32812 0
L7.32812 8.29688
Q12.9375 14.1094 22.625 23.8906
Q32.3281 33.6875 34.8125 36.5312
Q39.5469 41.8438 41.4219 45.5312
Q43.3125 49.2188 43.3125 52.7812
Q43.3125 58.5938 39.2344 62.25
Q35.1562 65.9219 28.6094 65.9219
Q23.9688 65.9219 18.8125 64.3125
Q13.6719 62.7031 7.8125 59.4219
L7.8125 69.3906
Q13.7656 71.7812 18.9375 73
Q24.125 74.2188 28.4219 74.2188
Q39.75 74.2188 46.4844 68.5469
Q53.2188 62.8906 53.2188 53.4219
Q53.2188 48.9219 51.5312 44.8906
Q49.8594 40.875 45.4062 35.4062
Q44.1875 33.9844 37.6406 27.2188
Q31.1094 20.4531 19.1875 8.29688" id="DejaVuSans-32"/>
       <path d="
M18.3125 70.2188
L18.3125 54.6875
L36.8125 54.6875
L36.8125 47.7031
L18.3125 47.7031
L18.3125 18.0156
Q18.3125 11.3281 20.1406 9.42188
Q21.9688 7.51562 27.5938 7.51562
L36.8125 7.51562
L36.8125 0
L27.5938 0
Q17.1875 0 13.2344 3.875
Q9.28125 7.76562 9.28125 18.0156
L9.28125 47.7031
L2.6875 47.7031
L2.6875 54.6875
L9.28125 54.6875
L9.28125 70.2188
z
" id="DejaVuSans-74"/>
       <path d="
M48.7812 52.5938
L48.7812 44.1875
Q44.9688 46.2969 41.1406 47.3438
Q37.3125 48.3906 33.4062 48.3906
Q24.6562 48.3906 19.8125 42.8438
Q14.9844 37.3125 14.9844 27.2969
Q14.9844 17.2812 19.8125 11.7344
Q24.6562 6.20312 33.4062 6.20312
Q37.3125 6.20312 41.1406 7.25
Q44.9688 8.29688 48.7812 10.4062
L48.7812 2.09375
Q45.0156 0.34375 40.9844 -0.53125
Q36.9688 -1.42188 32.4219 -1.42188
Q20.0625 -1.42188 12.7812 6.34375
Q5.51562 14.1094 5.51562 27.2969
Q5.51562 40.6719 12.8594 48.3281
Q20.2188 56 33.0156 56
Q37.1562 56 41.1094 55.1406
Q45.0625 54.2969 48.7812 52.5938" id="DejaVuSans-63"/>
      </defs>
      <g transform="translate(59.0892548586 401.918125)scale(0.12 -0.12)">
       <use xlink:href="#DejaVuSans-4f"/>
       <use x="78.7109375" xlink:href="#DejaVuSans-63"/>
       <use x="133.69140625" xlink:href="#DejaVuSans-74"/>
       <use x="172.900390625" xlink:href="#DejaVuSans-20"/>
       <use x="204.6875" xlink:href="#DejaVuSans-32"/>
       <use x="268.310546875" xlink:href="#DejaVuSans-30"/>
       <use x="331.93359375" xlink:href="#DejaVuSans-31"/>
       <use x="395.556640625" xlink:href="#DejaVuSans-33"/>
      </g>
     </g>
    </g>
    <g id="xtick_2">
     <g id="line2d_5">
      <g>
       <use style="stroke:#000000;stroke-width:0.5;" x="128.447704685" xlink:href="#m93b0483c22" y="388.8"/>
      </g>
     </g>
     <g id="line2d_6">
      <g>
       <use style="stroke:#000000;stroke-width:0.5;" x="128.447704685" xlink:href="#m741efc42ff" y="43.2"/>
      </g>
     </g>
     <g id="text_2">
      <!-- Jan 2014 -->
      <defs>
       <path d="
M37.7969 64.3125
L12.8906 25.3906
L37.7969 25.3906
z

M35.2031 72.9062
L47.6094 72.9062
L47.6094 25.3906
L58.0156 25.3906
L58.0156 17.1875
L47.6094 17.1875
L47.6094 0
L37.7969 0
L37.7969 17.1875
L4.89062 17.1875
L4.89062 26.7031
z
" id="DejaVuSans-34"/>
       <path d="
M54.8906 33.0156
L54.8906 0
L45.9062 0
L45.9062 32.7188
Q45.9062 40.4844 42.875 44.3281
Q39.8438 48.1875 33.7969 48.1875
Q26.5156 48.1875 22.3125 43.5469
Q18.1094 38.9219 18.1094 30.9062
L18.1094 0
L9.07812 0
L9.07812 54.6875
L18.1094 54.6875
L18.1094 46.1875
Q21.3438 51.125 25.7031 53.5625
Q30.0781 56 35.7969 56
Q45.2188 56 50.0469 50.1719
Q54.8906 44.3438 54.8906 33.0156" id="DejaVuSans-6e"/>
       <path d="
M9.8125 72.9062
L19.6719 72.9062
L19.6719 5.07812
Q19.6719 -8.10938 14.6719 -14.0625
Q9.67188 -20.0156 -1.42188 -20.0156
L-5.17188 -20.0156
L-5.17188 -11.7188
L-2.09375 -11.7188
Q4.4375 -11.7188 7.125 -8.04688
Q9.8125 -4.39062 9.8125 5.07812
z
" id="DejaVuSans-4a"/>
       <path d="
M34.2812 27.4844
Q23.3906 27.4844 19.1875 25
Q14.9844 22.5156 14.9844 16.5
Q14.9844 11.7188 18.1406 8.90625
Q21.2969 6.10938 26.7031 6.10938
Q34.1875 6.10938 38.7031 11.4062
Q43.2188 16.7031 43.2188 25.4844
L43.2188 27.4844
z

M52.2031 31.2031
L52.2031 0
L43.2188 0
L43.2188 8.29688
Q40.1406 3.32812 35.5469 0.953125
Q30.9531 -1.42188 24.3125 -1.42188
Q15.9219 -1.42188 10.9531 3.29688
Q6 8.01562 6 15.9219
Q6 25.1406 12.1719 29.8281
Q18.3594 34.5156 30.6094 34.5156
L43.2188 34.5156
L43.2188 35.4062
Q43.2188 41.6094 39.1406 45
Q35.0625 48.3906 27.6875 48.3906
Q23 48.3906 18.5469 47.2656
Q14.1094 46.1406 10.0156 43.8906
L10.0156 52.2031
Q14.9375 54.1094 19.5781 55.0469
Q24.2188 56 28.6094 56
Q40.4844 56 46.3438 49.8438
Q52.2031 43.7031 52.2031 31.2031" id="DejaVuSans-61"/>
      </defs>
      <g transform="translate(102.047704685 401.918125)scale(0.12 -0.12)">
       <use xlink:href="#DejaVuSans-4a"/>
       <use x="29.4921875" xlink:href="#DejaVuSans-61"/>
       <use x="90.771484375" xlink:href="#DejaVuSans-6e"/>
       <use x="154.150390625" xlink:href="#DejaVuSans-20"/>
       <use x="185.9375" xlink:href="#DejaVuSans-32"/>
       <use x="249.560546875" xlink:href="#DejaVuSans-30"/>
       <use x="313.18359375" xlink:href="#DejaVuSans-31"/>
       <use x="376.806640625" xlink:href="#DejaVuSans-34"/>
      </g>
     </g>
    </g>
    <g id="xtick_3">
     <g id="line2d_7">
      <g>
       <use style="stroke:#000000;stroke-width:0.5;" x="169.816534678" xlink:href="#m93b0483c22" y="388.8"/>
      </g>
     </g>
     <g id="line2d_8">
      <g>
       <use style="stroke:#000000;stroke-width:0.5;" x="169.816534678" xlink:href="#m741efc42ff" y="43.2"/>
      </g>
     </g>
     <g id="text_3">
      <!-- Apr 2014 -->
      <defs>
       <path d="
M41.1094 46.2969
Q39.5938 47.1719 37.8125 47.5781
Q36.0312 48 33.8906 48
Q26.2656 48 22.1875 43.0469
Q18.1094 38.0938 18.1094 28.8125
L18.1094 0
L9.07812 0
L9.07812 54.6875
L18.1094 54.6875
L18.1094 46.1875
Q20.9531 51.1719 25.4844 53.5781
Q30.0312 56 36.5312 56
Q37.4531 56 38.5781 55.875
Q39.7031 55.7656 41.0625 55.5156
z
" id="DejaVuSans-72"/>
       <path d="
M34.1875 63.1875
L20.7969 26.9062
L47.6094 26.9062
z

M28.6094 72.9062
L39.7969 72.9062
L67.5781 0
L57.3281 0
L50.6875 18.7031
L17.8281 18.7031
L11.1875 0
L0.78125 0
z
" id="DejaVuSans-41"/>
       <path d="
M18.1094 8.20312
L18.1094 -20.7969
L9.07812 -20.7969
L9.07812 54.6875
L18.1094 54.6875
L18.1094 46.3906
Q20.9531 51.2656 25.2656 53.625
Q29.5938 56 35.5938 56
Q45.5625 56 51.7812 48.0938
Q58.0156 40.1875 58.0156 27.2969
Q58.0156 14.4062 51.7812 6.48438
Q45.5625 -1.42188 35.5938 -1.42188
Q29.5938 -1.42188 25.2656 0.953125
Q20.9531 3.32812 18.1094 8.20312
M48.6875 27.2969
Q48.6875 37.2031 44.6094 42.8438
Q40.5312 48.4844 33.4062 48.4844
Q26.2656 48.4844 22.1875 42.8438
Q18.1094 37.2031 18.1094 27.2969
Q18.1094 17.3906 22.1875 11.75
Q26.2656 6.10938 33.4062 6.10938
Q40.5312 6.10938 44.6094 11.75
Q48.6875 17.3906 48.6875 27.2969" id="DejaVuSans-70"/>
      </defs>
      <g transform="translate(142.596222178 401.918125)scale(0.12 -0.12)">
       <use xlink:href="#DejaVuSans-41"/>
       <use x="68.408203125" xlink:href="#DejaVuSans-70"/>
       <use x="131.884765625" xlink:href="#DejaVuSans-72"/>
       <use x="172.998046875" xlink:href="#DejaVuSans-20"/>
       <use x="204.78515625" xlink:href="#DejaVuSans-32"/>
       <use x="268.408203125" xlink:href="#DejaVuSans-30"/>
       <use x="332.03125" xlink:href="#DejaVuSans-31"/>
       <use x="395.654296875" xlink:href="#DejaVuSans-34"/>
      </g>
     </g>
    </g>
    <g id="xtick_4">
     <g id="line2d_9">
      <g>
       <use style="stroke:#000000;stroke-width:0.5;" x="211.645018338" xlink:href="#m93b0483c22" y="388.8"/>
      </g>
     </g>
     <g id="line2d_10">
      <g>
       <use style="stroke:#000000;stroke-width:0.5;" x="211.645018338" xlink:href="#m741efc42ff" y="43.2"/>
      </g>
     </g>
     <g id="text_4">
      <!-- Jul 2014 -->
      <defs>
       <path d="
M8.5 21.5781
L8.5 54.6875
L17.4844 54.6875
L17.4844 21.9219
Q17.4844 14.1562 20.5 10.2656
Q23.5312 6.39062 29.5938 6.39062
Q36.8594 6.39062 41.0781 11.0312
Q45.3125 15.6719 45.3125 23.6875
L45.3125 54.6875
L54.2969 54.6875
L54.2969 0
L45.3125 0
L45.3125 8.40625
Q42.0469 3.42188 37.7188 1
Q33.4062 -1.42188 27.6875 -1.42188
Q18.2656 -1.42188 13.375 4.4375
Q8.5 10.2969 8.5 21.5781
M31.1094 56
z
" id="DejaVuSans-75"/>
       <path d="
M9.42188 75.9844
L18.4062 75.9844
L18.4062 0
L9.42188 0
z
" id="DejaVuSans-6c"/>
      </defs>
      <g transform="translate(187.255018338 401.918125)scale(0.12 -0.12)">
       <use xlink:href="#DejaVuSans-4a"/>
       <use x="29.4921875" xlink:href="#DejaVuSans-75"/>
       <use x="92.87109375" xlink:href="#DejaVuSans-6c"/>
       <use x="120.654296875" xlink:href="#DejaVuSans-20"/>
       <use x="152.44140625" xlink:href="#DejaVuSans-32"/>
       <use x="216.064453125" xlink:href="#DejaVuSans-30"/>
       <use x="279.6875" xlink:href="#DejaVuSans-31"/>
       <use x="343.310546875" xlink:href="#DejaVuSans-34"/>
      </g>
     </g>
    </g>
    <g id="xtick_5">
     <g id="line2d_11">
      <g>
       <use style="stroke:#000000;stroke-width:0.5;" x="253.933155664" xlink:href="#m93b0483c22" y="388.8"/>
      </g>
     </g>
     <g id="line2d_12">
      <g>
       <use style="stroke:#000000;stroke-width:0.5;" x="253.933155664" xlink:href="#m741efc42ff" y="43.2"/>
      </g>
     </g>
     <g id="text_5">
      <!-- Oct 2014 -->
      <g transform="translate(226.718468164 401.918125)scale(0.12 -0.12)">
       <use xlink:href="#DejaVuSans-4f"/>
       <use x="78.7109375" xlink:href="#DejaVuSans-63"/>
       <use x="133.69140625" xlink:href="#DejaVuSans-74"/>
       <use x="172.900390625" xlink:href="#DejaVuSans-20"/>
       <use x="204.6875" xlink:href="#DejaVuSans-32"/>
       <use x="268.310546875" xlink:href="#DejaVuSans-30"/>
       <use x="331.93359375" xlink:href="#DejaVuSans-31"/>
       <use x="395.556640625" xlink:href="#DejaVuSans-34"/>
      </g>
     </g>
    </g>
    <g id="xtick_6">
     <g id="line2d_13">
      <g>
       <use style="stroke:#000000;stroke-width:0.5;" x="296.22129299" xlink:href="#m93b0483c22" y="388.8"/>
      </g>
     </g>
     <g id="line2d_14">
      <g>
       <use style="stroke:#000000;stroke-width:0.5;" x="296.22129299" xlink:href="#m741efc42ff" y="43.2"/>
      </g>
     </g>
     <g id="text_6">
      <!-- Jan 2015 -->
      <defs>
       <path d="
M10.7969 72.9062
L49.5156 72.9062
L49.5156 64.5938
L19.8281 64.5938
L19.8281 46.7344
Q21.9688 47.4688 24.1094 47.8281
Q26.2656 48.1875 28.4219 48.1875
Q40.625 48.1875 47.75 41.5
Q54.8906 34.8125 54.8906 23.3906
Q54.8906 11.625 47.5625 5.09375
Q40.2344 -1.42188 26.9062 -1.42188
Q22.3125 -1.42188 17.5469 -0.640625
Q12.7969 0.140625 7.71875 1.70312
L7.71875 11.625
Q12.1094 9.23438 16.7969 8.0625
Q21.4844 6.89062 26.7031 6.89062
Q35.1562 6.89062 40.0781 11.3281
Q45.0156 15.7656 45.0156 23.3906
Q45.0156 31 40.0781 35.4375
Q35.1562 39.8906 26.7031 39.8906
Q22.75 39.8906 18.8125 39.0156
Q14.8906 38.1406 10.7969 36.2812
z
" id="DejaVuSans-35"/>
      </defs>
      <g transform="translate(270.00879299 401.918125)scale(0.12 -0.12)">
       <use xlink:href="#DejaVuSans-4a"/>
       <use x="29.4921875" xlink:href="#DejaVuSans-61"/>
       <use x="90.771484375" xlink:href="#DejaVuSans-6e"/>
       <use x="154.150390625" xlink:href="#DejaVuSans-20"/>
       <use x="185.9375" xlink:href="#DejaVuSans-32"/>
       <use x="249.560546875" xlink:href="#DejaVuSans-30"/>
       <use x="313.18359375" xlink:href="#DejaVuSans-31"/>
       <use x="376.806640625" xlink:href="#DejaVuSans-35"/>
      </g>
     </g>
    </g>
    <g id="xtick_7">
     <g id="line2d_15">
      <g>
       <use style="stroke:#000000;stroke-width:0.5;" x="337.590122984" xlink:href="#m93b0483c22" y="388.8"/>
      </g>
     </g>
     <g id="line2d_16">
      <g>
       <use style="stroke:#000000;stroke-width:0.5;" x="337.590122984" xlink:href="#m741efc42ff" y="43.2"/>
      </g>
     </g>
     <g id="text_7">
      <!-- Apr 2015 -->
      <g transform="translate(310.557310484 401.918125)scale(0.12 -0.12)">
       <use xlink:href="#DejaVuSans-41"/>
       <use x="68.408203125" xlink:href="#DejaVuSans-70"/>
       <use x="131.884765625" xlink:href="#DejaVuSans-72"/>
       <use x="172.998046875" xlink:href="#DejaVuSans-20"/>
       <use x="204.78515625" xlink:href="#DejaVuSans-32"/>
       <use x="268.408203125" xlink:href="#DejaVuSans-30"/>
       <use x="332.03125" xlink:href="#DejaVuSans-31"/>
       <use x="395.654296875" xlink:href="#DejaVuSans-35"/>
      </g>
     </g>
    </g>
    <g id="xtick_8">
     <g id="line2d_17">
      <g>
       <use style="stroke:#000000;stroke-width:0.5;" x="379.418606643" xlink:href="#m93b0483c22" y="388.8"/>
      </g>
     </g>
     <g id="line2d_18">
      <g>
       <use style="stroke:#000000;stroke-width:0.5;" x="379.418606643" xlink:href="#m741efc42ff" y="43.2"/>
      </g>
     </g>
     <g id="text_8">
      <!-- Jul 2015 -->
      <g transform="translate(355.216106643 401.918125)scale(0.12 -0.12)">
       <use xlink:href="#DejaVuSans-4a"/>
       <use x="29.4921875" xlink:href="#DejaVuSans-75"/>
       <use x="92.87109375" xlink:href="#DejaVuSans-6c"/>
       <use x="120.654296875" xlink:href="#DejaVuSans-20"/>
       <use x="152.44140625" xlink:href="#DejaVuSans-32"/>
       <use x="216.064453125" xlink:href="#DejaVuSans-30"/>
       <use x="279.6875" xlink:href="#DejaVuSans-31"/>
       <use x="343.310546875" xlink:href="#DejaVuSans-35"/>
      </g>
     </g>
    </g>
    <g id="xtick_9">
     <g id="line2d_19">
      <g>
       <use style="stroke:#000000;stroke-width:0.5;" x="421.70674397" xlink:href="#m93b0483c22" y="388.8"/>
      </g>
     </g>
     <g id="line2d_20">
      <g>
       <use style="stroke:#000000;stroke-width:0.5;" x="421.70674397" xlink:href="#m741efc42ff" y="43.2"/>
      </g>
     </g>
     <g id="text_9">
      <!-- Oct 2015 -->
      <g transform="translate(394.67955647 401.918125)scale(0.12 -0.12)">
       <use xlink:href="#DejaVuSans-4f"/>
       <use x="78.7109375" xlink:href="#DejaVuSans-63"/>
       <use x="133.69140625" xlink:href="#DejaVuSans-74"/>
       <use x="172.900390625" xlink:href="#DejaVuSans-20"/>
       <use x="204.6875" xlink:href="#DejaVuSans-32"/>
       <use x="268.310546875" xlink:href="#DejaVuSans-30"/>
       <use x="331.93359375" xlink:href="#DejaVuSans-31"/>
       <use x="395.556640625" xlink:href="#DejaVuSans-35"/>
      </g>
     </g>
    </g>
    <g id="xtick_10">
     <g id="line2d_21">
      <g>
       <use style="stroke:#000000;stroke-width:0.5;" x="463.994881296" xlink:href="#m93b0483c22" y="388.8"/>
      </g>
     </g>
     <g id="line2d_22">
      <g>
       <use style="stroke:#000000;stroke-width:0.5;" x="463.994881296" xlink:href="#m741efc42ff" y="43.2"/>
      </g>
     </g>
     <g id="text_10">
      <!-- Jan 2016 -->
      <defs>
       <path d="
M33.0156 40.375
Q26.375 40.375 22.4844 35.8281
Q18.6094 31.2969 18.6094 23.3906
Q18.6094 15.5312 22.4844 10.9531
Q26.375 6.39062 33.0156 6.39062
Q39.6562 6.39062 43.5312 10.9531
Q47.4062 15.5312 47.4062 23.3906
Q47.4062 31.2969 43.5312 35.8281
Q39.6562 40.375 33.0156 40.375
M52.5938 71.2969
L52.5938 62.3125
Q48.875 64.0625 45.0938 64.9844
Q41.3125 65.9219 37.5938 65.9219
Q27.8281 65.9219 22.6719 59.3281
Q17.5312 52.7344 16.7969 39.4062
Q19.6719 43.6562 24.0156 45.9219
Q28.375 48.1875 33.5938 48.1875
Q44.5781 48.1875 50.9531 41.5156
Q57.3281 34.8594 57.3281 23.3906
Q57.3281 12.1562 50.6875 5.35938
Q44.0469 -1.42188 33.0156 -1.42188
Q20.3594 -1.42188 13.6719 8.26562
Q6.98438 17.9688 6.98438 36.375
Q6.98438 53.6562 15.1875 63.9375
Q23.3906 74.2188 37.2031 74.2188
Q40.9219 74.2188 44.7031 73.4844
Q48.4844 72.75 52.5938 71.2969" id="DejaVuSans-36"/>
      </defs>
      <g transform="translate(437.636131296 401.918125)scale(0.12 -0.12)">
       <use xlink:href="#DejaVuSans-4a"/>
       <use x="29.4921875" xlink:href="#DejaVuSans-61"/>
       <use x="90.771484375" xlink:href="#DejaVuSans-6e"/>
       <use x="154.150390625" xlink:href="#DejaVuSans-20"/>
       <use x="185.9375" xlink:href="#DejaVuSans-32"/>
       <use x="249.560546875" xlink:href="#DejaVuSans-30"/>
       <use x="313.18359375" xlink:href="#DejaVuSans-31"/>
       <use x="376.806640625" xlink:href="#DejaVuSans-36"/>
      </g>
     </g>
    </g>
    <g id="xtick_11">
     <g id="line2d_23">
      <g>
       <use style="stroke:#000000;stroke-width:0.5;" x="505.823364956" xlink:href="#m93b0483c22" y="388.8"/>
      </g>
     </g>
     <g id="line2d_24">
      <g>
       <use style="stroke:#000000;stroke-width:0.5;" x="505.823364956" xlink:href="#m741efc42ff" y="43.2"/>
      </g>
     </g>
     <g id="text_11">
      <!-- Apr 2016 -->
      <g transform="translate(478.644302456 401.918125)scale(0.12 -0.12)">
       <use xlink:href="#DejaVuSans-41"/>
       <use x="68.408203125" xlink:href="#DejaVuSans-70"/>
       <use x="131.884765625" xlink:href="#DejaVuSans-72"/>
       <use x="172.998046875" xlink:href="#DejaVuSans-20"/>
       <use x="204.78515625" xlink:href="#DejaVuSans-32"/>
       <use x="268.408203125" xlink:href="#DejaVuSans-30"/>
       <use x="332.03125" xlink:href="#DejaVuSans-31"/>
       <use x="395.654296875" xlink:href="#DejaVuSans-36"/>
      </g>
     </g>
    </g>
   </g>
   <g id="matplotlib.axis_2">
    <g id="ytick_1">
     <g id="line2d_25">
      <defs>
       <path d="
M0 0
L4 0" id="m728421d6d4" style="stroke:#000000;stroke-width:0.5;"/>
      </defs>
      <g>
       <use style="stroke:#000000;stroke-width:0.5;" x="72.0" xlink:href="#m728421d6d4" y="388.8"/>
      </g>
     </g>
     <g id="line2d_26">
      <defs>
       <path d="
M0 0
L-4 0" id="mcb0005524f" style="stroke:#000000;stroke-width:0.5;"/>
      </defs>
      <g>
       <use style="stroke:#000000;stroke-width:0.5;" x="518.4" xlink:href="#mcb0005524f" y="388.8"/>
      </g>
     </g>
     <g id="text_12">
      <!-- 20 -->
      <g transform="translate(54.40625 392.11125)scale(0.12 -0.12)">
       <use xlink:href="#DejaVuSans-32"/>
       <use x="63.623046875" xlink:href="#DejaVuSans-30"/>
      </g>
     </g>
    </g>
    <g id="ytick_2">
     <g id="line2d_27">
      <g>
       <use style="stroke:#000000;stroke-width:0.5;" x="72.0" xlink:href="#m728421d6d4" y="339.428571429"/>
      </g>
     </g>
     <g id="line2d_28">
      <g>
       <use style="stroke:#000000;stroke-width:0.5;" x="518.4" xlink:href="#mcb0005524f" y="339.428571429"/>
      </g>
     </g>
     <g id="text_13">
      <!-- 40 -->
      <g transform="translate(54.11375 342.739821429)scale(0.12 -0.12)">
       <use xlink:href="#DejaVuSans-34"/>
       <use x="63.623046875" xlink:href="#DejaVuSans-30"/>
      </g>
     </g>
    </g>
    <g id="ytick_3">
     <g id="line2d_29">
      <g>
       <use style="stroke:#000000;stroke-width:0.5;" x="72.0" xlink:href="#m728421d6d4" y="290.057142857"/>
      </g>
     </g>
     <g id="line2d_30">
      <g>
       <use style="stroke:#000000;stroke-width:0.5;" x="518.4" xlink:href="#mcb0005524f" y="290.057142857"/>
      </g>
     </g>
     <g id="text_14">
      <!-- 60 -->
      <g transform="translate(54.365 293.368392857)scale(0.12 -0.12)">
       <use xlink:href="#DejaVuSans-36"/>
       <use x="63.623046875" xlink:href="#DejaVuSans-30"/>
      </g>
     </g>
    </g>
    <g id="ytick_4">
     <g id="line2d_31">
      <g>
       <use style="stroke:#000000;stroke-width:0.5;" x="72.0" xlink:href="#m728421d6d4" y="240.685714286"/>
      </g>
     </g>
     <g id="line2d_32">
      <g>
       <use style="stroke:#000000;stroke-width:0.5;" x="518.4" xlink:href="#mcb0005524f" y="240.685714286"/>
      </g>
     </g>
     <g id="text_15">
      <!-- 80 -->
      <defs>
       <path d="
M31.7812 34.625
Q24.75 34.625 20.7188 30.8594
Q16.7031 27.0938 16.7031 20.5156
Q16.7031 13.9219 20.7188 10.1562
Q24.75 6.39062 31.7812 6.39062
Q38.8125 6.39062 42.8594 10.1719
Q46.9219 13.9688 46.9219 20.5156
Q46.9219 27.0938 42.8906 30.8594
Q38.875 34.625 31.7812 34.625
M21.9219 38.8125
Q15.5781 40.375 12.0312 44.7188
Q8.5 49.0781 8.5 55.3281
Q8.5 64.0625 14.7188 69.1406
Q20.9531 74.2188 31.7812 74.2188
Q42.6719 74.2188 48.875 69.1406
Q55.0781 64.0625 55.0781 55.3281
Q55.0781 49.0781 51.5312 44.7188
Q48 40.375 41.7031 38.8125
Q48.8281 37.1562 52.7969 32.3125
Q56.7812 27.4844 56.7812 20.5156
Q56.7812 9.90625 50.3125 4.23438
Q43.8438 -1.42188 31.7812 -1.42188
Q19.7344 -1.42188 13.25 4.23438
Q6.78125 9.90625 6.78125 20.5156
Q6.78125 27.4844 10.7812 32.3125
Q14.7969 37.1562 21.9219 38.8125
M18.3125 54.3906
Q18.3125 48.7344 21.8438 45.5625
Q25.3906 42.3906 31.7812 42.3906
Q38.1406 42.3906 41.7188 45.5625
Q45.3125 48.7344 45.3125 54.3906
Q45.3125 60.0625 41.7188 63.2344
Q38.1406 66.4062 31.7812 66.4062
Q25.3906 66.4062 21.8438 63.2344
Q18.3125 60.0625 18.3125 54.3906" id="DejaVuSans-38"/>
      </defs>
      <g transform="translate(54.340625 243.996964286)scale(0.12 -0.12)">
       <use xlink:href="#DejaVuSans-38"/>
       <use x="63.623046875" xlink:href="#DejaVuSans-30"/>
      </g>
     </g>
    </g>
    <g id="ytick_5">
     <g id="line2d_33">
      <g>
       <use style="stroke:#000000;stroke-width:0.5;" x="72.0" xlink:href="#m728421d6d4" y="191.314285714"/>
      </g>
     </g>
     <g id="line2d_34">
      <g>
       <use style="stroke:#000000;stroke-width:0.5;" x="518.4" xlink:href="#mcb0005524f" y="191.314285714"/>
      </g>
     </g>
     <g id="text_16">
      <!-- 100 -->
      <g transform="translate(47.21 194.625535714)scale(0.12 -0.12)">
       <use xlink:href="#DejaVuSans-31"/>
       <use x="63.623046875" xlink:href="#DejaVuSans-30"/>
       <use x="127.24609375" xlink:href="#DejaVuSans-30"/>
      </g>
     </g>
    </g>
    <g id="ytick_6">
     <g id="line2d_35">
      <g>
       <use style="stroke:#000000;stroke-width:0.5;" x="72.0" xlink:href="#m728421d6d4" y="141.942857143"/>
      </g>
     </g>
     <g id="line2d_36">
      <g>
       <use style="stroke:#000000;stroke-width:0.5;" x="518.4" xlink:href="#mcb0005524f" y="141.942857143"/>
      </g>
     </g>
     <g id="text_17">
      <!-- 120 -->
      <g transform="translate(47.21 145.254107143)scale(0.12 -0.12)">
       <use xlink:href="#DejaVuSans-31"/>
       <use x="63.623046875" xlink:href="#DejaVuSans-32"/>
       <use x="127.24609375" xlink:href="#DejaVuSans-30"/>
      </g>
     </g>
    </g>
    <g id="ytick_7">
     <g id="line2d_37">
      <g>
       <use style="stroke:#000000;stroke-width:0.5;" x="72.0" xlink:href="#m728421d6d4" y="92.5714285714"/>
      </g>
     </g>
     <g id="line2d_38">
      <g>
       <use style="stroke:#000000;stroke-width:0.5;" x="518.4" xlink:href="#mcb0005524f" y="92.5714285714"/>
      </g>
     </g>
     <g id="text_18">
      <!-- 140 -->
      <g transform="translate(47.21 95.8826785714)scale(0.12 -0.12)">
       <use xlink:href="#DejaVuSans-31"/>
       <use x="63.623046875" xlink:href="#DejaVuSans-34"/>
       <use x="127.24609375" xlink:href="#DejaVuSans-30"/>
      </g>
     </g>
    </g>
    <g id="ytick_8">
     <g id="line2d_39">
      <g>
       <use style="stroke:#000000;stroke-width:0.5;" x="72.0" xlink:href="#m728421d6d4" y="43.2"/>
      </g>
     </g>
     <g id="line2d_40">
      <g>
       <use style="stroke:#000000;stroke-width:0.5;" x="518.4" xlink:href="#mcb0005524f" y="43.2"/>
      </g>
     </g>
     <g id="text_19">
      <!-- 160 -->
      <g transform="translate(47.21 46.51125)scale(0.12 -0.12)">
       <use xlink:href="#DejaVuSans-31"/>
       <use x="63.623046875" xlink:href="#DejaVuSans-36"/>
       <use x="127.24609375" xlink:href="#DejaVuSans-30"/>
      </g>
     </g>
    </g>
   </g>
   <g id="patch_3">
    <path d="
M72 43.2
L518.4 43.2" style="fill:none;stroke:#000000;"/>
   </g>
   <g id="patch_4">
    <path d="
M518.4 388.8
L518.4 43.2" style="fill:none;stroke:#000000;"/>
   </g>
   <g id="patch_5">
    <path d="
M72 388.8
L518.4 388.8" style="fill:none;stroke:#000000;"/>
   </g>
   <g id="patch_6">
    <path d="
M72 388.8
L72 43.2" style="fill:none;stroke:#000000;"/>
   </g>
  </g>
 </g>
 <defs>
  <clipPath id="p7ff5b81e1d">
   <rect height="345.6" width="446.4" x="72.0" y="43.2"/>
  </clipPath>
 </defs>
</svg>
