<?xml version="1.0" encoding="utf-8" standalone="no"?>
<!DOCTYPE svg PUBLIC "-//W3C//DTD SVG 1.1//EN"
  "http://www.w3.org/Graphics/SVG/1.1/DTD/svg11.dtd">
<!-- Created with matplotlib (http://matplotlib.org/) -->
<svg height="432pt" version="1.1" viewBox="0 0 576 432" width="576pt" xmlns="http://www.w3.org/2000/svg" xmlns:xlink="http://www.w3.org/1999/xlink">
 <defs>
  <style type="text/css">
*{stroke-linecap:butt;stroke-linejoin:round;}
  </style>
 </defs>
 <g id="figure_1">
  <g id="patch_1">
   <path d="
M0 432
L576 432
L576 0
L0 0
z
" style="fill:#ffffff;"/>
  </g>
  <g id="axes_1">
   <g id="patch_2">
    <path d="
M72 388.8
L518.4 388.8
L518.4 43.2
L72 43.2
z
" style="fill:#ffffff;"/>
   </g>
   <g id="line2d_1">
    <path clip-path="url(#p7ff5b81e1d)" d="
M72 388.306
L72.392 353.264
L72.7028 324.555
L74.0655 335.09
L74.5202 318.445
L75.9077 314.938
L75.9106 293.996
L77.314 287.091
L77.9615 278.23
L79.5854 277.52
L81.8934 289.758
L81.8943 275.818
L82.2956 264.511
L83.1578 255.96
L84.6229 254.165
L86.0722 250.319
L86.8692 243.785
L86.9354 234.752
L87.495 227.66
L87.5059 216.331
L90.8727 223.615
L91.272 208.531
L91.272 198.671
L92.16 195.886
L92.16 186.355
L94.4247 192.723
L95.1527 174.163
L96.4686 178.454
L96.5879 171.392
L97.0025 166.144
L98.1686 172.103
L98.2869 165.835
L99.7324 164.585
L99.7985 161.548
L99.7985 146.728
L101.189 146.156
L102.953 145.886
L104.453 146.701
L108.969 173.567
L109.402 169.074
L109.661 163.836
L110.69 165.421
L111.277 163.802
L112.16 162.613
L112.788 159.827
L112.788 154.165
L113.096 150.417
L113.096 144.975
L113.542 142.151
L115.871 148.527
L115.871 143.222
L116.631 143.901
L116.719 139.502
L118.574 142.996
L119.547 145.391
L121.976 153.771
L123.642 155.703
L123.966 153.058
L124.046 136.485
L124.393 134.99
L125.236 134.144
L125.327 130.083
L126.792 131.966
L126.819 128.11
L127.093 125.402
L127.164 119.772
L127.328 119.831
L127.592 120.764
L127.677 115.116
L128.033 116.794
L128.511 122.223
L129.559 126.293
L129.559 122.447
L129.92 121.712
L129.968 115.068
L133.304 148.944
L134.047 151.087
L134.047 147.819
L134.27 147.672
L134.439 142.316
L134.886 143.229
L135.11 141.757
L135.144 138.706
L136.613 142.091
L136.613 138.967
L137.993 144.164
L138.506 146.757
L138.551 141.32
L138.8 140.959
L139.676 142.37
L139.676 139.481
L140.483 139.883
L140.838 138.717
L141.371 139.769
L142.386 144.824
L142.786 145.238
L142.867 140.499
L143.172 139.786
L143.483 135.516
L143.841 134.946
L143.841 132.297
L144.133 131.125
L144.192 128.912
L144.424 128.572
L145.119 129.707
L145.602 129.072
L146.438 130.969
L146.972 130.739
L147.111 129.286
L147.273 118.554
L148.003 122.947
L148.576 121.385
L148.653 119.461
L149.549 121.569
L149.65 117.651
L150.174 115.345
L150.733 117.252
L150.929 115.224
L151.434 115.018
L151.511 111.063
L151.563 109.083
L152.728 109.347
L154.565 114.678
L154.985 114.573
L155.238 114.191
L155.553 112.809
L156.613 115.716
L156.641 113.769
L159.772 124.221
L160.149 122.866
L160.225 119.321
L161.166 122.008
L161.519 121.696
L161.943 120.843
L162.927 121.613
L162.989 118.164
L164.38 121.183
L164.38 119.244
L165.273 121.327
L165.273 119.388
L166.439 121.474
L167.804 124.333
L168.048 123.251
L168.773 123.156
L169.317 122.882
L169.441 121.585
L169.441 117.873
L169.813 115.603
L169.813 113.766
L170.205 113.249
L170.205 111.413
L171.045 112.855
L172.896 117.436
L172.992 116.069
L174.74 119.795
L175.349 120.532
L175.755 118.294
L175.774 114.935
L176.18 114.419
L176.567 114.586
L177.025 115.227
L177.612 116.363
L178.003 116.065
L178.962 116.35
L179.444 115.058
L180.246 114.723
L180.44 114.149
L181.616 117.181
L182.05 117.177
L184.088 123.767
L184.997 125.592
L185.372 125.389
L186.856 128.872
L186.856 127.363
L187.239 127.082
L188.184 128.429
L188.464 127.725
L188.464 124.73
L189.447 124.668
L189.469 123.21
L190.493 126.053
L190.741 125.141
L193.69 133.003
L193.886 132.059
L193.953 129.546
L194.144 129.044
L194.53 128.677
L194.85 128.216
L196.625 133.736
L197.811 135.615
L198.033 134.938
L198.062 132.343
L198.329 130.443
L198.634 130.142
L199.212 130.717
L200.82 133.798
L204.018 141.967
L204.122 137.121
L204.225 134.964
L204.591 134.816
L206.504 137.667
L206.996 137.662
L209.964 144.791
L210.01 142.698
L211.112 144.222
L211.143 143.159
L211.928 143.998
L212.69 144.152
L212.723 143.116
L213.167 143.073
L214.186 144.148
L214.643 143.089
L214.643 141.97
L214.813 141.478
L214.813 140.327
L215.057 139.551
L215.567 140.671
L215.653 139.766
L216.062 139.507
L216.389 139.032
L216.861 139.484
L217.567 140.856
L217.715 139.884
L218.65 140.194
L218.86 138.695
L219.128 137.964
L219.586 138.029
L220.516 139.116
L220.602 137.007
L220.674 134.996
L222.063 137.665
L222.425 137.977
L222.769 137.633
L223.337 137.9
L223.905 138.498
L224.692 139.108
L224.888 138.818
L225.981 140.492
L226.048 139.586
L226.43 139.354
L226.612 137.008
L226.711 135.28
L227.327 135.397
L229.751 139.648
L229.899 139.354
L231.24 141.379
L231.78 141.498
L232.19 141.329
L233.517 143.153
L233.551 141.425
L234.017 141.787
L234.066 141.01
L234.824 141.407
L235.793 142.807
L236.213 142.616
L237.549 144.227
L237.692 143.786
L237.994 143.389
L238.58 143.697
L238.67 141.43
L239.42 141.689
L239.42 140.738
L239.535 139.961
L239.88 139.907
L240.327 139.683
L240.332 138.756
L241.706 141.246
L241.706 140.337
L241.849 139.665
L242.565 140.12
L243.086 139.413
L243.472 139.295
L243.636 138.668
L245.195 140.79
L245.324 140.096
L245.353 138.342
L245.436 137.73
L245.436 136.828
L246.121 137.235
L246.164 135.551
L246.704 135.81
L246.789 135.24
L247.753 136.324
L248.226 135.576
L248.249 134.731
L249.175 135.997
L250.094 136.806
L250.364 136.299
L251.213 137.057
L253.757 141.816
L254.646 142.735
L254.649 142.045
L256.821 146.483
L257.359 146.88
L257.849 146.074
L257.849 145.393
L258.31 145.148
L258.339 144.581
L258.606 144.204
L259.177 144.627
L259.737 144.898
L259.904 144.193
L260.174 144.088
L261.027 145.153
L261.546 144.196
L261.546 143.39
L261.965 143.511
L262.955 144.733
L263.353 144.464
L263.401 143.234
L263.555 142.558
L263.665 140.306
L263.826 140.057
L264.321 140.41
L264.624 140.318
L265.197 140.638
L266.409 142.029
L267.034 141.864
L269.067 144.228
L269.072 142.687
L269.362 141.924
L269.473 141.186
L269.76 140.938
L272.503 144.775
L273.615 145.488
L273.897 145.097
L274.875 146.478
L275.596 147.246
L275.725 146.72
L275.745 145.37
L275.944 145.051
L276.7 146.012
L277.147 146.01
L277.548 146.186
L278.187 146.597
L279.156 147.783
L279.552 148.005
L279.942 147.687
L280.029 147.117
L280.488 147.463
L280.488 146.745
L281.418 147.854
L282.387 148.539
L282.583 147.584
L283.003 147.657
L283.241 147.31
L283.938 147.851
L284.325 147.758
L284.835 148.05
L285.279 147.904
L285.332 147.342
L285.666 147.157
L286.153 147.194
L286.687 147.622
L286.897 147.191
L288.42 149.108
L288.552 148.726
L289.011 148.802
L289.231 148.403
L290.686 149.97
L290.854 149.688
L291.226 148.176
L291.655 147.996
L292.004 147.672
L292.385 147.493
L293.917 149.185
L294.805 149.784
L295.163 149.774
L295.163 149.113
L295.615 148.947
L297.296 150.582
L297.711 150.457
L297.745 149.848
L298.117 149.742
L298.117 149.09
L299.73 150.788
L300.671 151.482
L301.191 151.425
L301.891 151.889
L302.742 151.561
L302.766 150.95
L305.414 154.181
L306.192 154.618
L306.192 153.99
L306.827 154.11
L306.91 152.282
L308.094 153.311
L308.692 153.276
L309.194 153.386
L309.194 152.774
L309.337 152.257
L310.865 153.779
L310.865 153.164
L311.038 152.77
L311.7 152.403
L312.201 152.57
L312.201 151.954
L312.398 151.801
L312.398 150.57
L312.669 150.356
L312.759 149.971
L312.864 147.221
L313.518 147.408
L313.728 146.049
L314.85 146.963
L315.122 146.966
L315.122 145.754
L315.79 146.155
L316.262 146.168
L316.414 145.975
L316.496 144.89
L317.766 145.173
L317.766 144.579
L318.109 144.519
L318.524 143.925
L318.524 143.343
L318.806 143.538
L318.839 143.021
L319.14 142.172
L319.298 141.285
L319.441 140.836
L319.66 140.897
L319.737 139.992
L320.853 140.962
L321.512 140.962
L322.047 141.545
L322.28 141.312
L322.409 140.462
L322.7 140.245
L322.782 139.851
L322.944 139.739
L322.944 138.585
L323.33 138.785
L323.354 137.7
L323.631 137.566
L323.808 137.304
L323.855 136.811
L324.729 137.256
L325.426 137.737
L325.855 137.771
L325.86 137.214
L326.285 136.684
L326.52 136.437
L326.79 136.381
L326.915 135.523
L327.716 136.233
L327.988 136.08
L327.988 135.517
L328.661 136.211
L328.676 135.745
L329.95 137.194
L330.136 135.288
L331.148 134.205
L332.766 135.799
L332.804 135.399
L333.521 136.274
L334.135 136.598
L334.259 136.391
L334.259 135.848
L334.379 135.516
L334.79 135.658
L335.066 135.529
L335.303 135.265
L335.495 135.01
L335.495 133.937
L335.624 133.598
L336.579 134.618
L336.773 134.488
L337.105 134.629
L337.105 134.098
L337.452 134.096
L337.68 133.979
L338.027 132.744
L340.149 136.116
L340.182 135.17
L340.559 135.3
L340.993 135.731
L340.993 135.213
L341.557 135.941
L341.6 135.539
L341.937 135.625
L341.937 134.091
L342.053 133.849
L342.11 132.913
L342.706 133.207
L342.931 131.934
L343.279 131.88
L343.578 132.108
L343.843 131.544
L343.986 131.351
L343.991 130.854
L344.649 130.69
L344.649 130.184
L344.916 130.448
L345.141 130.283
L345.623 130.556
L345.649 130.071
L346.72 130.833
L346.72 130.333
L348.09 131.584
L349.193 132.136
L349.307 131.99
L349.417 130.762
L349.417 130.266
L349.684 129.908
L350.147 130.082
L350.204 129.692
L350.443 129.628
L351.627 130.95
L351.627 130.462
L352.027 130.478
L352.047 130.001
L352.19 129.741
L354.767 132.361
L355.65 133.579
L355.65 133.099
L356.332 133.518
L357.185 134.331
L357.185 133.861
L357.525 133.81
L358.571 134.685
L359.573 134.927
L359.872 134.866
L360.26 134.904
L361.577 136.029
L361.687 135.843
L361.768 134.992
L361.773 134.529
L362.245 134.112
L362.479 133.789
L363.009 133.881
L363.133 133.626
L363.419 133.664
L363.458 133.262
L363.925 133.272
L364.026 133.003
L364.159 131.862
L364.393 131.695
L366.192 133.548
L366.245 133.193
L367.085 134.245
L367.17 134.009
L367.333 133.936
L367.571 133.691
L367.653 132.95
L368.006 133.029
L368.006 132.58
L368.588 133.098
L368.664 132.875
L368.669 132.43
L369.605 133.656
L369.962 133.836
L370.053 133.102
L370.33 132.963
L370.564 133.221
L370.783 133.016
L370.783 132.574
L371.265 132.825
L371.652 132.898
L371.953 133.1
L372.282 133.127
L373.342 133.982
L373.342 133.544
L373.571 133.36
L373.637 132.614
L374.229 133.115
L374.52 133.042
L374.525 132.631
L375.556 134
L375.556 133.571
L376.028 133.778
L376.453 133.169
L376.453 132.737
L377.598 133.666
L377.598 133.235
L377.77 133.035
L378.114 133.008
L379.083 133.885
L379.272 133.7
L379.942 134.207
L380.032 133.052
L380.81 133.629
L380.815 132.795
L380.968 132.737
L381.054 132.526
L381.054 132.104
L381.479 132.364
L381.521 131.569
L381.994 132.055
L382.29 132.129
L382.371 131.467
L382.416 131.12
L382.781 131.2
L382.791 130.901
L382.934 130.787
L383.32 130.801
L383.354 130.533
L383.831 130.885
L384.275 130.74
L384.295 130.376
L384.652 130.291
L384.667 129.893
L385.16 129.401
L386.905 130.214
L388.316 131.013
L388.43 130.793
L388.889 130.795
L389.081 130.541
L390.632 131.551
L390.985 131.397
L391.086 131.141
L391.105 130.783
L391.563 130.745
L393.372 131.342
L393.672 131.188
L394.379 131.511
L394.574 131.185
L395.099 131.397
L395.476 131.369
L395.476 130.97
L395.763 130.899
L396.393 130.956
L397.758 131.693
L397.758 131.292
L397.925 131.08
L398.268 131.008
L398.268 130.608
L398.683 130.665
L398.85 129.619
L398.927 129.312
L399.18 129.036
L399.27 128.332
L400.99 129.439
L401.276 129.424
L402.575 129.84
L403.364 129.922
L404.318 130.186
L404.363 129.43
L405.377 129.515
L405.642 129.305
L405.642 128.911
L406.049 128.88
L406.049 128.491
L407.379 129.142
L407.532 128.179
L407.901 128.131
L408.963 128.682
L409.447 128.634
L409.523 127.573
L410.242 127.627
L410.395 127.36
L410.688 127.111
L412.088 127.419
L412.12 127.073
L413.061 127.522
L413.15 127.212
L413.863 127.538
L413.908 127.241
L415.868 128.441
L415.887 128.091
L416.192 127.888
L416.211 127.524
L417.662 128.152
L418.114 128.248
L418.177 127.919
L420.322 129.054
L420.36 128.699
L420.494 128.519
L420.825 128.422
L420.952 128.175
L421.321 128.117
L421.436 127.138
L421.44 126.772
L421.709 126.644
L422.11 126.679
L422.161 125.984
L422.511 125.916
L422.562 125.239
L422.74 125.124
L422.765 124.415
L423.427 124.51
L423.446 123.787
L423.955 123.798
L425.018 124.533
L425.101 124.28
L425.362 124.049
L425.387 123.712
L425.75 123.672
L425.928 123.531
L425.998 123.261
L426.354 123.24
L427.64 124.151
L427.716 123.5
L429.078 123.95
L429.078 123.582
L430.312 124.304
L430.331 123.964
L430.802 124.163
L431 123.72
L431.381 123.802
L431.509 122.186
L431.509 121.823
L431.7 121.549
L432.12 121.659
L432.202 120.709
L432.737 120.28
L432.826 120.097
L433.125 119.982
L433.169 119.683
L433.539 119.739
L433.653 119.244
L433.736 119.021
L433.984 118.913
L434.067 118.695
L434.073 118.344
L434.207 118.226
L434.245 117.93
L434.563 117.547
L434.576 117.221
L435.078 117.478
L435.136 117.178
L435.537 117.218
L435.982 116.999
L437.318 118.117
L437.414 117.562
L437.471 117.281
L437.872 117.388
L437.929 116.833
L437.929 116.477
L438.165 116.269
L438.362 115.546
L438.585 115.317
L438.585 114.963
L439.215 115.34
L439.285 114.814
L439.476 114.627
L439.603 114.142
L439.762 114.065
L440.945 113.996
L440.945 113.644
L441.391 113.793
L442.237 114.452
L442.339 114.366
L442.415 114.156
L442.415 113.806
L443.115 114.234
L443.115 113.884
L443.44 114.105
L443.726 114.006
L444.21 114.166
L444.77 114.678
L445.088 114.579
L445.107 114.26
L445.653 114.52
L445.883 114.31
L446.424 114.573
L446.539 114.504
L446.59 113.877
L446.87 113.813
L446.972 113.609
L447.029 112.656
L447.29 112.527
L447.36 112.335
L447.455 110.803
L447.573 110.716
L447.71 110.454
L449.135 111.928
L449.358 111.939
L449.542 111.701
L449.581 111.423
L450.09 111.709
L450.102 111.379
L450.452 111.406
L450.605 111.253
L450.63 110.955
L450.764 110.823
L451.362 111.042
L451.451 110.485
L452.081 110.377
L452.291 110.141
L452.393 109.296
L452.463 109.074
L454.385 110.548
L455.053 110.841
L455.225 110.553
L455.664 110.713
L456.224 111.244
L456.44 111.082
L456.478 110.842
L456.714 110.883
L456.968 110.546
L456.968 110.23
L457.357 110.136
L457.917 110.229
L457.917 109.898
L458.489 110.198
L458.737 110.058
L458.903 109.621
L459.278 109.758
L459.787 109.352
L459.915 108.585
L460.602 108.007
L460.99 108.116
L461.124 108
L461.55 108.064
L461.662 107.932
L462.084 108.136
L462.084 107.816
L462.224 107.758
L462.224 107.438
L462.599 107.153
L464.921 107.043
L465.304 107.175
L465.304 106.861
L467.035 107.732
L467.035 107.412
L467.411 107.461
L467.512 107.263
L467.512 106.946
L467.862 107.039
L467.939 106.826
L468.321 106.949
L468.359 106.693
L468.569 106.787
L468.804 106.614
L468.893 105.797
L468.919 105.529
L469.491 105.968
L469.733 105.882
L469.984 105.993
L469.994 105.707
L470.153 105.44
L471.082 105.9
L471.178 105.451
L471.634 105.606
L471.763 105.464
L471.808 104.632
L472.094 104.606
L472.444 104.746
L472.629 103.723
L473.526 104.095
L474.067 104.48
L474.098 103.915
L474.83 104.392
L474.875 104.273
L475.199 104.554
L475.293 104.09
L475.447 103.276
L475.657 103.153
L475.67 102.899
L475.817 102.815
L476.256 103.014
L476.707 102.323
L476.797 102.29
L477.325 102.465
L477.573 102.463
L477.668 101.722
L478.12 101.761
L478.674 102.167
L478.718 101.939
L478.992 101.563
L479.1 101.422
L479.851 101.662
L479.927 100.117
L480.436 100.523
L480.519 100.331
L480.519 100.03
L480.793 99.9342
L480.825 99.3921
L480.996 99.3272
L481.264 98.9485
L481.652 99.091
L481.824 98.7968
L482.174 98.8375
L482.18 98.235
L482.702 98.6268
L482.791 98.1754
L483.554 98.4645
L483.618 98.2554
L484.076 98.1542
L484.108 97.3271
L484.458 97.3481
L484.509 96.8124
L484.808 96.7998
L484.922 96.655
L485.024 95.0148
L485.311 94.9636
L485.826 95.2072
L485.832 94.3282
L486.666 94.3008
L486.94 94.542
L487.124 94.3436
L487.309 94.3988
L487.404 93.958
L487.608 93.7937
L487.716 92.5604
L488.098 92.5725
L488.168 92.3418
L489.211 92.8777
L489.23 92.3104
L489.574 92.3132
L489.574 92.0225
L490.02 92.1799
L490.02 91.8863
L490.478 92.0429
L490.77 92.0057
L490.802 91.451
L490.98 91.4302
L491.299 91.0689
L491.744 91.3331
L491.744 91.0415
L491.979 91.0587
L491.979 90.7825
L492.31 90.8138
L493.36 91.2612
L493.36 90.9755
L493.596 90.8277
L493.685 90.3796
L493.978 90.331
L494.13 89.3992
L494.919 89.55
L495.059 89.4499
L495.88 89.8562
L496.822 90.4801
L496.924 90.348
L496.924 89.7715
L497.216 89.7666
L497.28 89.5558
L497.656 89.6394
L497.656 89.3541
L498.578 89.4686
L498.705 89.0743
L499.622 89.4991
L499.755 89.4282
L500.557 89.9601
L500.71 89.6263
L500.844 89.3457
L500.939 88.6229
L501.111 88.6713
L501.766 88.9856
L501.804 88.7487
L502.072 88.8376
L502.269 88.6766
L502.307 88.1492
L503.001 88.299
L503.02 88.0333
L503.217 87.9019
L503.217 87.6205
L503.338 87.5883
L503.408 87.078
L504.082 87.4015
L504.102 86.8739
L504.267 86.9042
L504.318 86.4007
L504.369 85.0517
L504.553 84.8844
L504.604 84.4075
L505.215 84.7138
L505.253 83.9631
L506.157 84.1844
L506.189 83.7012
L506.367 83.5425
L506.494 82.635
L507.029 83.0434
L507.29 82.9563
L507.366 82.7976
L507.773 82.8372
L507.773 82.5562
L508.327 82.9363
L508.505 82.6214
L508.9 82.7651
L508.906 82.2126
L509.39 82.4036
L509.676 82.408
L509.695 81.633
L510.07 81.7312
L510.07 81.4516
L510.21 81.432
L510.236 80.6555
L510.643 80.8105
L510.77 80.6699
L510.789 80.1211
L512.94 81.4044
L513.074 81.3463
L514.011 81.8767
L514.366 81.9679
L514.442 81.5624
L514.747 81.5602
L514.786 81.0649
L515.072 81.0462
L515.148 79.227
L515.206 78.4866
L515.619 78.6177
L515.638 78.085
L515.753 77.956
L516.033 77.8707
L516.084 77.657
L516.224 77.5809
L516.561 77.6254
L516.574 77.3654
L516.968 77.5237
L516.987 77.2789
L517.185 77.266
L517.204 77.0348
L517.649 76.9807
L517.649 76.709
L518.12 76.9794
L518.4 76.9433
L518.4 76.6758
L518.4 76.6758" style="fill:none;stroke:#ff0000;stroke-linecap:square;"/>
   </g>
   <g id="matplotlib.axis_1">
    <g id="xtick_1">
     <g id="line2d_2">
      <defs>
       <path d="
M0 0
L0 -4" id="m93b0483c22" style="stroke:#000000;stroke-width:0.5;"/>
      </defs>
      <g>
       <use style="stroke:#000000;stroke-width:0.5;" x="72.7693271315" xlink:href="#m93b0483c22" y="388.8"/>
      </g>
     </g>
     <g id="line2d_3">
      <defs>
       <path d="
M0 0
L0 4" id="m741efc42ff" style="stroke:#000000;stroke-width:0.5;"/>
      </defs>
      <g>
       <use style="stroke:#000000;stroke-width:0.5;" x="72.7693271315" xlink:href="#m741efc42ff" y="43.2"/>
      </g>
     </g>
     <g id="text_1">
      <!-- Sep 2013 -->
      <defs>
       <path d="
M40.5781 39.3125
Q47.6562 37.7969 51.625 33
Q55.6094 28.2188 55.6094 21.1875
Q55.6094 10.4062 48.1875 4.48438
Q40.7656 -1.42188 27.0938 -1.42188
Q22.5156 -1.42188 17.6562 -0.515625
Q12.7969 0.390625 7.625 2.20312
L7.625 11.7188
Q11.7188 9.32812 16.5938 8.10938
Q21.4844 6.89062 26.8125 6.89062
Q36.0781 6.89062 40.9375 10.5469
Q45.7969 14.2031 45.7969 21.1875
Q45.7969 27.6406 41.2812 31.2656
Q36.7656 34.9062 28.7188 34.9062
L20.2188 34.9062
L20.2188 43.0156
L29.1094 43.0156
Q36.375 43.0156 40.2344 45.9219
Q44.0938 48.8281 44.0938 54.2969
Q44.0938 59.9062 40.1094 62.9062
Q36.1406 65.9219 28.7188 65.9219
Q24.6562 65.9219 20.0156 65.0312
Q15.375 64.1562 9.8125 62.3125
L9.8125 71.0938
Q15.4375 72.6562 20.3438 73.4375
Q25.25 74.2188 29.5938 74.2188
Q40.8281 74.2188 47.3594 69.1094
Q53.9062 64.0156 53.9062 55.3281
Q53.9062 49.2656 50.4375 45.0938
Q46.9688 40.9219 40.5781 39.3125" id="DejaVuSans-33"/>
       <path d="
M12.4062 8.29688
L28.5156 8.29688
L28.5156 63.9219
L10.9844 60.4062
L10.9844 69.3906
L28.4219 72.9062
L38.2812 72.9062
L38.2812 8.29688
L54.3906 8.29688
L54.3906 0
L12.4062 0
z
" id="DejaVuSans-31"/>
       <path d="
M31.7812 66.4062
Q24.1719 66.4062 20.3281 58.9062
Q16.5 51.4219 16.5 36.375
Q16.5 21.3906 20.3281 13.8906
Q24.1719 6.39062 31.7812 6.39062
Q39.4531 6.39062 43.2812 13.8906
Q47.125 21.3906 47.125 36.375
Q47.125 51.4219 43.2812 58.9062
Q39.4531 66.4062 31.7812 66.4062
M31.7812 74.2188
Q44.0469 74.2188 50.5156 64.5156
Q56.9844 54.8281 56.9844 36.375
Q56.9844 17.9688 50.5156 8.26562
Q44.0469 -1.42188 31.7812 -1.42188
Q19.5312 -1.42188 13.0625 8.26562
Q6.59375 17.9688 6.59375 36.375
Q6.59375 54.8281 13.0625 64.5156
Q19.5312 74.2188 31.7812 74.2188" id="DejaVuSans-30"/>
       <path id="DejaVuSans-20"/>
       <path d="
M19.1875 8.29688
L53.6094 8.29688
L53.6094 0
L7.32812 0
L7.32812 8.29688
Q12.9375 14.1094 22.625 23.8906
Q32.3281 33.6875 34.8125 36.5312
Q39.5469 41.8438 41.4219 45.5312
Q43.3125 49.2188 43.3125 52.7812
Q43.3125 58.5938 39.2344 62.25
Q35.1562 65.9219 28.6094 65.9219
Q23.9688 65.9219 18.8125 64.3125
Q13.6719 62.7031 7.8125 59.4219
L7.8125 69.3906
Q13.7656 71.7812 18.9375 73
Q24.125 74.2188 28.4219 74.2188
Q39.75 74.2188 46.4844 68.5469
Q53.2188 62.8906 53.2188 53.4219
Q53.2188 48.9219 51.5312 44.8906
Q49.8594 40.875 45.4062 35.4062
Q44.1875 33.9844 37.6406 27.2188
Q31.1094 20.4531 19.1875 8.29688" id="DejaVuSans-32"/>
       <path d="
M53.5156 70.5156
L53.5156 60.8906
Q47.9062 63.5781 42.9219 64.8906
Q37.9375 66.2188 33.2969 66.2188
Q25.25 66.2188 20.875 63.0938
Q16.5 59.9688 16.5 54.2031
Q16.5 49.3594 19.4062 46.8906
Q22.3125 44.4375 30.4219 42.9219
L36.375 41.7031
Q47.4062 39.5938 52.6562 34.2969
Q57.9062 29 57.9062 20.125
Q57.9062 9.51562 50.7969 4.04688
Q43.7031 -1.42188 29.9844 -1.42188
Q24.8125 -1.42188 18.9688 -0.25
Q13.1406 0.921875 6.89062 3.21875
L6.89062 13.375
Q12.8906 10.0156 18.6562 8.29688
Q24.4219 6.59375 29.9844 6.59375
Q38.4219 6.59375 43.0156 9.90625
Q47.6094 13.2344 47.6094 19.3906
Q47.6094 24.75 44.3125 27.7812
Q41.0156 30.8125 33.5 32.3281
L27.4844 33.5
Q16.4531 35.6875 11.5156 40.375
Q6.59375 45.0625 6.59375 53.4219
Q6.59375 63.0938 13.4062 68.6562
Q20.2188 74.2188 32.1719 74.2188
Q37.3125 74.2188 42.625 73.2812
Q47.9531 72.3594 53.5156 70.5156" id="DejaVuSans-53"/>
       <path d="
M56.2031 29.5938
L56.2031 25.2031
L14.8906 25.2031
Q15.4844 15.9219 20.4844 11.0625
Q25.4844 6.20312 34.4219 6.20312
Q39.5938 6.20312 44.4531 7.46875
Q49.3125 8.73438 54.1094 11.2812
L54.1094 2.78125
Q49.2656 0.734375 44.1875 -0.34375
Q39.1094 -1.42188 33.8906 -1.42188
Q20.7969 -1.42188 13.1562 6.1875
Q5.51562 13.8125 5.51562 26.8125
Q5.51562 40.2344 12.7656 48.1094
Q20.0156 56 32.3281 56
Q43.3594 56 49.7812 48.8906
Q56.2031 41.7969 56.2031 29.5938
M47.2188 32.2344
Q47.125 39.5938 43.0938 43.9844
Q39.0625 48.3906 32.4219 48.3906
Q24.9062 48.3906 20.3906 44.1406
Q15.875 39.8906 15.1875 32.1719
z
" id="DejaVuSans-65"/>
       <path d="
M18.1094 8.20312
L18.1094 -20.7969
L9.07812 -20.7969
L9.07812 54.6875
L18.1094 54.6875
L18.1094 46.3906
Q20.9531 51.2656 25.2656 53.625
Q29.5938 56 35.5938 56
Q45.5625 56 51.7812 48.0938
Q58.0156 40.1875 58.0156 27.2969
Q58.0156 14.4062 51.7812 6.48438
Q45.5625 -1.42188 35.5938 -1.42188
Q29.5938 -1.42188 25.2656 0.953125
Q20.9531 3.32812 18.1094 8.20312
M48.6875 27.2969
Q48.6875 37.2031 44.6094 42.8438
Q40.5312 48.4844 33.4062 48.4844
Q26.2656 48.4844 22.1875 42.8438
Q18.1094 37.2031 18.1094 27.2969
Q18.1094 17.3906 22.1875 11.75
Q26.2656 6.10938 33.4062 6.10938
Q40.5312 6.10938 44.6094 11.75
Q48.6875 17.3906 48.6875 27.2969" id="DejaVuSans-70"/>
      </defs>
      <g transform="translate(44.7633896315 401.918125)scale(0.12 -0.12)">
       <use xlink:href="#DejaVuSans-53"/>
       <use x="63.4765625" xlink:href="#DejaVuSans-65"/>
       <use x="125.0" xlink:href="#DejaVuSans-70"/>
       <use x="188.4765625" xlink:href="#DejaVuSans-20"/>
       <use x="220.263671875" xlink:href="#DejaVuSans-32"/>
       <use x="283.88671875" xlink:href="#DejaVuSans-30"/>
       <use x="347.509765625" xlink:href="#DejaVuSans-31"/>
       <use x="411.1328125" xlink:href="#DejaVuSans-33"/>
      </g>
     </g>
    </g>
    <g id="xtick_2">
     <g id="line2d_4">
      <g>
       <use style="stroke:#000000;stroke-width:0.5;" x="114.461894261" xlink:href="#m93b0483c22" y="388.8"/>
      </g>
     </g>
     <g id="line2d_5">
      <g>
       <use style="stroke:#000000;stroke-width:0.5;" x="114.461894261" xlink:href="#m741efc42ff" y="43.2"/>
      </g>
     </g>
     <g id="text_2">
      <!-- Dec 2013 -->
      <defs>
       <path d="
M19.6719 64.7969
L19.6719 8.10938
L31.5938 8.10938
Q46.6875 8.10938 53.6875 14.9375
Q60.6875 21.7812 60.6875 36.5312
Q60.6875 51.1719 53.6875 57.9844
Q46.6875 64.7969 31.5938 64.7969
z

M9.8125 72.9062
L30.0781 72.9062
Q51.2656 72.9062 61.1719 64.0938
Q71.0938 55.2812 71.0938 36.5312
Q71.0938 17.6719 61.125 8.82812
Q51.1719 0 30.0781 0
L9.8125 0
z
" id="DejaVuSans-44"/>
       <path d="
M48.7812 52.5938
L48.7812 44.1875
Q44.9688 46.2969 41.1406 47.3438
Q37.3125 48.3906 33.4062 48.3906
Q24.6562 48.3906 19.8125 42.8438
Q14.9844 37.3125 14.9844 27.2969
Q14.9844 17.2812 19.8125 11.7344
Q24.6562 6.20312 33.4062 6.20312
Q37.3125 6.20312 41.1406 7.25
Q44.9688 8.29688 48.7812 10.4062
L48.7812 2.09375
Q45.0156 0.34375 40.9844 -0.53125
Q36.9688 -1.42188 32.4219 -1.42188
Q20.0625 -1.42188 12.7812 6.34375
Q5.51562 14.1094 5.51562 27.2969
Q5.51562 40.6719 12.8594 48.3281
Q20.2188 56 33.0156 56
Q37.1562 56 41.1094 55.1406
Q45.0625 54.2969 48.7812 52.5938" id="DejaVuSans-63"/>
      </defs>
      <g transform="translate(86.1550192608 401.918125)scale(0.12 -0.12)">
       <use xlink:href="#DejaVuSans-44"/>
       <use x="77.001953125" xlink:href="#DejaVuSans-65"/>
       <use x="138.525390625" xlink:href="#DejaVuSans-63"/>
       <use x="193.505859375" xlink:href="#DejaVuSans-20"/>
       <use x="225.29296875" xlink:href="#DejaVuSans-32"/>
       <use x="288.916015625" xlink:href="#DejaVuSans-30"/>
       <use x="352.5390625" xlink:href="#DejaVuSans-31"/>
       <use x="416.162109375" xlink:href="#DejaVuSans-33"/>
      </g>
     </g>
    </g>
    <g id="xtick_3">
     <g id="line2d_6">
      <g>
       <use style="stroke:#000000;stroke-width:0.5;" x="155.696301312" xlink:href="#m93b0483c22" y="388.8"/>
      </g>
     </g>
     <g id="line2d_7">
      <g>
       <use style="stroke:#000000;stroke-width:0.5;" x="155.696301312" xlink:href="#m741efc42ff" y="43.2"/>
      </g>
     </g>
     <g id="text_3">
      <!-- Mar 2014 -->
      <defs>
       <path d="
M9.8125 72.9062
L24.5156 72.9062
L43.1094 23.2969
L61.8125 72.9062
L76.5156 72.9062
L76.5156 0
L66.8906 0
L66.8906 64.0156
L48.0938 14.0156
L38.1875 14.0156
L19.3906 64.0156
L19.3906 0
L9.8125 0
z
" id="DejaVuSans-4d"/>
       <path d="
M41.1094 46.2969
Q39.5938 47.1719 37.8125 47.5781
Q36.0312 48 33.8906 48
Q26.2656 48 22.1875 43.0469
Q18.1094 38.0938 18.1094 28.8125
L18.1094 0
L9.07812 0
L9.07812 54.6875
L18.1094 54.6875
L18.1094 46.1875
Q20.9531 51.1719 25.4844 53.5781
Q30.0312 56 36.5312 56
Q37.4531 56 38.5781 55.875
Q39.7031 55.7656 41.0625 55.5156
z
" id="DejaVuSans-72"/>
       <path d="
M37.7969 64.3125
L12.8906 25.3906
L37.7969 25.3906
z

M35.2031 72.9062
L47.6094 72.9062
L47.6094 25.3906
L58.0156 25.3906
L58.0156 17.1875
L47.6094 17.1875
L47.6094 0
L37.7969 0
L37.7969 17.1875
L4.89062 17.1875
L4.89062 26.7031
z
" id="DejaVuSans-34"/>
       <path d="
M34.2812 27.4844
Q23.3906 27.4844 19.1875 25
Q14.9844 22.5156 14.9844 16.5
Q14.9844 11.7188 18.1406 8.90625
Q21.2969 6.10938 26.7031 6.10938
Q34.1875 6.10938 38.7031 11.4062
Q43.2188 16.7031 43.2188 25.4844
L43.2188 27.4844
z

M52.2031 31.2031
L52.2031 0
L43.2188 0
L43.2188 8.29688
Q40.1406 3.32812 35.5469 0.953125
Q30.9531 -1.42188 24.3125 -1.42188
Q15.9219 -1.42188 10.9531 3.29688
Q6 8.01562 6 15.9219
Q6 25.1406 12.1719 29.8281
Q18.3594 34.5156 30.6094 34.5156
L43.2188 34.5156
L43.2188 35.4062
Q43.2188 41.6094 39.1406 45
Q35.0625 48.3906 27.6875 48.3906
Q23 48.3906 18.5469 47.2656
Q14.1094 46.1406 10.0156 43.8906
L10.0156 52.2031
Q14.9375 54.1094 19.5781 55.0469
Q24.2188 56 28.6094 56
Q40.4844 56 46.3438 49.8438
Q52.2031 43.7031 52.2031 31.2031" id="DejaVuSans-61"/>
      </defs>
      <g transform="translate(127.535676312 401.918125)scale(0.12 -0.12)">
       <use xlink:href="#DejaVuSans-4d"/>
       <use x="86.279296875" xlink:href="#DejaVuSans-61"/>
       <use x="147.55859375" xlink:href="#DejaVuSans-72"/>
       <use x="188.671875" xlink:href="#DejaVuSans-20"/>
       <use x="220.458984375" xlink:href="#DejaVuSans-32"/>
       <use x="284.08203125" xlink:href="#DejaVuSans-30"/>
       <use x="347.705078125" xlink:href="#DejaVuSans-31"/>
       <use x="411.328125" xlink:href="#DejaVuSans-34"/>
      </g>
     </g>
    </g>
    <g id="xtick_4">
     <g id="line2d_8">
      <g>
       <use style="stroke:#000000;stroke-width:0.5;" x="197.847028519" xlink:href="#m93b0483c22" y="388.8"/>
      </g>
     </g>
     <g id="line2d_9">
      <g>
       <use style="stroke:#000000;stroke-width:0.5;" x="197.847028519" xlink:href="#m741efc42ff" y="43.2"/>
      </g>
     </g>
     <g id="text_4">
      <!-- Jun 2014 -->
      <defs>
       <path d="
M8.5 21.5781
L8.5 54.6875
L17.4844 54.6875
L17.4844 21.9219
Q17.4844 14.1562 20.5 10.2656
Q23.5312 6.39062 29.5938 6.39062
Q36.8594 6.39062 41.0781 11.0312
Q45.3125 15.6719 45.3125 23.6875
L45.3125 54.6875
L54.2969 54.6875
L54.2969 0
L45.3125 0
L45.3125 8.40625
Q42.0469 3.42188 37.7188 1
Q33.4062 -1.42188 27.6875 -1.42188
Q18.2656 -1.42188 13.375 4.4375
Q8.5 10.2969 8.5 21.5781
M31.1094 56
z
" id="DejaVuSans-75"/>
       <path d="
M54.8906 33.0156
L54.8906 0
L45.9062 0
L45.9062 32.7188
Q45.9062 40.4844 42.875 44.3281
Q39.8438 48.1875 33.7969 48.1875
Q26.5156 48.1875 22.3125 43.5469
Q18.1094 38.9219 18.1094 30.9062
L18.1094 0
L9.07812 0
L9.07812 54.6875
L18.1094 54.6875
L18.1094 46.1875
Q21.3438 51.125 25.7031 53.5625
Q30.0781 56 35.7969 56
Q45.2188 56 50.0469 50.1719
Q54.8906 44.3438 54.8906 33.0156" id="DejaVuSans-6e"/>
       <path d="
M9.8125 72.9062
L19.6719 72.9062
L19.6719 5.07812
Q19.6719 -8.10938 14.6719 -14.0625
Q9.67188 -20.0156 -1.42188 -20.0156
L-5.17188 -20.0156
L-5.17188 -11.7188
L-2.09375 -11.7188
Q4.4375 -11.7188 7.125 -8.04688
Q9.8125 -4.39062 9.8125 5.07812
z
" id="DejaVuSans-4a"/>
      </defs>
      <g transform="translate(171.321403519 401.918125)scale(0.12 -0.12)">
       <use xlink:href="#DejaVuSans-4a"/>
       <use x="29.4921875" xlink:href="#DejaVuSans-75"/>
       <use x="92.87109375" xlink:href="#DejaVuSans-6e"/>
       <use x="156.25" xlink:href="#DejaVuSans-20"/>
       <use x="188.037109375" xlink:href="#DejaVuSans-32"/>
       <use x="251.66015625" xlink:href="#DejaVuSans-30"/>
       <use x="315.283203125" xlink:href="#DejaVuSans-31"/>
       <use x="378.90625" xlink:href="#DejaVuSans-34"/>
      </g>
     </g>
    </g>
    <g id="xtick_5">
     <g id="line2d_10">
      <g>
       <use style="stroke:#000000;stroke-width:0.5;" x="239.997755727" xlink:href="#m93b0483c22" y="388.8"/>
      </g>
     </g>
     <g id="line2d_11">
      <g>
       <use style="stroke:#000000;stroke-width:0.5;" x="239.997755727" xlink:href="#m741efc42ff" y="43.2"/>
      </g>
     </g>
     <g id="text_5">
      <!-- Sep 2014 -->
      <g transform="translate(211.847443227 401.918125)scale(0.12 -0.12)">
       <use xlink:href="#DejaVuSans-53"/>
       <use x="63.4765625" xlink:href="#DejaVuSans-65"/>
       <use x="125.0" xlink:href="#DejaVuSans-70"/>
       <use x="188.4765625" xlink:href="#DejaVuSans-20"/>
       <use x="220.263671875" xlink:href="#DejaVuSans-32"/>
       <use x="283.88671875" xlink:href="#DejaVuSans-30"/>
       <use x="347.509765625" xlink:href="#DejaVuSans-31"/>
       <use x="411.1328125" xlink:href="#DejaVuSans-34"/>
      </g>
     </g>
    </g>
    <g id="xtick_6">
     <g id="line2d_12">
      <g>
       <use style="stroke:#000000;stroke-width:0.5;" x="281.690322857" xlink:href="#m93b0483c22" y="388.8"/>
      </g>
     </g>
     <g id="line2d_13">
      <g>
       <use style="stroke:#000000;stroke-width:0.5;" x="281.690322857" xlink:href="#m741efc42ff" y="43.2"/>
      </g>
     </g>
     <g id="text_6">
      <!-- Dec 2014 -->
      <g transform="translate(253.239072857 401.918125)scale(0.12 -0.12)">
       <use xlink:href="#DejaVuSans-44"/>
       <use x="77.001953125" xlink:href="#DejaVuSans-65"/>
       <use x="138.525390625" xlink:href="#DejaVuSans-63"/>
       <use x="193.505859375" xlink:href="#DejaVuSans-20"/>
       <use x="225.29296875" xlink:href="#DejaVuSans-32"/>
       <use x="288.916015625" xlink:href="#DejaVuSans-30"/>
       <use x="352.5390625" xlink:href="#DejaVuSans-31"/>
       <use x="416.162109375" xlink:href="#DejaVuSans-34"/>
      </g>
     </g>
    </g>
    <g id="xtick_7">
     <g id="line2d_14">
      <g>
       <use style="stroke:#000000;stroke-width:0.5;" x="322.924729907" xlink:href="#m93b0483c22" y="388.8"/>
      </g>
     </g>
     <g id="line2d_15">
      <g>
       <use style="stroke:#000000;stroke-width:0.5;" x="322.924729907" xlink:href="#m741efc42ff" y="43.2"/>
      </g>
     </g>
     <g id="text_7">
      <!-- Mar 2015 -->
      <defs>
       <path d="
M10.7969 72.9062
L49.5156 72.9062
L49.5156 64.5938
L19.8281 64.5938
L19.8281 46.7344
Q21.9688 47.4688 24.1094 47.8281
Q26.2656 48.1875 28.4219 48.1875
Q40.625 48.1875 47.75 41.5
Q54.8906 34.8125 54.8906 23.3906
Q54.8906 11.625 47.5625 5.09375
Q40.2344 -1.42188 26.9062 -1.42188
Q22.3125 -1.42188 17.5469 -0.640625
Q12.7969 0.140625 7.71875 1.70312
L7.71875 11.625
Q12.1094 9.23438 16.7969 8.0625
Q21.4844 6.89062 26.7031 6.89062
Q35.1562 6.89062 40.0781 11.3281
Q45.0156 15.7656 45.0156 23.3906
Q45.0156 31 40.0781 35.4375
Q35.1562 39.8906 26.7031 39.8906
Q22.75 39.8906 18.8125 39.0156
Q14.8906 38.1406 10.7969 36.2812
z
" id="DejaVuSans-35"/>
      </defs>
      <g transform="translate(294.951604907 401.918125)scale(0.12 -0.12)">
       <use xlink:href="#DejaVuSans-4d"/>
       <use x="86.279296875" xlink:href="#DejaVuSans-61"/>
       <use x="147.55859375" xlink:href="#DejaVuSans-72"/>
       <use x="188.671875" xlink:href="#DejaVuSans-20"/>
       <use x="220.458984375" xlink:href="#DejaVuSans-32"/>
       <use x="284.08203125" xlink:href="#DejaVuSans-30"/>
       <use x="347.705078125" xlink:href="#DejaVuSans-31"/>
       <use x="411.328125" xlink:href="#DejaVuSans-35"/>
      </g>
     </g>
    </g>
    <g id="xtick_8">
     <g id="line2d_16">
      <g>
       <use style="stroke:#000000;stroke-width:0.5;" x="365.075457115" xlink:href="#m93b0483c22" y="388.8"/>
      </g>
     </g>
     <g id="line2d_17">
      <g>
       <use style="stroke:#000000;stroke-width:0.5;" x="365.075457115" xlink:href="#m741efc42ff" y="43.2"/>
      </g>
     </g>
     <g id="text_8">
      <!-- Jun 2015 -->
      <g transform="translate(338.737332115 401.918125)scale(0.12 -0.12)">
       <use xlink:href="#DejaVuSans-4a"/>
       <use x="29.4921875" xlink:href="#DejaVuSans-75"/>
       <use x="92.87109375" xlink:href="#DejaVuSans-6e"/>
       <use x="156.25" xlink:href="#DejaVuSans-20"/>
       <use x="188.037109375" xlink:href="#DejaVuSans-32"/>
       <use x="251.66015625" xlink:href="#DejaVuSans-30"/>
       <use x="315.283203125" xlink:href="#DejaVuSans-31"/>
       <use x="378.90625" xlink:href="#DejaVuSans-35"/>
      </g>
     </g>
    </g>
    <g id="xtick_9">
     <g id="line2d_18">
      <g>
       <use style="stroke:#000000;stroke-width:0.5;" x="407.226184323" xlink:href="#m93b0483c22" y="388.8"/>
      </g>
     </g>
     <g id="line2d_19">
      <g>
       <use style="stroke:#000000;stroke-width:0.5;" x="407.226184323" xlink:href="#m741efc42ff" y="43.2"/>
      </g>
     </g>
     <g id="text_9">
      <!-- Sep 2015 -->
      <g transform="translate(379.263371823 401.918125)scale(0.12 -0.12)">
       <use xlink:href="#DejaVuSans-53"/>
       <use x="63.4765625" xlink:href="#DejaVuSans-65"/>
       <use x="125.0" xlink:href="#DejaVuSans-70"/>
       <use x="188.4765625" xlink:href="#DejaVuSans-20"/>
       <use x="220.263671875" xlink:href="#DejaVuSans-32"/>
       <use x="283.88671875" xlink:href="#DejaVuSans-30"/>
       <use x="347.509765625" xlink:href="#DejaVuSans-31"/>
       <use x="411.1328125" xlink:href="#DejaVuSans-35"/>
      </g>
     </g>
    </g>
    <g id="xtick_10">
     <g id="line2d_20">
      <g>
       <use style="stroke:#000000;stroke-width:0.5;" x="448.918751452" xlink:href="#m93b0483c22" y="388.8"/>
      </g>
     </g>
     <g id="line2d_21">
      <g>
       <use style="stroke:#000000;stroke-width:0.5;" x="448.918751452" xlink:href="#m741efc42ff" y="43.2"/>
      </g>
     </g>
     <g id="text_10">
      <!-- Dec 2015 -->
      <g transform="translate(420.655001452 401.918125)scale(0.12 -0.12)">
       <use xlink:href="#DejaVuSans-44"/>
       <use x="77.001953125" xlink:href="#DejaVuSans-65"/>
       <use x="138.525390625" xlink:href="#DejaVuSans-63"/>
       <use x="193.505859375" xlink:href="#DejaVuSans-20"/>
       <use x="225.29296875" xlink:href="#DejaVuSans-32"/>
       <use x="288.916015625" xlink:href="#DejaVuSans-30"/>
       <use x="352.5390625" xlink:href="#DejaVuSans-31"/>
       <use x="416.162109375" xlink:href="#DejaVuSans-35"/>
      </g>
     </g>
    </g>
    <g id="xtick_11">
     <g id="line2d_22">
      <g>
       <use style="stroke:#000000;stroke-width:0.5;" x="490.611318582" xlink:href="#m93b0483c22" y="388.8"/>
      </g>
     </g>
     <g id="line2d_23">
      <g>
       <use style="stroke:#000000;stroke-width:0.5;" x="490.611318582" xlink:href="#m741efc42ff" y="43.2"/>
      </g>
     </g>
     <g id="text_11">
      <!-- Mar 2016 -->
      <defs>
       <path d="
M33.0156 40.375
Q26.375 40.375 22.4844 35.8281
Q18.6094 31.2969 18.6094 23.3906
Q18.6094 15.5312 22.4844 10.9531
Q26.375 6.39062 33.0156 6.39062
Q39.6562 6.39062 43.5312 10.9531
Q47.4062 15.5312 47.4062 23.3906
Q47.4062 31.2969 43.5312 35.8281
Q39.6562 40.375 33.0156 40.375
M52.5938 71.2969
L52.5938 62.3125
Q48.875 64.0625 45.0938 64.9844
Q41.3125 65.9219 37.5938 65.9219
Q27.8281 65.9219 22.6719 59.3281
Q17.5312 52.7344 16.7969 39.4062
Q19.6719 43.6562 24.0156 45.9219
Q28.375 48.1875 33.5938 48.1875
Q44.5781 48.1875 50.9531 41.5156
Q57.3281 34.8594 57.3281 23.3906
Q57.3281 12.1562 50.6875 5.35938
Q44.0469 -1.42188 33.0156 -1.42188
Q20.3594 -1.42188 13.6719 8.26562
Q6.98438 17.9688 6.98438 36.375
Q6.98438 53.6562 15.1875 63.9375
Q23.3906 74.2188 37.2031 74.2188
Q40.9219 74.2188 44.7031 73.4844
Q48.4844 72.75 52.5938 71.2969" id="DejaVuSans-36"/>
      </defs>
      <g transform="translate(462.491943582 401.918125)scale(0.12 -0.12)">
       <use xlink:href="#DejaVuSans-4d"/>
       <use x="86.279296875" xlink:href="#DejaVuSans-61"/>
       <use x="147.55859375" xlink:href="#DejaVuSans-72"/>
       <use x="188.671875" xlink:href="#DejaVuSans-20"/>
       <use x="220.458984375" xlink:href="#DejaVuSans-32"/>
       <use x="284.08203125" xlink:href="#DejaVuSans-30"/>
       <use x="347.705078125" xlink:href="#DejaVuSans-31"/>
       <use x="411.328125" xlink:href="#DejaVuSans-36"/>
      </g>
     </g>
    </g>
   </g>
   <g id="matplotlib.axis_2">
    <g id="ytick_1">
     <g id="line2d_24">
      <defs>
       <path d="
M0 0
L4 0" id="m728421d6d4" style="stroke:#000000;stroke-width:0.5;"/>
      </defs>
      <g>
       <use style="stroke:#000000;stroke-width:0.5;" x="72.0" xlink:href="#m728421d6d4" y="388.8"/>
      </g>
     </g>
     <g id="line2d_25">
      <defs>
       <path d="
M0 0
L-4 0" id="mcb0005524f" style="stroke:#000000;stroke-width:0.5;"/>
      </defs>
      <g>
       <use style="stroke:#000000;stroke-width:0.5;" x="518.4" xlink:href="#mcb0005524f" y="388.8"/>
      </g>
     </g>
     <g id="text_12">
      <!-- 100 -->
      <g transform="translate(47.21 392.11125)scale(0.12 -0.12)">
       <use xlink:href="#DejaVuSans-31"/>
       <use x="63.623046875" xlink:href="#DejaVuSans-30"/>
       <use x="127.24609375" xlink:href="#DejaVuSans-30"/>
      </g>
     </g>
    </g>
    <g id="ytick_2">
     <g id="line2d_26">
      <g>
       <use style="stroke:#000000;stroke-width:0.5;" x="72.0" xlink:href="#m728421d6d4" y="331.2"/>
      </g>
     </g>
     <g id="line2d_27">
      <g>
       <use style="stroke:#000000;stroke-width:0.5;" x="518.4" xlink:href="#mcb0005524f" y="331.2"/>
      </g>
     </g>
     <g id="text_13">
      <!-- 200 -->
      <g transform="translate(46.77125 334.51125)scale(0.12 -0.12)">
       <use xlink:href="#DejaVuSans-32"/>
       <use x="63.623046875" xlink:href="#DejaVuSans-30"/>
       <use x="127.24609375" xlink:href="#DejaVuSans-30"/>
      </g>
     </g>
    </g>
    <g id="ytick_3">
     <g id="line2d_28">
      <g>
       <use style="stroke:#000000;stroke-width:0.5;" x="72.0" xlink:href="#m728421d6d4" y="273.6"/>
      </g>
     </g>
     <g id="line2d_29">
      <g>
       <use style="stroke:#000000;stroke-width:0.5;" x="518.4" xlink:href="#mcb0005524f" y="273.6"/>
      </g>
     </g>
     <g id="text_14">
      <!-- 300 -->
      <g transform="translate(46.806875 276.91125)scale(0.12 -0.12)">
       <use xlink:href="#DejaVuSans-33"/>
       <use x="63.623046875" xlink:href="#DejaVuSans-30"/>
       <use x="127.24609375" xlink:href="#DejaVuSans-30"/>
      </g>
     </g>
    </g>
    <g id="ytick_4">
     <g id="line2d_30">
      <g>
       <use style="stroke:#000000;stroke-width:0.5;" x="72.0" xlink:href="#m728421d6d4" y="216.0"/>
      </g>
     </g>
     <g id="line2d_31">
      <g>
       <use style="stroke:#000000;stroke-width:0.5;" x="518.4" xlink:href="#mcb0005524f" y="216.0"/>
      </g>
     </g>
     <g id="text_15">
      <!-- 400 -->
      <g transform="translate(46.47875 219.31125)scale(0.12 -0.12)">
       <use xlink:href="#DejaVuSans-34"/>
       <use x="63.623046875" xlink:href="#DejaVuSans-30"/>
       <use x="127.24609375" xlink:href="#DejaVuSans-30"/>
      </g>
     </g>
    </g>
    <g id="ytick_5">
     <g id="line2d_32">
      <g>
       <use style="stroke:#000000;stroke-width:0.5;" x="72.0" xlink:href="#m728421d6d4" y="158.4"/>
      </g>
     </g>
     <g id="line2d_33">
      <g>
       <use style="stroke:#000000;stroke-width:0.5;" x="518.4" xlink:href="#mcb0005524f" y="158.4"/>
      </g>
     </g>
     <g id="text_16">
      <!-- 500 -->
      <g transform="translate(46.818125 161.71125)scale(0.12 -0.12)">
       <use xlink:href="#DejaVuSans-35"/>
       <use x="63.623046875" xlink:href="#DejaVuSans-30"/>
       <use x="127.24609375" xlink:href="#DejaVuSans-30"/>
      </g>
     </g>
    </g>
    <g id="ytick_6">
     <g id="line2d_34">
      <g>
       <use style="stroke:#000000;stroke-width:0.5;" x="72.0" xlink:href="#m728421d6d4" y="100.8"/>
      </g>
     </g>
     <g id="line2d_35">
      <g>
       <use style="stroke:#000000;stroke-width:0.5;" x="518.4" xlink:href="#mcb0005524f" y="100.8"/>
      </g>
     </g>
     <g id="text_17">
      <!-- 600 -->
      <g transform="translate(46.73 104.11125)scale(0.12 -0.12)">
       <use xlink:href="#DejaVuSans-36"/>
       <use x="63.623046875" xlink:href="#DejaVuSans-30"/>
       <use x="127.24609375" xlink:href="#DejaVuSans-30"/>
      </g>
     </g>
    </g>
    <g id="ytick_7">
     <g id="line2d_36">
      <g>
       <use style="stroke:#000000;stroke-width:0.5;" x="72.0" xlink:href="#m728421d6d4" y="43.2"/>
      </g>
     </g>
     <g id="line2d_37">
      <g>
       <use style="stroke:#000000;stroke-width:0.5;" x="518.4" xlink:href="#mcb0005524f" y="43.2"/>
      </g>
     </g>
     <g id="text_18">
      <!-- 700 -->
      <defs>
       <path d="
M8.20312 72.9062
L55.0781 72.9062
L55.0781 68.7031
L28.6094 0
L18.3125 0
L43.2188 64.5938
L8.20312 64.5938
z
" id="DejaVuSans-37"/>
      </defs>
      <g transform="translate(46.87625 46.51125)scale(0.12 -0.12)">
       <use xlink:href="#DejaVuSans-37"/>
       <use x="63.623046875" xlink:href="#DejaVuSans-30"/>
       <use x="127.24609375" xlink:href="#DejaVuSans-30"/>
      </g>
     </g>
    </g>
   </g>
   <g id="patch_3">
    <path d="
M72 43.2
L518.4 43.2" style="fill:none;stroke:#000000;"/>
   </g>
   <g id="patch_4">
    <path d="
M518.4 388.8
L518.4 43.2" style="fill:none;stroke:#000000;"/>
   </g>
   <g id="patch_5">
    <path d="
M72 388.8
L518.4 388.8" style="fill:none;stroke:#000000;"/>
   </g>
   <g id="patch_6">
    <path d="
M72 388.8
L72 43.2" style="fill:none;stroke:#000000;"/>
   </g>
  </g>
 </g>
 <defs>
  <clipPath id="p7ff5b81e1d">
   <rect height="345.6" width="446.4" x="72.0" y="43.2"/>
  </clipPath>
 </defs>
</svg>
