<?xml version="1.0" encoding="utf-8" standalone="no"?>
<!DOCTYPE svg PUBLIC "-//W3C//DTD SVG 1.1//EN"
  "http://www.w3.org/Graphics/SVG/1.1/DTD/svg11.dtd">
<!-- Created with matplotlib (http://matplotlib.org/) -->
<svg height="432pt" version="1.1" viewBox="0 0 576 432" width="576pt" xmlns="http://www.w3.org/2000/svg" xmlns:xlink="http://www.w3.org/1999/xlink">
 <defs>
  <style type="text/css">
*{stroke-linecap:butt;stroke-linejoin:round;}
  </style>
 </defs>
 <g id="figure_1">
  <g id="patch_1">
   <path d="
M0 432
L576 432
L576 0
L0 0
z
" style="fill:#ffffff;"/>
  </g>
  <g id="axes_1">
   <g id="patch_2">
    <path d="
M72 388.8
L518.4 388.8
L518.4 43.2
L72 43.2
z
" style="fill:#ffffff;"/>
   </g>
   <g id="line2d_1">
    <path clip-path="url(#p7ff5b81e1d)" d="
M72 275.951
L72.1283 43.6961
L72.1746 63.1057
L72.4944 108.584
L72.5379 137.401
L72.7224 149.006
L72.7459 148.987
L72.9431 173.636
L72.9446 166.599
L73.8553 206.63
L73.9255 170.704
L74.1684 170.942
L74.3151 173.204
L74.3405 167.21
L74.6777 179.673
L74.6885 176.12
L74.8946 178.231
L75.0492 174.456
L75.3156 180.032
L75.3356 177.368
L75.5798 177.287
L75.757 167.339
L76.1263 170.263
L76.1263 166.513
L76.6067 172.508
L76.9144 174.198
L77.0363 171.459
L77.37 176.761
L77.4627 174.82
L77.8838 175.622
L78.0482 169.873
L78.4334 174.219
L78.6954 174.037
L78.7023 162.033
L80.0607 176.469
L80.3084 176.124
L80.3621 177.524
L80.403 175.176
L80.6504 173.575
L80.719 169.933
L80.8418 172.493
L81.1295 172.223
L81.3057 163.922
L81.5887 164.266
L81.5906 162.29
L82.1018 166.565
L82.1227 166.479
L82.2005 165.971
L82.2005 163.631
L82.841 165.427
L83.423 169.665
L83.4252 167.419
L83.8812 167.236
L83.8984 163.773
L84.3203 163.423
L84.7312 164.405
L84.8036 160.438
L85.0465 159.985
L85.1631 159.067
L85.3152 159.923
L85.351 155.988
L86.2966 159.624
L86.2966 155.558
L87.1565 160.651
L87.1797 157.977
L87.5829 155.196
L87.6096 154.184
L88.5069 159.794
L88.5511 147.465
L88.773 146.022
L89.2109 146.967
L89.2109 143.219
L89.4122 144.944
L90.7922 151.792
L90.816 149.726
L91.0544 151.194
L91.1929 149.509
L91.6911 151.446
L91.7139 150.558
L91.7139 150.558
L91.7139 150.558
L91.7413 151.941
L91.9791 151.033
L91.9835 145.326
L93.3924 148.959
L93.3924 147.534
L93.5724 148.718
L93.6137 144.86
L94.2545 145.81
L95.1642 148.844
L95.1744 146.462
L95.6278 147.549
L95.7081 146.497
L96.6966 149.792
L96.977 148.933
L97.0535 151.375
L97.0535 149.938
L97.2843 151.64
L97.6987 153.752
L97.7006 154.339
L97.7006 154.339
L97.7006 154.339
L97.7009 153.559
L97.9651 152.749
L98.3661 154.487
L98.416 152.746
L98.8716 155.378
L98.9351 154.46
L99.3882 154.456
L99.4819 153.584
L99.4819 152.258
L99.6734 151.578
L100.409 153.446
L100.488 155.256
L100.488 154.022
L100.488 152.815
L100.894 150.872
L100.895 149.67
L104.154 159.647
L104.157 159.081
L104.575 160.359
L104.575 158.067
L104.887 157.375
L105.034 156.574
L105.348 157.04
L105.37 156.296
L105.71 157.676
L105.972 158.179
L106.76 158.926
L106.832 159.278
L107.168 158.438
L107.348 157.379
L107.354 158.528
L107.354 157.481
L107.783 157.964
L107.813 157.536
L108.113 158.488
L108.113 157.389
L108.731 158.845
L109.194 162.087
L109.488 161.336
L109.634 161.42
L109.641 161.568
L110.331 161.815
L110.335 154.276
L110.454 154.05
L110.874 154.276
L110.931 154.998
L111.013 154.286
L111.463 155.655
L111.944 157.606
L112.226 157.771
L113.715 161.302
L113.759 159.186
L114.202 159.402
L114.207 157.383
L114.657 156.743
L114.671 156.079
L115.131 156.904
L115.131 155.435
L115.296 154.675
L115.301 152.955
L115.758 154.366
L116.049 152.89
L116.229 154.53
L117.256 156.286
L117.375 153.817
L117.876 152.852
L118.356 153.491
L118.359 152.226
L118.781 152.988
L119.003 153.023
L119.003 152.304
L119.357 153.652
L119.403 151.387
L119.852 152.292
L119.95 148.512
L120.64 151.003
L120.642 147.071
L120.971 148.198
L121.026 144.393
L121.026 144.416
L121.468 144.375
L122.242 145.124
L122.363 142.246
L122.454 141.395
L122.631 142.335
L122.632 141.795
L122.708 140.665
L123.102 140.756
L123.14 139.25
L123.254 139.554
L123.362 139.2
L123.828 140.077
L124.101 140.035
L124.101 139.257
L124.277 139.691
L124.279 137.473
L124.554 137.843
L124.579 137.706
L124.594 137.019
L124.594 137.019
L124.594 137.019
L124.676 137.759
L124.687 137.055
L124.687 134.974
L125.088 137.021
L125.952 138.779
L125.965 137.585
L126.826 139.027
L126.93 137.077
L127.079 137.737
L127.455 138.332
L127.499 138.293
L127.702 137.79
L127.765 138.573
L127.781 137.965
L127.8 136.918
L128.51 145.003
L128.559 144.51
L128.66 143.675
L128.677 141.567
L128.789 141.757
L128.818 140.959
L129.185 143.802
L129.727 144.133
L129.981 143.874
L129.981 143.233
L130.155 146.286
L130.158 145.234
L130.216 145.181
L130.448 145.233
L130.512 144.722
L130.561 144.924
L130.561 144.924
L130.561 144.924
L130.615 144.381
L130.709 145.365
L130.906 145.016
L130.971 143.072
L131.032 142.946
L131.038 142.499
L131.315 143.965
L131.317 143.768
L131.405 143.497
L131.473 144.1
L131.473 143.551
L131.561 143.042
L131.644 144.355
L131.879 144.485
L132.084 146.711
L132.35 147.214
L132.728 148.727
L132.755 148.616
L132.755 147.447
L132.814 147.76
L133.3 149.547
L133.338 148.589
L133.358 148.603
L133.466 148.735
L133.927 150.639
L133.933 150.564
L134.167 150.359
L134.257 150.854
L134.257 150.854
L134.257 150.854
L134.257 150.336
L134.911 154.379
L135.059 154.46
L135.231 155.766
L135.276 155.516
L135.351 153.752
L135.497 152.912
L135.57 151.368
L135.628 151.168
L135.858 151.882
L135.858 150.823
L135.973 149.898
L135.989 149.324
L136.771 151.998
L136.896 151.541
L137.226 151.582
L137.387 151.877
L137.805 151.74
L138.452 154.946
L138.454 154.434
L138.627 154.712
L138.696 153.674
L138.9 154.544
L138.903 154.217
L139.063 154.577
L139.149 154.167
L139.163 152.41
L139.33 152.887
L139.397 151.736
L139.548 151.494
L139.613 151.169
L139.67 151.552
L139.67 151.552
L139.67 151.552
L139.687 149.685
L140.068 149.686
L140.068 149.197
L140.643 151.068
L140.643 150.584
L140.891 151.282
L141.09 151.244
L141.115 150.597
L141.137 148.89
L141.435 148.932
L141.453 147.696
L141.557 148.105
L141.645 148.274
L142.142 150.061
L142.142 149.824
L142.142 149.476
L142.392 149.45
L142.458 149.237
L142.56 149.798
L142.562 149.532
L142.562 149.063
L142.783 149.317
L142.828 149.14
L142.94 149.606
L143.28 150.39
L143.482 147.774
L143.558 148.241
L143.558 147.824
L143.774 147.849
L144.081 148.216
L144.343 148.714
L144.432 148.013
L144.589 147.876
L144.73 146.86
L145.124 148.675
L145.228 148.551
L145.6 149.134
L145.629 148.817
L145.718 149.241
L146.043 149.368
L146.05 148.931
L146.208 149.49
L146.209 149.087
L146.248 149.214
L146.534 149.132
L146.87 149.56
L146.915 148.543
L146.998 148.598
L147.085 148.581
L147.129 148.208
L147.434 148.459
L147.5 148.264
L147.613 146.207
L147.705 145.649
L147.734 145.028
L147.773 145.057
L147.872 144.99
L147.934 144.589
L148.038 144.954
L148.038 144.528
L148.038 144.528
L148.038 144.528
L148.132 145.268
L148.396 145.745
L148.42 145.573
L148.424 145.213
L148.539 145.846
L148.563 145.527
L148.572 144.743
L148.751 144.866
L148.853 143.527
L148.934 143.552
L148.982 143.559
L149.085 142.864
L149.096 142.47
L149.244 142.86
L149.303 142.319
L149.875 143.933
L150.132 143.613
L150.23 143.948
L150.23 143.948
L150.23 143.948
L150.334 142.835
L150.562 142.552
L150.792 143.254
L150.796 143.016
L150.796 142.645
L150.83 142.717
L151.106 143.086
L151.139 142.979
L151.182 142.385
L151.625 143.663
L151.775 143.471
L152.025 143.604
L152.082 142.755
L152.362 142.946
L152.406 142.503
L152.502 142.383
L152.634 140.532
L152.897 140.518
L153.051 139.701
L153.316 140.009
L153.554 141.275
L153.576 141.037
L154.003 142.161
L154.316 142.57
L154.316 142.201
L154.716 143.045
L154.733 142.935
L154.786 142.907
L154.868 143.245
L155.124 143.263
L155.174 143.128
L155.259 143.316
L155.294 143.112
L155.645 143.724
L155.755 142.564
L156.208 143.595
L156.281 143.388
L156.547 143.239
L156.547 142.536
L156.683 142.606
L156.826 142.539
L156.826 142.185
L157.031 142.855
L157.083 142.776
L157.126 142.692
L157.186 141.977
L157.255 141.959
L157.312 141.819
L157.482 141.774
L157.482 141.43
L157.572 141.491
L157.917 142.687
L158.084 142.632
L158.189 142.062
L158.394 142.128
L158.47 142.007
L158.495 141.725
L158.609 141.941
L158.743 141.675
L158.765 141.11
L159.489 142.951
L159.844 143.19
L159.851 142.945
L159.928 142.948
L160.279 143.01
L160.332 142.894
L160.716 143.092
L160.799 142.174
L160.856 142.435
L160.856 142.435
L160.856 142.435
L160.894 140.365
L161.622 140.97
L161.763 140.94
L161.763 140.595
L162.146 141.453
L162.151 141.147
L162.18 140.854
L162.623 141.575
L162.623 141.25
L163.113 141.342
L163.199 141.249
L163.494 141.403
L163.582 141.643
L163.582 141.643
L163.582 141.643
L163.609 141.228
L164.677 142.97
L164.795 140.967
L164.957 141.472
L164.962 141.276
L164.962 140.945
L165.171 141.133
L165.209 141.045
L165.306 139.802
L165.366 139.445
L165.723 139.714
L165.817 139.184
L166.285 139.716
L166.485 139.736
L166.596 139.129
L167.281 140.685
L167.281 140.414
L167.433 139.902
L168.043 141.019
L168.048 140.748
L168.538 141.248
L168.624 140.738
L168.916 140.917
L169.238 141.335
L169.453 141.132
L169.791 141.255
L169.815 140.439
L170.253 141.447
L170.329 139.858
L170.42 139.948
L170.444 139.749
L170.71 139.606
L170.815 139.561
L170.867 138.893
L171.163 139.142
L171.205 137.809
L171.639 138.352
L172.15 138.822
L172.553 139.821
L172.901 140.13
L172.906 139.823
L173.001 139.918
L173.053 139.847
L173.077 139.332
L173.23 139.613
L173.387 139.494
L173.487 139.582
L173.53 139.175
L174.058 139.585
L174.401 139.819
L174.554 138.266
L174.825 138.594
L174.906 137.902
L174.973 137.961
L175.271 138.154
L175.28 137.917
L175.368 137.969
L175.921 138.822
L177.13 141.81
L177.13 141.531
L177.135 141.245
L177.326 141.826
L177.326 141.542
L177.347 141.292
L177.559 141.413
L177.721 140.304
L177.916 140.273
L178.135 140.847
L178.193 140.5
L178.536 141.079
L178.607 140.753
L178.988 141.245
L179.011 141.048
L179.34 141.324
L179.574 142.101
L179.774 142.266
L179.907 141.717
L180.045 141.958
L180.207 141.848
L180.264 140.97
L180.826 141.737
L180.912 141.494
L181.184 141.716
L181.26 140.897
L181.303 140.826
L181.384 139.774
L181.612 139.948
L181.703 138.721
L181.831 138.665
L181.938 138.701
L182.065 138.528
L182.073 138.315
L182.16 138.392
L182.274 138.566
L182.327 138.454
L182.332 137.941
L182.498 137.814
L182.598 137.973
L182.598 137.706
L182.741 137.926
L182.775 137.767
L183.036 137.702
L183.127 137.85
L183.127 137.576
L183.508 138.009
L183.619 137.75
L184.108 138.562
L184.346 138.8
L184.542 139.299
L184.599 139.192
L184.599 138.944
L184.884 139.035
L184.904 138.858
L185.013 138.949
L185.047 138.893
L185.108 137.849
L185.375 138.148
L185.408 137.739
L185.408 137.494
L185.794 137.931
L186.852 140.415
L187.133 140.615
L187.133 140.368
L187.733 141.297
L187.737 140.285
L188.631 141.519
L188.662 141.368
L188.701 141.347
L188.701 141.105
L188.947 141.042
L189.49 141.824
L189.881 142.021
L189.994 141.957
L190.162 142.244
L190.171 142.03
L190.29 141.942
L190.362 141.042
L190.438 141.11
L190.592 140.421
L190.857 140.36
L191 139.407
L191.005 139.161
L191.397 139.067
L192.186 140.298
L192.279 140.158
L192.29 139.538
L192.548 139.599
L192.672 139.932
L192.672 139.705
L192.738 139.72
L192.777 139.387
L193.205 139.491
L193.52 139.833
L193.62 138.7
L193.772 138.734
L193.948 138.629
L193.948 138.397
L194.182 138.951
L194.191 138.733
L194.234 138.205
L194.52 138.652
L194.558 138.308
L194.658 138.457
L194.868 138.399
L194.91 138.105
L195.087 138.544
L195.11 138.396
L195.149 137.807
L195.482 137.488
L195.495 137.293
L196.198 138.759
L196.268 137.948
L196.42 138.184
L196.441 138.059
L196.682 138.172
L196.689 137.726
L196.777 137.853
L196.796 137.658
L197.085 138.186
L197.085 137.987
L197.43 138.473
L197.559 138.427
L198.301 139.665
L198.488 139.752
L198.821 140.521
L198.821 140.297
L198.948 140.271
L198.948 140.08
L199.087 140.269
L199.102 140.086
L199.427 140.557
L199.53 139.91
L199.673 140.005
L199.711 139.655
L200.054 140.386
L200.059 140.158
L200.187 140.388
L200.187 140.163
L200.324 140.174
L200.324 139.978
L200.435 140.207
L200.473 140.115
L200.545 139.49
L201.071 140.351
L201.321 140.6
L201.85 141.431
L201.85 141.224
L201.859 141.019
L201.964 141.208
L201.964 140.991
L201.993 140.664
L202.155 140.516
L202.312 138.808
L202.655 138.949
L202.669 138.776
L202.845 138.797
L203.349 139.714
L203.355 139.508
L203.598 139.729
L203.603 139.514
L204.141 139.86
L204.212 139.436
L204.455 139.536
L204.853 140.245
L204.894 140.088
L205.098 140.546
L205.132 140.383
L205.16 140.026
L205.579 140.596
L205.65 140.54
L205.654 140.335
L206.117 140.865
L206.117 140.442
L206.27 140.342
L206.27 140.138
L206.356 140.333
L206.398 140.242
L206.589 140.584
L206.771 140.548
L206.915 140.713
L206.946 140.593
L206.999 140.068
L207.184 140.014
L207.489 140.455
L207.489 140.246
L207.642 140.063
L207.885 140.322
L208.189 140.621
L208.337 140.533
L208.585 140.579
L208.799 140.989
L208.832 140.907
L209.198 141.363
L209.198 141.184
L209.213 140.778
L209.299 140.816
L209.499 140.895
L209.723 141.108
L209.956 141.43
L209.956 140.816
L210.137 141.217
L210.137 141.014
L210.171 140.876
L210.39 140.959
L210.478 139.684
L211.104 140.448
L211.18 140.333
L211.433 140.722
L211.45 140.564
L211.519 140.351
L211.823 140.491
L211.842 140.316
L212.076 140.762
L212.299 140.811
L212.299 140.757
L212.392 140.616
L212.438 140.568
L212.79 140.871
L212.821 140.47
L213.019 140.174
L213.197 140.37
L213.197 140.226
L213.314 140.279
L213.409 139.503
L213.633 139.549
L213.652 139.195
L213.81 139.493
L213.843 139.406
L214.114 139.504
L214.114 139.385
L214.194 139.394
L214.262 139.342
L214.645 139.521
L215.138 140.465
L215.172 140.341
L215.229 140.312
L215.458 140.39
L215.891 141.051
L215.917 140.542
L215.981 140.247
L216.348 140.623
L216.358 140.464
L216.518 140.5
L216.518 140.312
L216.518 140.352
L216.639 140.439
L216.824 140.386
L216.824 140.193
L217.081 140.227
L217.253 140.157
L217.282 139.861
L217.434 140.366
L217.439 140.195
L217.853 140.786
L218.01 140.82
L218.263 141.222
L218.291 141.129
L218.301 140.959
L218.711 141.159
L218.792 140.397
L218.839 140.134
L218.839 139.952
L219.423 140.401
L219.763 140.847
L219.806 140.769
L219.867 140.731
L220.235 140.776
L220.338 140.699
L220.473 140.622
L220.482 140.29
L220.64 140.376
L220.754 140.612
L220.786 140.485
L220.925 140.429
L221.144 140.95
L221.378 141.082
L221.378 140.896
L221.592 141.031
L221.694 141.287
L222.059 141.726
L222.064 141.624
L222.064 141.518
L222.426 141.894
L222.468 141.793
L222.559 141.857
L222.577 141.551
L222.833 141.88
L222.833 141.787
L222.93 141.573
L223.007 141.482
L223.216 141.62
L223.316 141.306
L223.454 141.105
L223.478 141.18
L223.518 140.916
L223.64 140.767
L223.64 140.59
L223.812 140.554
L224.216 141.304
L224.216 141.136
L224.259 140.847
L224.345 140.903
L224.564 140.952
L224.602 141.137
L224.698 141.035
L225.245 141.564
L225.256 141.49
L225.256 141.333
L225.488 141.734
L225.488 141.566
L225.555 140.953
L225.679 140.924
L225.726 140.167
L225.964 140.063
L226.012 139.937
L226.165 140.167
L226.388 140.027
L226.4 139.958
L226.684 140.366
L226.712 139.756
L226.893 139.752
L226.979 139.267
L227.047 139.395
L227.047 139.242
L227.146 138.825
L227.16 138.688
L227.352 138.75
L227.352 138.618
L227.916 139.253
L227.998 139.127
L228.355 139.36
L228.484 139.169
L228.494 138.678
L228.508 138.685
L228.908 138.454
L229.013 138.074
L229.232 138.393
L229.646 138.797
L229.851 138.673
L230.327 139.128
L230.527 139.142
L230.546 138.974
L230.68 139.028
L230.708 138.938
L230.897 138.279
L231.189 138.369
L231.255 138.54
L231.255 138.374
L231.606 138.228
L231.606 137.791
L232.128 138.3
L232.128 138.137
L232.337 138.08
L232.432 137.801
L232.512 137.812
L232.512 137.73
L232.542 137.332
L233.047 137.888
L233.526 138.656
L233.526 138.524
L233.757 138.697
L233.972 139.005
L233.972 138.909
L234.371 139.202
L234.476 138.574
L234.652 138.571
L234.666 138.438
L234.911 138.391
L234.911 137.915
L235.09 137.975
L235.3 138.213
L235.366 138.148
L235.366 138.056
L235.647 138.125
L235.843 138.535
L235.857 138.409
L235.862 138.269
L236.297 138.403
L236.552 138.429
L236.629 137.63
L236.948 137.781
L237.174 137.485
L237.219 137.152
L237.581 137.302
L237.6 137.198
L237.672 137.027
L238.104 137.51
L238.291 137.603
L238.405 137.179
L238.5 137.418
L238.539 137.331
L239.034 138.027
L239.034 137.872
L239.062 137.689
L239.415 137.779
L239.648 138.048
L239.648 137.894
L239.829 137.612
L239.929 137.412
L239.955 136.946
L239.955 136.952
L240.163 137.055
L240.244 136.83
L240.344 136.584
L240.677 136.738
L240.682 136.589
L240.725 136.471
L240.875 136.528
L240.891 136.4
L241.611 137.338
L241.773 137.145
L241.792 136.817
L242.092 137.017
L242.092 136.856
L242.254 136.799
L242.425 136.977
L242.425 136.822
L242.535 136.339
L242.563 136.234
L243.016 136.641
L243.059 136.541
L243.199 136.715
L243.199 136.641
L243.614 136.646
L243.616 136.596
L244.016 136.825
L244.087 136.256
L244.459 136.36
L244.468 136.23
L244.549 135.486
L244.964 135.868
L244.987 135.285
L245.288 135.009
L245.659 135.459
L245.664 135.315
L245.721 135.217
L245.871 135.368
L245.926 135.182
L246.359 135.119
L246.664 135.022
L247.078 135.372
L247.097 135.273
L247.245 135.603
L247.293 135.565
L247.674 135.687
L247.674 135.645
L247.95 135.898
L247.974 135.787
L248.133 135.793
L248.133 135.682
L248.133 135.583
L248.133 135.583
L248.133 135.583
L248.207 135.708
L248.207 135.557
L248.788 135.732
L248.788 135.59
L248.884 134.759
L248.92 134.61
L248.936 134.085
L249.246 134.291
L249.247 134.167
L249.346 134.042
L249.498 134.019
L249.541 133.687
L250.046 133.679
L250.193 133.631
L250.274 133.424
L250.336 133.305
L250.732 133.581
L250.951 133.413
L251.084 133.297
L251.775 134.06
L251.827 133.941
L251.989 133.961
L252.056 133.085
L252.146 132.997
L252.289 133.02
L252.289 132.982
L252.3 132.739
L252.522 132.769
L252.522 132.635
L252.745 132.825
L252.745 132.684
L252.753 132.395
L252.942 132.461
L253.061 132.318
L253.137 132.043
L253.156 132.09
L253.423 132.268
L253.423 132.123
L253.611 132.321
L253.611 132.179
L253.612 131.808
L253.87 131.989
L253.927 131.823
L253.984 131.788
L254.066 131.89
L254.075 131.776
L254.129 131.38
L254.564 131.481
L254.564 131.366
L254.564 131.154
L254.766 131.382
L254.799 131.295
L254.966 131.214
L255.032 131.349
L255.061 131.164
L255.247 131.078
L255.509 131.283
L255.509 130.9
L255.78 130.947
L255.909 130.77
L256.003 130.854
L256.003 130.788
L256.128 130.641
L256.29 130.167
L256.35 130.197
L256.35 129.773
L256.638 129.934
L256.723 129.813
L256.885 129.887
L256.885 129.749
L256.907 129.772
L257.519 130.273
L257.552 129.631
L257.714 129.54
L257.746 129.691
L257.754 129.571
L257.754 129.571
L257.819 129.166
L258.09 128.995
L258.104 128.884
L258.414 129.335
L258.428 129.244
L258.495 129.06
L258.509 128.935
L259.014 128.909
L259.019 128.939
L259.857 129.799
L259.943 129.625
L260.105 129.668
L260.43 129.54
L260.54 129.706
L260.562 129.606
L260.786 129.59
L261.02 129.8
L261.02 129.698
L261.028 129.521
L261.172 129.502
L261.229 129.186
L261.277 129.237
L261.315 128.912
L261.392 128.944
L261.91 129.184
L261.91 129.058
L262.139 129.187
L262.196 129.036
L262.295 128.827
L262.329 128.616
L262.751 128.998
L262.758 128.893
L262.767 128.764
L262.928 128.997
L262.963 128.859
L263.029 128.591
L263.317 128.284
L263.706 128.437
L263.723 128.227
L263.762 128.27
L264.185 128.741
L264.191 128.649
L264.353 128.502
L264.382 128.439
L264.949 128.869
L264.982 128.783
L265.087 128.676
L265.357 128.852
L265.357 128.719
L265.382 128.152
L265.981 128.653
L266.044 128.361
L266.33 128.458
L266.33 128.325
L266.427 128.343
L266.663 128.55
L266.697 128.502
L266.889 128.282
L267.342 128.533
L267.354 128.437
L267.402 128.075
L267.654 127.998
L267.826 128.057
L267.835 127.569
L267.864 127.674
L268.002 127.649
L268.097 127.537
L268.311 127.424
L268.573 127.539
L268.678 127.317
L268.754 127.075
L268.935 127.284
L268.945 127.166
L269.702 127.765
L269.71 127.56
L270.108 127.791
L270.159 127.847
L270.159 127.847
L270.159 127.847
L270.159 127.719
L270.517 127.806
L270.521 127.698
L270.583 127.242
L270.826 127.191
L270.961 127.022
L271.082 127.193
L271.217 126.969
L271.312 126.822
L271.393 127.005
L271.755 127.171
L271.983 127.508
L271.993 127.422
L272.612 126.876
L272.612 126.748
L272.879 126.928
L272.893 126.835
L272.922 126.808
L273.284 127.122
L273.327 127.055
L273.332 126.838
L273.351 126.86
L273.66 127.153
L273.67 127.05
L273.754 126.012
L274.084 125.979
L274.122 125.901
L274.284 125.803
L274.284 125.542
L274.577 125.846
L274.577 125.741
L274.584 125.688
L274.979 125.873
L275.053 125.432
L275.456 125.918
L275.47 125.851
L275.698 125.831
L275.884 125.593
L276.042 125.582
L276.227 125.011
L276.544 125.232
L276.545 124.864
L276.785 124.954
L277.013 124.208
L277.161 124.351
L277.18 124.266
L277.194 124.153
L277.461 124.382
L277.47 124.309
L277.647 123.853
L277.713 123.852
L277.948 124.112
L277.948 124.05
L277.949 124.003
L278.328 123.927
L278.796 124.309
L278.83 123.976
L278.995 123.973
L279.18 124.139
L279.209 124.092
L279.341 123.869
L279.652 124.053
L279.704 123.527
L279.766 123.637
L280.019 123.588
L280.269 123.475
L280.543 123.53
L280.604 123.22
L280.652 123.38
L280.814 123.473
L281.126 123.896
L281.126 123.774
L281.271 123.64
L281.39 123.2
L281.519 123.233
L281.995 123.794
L281.995 123.672
L282.014 123.581
L282.481 123.896
L282.481 123.773
L282.643 123.636
L282.648 123.412
L283.1 123.819
L283.205 123.388
L283.291 123.449
L283.305 123.351
L283.324 123.052
L283.391 123.127
L283.424 123.066
L284.186 123.591
L284.286 123.315
L284.5 123.421
L284.5 123.305
L284.629 122.811
L284.696 122.856
L284.696 122.736
L284.758 122.621
L284.924 122.679
L285.22 123.02
L285.439 122.948
L285.544 122.733
L285.834 122.924
L285.953 122.867
L286.148 123.01
L286.368 122.875
L286.387 122.676
L286.61 123.079
L286.61 122.959
L286.863 122.914
L286.891 122.82
L287.034 123.07
L287.038 122.97
L287.311 122.916
L287.368 122.562
L287.773 122.756
L287.849 122.689
L288.125 122.958
L288.144 122.874
L288.168 122.807
L288.444 123.007
L288.582 122.888
L288.639 122.874
L289.092 123.28
L289.225 123.311
L289.235 123.215
L289.235 123.104
L289.297 123.116
L289.492 123.238
L289.687 123.507
L289.706 123.435
L289.973 123.241
L290.149 123.256
L290.64 123.57
L290.968 123.412
L291.164 123.582
L291.316 123.545
L291.364 123.395
L291.459 123.329
L291.526 123.232
L291.988 123.477
L292.535 123.75
L292.979 124.238
L292.988 124.152
L293.002 124.063
L293.193 123.986
L293.398 124.134
L293.411 124.056
L293.645 124.188
L293.645 124.078
L293.679 123.686
L294.16 124.002
L294.16 123.777
L294.293 123.905
L294.307 123.836
L295.479 124.127
L295.608 124.019
L296.008 124.201
L296.127 124.312
L296.131 124.212
L296.217 124.15
L297.403 124.789
L297.479 124.682
L297.686 124.812
L297.937 125.104
L297.937 124.992
L298.208 125.117
L298.751 125.638
L298.751 125.53
L299.146 125.654
L300.004 126.064
L300.013 125.965
L300.761 126.644
L300.817 126.492
L300.947 126.479
L301.409 126.646
L301.418 126.567
L301.48 126.607
L301.828 126.717
L302.147 127.16
L302.357 127.2
L302.357 127.093
L302.447 126.773
L302.785 126.911
L302.79 126.807
L302.809 126.722
L303.087 126.7
L303.087 126.603
L303.204 126.475
L303.281 126.18
L303.466 126.332
L303.471 126.229
L303.476 126.125
L303.838 126.227
L303.847 126.031
L303.942 126.11
L303.985 125.969
L304.409 126.202
L304.883 125.266
L305.314 125.363
L305.371 125.18
L305.567 125.159
L305.719 124.842
L306.062 125.12
L306.091 125.035
L306.191 125.051
L306.191 124.951
L306.311 124.813
L306.419 124.667
L306.619 124.908
L306.638 124.834
L306.71 124.585
L307.196 124.559
L307.236 124.3
L307.367 124.183
L307.492 124.109
L307.515 123.941
L307.581 123.952
L307.956 124.119
L308.364 124.291
L308.377 124.218
L308.786 124.2
L309.31 124.201
L309.463 124.078
L309.904 124.3
L309.914 124.212
L310.096 124.132
L310.096 124.028
L310.287 124.191
L310.287 124.088
L310.32 123.932
L310.396 123.972
L310.52 123.896
L310.773 124.215
L310.801 124.176
L311.754 124.556
L311.764 124.272
L311.969 124.07
L311.978 123.981
L311.978 123.981
L311.978 123.981
L312.154 124.08
L312.154 123.983
L312.373 124.062
L312.373 123.96
L312.506 123.929
L312.525 123.837
L312.621 123.955
L312.621 123.851
L312.66 123.794
L312.844 123.759
L312.887 123.335
L312.997 123.447
L312.997 123.343
L313.059 123.028
L313.083 122.615
L313.416 122.82
L313.416 122.718
L313.416 122.617
L313.973 122.935
L314.054 122.761
L314.326 122.96
L314.335 122.867
L314.721 122.669
L314.964 123.018
L315.093 122.892
L315.288 123.155
L315.288 123.051
L315.307 122.709
L315.574 122.866
L315.597 122.813
L315.678 122.682
L315.89 122.217
L316.088 122.19
L316.088 122.094
L316.338 121.924
L316.345 121.747
L316.569 121.734
L316.569 121.534
L316.636 121.609
L316.774 121.483
L316.774 121.384
L317.222 121.512
L317.243 121.349
L317.56 121.643
L317.565 121.547
L317.622 121.439
L317.693 121.525
L317.931 121.618
L317.931 121.525
L317.969 121.327
L318.041 121.014
L318.103 121.048
L318.103 120.957
L318.141 120.883
L318.574 121.291
L318.625 121.148
L318.803 121.226
L318.803 121.139
L318.865 121.083
L319.027 121.128
L319.041 121.089
L319.26 121.116
L319.365 120.834
L319.44 120.854
L319.442 120.755
L319.541 120.12
L319.674 120.006
L320.136 119.044
L320.189 119.072
L320.36 119.227
L320.36 119.128
L320.632 119.268
L320.632 119.169
L321.094 119.088
L321.323 119.287
L321.551 119.395
L321.646 119.534
L322.242 119.815
L322.523 119.479
L322.58 118.918
L322.651 118.954
L322.651 118.865
L322.675 118.786
L322.875 118.723
L322.885 118.656
L323.089 118.888
L323.132 118.781
L323.17 118.806
L323.17 118.806
L323.17 118.806
L323.185 118.585
L323.328 118.466
L323.423 118.212
L323.48 118.26
L323.485 118.17
L323.57 118.064
L323.656 118.106
L323.661 118.04
L323.78 117.866
L323.804 117.742
L324.256 117.997
L324.337 117.965
L324.535 117.834
L324.535 117.736
L324.723 117.873
L324.961 118.155
L325.147 118.209
L325.166 118.1
L325.214 118.108
L325.218 118.027
L325.614 118.384
L325.623 118.317
L325.638 118.252
L326.09 118.558
L326.2 118.451
L326.339 118.35
L326.362 118.203
L326.576 118.167
L326.833 117.835
L327.152 118.164
L327.152 118.073
L327.276 118.011
L327.438 117.905
L327.471 117.536
L327.514 117.567
L327.634 117.485
L327.648 117.33
L328.019 117.285
L328.024 117.023
L328.348 117.127
L328.367 117.079
L328.481 116.944
L328.591 116.936
L328.814 116.742
L328.886 116.825
L328.9 116.679
L329.019 116.374
L329.562 116.803
L329.577 116.766
L329.791 116.641
L329.862 116.288
L329.958 116.395
L329.981 116.26
L330.372 116.485
L330.412 116.415
L330.696 116.651
L330.696 116.574
L330.802 116.26
L330.924 116.235
L331.201 116.481
L331.201 116.402
L331.234 116.141
L331.353 116.276
L331.353 116.188
L331.363 116.115
L331.363 116.115
L331.363 116.115
L331.563 116.192
L331.634 116.195
L332.129 116.604
L332.139 116.531
L332.282 116.057
L332.335 116.166
L332.534 116.15
L332.568 115.925
L332.748 115.989
L332.769 115.936
L332.791 115.89
L333.034 116.098
L333.058 116.064
L333.068 115.978
L333.068 115.978
L333.068 115.978
L333.187 116.081
L333.187 115.987
L333.23 115.539
L333.387 115.595
L333.406 115.493
L333.468 115.141
L333.569 115.112
L333.839 115.299
L333.854 115.231
L333.854 115.139
L333.854 115.139
L333.854 115.139
L333.992 115.306
L334.037 115.242
L334.087 114.704
L334.354 115.019
L334.382 114.874
L334.392 114.824
L334.635 115.049
L334.882 115.149
L334.882 115.064
L335.003 114.872
L335.026 114.783
L335.093 114.572
L335.292 114.43
L335.384 114.214
L335.435 114.034
L335.435 113.951
L335.435 113.951
L335.435 113.951
L335.511 114.115
L335.515 114.066
L335.706 114.266
L335.711 114.179
L335.711 114.095
L336.121 114.423
L336.13 114.379
L336.24 114.418
L336.24 114.328
L336.254 114.271
L336.616 114.583
L336.649 114.464
L337.197 115.134
L337.211 115.06
L337.263 115.037
L337.659 115.415
L337.659 115.324
L337.907 115.489
L337.914 115.38
L337.954 115.071
L338.059 115.231
L338.074 115.082
L338.307 114.404
L338.507 114.623
L338.55 114.538
L338.576 114.081
L338.874 114.197
L338.874 114.111
L338.883 114.056
L339.069 114.318
L339.074 114.143
L339.164 113.951
L339.364 114.091
L339.369 114.012
L339.479 113.774
L339.507 113.733
L339.507 113.733
L339.507 113.733
L339.541 113.87
L340.026 114.119
L340.031 114.049
L340.765 114.133
L340.868 113.755
L341.036 113.988
L341.212 114.084
L341.484 114.343
L342.112 114.677
L342.26 114.429
L343.113 114.346
L343.141 114.146
L343.275 114.249
L343.276 114.17
L343.503 114.123
L343.503 113.965
L343.777 114.456
L343.932 114.385
L344.003 114.007
L344.075 114.211
L344.099 114.05
L344.184 114.086
L344.189 114.02
L344.38 113.916
L344.47 113.299
L344.599 113.352
L344.646 113.387
L344.656 113.323
L344.989 113.173
L345.018 112.66
L345.065 112.723
L345.127 112.783
L345.128 112.709
L345.966 112.922
L345.966 112.836
L346.068 112.495
L346.199 112.379
L346.309 112.008
L346.442 111.986
L347.118 112.216
L347.121 112.143
L347.38 112.608
L347.385 112.528
L347.704 112.596
L347.704 112.51
L347.737 112.284
L348.157 112.568
L348.157 112.494
L348.266 112.36
L348.304 112.236
L348.733 112.128
L348.795 111.84
L349.076 112.021
L349.076 111.936
L349.157 111.769
L349.162 111.54
L349.504 111.875
L349.509 111.723
L349.533 111.696
L350.1 111.929
L350.119 111.881
L350.367 111.814
L350.431 111.505
L350.919 111.763
L350.929 111.691
L351.214 111.638
L351.433 111.972
L351.439 111.85
L351.453 111.714
L351.867 112.232
L352.262 112.395
L352.272 112.333
L352.315 111.885
L352.734 112.316
L352.739 112.184
L352.739 112.106
L353.11 112.355
L353.11 112.272
L353.172 111.793
L353.285 111.95
L353.61 112.008
L353.62 111.967
L353.643 111.933
L354.034 112.14
L354.225 112.353
L354.244 112.21
L354.434 112.111
L354.968 112.691
L354.972 112.629
L354.977 112.392
L355.072 112.406
L355.368 112.812
L355.406 112.667
L355.596 112.799
L355.825 112.873
L356.43 113.408
L356.43 113.327
L356.501 113.151
L356.539 112.951
L356.83 113.08
L356.858 112.95
L357.039 112.763
L357.697 112.803
L358.305 113.287
L358.33 113.229
L358.34 113.077
L358.568 113.102
L358.573 113.026
L358.706 112.369
L358.797 112.436
L358.797 112.358
L359.249 112.391
L359.678 112.665
L359.702 112.543
L359.726 112.497
L360.502 112.691
L360.512 112.559
L360.576 112.375
L360.826 112.483
L360.859 112.372
L360.921 112.425
L361.05 112.41
L361.074 112.368
L362.193 112.78
L362.245 112.701
L362.493 112.874
L362.664 112.71
L362.674 112.65
L362.774 112.684
L362.874 112.734
L362.874 112.655
L362.883 112.585
L362.883 112.585
L362.883 112.585
L362.974 112.664
L362.979 112.594
L363.144 112.441
L363.222 111.955
L363.712 112.288
L363.816 111.746
L363.861 111.656
L363.874 111.403
L364.141 111.638
L364.141 111.493
L364.331 111.264
L364.555 111.335
L364.555 111.258
L364.589 111.106
L364.774 111.279
L364.955 111.326
L364.974 111.216
L364.974 111.146
L364.974 111.146
L364.974 111.146
L365.079 111.324
L365.103 111.146
L365.27 111.351
L365.67 111.004
L365.741 110.761
L365.97 110.918
L365.998 110.802
L366.203 111.097
L366.456 110.846
L366.559 110.685
L366.627 110.685
L367.037 110.905
L367.061 110.797
L367.061 110.722
L367.337 110.985
L367.356 110.89
L367.394 110.696
L367.465 110.763
L367.484 110.494
L367.856 110.59
L367.87 110.481
L367.932 110.415
L368.313 110.658
L368.313 110.586
L368.323 110.449
L368.416 110.483
L368.785 110.651
L368.837 110.737
L368.837 110.67
L368.837 110.67
L368.899 110.612
L369.232 110.603
L369.318 110.696
L369.318 110.557
L369.356 110.165
L369.78 110.137
L370.009 110.131
L370.009 110.06
L370.009 110.06
L370.009 110.06
L370.109 110.247
L370.152 110.177
L370.68 110.86
L370.733 110.739
L370.99 110.765
L370.99 110.69
L371.128 110.873
L371.142 110.757
L371.18 110.547
L371.347 110.531
L372.071 111.198
L372.309 111.177
L372.309 110.595
L372.428 110.771
L372.438 110.66
L372.505 110.379
L372.886 110.487
L372.962 110.196
L373 110.204
L373 110.137
L373.014 110.083
L373.476 110.089
L373.482 110.034
L373.652 110.032
L373.871 110.422
L374.162 110.43
L374.172 110.367
L374.172 110.367
L374.172 110.367
L374.248 110.468
L374.262 110.351
L374.333 110.325
L374.614 110.395
L374.695 110.136
L375.281 110.534
L375.31 110.424
L375.31 110.352
L375.5 110.272
L375.577 109.95
L375.607 109.977
L375.612 109.878
L375.635 109.939
L375.635 109.939
L375.758 110.05
L376.029 109.984
L376.077 109.409
L376.134 109.442
L376.448 109.604
L376.472 109.388
L376.558 109.465
L376.829 109.42
L376.956 109.558
L376.962 109.426
L376.968 109.309
L377.134 109.571
L377.748 109.365
L377.748 109.297
L377.834 109.309
L378.039 109.16
L378.039 109.094
L378.239 109.066
L378.349 108.795
L378.73 108.727
L378.887 108.921
L379.158 109.052
L379.158 108.979
L379.234 108.652
L379.73 108.934
L379.73 108.868
L379.73 108.795
L379.73 108.795
L379.73 108.795
L379.825 108.903
L380.097 108.914
L380.101 108.841
L380.135 108.815
L380.268 108.95
L380.282 108.894
L380.692 108.856
L380.935 109.008
L380.949 108.959
L380.963 108.796
L381.035 108.841
L381.173 108.875
L381.197 108.796
L381.416 108.752
L381.611 109
L381.621 108.942
L381.983 109.07
L382.092 108.773
L382.121 108.771
L382.411 109.05
L382.44 108.921
L382.454 108.865
L382.902 109.338
L382.911 109.261
L383.026 109.136
L383.321 109.162
L383.521 109.341
L383.707 109.372
L383.707 109.303
L383.923 109.53
L383.945 109.506
L384.188 109.672
L384.202 109.568
L384.34 109.614
L384.617 109.645
L384.617 109.576
L384.678 109.421
L384.869 109.507
L384.869 109.439
L384.869 109.302
L385.198 109.395
L385.202 109.329
L385.294 109.222
L385.626 109.317
L385.626 109.256
L385.688 109.159
L386.169 109.231
L386.226 109.153
L386.517 109.114
L387.589 109.425
L387.622 109.374
L388.297 109.407
L388.397 109.489
L388.44 109.409
L388.54 108.909
L388.568 108.824
L388.816 108.829
L388.911 108.74
L389.222 108.832
L389.232 108.778
L389.246 108.718
L389.37 108.839
L389.394 108.794
L390.28 109.101
L390.551 108.917
L392.09 109.245
L392.151 109.152
L392.151 109.088
L392.628 109.122
L393.014 109.193
L393.023 109.001
L393.299 109.087
L393.566 109.341
L393.585 109.28
L394.209 109.553
L394.304 109.159
L394.342 108.989
L394.342 108.922
L394.785 109.127
L394.785 108.989
L394.871 108.825
L394.957 108.797
L394.957 108.728
L394.957 108.526
L395.4 108.737
L395.403 108.64
L395.403 108.518
L395.833 108.746
L395.833 108.677
L396.286 108.755
L396.286 108.627
L396.3 108.563
L396.638 108.535
L396.705 108.393
L396.705 108.325
L397.01 108.262
L397.014 108.194
L397.424 108.426
L397.424 108.358
L397.434 108.108
L397.572 108.084
L397.672 107.915
L397.862 107.801
L398.143 107.863
L398.143 107.794
L398.939 107.757
L398.939 107.691
L399.324 107.811
L399.348 107.751
L399.467 107.695
L399.686 107.482
L399.791 107.45
L400.366 107.736
L400.749 107.65
L400.812 107.506
L401.137 107.576
L401.137 107.508
L401.188 107.297
L401.818 107.589
L402.185 107.396
L402.234 107.109
L403.36 107.452
L403.424 107.424
L403.64 107.478
L403.966 107.532
L404.719 107.613
L404.719 107.554
L404.776 107.288
L404.986 107.31
L405.24 107.216
L405.322 106.804
L405.396 106.722
L405.465 106.803
L405.716 106.683
L405.716 106.424
L406.593 106.949
L406.612 106.917
L406.838 107.054
L406.993 106.951
L407.069 106.794
L407.291 106.851
L407.475 106.702
L407.761 106.947
L407.767 106.884
L407.99 106.847
L408.123 106.928
L408.123 106.861
L408.644 107.064
L408.663 107.01
L408.993 107.003
L409.145 107.127
L409.361 107.055
L409.412 106.897
L409.546 106.876
L410.054 107.17
L410.409 107.119
L411.228 107.288
L411.292 107.094
L412.225 107.169
L412.346 106.964
L412.607 106.855
L412.645 106.566
L412.797 106.595
L413.096 106.534
L413.184 106.148
L413.546 106.107
L413.699 106.147
L413.712 106.089
L413.966 106.145
L414.467 106.414
L414.467 106.348
L414.524 106.153
L415.013 106.145
L415.413 106.374
L415.413 106.309
L415.782 106.37
L415.782 106.305
L415.922 106.218
L416.29 106.335
L416.909 106.499
L417.185 106.389
L417.198 106.348
L417.331 106.365
L418.055 106.367
L418.163 106.248
L418.424 106.175
L418.976 106.538
L418.976 106.476
L419.148 106.322
L419.351 106.266
L419.459 106.018
L419.611 106.032
L419.637 105.988
L420.043 105.826
L420.043 105.761
L420.507 105.91
L420.507 105.849
L420.545 105.784
L421.18 105.762
L421.211 105.555
L421.403 105.677
L421.408 105.552
L421.483 105.101
L421.942 105.156
L421.942 105.032
L422.583 105.14
L422.723 105.121
L423.174 105.129
L423.612 105.188
L423.949 105.151
L424.431 105.25
L424.603 105.053
L424.685 105.091
L424.685 105.032
L425.422 104.947
L425.422 104.889
L425.492 104.897
L425.784 104.986
L426 104.992
L426 104.932
L426.063 104.937
L426.917 104.927
L426.917 104.865
L427.111 104.566
L427.429 104.734
L427.765 104.785
L427.765 104.724
L427.765 104.669
L427.765 104.669
L427.765 104.669
L428.038 104.731
L428.108 104.685
L428.222 104.765
L428.222 104.703
L428.788 104.955
L429.404 104.701
L429.562 104.638
L430.051 104.786
L430.159 104.674
L430.585 104.627
L430.617 104.557
L430.794 104.518
L430.985 104.708
L431.01 104.633
L431.29 104.047
L431.309 103.96
L431.391 104.011
L431.531 103.787
L431.741 103.707
L431.858 103.483
L432.166 103.686
L432.181 103.617
L432.198 103.331
L432.308 103.394
L432.369 103.454
L432.388 103.366
L432.623 103.479
L432.623 103.358
L432.668 103.043
L433.189 103.123
L433.189 103.063
L433.284 102.623
L433.582 102.806
L433.582 102.748
L433.614 102.6
L433.786 102.753
L433.792 102.732
L434.071 102.773
L434.084 102.741
L434.16 102.65
L434.287 102.759
L434.427 102.717
L434.579 102.874
L434.592 102.729
L434.592 102.67
L434.668 102.716
L435.157 102.895
L435.17 102.845
L435.189 102.637
L435.926 102.704
L435.926 102.656
L436.008 102.387
L436.091 102.443
L436.116 102.344
L436.446 102.419
L436.446 102.364
L436.451 102.316
L436.451 102.316
L436.451 102.316
L436.58 102.375
L436.764 102.377
L436.764 102.316
L436.834 102.068
L437.335 102.316
L437.45 102.263
L437.45 102.208
L437.469 102.17
L437.717 102.204
L437.717 102.155
L437.85 102.258
L437.901 102.172
L437.92 102.042
L438.644 102.172
L438.663 102.133
L438.799 102.241
L438.809 102.133
L439.069 102.192
L439.069 102.133
L439.152 101.93
L439.514 102.08
L439.526 102.037
L439.539 101.79
L439.615 101.821
L439.78 101.932
L440.06 101.897
L440.454 102.032
L440.574 102.007
L440.676 101.875
L440.676 101.819
L441.336 102.03
L441.349 101.991
L441.432 101.774
L441.863 102.083
L442.022 102.218
L442.022 102.158
L442.841 102.186
L442.949 102.007
L443.438 102.108
L443.438 102.051
L443.603 101.927
L443.661 101.758
L444.029 101.707
L444.124 101.491
L444.575 101.694
L444.747 101.895
L445.496 102.072
L445.572 101.919
L445.858 101.992
L445.921 101.744
L445.921 101.687
L446.023 101.74
L446.182 101.839
L446.36 101.723
L446.633 102.053
L447.09 102.196
L447.09 102.08
L447.09 102.024
L447.401 101.928
L447.458 101.669
L447.564 101.785
L447.594 101.712
L448.169 101.844
L448.182 101.8
L448.182 101.685
L448.239 101.735
L448.379 101.849
L448.379 101.736
L448.436 101.75
L448.805 102.001
L448.824 101.904
L448.843 101.877
L449.122 101.984
L449.351 102.241
L449.37 102.197
L450.221 102.091
L450.278 102.006
L450.754 102.226
L451.211 102.33
L451.504 102.187
L451.504 102.142
L451.554 102.175
L451.554 102.175
L451.605 102.218
L451.631 102.127
L451.637 102.077
L452.107 102.13
L452.285 102.018
L452.31 101.82
L452.361 101.822
L452.513 101.901
L452.539 101.816
L452.564 101.455
L452.843 101.479
L452.843 101.431
L452.99 101.037
L453.421 101.106
L453.491 100.677
L454.171 100.918
L454.202 100.734
L454.209 100.693
L454.241 100.701
L454.38 100.837
L455.066 100.895
L455.066 100.843
L455.073 100.682
L455.13 100.702
L455.18 100.784
L455.225 100.682
L455.542 100.618
L455.638 100.206
L456.197 100.481
L456.209 100.349
L456.47 100.104
L456.47 100.061
L456.616 100.156
L456.616 100.051
L457.422 99.9563
L457.517 99.8383
L458.057 100.019
L458.299 100.054
L458.299 99.9484
L458.343 99.6559
L458.718 99.6751
L458.896 99.6518
L459.15 99.728
L459.226 99.3413
L459.245 99.3463
L459.346 99.2317
L459.353 99.1759
L459.353 99.1759
L459.353 99.1759
L459.442 99.2515
L459.651 99.2798
L459.651 99.1774
L459.708 99.0334
L460.045 99.1832
L460.064 99.0845
L460.128 99.1355
L460.318 99.2552
L460.559 99.1917
L460.629 98.9936
L460.712 98.9753
L460.718 98.9271
L460.718 98.7821
L460.782 98.8212
L461.442 98.9374
L461.499 98.8248
L461.709 98.9394
L462.179 98.9708
L462.405 98.8658
L462.886 99.1469
L464.147 99.184
L464.147 99.1281
L464.236 99.0102
L464.66 99.0099
L464.9 99.0905
L464.906 99.0452
L464.906 98.8365
L465.545 98.9173
L465.64 98.7136
L465.665 98.6992
L465.805 98.8084
L465.824 98.7751
L466.135 98.6703
L466.167 98.5618
L466.167 98.5087
L466.167 98.5087
L466.167 98.5087
L466.237 98.5771
L466.262 98.4706
L466.281 98.3336
L466.624 98.5362
L466.637 98.4539
L466.719 98.3692
L467.564 98.4884
L467.602 98.381
L467.602 98.3278
L467.869 98.4461
L467.901 98.3732
L468.542 98.5182
L468.542 98.4729
L468.574 98.4367
L468.79 98.4992
L468.955 98.69
L468.967 98.6546
L469.368 98.7435
L469.368 98.693
L469.469 98.3343
L469.691 98.3806
L469.691 98.3272
L469.71 98.2556
L469.806 98.3071
L469.876 98.3155
L469.876 98.2158
L469.882 98.0095
L469.958 98.0198
L470.174 97.8828
L470.257 97.788
L470.6 97.9241
L470.6 97.8728
L470.828 97.9571
L470.828 97.913
L471.114 97.9114
L471.114 97.8683
L471.19 97.7483
L471.501 97.7375
L471.73 97.835
L471.73 97.7844
L471.755 97.4484
L471.927 97.4037
L472.06 97.5925
L472.105 97.4823
L472.467 97.5077
L472.473 97.4675
L472.879 97.3559
L473.019 97.4659
L473.019 97.3623
L473.019 97.3094
L473.057 97.3165
L473.464 97.4062
L473.572 97.2394
L473.756 97.2543
L473.756 97.1484
L473.756 97.0455
L473.813 97.054
L474.073 97.131
L474.073 97.0789
L474.238 96.9763
L474.238 96.9317
L474.391 97.1082
L474.41 97.0331
L474.726 97.2674
L474.756 97.1687
L475.134 96.7586
L475.172 96.7746
L475.337 96.9675
L475.356 96.9139
L475.591 96.9024
L475.591 96.856
L475.75 96.716
L476.036 96.8236
L476.048 96.7834
L476.068 96.659
L476.156 96.7153
L476.252 96.7435
L476.252 96.6435
L476.296 96.6033
L476.69 96.7302
L476.702 96.6471
L476.747 96.6715
L477.026 96.8547
L477.471 96.7636
L477.598 96.4506
L477.771 96.5664
L477.953 96.4761
L478.055 96.0686
L478.163 95.9416
L478.462 95.647
L478.525 95.6779
L478.525 95.5779
L478.623 95.4686
L478.836 95.4282
L478.855 95.3099
L479.071 95.5754
L479.084 95.4919
L479.751 95.8888
L479.827 95.8175
L479.928 95.4768
L480.252 95.5363
L480.252 95.4876
L480.322 95.4385
L480.424 95.5176
L480.443 95.4913
L481.383 95.7205
L481.389 95.6765
L481.58 95.5831
L481.624 95.2363
L481.7 95.2907
L481.846 95.3797
L482.113 95.3636
L482.151 95.2614
L482.151 95.2168
L482.251 95.2541
L482.462 95.0466
L482.507 95.0623
L482.532 94.9759
L482.532 94.9338
L482.666 95.055
L482.704 94.954
L482.735 94.7374
L482.913 94.7402
L482.913 94.6433
L482.913 94.602
L483.174 94.7232
L483.358 94.5278
L483.523 94.5222
L483.536 94.4924
L483.536 94.4589
L483.58 94.4604
L484.514 94.937
L484.514 94.889
L484.59 94.8476
L484.755 94.7279
L484.755 94.6798
L484.863 94.7124
L484.958 94.6419
L485.034 94.5014
L485.314 94.4303
L485.453 94.2366
L485.746 94.3771
L485.911 94.5951
L485.923 94.5014
L486.108 94.5273
L486.108 94.4256
L486.177 94.3414
L486.374 94.5116
L486.406 94.4062
L486.406 94.2612
L486.838 94.3894
L486.844 94.3464
L486.87 94.191
L487.174 94.2397
L487.2 94.2031
L487.219 94.2372
L487.314 94.3342
L487.6 94.387
L487.613 94.3066
L487.625 94.2241
L487.924 94.2898
L487.987 94.2929
L487.987 94.2208
L488.064 93.7185
L488.14 93.7662
L488.159 93.6554
L488.426 93.6573
L488.457 93.5878
L488.673 93.6897
L489.054 93.7127
L489.054 93.6842
L489.118 93.5604
L489.765 93.6886
L489.861 93.4928
L490.286 93.4326
L490.489 93.0564
L490.82 93.0343
L490.82 92.9851
L491.182 93.1038
L491.213 92.9978
L491.423 93.1346
L491.436 93.095
L491.436 93.05
L491.626 93.0687
L491.855 93.2253
L493.258 93.5507
L493.265 93.5082
L493.265 93.414
L493.608 93.4291
L493.925 93.5581
L493.936 93.4773
L494.027 93.1348
L494.814 93.308
L494.909 93.1811
L495.386 93.121
L495.5 93.1231
L495.513 93.0775
L495.513 92.9813
L495.849 93.0044
L496.402 93.2375
L496.649 93.269
L496.859 93.2536
L496.865 93.2061
L496.897 93.2134
L497.164 93.1251
L497.246 92.9938
L497.373 93.0552
L497.577 93.0615
L497.843 93.1917
L497.85 93.1228
L498.618 93.2093
L498.764 92.7589
L498.917 92.6346
L498.936 92.5065
L499.113 92.6673
L499.139 92.606
L499.456 92.7328
L499.475 92.6666
L499.475 92.6174
L500.269 93.1427
L500.352 93.0725
L500.46 93.0111
L500.498 92.8835
L500.593 92.9412
L500.593 92.8971
L500.809 92.7843
L500.815 92.7618
L500.815 92.7618
L500.815 92.7618
L500.968 92.916
L500.993 92.8122
L501.025 92.7893
L501.374 92.7384
L501.508 92.6923
L501.768 92.6386
L501.844 92.5379
L502.232 92.4719
L502.295 92.3391
L502.308 92.1207
L502.346 92.1332
L502.638 92.1408
L502.638 92.0926
L502.898 91.8585
L503.305 91.9302
L503.305 91.7898
L503.337 91.7928
L503.565 91.7461
L503.66 91.6956
L503.959 91.73
L504.003 91.6591
L504.054 91.6965
L504.105 91.5683
L504.124 91.4504
L504.397 91.5559
L504.556 91.5332
L504.575 91.4494
L504.892 91.5252
L504.892 91.4776
L504.905 91.3586
L505 91.3943
L505.153 91.2944
L505.896 91.4691
L506.048 91.4664
L506.048 91.4224
L506.366 91.4448
L506.366 91.4021
L506.366 91.3557
L506.366 91.3557
L506.366 91.3557
L506.525 91.4371
L506.537 91.3629
L506.69 91.3758
L506.69 91.284
L506.855 90.9795
L506.975 91.0623
L506.975 90.9708
L507.014 90.8238
L507.21 90.8732
L507.223 90.8002
L507.299 90.6366
L507.75 90.7615
L507.757 90.7302
L507.826 90.5014
L508.22 90.6346
L508.22 90.4458
L508.296 90.4886
L509.154 90.7259
L509.16 90.6884
L509.3 90.8359
L509.522 90.8695
L509.687 90.9361
L509.719 90.9215
L510.144 91.1414
L510.163 91.0724
L510.214 91.0871
L510.494 90.9117
L511.027 91.1259
L511.129 91.0412
L511.707 90.9789
L512.157 91.246
L512.157 91.1994
L512.253 91.2118
L512.907 91.1998
L513.085 91.0566
L513.167 91.0642
L513.18 90.9945
L513.18 90.9018
L513.288 90.9049
L513.605 91.0071
L513.612 90.9806
L513.751 90.8071
L514.298 90.9256
L514.469 90.828
L514.469 90.7833
L514.602 90.9038
L514.621 90.7807
L514.64 90.5386
L514.971 90.7033
L514.971 90.6565
L514.971 90.6152
L514.971 90.6152
L514.971 90.6152
L515.168 90.6601
L515.174 90.6212
L515.86 90.6979
L515.917 90.5891
L515.93 90.4708
L516.082 90.5699
L516.114 90.5059
L516.539 90.4721
L516.546 90.3501
L516.571 90.3592
L516.958 90.4664
L516.971 90.4253
L517.2 90.1103
L517.378 90.1609
L517.378 90.1152
L517.466 89.8285
L517.816 89.88
L517.816 89.8413
L517.962 89.8281
L518.121 89.686
L518.121 89.6443
L518.362 89.8526
L518.387 89.8186" style="fill:none;stroke:#ff0000;stroke-linecap:square;"/>
   </g>
   <g id="line2d_2">
    <path clip-path="url(#p7ff5b81e1d)" d="
M72.1194 366.73
L74.2786 377.593
L74.6977 374.08
L75.7135 372.263
L77.2176 370.979
L83.96 374.905
L85.2526 373.345
L91.7397 373.436
L95.1664 373.333
L95.852 372.241
L97.0376 371.375
L98.8618 371.332
L109.194 373.759
L123.762 376.742
L123.762 375.941
L124.56 375.39
L128.498 376.159
L128.911 375.803
L132.8 375.591
L132.981 375.119
L133.747 374.829
L136.406 375.19
L141.446 375.988
L141.461 375.518
L143.292 375.114
L143.389 374.716
L144.699 374.589
L145.305 374.349
L146.243 374.12
L149.372 374.191
L149.69 373.868
L150.801 373.735
L160.849 375.344
L165.709 375.422
L166.545 375.205
L166.814 374.942
L167.614 374.745
L174.854 375.122
L180.045 375.688
L186.151 376.061
L186.151 375.796
L187.099 375.662
L192.624 376.163
L193.534 376.023
L195.774 375.846
L195.774 375.607
L196.673 375.494
L196.69 375.274
L197.338 375.132
L203.521 375.725
L203.588 375.524
L210.967 375.784
L211.164 375.591
L211.164 375.385
L211.357 375.196
L212.309 375.117
L214.224 375.115
L215.102 374.8
L215.102 374.604
L216.643 374.041
L218.184 374.079
L218.477 373.923
L220.006 373.91
L225.468 374.222
L225.964 374.083
L226.117 373.917
L227.331 373.906
L230.708 374.092
L231.537 374.006
L233.047 374.002
L233.304 373.846
L234.911 373.54
L235.571 373.454
L238.453 373.596
L238.577 373.45
L239.515 373.391
L244.037 373.388
L244.344 373.258
L246.593 373.335
L246.828 373.199
L252.522 373.475
L252.618 373.188
L253.137 373.09
L254.775 373.137
L255.413 372.926
L255.933 372.851
L257.346 372.882
L266.454 373.692
L269.069 373.781
L276.47 374.332
L276.97 374.13
L282.795 374.41
L282.795 374.288
L283.743 374.256
L288.358 374.393
L289.573 374.259
L293.76 374.217
L303.985 374.364
L314.731 374.762
L315.412 374.718
L324.993 375.182
L328.019 375.196
L332.31 374.661
L335.515 374.859
L335.515 374.767
L344.06 374.783
L348.781 374.951
L348.933 374.784
L353.091 374.804
L353.52 374.749
L358.587 374.866
L359.702 374.775
L365.479 375.026
L365.879 374.899
L365.927 374.823
L370.528 374.872
L370.728 374.746
L371.18 374.704
L375.119 374.668
L375.5 374.611
L376.51 374.549
L376.967 374.438
L377.134 374.382
L382.926 374.557
L384.769 374.393
L389.799 374.441
L389.799 374.37
L391.142 374.352
L397.434 374.398
L398.086 374.29
L403.817 374.294
L406.834 374.209
L407.621 374.034
L407.704 373.906
L408.93 373.816
L408.993 373.753
L410.739 373.609
L413.159 373.487
L416.245 373.153
L423.542 373.234
L426.419 373.111
L431.042 373.16
L432.166 373.093
L438.777 373.288
L441.006 373.175
L441.006 373.114
L446.448 373.24
L446.499 373.188
L449.719 373.205
L460.172 373.288
L462.463 373.244
L475.718 373.121
L475.718 373.067
L478.893 372.999
L478.957 372.95
L479.306 372.864
L482.996 372.872
L483.161 372.832
L487.314 372.808
L487.314 372.758
L487.314 372.706
L487.505 372.659
L489.467 372.551
L489.581 372.508
L498.307 372.59
L501.342 372.544
L507.852 372.579
L508.074 372.538
L510.627 372.442
L510.627 372.394
L514.971 372.423
L518.4 372.449
L518.4 372.402" style="fill:none;stroke:#008000;stroke-linecap:square;"/>
   </g>
   <g id="matplotlib.axis_1">
    <g id="xtick_1">
     <g id="line2d_3">
      <defs>
       <path d="
M0 0
L0 -4" id="m93b0483c22" style="stroke:#000000;stroke-width:0.5;"/>
      </defs>
      <g>
       <use style="stroke:#000000;stroke-width:0.5;" x="73.5136487306" xlink:href="#m93b0483c22" y="388.8"/>
      </g>
     </g>
     <g id="line2d_4">
      <defs>
       <path d="
M0 0
L0 4" id="m741efc42ff" style="stroke:#000000;stroke-width:0.5;"/>
      </defs>
      <g>
       <use style="stroke:#000000;stroke-width:0.5;" x="73.5136487306" xlink:href="#m741efc42ff" y="43.2"/>
      </g>
     </g>
     <g id="text_1">
      <!-- Sep 2013 -->
      <defs>
       <path d="
M40.5781 39.3125
Q47.6562 37.7969 51.625 33
Q55.6094 28.2188 55.6094 21.1875
Q55.6094 10.4062 48.1875 4.48438
Q40.7656 -1.42188 27.0938 -1.42188
Q22.5156 -1.42188 17.6562 -0.515625
Q12.7969 0.390625 7.625 2.20312
L7.625 11.7188
Q11.7188 9.32812 16.5938 8.10938
Q21.4844 6.89062 26.8125 6.89062
Q36.0781 6.89062 40.9375 10.5469
Q45.7969 14.2031 45.7969 21.1875
Q45.7969 27.6406 41.2812 31.2656
Q36.7656 34.9062 28.7188 34.9062
L20.2188 34.9062
L20.2188 43.0156
L29.1094 43.0156
Q36.375 43.0156 40.2344 45.9219
Q44.0938 48.8281 44.0938 54.2969
Q44.0938 59.9062 40.1094 62.9062
Q36.1406 65.9219 28.7188 65.9219
Q24.6562 65.9219 20.0156 65.0312
Q15.375 64.1562 9.8125 62.3125
L9.8125 71.0938
Q15.4375 72.6562 20.3438 73.4375
Q25.25 74.2188 29.5938 74.2188
Q40.8281 74.2188 47.3594 69.1094
Q53.9062 64.0156 53.9062 55.3281
Q53.9062 49.2656 50.4375 45.0938
Q46.9688 40.9219 40.5781 39.3125" id="DejaVuSans-33"/>
       <path d="
M12.4062 8.29688
L28.5156 8.29688
L28.5156 63.9219
L10.9844 60.4062
L10.9844 69.3906
L28.4219 72.9062
L38.2812 72.9062
L38.2812 8.29688
L54.3906 8.29688
L54.3906 0
L12.4062 0
z
" id="DejaVuSans-31"/>
       <path d="
M31.7812 66.4062
Q24.1719 66.4062 20.3281 58.9062
Q16.5 51.4219 16.5 36.375
Q16.5 21.3906 20.3281 13.8906
Q24.1719 6.39062 31.7812 6.39062
Q39.4531 6.39062 43.2812 13.8906
Q47.125 21.3906 47.125 36.375
Q47.125 51.4219 43.2812 58.9062
Q39.4531 66.4062 31.7812 66.4062
M31.7812 74.2188
Q44.0469 74.2188 50.5156 64.5156
Q56.9844 54.8281 56.9844 36.375
Q56.9844 17.9688 50.5156 8.26562
Q44.0469 -1.42188 31.7812 -1.42188
Q19.5312 -1.42188 13.0625 8.26562
Q6.59375 17.9688 6.59375 36.375
Q6.59375 54.8281 13.0625 64.5156
Q19.5312 74.2188 31.7812 74.2188" id="DejaVuSans-30"/>
       <path id="DejaVuSans-20"/>
       <path d="
M19.1875 8.29688
L53.6094 8.29688
L53.6094 0
L7.32812 0
L7.32812 8.29688
Q12.9375 14.1094 22.625 23.8906
Q32.3281 33.6875 34.8125 36.5312
Q39.5469 41.8438 41.4219 45.5312
Q43.3125 49.2188 43.3125 52.7812
Q43.3125 58.5938 39.2344 62.25
Q35.1562 65.9219 28.6094 65.9219
Q23.9688 65.9219 18.8125 64.3125
Q13.6719 62.7031 7.8125 59.4219
L7.8125 69.3906
Q13.7656 71.7812 18.9375 73
Q24.125 74.2188 28.4219 74.2188
Q39.75 74.2188 46.4844 68.5469
Q53.2188 62.8906 53.2188 53.4219
Q53.2188 48.9219 51.5312 44.8906
Q49.8594 40.875 45.4062 35.4062
Q44.1875 33.9844 37.6406 27.2188
Q31.1094 20.4531 19.1875 8.29688" id="DejaVuSans-32"/>
       <path d="
M53.5156 70.5156
L53.5156 60.8906
Q47.9062 63.5781 42.9219 64.8906
Q37.9375 66.2188 33.2969 66.2188
Q25.25 66.2188 20.875 63.0938
Q16.5 59.9688 16.5 54.2031
Q16.5 49.3594 19.4062 46.8906
Q22.3125 44.4375 30.4219 42.9219
L36.375 41.7031
Q47.4062 39.5938 52.6562 34.2969
Q57.9062 29 57.9062 20.125
Q57.9062 9.51562 50.7969 4.04688
Q43.7031 -1.42188 29.9844 -1.42188
Q24.8125 -1.42188 18.9688 -0.25
Q13.1406 0.921875 6.89062 3.21875
L6.89062 13.375
Q12.8906 10.0156 18.6562 8.29688
Q24.4219 6.59375 29.9844 6.59375
Q38.4219 6.59375 43.0156 9.90625
Q47.6094 13.2344 47.6094 19.3906
Q47.6094 24.75 44.3125 27.7812
Q41.0156 30.8125 33.5 32.3281
L27.4844 33.5
Q16.4531 35.6875 11.5156 40.375
Q6.59375 45.0625 6.59375 53.4219
Q6.59375 63.0938 13.4062 68.6562
Q20.2188 74.2188 32.1719 74.2188
Q37.3125 74.2188 42.625 73.2812
Q47.9531 72.3594 53.5156 70.5156" id="DejaVuSans-53"/>
       <path d="
M56.2031 29.5938
L56.2031 25.2031
L14.8906 25.2031
Q15.4844 15.9219 20.4844 11.0625
Q25.4844 6.20312 34.4219 6.20312
Q39.5938 6.20312 44.4531 7.46875
Q49.3125 8.73438 54.1094 11.2812
L54.1094 2.78125
Q49.2656 0.734375 44.1875 -0.34375
Q39.1094 -1.42188 33.8906 -1.42188
Q20.7969 -1.42188 13.1562 6.1875
Q5.51562 13.8125 5.51562 26.8125
Q5.51562 40.2344 12.7656 48.1094
Q20.0156 56 32.3281 56
Q43.3594 56 49.7812 48.8906
Q56.2031 41.7969 56.2031 29.5938
M47.2188 32.2344
Q47.125 39.5938 43.0938 43.9844
Q39.0625 48.3906 32.4219 48.3906
Q24.9062 48.3906 20.3906 44.1406
Q15.875 39.8906 15.1875 32.1719
z
" id="DejaVuSans-65"/>
       <path d="
M18.1094 8.20312
L18.1094 -20.7969
L9.07812 -20.7969
L9.07812 54.6875
L18.1094 54.6875
L18.1094 46.3906
Q20.9531 51.2656 25.2656 53.625
Q29.5938 56 35.5938 56
Q45.5625 56 51.7812 48.0938
Q58.0156 40.1875 58.0156 27.2969
Q58.0156 14.4062 51.7812 6.48438
Q45.5625 -1.42188 35.5938 -1.42188
Q29.5938 -1.42188 25.2656 0.953125
Q20.9531 3.32812 18.1094 8.20312
M48.6875 27.2969
Q48.6875 37.2031 44.6094 42.8438
Q40.5312 48.4844 33.4062 48.4844
Q26.2656 48.4844 22.1875 42.8438
Q18.1094 37.2031 18.1094 27.2969
Q18.1094 17.3906 22.1875 11.75
Q26.2656 6.10938 33.4062 6.10938
Q40.5312 6.10938 44.6094 11.75
Q48.6875 17.3906 48.6875 27.2969" id="DejaVuSans-70"/>
      </defs>
      <g transform="translate(45.5077112306 401.918125)scale(0.12 -0.12)">
       <use xlink:href="#DejaVuSans-53"/>
       <use x="63.4765625" xlink:href="#DejaVuSans-65"/>
       <use x="125.0" xlink:href="#DejaVuSans-70"/>
       <use x="188.4765625" xlink:href="#DejaVuSans-20"/>
       <use x="220.263671875" xlink:href="#DejaVuSans-32"/>
       <use x="283.88671875" xlink:href="#DejaVuSans-30"/>
       <use x="347.509765625" xlink:href="#DejaVuSans-31"/>
       <use x="411.1328125" xlink:href="#DejaVuSans-33"/>
      </g>
     </g>
    </g>
    <g id="xtick_2">
     <g id="line2d_5">
      <g>
       <use style="stroke:#000000;stroke-width:0.5;" x="115.122318683" xlink:href="#m93b0483c22" y="388.8"/>
      </g>
     </g>
     <g id="line2d_6">
      <g>
       <use style="stroke:#000000;stroke-width:0.5;" x="115.122318683" xlink:href="#m741efc42ff" y="43.2"/>
      </g>
     </g>
     <g id="text_2">
      <!-- Dec 2013 -->
      <defs>
       <path d="
M19.6719 64.7969
L19.6719 8.10938
L31.5938 8.10938
Q46.6875 8.10938 53.6875 14.9375
Q60.6875 21.7812 60.6875 36.5312
Q60.6875 51.1719 53.6875 57.9844
Q46.6875 64.7969 31.5938 64.7969
z

M9.8125 72.9062
L30.0781 72.9062
Q51.2656 72.9062 61.1719 64.0938
Q71.0938 55.2812 71.0938 36.5312
Q71.0938 17.6719 61.125 8.82812
Q51.1719 0 30.0781 0
L9.8125 0
z
" id="DejaVuSans-44"/>
       <path d="
M48.7812 52.5938
L48.7812 44.1875
Q44.9688 46.2969 41.1406 47.3438
Q37.3125 48.3906 33.4062 48.3906
Q24.6562 48.3906 19.8125 42.8438
Q14.9844 37.3125 14.9844 27.2969
Q14.9844 17.2812 19.8125 11.7344
Q24.6562 6.20312 33.4062 6.20312
Q37.3125 6.20312 41.1406 7.25
Q44.9688 8.29688 48.7812 10.4062
L48.7812 2.09375
Q45.0156 0.34375 40.9844 -0.53125
Q36.9688 -1.42188 32.4219 -1.42188
Q20.0625 -1.42188 12.7812 6.34375
Q5.51562 14.1094 5.51562 27.2969
Q5.51562 40.6719 12.8594 48.3281
Q20.2188 56 33.0156 56
Q37.1562 56 41.1094 55.1406
Q45.0625 54.2969 48.7812 52.5938" id="DejaVuSans-63"/>
      </defs>
      <g transform="translate(86.815443683 401.918125)scale(0.12 -0.12)">
       <use xlink:href="#DejaVuSans-44"/>
       <use x="77.001953125" xlink:href="#DejaVuSans-65"/>
       <use x="138.525390625" xlink:href="#DejaVuSans-63"/>
       <use x="193.505859375" xlink:href="#DejaVuSans-20"/>
       <use x="225.29296875" xlink:href="#DejaVuSans-32"/>
       <use x="288.916015625" xlink:href="#DejaVuSans-30"/>
       <use x="352.5390625" xlink:href="#DejaVuSans-31"/>
       <use x="416.162109375" xlink:href="#DejaVuSans-33"/>
      </g>
     </g>
    </g>
    <g id="xtick_3">
     <g id="line2d_7">
      <g>
       <use style="stroke:#000000;stroke-width:0.5;" x="156.273750504" xlink:href="#m93b0483c22" y="388.8"/>
      </g>
     </g>
     <g id="line2d_8">
      <g>
       <use style="stroke:#000000;stroke-width:0.5;" x="156.273750504" xlink:href="#m741efc42ff" y="43.2"/>
      </g>
     </g>
     <g id="text_3">
      <!-- Mar 2014 -->
      <defs>
       <path d="
M9.8125 72.9062
L24.5156 72.9062
L43.1094 23.2969
L61.8125 72.9062
L76.5156 72.9062
L76.5156 0
L66.8906 0
L66.8906 64.0156
L48.0938 14.0156
L38.1875 14.0156
L19.3906 64.0156
L19.3906 0
L9.8125 0
z
" id="DejaVuSans-4d"/>
       <path d="
M41.1094 46.2969
Q39.5938 47.1719 37.8125 47.5781
Q36.0312 48 33.8906 48
Q26.2656 48 22.1875 43.0469
Q18.1094 38.0938 18.1094 28.8125
L18.1094 0
L9.07812 0
L9.07812 54.6875
L18.1094 54.6875
L18.1094 46.1875
Q20.9531 51.1719 25.4844 53.5781
Q30.0312 56 36.5312 56
Q37.4531 56 38.5781 55.875
Q39.7031 55.7656 41.0625 55.5156
z
" id="DejaVuSans-72"/>
       <path d="
M37.7969 64.3125
L12.8906 25.3906
L37.7969 25.3906
z

M35.2031 72.9062
L47.6094 72.9062
L47.6094 25.3906
L58.0156 25.3906
L58.0156 17.1875
L47.6094 17.1875
L47.6094 0
L37.7969 0
L37.7969 17.1875
L4.89062 17.1875
L4.89062 26.7031
z
" id="DejaVuSans-34"/>
       <path d="
M34.2812 27.4844
Q23.3906 27.4844 19.1875 25
Q14.9844 22.5156 14.9844 16.5
Q14.9844 11.7188 18.1406 8.90625
Q21.2969 6.10938 26.7031 6.10938
Q34.1875 6.10938 38.7031 11.4062
Q43.2188 16.7031 43.2188 25.4844
L43.2188 27.4844
z

M52.2031 31.2031
L52.2031 0
L43.2188 0
L43.2188 8.29688
Q40.1406 3.32812 35.5469 0.953125
Q30.9531 -1.42188 24.3125 -1.42188
Q15.9219 -1.42188 10.9531 3.29688
Q6 8.01562 6 15.9219
Q6 25.1406 12.1719 29.8281
Q18.3594 34.5156 30.6094 34.5156
L43.2188 34.5156
L43.2188 35.4062
Q43.2188 41.6094 39.1406 45
Q35.0625 48.3906 27.6875 48.3906
Q23 48.3906 18.5469 47.2656
Q14.1094 46.1406 10.0156 43.8906
L10.0156 52.2031
Q14.9375 54.1094 19.5781 55.0469
Q24.2188 56 28.6094 56
Q40.4844 56 46.3438 49.8438
Q52.2031 43.7031 52.2031 31.2031" id="DejaVuSans-61"/>
      </defs>
      <g transform="translate(128.113125504 401.918125)scale(0.12 -0.12)">
       <use xlink:href="#DejaVuSans-4d"/>
       <use x="86.279296875" xlink:href="#DejaVuSans-61"/>
       <use x="147.55859375" xlink:href="#DejaVuSans-72"/>
       <use x="188.671875" xlink:href="#DejaVuSans-20"/>
       <use x="220.458984375" xlink:href="#DejaVuSans-32"/>
       <use x="284.08203125" xlink:href="#DejaVuSans-30"/>
       <use x="347.705078125" xlink:href="#DejaVuSans-31"/>
       <use x="411.328125" xlink:href="#DejaVuSans-34"/>
      </g>
     </g>
    </g>
    <g id="xtick_4">
     <g id="line2d_9">
      <g>
       <use style="stroke:#000000;stroke-width:0.5;" x="198.339658588" xlink:href="#m93b0483c22" y="388.8"/>
      </g>
     </g>
     <g id="line2d_10">
      <g>
       <use style="stroke:#000000;stroke-width:0.5;" x="198.339658588" xlink:href="#m741efc42ff" y="43.2"/>
      </g>
     </g>
     <g id="text_4">
      <!-- Jun 2014 -->
      <defs>
       <path d="
M8.5 21.5781
L8.5 54.6875
L17.4844 54.6875
L17.4844 21.9219
Q17.4844 14.1562 20.5 10.2656
Q23.5312 6.39062 29.5938 6.39062
Q36.8594 6.39062 41.0781 11.0312
Q45.3125 15.6719 45.3125 23.6875
L45.3125 54.6875
L54.2969 54.6875
L54.2969 0
L45.3125 0
L45.3125 8.40625
Q42.0469 3.42188 37.7188 1
Q33.4062 -1.42188 27.6875 -1.42188
Q18.2656 -1.42188 13.375 4.4375
Q8.5 10.2969 8.5 21.5781
M31.1094 56
z
" id="DejaVuSans-75"/>
       <path d="
M54.8906 33.0156
L54.8906 0
L45.9062 0
L45.9062 32.7188
Q45.9062 40.4844 42.875 44.3281
Q39.8438 48.1875 33.7969 48.1875
Q26.5156 48.1875 22.3125 43.5469
Q18.1094 38.9219 18.1094 30.9062
L18.1094 0
L9.07812 0
L9.07812 54.6875
L18.1094 54.6875
L18.1094 46.1875
Q21.3438 51.125 25.7031 53.5625
Q30.0781 56 35.7969 56
Q45.2188 56 50.0469 50.1719
Q54.8906 44.3438 54.8906 33.0156" id="DejaVuSans-6e"/>
       <path d="
M9.8125 72.9062
L19.6719 72.9062
L19.6719 5.07812
Q19.6719 -8.10938 14.6719 -14.0625
Q9.67188 -20.0156 -1.42188 -20.0156
L-5.17188 -20.0156
L-5.17188 -11.7188
L-2.09375 -11.7188
Q4.4375 -11.7188 7.125 -8.04688
Q9.8125 -4.39062 9.8125 5.07812
z
" id="DejaVuSans-4a"/>
      </defs>
      <g transform="translate(171.814033588 401.918125)scale(0.12 -0.12)">
       <use xlink:href="#DejaVuSans-4a"/>
       <use x="29.4921875" xlink:href="#DejaVuSans-75"/>
       <use x="92.87109375" xlink:href="#DejaVuSans-6e"/>
       <use x="156.25" xlink:href="#DejaVuSans-20"/>
       <use x="188.037109375" xlink:href="#DejaVuSans-32"/>
       <use x="251.66015625" xlink:href="#DejaVuSans-30"/>
       <use x="315.283203125" xlink:href="#DejaVuSans-31"/>
       <use x="378.90625" xlink:href="#DejaVuSans-34"/>
      </g>
     </g>
    </g>
    <g id="xtick_5">
     <g id="line2d_11">
      <g>
       <use style="stroke:#000000;stroke-width:0.5;" x="240.405566672" xlink:href="#m93b0483c22" y="388.8"/>
      </g>
     </g>
     <g id="line2d_12">
      <g>
       <use style="stroke:#000000;stroke-width:0.5;" x="240.405566672" xlink:href="#m741efc42ff" y="43.2"/>
      </g>
     </g>
     <g id="text_5">
      <!-- Sep 2014 -->
      <g transform="translate(212.255254172 401.918125)scale(0.12 -0.12)">
       <use xlink:href="#DejaVuSans-53"/>
       <use x="63.4765625" xlink:href="#DejaVuSans-65"/>
       <use x="125.0" xlink:href="#DejaVuSans-70"/>
       <use x="188.4765625" xlink:href="#DejaVuSans-20"/>
       <use x="220.263671875" xlink:href="#DejaVuSans-32"/>
       <use x="283.88671875" xlink:href="#DejaVuSans-30"/>
       <use x="347.509765625" xlink:href="#DejaVuSans-31"/>
       <use x="411.1328125" xlink:href="#DejaVuSans-34"/>
      </g>
     </g>
    </g>
    <g id="xtick_6">
     <g id="line2d_13">
      <g>
       <use style="stroke:#000000;stroke-width:0.5;" x="282.014236624" xlink:href="#m93b0483c22" y="388.8"/>
      </g>
     </g>
     <g id="line2d_14">
      <g>
       <use style="stroke:#000000;stroke-width:0.5;" x="282.014236624" xlink:href="#m741efc42ff" y="43.2"/>
      </g>
     </g>
     <g id="text_6">
      <!-- Dec 2014 -->
      <g transform="translate(253.562986624 401.918125)scale(0.12 -0.12)">
       <use xlink:href="#DejaVuSans-44"/>
       <use x="77.001953125" xlink:href="#DejaVuSans-65"/>
       <use x="138.525390625" xlink:href="#DejaVuSans-63"/>
       <use x="193.505859375" xlink:href="#DejaVuSans-20"/>
       <use x="225.29296875" xlink:href="#DejaVuSans-32"/>
       <use x="288.916015625" xlink:href="#DejaVuSans-30"/>
       <use x="352.5390625" xlink:href="#DejaVuSans-31"/>
       <use x="416.162109375" xlink:href="#DejaVuSans-34"/>
      </g>
     </g>
    </g>
    <g id="xtick_7">
     <g id="line2d_15">
      <g>
       <use style="stroke:#000000;stroke-width:0.5;" x="323.165668445" xlink:href="#m93b0483c22" y="388.8"/>
      </g>
     </g>
     <g id="line2d_16">
      <g>
       <use style="stroke:#000000;stroke-width:0.5;" x="323.165668445" xlink:href="#m741efc42ff" y="43.2"/>
      </g>
     </g>
     <g id="text_7">
      <!-- Mar 2015 -->
      <defs>
       <path d="
M10.7969 72.9062
L49.5156 72.9062
L49.5156 64.5938
L19.8281 64.5938
L19.8281 46.7344
Q21.9688 47.4688 24.1094 47.8281
Q26.2656 48.1875 28.4219 48.1875
Q40.625 48.1875 47.75 41.5
Q54.8906 34.8125 54.8906 23.3906
Q54.8906 11.625 47.5625 5.09375
Q40.2344 -1.42188 26.9062 -1.42188
Q22.3125 -1.42188 17.5469 -0.640625
Q12.7969 0.140625 7.71875 1.70312
L7.71875 11.625
Q12.1094 9.23438 16.7969 8.0625
Q21.4844 6.89062 26.7031 6.89062
Q35.1562 6.89062 40.0781 11.3281
Q45.0156 15.7656 45.0156 23.3906
Q45.0156 31 40.0781 35.4375
Q35.1562 39.8906 26.7031 39.8906
Q22.75 39.8906 18.8125 39.0156
Q14.8906 38.1406 10.7969 36.2812
z
" id="DejaVuSans-35"/>
      </defs>
      <g transform="translate(295.192543445 401.918125)scale(0.12 -0.12)">
       <use xlink:href="#DejaVuSans-4d"/>
       <use x="86.279296875" xlink:href="#DejaVuSans-61"/>
       <use x="147.55859375" xlink:href="#DejaVuSans-72"/>
       <use x="188.671875" xlink:href="#DejaVuSans-20"/>
       <use x="220.458984375" xlink:href="#DejaVuSans-32"/>
       <use x="284.08203125" xlink:href="#DejaVuSans-30"/>
       <use x="347.705078125" xlink:href="#DejaVuSans-31"/>
       <use x="411.328125" xlink:href="#DejaVuSans-35"/>
      </g>
     </g>
    </g>
    <g id="xtick_8">
     <g id="line2d_17">
      <g>
       <use style="stroke:#000000;stroke-width:0.5;" x="365.231576529" xlink:href="#m93b0483c22" y="388.8"/>
      </g>
     </g>
     <g id="line2d_18">
      <g>
       <use style="stroke:#000000;stroke-width:0.5;" x="365.231576529" xlink:href="#m741efc42ff" y="43.2"/>
      </g>
     </g>
     <g id="text_8">
      <!-- Jun 2015 -->
      <g transform="translate(338.893451529 401.918125)scale(0.12 -0.12)">
       <use xlink:href="#DejaVuSans-4a"/>
       <use x="29.4921875" xlink:href="#DejaVuSans-75"/>
       <use x="92.87109375" xlink:href="#DejaVuSans-6e"/>
       <use x="156.25" xlink:href="#DejaVuSans-20"/>
       <use x="188.037109375" xlink:href="#DejaVuSans-32"/>
       <use x="251.66015625" xlink:href="#DejaVuSans-30"/>
       <use x="315.283203125" xlink:href="#DejaVuSans-31"/>
       <use x="378.90625" xlink:href="#DejaVuSans-35"/>
      </g>
     </g>
    </g>
    <g id="xtick_9">
     <g id="line2d_19">
      <g>
       <use style="stroke:#000000;stroke-width:0.5;" x="407.297484613" xlink:href="#m93b0483c22" y="388.8"/>
      </g>
     </g>
     <g id="line2d_20">
      <g>
       <use style="stroke:#000000;stroke-width:0.5;" x="407.297484613" xlink:href="#m741efc42ff" y="43.2"/>
      </g>
     </g>
     <g id="text_9">
      <!-- Sep 2015 -->
      <g transform="translate(379.334672113 401.918125)scale(0.12 -0.12)">
       <use xlink:href="#DejaVuSans-53"/>
       <use x="63.4765625" xlink:href="#DejaVuSans-65"/>
       <use x="125.0" xlink:href="#DejaVuSans-70"/>
       <use x="188.4765625" xlink:href="#DejaVuSans-20"/>
       <use x="220.263671875" xlink:href="#DejaVuSans-32"/>
       <use x="283.88671875" xlink:href="#DejaVuSans-30"/>
       <use x="347.509765625" xlink:href="#DejaVuSans-31"/>
       <use x="411.1328125" xlink:href="#DejaVuSans-35"/>
      </g>
     </g>
    </g>
    <g id="xtick_10">
     <g id="line2d_21">
      <g>
       <use style="stroke:#000000;stroke-width:0.5;" x="448.906154565" xlink:href="#m93b0483c22" y="388.8"/>
      </g>
     </g>
     <g id="line2d_22">
      <g>
       <use style="stroke:#000000;stroke-width:0.5;" x="448.906154565" xlink:href="#m741efc42ff" y="43.2"/>
      </g>
     </g>
     <g id="text_10">
      <!-- Dec 2015 -->
      <g transform="translate(420.642404565 401.918125)scale(0.12 -0.12)">
       <use xlink:href="#DejaVuSans-44"/>
       <use x="77.001953125" xlink:href="#DejaVuSans-65"/>
       <use x="138.525390625" xlink:href="#DejaVuSans-63"/>
       <use x="193.505859375" xlink:href="#DejaVuSans-20"/>
       <use x="225.29296875" xlink:href="#DejaVuSans-32"/>
       <use x="288.916015625" xlink:href="#DejaVuSans-30"/>
       <use x="352.5390625" xlink:href="#DejaVuSans-31"/>
       <use x="416.162109375" xlink:href="#DejaVuSans-35"/>
      </g>
     </g>
    </g>
    <g id="xtick_11">
     <g id="line2d_23">
      <g>
       <use style="stroke:#000000;stroke-width:0.5;" x="490.514824517" xlink:href="#m93b0483c22" y="388.8"/>
      </g>
     </g>
     <g id="line2d_24">
      <g>
       <use style="stroke:#000000;stroke-width:0.5;" x="490.514824517" xlink:href="#m741efc42ff" y="43.2"/>
      </g>
     </g>
     <g id="text_11">
      <!-- Mar 2016 -->
      <defs>
       <path d="
M33.0156 40.375
Q26.375 40.375 22.4844 35.8281
Q18.6094 31.2969 18.6094 23.3906
Q18.6094 15.5312 22.4844 10.9531
Q26.375 6.39062 33.0156 6.39062
Q39.6562 6.39062 43.5312 10.9531
Q47.4062 15.5312 47.4062 23.3906
Q47.4062 31.2969 43.5312 35.8281
Q39.6562 40.375 33.0156 40.375
M52.5938 71.2969
L52.5938 62.3125
Q48.875 64.0625 45.0938 64.9844
Q41.3125 65.9219 37.5938 65.9219
Q27.8281 65.9219 22.6719 59.3281
Q17.5312 52.7344 16.7969 39.4062
Q19.6719 43.6562 24.0156 45.9219
Q28.375 48.1875 33.5938 48.1875
Q44.5781 48.1875 50.9531 41.5156
Q57.3281 34.8594 57.3281 23.3906
Q57.3281 12.1562 50.6875 5.35938
Q44.0469 -1.42188 33.0156 -1.42188
Q20.3594 -1.42188 13.6719 8.26562
Q6.98438 17.9688 6.98438 36.375
Q6.98438 53.6562 15.1875 63.9375
Q23.3906 74.2188 37.2031 74.2188
Q40.9219 74.2188 44.7031 73.4844
Q48.4844 72.75 52.5938 71.2969" id="DejaVuSans-36"/>
      </defs>
      <g transform="translate(462.395449517 401.918125)scale(0.12 -0.12)">
       <use xlink:href="#DejaVuSans-4d"/>
       <use x="86.279296875" xlink:href="#DejaVuSans-61"/>
       <use x="147.55859375" xlink:href="#DejaVuSans-72"/>
       <use x="188.671875" xlink:href="#DejaVuSans-20"/>
       <use x="220.458984375" xlink:href="#DejaVuSans-32"/>
       <use x="284.08203125" xlink:href="#DejaVuSans-30"/>
       <use x="347.705078125" xlink:href="#DejaVuSans-31"/>
       <use x="411.328125" xlink:href="#DejaVuSans-36"/>
      </g>
     </g>
    </g>
   </g>
   <g id="matplotlib.axis_2">
    <g id="ytick_1">
     <g id="line2d_25">
      <defs>
       <path d="
M0 0
L4 0" id="m728421d6d4" style="stroke:#000000;stroke-width:0.5;"/>
      </defs>
      <g>
       <use style="stroke:#000000;stroke-width:0.5;" x="72.0" xlink:href="#m728421d6d4" y="388.8"/>
      </g>
     </g>
     <g id="line2d_26">
      <defs>
       <path d="
M0 0
L-4 0" id="mcb0005524f" style="stroke:#000000;stroke-width:0.5;"/>
      </defs>
      <g>
       <use style="stroke:#000000;stroke-width:0.5;" x="518.4" xlink:href="#mcb0005524f" y="388.8"/>
      </g>
     </g>
     <g id="text_12">
      <!-- 0 -->
      <g transform="translate(61.953125 392.11125)scale(0.12 -0.12)">
       <use xlink:href="#DejaVuSans-30"/>
      </g>
     </g>
    </g>
    <g id="ytick_2">
     <g id="line2d_27">
      <g>
       <use style="stroke:#000000;stroke-width:0.5;" x="72.0" xlink:href="#m728421d6d4" y="339.428571429"/>
      </g>
     </g>
     <g id="line2d_28">
      <g>
       <use style="stroke:#000000;stroke-width:0.5;" x="518.4" xlink:href="#mcb0005524f" y="339.428571429"/>
      </g>
     </g>
     <g id="text_13">
      <!-- 500 -->
      <g transform="translate(46.818125 342.739821429)scale(0.12 -0.12)">
       <use xlink:href="#DejaVuSans-35"/>
       <use x="63.623046875" xlink:href="#DejaVuSans-30"/>
       <use x="127.24609375" xlink:href="#DejaVuSans-30"/>
      </g>
     </g>
    </g>
    <g id="ytick_3">
     <g id="line2d_29">
      <g>
       <use style="stroke:#000000;stroke-width:0.5;" x="72.0" xlink:href="#m728421d6d4" y="290.057142857"/>
      </g>
     </g>
     <g id="line2d_30">
      <g>
       <use style="stroke:#000000;stroke-width:0.5;" x="518.4" xlink:href="#mcb0005524f" y="290.057142857"/>
      </g>
     </g>
     <g id="text_14">
      <!-- 1000 -->
      <g transform="translate(39.575 293.368392857)scale(0.12 -0.12)">
       <use xlink:href="#DejaVuSans-31"/>
       <use x="63.623046875" xlink:href="#DejaVuSans-30"/>
       <use x="127.24609375" xlink:href="#DejaVuSans-30"/>
       <use x="190.869140625" xlink:href="#DejaVuSans-30"/>
      </g>
     </g>
    </g>
    <g id="ytick_4">
     <g id="line2d_31">
      <g>
       <use style="stroke:#000000;stroke-width:0.5;" x="72.0" xlink:href="#m728421d6d4" y="240.685714286"/>
      </g>
     </g>
     <g id="line2d_32">
      <g>
       <use style="stroke:#000000;stroke-width:0.5;" x="518.4" xlink:href="#mcb0005524f" y="240.685714286"/>
      </g>
     </g>
     <g id="text_15">
      <!-- 1500 -->
      <g transform="translate(39.575 243.996964286)scale(0.12 -0.12)">
       <use xlink:href="#DejaVuSans-31"/>
       <use x="63.623046875" xlink:href="#DejaVuSans-35"/>
       <use x="127.24609375" xlink:href="#DejaVuSans-30"/>
       <use x="190.869140625" xlink:href="#DejaVuSans-30"/>
      </g>
     </g>
    </g>
    <g id="ytick_5">
     <g id="line2d_33">
      <g>
       <use style="stroke:#000000;stroke-width:0.5;" x="72.0" xlink:href="#m728421d6d4" y="191.314285714"/>
      </g>
     </g>
     <g id="line2d_34">
      <g>
       <use style="stroke:#000000;stroke-width:0.5;" x="518.4" xlink:href="#mcb0005524f" y="191.314285714"/>
      </g>
     </g>
     <g id="text_16">
      <!-- 2000 -->
      <g transform="translate(39.13625 194.625535714)scale(0.12 -0.12)">
       <use xlink:href="#DejaVuSans-32"/>
       <use x="63.623046875" xlink:href="#DejaVuSans-30"/>
       <use x="127.24609375" xlink:href="#DejaVuSans-30"/>
       <use x="190.869140625" xlink:href="#DejaVuSans-30"/>
      </g>
     </g>
    </g>
    <g id="ytick_6">
     <g id="line2d_35">
      <g>
       <use style="stroke:#000000;stroke-width:0.5;" x="72.0" xlink:href="#m728421d6d4" y="141.942857143"/>
      </g>
     </g>
     <g id="line2d_36">
      <g>
       <use style="stroke:#000000;stroke-width:0.5;" x="518.4" xlink:href="#mcb0005524f" y="141.942857143"/>
      </g>
     </g>
     <g id="text_17">
      <!-- 2500 -->
      <g transform="translate(39.13625 145.254107143)scale(0.12 -0.12)">
       <use xlink:href="#DejaVuSans-32"/>
       <use x="63.623046875" xlink:href="#DejaVuSans-35"/>
       <use x="127.24609375" xlink:href="#DejaVuSans-30"/>
       <use x="190.869140625" xlink:href="#DejaVuSans-30"/>
      </g>
     </g>
    </g>
    <g id="ytick_7">
     <g id="line2d_37">
      <g>
       <use style="stroke:#000000;stroke-width:0.5;" x="72.0" xlink:href="#m728421d6d4" y="92.5714285714"/>
      </g>
     </g>
     <g id="line2d_38">
      <g>
       <use style="stroke:#000000;stroke-width:0.5;" x="518.4" xlink:href="#mcb0005524f" y="92.5714285714"/>
      </g>
     </g>
     <g id="text_18">
      <!-- 3000 -->
      <g transform="translate(39.171875 95.8826785714)scale(0.12 -0.12)">
       <use xlink:href="#DejaVuSans-33"/>
       <use x="63.623046875" xlink:href="#DejaVuSans-30"/>
       <use x="127.24609375" xlink:href="#DejaVuSans-30"/>
       <use x="190.869140625" xlink:href="#DejaVuSans-30"/>
      </g>
     </g>
    </g>
    <g id="ytick_8">
     <g id="line2d_39">
      <g>
       <use style="stroke:#000000;stroke-width:0.5;" x="72.0" xlink:href="#m728421d6d4" y="43.2"/>
      </g>
     </g>
     <g id="line2d_40">
      <g>
       <use style="stroke:#000000;stroke-width:0.5;" x="518.4" xlink:href="#mcb0005524f" y="43.2"/>
      </g>
     </g>
     <g id="text_19">
      <!-- 3500 -->
      <g transform="translate(39.171875 46.51125)scale(0.12 -0.12)">
       <use xlink:href="#DejaVuSans-33"/>
       <use x="63.623046875" xlink:href="#DejaVuSans-35"/>
       <use x="127.24609375" xlink:href="#DejaVuSans-30"/>
       <use x="190.869140625" xlink:href="#DejaVuSans-30"/>
      </g>
     </g>
    </g>
   </g>
   <g id="patch_3">
    <path d="
M72 43.2
L518.4 43.2" style="fill:none;stroke:#000000;"/>
   </g>
   <g id="patch_4">
    <path d="
M518.4 388.8
L518.4 43.2" style="fill:none;stroke:#000000;"/>
   </g>
   <g id="patch_5">
    <path d="
M72 388.8
L518.4 388.8" style="fill:none;stroke:#000000;"/>
   </g>
   <g id="patch_6">
    <path d="
M72 388.8
L72 43.2" style="fill:none;stroke:#000000;"/>
   </g>
  </g>
 </g>
 <defs>
  <clipPath id="p7ff5b81e1d">
   <rect height="345.6" width="446.4" x="72.0" y="43.2"/>
  </clipPath>
 </defs>
</svg>
