<?xml version="1.0" encoding="utf-8" standalone="no"?>
<!DOCTYPE svg PUBLIC "-//W3C//DTD SVG 1.1//EN"
  "http://www.w3.org/Graphics/SVG/1.1/DTD/svg11.dtd">
<!-- Created with matplotlib (http://matplotlib.org/) -->
<svg height="432pt" version="1.1" viewBox="0 0 576 432" width="576pt" xmlns="http://www.w3.org/2000/svg" xmlns:xlink="http://www.w3.org/1999/xlink">
 <defs>
  <style type="text/css">
*{stroke-linecap:butt;stroke-linejoin:round;}
  </style>
 </defs>
 <g id="figure_1">
  <g id="patch_1">
   <path d="
M0 432
L576 432
L576 0
L0 0
z
" style="fill:#ffffff;"/>
  </g>
  <g id="axes_1">
   <g id="patch_2">
    <path d="
M72 388.8
L518.4 388.8
L518.4 43.2
L72 43.2
z
" style="fill:#ffffff;"/>
   </g>
   <g id="line2d_1">
    <path clip-path="url(#p7ff5b81e1d)" d="
M72.0565 325.124
L72.0753 218.175
L72.1534 220.386
L72.2061 207.417
L72.3871 192.122
L72.5332 224.873
L72.7231 227.219
L72.7603 190.654
L72.9664 188.127
L73.1988 195.202
L73.4002 195.784
L73.4106 189.822
L74.7015 245.518
L76.4396 270.577
L76.647 267.846
L80.1227 290.21
L80.8029 291.198
L80.8191 287.875
L81.5708 289.666
L81.675 281.209
L82.9738 284.384
L83.8849 284.726
L84.0332 282.098
L84.4089 279.902
L84.4962 273.802
L85.2352 274.027
L85.5341 272.519
L86.8481 274.331
L87.1749 273.21
L87.6541 273.104
L87.7116 268.088
L88.9689 269.958
L89.3753 268.971
L90.8206 272.289
L91.9819 276.961
L92.8787 278.361
L93.5758 278.34
L93.7775 276.823
L94.8172 276.819
L96.6689 280.873
L97.0573 281.317
L97.7026 282.374
L97.7038 281.115
L98.1145 280.51
L98.1157 278.721
L98.4219 276.135
L98.9322 276.205
L100.265 276.182
L100.343 274.677
L100.493 273.79
L101.416 273.228
L101.814 272.707
L101.814 270.956
L103.236 271.561
L104.587 272.903
L105.14 271.949
L106.725 273.74
L107.541 275.169
L107.541 273.603
L107.821 273.343
L107.86 271.946
L108.603 271.83
L108.736 270.72
L108.737 269.475
L109.081 269.017
L109.642 269.417
L110.895 270.937
L111.888 272.395
L111.949 271.482
L112.358 271.045
L112.358 269.671
L113.292 270.262
L113.293 268.964
L113.766 268.729
L114.677 268.894
L114.684 268.153
L116.055 269.166
L116.157 268.082
L116.537 268.224
L116.749 267.096
L118.799 269.438
L119.119 268.702
L119.119 267.551
L119.86 268.491
L120.397 268.725
L120.52 266.664
L120.649 266.171
L120.652 265.527
L120.853 264.388
L121.097 264.382
L121.571 263.647
L121.572 261.367
L122.023 260.693
L122.715 261.529
L123.336 261.627
L123.363 260.858
L124.284 261.758
L124.288 261.251
L124.559 260.585
L124.606 257.806
L125.032 258.719
L125.222 258.388
L125.432 257.566
L125.452 256.51
L126.114 254.353
L126.114 253.349
L126.817 252.942
L126.913 251.158
L127.839 254.13
L128.235 256.588
L128.345 253.956
L128.7 255.337
L128.745 255.138
L128.81 254.117
L130.457 259.001
L130.662 256.259
L130.92 256.218
L131.119 253.909
L131.437 253.925
L131.553 253.773
L131.889 254.658
L131.983 254.562
L132.439 255.663
L132.764 255.697
L132.87 255.513
L132.871 254.684
L132.988 254.582
L133.358 255.25
L133.475 254.005
L133.586 252.751
L133.765 252.788
L134.315 254.229
L134.628 253.223
L134.712 250.694
L134.812 250.502
L134.842 249.851
L135.058 249.77
L135.24 248.704
L135.514 248.643
L135.778 248.826
L135.998 248.742
L136.067 247.393
L136.439 247.216
L136.507 246.006
L136.932 246.306
L137.396 246.187
L137.396 245.455
L138.497 248.011
L138.634 247.584
L138.918 248.574
L138.994 247.309
L139.172 247.344
L140.084 249.033
L140.22 249.02
L140.31 247.87
L140.86 247.372
L141.454 247.988
L141.658 248.573
L141.987 248.445
L142.494 249.428
L142.572 248.536
L143.493 251.313
L143.637 251.117
L144.894 252.948
L145.115 251.099
L145.728 251.283
L146.096 251.092
L146.52 251.604
L146.7 250.269
L147.439 250.25
L147.488 249.134
L147.605 249.068
L147.777 248.489
L147.982 248.885
L148.021 248.421
L148.119 248.545
L148.401 247.892
L148.54 248.078
L148.544 247.514
L148.94 248.025
L149.187 248.095
L149.497 247.379
L149.85 247.079
L150.674 247.86
L150.688 246.802
L151.532 247.911
L152.112 248.539
L152.399 248.375
L153.159 249.338
L153.446 249.437
L154.814 250.898
L154.875 250.626
L155.135 250.353
L155.299 248.726
L155.313 248.339
L155.58 248.128
L156.202 248.899
L156.471 248.589
L156.887 248.697
L157.017 248.435
L157.037 248.069
L157.505 248.787
L157.609 247.977
L158.373 249.149
L158.624 249.245
L159.152 249.737
L159.899 250.098
L160.244 249.81
L160.72 249.881
L160.896 249.256
L161.654 249.976
L161.987 249.62
L162.216 249.812
L162.249 248.892
L162.63 248.886
L162.644 247.964
L162.963 247.787
L163.484 247.638
L163.626 246.915
L163.892 246.583
L163.998 245.872
L164.426 245.835
L164.96 246.474
L165.221 246.215
L165.708 246.425
L165.788 246.163
L166.041 246.001
L166.593 246.419
L167.151 247.013
L167.291 246.782
L167.722 247.109
L168.627 247.321
L168.818 247.014
L169.242 247.136
L169.451 246.929
L169.837 246.869
L169.866 246.509
L170.385 246.99
L170.652 246.423
L170.761 246.201
L170.79 245.384
L172.2 246.536
L173.492 248.197
L173.553 247.91
L174.039 248.171
L174.939 248.989
L175.015 248.714
L175.372 248.736
L177.344 251.258
L177.487 251.026
L178.059 251.722
L178.15 251.167
L178.421 251.117
L178.653 251.199
L178.653 250.795
L178.864 250.569
L178.964 249.972
L179.036 249.777
L179.521 249.714
L179.822 249.765
L179.907 249.597
L180.026 249.026
L180.236 248.884
L180.717 249.213
L180.846 248.715
L181.212 248.981
L181.473 248.788
L181.897 249.126
L181.903 248.755
L183.189 249.988
L183.27 249.753
L184.347 251.122
L184.528 250.349
L185.053 250.843
L185.328 250.859
L186.281 251.86
L186.705 252.108
L187.653 253.176
L187.768 253.05
L188.243 253.294
L188.291 253.02
L188.501 252.777
L188.722 252.863
L189.067 252.562
L189.129 252.364
L190.335 253.616
L190.411 253.473
L190.484 252.906
L191.038 253.407
L191.407 253.506
L191.673 253.416
L191.749 252.517
L191.937 252.565
L191.985 251.947
L192.411 252.208
L192.683 252.202
L192.812 251.813
L193.221 251.878
L193.245 251.588
L194.245 252.49
L194.269 252.207
L194.45 252.024
L195.055 252.578
L195.355 252.596
L195.506 251.991
L195.79 251.751
L195.932 251.665
L196.356 252.041
L196.564 252.039
L196.794 251.785
L196.908 251.57
L196.918 251.255
L197.101 251.138
L197.102 250.25
L197.218 250.13
L197.575 250.125
L197.91 250.233
L199.014 251.401
L199.166 251.326
L199.18 250.719
L199.444 250.757
L199.903 250.364
L199.923 249.787
L200.166 249.954
L200.5 248.947
L200.796 249.074
L200.796 248.844
L201.924 249.962
L202.324 249.982
L202.847 250.251
L203.353 250.268
L203.606 250.023
L203.687 249.498
L203.788 249.309
L204.266 249.723
L204.451 249.605
L204.978 249.844
L205.011 249.562
L205.149 249.378
L206.121 249.867
L206.859 250.61
L207.359 250.9
L207.474 250.737
L207.753 250.62
L207.753 250.143
L207.907 250.025
L207.95 249.801
L208.605 250.16
L208.819 250.101
L208.884 249.945
L209.484 250.436
L209.599 250.049
L209.808 250.224
L209.817 249.946
L210.075 250.039
L210.149 249.546
L210.86 249.712
L210.985 249.036
L211.434 249.175
L211.434 248.99
L211.551 248.876
L212.084 249.263
L212.317 249.227
L213.215 249.612
L213.599 249.635
L213.69 248.939
L214.133 249.145
L214.133 248.654
L214.281 248.551
L214.319 248.042
L214.8 247.99
L214.838 247.751
L215.12 247.637
L215.476 247.838
L215.603 247.486
L215.734 247.637
L215.936 247.495
L215.962 246.593
L216.206 246.665
L217.344 247.517
L217.42 247.371
L217.567 247.155
L217.811 246.835
L217.829 246.67
L218.22 246.752
L218.802 247.072
L218.892 246.74
L218.9 246.479
L219.758 247.2
L220.091 247.241
L220.926 246.749
L220.954 246.544
L221.113 246.428
L221.216 246.518
L221.917 246.6
L222.007 246.478
L223.298 247.453
L223.503 247.497
L223.55 247.299
L223.842 247.108
L224.246 247.281
L224.822 247.685
L225.037 247.084
L225.342 247.276
L225.342 247.024
L226.404 247.852
L226.42 247.654
L227.373 248.264
L227.537 248.152
L227.595 247.774
L227.966 247.399
L228.338 247.411
L228.376 247.219
L228.695 247.013
L228.8 246.882
L229.257 247.294
L229.467 247.245
L230.21 247.485
L230.228 247.401
L230.334 247.297
L230.353 247.07
L231.729 247.316
L232.596 247.88
L232.653 247.716
L233.035 247.486
L233.13 247.02
L233.392 246.927
L233.573 247.022
L233.621 246.6
L233.963 246.594
L234.04 246.362
L234.187 246.182
L234.933 246.074
L235.373 246.158
L235.387 245.82
L235.688 245.789
L235.688 245.556
L235.814 245.399
L236.007 245.451
L236.107 245.056
L236.317 245.024
L236.936 245.113
L236.974 244.92
L237.195 244.866
L237.622 244.972
L238.191 245.503
L238.479 245.583
L238.536 245.449
L239.227 245.919
L239.284 245.535
L239.522 245.583
L240.609 246.218
L240.861 246.001
L240.875 245.608
L241.052 245.599
L241.542 244.584
L241.628 244.218
L241.799 244.176
L241.823 243.909
L241.999 243.739
L242.466 244.034
L242.595 243.929
L243.476 244.309
L243.636 243.892
L244.059 243.616
L244.491 243.59
L244.524 243.204
L244.984 243.285
L244.984 243.076
L246.851 244.439
L246.851 244.066
L247.582 244.518
L247.587 244.307
L247.897 244.393
L247.93 244.221
L248.943 244.852
L249.507 245.028
L249.607 244.53
L249.769 244.392
L250.421 244.739
L250.75 243.954
L250.964 244.06
L251.379 243.877
L252.012 243.855
L252.012 243.436
L252.163 243.352
L252.163 243.142
L252.965 243.452
L253.48 242.922
L254.152 243.385
L254.832 243.414
L255.066 243.143
L255.347 243.189
L255.533 243.377
L255.556 243.302
L255.695 243.122
L256.374 243.559
L256.427 243.466
L256.433 243.295
L257.533 243.935
L257.538 243.74
L257.767 243.849
L259.05 244.745
L259.11 244.418
L260.094 244.813
L260.12 244.651
L260.882 244.97
L261.045 244.985
L261.991 245.632
L262.097 245.267
L262.263 245.224
L262.627 245.344
L262.879 244.884
L263.521 245.253
L263.659 244.97
L263.787 244.963
L265.512 246.15
L265.593 245.689
L266.036 245.669
L266.059 245.336
L267.352 246.212
L267.389 246
L267.869 245.959
L267.899 245.88
L268.337 245.915
L268.337 245.733
L268.827 245.394
L269.709 245.785
L269.985 245.762
L269.99 245.583
L270.152 245.594
L270.161 245.414
L270.547 245.223
L270.566 244.99
L271.409 245.242
L271.462 245.044
L272.453 245.258
L272.948 245.413
L273.058 245.319
L273.072 245.143
L273.377 245.112
L273.705 245.174
L273.715 245.02
L273.824 245.06
L274.167 245.055
L274.31 244.759
L274.603 244.681
L274.603 244.545
L274.996 244.159
L275.006 243.992
L275.239 244.144
L275.334 243.995
L275.487 243.987
L275.601 243.691
L275.897 243.684
L276.721 244.246
L277.061 244.239
L277.403 244.284
L277.426 244.149
L278.121 244.561
L278.15 244.402
L278.297 244.3
L278.823 244.532
L278.823 244.42
L278.855 244.314
L279.302 243.97
L279.756 244.434
L280.498 244.513
L280.498 244.345
L280.651 244.451
L280.686 244.345
L280.727 244.223
L281.647 244.714
L281.647 244.565
L281.989 244.408
L283.256 244.598
L284.628 245.404
L284.761 245.398
L285.197 245.617
L285.447 245.563
L286.362 246.053
L286.386 245.908
L287.505 246.316
L288.139 246.186
L289.32 246.574
L290.635 246.634
L291.348 246.593
L291.464 246.364
L291.673 246.432
L292.523 246.35
L293.212 246.668
L293.255 246.553
L294.246 246.945
L294.331 246.873
L295.703 247.384
L295.786 247.29
L296.056 247.275
L296.156 246.9
L297.585 247.244
L298.361 247.613
L299.409 247.679
L299.743 247.789
L299.757 247.639
L300.128 247.781
L300.491 247.704
L301.639 248.223
L301.643 248.071
L302.177 248.023
L302.834 248.214
L303.815 248.654
L303.944 248.62
L304.001 248.393
L304.363 248.435
L304.382 248.305
L304.74 248.189
L304.84 248.139
L305.826 248.146
L306.276 248.321
L306.297 248.186
L306.431 248.064
L306.669 248.135
L306.902 248.056
L308.093 248.709
L309.289 248.88
L309.289 248.73
L310.627 249.297
L310.637 249.154
L310.827 249.195
L310.875 249.076
L311.056 248.996
L311.313 249.034
L311.327 248.891
L312.052 249.098
L312.075 248.989
L312.609 249.052
L312.976 249.233
L312.98 249.089
L313.119 249.165
L313.39 249.157
L314.343 249.548
L314.757 249.454
L315.638 250.042
L315.672 249.933
L317.596 250.747
L317.625 250.646
L318.054 250.697
L318.073 250.442
L318.373 250.492
L318.582 250.086
L318.657 249.595
L318.82 249.524
L319.092 249.723
L319.566 249.883
L319.567 249.749
L319.916 249.944
L319.978 249.634
L320.183 249.47
L320.397 249.09
L320.874 249.107
L321.093 249.091
L322.255 249.864
L322.512 249.884
L322.622 249.731
L322.765 249.7
L322.765 249.572
L323.155 249.686
L323.165 249.559
L323.608 249.935
L324.146 250.073
L324.151 249.942
L324.323 249.73
L324.464 249.54
L324.751 249.192
L325.032 249.418
L325.275 249.452
L325.28 249.315
L327.287 250.331
L327.342 250.248
L327.547 250.274
L327.547 250.139
L328.509 250.533
L328.6 250.336
L329.057 250.63
L329.367 250.69
L329.429 250.456
L329.843 250.184
L330.072 250.281
L330.08 250.17
L330.296 250.128
L330.701 250.108
L331.328 250.465
L331.334 250.356
L331.817 250.555
L333.24 251.567
L333.878 251.822
L333.902 251.455
L334.212 251.802
L334.354 251.725
L334.902 252.011
L334.912 251.896
L334.954 251.829
L336.665 252.792
L336.688 252.691
L336.898 252.523
L337.579 252.812
L337.584 252.567
L337.922 252.409
L338.017 252.342
L338.39 252.615
L338.66 252.582
L340.542 253.21
L340.794 253.191
L341.233 253.518
L341.276 253.421
L341.371 253.409
L342.347 253.891
L342.391 253.696
L343.057 253.786
L343.567 253.902
L344.038 254.142
L344.038 254.03
L344.11 254.035
L345.709 254.666
L345.934 254.241
L345.934 254.123
L347.373 254.64
L347.602 254.625
L348.978 255.188
L349.016 255.109
L349.577 255.232
L349.61 255.134
L350.036 255.112
L350.383 255.03
L351.384 255.395
L351.456 255.204
L353.846 256.212
L353.846 256.096
L354.947 256.475
L355.506 256.979
L356.828 257.28
L357.067 257.125
L357.481 257.295
L357.872 257.198
L358.567 257.237
L359.253 257.503
L359.334 257.433
L359.586 257.439
L360.987 257.999
L361.044 257.928
L362.778 258.681
L362.985 258.549
L364.383 259.148
L364.393 259.043
L366.498 259.787
L366.551 259.626
L367.522 260.053
L367.718 260.006
L367.965 260.123
L367.975 260.017
L368.813 259.883
L368.851 259.835
L369.309 259.985
L369.556 259.885
L370.147 260.14
L370.543 259.938
L371.105 260.198
L371.219 260.087
L371.586 259.852
L371.638 259.795
L372.1 259.63
L372.105 259.427
L372.562 259.415
L373.515 259.616
L374.244 259.807
L376.459 261.164
L376.468 261.064
L376.516 261.029
L377.069 261.046
L377.145 260.787
L377.331 260.739
L378.993 261.518
L379.812 261.634
L379.812 261.534
L379.893 261.286
L381.48 261.677
L382.909 262.186
L382.909 262.087
L383.004 262.119
L383.275 262.121
L383.963 262.405
L384.28 262.381
L384.442 262.107
L385.862 262.377
L386.996 262.372
L387.053 262.284
L387.834 262.249
L388.125 262.161
L388.899 262.073
L389.43 262.123
L389.449 262.04
L389.658 261.996
L391.65 262.373
L391.697 262.298
L393.112 262.224
L394.055 262
L394.484 261.985
L394.517 261.802
L394.727 261.746
L395.327 261.822
L395.437 261.609
L396.318 261.727
L396.327 261.648
L397.218 261.467
L397.228 261.374
L398.104 261.385
L398.981 261.35
L400.486 261.82
L401.809 261.787
L402.094 261.739
L403.174 261.833
L404.838 262.1
L404.87 262.014
L405.459 261.925
L405.508 261.89
L406.229 261.727
L406.242 261.648
L408.192 261.577
L409.132 261.713
L409.405 261.672
L410.059 261.8
L410.307 261.639
L410.307 261.548
L412.657 261.771
L414.638 261.931
L414.657 261.755
L416.315 261.899
L418.601 262.477
L418.601 262.387
L419.071 262.207
L419.688 262.283
L420.481 262.351
L420.57 262.21
L421.528 262.231
L422.666 262.397
L423.524 262.434
L423.524 262.344
L424.997 262.716
L425.061 262.641
L425.975 262.722
L426.969 262.983
L429.615 263.234
L429.621 263.151
L429.932 263.157
L430.459 263.283
L430.459 263.197
L431.888 263.235
L432.936 263.601
L433.26 263.621
L435.648 264.516
L435.706 264.377
L438.32 264.897
L440.158 265.49
L440.19 265.25
L441.047 265.206
L441.066 265.13
L441.396 265.162
L442.07 265.348
L442.089 265.275
L442.94 265.204
L443.74 265.198
L443.74 265.115
L445.017 265.349
L448.345 266.513
L448.942 266.682
L448.955 266.601
L448.961 266.52
L449.126 266.447
L449.85 266.653
L450.606 266.521
L451.946 266.956
L451.946 266.875
L456.906 268.49
L456.983 268.486
L457.859 268.679
L457.897 268.62
L458.488 268.715
L459.707 268.876
L460.857 269.101
L461.657 269.151
L461.683 269.091
L462.936 269.47
L469.749 270.194
L469.749 270.041
L470.822 270.451
L470.835 270.381
L470.892 270.336
L472.963 271.009
L472.963 270.935
L473.661 271.016
L473.877 270.976
L474.373 271.13
L474.385 271.067
L474.455 271.037
L475.007 271.175
L476.761 271.834
L481.861 272.88
L482.14 272.88
L483.144 273.101
L483.144 272.886
L484.878 273.247
L484.897 273.18
L485.83 273.454
L488.079 274.291
L490.765 274.887
L490.765 274.817
L492.239 275.215
L493.465 275.346
L495.916 275.769
L495.973 275.726
L499.187 276.511
L499.435 276.492
L501.029 276.901
L503.824 277.405
L504.186 277.408
L506.79 277.866
L506.834 277.822
L507.971 277.993
L509.305 278.163
L509.311 278.1
L510.524 278.265
L510.543 278.203
L511.401 278.342
L511.579 278.226
L512.379 278.439
L512.379 278.373
L514.811 278.62
L514.977 278.579
L517.092 278.866
L518.4 278.979
L518.4 278.979" style="fill:none;stroke:#ff0000;stroke-linecap:square;"/>
   </g>
   <g id="line2d_2">
    <path clip-path="url(#p7ff5b81e1d)" d="
M72 212.248
L72 47.0447
L72 47.0447
L72 47.0447
L72.0619 239.513
L72.068 116.521
L72.3706 199.624
L72.3706 176.014
L72.4551 182.687
L72.7453 236.37
L73.3481 260.8
L75.3456 311.13
L78.0506 321.835
L80.318 328.019
L80.5552 325.137
L82.1155 329.226
L82.5804 327.197
L82.5804 323.804
L84.911 325.607
L85.797 325.184
L85.797 298.004
L90.0508 307.542
L90.3398 305.421
L91.134 304.942
L91.9864 303.866
L91.9864 301.766
L96.9792 310.483
L97.0573 309.712
L97.0573 307.803
L97.2145 306.711
L98.5714 309.376
L98.5978 307.858
L100.398 307.922
L100.491 307.103
L102.614 308.733
L108.719 316.547
L110.937 319.118
L111.888 319.242
L115.584 322.398
L115.729 321.273
L115.966 320.341
L117.351 321.371
L122.018 325.784
L123.36 326.368
L123.36 325.236
L126.99 328.498
L127.069 327.737
L128.81 332.019
L130.116 333.036
L131.569 335.384
L132.434 336.144
L132.434 335.299
L133.756 336.63
L134.555 336.808
L135.982 338.189
L135.983 336.674
L136.554 336.499
L138.44 337.31
L138.874 337.316
L139.114 337.002
L139.172 336.381
L140.9 337.317
L140.93 336.706
L141.571 336.649
L142.931 336.88
L145.61 338.976
L146.12 338.761
L147.882 339.778
L147.882 339.174
L148.078 338.999
L148.515 338.837
L152.112 340.743
L154.824 342.147
L155.185 341.802
L159 343.324
L160.339 343.395
L164.673 345.063
L164.889 344.753
L164.889 344.281
L167.217 345.091
L167.513 344.78
L171.247 345.95
L171.538 345.627
L172.581 345.679
L181.289 349.07
L184.495 350.194
L186.205 350.176
L186.419 349.924
L187.768 349.754
L194.079 351.812
L194.079 350.785
L194.269 350.554
L194.269 350.215
L195.017 350.142
L195.084 349.848
L196.222 350.032
L196.489 349.187
L196.706 348.903
L198.049 348.76
L199.903 349.202
L200.514 348.896
L205.379 350.112
L205.883 349.988
L209.355 350.901
L210.618 351.085
L211.37 350.997
L212.839 351.212
L215.936 351.903
L216.206 351.749
L219.168 352.195
L222.488 352.908
L222.822 352.765
L222.869 352.302
L226.418 353.063
L227.197 353.108
L227.197 352.859
L227.952 352.816
L230.548 353.208
L237.074 354.664
L237.074 354.432
L239.977 354.911
L240.447 354.788
L242.291 355.047
L243.636 354.894
L244.059 354.758
L244.059 354.319
L247.916 354.765
L249.754 354.992
L250.011 354.824
L251.584 354.945
L254.337 355.389
L255.08 355.391
L256.657 355.612
L262.73 356.723
L263.964 356.801
L268.827 357.591
L270.134 357.644
L272.453 357.883
L274.12 357.275
L276.173 357.538
L276.173 357.374
L278.823 357.736
L278.855 357.574
L282.964 357.854
L283.399 357.772
L285.214 357.759
L286.605 357.818
L286.991 357.72
L289.696 358.037
L290.973 358.066
L293.317 358.251
L293.455 358.121
L293.455 357.959
L294.184 357.893
L295.994 358.015
L295.994 357.855
L296.113 357.719
L297.575 357.747
L300.51 357.884
L300.995 357.64
L301.972 357.446
L305.616 357.548
L305.63 357.398
L306.669 357.255
L309.184 357.421
L314.8 358.162
L314.97 358.04
L322.445 358.752
L322.998 358.579
L328.476 359.214
L329.11 359.197
L330.788 359.314
L331.144 359.218
L334.469 359.579
L336.717 359.623
L338.175 359.779
L338.272 359.665
L340.009 359.574
L340.061 359.463
L341.233 359.559
L341.233 359.435
L341.523 359.378
L343.176 359.508
L351.722 360.539
L351.722 360.42
L354.742 360.595
L359.334 361.018
L363.416 360.878
L371.533 361.586
L372.01 361.432
L372.072 361.338
L372.315 361.148
L372.453 361.071
L374.177 361.088
L375.539 360.947
L375.611 360.757
L385.653 360.849
L385.653 360.651
L385.776 360.561
L392.045 360.541
L392.721 360.489
L395.78 360.56
L398.938 360.142
L399.057 360.058
L405.842 360.344
L412.149 360.474
L412.682 360.429
L417.191 360.588
L420.57 360.507
L421.39 360.209
L426.976 360.434
L428.592 360.49
L431.952 360.724
L431.952 360.636
L432.466 360.608
L440.596 361.178
L441.936 361.059
L442.108 360.996
L444.858 361.121
L447.303 361.087
L447.767 360.904
L455.687 361.466
L456.278 361.458
L459.904 361.666
L459.904 361.587
L476.646 362.717
L490.359 363.822
L492.34 363.765
L509.603 364.806
L513.814 364.792
L517.435 364.981
L517.435 364.981" style="fill:none;stroke:#008000;stroke-linecap:square;"/>
   </g>
   <g id="matplotlib.axis_1">
    <g id="xtick_1">
     <g id="line2d_3">
      <defs>
       <path d="
M0 0
L0 -4" id="m93b0483c22" style="stroke:#000000;stroke-width:0.5;"/>
      </defs>
      <g>
       <use style="stroke:#000000;stroke-width:0.5;" x="73.5144755348" xlink:href="#m93b0483c22" y="388.8"/>
      </g>
     </g>
     <g id="line2d_4">
      <defs>
       <path d="
M0 0
L0 4" id="m741efc42ff" style="stroke:#000000;stroke-width:0.5;"/>
      </defs>
      <g>
       <use style="stroke:#000000;stroke-width:0.5;" x="73.5144755348" xlink:href="#m741efc42ff" y="43.2"/>
      </g>
     </g>
     <g id="text_1">
      <!-- Sep 2013 -->
      <defs>
       <path d="
M40.5781 39.3125
Q47.6562 37.7969 51.625 33
Q55.6094 28.2188 55.6094 21.1875
Q55.6094 10.4062 48.1875 4.48438
Q40.7656 -1.42188 27.0938 -1.42188
Q22.5156 -1.42188 17.6562 -0.515625
Q12.7969 0.390625 7.625 2.20312
L7.625 11.7188
Q11.7188 9.32812 16.5938 8.10938
Q21.4844 6.89062 26.8125 6.89062
Q36.0781 6.89062 40.9375 10.5469
Q45.7969 14.2031 45.7969 21.1875
Q45.7969 27.6406 41.2812 31.2656
Q36.7656 34.9062 28.7188 34.9062
L20.2188 34.9062
L20.2188 43.0156
L29.1094 43.0156
Q36.375 43.0156 40.2344 45.9219
Q44.0938 48.8281 44.0938 54.2969
Q44.0938 59.9062 40.1094 62.9062
Q36.1406 65.9219 28.7188 65.9219
Q24.6562 65.9219 20.0156 65.0312
Q15.375 64.1562 9.8125 62.3125
L9.8125 71.0938
Q15.4375 72.6562 20.3438 73.4375
Q25.25 74.2188 29.5938 74.2188
Q40.8281 74.2188 47.3594 69.1094
Q53.9062 64.0156 53.9062 55.3281
Q53.9062 49.2656 50.4375 45.0938
Q46.9688 40.9219 40.5781 39.3125" id="DejaVuSans-33"/>
       <path d="
M12.4062 8.29688
L28.5156 8.29688
L28.5156 63.9219
L10.9844 60.4062
L10.9844 69.3906
L28.4219 72.9062
L38.2812 72.9062
L38.2812 8.29688
L54.3906 8.29688
L54.3906 0
L12.4062 0
z
" id="DejaVuSans-31"/>
       <path d="
M31.7812 66.4062
Q24.1719 66.4062 20.3281 58.9062
Q16.5 51.4219 16.5 36.375
Q16.5 21.3906 20.3281 13.8906
Q24.1719 6.39062 31.7812 6.39062
Q39.4531 6.39062 43.2812 13.8906
Q47.125 21.3906 47.125 36.375
Q47.125 51.4219 43.2812 58.9062
Q39.4531 66.4062 31.7812 66.4062
M31.7812 74.2188
Q44.0469 74.2188 50.5156 64.5156
Q56.9844 54.8281 56.9844 36.375
Q56.9844 17.9688 50.5156 8.26562
Q44.0469 -1.42188 31.7812 -1.42188
Q19.5312 -1.42188 13.0625 8.26562
Q6.59375 17.9688 6.59375 36.375
Q6.59375 54.8281 13.0625 64.5156
Q19.5312 74.2188 31.7812 74.2188" id="DejaVuSans-30"/>
       <path id="DejaVuSans-20"/>
       <path d="
M19.1875 8.29688
L53.6094 8.29688
L53.6094 0
L7.32812 0
L7.32812 8.29688
Q12.9375 14.1094 22.625 23.8906
Q32.3281 33.6875 34.8125 36.5312
Q39.5469 41.8438 41.4219 45.5312
Q43.3125 49.2188 43.3125 52.7812
Q43.3125 58.5938 39.2344 62.25
Q35.1562 65.9219 28.6094 65.9219
Q23.9688 65.9219 18.8125 64.3125
Q13.6719 62.7031 7.8125 59.4219
L7.8125 69.3906
Q13.7656 71.7812 18.9375 73
Q24.125 74.2188 28.4219 74.2188
Q39.75 74.2188 46.4844 68.5469
Q53.2188 62.8906 53.2188 53.4219
Q53.2188 48.9219 51.5312 44.8906
Q49.8594 40.875 45.4062 35.4062
Q44.1875 33.9844 37.6406 27.2188
Q31.1094 20.4531 19.1875 8.29688" id="DejaVuSans-32"/>
       <path d="
M53.5156 70.5156
L53.5156 60.8906
Q47.9062 63.5781 42.9219 64.8906
Q37.9375 66.2188 33.2969 66.2188
Q25.25 66.2188 20.875 63.0938
Q16.5 59.9688 16.5 54.2031
Q16.5 49.3594 19.4062 46.8906
Q22.3125 44.4375 30.4219 42.9219
L36.375 41.7031
Q47.4062 39.5938 52.6562 34.2969
Q57.9062 29 57.9062 20.125
Q57.9062 9.51562 50.7969 4.04688
Q43.7031 -1.42188 29.9844 -1.42188
Q24.8125 -1.42188 18.9688 -0.25
Q13.1406 0.921875 6.89062 3.21875
L6.89062 13.375
Q12.8906 10.0156 18.6562 8.29688
Q24.4219 6.59375 29.9844 6.59375
Q38.4219 6.59375 43.0156 9.90625
Q47.6094 13.2344 47.6094 19.3906
Q47.6094 24.75 44.3125 27.7812
Q41.0156 30.8125 33.5 32.3281
L27.4844 33.5
Q16.4531 35.6875 11.5156 40.375
Q6.59375 45.0625 6.59375 53.4219
Q6.59375 63.0938 13.4062 68.6562
Q20.2188 74.2188 32.1719 74.2188
Q37.3125 74.2188 42.625 73.2812
Q47.9531 72.3594 53.5156 70.5156" id="DejaVuSans-53"/>
       <path d="
M56.2031 29.5938
L56.2031 25.2031
L14.8906 25.2031
Q15.4844 15.9219 20.4844 11.0625
Q25.4844 6.20312 34.4219 6.20312
Q39.5938 6.20312 44.4531 7.46875
Q49.3125 8.73438 54.1094 11.2812
L54.1094 2.78125
Q49.2656 0.734375 44.1875 -0.34375
Q39.1094 -1.42188 33.8906 -1.42188
Q20.7969 -1.42188 13.1562 6.1875
Q5.51562 13.8125 5.51562 26.8125
Q5.51562 40.2344 12.7656 48.1094
Q20.0156 56 32.3281 56
Q43.3594 56 49.7812 48.8906
Q56.2031 41.7969 56.2031 29.5938
M47.2188 32.2344
Q47.125 39.5938 43.0938 43.9844
Q39.0625 48.3906 32.4219 48.3906
Q24.9062 48.3906 20.3906 44.1406
Q15.875 39.8906 15.1875 32.1719
z
" id="DejaVuSans-65"/>
       <path d="
M18.1094 8.20312
L18.1094 -20.7969
L9.07812 -20.7969
L9.07812 54.6875
L18.1094 54.6875
L18.1094 46.3906
Q20.9531 51.2656 25.2656 53.625
Q29.5938 56 35.5938 56
Q45.5625 56 51.7812 48.0938
Q58.0156 40.1875 58.0156 27.2969
Q58.0156 14.4062 51.7812 6.48438
Q45.5625 -1.42188 35.5938 -1.42188
Q29.5938 -1.42188 25.2656 0.953125
Q20.9531 3.32812 18.1094 8.20312
M48.6875 27.2969
Q48.6875 37.2031 44.6094 42.8438
Q40.5312 48.4844 33.4062 48.4844
Q26.2656 48.4844 22.1875 42.8438
Q18.1094 37.2031 18.1094 27.2969
Q18.1094 17.3906 22.1875 11.75
Q26.2656 6.10938 33.4062 6.10938
Q40.5312 6.10938 44.6094 11.75
Q48.6875 17.3906 48.6875 27.2969" id="DejaVuSans-70"/>
      </defs>
      <g transform="translate(45.5085380348 401.918125)scale(0.12 -0.12)">
       <use xlink:href="#DejaVuSans-53"/>
       <use x="63.4765625" xlink:href="#DejaVuSans-65"/>
       <use x="125.0" xlink:href="#DejaVuSans-70"/>
       <use x="188.4765625" xlink:href="#DejaVuSans-20"/>
       <use x="220.263671875" xlink:href="#DejaVuSans-32"/>
       <use x="283.88671875" xlink:href="#DejaVuSans-30"/>
       <use x="347.509765625" xlink:href="#DejaVuSans-31"/>
       <use x="411.1328125" xlink:href="#DejaVuSans-33"/>
      </g>
     </g>
    </g>
    <g id="xtick_2">
     <g id="line2d_5">
      <g>
       <use style="stroke:#000000;stroke-width:0.5;" x="115.128414322" xlink:href="#m93b0483c22" y="388.8"/>
      </g>
     </g>
     <g id="line2d_6">
      <g>
       <use style="stroke:#000000;stroke-width:0.5;" x="115.128414322" xlink:href="#m741efc42ff" y="43.2"/>
      </g>
     </g>
     <g id="text_2">
      <!-- Dec 2013 -->
      <defs>
       <path d="
M19.6719 64.7969
L19.6719 8.10938
L31.5938 8.10938
Q46.6875 8.10938 53.6875 14.9375
Q60.6875 21.7812 60.6875 36.5312
Q60.6875 51.1719 53.6875 57.9844
Q46.6875 64.7969 31.5938 64.7969
z

M9.8125 72.9062
L30.0781 72.9062
Q51.2656 72.9062 61.1719 64.0938
Q71.0938 55.2812 71.0938 36.5312
Q71.0938 17.6719 61.125 8.82812
Q51.1719 0 30.0781 0
L9.8125 0
z
" id="DejaVuSans-44"/>
       <path d="
M48.7812 52.5938
L48.7812 44.1875
Q44.9688 46.2969 41.1406 47.3438
Q37.3125 48.3906 33.4062 48.3906
Q24.6562 48.3906 19.8125 42.8438
Q14.9844 37.3125 14.9844 27.2969
Q14.9844 17.2812 19.8125 11.7344
Q24.6562 6.20312 33.4062 6.20312
Q37.3125 6.20312 41.1406 7.25
Q44.9688 8.29688 48.7812 10.4062
L48.7812 2.09375
Q45.0156 0.34375 40.9844 -0.53125
Q36.9688 -1.42188 32.4219 -1.42188
Q20.0625 -1.42188 12.7812 6.34375
Q5.51562 14.1094 5.51562 27.2969
Q5.51562 40.6719 12.8594 48.3281
Q20.2188 56 33.0156 56
Q37.1562 56 41.1094 55.1406
Q45.0625 54.2969 48.7812 52.5938" id="DejaVuSans-63"/>
      </defs>
      <g transform="translate(86.8215393221 401.918125)scale(0.12 -0.12)">
       <use xlink:href="#DejaVuSans-44"/>
       <use x="77.001953125" xlink:href="#DejaVuSans-65"/>
       <use x="138.525390625" xlink:href="#DejaVuSans-63"/>
       <use x="193.505859375" xlink:href="#DejaVuSans-20"/>
       <use x="225.29296875" xlink:href="#DejaVuSans-32"/>
       <use x="288.916015625" xlink:href="#DejaVuSans-30"/>
       <use x="352.5390625" xlink:href="#DejaVuSans-31"/>
       <use x="416.162109375" xlink:href="#DejaVuSans-33"/>
      </g>
     </g>
    </g>
    <g id="xtick_3">
     <g id="line2d_7">
      <g>
       <use style="stroke:#000000;stroke-width:0.5;" x="156.285057079" xlink:href="#m93b0483c22" y="388.8"/>
      </g>
     </g>
     <g id="line2d_8">
      <g>
       <use style="stroke:#000000;stroke-width:0.5;" x="156.285057079" xlink:href="#m741efc42ff" y="43.2"/>
      </g>
     </g>
     <g id="text_3">
      <!-- Mar 2014 -->
      <defs>
       <path d="
M9.8125 72.9062
L24.5156 72.9062
L43.1094 23.2969
L61.8125 72.9062
L76.5156 72.9062
L76.5156 0
L66.8906 0
L66.8906 64.0156
L48.0938 14.0156
L38.1875 14.0156
L19.3906 64.0156
L19.3906 0
L9.8125 0
z
" id="DejaVuSans-4d"/>
       <path d="
M41.1094 46.2969
Q39.5938 47.1719 37.8125 47.5781
Q36.0312 48 33.8906 48
Q26.2656 48 22.1875 43.0469
Q18.1094 38.0938 18.1094 28.8125
L18.1094 0
L9.07812 0
L9.07812 54.6875
L18.1094 54.6875
L18.1094 46.1875
Q20.9531 51.1719 25.4844 53.5781
Q30.0312 56 36.5312 56
Q37.4531 56 38.5781 55.875
Q39.7031 55.7656 41.0625 55.5156
z
" id="DejaVuSans-72"/>
       <path d="
M37.7969 64.3125
L12.8906 25.3906
L37.7969 25.3906
z

M35.2031 72.9062
L47.6094 72.9062
L47.6094 25.3906
L58.0156 25.3906
L58.0156 17.1875
L47.6094 17.1875
L47.6094 0
L37.7969 0
L37.7969 17.1875
L4.89062 17.1875
L4.89062 26.7031
z
" id="DejaVuSans-34"/>
       <path d="
M34.2812 27.4844
Q23.3906 27.4844 19.1875 25
Q14.9844 22.5156 14.9844 16.5
Q14.9844 11.7188 18.1406 8.90625
Q21.2969 6.10938 26.7031 6.10938
Q34.1875 6.10938 38.7031 11.4062
Q43.2188 16.7031 43.2188 25.4844
L43.2188 27.4844
z

M52.2031 31.2031
L52.2031 0
L43.2188 0
L43.2188 8.29688
Q40.1406 3.32812 35.5469 0.953125
Q30.9531 -1.42188 24.3125 -1.42188
Q15.9219 -1.42188 10.9531 3.29688
Q6 8.01562 6 15.9219
Q6 25.1406 12.1719 29.8281
Q18.3594 34.5156 30.6094 34.5156
L43.2188 34.5156
L43.2188 35.4062
Q43.2188 41.6094 39.1406 45
Q35.0625 48.3906 27.6875 48.3906
Q23 48.3906 18.5469 47.2656
Q14.1094 46.1406 10.0156 43.8906
L10.0156 52.2031
Q14.9375 54.1094 19.5781 55.0469
Q24.2188 56 28.6094 56
Q40.4844 56 46.3438 49.8438
Q52.2031 43.7031 52.2031 31.2031" id="DejaVuSans-61"/>
      </defs>
      <g transform="translate(128.124432079 401.918125)scale(0.12 -0.12)">
       <use xlink:href="#DejaVuSans-4d"/>
       <use x="86.279296875" xlink:href="#DejaVuSans-61"/>
       <use x="147.55859375" xlink:href="#DejaVuSans-72"/>
       <use x="188.671875" xlink:href="#DejaVuSans-20"/>
       <use x="220.458984375" xlink:href="#DejaVuSans-32"/>
       <use x="284.08203125" xlink:href="#DejaVuSans-30"/>
       <use x="347.705078125" xlink:href="#DejaVuSans-31"/>
       <use x="411.328125" xlink:href="#DejaVuSans-34"/>
      </g>
     </g>
    </g>
    <g id="xtick_4">
     <g id="line2d_9">
      <g>
       <use style="stroke:#000000;stroke-width:0.5;" x="198.356291897" xlink:href="#m93b0483c22" y="388.8"/>
      </g>
     </g>
     <g id="line2d_10">
      <g>
       <use style="stroke:#000000;stroke-width:0.5;" x="198.356291897" xlink:href="#m741efc42ff" y="43.2"/>
      </g>
     </g>
     <g id="text_4">
      <!-- Jun 2014 -->
      <defs>
       <path d="
M8.5 21.5781
L8.5 54.6875
L17.4844 54.6875
L17.4844 21.9219
Q17.4844 14.1562 20.5 10.2656
Q23.5312 6.39062 29.5938 6.39062
Q36.8594 6.39062 41.0781 11.0312
Q45.3125 15.6719 45.3125 23.6875
L45.3125 54.6875
L54.2969 54.6875
L54.2969 0
L45.3125 0
L45.3125 8.40625
Q42.0469 3.42188 37.7188 1
Q33.4062 -1.42188 27.6875 -1.42188
Q18.2656 -1.42188 13.375 4.4375
Q8.5 10.2969 8.5 21.5781
M31.1094 56
z
" id="DejaVuSans-75"/>
       <path d="
M54.8906 33.0156
L54.8906 0
L45.9062 0
L45.9062 32.7188
Q45.9062 40.4844 42.875 44.3281
Q39.8438 48.1875 33.7969 48.1875
Q26.5156 48.1875 22.3125 43.5469
Q18.1094 38.9219 18.1094 30.9062
L18.1094 0
L9.07812 0
L9.07812 54.6875
L18.1094 54.6875
L18.1094 46.1875
Q21.3438 51.125 25.7031 53.5625
Q30.0781 56 35.7969 56
Q45.2188 56 50.0469 50.1719
Q54.8906 44.3438 54.8906 33.0156" id="DejaVuSans-6e"/>
       <path d="
M9.8125 72.9062
L19.6719 72.9062
L19.6719 5.07812
Q19.6719 -8.10938 14.6719 -14.0625
Q9.67188 -20.0156 -1.42188 -20.0156
L-5.17188 -20.0156
L-5.17188 -11.7188
L-2.09375 -11.7188
Q4.4375 -11.7188 7.125 -8.04688
Q9.8125 -4.39062 9.8125 5.07812
z
" id="DejaVuSans-4a"/>
      </defs>
      <g transform="translate(171.830666897 401.918125)scale(0.12 -0.12)">
       <use xlink:href="#DejaVuSans-4a"/>
       <use x="29.4921875" xlink:href="#DejaVuSans-75"/>
       <use x="92.87109375" xlink:href="#DejaVuSans-6e"/>
       <use x="156.25" xlink:href="#DejaVuSans-20"/>
       <use x="188.037109375" xlink:href="#DejaVuSans-32"/>
       <use x="251.66015625" xlink:href="#DejaVuSans-30"/>
       <use x="315.283203125" xlink:href="#DejaVuSans-31"/>
       <use x="378.90625" xlink:href="#DejaVuSans-34"/>
      </g>
     </g>
    </g>
    <g id="xtick_5">
     <g id="line2d_11">
      <g>
       <use style="stroke:#000000;stroke-width:0.5;" x="240.427526715" xlink:href="#m93b0483c22" y="388.8"/>
      </g>
     </g>
     <g id="line2d_12">
      <g>
       <use style="stroke:#000000;stroke-width:0.5;" x="240.427526715" xlink:href="#m741efc42ff" y="43.2"/>
      </g>
     </g>
     <g id="text_5">
      <!-- Sep 2014 -->
      <g transform="translate(212.277214215 401.918125)scale(0.12 -0.12)">
       <use xlink:href="#DejaVuSans-53"/>
       <use x="63.4765625" xlink:href="#DejaVuSans-65"/>
       <use x="125.0" xlink:href="#DejaVuSans-70"/>
       <use x="188.4765625" xlink:href="#DejaVuSans-20"/>
       <use x="220.263671875" xlink:href="#DejaVuSans-32"/>
       <use x="283.88671875" xlink:href="#DejaVuSans-30"/>
       <use x="347.509765625" xlink:href="#DejaVuSans-31"/>
       <use x="411.1328125" xlink:href="#DejaVuSans-34"/>
      </g>
     </g>
    </g>
    <g id="xtick_6">
     <g id="line2d_13">
      <g>
       <use style="stroke:#000000;stroke-width:0.5;" x="282.041465502" xlink:href="#m93b0483c22" y="388.8"/>
      </g>
     </g>
     <g id="line2d_14">
      <g>
       <use style="stroke:#000000;stroke-width:0.5;" x="282.041465502" xlink:href="#m741efc42ff" y="43.2"/>
      </g>
     </g>
     <g id="text_6">
      <!-- Dec 2014 -->
      <g transform="translate(253.590215502 401.918125)scale(0.12 -0.12)">
       <use xlink:href="#DejaVuSans-44"/>
       <use x="77.001953125" xlink:href="#DejaVuSans-65"/>
       <use x="138.525390625" xlink:href="#DejaVuSans-63"/>
       <use x="193.505859375" xlink:href="#DejaVuSans-20"/>
       <use x="225.29296875" xlink:href="#DejaVuSans-32"/>
       <use x="288.916015625" xlink:href="#DejaVuSans-30"/>
       <use x="352.5390625" xlink:href="#DejaVuSans-31"/>
       <use x="416.162109375" xlink:href="#DejaVuSans-34"/>
      </g>
     </g>
    </g>
    <g id="xtick_7">
     <g id="line2d_15">
      <g>
       <use style="stroke:#000000;stroke-width:0.5;" x="323.198108259" xlink:href="#m93b0483c22" y="388.8"/>
      </g>
     </g>
     <g id="line2d_16">
      <g>
       <use style="stroke:#000000;stroke-width:0.5;" x="323.198108259" xlink:href="#m741efc42ff" y="43.2"/>
      </g>
     </g>
     <g id="text_7">
      <!-- Mar 2015 -->
      <defs>
       <path d="
M10.7969 72.9062
L49.5156 72.9062
L49.5156 64.5938
L19.8281 64.5938
L19.8281 46.7344
Q21.9688 47.4688 24.1094 47.8281
Q26.2656 48.1875 28.4219 48.1875
Q40.625 48.1875 47.75 41.5
Q54.8906 34.8125 54.8906 23.3906
Q54.8906 11.625 47.5625 5.09375
Q40.2344 -1.42188 26.9062 -1.42188
Q22.3125 -1.42188 17.5469 -0.640625
Q12.7969 0.140625 7.71875 1.70312
L7.71875 11.625
Q12.1094 9.23438 16.7969 8.0625
Q21.4844 6.89062 26.7031 6.89062
Q35.1562 6.89062 40.0781 11.3281
Q45.0156 15.7656 45.0156 23.3906
Q45.0156 31 40.0781 35.4375
Q35.1562 39.8906 26.7031 39.8906
Q22.75 39.8906 18.8125 39.0156
Q14.8906 38.1406 10.7969 36.2812
z
" id="DejaVuSans-35"/>
      </defs>
      <g transform="translate(295.224983259 401.918125)scale(0.12 -0.12)">
       <use xlink:href="#DejaVuSans-4d"/>
       <use x="86.279296875" xlink:href="#DejaVuSans-61"/>
       <use x="147.55859375" xlink:href="#DejaVuSans-72"/>
       <use x="188.671875" xlink:href="#DejaVuSans-20"/>
       <use x="220.458984375" xlink:href="#DejaVuSans-32"/>
       <use x="284.08203125" xlink:href="#DejaVuSans-30"/>
       <use x="347.705078125" xlink:href="#DejaVuSans-31"/>
       <use x="411.328125" xlink:href="#DejaVuSans-35"/>
      </g>
     </g>
    </g>
    <g id="xtick_8">
     <g id="line2d_17">
      <g>
       <use style="stroke:#000000;stroke-width:0.5;" x="365.269343077" xlink:href="#m93b0483c22" y="388.8"/>
      </g>
     </g>
     <g id="line2d_18">
      <g>
       <use style="stroke:#000000;stroke-width:0.5;" x="365.269343077" xlink:href="#m741efc42ff" y="43.2"/>
      </g>
     </g>
     <g id="text_8">
      <!-- Jun 2015 -->
      <g transform="translate(338.931218077 401.918125)scale(0.12 -0.12)">
       <use xlink:href="#DejaVuSans-4a"/>
       <use x="29.4921875" xlink:href="#DejaVuSans-75"/>
       <use x="92.87109375" xlink:href="#DejaVuSans-6e"/>
       <use x="156.25" xlink:href="#DejaVuSans-20"/>
       <use x="188.037109375" xlink:href="#DejaVuSans-32"/>
       <use x="251.66015625" xlink:href="#DejaVuSans-30"/>
       <use x="315.283203125" xlink:href="#DejaVuSans-31"/>
       <use x="378.90625" xlink:href="#DejaVuSans-35"/>
      </g>
     </g>
    </g>
    <g id="xtick_9">
     <g id="line2d_19">
      <g>
       <use style="stroke:#000000;stroke-width:0.5;" x="407.340577895" xlink:href="#m93b0483c22" y="388.8"/>
      </g>
     </g>
     <g id="line2d_20">
      <g>
       <use style="stroke:#000000;stroke-width:0.5;" x="407.340577895" xlink:href="#m741efc42ff" y="43.2"/>
      </g>
     </g>
     <g id="text_9">
      <!-- Sep 2015 -->
      <g transform="translate(379.377765395 401.918125)scale(0.12 -0.12)">
       <use xlink:href="#DejaVuSans-53"/>
       <use x="63.4765625" xlink:href="#DejaVuSans-65"/>
       <use x="125.0" xlink:href="#DejaVuSans-70"/>
       <use x="188.4765625" xlink:href="#DejaVuSans-20"/>
       <use x="220.263671875" xlink:href="#DejaVuSans-32"/>
       <use x="283.88671875" xlink:href="#DejaVuSans-30"/>
       <use x="347.509765625" xlink:href="#DejaVuSans-31"/>
       <use x="411.1328125" xlink:href="#DejaVuSans-35"/>
      </g>
     </g>
    </g>
    <g id="xtick_10">
     <g id="line2d_21">
      <g>
       <use style="stroke:#000000;stroke-width:0.5;" x="448.954516682" xlink:href="#m93b0483c22" y="388.8"/>
      </g>
     </g>
     <g id="line2d_22">
      <g>
       <use style="stroke:#000000;stroke-width:0.5;" x="448.954516682" xlink:href="#m741efc42ff" y="43.2"/>
      </g>
     </g>
     <g id="text_10">
      <!-- Dec 2015 -->
      <g transform="translate(420.690766682 401.918125)scale(0.12 -0.12)">
       <use xlink:href="#DejaVuSans-44"/>
       <use x="77.001953125" xlink:href="#DejaVuSans-65"/>
       <use x="138.525390625" xlink:href="#DejaVuSans-63"/>
       <use x="193.505859375" xlink:href="#DejaVuSans-20"/>
       <use x="225.29296875" xlink:href="#DejaVuSans-32"/>
       <use x="288.916015625" xlink:href="#DejaVuSans-30"/>
       <use x="352.5390625" xlink:href="#DejaVuSans-31"/>
       <use x="416.162109375" xlink:href="#DejaVuSans-35"/>
      </g>
     </g>
    </g>
    <g id="xtick_11">
     <g id="line2d_23">
      <g>
       <use style="stroke:#000000;stroke-width:0.5;" x="490.568455469" xlink:href="#m93b0483c22" y="388.8"/>
      </g>
     </g>
     <g id="line2d_24">
      <g>
       <use style="stroke:#000000;stroke-width:0.5;" x="490.568455469" xlink:href="#m741efc42ff" y="43.2"/>
      </g>
     </g>
     <g id="text_11">
      <!-- Mar 2016 -->
      <defs>
       <path d="
M33.0156 40.375
Q26.375 40.375 22.4844 35.8281
Q18.6094 31.2969 18.6094 23.3906
Q18.6094 15.5312 22.4844 10.9531
Q26.375 6.39062 33.0156 6.39062
Q39.6562 6.39062 43.5312 10.9531
Q47.4062 15.5312 47.4062 23.3906
Q47.4062 31.2969 43.5312 35.8281
Q39.6562 40.375 33.0156 40.375
M52.5938 71.2969
L52.5938 62.3125
Q48.875 64.0625 45.0938 64.9844
Q41.3125 65.9219 37.5938 65.9219
Q27.8281 65.9219 22.6719 59.3281
Q17.5312 52.7344 16.7969 39.4062
Q19.6719 43.6562 24.0156 45.9219
Q28.375 48.1875 33.5938 48.1875
Q44.5781 48.1875 50.9531 41.5156
Q57.3281 34.8594 57.3281 23.3906
Q57.3281 12.1562 50.6875 5.35938
Q44.0469 -1.42188 33.0156 -1.42188
Q20.3594 -1.42188 13.6719 8.26562
Q6.98438 17.9688 6.98438 36.375
Q6.98438 53.6562 15.1875 63.9375
Q23.3906 74.2188 37.2031 74.2188
Q40.9219 74.2188 44.7031 73.4844
Q48.4844 72.75 52.5938 71.2969" id="DejaVuSans-36"/>
      </defs>
      <g transform="translate(462.449080469 401.918125)scale(0.12 -0.12)">
       <use xlink:href="#DejaVuSans-4d"/>
       <use x="86.279296875" xlink:href="#DejaVuSans-61"/>
       <use x="147.55859375" xlink:href="#DejaVuSans-72"/>
       <use x="188.671875" xlink:href="#DejaVuSans-20"/>
       <use x="220.458984375" xlink:href="#DejaVuSans-32"/>
       <use x="284.08203125" xlink:href="#DejaVuSans-30"/>
       <use x="347.705078125" xlink:href="#DejaVuSans-31"/>
       <use x="411.328125" xlink:href="#DejaVuSans-36"/>
      </g>
     </g>
    </g>
   </g>
   <g id="matplotlib.axis_2">
    <g id="ytick_1">
     <g id="line2d_25">
      <defs>
       <path d="
M0 0
L4 0" id="m728421d6d4" style="stroke:#000000;stroke-width:0.5;"/>
      </defs>
      <g>
       <use style="stroke:#000000;stroke-width:0.5;" x="72.0" xlink:href="#m728421d6d4" y="388.8"/>
      </g>
     </g>
     <g id="line2d_26">
      <defs>
       <path d="
M0 0
L-4 0" id="mcb0005524f" style="stroke:#000000;stroke-width:0.5;"/>
      </defs>
      <g>
       <use style="stroke:#000000;stroke-width:0.5;" x="518.4" xlink:href="#mcb0005524f" y="388.8"/>
      </g>
     </g>
     <g id="text_12">
      <!-- 0 -->
      <g transform="translate(61.953125 392.11125)scale(0.12 -0.12)">
       <use xlink:href="#DejaVuSans-30"/>
      </g>
     </g>
    </g>
    <g id="ytick_2">
     <g id="line2d_27">
      <g>
       <use style="stroke:#000000;stroke-width:0.5;" x="72.0" xlink:href="#m728421d6d4" y="319.68"/>
      </g>
     </g>
     <g id="line2d_28">
      <g>
       <use style="stroke:#000000;stroke-width:0.5;" x="518.4" xlink:href="#mcb0005524f" y="319.68"/>
      </g>
     </g>
     <g id="text_13">
      <!-- 500 -->
      <g transform="translate(46.818125 322.99125)scale(0.12 -0.12)">
       <use xlink:href="#DejaVuSans-35"/>
       <use x="63.623046875" xlink:href="#DejaVuSans-30"/>
       <use x="127.24609375" xlink:href="#DejaVuSans-30"/>
      </g>
     </g>
    </g>
    <g id="ytick_3">
     <g id="line2d_29">
      <g>
       <use style="stroke:#000000;stroke-width:0.5;" x="72.0" xlink:href="#m728421d6d4" y="250.56"/>
      </g>
     </g>
     <g id="line2d_30">
      <g>
       <use style="stroke:#000000;stroke-width:0.5;" x="518.4" xlink:href="#mcb0005524f" y="250.56"/>
      </g>
     </g>
     <g id="text_14">
      <!-- 1000 -->
      <g transform="translate(39.575 253.87125)scale(0.12 -0.12)">
       <use xlink:href="#DejaVuSans-31"/>
       <use x="63.623046875" xlink:href="#DejaVuSans-30"/>
       <use x="127.24609375" xlink:href="#DejaVuSans-30"/>
       <use x="190.869140625" xlink:href="#DejaVuSans-30"/>
      </g>
     </g>
    </g>
    <g id="ytick_4">
     <g id="line2d_31">
      <g>
       <use style="stroke:#000000;stroke-width:0.5;" x="72.0" xlink:href="#m728421d6d4" y="181.44"/>
      </g>
     </g>
     <g id="line2d_32">
      <g>
       <use style="stroke:#000000;stroke-width:0.5;" x="518.4" xlink:href="#mcb0005524f" y="181.44"/>
      </g>
     </g>
     <g id="text_15">
      <!-- 1500 -->
      <g transform="translate(39.575 184.75125)scale(0.12 -0.12)">
       <use xlink:href="#DejaVuSans-31"/>
       <use x="63.623046875" xlink:href="#DejaVuSans-35"/>
       <use x="127.24609375" xlink:href="#DejaVuSans-30"/>
       <use x="190.869140625" xlink:href="#DejaVuSans-30"/>
      </g>
     </g>
    </g>
    <g id="ytick_5">
     <g id="line2d_33">
      <g>
       <use style="stroke:#000000;stroke-width:0.5;" x="72.0" xlink:href="#m728421d6d4" y="112.32"/>
      </g>
     </g>
     <g id="line2d_34">
      <g>
       <use style="stroke:#000000;stroke-width:0.5;" x="518.4" xlink:href="#mcb0005524f" y="112.32"/>
      </g>
     </g>
     <g id="text_16">
      <!-- 2000 -->
      <g transform="translate(39.13625 115.63125)scale(0.12 -0.12)">
       <use xlink:href="#DejaVuSans-32"/>
       <use x="63.623046875" xlink:href="#DejaVuSans-30"/>
       <use x="127.24609375" xlink:href="#DejaVuSans-30"/>
       <use x="190.869140625" xlink:href="#DejaVuSans-30"/>
      </g>
     </g>
    </g>
    <g id="ytick_6">
     <g id="line2d_35">
      <g>
       <use style="stroke:#000000;stroke-width:0.5;" x="72.0" xlink:href="#m728421d6d4" y="43.2"/>
      </g>
     </g>
     <g id="line2d_36">
      <g>
       <use style="stroke:#000000;stroke-width:0.5;" x="518.4" xlink:href="#mcb0005524f" y="43.2"/>
      </g>
     </g>
     <g id="text_17">
      <!-- 2500 -->
      <g transform="translate(39.13625 46.51125)scale(0.12 -0.12)">
       <use xlink:href="#DejaVuSans-32"/>
       <use x="63.623046875" xlink:href="#DejaVuSans-35"/>
       <use x="127.24609375" xlink:href="#DejaVuSans-30"/>
       <use x="190.869140625" xlink:href="#DejaVuSans-30"/>
      </g>
     </g>
    </g>
   </g>
   <g id="patch_3">
    <path d="
M72 43.2
L518.4 43.2" style="fill:none;stroke:#000000;"/>
   </g>
   <g id="patch_4">
    <path d="
M518.4 388.8
L518.4 43.2" style="fill:none;stroke:#000000;"/>
   </g>
   <g id="patch_5">
    <path d="
M72 388.8
L518.4 388.8" style="fill:none;stroke:#000000;"/>
   </g>
   <g id="patch_6">
    <path d="
M72 388.8
L72 43.2" style="fill:none;stroke:#000000;"/>
   </g>
  </g>
 </g>
 <defs>
  <clipPath id="p7ff5b81e1d">
   <rect height="345.6" width="446.4" x="72.0" y="43.2"/>
  </clipPath>
 </defs>
</svg>
