<?xml version="1.0" encoding="utf-8" standalone="no"?>
<!DOCTYPE svg PUBLIC "-//W3C//DTD SVG 1.1//EN"
  "http://www.w3.org/Graphics/SVG/1.1/DTD/svg11.dtd">
<!-- Created with matplotlib (http://matplotlib.org/) -->
<svg height="432pt" version="1.1" viewBox="0 0 576 432" width="576pt" xmlns="http://www.w3.org/2000/svg" xmlns:xlink="http://www.w3.org/1999/xlink">
 <defs>
  <style type="text/css">
*{stroke-linecap:butt;stroke-linejoin:round;}
  </style>
 </defs>
 <g id="figure_1">
  <g id="patch_1">
   <path d="
M0 432
L576 432
L576 0
L0 0
z
" style="fill:#ffffff;"/>
  </g>
  <g id="axes_1">
   <g id="patch_2">
    <path d="
M72 388.8
L518.4 388.8
L518.4 43.2
L72 43.2
z
" style="fill:#ffffff;"/>
   </g>
   <g id="line2d_1">
    <path clip-path="url(#p7ff5b81e1d)" d="
M72 43.2
L72.0034 349.969
L72.0034 349.969
L72.0034 349.969
L72.0043 339.192
L80.1105 336.237
L81.2736 338.126
L81.2825 316.65
L82.4258 312.463
L82.6422 310.403
L82.6486 308.714
L83.9764 317.542
L83.9786 303.255
L83.9786 303.255
L83.9786 303.255
L83.9879 330.007
L84.0812 326.769
L84.1507 329.989
L84.1791 329.068
L84.21 327.257
L84.2814 326.392
L84.282 326.694
L84.3423 328.691
L84.4103 331.658
L84.4242 328.763
L84.4242 328.763
L84.4381 327.955
L84.4381 327.955
L84.4381 327.955
L84.4576 329.962
L84.4965 328.132
L84.4965 328.132
L84.558 326.812
L84.6034 327.308
L84.6198 327.393
L84.6714 327.066
L84.6714 327.066
L84.6714 327.066
L84.6841 327.903
L84.7011 327.194
L84.7011 327.194
L84.7014 326.812
L84.7014 326.812
L84.7014 326.812
L84.7629 328.455
L84.8006 326.995
L84.8006 326.995
L84.8006 326.693
L84.8006 326.693
L84.8006 326.693
L84.8021 327.091
L84.8108 326.948
L84.8108 326.948
L84.8997 325.92
L84.9208 326.038
L84.9251 326.107
L84.9251 326.107
L84.9251 326.107
L84.9656 323.267
L84.9798 323.465
L85.3141 324.878
L85.316 324.554
L85.3265 325.303
L85.3818 324.786
L85.7242 325.381
L85.7242 325.199
L85.8101 323.421
L85.8342 324.296
L85.8518 322.269
L85.8917 322.588
L86.0866 322.623
L86.0873 322.594
L86.1679 321.237
L86.1895 321.649
L86.2377 322.783
L86.2578 321.671
L86.2578 321.671
L86.2931 320.662
L86.3144 320.927
L86.5384 320.903
L86.539 320.659
L86.539 320.659
L86.539 320.659
L86.5467 321.025
L86.5838 320.799
L86.5838 320.799
L86.6623 320.038
L86.7111 320.528
L86.7967 320.423
L86.8017 320.072
L86.9515 320.372
L86.9515 320.262
L87.0103 321.116
L87.0461 320.952
L87.1082 321.589
L87.1558 321.134
L87.195 320.732
L87.195 320.595
L87.195 320.595
L87.195 320.595
L87.2318 321.2
L87.5606 321.87
L87.576 321.62
L87.593 321.461
L87.593 321.461
L87.593 321.461
L87.6647 321.912
L87.6647 321.808
L87.7923 321.87
L87.7923 321.761
L87.7985 321.581
L87.8056 321.744
L87.9623 321.762
L87.9623 321.654
L87.9836 321.016
L88.0603 321.442
L88.0964 321.76
L88.2895 321.658
L88.2895 321.596
L88.2895 321.596
L88.2895 321.596
L88.2985 321.76
L88.4487 321.964
L88.5031 322.459
L88.5031 322.338
L88.9045 322.865
L88.9147 322.82
L88.9635 323.438
L88.9694 323.215
L89.0568 323.129
L89.0611 323.009
L89.4418 324.051
L89.7001 324.222
L89.7051 324.426
L89.7681 324.371
L90.0833 324.445
L90.193 324.537
L90.1933 324.506
L90.5023 325.393
L90.5326 325.25
L90.6052 325.296
L90.6071 325.242
L90.6395 325.003
L90.6395 325.003
L90.6395 325.003
L90.6537 325.376
L90.7097 325.034
L90.7097 325.034
L90.769 324.349
L91.0592 324.492
L91.0595 324.469
L91.0644 324.533
L91.0644 324.533
L91.0644 324.533
L91.1738 323.662
L91.2047 323.686
L91.2118 323.64
L91.4905 323.644
L91.5461 323.841
L91.8236 323.631
L91.8236 323.553
L91.8301 323.625
L91.8301 323.625
L92.0662 323.887
L92.0668 323.738
L92.0668 323.738
L92.0668 323.738
L92.1567 324.565
L92.2989 324.425
L92.4151 324.649
L92.4719 324.624
L92.5442 324.771
L92.5442 324.636
L92.5442 324.636
L92.5455 324.51
L92.56 324.561
L92.56 324.561
L92.5832 324.669
L92.5832 324.621
L92.5832 324.621
L92.5835 324.417
L92.5841 324.463
L92.8415 324.418
L92.8987 324.327
L93.0349 324.727
L93.0365 324.66
L93.2837 324.991
L93.3847 325.362
L93.3928 325.16
L93.7083 325.356
L93.7172 325.227
L93.8099 324.865
L93.817 324.906
L93.8767 325.392
L93.9063 325.287
L93.9709 325.363
L94.2422 325.413
L94.2438 325.306
L94.2737 324.914
L94.325 325.08
L94.6013 325.17
L94.706 325.621
L94.77 325.404
L94.787 325.226
L94.8778 325.336
L95.0935 325.349
L95.0957 325.278
L95.0957 325.148
L95.5416 325.513
L95.5431 325.446
L95.5431 325.133
L95.6321 325.228
L95.9322 325.033
L95.9683 324.721
L96.0264 324.735
L96.138 325
L96.1636 324.847
L96.5205 324.796
L96.5718 324.989
L96.5743 324.81
L97.238 325.241
L97.238 325.197
L97.2498 324.982
L97.4003 325.148
L97.4003 325.102
L97.7828 325.154
L97.7834 325.088
L97.7834 325.021
L97.7834 325.021
L97.7834 325.021
L97.8965 325.148
L98.2578 325.012
L98.2652 324.871
L98.2652 324.871
L98.2652 324.871
L98.3124 325.078
L98.3715 325.018
L98.4259 325.057
L98.4262 324.992
L98.4262 324.992
L98.4265 324.777
L98.5683 324.73
L98.5961 324.916
L98.6029 324.828
L98.8044 324.876
L98.8047 324.805
L99.144 324.663
L99.1443 324.585
L99.1443 324.585
L99.1443 324.585
L99.1471 324.809
L99.1699 324.589
L99.1699 324.589
L99.1712 324.44
L99.1999 324.47
L99.1999 324.47
L99.2629 324.663
L99.2667 324.512
L99.4548 324.368
L99.4604 324.195
L99.5778 324.277
L99.6616 324.515
L99.6875 324.455
L99.754 324.53
L99.7645 324.409
L99.8386 324.343
L99.9792 324.364
L100.088 324.572
L100.867 324.85
L100.909 324.281
L100.924 324.453
L101.749 324.703
L101.755 324.552
L101.866 324.138
L102.265 324.236
L102.265 324.219
L102.325 324.941
L102.326 324.618
L102.521 324.488
L102.522 324.51
L102.719 325.125
L103.034 325.101
L103.163 325.245
L103.165 325.104
L103.165 325.022
L103.165 325.022
L103.165 325.022
L103.189 325.355
L103.191 325.184
L103.414 325.206
L103.414 325.103
L103.422 325.085
L103.422 325.092
L103.422 325.092
L103.425 325.201
L103.425 325.137
L103.425 325.137
L103.426 324.287
L103.428 324.315
L103.719 324.543
L103.774 324.453
L103.774 324.406
L103.774 324.406
L103.774 324.406
L103.791 324.473
L103.799 324.452
L104.294 324.69
L104.752 324.882
L104.752 324.804
L104.798 324.615
L104.812 324.777
L104.967 324.716
L104.967 324.667
L104.971 324.715
L104.971 324.715
L104.973 324.72
L104.973 324.72
L104.973 324.72
L104.981 324.571
L105.013 324.588
L105.169 324.634
L105.484 324.511
L105.484 324.488
L105.484 324.488
L105.484 324.488
L105.484 324.538
L105.486 324.502
L105.776 324.375
L105.805 324.285
L106.474 324.41
L106.567 324.028
L106.777 324.024
L107.286 324.381
L107.995 324.552
L108.012 324.394
L108.013 324.355
L108.3 324.468
L108.405 324.822
L108.414 324.681
L108.507 324.683
L108.513 324.694
L108.988 324.705
L108.989 325.053
L108.99 324.85
L109.244 324.899
L109.253 324.795
L109.253 324.755
L109.253 324.755
L109.253 324.755
L109.389 324.836
L109.391 324.774
L109.391 324.704
L109.669 324.801
L109.669 324.725
L109.691 324.549
L109.731 324.367
L109.828 324.411
L109.834 324.287
L109.834 324.204
L109.858 324.238
L110.184 324.331
L110.185 324.278
L110.244 324.229
L110.728 324.232
L110.728 324.192
L110.91 324.055
L110.91 324.02
L111.177 324.036
L111.177 323.955
L111.551 323.861
L111.632 323.428
L111.646 323.475
L111.677 323.528
L111.677 323.474
L111.677 323.474
L111.678 323.443
L111.702 323.459
L111.702 323.459
L111.702 323.484
L111.702 323.484
L111.702 323.484
L111.702 323.404
L111.702 323.404
L111.702 323.404
L111.703 323.653
L111.742 323.641
L112.093 323.678
L112.093 323.6
L112.093 323.564
L112.1 323.593
L112.1 323.593
L112.146 323.691
L112.604 323.973
L112.605 324.062
L112.605 324.042
L113.379 324.315
L113.379 324.273
L113.503 324.318
L113.503 324.236
L113.503 324.199
L113.503 324.199
L113.503 324.199
L113.508 324.268
L113.508 324.263
L114.171 324.149
L114.271 323.983
L114.372 324.331
L114.373 324.303
L115.233 324.546
L115.275 324.748
L115.277 324.542
L115.277 324.542
L115.277 324.523
L115.68 324.551
L115.681 324.581
L116.912 324.748
L117.04 324.94
L117.041 324.841
L117.36 324.749
L117.377 324.716
L117.377 324.716
L117.377 324.716
L117.377 324.772
L117.806 324.651
L117.806 324.563
L117.806 324.563
L117.806 324.563
L117.819 324.663
L117.821 324.588
L117.821 324.588
L117.821 324.541
L117.871 324.551
L118.298 324.59
L118.298 324.552
L118.379 324.199
L118.385 324.304
L118.766 324.294
L118.766 324.259
L119.107 324.109
L119.267 324.4
L119.272 324.372
L119.724 324.473
L119.725 324.376
L119.725 324.342
L119.725 324.342
L119.725 324.342
L119.727 324.48
L119.728 324.439
L120.151 324.564
L120.153 324.724
L120.177 324.642
L120.61 324.703
L120.61 324.693
L120.979 324.696
L121.027 324.834
L121.029 324.775
L121.282 324.811
L121.282 324.708
L121.341 324.561
L121.402 324.572
L121.504 324.761
L121.504 324.748
L121.862 324.694
L121.945 324.406
L121.97 324.567
L122.327 324.615
L122.635 324.922
L122.791 324.878
L122.791 324.831
L122.852 324.624
L122.854 324.704
L123.178 324.596
L123.249 324.307
L123.289 324.358
L123.291 324.373
L123.293 324.362
L124.617 324.534
L124.618 324.695
L124.618 324.681
L124.952 324.698
L125.051 324.531
L125.053 324.557
L125.49 324.617
L125.511 324.791
L125.511 324.721
L125.953 324.575
L125.953 324.555
L126.388 324.66
L126.389 324.62
L126.544 324.514
L126.574 324.402
L127.019 324.268
L127.019 324.211
L127.022 324.248
L127.315 324.29
L127.633 324.37
L127.633 324.331
L127.893 324.333
L127.893 324.237
L127.893 324.074
L127.92 324.201
L127.92 324.201
L127.939 324.253
L127.961 324.189
L127.961 324.189
L128.009 324.087
L128.044 324.223
L128.136 324.357
L128.136 324.332
L128.181 324.275
L129.093 324.392
L129.094 324.214
L129.094 323.956
L129.144 324.035
L129.721 324.156
L129.721 324.09
L129.721 324.062
L129.764 324.065
L129.764 324.065
L129.938 324.08
L129.938 324.043
L129.939 323.867
L129.943 323.947
L130.279 324.023
L130.279 324.003
L130.389 323.948
L130.39 323.958
L130.391 323.984
L130.391 323.958
L131.124 324.271
L131.19 324.228
L131.19 324.174
L131.235 324.002
L131.313 324.017
L131.319 323.933
L131.655 323.819
L131.666 323.747
L131.754 323.781
L132.196 323.674
L132.214 323.597
L133.079 323.723
L133.085 323.572
L133.858 323.312
L133.865 323.403
L134.275 323.433
L134.275 323.417
L134.416 323.669
L134.852 323.622
L134.853 323.738
L134.865 323.96
L134.865 323.917
L135.165 323.86
L135.166 323.845
L135.166 323.826
L135.166 323.826
L135.166 323.826
L135.326 324.25
L135.329 324.201
L135.97 324.507
L135.983 324.48
L136.085 324.442
L136.485 324.564
L136.485 324.549
L136.493 324.551
L136.493 324.551
L136.498 324.567
L136.503 324.553
L137.435 324.6
L137.435 324.564
L137.486 324.451
L137.515 324.473
L137.557 324.518
L137.557 324.446
L137.557 324.446
L137.558 324.371
L137.563 324.419
L137.919 324.563
L137.986 324.59
L137.989 324.521
L137.989 324.521
L137.992 324.464
L138.213 324.351
L138.213 324.336
L138.213 324.336
L138.213 324.336
L138.245 324.43
L138.291 324.327
L138.291 324.327
L138.313 324.135
L138.415 324.323
L138.423 324.335
L138.423 324.335
L138.423 324.335
L138.445 324.156
L138.49 324.246
L138.663 324.327
L138.663 324.31
L138.684 324.421
L138.703 324.317
L138.703 324.317
L138.718 324.265
L138.718 324.265
L138.718 324.265
L138.805 324.398
L138.824 324.312
L138.869 324.356
L138.87 324.276
L138.87 324.276
L138.87 324.232
L138.87 324.232
L138.87 324.232
L138.897 324.326
L138.918 324.224
L138.918 324.224
L138.97 324.057
L138.981 324.066
L139.529 324.23
L139.566 324.1
L139.589 324.113
L139.644 324.217
L139.644 324.196
L140.453 324.301
L140.46 324.333
L140.463 324.311
L140.463 324.311
L140.463 324.289
L140.463 324.289
L140.463 324.289
L140.528 324.513
L140.574 324.398
L140.645 324.497
L141.046 324.639
L141.054 324.708
L141.054 324.64
L141.054 324.64
L141.058 324.576
L141.108 324.623
L141.108 324.623
L141.12 324.774
L141.335 324.875
L141.342 324.897
L141.343 324.884
L141.343 324.884
L141.343 324.864
L141.343 324.864
L141.343 324.864
L141.367 324.904
L141.368 324.859
L141.368 324.859
L141.443 324.759
L141.704 324.865
L141.704 324.853
L141.801 324.934
L141.803 324.864
L141.803 324.864
L141.897 324.59
L141.942 324.691
L142.006 324.604
L142.194 324.619
L142.194 324.6
L142.254 324.524
L142.292 324.585
L142.422 324.657
L142.449 324.684
L142.451 324.64
L142.451 324.64
L142.457 324.577
L142.784 324.462
L142.786 324.302
L142.871 324.379
L143.21 324.432
L143.21 324.398
L143.224 324.335
L143.312 324.382
L143.312 324.382
L143.331 324.503
L143.648 324.604
L143.774 324.659
L143.774 324.629
L143.796 324.642
L143.797 324.596
L143.797 324.596
L143.8 324.581
L143.8 324.581
L143.8 324.581
L143.801 324.598
L143.801 324.582
L143.801 324.582
L143.908 324.513
L143.915 324.518
L144.079 324.437
L144.277 324.732
L144.592 324.683
L144.593 324.64
L144.593 324.623
L144.597 324.637
L144.597 324.637
L144.614 324.692
L144.614 324.658
L145.308 324.807
L145.308 324.782
L145.347 324.753
L145.392 324.841
L145.513 324.932
L145.63 324.841
L147.143 324.849
L147.143 324.835
L147.197 324.755
L148.448 324.76
L148.686 324.655
L148.737 324.619
L148.886 324.681
L148.999 324.732
L148.999 324.724
L149.078 324.801
L149.093 324.718
L149.093 324.718
L149.144 324.675
L149.196 324.688
L149.798 324.482
L149.807 324.388
L149.901 324.409
L150.919 324.526
L151.237 324.688
L151.237 324.673
L151.254 324.651
L151.261 324.668
L151.734 324.675
L151.734 324.664
L151.735 324.583
L151.779 324.643
L152.239 324.797
L152.239 324.671
L152.239 324.606
L152.239 324.613
L152.668 324.484
L152.668 324.461
L152.916 324.353
L153.016 324.187
L153.332 324.218
L153.495 324.322
L153.845 324.314
L153.865 324.348
L153.877 324.315
L154.385 324.265
L154.385 324.246
L154.467 324.211
L155.325 324.222
L155.326 324.213
L155.326 324.203
L155.326 324.203
L155.326 324.203
L155.339 324.235
L155.339 324.226
L156.188 324.252
L156.188 324.213
L156.193 324.196
L156.193 324.196
L156.193 324.196
L156.239 324.26
L156.239 324.25
L156.582 324.243
L157.268 324.244
L157.268 324.234
L157.304 324.212
L157.341 324.266
L157.653 324.321
L157.658 324.299
L157.857 324.421
L157.993 324.456
L157.993 324.443
L157.995 324.407
L158.001 324.427
L158.001 324.427
L158.069 324.47
L158.231 324.426
L158.473 324.385
L158.671 324.427
L158.677 324.417
L158.698 324.397
L158.733 324.408
L158.733 324.408
L158.895 324.49
L159.512 324.372
L159.764 324.298
L160.661 324.415
L160.67 324.472
L160.707 324.423
L160.707 324.423
L160.749 324.445
L161.889 324.568
L162.005 324.596
L164.012 324.662
L164.17 324.695
L164.187 324.676
L164.187 324.676
L164.187 324.676
L164.286 324.623
L164.286 324.601
L164.314 324.553
L164.935 324.506
L164.981 324.397
L165.041 324.45
L165.106 324.423
L168.051 324.54
L168.43 324.669
L168.43 324.661
L169.203 324.712
L170.424 324.624
L170.544 324.671
L170.548 324.654
L171.308 324.773
L171.445 324.835
L171.795 324.704
L171.795 324.676
L173.104 324.725
L173.13 324.792
L173.155 324.768
L174.247 324.751
L174.247 324.734
L174.321 324.707
L174.344 324.709
L174.645 324.759
L174.835 324.68
L175.206 324.703
L175.211 324.686
L175.279 324.62
L175.789 324.604
L175.798 324.579
L176.161 324.501
L176.263 324.459
L176.652 324.413
L176.7 324.409
L177.028 324.396
L177.028 324.385
L177.028 324.376
L177.028 324.376
L177.028 324.376
L177.38 324.465
L177.533 324.489
L178.367 324.632
L178.488 324.737
L178.488 324.728
L179.781 324.896
L180.397 324.958
L180.397 324.953
L180.411 324.94
L180.411 324.94
L180.411 324.94
L180.555 324.938
L180.564 324.907
L183.674 324.731
L184.015 324.812
L184.015 324.794
L184.015 324.794
L184.015 324.794
L184.261 324.867
L186.53 324.91
L186.627 324.895
L186.831 324.956
L186.877 324.884
L187.756 324.973
L187.756 324.954
L188.036 324.945
L188.203 325.015
L188.212 324.994
L189.83 325.183
L190.01 325.219
L190.023 325.192
L190.072 325.13
L190.084 325.131
L191.596 325.147
L191.79 325.16
L193.074 325.161
L193.074 325.147
L193.185 325.136
L193.468 325.029
L193.575 325.018
L194.866 325.032
L194.866 325.018
L194.911 325.014
L201.047 325.15
L201.047 325.141
L201.153 325.133
L201.835 325.218
L202.057 325.241
L202.059 325.228
L203.35 325.305
L204.018 325.337
L204.018 325.301
L204.051 325.279
L204.083 325.307
L204.634 325.361
L204.634 325.353
L205.408 325.415
L205.408 325.401
L205.742 325.399
L206.641 325.423
L206.72 325.411
L207.341 325.288
L207.415 325.253
L210.794 325.311
L211.655 325.352
L211.655 325.344
L211.754 325.376
L211.755 325.389
L211.79 325.408
L211.799 325.403
L212.18 325.361
L212.859 325.397
L212.859 325.408
L212.912 325.433
L212.963 325.427
L213.307 325.406
L213.307 325.384
L213.325 325.342
L213.404 325.351
L215.8 325.446
L215.805 325.435
L215.837 325.442
L216.662 325.524
L216.707 325.539
L216.716 325.516
L218.507 325.513
L218.507 325.507
L222.215 325.603
L222.451 325.607
L222.451 325.6
L226.238 325.678
L226.238 325.666
L226.24 325.663
L226.24 325.663
L226.24 325.663
L226.331 325.687
L226.336 325.684
L226.655 325.734
L226.997 325.775
L231.36 325.939
L231.36 325.933
L231.423 325.924
L238.002 326.373
L238.252 326.394
L238.96 326.509
L238.96 326.515
L238.96 326.51
L238.96 326.51
L238.961 326.495
L238.961 326.506
L238.961 326.506
L239.89 326.637
L241.979 326.745
L242.378 326.769
L242.475 326.759
L242.707 326.753
L242.744 326.728
L242.759 326.734
L244.009 326.82
L244.009 326.816
L244.167 326.825
L245.428 326.88
L245.645 326.874
L245.645 326.866
L247.427 326.792
L247.439 326.821
L247.439 326.817
L251.439 326.928
L251.439 326.923
L255.592 327.093
L255.592 327.089
L255.592 327.089
L255.592 327.089
L255.898 327.125
L257.048 327.239
L257.247 327.207
L261.831 327.167
L262.475 327.246
L262.475 327.242
L262.888 327.167
L265.974 327.298
L265.986 327.312
L265.986 327.3
L265.986 327.3
L266.035 327.296
L266.035 327.296
L266.035 327.296
L266.262 327.305
L266.378 327.297
L266.593 327.316
L267.897 327.225
L267.897 327.216
L267.92 327.205
L267.92 327.205
L267.92 327.205
L268.042 327.217
L268.515 327.186
L268.848 327.236
L268.848 327.232
L270.879 327.181
L271.189 327.191
L271.924 327.243
L271.924 327.24
L272.543 327.179
L273.845 327.215
L274.151 327.252
L274.151 327.248
L275.634 327.32
L276.384 327.387
L276.384 327.374
L278.119 327.331
L278.119 327.316
L278.119 327.305
L285.048 327.502
L285.957 327.454
L285.957 327.447
L285.957 327.439
L285.989 327.444
L285.989 327.444
L286.314 327.477
L287.75 327.617
L288.186 327.616
L290.601 327.706
L291.463 327.756
L291.463 327.75
L291.51 327.754
L295.459 327.92
L295.936 327.946
L295.945 327.935
L295.955 327.935
L301.433 328.035
L301.731 328.031
L301.731 328.03
L305.558 328.145
L306.108 328.201
L306.108 328.199
L306.108 328.196
L306.119 328.198
L306.119 328.198
L306.232 328.205
L306.232 328.202
L307.311 328.253
L307.95 328.233
L307.95 328.227
L307.95 328.224
L309.109 328.266
L309.28 328.279
L311.542 328.354
L312.678 328.458
L313.559 328.5
L314.81 328.571
L314.81 328.567
L314.81 328.567
L314.81 328.567
L315.904 328.647
L315.904 328.644
L316.59 328.624
L316.868 328.651
L316.868 328.645
L330.055 328.958
L330.055 328.953
L330.347 328.966
L330.444 328.935
L331.084 328.989
L331.269 329.008
L331.951 329.079
L332.377 329.095
L332.442 329.05
L335.673 329.204
L335.673 329.201
L335.705 329.181
L335.705 329.181
L335.705 329.181
L336.006 329.229
L337.527 329.307
L338.064 329.299
L338.064 329.297
L338.064 329.294
L338.064 329.294
L338.064 329.294
L338.44 329.315
L340.28 329.402
L340.692 329.393
L341.309 329.433
L341.309 329.431
L341.309 329.431
L341.309 329.431
L341.777 329.448
L341.777 329.446
L346.389 329.601
L346.389 329.6
L346.389 329.6
L346.389 329.6
L346.723 329.626
L348.447 329.691
L348.642 329.721
L348.864 329.71
L348.864 329.708
L359.437 330.107
L359.502 330.141
L360.178 330.242
L360.178 330.241
L360.443 330.235
L368.16 330.288
L368.169 330.283
L368.183 330.285
L368.183 330.285
L368.661 330.314
L379.453 330.469
L379.576 330.478
L379.576 330.476
L384.828 330.576
L384.879 330.564
L384.888 330.565
L385.783 330.545
L385.783 330.541
L386.061 330.492
L386.654 330.563
L387.984 330.592
L387.984 330.59
L388.008 330.569
L388.049 330.57
L396.916 330.712
L397.834 330.687
L397.834 330.683
L411.503 330.772
L412.077 330.775
L416.75 330.85
L417.157 330.854
L417.157 330.852
L421.83 330.925
L430.006 331.13
L430.006 331.127
L430.006 331.125
L430.006 331.125
L430.006 331.125
L431.1 331.171
L431.1 331.17
L431.1 331.17
L431.1 331.17
L432.095 331.217
L432.095 331.213
L437.434 331.369
L437.434 331.367
L439.659 331.444
L439.659 331.441
L440.432 331.44
L441.618 331.444
L441.618 331.443
L441.631 331.44
L441.643 331.44
L441.643 331.44
L441.89 331.435
L446.593 331.482
L447.069 331.492
L447.069 331.49
L449.801 331.595
L449.844 331.577
L449.887 331.58
L464.91 332.081
L473.273 332.361
L473.928 332.384
L473.928 332.383
L477.76 332.517
L477.933 332.522
L491.214 332.886
L491.652 332.896
L491.652 332.894
L494.384 332.93
L497.944 333.033
L502.653 333.188
L503.308 333.191
L503.308 333.191
L514.309 333.516
L515.885 333.584
L515.885 333.583
L516.521 333.583
L517.535 333.623
L517.535 333.619
L517.535 333.617
L518.4 333.695
L518.4 333.695" style="fill:none;stroke:#ff0000;stroke-linecap:square;"/>
   </g>
   <g id="line2d_2">
    <path clip-path="url(#p7ff5b81e1d)" d="
M83.9789 384.781
L84.0373 386.169
L84.0861 386.425
L84.0861 386.425
L84.1084 384.411
L84.6037 386.168
L84.9019 386.427
L84.9514 385.917
L85.8289 386.381
L85.8367 385.599
L86.2578 385.424
L86.2931 385.186
L87.0103 385.463
L87.1073 385.203
L87.2256 385.036
L88.8989 385.461
L91.2056 385.757
L91.2056 385.653
L92.1122 385.592
L92.1122 385.493
L93.0349 385.516
L93.0352 385.332
L93.3118 385.24
L93.314 385.162
L94.241 385.267
L94.241 385.182
L96.053 385.118
L96.3805 384.997
L99.1746 385.194
L99.1999 385.128
L103.165 385.364
L103.183 385.265
L105.41 385.329
L105.41 385.274
L116.541 385.538
L118.831 385.592
L122.414 385.704
L125.049 385.651
L127.019 385.607
L127.019 385.576
L127.022 385.514
L133.954 385.367
L133.957 385.121
L134.452 384.986
L134.452 384.93
L135.324 384.816
L135.324 384.764
L139.225 384.746
L139.225 384.723
L141.533 384.84
L141.533 384.797
L142.813 384.861
L143.802 384.821
L143.802 384.801
L147.46 384.963
L148.037 384.898
L148.037 384.861
L148.128 384.834
L151.118 384.876
L151.118 384.859
L151.118 384.825
L155.261 384.749
L157.549 384.774
L157.634 384.749
L158.422 384.754
L159.716 384.734
L159.716 384.719
L161.634 384.704
L162.358 384.671
L165.041 384.728
L183.174 384.71
L188.838 384.73
L189.477 384.676
L191.141 384.605
L191.299 384.586
L193.524 384.539
L199.709 384.544
L210.391 384.636
L221.021 384.715
L226.229 384.701
L226.35 384.676
L232.028 384.597
L232.104 384.59
L236.482 384.542
L246.355 384.409
L246.355 384.404
L269.043 384.15
L271.162 384.126
L277.179 384.113
L277.247 384.1
L282.648 383.956
L282.74 383.944
L284.622 383.908
L290.318 383.875
L291.788 383.858
L300.386 383.824
L305.637 383.788
L305.702 383.775
L312.875 383.793
L312.875 383.789
L320.238 383.765
L350.941 383.72
L351.719 383.711
L355.756 383.666
L380.04 383.693
L404.365 383.712
L406.039 383.714
L420.056 383.724
L420.927 383.725
L442.508 383.776
L449.838 383.799
L518.4 384.005
L518.4 384.005" style="fill:none;stroke:#008000;stroke-linecap:square;"/>
   </g>
   <g id="matplotlib.axis_1">
    <g id="xtick_1">
     <g id="line2d_3">
      <defs>
       <path d="
M0 0
L0 -4" id="m93b0483c22" style="stroke:#000000;stroke-width:0.5;"/>
      </defs>
      <g>
       <use style="stroke:#000000;stroke-width:0.5;" x="112.595302063" xlink:href="#m93b0483c22" y="388.8"/>
      </g>
     </g>
     <g id="line2d_4">
      <defs>
       <path d="
M0 0
L0 4" id="m741efc42ff" style="stroke:#000000;stroke-width:0.5;"/>
      </defs>
      <g>
       <use style="stroke:#000000;stroke-width:0.5;" x="112.595302063" xlink:href="#m741efc42ff" y="43.2"/>
      </g>
     </g>
     <g id="text_1">
      <!-- Nov 2013 -->
      <defs>
       <path d="
M9.8125 72.9062
L23.0938 72.9062
L55.4219 11.9219
L55.4219 72.9062
L64.9844 72.9062
L64.9844 0
L51.7031 0
L19.3906 60.9844
L19.3906 0
L9.8125 0
z
" id="DejaVuSans-4e"/>
       <path d="
M30.6094 48.3906
Q23.3906 48.3906 19.1875 42.75
Q14.9844 37.1094 14.9844 27.2969
Q14.9844 17.4844 19.1562 11.8438
Q23.3438 6.20312 30.6094 6.20312
Q37.7969 6.20312 41.9844 11.8594
Q46.1875 17.5312 46.1875 27.2969
Q46.1875 37.0156 41.9844 42.7031
Q37.7969 48.3906 30.6094 48.3906
M30.6094 56
Q42.3281 56 49.0156 48.375
Q55.7188 40.7656 55.7188 27.2969
Q55.7188 13.875 49.0156 6.21875
Q42.3281 -1.42188 30.6094 -1.42188
Q18.8438 -1.42188 12.1719 6.21875
Q5.51562 13.875 5.51562 27.2969
Q5.51562 40.7656 12.1719 48.375
Q18.8438 56 30.6094 56" id="DejaVuSans-6f"/>
       <path d="
M40.5781 39.3125
Q47.6562 37.7969 51.625 33
Q55.6094 28.2188 55.6094 21.1875
Q55.6094 10.4062 48.1875 4.48438
Q40.7656 -1.42188 27.0938 -1.42188
Q22.5156 -1.42188 17.6562 -0.515625
Q12.7969 0.390625 7.625 2.20312
L7.625 11.7188
Q11.7188 9.32812 16.5938 8.10938
Q21.4844 6.89062 26.8125 6.89062
Q36.0781 6.89062 40.9375 10.5469
Q45.7969 14.2031 45.7969 21.1875
Q45.7969 27.6406 41.2812 31.2656
Q36.7656 34.9062 28.7188 34.9062
L20.2188 34.9062
L20.2188 43.0156
L29.1094 43.0156
Q36.375 43.0156 40.2344 45.9219
Q44.0938 48.8281 44.0938 54.2969
Q44.0938 59.9062 40.1094 62.9062
Q36.1406 65.9219 28.7188 65.9219
Q24.6562 65.9219 20.0156 65.0312
Q15.375 64.1562 9.8125 62.3125
L9.8125 71.0938
Q15.4375 72.6562 20.3438 73.4375
Q25.25 74.2188 29.5938 74.2188
Q40.8281 74.2188 47.3594 69.1094
Q53.9062 64.0156 53.9062 55.3281
Q53.9062 49.2656 50.4375 45.0938
Q46.9688 40.9219 40.5781 39.3125" id="DejaVuSans-33"/>
       <path d="
M12.4062 8.29688
L28.5156 8.29688
L28.5156 63.9219
L10.9844 60.4062
L10.9844 69.3906
L28.4219 72.9062
L38.2812 72.9062
L38.2812 8.29688
L54.3906 8.29688
L54.3906 0
L12.4062 0
z
" id="DejaVuSans-31"/>
       <path d="
M31.7812 66.4062
Q24.1719 66.4062 20.3281 58.9062
Q16.5 51.4219 16.5 36.375
Q16.5 21.3906 20.3281 13.8906
Q24.1719 6.39062 31.7812 6.39062
Q39.4531 6.39062 43.2812 13.8906
Q47.125 21.3906 47.125 36.375
Q47.125 51.4219 43.2812 58.9062
Q39.4531 66.4062 31.7812 66.4062
M31.7812 74.2188
Q44.0469 74.2188 50.5156 64.5156
Q56.9844 54.8281 56.9844 36.375
Q56.9844 17.9688 50.5156 8.26562
Q44.0469 -1.42188 31.7812 -1.42188
Q19.5312 -1.42188 13.0625 8.26562
Q6.59375 17.9688 6.59375 36.375
Q6.59375 54.8281 13.0625 64.5156
Q19.5312 74.2188 31.7812 74.2188" id="DejaVuSans-30"/>
       <path id="DejaVuSans-20"/>
       <path d="
M19.1875 8.29688
L53.6094 8.29688
L53.6094 0
L7.32812 0
L7.32812 8.29688
Q12.9375 14.1094 22.625 23.8906
Q32.3281 33.6875 34.8125 36.5312
Q39.5469 41.8438 41.4219 45.5312
Q43.3125 49.2188 43.3125 52.7812
Q43.3125 58.5938 39.2344 62.25
Q35.1562 65.9219 28.6094 65.9219
Q23.9688 65.9219 18.8125 64.3125
Q13.6719 62.7031 7.8125 59.4219
L7.8125 69.3906
Q13.7656 71.7812 18.9375 73
Q24.125 74.2188 28.4219 74.2188
Q39.75 74.2188 46.4844 68.5469
Q53.2188 62.8906 53.2188 53.4219
Q53.2188 48.9219 51.5312 44.8906
Q49.8594 40.875 45.4062 35.4062
Q44.1875 33.9844 37.6406 27.2188
Q31.1094 20.4531 19.1875 8.29688" id="DejaVuSans-32"/>
       <path d="
M2.98438 54.6875
L12.5 54.6875
L29.5938 8.79688
L46.6875 54.6875
L56.2031 54.6875
L35.6875 0
L23.4844 0
z
" id="DejaVuSans-76"/>
      </defs>
      <g transform="translate(84.1881145626 401.918125)scale(0.12 -0.12)">
       <use xlink:href="#DejaVuSans-4e"/>
       <use x="74.8046875" xlink:href="#DejaVuSans-6f"/>
       <use x="135.986328125" xlink:href="#DejaVuSans-76"/>
       <use x="195.166015625" xlink:href="#DejaVuSans-20"/>
       <use x="226.953125" xlink:href="#DejaVuSans-32"/>
       <use x="290.576171875" xlink:href="#DejaVuSans-30"/>
       <use x="354.19921875" xlink:href="#DejaVuSans-31"/>
       <use x="417.822265625" xlink:href="#DejaVuSans-33"/>
      </g>
     </g>
    </g>
    <g id="xtick_2">
     <g id="line2d_5">
      <g>
       <use style="stroke:#000000;stroke-width:0.5;" x="153.532364322" xlink:href="#m93b0483c22" y="388.8"/>
      </g>
     </g>
     <g id="line2d_6">
      <g>
       <use style="stroke:#000000;stroke-width:0.5;" x="153.532364322" xlink:href="#m741efc42ff" y="43.2"/>
      </g>
     </g>
     <g id="text_2">
      <!-- Feb 2014 -->
      <defs>
       <path d="
M9.8125 72.9062
L51.7031 72.9062
L51.7031 64.5938
L19.6719 64.5938
L19.6719 43.1094
L48.5781 43.1094
L48.5781 34.8125
L19.6719 34.8125
L19.6719 0
L9.8125 0
z
" id="DejaVuSans-46"/>
       <path d="
M56.2031 29.5938
L56.2031 25.2031
L14.8906 25.2031
Q15.4844 15.9219 20.4844 11.0625
Q25.4844 6.20312 34.4219 6.20312
Q39.5938 6.20312 44.4531 7.46875
Q49.3125 8.73438 54.1094 11.2812
L54.1094 2.78125
Q49.2656 0.734375 44.1875 -0.34375
Q39.1094 -1.42188 33.8906 -1.42188
Q20.7969 -1.42188 13.1562 6.1875
Q5.51562 13.8125 5.51562 26.8125
Q5.51562 40.2344 12.7656 48.1094
Q20.0156 56 32.3281 56
Q43.3594 56 49.7812 48.8906
Q56.2031 41.7969 56.2031 29.5938
M47.2188 32.2344
Q47.125 39.5938 43.0938 43.9844
Q39.0625 48.3906 32.4219 48.3906
Q24.9062 48.3906 20.3906 44.1406
Q15.875 39.8906 15.1875 32.1719
z
" id="DejaVuSans-65"/>
       <path d="
M48.6875 27.2969
Q48.6875 37.2031 44.6094 42.8438
Q40.5312 48.4844 33.4062 48.4844
Q26.2656 48.4844 22.1875 42.8438
Q18.1094 37.2031 18.1094 27.2969
Q18.1094 17.3906 22.1875 11.75
Q26.2656 6.10938 33.4062 6.10938
Q40.5312 6.10938 44.6094 11.75
Q48.6875 17.3906 48.6875 27.2969
M18.1094 46.3906
Q20.9531 51.2656 25.2656 53.625
Q29.5938 56 35.5938 56
Q45.5625 56 51.7812 48.0938
Q58.0156 40.1875 58.0156 27.2969
Q58.0156 14.4062 51.7812 6.48438
Q45.5625 -1.42188 35.5938 -1.42188
Q29.5938 -1.42188 25.2656 0.953125
Q20.9531 3.32812 18.1094 8.20312
L18.1094 0
L9.07812 0
L9.07812 75.9844
L18.1094 75.9844
z
" id="DejaVuSans-62"/>
       <path d="
M37.7969 64.3125
L12.8906 25.3906
L37.7969 25.3906
z

M35.2031 72.9062
L47.6094 72.9062
L47.6094 25.3906
L58.0156 25.3906
L58.0156 17.1875
L47.6094 17.1875
L47.6094 0
L37.7969 0
L37.7969 17.1875
L4.89062 17.1875
L4.89062 26.7031
z
" id="DejaVuSans-34"/>
      </defs>
      <g transform="translate(126.070176822 401.918125)scale(0.12 -0.12)">
       <use xlink:href="#DejaVuSans-46"/>
       <use x="52.01953125" xlink:href="#DejaVuSans-65"/>
       <use x="113.54296875" xlink:href="#DejaVuSans-62"/>
       <use x="177.01953125" xlink:href="#DejaVuSans-20"/>
       <use x="208.806640625" xlink:href="#DejaVuSans-32"/>
       <use x="272.4296875" xlink:href="#DejaVuSans-30"/>
       <use x="336.052734375" xlink:href="#DejaVuSans-31"/>
       <use x="399.67578125" xlink:href="#DejaVuSans-34"/>
      </g>
     </g>
    </g>
    <g id="xtick_3">
     <g id="line2d_7">
      <g>
       <use style="stroke:#000000;stroke-width:0.5;" x="193.134522377" xlink:href="#m93b0483c22" y="388.8"/>
      </g>
     </g>
     <g id="line2d_8">
      <g>
       <use style="stroke:#000000;stroke-width:0.5;" x="193.134522377" xlink:href="#m741efc42ff" y="43.2"/>
      </g>
     </g>
     <g id="text_3">
      <!-- May 2014 -->
      <defs>
       <path d="
M9.8125 72.9062
L24.5156 72.9062
L43.1094 23.2969
L61.8125 72.9062
L76.5156 72.9062
L76.5156 0
L66.8906 0
L66.8906 64.0156
L48.0938 14.0156
L38.1875 14.0156
L19.3906 64.0156
L19.3906 0
L9.8125 0
z
" id="DejaVuSans-4d"/>
       <path d="
M32.1719 -5.07812
Q28.375 -14.8438 24.75 -17.8125
Q21.1406 -20.7969 15.0938 -20.7969
L7.90625 -20.7969
L7.90625 -13.2812
L13.1875 -13.2812
Q16.8906 -13.2812 18.9375 -11.5156
Q21 -9.76562 23.4844 -3.21875
L25.0938 0.875
L2.98438 54.6875
L12.5 54.6875
L29.5938 11.9219
L46.6875 54.6875
L56.2031 54.6875
z
" id="DejaVuSans-79"/>
       <path d="
M34.2812 27.4844
Q23.3906 27.4844 19.1875 25
Q14.9844 22.5156 14.9844 16.5
Q14.9844 11.7188 18.1406 8.90625
Q21.2969 6.10938 26.7031 6.10938
Q34.1875 6.10938 38.7031 11.4062
Q43.2188 16.7031 43.2188 25.4844
L43.2188 27.4844
z

M52.2031 31.2031
L52.2031 0
L43.2188 0
L43.2188 8.29688
Q40.1406 3.32812 35.5469 0.953125
Q30.9531 -1.42188 24.3125 -1.42188
Q15.9219 -1.42188 10.9531 3.29688
Q6 8.01562 6 15.9219
Q6 25.1406 12.1719 29.8281
Q18.3594 34.5156 30.6094 34.5156
L43.2188 34.5156
L43.2188 35.4062
Q43.2188 41.6094 39.1406 45
Q35.0625 48.3906 27.6875 48.3906
Q23 48.3906 18.5469 47.2656
Q14.1094 46.1406 10.0156 43.8906
L10.0156 52.2031
Q14.9375 54.1094 19.5781 55.0469
Q24.2188 56 28.6094 56
Q40.4844 56 46.3438 49.8438
Q52.2031 43.7031 52.2031 31.2031" id="DejaVuSans-61"/>
      </defs>
      <g transform="translate(163.889209877 401.918125)scale(0.12 -0.12)">
       <use xlink:href="#DejaVuSans-4d"/>
       <use x="86.279296875" xlink:href="#DejaVuSans-61"/>
       <use x="147.55859375" xlink:href="#DejaVuSans-79"/>
       <use x="206.73828125" xlink:href="#DejaVuSans-20"/>
       <use x="238.525390625" xlink:href="#DejaVuSans-32"/>
       <use x="302.1484375" xlink:href="#DejaVuSans-30"/>
       <use x="365.771484375" xlink:href="#DejaVuSans-31"/>
       <use x="429.39453125" xlink:href="#DejaVuSans-34"/>
      </g>
     </g>
    </g>
    <g id="xtick_4">
     <g id="line2d_9">
      <g>
       <use style="stroke:#000000;stroke-width:0.5;" x="234.071584637" xlink:href="#m93b0483c22" y="388.8"/>
      </g>
     </g>
     <g id="line2d_10">
      <g>
       <use style="stroke:#000000;stroke-width:0.5;" x="234.071584637" xlink:href="#m741efc42ff" y="43.2"/>
      </g>
     </g>
     <g id="text_4">
      <!-- Aug 2014 -->
      <defs>
       <path d="
M8.5 21.5781
L8.5 54.6875
L17.4844 54.6875
L17.4844 21.9219
Q17.4844 14.1562 20.5 10.2656
Q23.5312 6.39062 29.5938 6.39062
Q36.8594 6.39062 41.0781 11.0312
Q45.3125 15.6719 45.3125 23.6875
L45.3125 54.6875
L54.2969 54.6875
L54.2969 0
L45.3125 0
L45.3125 8.40625
Q42.0469 3.42188 37.7188 1
Q33.4062 -1.42188 27.6875 -1.42188
Q18.2656 -1.42188 13.375 4.4375
Q8.5 10.2969 8.5 21.5781
M31.1094 56
z
" id="DejaVuSans-75"/>
       <path d="
M45.4062 27.9844
Q45.4062 37.75 41.375 43.1094
Q37.3594 48.4844 30.0781 48.4844
Q22.8594 48.4844 18.8281 43.1094
Q14.7969 37.75 14.7969 27.9844
Q14.7969 18.2656 18.8281 12.8906
Q22.8594 7.51562 30.0781 7.51562
Q37.3594 7.51562 41.375 12.8906
Q45.4062 18.2656 45.4062 27.9844
M54.3906 6.78125
Q54.3906 -7.17188 48.1875 -13.9844
Q42 -20.7969 29.2031 -20.7969
Q24.4688 -20.7969 20.2656 -20.0938
Q16.0625 -19.3906 12.1094 -17.9219
L12.1094 -9.1875
Q16.0625 -11.3281 19.9219 -12.3438
Q23.7812 -13.375 27.7812 -13.375
Q36.625 -13.375 41.0156 -8.76562
Q45.4062 -4.15625 45.4062 5.17188
L45.4062 9.625
Q42.625 4.78125 38.2812 2.39062
Q33.9375 0 27.875 0
Q17.8281 0 11.6719 7.65625
Q5.51562 15.3281 5.51562 27.9844
Q5.51562 40.6719 11.6719 48.3281
Q17.8281 56 27.875 56
Q33.9375 56 38.2812 53.6094
Q42.625 51.2188 45.4062 46.3906
L45.4062 54.6875
L54.3906 54.6875
z
" id="DejaVuSans-67"/>
       <path d="
M34.1875 63.1875
L20.7969 26.9062
L47.6094 26.9062
z

M28.6094 72.9062
L39.7969 72.9062
L67.5781 0
L57.3281 0
L50.6875 18.7031
L17.8281 18.7031
L11.1875 0
L0.78125 0
z
" id="DejaVuSans-41"/>
      </defs>
      <g transform="translate(205.515334637 401.918125)scale(0.12 -0.12)">
       <use xlink:href="#DejaVuSans-41"/>
       <use x="68.408203125" xlink:href="#DejaVuSans-75"/>
       <use x="131.787109375" xlink:href="#DejaVuSans-67"/>
       <use x="195.263671875" xlink:href="#DejaVuSans-20"/>
       <use x="227.05078125" xlink:href="#DejaVuSans-32"/>
       <use x="290.673828125" xlink:href="#DejaVuSans-30"/>
       <use x="354.296875" xlink:href="#DejaVuSans-31"/>
       <use x="417.919921875" xlink:href="#DejaVuSans-34"/>
      </g>
     </g>
    </g>
    <g id="xtick_5">
     <g id="line2d_11">
      <g>
       <use style="stroke:#000000;stroke-width:0.5;" x="275.008646896" xlink:href="#m93b0483c22" y="388.8"/>
      </g>
     </g>
     <g id="line2d_12">
      <g>
       <use style="stroke:#000000;stroke-width:0.5;" x="275.008646896" xlink:href="#m741efc42ff" y="43.2"/>
      </g>
     </g>
     <g id="text_5">
      <!-- Nov 2014 -->
      <g transform="translate(246.457084396 401.918125)scale(0.12 -0.12)">
       <use xlink:href="#DejaVuSans-4e"/>
       <use x="74.8046875" xlink:href="#DejaVuSans-6f"/>
       <use x="135.986328125" xlink:href="#DejaVuSans-76"/>
       <use x="195.166015625" xlink:href="#DejaVuSans-20"/>
       <use x="226.953125" xlink:href="#DejaVuSans-32"/>
       <use x="290.576171875" xlink:href="#DejaVuSans-30"/>
       <use x="354.19921875" xlink:href="#DejaVuSans-31"/>
       <use x="417.822265625" xlink:href="#DejaVuSans-34"/>
      </g>
     </g>
    </g>
    <g id="xtick_6">
     <g id="line2d_13">
      <g>
       <use style="stroke:#000000;stroke-width:0.5;" x="315.945709155" xlink:href="#m93b0483c22" y="388.8"/>
      </g>
     </g>
     <g id="line2d_14">
      <g>
       <use style="stroke:#000000;stroke-width:0.5;" x="315.945709155" xlink:href="#m741efc42ff" y="43.2"/>
      </g>
     </g>
     <g id="text_6">
      <!-- Feb 2015 -->
      <defs>
       <path d="
M10.7969 72.9062
L49.5156 72.9062
L49.5156 64.5938
L19.8281 64.5938
L19.8281 46.7344
Q21.9688 47.4688 24.1094 47.8281
Q26.2656 48.1875 28.4219 48.1875
Q40.625 48.1875 47.75 41.5
Q54.8906 34.8125 54.8906 23.3906
Q54.8906 11.625 47.5625 5.09375
Q40.2344 -1.42188 26.9062 -1.42188
Q22.3125 -1.42188 17.5469 -0.640625
Q12.7969 0.140625 7.71875 1.70312
L7.71875 11.625
Q12.1094 9.23438 16.7969 8.0625
Q21.4844 6.89062 26.7031 6.89062
Q35.1562 6.89062 40.0781 11.3281
Q45.0156 15.7656 45.0156 23.3906
Q45.0156 31 40.0781 35.4375
Q35.1562 39.8906 26.7031 39.8906
Q22.75 39.8906 18.8125 39.0156
Q14.8906 38.1406 10.7969 36.2812
z
" id="DejaVuSans-35"/>
      </defs>
      <g transform="translate(288.671021655 401.918125)scale(0.12 -0.12)">
       <use xlink:href="#DejaVuSans-46"/>
       <use x="52.01953125" xlink:href="#DejaVuSans-65"/>
       <use x="113.54296875" xlink:href="#DejaVuSans-62"/>
       <use x="177.01953125" xlink:href="#DejaVuSans-20"/>
       <use x="208.806640625" xlink:href="#DejaVuSans-32"/>
       <use x="272.4296875" xlink:href="#DejaVuSans-30"/>
       <use x="336.052734375" xlink:href="#DejaVuSans-31"/>
       <use x="399.67578125" xlink:href="#DejaVuSans-35"/>
      </g>
     </g>
    </g>
    <g id="xtick_7">
     <g id="line2d_15">
      <g>
       <use style="stroke:#000000;stroke-width:0.5;" x="355.547867211" xlink:href="#m93b0483c22" y="388.8"/>
      </g>
     </g>
     <g id="line2d_16">
      <g>
       <use style="stroke:#000000;stroke-width:0.5;" x="355.547867211" xlink:href="#m741efc42ff" y="43.2"/>
      </g>
     </g>
     <g id="text_7">
      <!-- May 2015 -->
      <g transform="translate(326.490054711 401.918125)scale(0.12 -0.12)">
       <use xlink:href="#DejaVuSans-4d"/>
       <use x="86.279296875" xlink:href="#DejaVuSans-61"/>
       <use x="147.55859375" xlink:href="#DejaVuSans-79"/>
       <use x="206.73828125" xlink:href="#DejaVuSans-20"/>
       <use x="238.525390625" xlink:href="#DejaVuSans-32"/>
       <use x="302.1484375" xlink:href="#DejaVuSans-30"/>
       <use x="365.771484375" xlink:href="#DejaVuSans-31"/>
       <use x="429.39453125" xlink:href="#DejaVuSans-35"/>
      </g>
     </g>
    </g>
    <g id="xtick_8">
     <g id="line2d_17">
      <g>
       <use style="stroke:#000000;stroke-width:0.5;" x="396.48492947" xlink:href="#m93b0483c22" y="388.8"/>
      </g>
     </g>
     <g id="line2d_18">
      <g>
       <use style="stroke:#000000;stroke-width:0.5;" x="396.48492947" xlink:href="#m741efc42ff" y="43.2"/>
      </g>
     </g>
     <g id="text_8">
      <!-- Aug 2015 -->
      <g transform="translate(368.11617947 401.918125)scale(0.12 -0.12)">
       <use xlink:href="#DejaVuSans-41"/>
       <use x="68.408203125" xlink:href="#DejaVuSans-75"/>
       <use x="131.787109375" xlink:href="#DejaVuSans-67"/>
       <use x="195.263671875" xlink:href="#DejaVuSans-20"/>
       <use x="227.05078125" xlink:href="#DejaVuSans-32"/>
       <use x="290.673828125" xlink:href="#DejaVuSans-30"/>
       <use x="354.296875" xlink:href="#DejaVuSans-31"/>
       <use x="417.919921875" xlink:href="#DejaVuSans-35"/>
      </g>
     </g>
    </g>
    <g id="xtick_9">
     <g id="line2d_19">
      <g>
       <use style="stroke:#000000;stroke-width:0.5;" x="437.421991729" xlink:href="#m93b0483c22" y="388.8"/>
      </g>
     </g>
     <g id="line2d_20">
      <g>
       <use style="stroke:#000000;stroke-width:0.5;" x="437.421991729" xlink:href="#m741efc42ff" y="43.2"/>
      </g>
     </g>
     <g id="text_9">
      <!-- Nov 2015 -->
      <g transform="translate(409.057929229 401.918125)scale(0.12 -0.12)">
       <use xlink:href="#DejaVuSans-4e"/>
       <use x="74.8046875" xlink:href="#DejaVuSans-6f"/>
       <use x="135.986328125" xlink:href="#DejaVuSans-76"/>
       <use x="195.166015625" xlink:href="#DejaVuSans-20"/>
       <use x="226.953125" xlink:href="#DejaVuSans-32"/>
       <use x="290.576171875" xlink:href="#DejaVuSans-30"/>
       <use x="354.19921875" xlink:href="#DejaVuSans-31"/>
       <use x="417.822265625" xlink:href="#DejaVuSans-35"/>
      </g>
     </g>
    </g>
    <g id="xtick_10">
     <g id="line2d_21">
      <g>
       <use style="stroke:#000000;stroke-width:0.5;" x="478.359053989" xlink:href="#m93b0483c22" y="388.8"/>
      </g>
     </g>
     <g id="line2d_22">
      <g>
       <use style="stroke:#000000;stroke-width:0.5;" x="478.359053989" xlink:href="#m741efc42ff" y="43.2"/>
      </g>
     </g>
     <g id="text_10">
      <!-- Feb 2016 -->
      <defs>
       <path d="
M33.0156 40.375
Q26.375 40.375 22.4844 35.8281
Q18.6094 31.2969 18.6094 23.3906
Q18.6094 15.5312 22.4844 10.9531
Q26.375 6.39062 33.0156 6.39062
Q39.6562 6.39062 43.5312 10.9531
Q47.4062 15.5312 47.4062 23.3906
Q47.4062 31.2969 43.5312 35.8281
Q39.6562 40.375 33.0156 40.375
M52.5938 71.2969
L52.5938 62.3125
Q48.875 64.0625 45.0938 64.9844
Q41.3125 65.9219 37.5938 65.9219
Q27.8281 65.9219 22.6719 59.3281
Q17.5312 52.7344 16.7969 39.4062
Q19.6719 43.6562 24.0156 45.9219
Q28.375 48.1875 33.5938 48.1875
Q44.5781 48.1875 50.9531 41.5156
Q57.3281 34.8594 57.3281 23.3906
Q57.3281 12.1562 50.6875 5.35938
Q44.0469 -1.42188 33.0156 -1.42188
Q20.3594 -1.42188 13.6719 8.26562
Q6.98438 17.9688 6.98438 36.375
Q6.98438 53.6562 15.1875 63.9375
Q23.3906 74.2188 37.2031 74.2188
Q40.9219 74.2188 44.7031 73.4844
Q48.4844 72.75 52.5938 71.2969" id="DejaVuSans-36"/>
      </defs>
      <g transform="translate(450.938116489 401.918125)scale(0.12 -0.12)">
       <use xlink:href="#DejaVuSans-46"/>
       <use x="52.01953125" xlink:href="#DejaVuSans-65"/>
       <use x="113.54296875" xlink:href="#DejaVuSans-62"/>
       <use x="177.01953125" xlink:href="#DejaVuSans-20"/>
       <use x="208.806640625" xlink:href="#DejaVuSans-32"/>
       <use x="272.4296875" xlink:href="#DejaVuSans-30"/>
       <use x="336.052734375" xlink:href="#DejaVuSans-31"/>
       <use x="399.67578125" xlink:href="#DejaVuSans-36"/>
      </g>
     </g>
    </g>
   </g>
   <g id="matplotlib.axis_2">
    <g id="ytick_1">
     <g id="line2d_23">
      <defs>
       <path d="
M0 0
L4 0" id="m728421d6d4" style="stroke:#000000;stroke-width:0.5;"/>
      </defs>
      <g>
       <use style="stroke:#000000;stroke-width:0.5;" x="72.0" xlink:href="#m728421d6d4" y="388.8"/>
      </g>
     </g>
     <g id="line2d_24">
      <defs>
       <path d="
M0 0
L-4 0" id="mcb0005524f" style="stroke:#000000;stroke-width:0.5;"/>
      </defs>
      <g>
       <use style="stroke:#000000;stroke-width:0.5;" x="518.4" xlink:href="#mcb0005524f" y="388.8"/>
      </g>
     </g>
     <g id="text_11">
      <!-- 0 -->
      <g transform="translate(61.953125 392.11125)scale(0.12 -0.12)">
       <use xlink:href="#DejaVuSans-30"/>
      </g>
     </g>
    </g>
    <g id="ytick_2">
     <g id="line2d_25">
      <g>
       <use style="stroke:#000000;stroke-width:0.5;" x="72.0" xlink:href="#m728421d6d4" y="319.68"/>
      </g>
     </g>
     <g id="line2d_26">
      <g>
       <use style="stroke:#000000;stroke-width:0.5;" x="518.4" xlink:href="#mcb0005524f" y="319.68"/>
      </g>
     </g>
     <g id="text_12">
      <!-- 20000 -->
      <g transform="translate(31.50125 322.99125)scale(0.12 -0.12)">
       <use xlink:href="#DejaVuSans-32"/>
       <use x="63.623046875" xlink:href="#DejaVuSans-30"/>
       <use x="127.24609375" xlink:href="#DejaVuSans-30"/>
       <use x="190.869140625" xlink:href="#DejaVuSans-30"/>
       <use x="254.4921875" xlink:href="#DejaVuSans-30"/>
      </g>
     </g>
    </g>
    <g id="ytick_3">
     <g id="line2d_27">
      <g>
       <use style="stroke:#000000;stroke-width:0.5;" x="72.0" xlink:href="#m728421d6d4" y="250.56"/>
      </g>
     </g>
     <g id="line2d_28">
      <g>
       <use style="stroke:#000000;stroke-width:0.5;" x="518.4" xlink:href="#mcb0005524f" y="250.56"/>
      </g>
     </g>
     <g id="text_13">
      <!-- 40000 -->
      <g transform="translate(31.20875 253.87125)scale(0.12 -0.12)">
       <use xlink:href="#DejaVuSans-34"/>
       <use x="63.623046875" xlink:href="#DejaVuSans-30"/>
       <use x="127.24609375" xlink:href="#DejaVuSans-30"/>
       <use x="190.869140625" xlink:href="#DejaVuSans-30"/>
       <use x="254.4921875" xlink:href="#DejaVuSans-30"/>
      </g>
     </g>
    </g>
    <g id="ytick_4">
     <g id="line2d_29">
      <g>
       <use style="stroke:#000000;stroke-width:0.5;" x="72.0" xlink:href="#m728421d6d4" y="181.44"/>
      </g>
     </g>
     <g id="line2d_30">
      <g>
       <use style="stroke:#000000;stroke-width:0.5;" x="518.4" xlink:href="#mcb0005524f" y="181.44"/>
      </g>
     </g>
     <g id="text_14">
      <!-- 60000 -->
      <g transform="translate(31.46 184.75125)scale(0.12 -0.12)">
       <use xlink:href="#DejaVuSans-36"/>
       <use x="63.623046875" xlink:href="#DejaVuSans-30"/>
       <use x="127.24609375" xlink:href="#DejaVuSans-30"/>
       <use x="190.869140625" xlink:href="#DejaVuSans-30"/>
       <use x="254.4921875" xlink:href="#DejaVuSans-30"/>
      </g>
     </g>
    </g>
    <g id="ytick_5">
     <g id="line2d_31">
      <g>
       <use style="stroke:#000000;stroke-width:0.5;" x="72.0" xlink:href="#m728421d6d4" y="112.32"/>
      </g>
     </g>
     <g id="line2d_32">
      <g>
       <use style="stroke:#000000;stroke-width:0.5;" x="518.4" xlink:href="#mcb0005524f" y="112.32"/>
      </g>
     </g>
     <g id="text_15">
      <!-- 80000 -->
      <defs>
       <path d="
M31.7812 34.625
Q24.75 34.625 20.7188 30.8594
Q16.7031 27.0938 16.7031 20.5156
Q16.7031 13.9219 20.7188 10.1562
Q24.75 6.39062 31.7812 6.39062
Q38.8125 6.39062 42.8594 10.1719
Q46.9219 13.9688 46.9219 20.5156
Q46.9219 27.0938 42.8906 30.8594
Q38.875 34.625 31.7812 34.625
M21.9219 38.8125
Q15.5781 40.375 12.0312 44.7188
Q8.5 49.0781 8.5 55.3281
Q8.5 64.0625 14.7188 69.1406
Q20.9531 74.2188 31.7812 74.2188
Q42.6719 74.2188 48.875 69.1406
Q55.0781 64.0625 55.0781 55.3281
Q55.0781 49.0781 51.5312 44.7188
Q48 40.375 41.7031 38.8125
Q48.8281 37.1562 52.7969 32.3125
Q56.7812 27.4844 56.7812 20.5156
Q56.7812 9.90625 50.3125 4.23438
Q43.8438 -1.42188 31.7812 -1.42188
Q19.7344 -1.42188 13.25 4.23438
Q6.78125 9.90625 6.78125 20.5156
Q6.78125 27.4844 10.7812 32.3125
Q14.7969 37.1562 21.9219 38.8125
M18.3125 54.3906
Q18.3125 48.7344 21.8438 45.5625
Q25.3906 42.3906 31.7812 42.3906
Q38.1406 42.3906 41.7188 45.5625
Q45.3125 48.7344 45.3125 54.3906
Q45.3125 60.0625 41.7188 63.2344
Q38.1406 66.4062 31.7812 66.4062
Q25.3906 66.4062 21.8438 63.2344
Q18.3125 60.0625 18.3125 54.3906" id="DejaVuSans-38"/>
      </defs>
      <g transform="translate(31.435625 115.63125)scale(0.12 -0.12)">
       <use xlink:href="#DejaVuSans-38"/>
       <use x="63.623046875" xlink:href="#DejaVuSans-30"/>
       <use x="127.24609375" xlink:href="#DejaVuSans-30"/>
       <use x="190.869140625" xlink:href="#DejaVuSans-30"/>
       <use x="254.4921875" xlink:href="#DejaVuSans-30"/>
      </g>
     </g>
    </g>
    <g id="ytick_6">
     <g id="line2d_33">
      <g>
       <use style="stroke:#000000;stroke-width:0.5;" x="72.0" xlink:href="#m728421d6d4" y="43.2"/>
      </g>
     </g>
     <g id="line2d_34">
      <g>
       <use style="stroke:#000000;stroke-width:0.5;" x="518.4" xlink:href="#mcb0005524f" y="43.2"/>
      </g>
     </g>
     <g id="text_16">
      <!-- 100000 -->
      <g transform="translate(24.305 46.51125)scale(0.12 -0.12)">
       <use xlink:href="#DejaVuSans-31"/>
       <use x="63.623046875" xlink:href="#DejaVuSans-30"/>
       <use x="127.24609375" xlink:href="#DejaVuSans-30"/>
       <use x="190.869140625" xlink:href="#DejaVuSans-30"/>
       <use x="254.4921875" xlink:href="#DejaVuSans-30"/>
       <use x="318.115234375" xlink:href="#DejaVuSans-30"/>
      </g>
     </g>
    </g>
   </g>
   <g id="patch_3">
    <path d="
M72 43.2
L518.4 43.2" style="fill:none;stroke:#000000;"/>
   </g>
   <g id="patch_4">
    <path d="
M518.4 388.8
L518.4 43.2" style="fill:none;stroke:#000000;"/>
   </g>
   <g id="patch_5">
    <path d="
M72 388.8
L518.4 388.8" style="fill:none;stroke:#000000;"/>
   </g>
   <g id="patch_6">
    <path d="
M72 388.8
L72 43.2" style="fill:none;stroke:#000000;"/>
   </g>
  </g>
 </g>
 <defs>
  <clipPath id="p7ff5b81e1d">
   <rect height="345.6" width="446.4" x="72.0" y="43.2"/>
  </clipPath>
 </defs>
</svg>
