<?xml version="1.0" encoding="utf-8" standalone="no"?>
<!DOCTYPE svg PUBLIC "-//W3C//DTD SVG 1.1//EN"
  "http://www.w3.org/Graphics/SVG/1.1/DTD/svg11.dtd">
<!-- Created with matplotlib (http://matplotlib.org/) -->
<svg height="432pt" version="1.1" viewBox="0 0 576 432" width="576pt" xmlns="http://www.w3.org/2000/svg" xmlns:xlink="http://www.w3.org/1999/xlink">
 <defs>
  <style type="text/css">
*{stroke-linecap:butt;stroke-linejoin:round;}
  </style>
 </defs>
 <g id="figure_1">
  <g id="patch_1">
   <path d="
M0 432
L576 432
L576 0
L0 0
z
" style="fill:#ffffff;"/>
  </g>
  <g id="axes_1">
   <g id="patch_2">
    <path d="
M72 388.8
L518.4 388.8
L518.4 43.2
L72 43.2
z
" style="fill:#ffffff;"/>
   </g>
   <g id="line2d_1">
    <path clip-path="url(#p7ff5b81e1d)" d="
M72 282.625
L72.0006 77.7989
L72.0034 111.951
L82.648 263.583
L83.9762 278.473
L84.0513 334.936
L84.072 330.428
L84.1378 334.733
L84.1492 333.391
L84.3705 336.491
L84.3705 334.899
L84.3705 334.899
L84.3705 334.899
L84.5027 342.858
L84.6708 342.908
L84.6817 341.755
L84.7002 342.338
L84.7002 342.338
L84.8003 345.357
L84.8084 344.556
L84.8992 345.342
L84.8992 345.342
L84.8992 345.342
L84.8992 343.693
L84.9514 343.753
L85.0868 344.396
L85.3133 346.025
L85.3133 345.324
L85.3504 342.525
L85.813 344.982
L85.813 344.384
L85.8908 340.852
L86.0874 340.915
L86.2394 342.848
L86.2842 342.258
L86.3018 341.599
L86.5475 341.938
L86.6566 340.387
L86.7604 338.982
L86.8012 338.916
L87.0098 339.749
L87.0299 339.623
L87.1068 339.643
L87.1099 339.557
L87.1967 339.088
L87.6 341.365
L87.6451 341.306
L87.7916 340.347
L87.9918 340.635
L88.0583 341.209
L88.0709 341.089
L88.2854 340.861
L88.2885 340.518
L88.5023 341.34
L88.8799 341.68
L88.9689 340.621
L89.1509 340.461
L89.4417 341.314
L89.4417 340.984
L89.8543 340.544
L89.8543 340.21
L90.0848 340.23
L90.2235 341.16
L90.2241 340.638
L90.2269 339.945
L90.2396 340.059
L90.6528 340.728
L90.6595 340.704
L91.0582 341.201
L91.0968 341.501
L91.1339 341.263
L91.1339 341.263
L91.1734 340.68
L91.4945 340.77
L91.9654 341.063
L92.1119 341.74
L92.1119 341.245
L92.302 341.28
L92.4076 340.224
L92.5439 340.518
L92.5439 340.283
L92.5439 340.017
L92.5439 340.017
L92.5439 340.017
L92.5835 340.565
L92.5835 340.338
L92.7182 340.326
L92.7204 340.134
L92.9833 340.299
L92.9833 340.044
L93.0362 340.173
L93.2834 340.619
L93.3316 338.738
L93.4373 338.996
L93.7169 339.122
L93.9706 339.98
L94.2735 340.158
L94.2735 339.692
L94.5497 339.829
L94.5497 339.607
L94.6625 339.815
L94.7058 339.752
L94.7058 339.572
L94.7058 339.572
L94.7058 339.572
L94.792 339.787
L94.877 339.593
L95.5411 340.02
L95.5411 339.8
L95.5577 339.83
L95.9357 339.932
L95.9681 339.565
L96.3572 340.032
L96.5549 339.923
L96.5549 339.709
L96.7889 339.934
L96.7923 339.824
L96.8735 339.286
L97.147 338.939
L97.7122 339.137
L97.7502 338.959
L97.892 339.168
L98.426 339.32
L98.5682 339.245
L98.596 338.614
L98.7183 338.503
L98.8046 338.853
L99.1439 338.797
L99.1507 339.022
L100.08 340.61
L100.086 340.515
L100.875 340.88
L100.885 340.823
L101.312 340.68
L101.749 340.767
L101.837 340.009
L101.866 339.748
L102.193 339.504
L102.267 338.169
L102.297 338.256
L102.659 338.925
L102.659 338.811
L102.709 338.561
L103.188 338.908
L103.19 338.672
L103.787 339.714
L104.285 339.744
L104.371 339.879
L105.411 340.404
L105.484 340.138
L105.639 340.306
L105.65 340.214
L105.65 340.062
L105.805 339.871
L106.201 339.941
L106.21 339.848
L106.212 339.777
L106.974 341.012
L106.974 340.896
L107.201 341.084
L107.976 341.266
L107.976 341.12
L107.976 341.12
L107.976 341.12
L108.014 341.347
L108.063 341.213
L108.293 341.149
L108.293 340.734
L108.361 340.874
L108.469 341.145
L108.47 341.064
L108.717 340.964
L108.823 340.543
L108.988 340.746
L108.99 341.085
L108.991 340.806
L109.245 340.708
L109.391 341.015
L109.397 340.913
L109.666 341.079
L109.666 340.954
L109.715 340.353
L110.222 340.787
L111.177 340.969
L111.647 341.176
L111.678 341.003
L111.702 340.666
L111.703 340.683
L113.767 342.008
L113.767 341.913
L114.372 341.895
L114.372 341.786
L114.761 341.911
L114.767 341.812
L114.983 341.467
L115.273 341.379
L115.277 340.978
L115.59 340.968
L115.68 340.181
L115.985 340.011
L115.985 339.897
L116.536 340.309
L116.536 340.232
L116.557 340.481
L116.782 340.405
L117.491 340.637
L117.494 340.467
L117.877 340.601
L118.379 340.619
L118.612 341.03
L118.615 340.937
L118.832 340.824
L119.725 341.225
L119.726 341.215
L119.726 341.215
L119.726 341.215
L119.728 341.298
L119.728 341.298
L119.728 341.298
L119.728 341.194
L120.06 341.223
L120.06 341.116
L120.166 340.37
L120.178 340.077
L120.601 339.981
L120.601 339.904
L120.601 339.904
L120.601 339.904
L120.611 340.143
L120.611 340.054
L121.028 339.902
L121.342 340.223
L121.342 340.134
L121.402 339.98
L121.504 339.459
L121.823 339.37
L121.866 339.273
L121.97 339.576
L122.411 339.662
L122.792 339.827
L122.792 339.731
L122.853 339.306
L123.71 339.8
L123.715 339.658
L123.715 339.379
L124.149 339.29
L124.15 339.152
L125.953 339.905
L125.953 339.817
L125.953 339.738
L126.53 340.042
L126.545 340.003
L126.575 339.762
L126.92 339.604
L126.972 339.72
L126.972 339.634
L126.972 339.634
L126.979 339.486
L127.02 339.585
L127.533 339.617
L127.935 339.92
L127.939 339.843
L127.962 339.648
L128.019 339.742
L128.132 339.86
L128.132 339.78
L128.137 339.542
L129.095 339.879
L129.141 339.936
L129.145 339.887
L129.407 339.778
L129.517 339.554
L129.765 339.5
L129.94 339.749
L129.94 339.664
L130.107 339.703
L130.107 339.622
L130.149 339.404
L130.39 339.165
L130.391 338.942
L130.392 338.947
L130.565 339.044
L130.576 338.973
L130.636 338.809
L131.314 338.987
L131.318 338.679
L132.214 339.223
L132.442 339.223
L132.442 339.145
L133.08 339.4
L133.085 339.319
L133.212 339.048
L133.258 339.088
L133.518 339.187
L133.518 339.111
L133.52 338.969
L133.859 338.936
L133.958 339.134
L134.855 339.782
L134.855 339.748
L134.861 339.841
L134.861 339.766
L134.861 339.766
L134.861 339.474
L135.13 339.432
L135.168 339.278
L135.327 339.67
L135.328 339.514
L135.76 339.662
L136.21 339.832
L136.21 339.352
L136.616 339.27
L136.616 339.205
L137.412 339.482
L137.412 339.337
L137.558 339.385
L137.558 339.323
L137.558 339.136
L137.564 339.162
L138.22 338.933
L138.227 338.555
L138.303 338.598
L138.358 338.745
L138.358 338.614
L138.358 338.614
L138.358 338.543
L138.358 338.543
L138.358 338.543
L138.666 339.014
L138.793 339.109
L138.793 339.045
L138.91 339.292
L138.91 339.227
L139.098 339.334
L139.193 339.416
L139.193 339.291
L139.218 339.18
L139.218 339.18
L139.218 339.18
L139.341 339.451
L139.375 339.413
L139.53 338.772
L139.567 338.791
L139.567 338.733
L139.567 338.733
L139.631 338.603
L140.035 338.632
L140.522 339.246
L140.576 339.417
L140.852 339.593
L140.897 339.515
L140.907 339.349
L140.976 339.465
L141.111 339.399
L141.113 339.349
L141.305 339.389
L141.307 339.287
L141.311 339.17
L141.336 339.213
L141.336 339.213
L141.381 339.33
L141.441 339.237
L141.537 339.302
L141.806 339.385
L141.806 339.325
L141.879 339.221
L141.924 339.254
L141.924 339.198
L141.924 339.198
L141.931 338.864
L142.035 338.892
L142.382 338.924
L142.453 338.942
L142.784 338.815
L142.877 338.747
L144.508 338.456
L144.598 338.67
L144.615 338.448
L144.615 338.339
L144.919 338.495
L144.92 338.392
L144.92 338.356
L144.974 338.389
L145.1 338.698
L145.128 338.51
L145.577 337.838
L145.775 337.946
L145.813 337.868
L145.904 337.735
L146.251 337.93
L146.256 337.772
L146.33 337.794
L147.969 337.869
L148.022 337.767
L148.043 337.799
L148.186 337.752
L148.879 338.357
L148.891 338.211
L149.835 337.781
L150.301 337.857
L150.303 337.797
L150.303 337.751
L150.303 337.751
L150.303 337.751
L150.414 337.799
L150.42 337.758
L150.686 337.77
L151.563 337.852
L151.692 338.046
L151.735 337.922
L151.76 337.935
L151.761 337.901
L151.761 337.901
L151.782 337.825
L152.2 337.937
L152.2 337.847
L152.2 337.801
L152.24 337.805
L152.574 338.154
L152.64 338.079
L152.658 337.858
L153.123 338.111
L153.132 338.013
L153.188 337.9
L153.531 337.932
L153.55 338.009
L153.557 337.958
L153.557 337.958
L153.564 337.9
L153.911 337.94
L155.277 337.962
L155.327 337.883
L155.327 337.808
L156.074 337.959
L156.074 337.918
L156.208 338.065
L156.232 337.957
L157.029 338.14
L157.497 338.075
L157.52 337.999
L157.747 338.094
L157.808 337.861
L157.835 337.872
L157.905 337.877
L158.138 338.12
L158.346 338.011
L158.438 338.096
L158.456 338.118
L158.456 338.118
L158.456 338.118
L158.456 338.077
L158.498 338.077
L159.639 338.216
L159.639 338.177
L159.725 337.952
L160.022 338.003
L160.022 337.923
L160.022 337.883
L160.041 337.893
L160.041 337.893
L160.204 337.875
L160.667 338.02
L160.718 338.056
L160.737 337.954
L160.946 337.855
L161.024 337.718
L161.196 337.886
L161.537 337.95
L161.537 337.876
L161.576 337.794
L162.192 337.933
L162.415 338.028
L162.415 337.958
L162.471 337.821
L162.96 337.78
L163.066 337.713
L163.157 337.601
L163.175 337.51
L163.235 337.544
L163.37 337.581
L163.379 337.516
L163.609 337.567
L163.667 337.623
L163.671 337.52
L164.639 337.604
L164.639 337.573
L164.927 337.39
L165.108 337.542
L165.917 337.533
L167.581 338.012
L167.583 337.981
L167.583 337.981
L167.583 337.981
L167.736 338.003
L167.75 337.954
L167.75 337.922
L169.043 338.261
L170.369 338.447
L170.374 338.421
L170.383 338.393
L170.383 338.393
L170.383 338.393
L170.55 338.445
L173.394 338.554
L173.499 338.445
L173.507 338.395
L173.593 338.4
L174.238 338.465
L174.624 338.599
L174.624 338.567
L174.624 338.567
L174.624 338.567
L174.888 338.678
L175.602 338.578
L175.801 338.573
L177.404 338.693
L177.433 338.673
L178.43 338.815
L178.436 338.705
L179.528 338.725
L179.755 338.539
L180.145 338.51
L180.96 338.696
L181.781 338.566
L182.212 338.733
L182.239 338.693
L182.277 338.694
L182.648 338.722
L182.676 338.541
L182.898 338.659
L184.14 338.549
L184.678 338.662
L184.696 338.645
L184.993 338.6
L184.993 338.573
L185.09 338.449
L185.364 338.423
L185.364 338.395
L185.489 338.338
L187.354 338.641
L187.631 338.678
L187.635 338.626
L187.635 338.597
L187.7 338.621
L187.978 338.658
L187.983 338.603
L188.632 338.692
L189.383 338.917
L189.584 338.806
L189.99 338.917
L190.268 338.908
L190.351 338.836
L190.49 338.87
L190.5 338.845
L191.177 338.904
L191.241 338.819
L191.405 338.81
L191.405 338.786
L192.423 338.936
L192.693 339.022
L196.243 339.78
L200.211 339.663
L201.124 339.805
L201.328 339.803
L201.532 339.776
L202.852 339.938
L202.852 339.894
L202.885 339.779
L202.955 339.823
L204.054 339.973
L204.22 340.022
L204.229 340
L205.084 340.103
L205.084 340.035
L205.182 339.974
L205.43 339.873
L206.031 339.807
L206.315 339.79
L207.659 339.86
L207.72 339.797
L208.053 339.814
L208.651 339.936
L208.656 339.904
L208.764 339.865
L209.501 339.938
L212.135 339.552
L212.267 339.489
L212.906 339.445
L212.985 339.455
L213.402 339.418
L213.481 339.398
L213.986 339.318
L214.037 339.269
L216.207 339.393
L217.098 339.589
L217.15 339.508
L217.208 339.513
L217.532 339.458
L217.532 339.419
L217.532 339.383
L217.889 339.397
L217.963 339.358
L218.497 339.397
L219.586 339.588
L219.819 339.61
L221.514 339.75
L221.514 339.732
L221.61 339.695
L225.094 339.806
L225.094 339.778
L225.096 339.738
L225.64 339.78
L228.611 339.697
L228.775 339.705
L231.396 339.556
L232.487 339.641
L232.487 339.632
L232.487 339.605
L232.564 339.607
L234.558 339.898
L234.869 339.973
L235.35 340.109
L238.405 340.21
L239.007 340.346
L239.702 340.28
L240.718 340.342
L240.769 340.297
L241.951 340.366
L242.071 340.445
L242.071 340.431
L242.456 340.34
L242.456 340.324
L242.966 340.261
L243.865 340.248
L243.872 340.228
L244.468 340.254
L245.237 340.367
L245.65 340.293
L245.65 340.279
L247.013 340.121
L247.847 340.086
L247.907 340.041
L250.359 340.053
L250.429 340.027
L252.743 340.169
L253.437 340.191
L253.437 340.177
L253.65 340.141
L254.855 340.091
L255.639 340.122
L256.156 340.156
L256.156 340.154
L259.254 340.133
L259.653 340.145
L259.68 340.118
L260.292 340.159
L260.362 340.1
L261.225 340.027
L261.225 340.014
L261.256 339.991
L262.04 339.987
L262.097 339.952
L262.119 339.968
L262.846 339.988
L262.851 339.949
L263.049 339.959
L263.049 339.96
L263.929 340.116
L263.929 340.108
L264.7 340.091
L264.732 340.056
L264.756 340.074
L266.04 340.229
L266.04 340.216
L266.712 340.185
L266.763 340.134
L268.205 340.108
L268.205 340.096
L269.651 340.199
L269.967 340.176
L270.337 340.172
L270.6 340.129
L270.6 340.108
L270.6 340.086
L272.946 340.331
L277.726 340.334
L277.726 340.322
L278.796 340.426
L278.796 340.413
L279.742 340.542
L280.84 340.611
L280.84 340.591
L284.15 340.586
L284.238 340.544
L285.526 340.564
L285.628 340.548
L289.16 340.786
L289.16 340.775
L289.211 340.786
L289.735 340.794
L289.735 340.772
L291.418 340.854
L291.418 340.842
L291.422 340.82
L293.175 340.848
L293.429 340.84
L294.092 340.893
L294.092 340.882
L294.102 340.875
L295.196 340.939
L295.381 340.904
L296.085 340.933
L299.641 340.761
L299.775 340.723
L300.721 340.712
L303.442 340.857
L304.128 340.919
L304.128 340.908
L304.577 340.918
L305.653 340.957
L305.68 340.948
L306.793 341.002
L307.956 341.011
L307.956 340.989
L307.97 340.973
L311.822 341.014
L312.383 341.015
L314.497 341.053
L318.135 341.085
L319.112 341.216
L320.875 341.2
L321.524 341.256
L322.854 341.164
L322.979 341.145
L323.396 341.089
L323.913 341.094
L324.891 341.107
L326.145 341.021
L326.145 341.013
L326.63 340.955
L329.932 341.021
L329.932 341.012
L329.974 341.019
L329.974 341.019
L330.567 341.045
L332.592 341.042
L332.667 341.019
L334.02 340.861
L334.066 340.836
L336.143 340.88
L336.143 340.872
L336.217 340.855
L336.245 340.862
L336.459 340.853
L343.717 340.798
L345.168 340.913
L345.168 340.905
L345.497 340.972
L345.502 340.94
L346.197 340.935
L346.662 340.959
L348.718 341.012
L349.678 341.068
L349.678 341.061
L349.785 340.985
L350.865 340.969
L351.374 341.027
L351.411 341.016
L352.009 341.002
L353.062 341.037
L353.771 341.071
L353.998 341.038
L354.41 341.057
L356.436 341.072
L356.45 341.054
L359.551 340.951
L359.552 340.921
L359.565 340.922
L362.031 341.089
L362.031 341.082
L362.054 341.082
L362.666 341.103
L365.308 341.159
L365.308 341.144
L365.54 341.156
L365.961 341.184
L366.541 341.225
L366.541 341.218
L367.524 341.165
L369.994 341.328
L370.115 341.337
L370.281 341.336
L371.584 341.332
L371.969 341.345
L372.826 341.315
L372.891 341.3
L372.924 341.305
L374.481 341.239
L374.518 341.209
L374.588 341.215
L374.671 341.192
L375.821 341.189
L375.821 341.181
L376.196 341.17
L376.697 341.167
L376.697 341.154
L376.697 341.147
L376.697 341.147
L376.697 341.147
L377.753 341.302
L377.753 341.295
L377.767 341.276
L378.643 341.219
L378.643 341.206
L378.676 341.175
L378.713 341.177
L380.349 341.265
L380.864 341.247
L381.128 341.215
L381.972 341.316
L385.652 341.486
L385.652 341.48
L385.754 341.408
L387.877 341.374
L388.405 341.363
L390.463 341.345
L390.463 341.338
L390.533 341.318
L391.926 341.35
L391.926 341.344
L392.385 341.344
L396.758 341.333
L397.374 341.351
L399.979 341.276
L399.979 341.27
L399.979 341.263
L400.067 341.266
L401.106 341.156
L401.157 341.147
L402.487 341.133
L402.487 341.127
L402.645 341.108
L407.878 341.154
L407.878 341.141
L408.051 341.116
L408.504 341.08
L412.08 341.043
L412.08 341.017
L429.577 340.633
L430.733 340.7
L430.733 340.689
L435.8 340.578
L436.048 340.56
L436.69 340.561
L436.69 340.556
L439.83 340.52
L440.559 340.517
L440.559 340.506
L447.549 340.408
L447.555 340.399
L447.555 340.399
L447.555 340.399
L447.994 340.362
L448.736 340.315
L448.952 340.29
L452.067 340.178
L452.53 340.173
L453.223 340.144
L453.223 340.139
L453.321 340.096
L453.705 340.105
L454.7 340.084
L454.743 340.065
L455.534 340.001
L455.534 339.995
L456.096 339.995
L457.4 339.989
L457.4 339.979
L457.444 339.984
L459.001 339.92
L459.001 339.915
L459.088 339.903
L460.138 339.899
L460.138 339.894
L466.776 339.919
L466.819 339.902
L475.558 339.696
L476.132 339.665
L476.132 339.657
L476.133 339.642
L477.035 339.609
L477.041 339.605
L478.08 339.564
L478.086 339.545
L478.179 339.558
L480.818 339.342
L481.009 339.383
L483.902 339.398
L484.106 339.371
L485.459 339.364
L485.459 339.359
L485.471 339.35
L485.508 339.353
L487.709 339.339
L487.709 339.334
L487.721 339.318
L488.926 339.218
L488.926 339.213
L491.12 339.187
L492.35 339.233
L492.603 339.182
L493.765 339.146
L499 338.966
L499.569 338.923
L500.187 338.887
L500.187 338.878
L508.048 338.614
L508.048 338.61
L508.048 338.61
L508.048 338.61
L509.062 338.608
L509.062 338.604
L510.236 338.617
L510.236 338.609
L510.31 338.611
L510.841 338.592
L517.974 338.335
L518.4 338.362
L518.4 338.362" style="fill:none;stroke:#ff0000;stroke-linecap:square;"/>
   </g>
   <g id="line2d_2">
    <path clip-path="url(#p7ff5b81e1d)" d="
M72 255.364
L81.2729 333.79
L83.9799 358.878
L84.0219 365.863
L84.0219 360.245
L84.0219 360.245
L84.0571 346.249
L84.1273 348.644
L84.1434 347.73
L84.3498 351.307
L84.4959 358.006
L84.5695 357.467
L84.6817 357.562
L84.7045 356.938
L84.7017 356.038
L84.7017 356.038
L84.7017 356.038
L84.7898 357.541
L84.8096 357.036
L84.8467 356.542
L84.9088 356.724
L84.9508 356.666
L84.9792 356.689
L84.9916 355.206
L85.1322 355.04
L85.143 354.783
L85.3127 354.243
L85.3136 352.926
L85.3834 353.163
L85.626 352.815
L85.7305 352.1
L85.8191 353.474
L86.0935 354.89
L86.0948 354.433
L86.1668 354.168
L86.2372 355.272
L86.3018 354.931
L86.5385 354.779
L86.5459 354.453
L86.5459 354.453
L86.5459 354.453
L86.7106 355.388
L86.7106 354.932
L86.7728 355.016
L86.7962 354.204
L86.9514 354.252
L86.9569 353.431
L87.104 353.874
L87.4183 355.257
L87.4205 354.9
L87.8027 355.59
L87.8033 355.237
L87.9918 355.374
L88.0422 354.288
L88.4044 354.759
L88.4696 353.993
L88.9646 355.088
L89.2047 355.251
L89.2211 355.039
L89.4408 355.066
L89.4408 354.756
L89.7031 354.738
L90.2034 355.198
L90.2056 354.682
L90.2445 355.173
L90.4945 355.168
L90.4986 354.874
L90.6422 355.09
L90.7349 354.092
L91.0585 354.146
L91.0946 353.518
L91.5146 354.085
L91.8298 354.111
L91.8839 353.611
L92.1122 353.074
L92.5829 354.008
L92.5832 353.553
L93.0346 353.902
L93.3118 354.647
L93.3121 354.456
L93.4197 353.735
L93.437 353.538
L93.708 353.416
L93.7135 353.21
L93.86 353.709
L93.8829 353.578
L94.2435 353.72
L94.3143 352.989
L94.6227 353.121
L94.656 352.929
L94.7698 353.152
L94.7868 352.996
L95.5429 353.408
L95.626 352.7
L96.3556 353.122
L96.3556 352.909
L97.4668 354.441
L97.892 354.564
L97.8939 354.394
L98.253 354.43
L98.2576 354.272
L98.7289 354.805
L98.7384 354.703
L98.7443 354.337
L99.151 354.29
L99.1692 353.768
L99.4541 354.026
L99.6095 353.869
L99.6615 353.567
L99.8385 353.584
L100.868 354.331
L100.88 354.261
L100.888 353.084
L102.266 353.975
L102.266 353.86
L102.267 353.748
L102.29 353.859
L102.29 353.859
L102.325 353.969
L102.325 353.969
L102.325 353.969
L102.433 353.54
L102.519 353.432
L102.522 353.467
L102.659 353.69
L102.708 353.587
L102.713 353.134
L103.166 353.535
L103.188 353.253
L103.425 353.396
L103.715 353.629
L103.728 353.539
L103.799 353.392
L104.289 353.375
L104.29 353.08
L104.416 353.125
L104.798 353.102
L106.484 354.638
L106.522 354.57
L106.777 354.683
L106.785 354.615
L106.972 354.563
L107.983 355.187
L107.996 355.077
L108 354.679
L108.294 354.708
L108.345 354.994
L108.403 354.863
L108.988 355.431
L108.989 355.407
L108.989 355.204
L109.246 355.321
L109.246 355.188
L109.391 355.318
L109.391 355.185
L109.399 355.099
L109.828 355.358
L109.86 355.191
L110.91 355.544
L111.48 355.549
L111.703 355.937
L112.198 355.916
L112.975 356.222
L113.508 356.298
L114.372 356.423
L114.373 356.192
L114.814 356.244
L115.591 356.583
L115.591 356.478
L115.68 356.472
L116.225 356.578
L116.225 356.348
L116.424 356.178
L116.455 355.807
L116.536 355.744
L117.041 356.087
L118.149 356.455
L118.149 356.341
L118.149 356.23
L118.382 356.44
L118.384 356.284
L118.585 356.253
L119.727 356.984
L119.728 356.396
L120.151 356.421
L120.604 356.784
L121.502 357.233
L121.502 357.14
L121.81 357.123
L121.866 357.234
L121.945 357.175
L121.952 356.693
L122.383 356.796
L122.383 356.702
L122.405 356.523
L122.411 356.551
L122.635 356.399
L124.617 357.299
L124.618 357.13
L125.052 357.322
L126.388 357.355
L127.018 357.748
L127.018 357.66
L127.02 357.465
L127.518 357.26
L127.533 357.181
L128.044 357.179
L129.145 357.578
L129.145 357.491
L129.721 357.526
L129.94 357.606
L129.94 357.524
L129.94 357.352
L129.944 357.358
L131.314 357.844
L131.315 357.794
L131.319 357.306
L131.691 357.155
L131.691 356.488
L132.654 356.682
L132.654 356.604
L133.08 356.393
L133.08 356.104
L133.213 356.13
L133.514 356.344
L134.683 356.253
L134.683 356.036
L134.866 356.324
L135.175 356.444
L135.175 356.367
L135.216 355.936
L135.328 356.115
L135.33 355.986
L135.59 355.845
L135.59 355.781
L135.767 355.748
L135.767 355.637
L135.971 355.607
L136.635 355.821
L136.635 355.747
L137.318 355.658
L137.318 355.589
L138.213 356.015
L138.282 356.094
L138.314 355.987
L138.402 355.765
L138.403 355.63
L138.898 356.214
L138.919 355.984
L138.971 355.896
L138.971 355.835
L139.364 356.309
L139.364 356.243
L139.544 356.414
L140.158 356.568
L140.158 356.503
L140.158 356.443
L140.465 356.479
L140.594 356.782
L140.915 356.764
L140.97 356.505
L141.056 356.657
L141.06 356.496
L141.06 356.434
L141.06 356.434
L141.06 356.434
L141.121 356.536
L141.313 356.433
L141.313 356.372
L141.802 356.764
L141.802 356.704
L141.804 356.588
L141.908 356.666
L141.992 356.805
L142.007 356.706
L142.264 356.748
L142.264 356.632
L142.374 356.456
L142.685 356.46
L142.786 356.311
L142.877 356.366
L142.877 356.252
L142.877 356.195
L143.162 356.294
L143.162 356.24
L143.251 356.006
L143.251 355.893
L144.014 356.216
L144.089 356.143
L144.249 356.049
L144.977 356.259
L144.978 356.207
L145.153 356.373
L145.183 356.351
L145.338 356.209
L145.338 356.101
L145.394 356.123
L145.812 356.309
L146.318 356.139
L146.677 356.167
L146.681 356.119
L146.681 356.069
L146.741 356.076
L146.845 356.162
L147.198 356.093
L147.46 356.054
L147.983 356.164
L147.984 356.082
L148.145 355.985
L148.688 356.281
L148.688 356.23
L148.688 356.179
L148.867 356.122
L148.87 356.034
L148.89 356.072
L149.079 356.101
L149.519 356.449
L149.519 356.405
L149.796 356.494
L149.8 356.417
L149.8 356.366
L150.705 356.55
L150.774 356.507
L151.255 356.718
L151.56 356.734
L151.56 356.685
L151.628 356.328
L151.665 356.336
L152.24 356.484
L152.24 356.443
L152.24 356.353
L152.547 356.453
L152.547 356.368
L152.55 356.168
L152.851 356.309
L152.852 356.22
L152.943 356.069
L153.188 355.994
L153.85 356.05
L154.312 356.11
L154.312 356.021
L154.336 355.881
L154.468 355.92
L154.468 355.875
L154.909 355.632
L154.982 355.531
L155.258 355.652
L155.263 355.617
L155.682 355.685
L155.682 355.641
L156.007 355.538
L156.228 355.516
L156.588 355.49
L157.547 355.715
L158.174 356.012
L158.183 355.936
L159.015 355.999
L159.022 355.924
L159.107 355.81
L159.511 355.946
L159.611 355.84
L159.731 355.909
L160.022 355.92
L160.927 356.282
L160.932 356.25
L160.932 356.21
L160.983 356.228
L161.08 356.201
L161.08 356.162
L161.08 356.122
L161.138 356.137
L161.924 356.177
L161.942 356.078
L163.124 356.185
L163.353 356.247
L163.361 356.179
L163.642 356.144
L163.642 356.106
L163.676 355.999
L164.028 355.937
L164.147 355.899
L164.303 355.742
L165.098 355.888
L165.437 355.814
L165.646 355.645
L166.726 355.557
L166.726 355.489
L166.823 355.541
L168.445 355.798
L168.948 355.761
L169.029 355.733
L169.989 355.838
L171.231 355.838
L171.373 355.873
L171.373 355.839
L172.061 355.836
L172.061 355.803
L172.126 355.81
L172.181 355.821
L172.191 355.726
L172.205 355.698
L173.053 355.631
L173.085 355.597
L173.507 355.594
L174.239 355.484
L174.239 355.452
L174.749 355.516
L176.172 355.497
L176.186 355.311
L176.265 355.32
L177.317 355.238
L178.388 355.393
L178.43 355.334
L179.296 355.433
L179.528 355.277
L179.76 355.349
L179.76 355.261
L182.819 355.298
L184.029 355.381
L184.131 355.272
L184.896 355.322
L184.998 355.311
L185.54 355.408
L185.54 355.379
L186.481 355.252
L188.02 355.209
L188.4 355.24
L188.414 355.22
L188.567 355.268
L188.595 355.199
L189.299 355.258
L189.41 355.232
L189.73 355.241
L190.217 355.329
L190.398 355.277
L190.509 355.185
L193.114 354.995
L193.536 355.011
L193.573 354.998
L194.347 355.032
L194.503 354.969
L196.675 355.191
L198.217 355.21
L198.296 355.194
L198.973 355.188
L198.973 355.163
L200.586 355.289
L201.314 355.439
L201.314 355.391
L201.406 355.392
L201.791 355.445
L201.791 355.421
L202.7 355.475
L203.613 355.529
L203.784 355.514
L205.536 355.73
L205.956 355.787
L207.076 355.793
L207.738 355.879
L208.132 355.813
L209.527 355.94
L209.778 355.834
L209.833 355.777
L211.09 355.846
L211.091 355.81
L213.059 355.954
L213.059 355.934
L213.963 356.075
L213.973 356.038
L217.319 356.161
L217.407 356.116
L217.922 356.115
L218.506 356.112
L218.506 356.091
L219.646 355.951
L219.767 355.937
L220.212 355.88
L220.263 355.804
L221.806 355.918
L221.806 355.899
L222.078 355.942
L222.817 355.974
L222.817 355.954
L222.844 355.948
L223.744 355.956
L224.207 355.888
L224.207 355.869
L228.93 355.705
L232.305 356.014
L233.102 355.972
L233.102 355.954
L233.204 355.914
L234.311 355.956
L234.363 355.907
L235.573 356.028
L235.573 355.993
L235.818 355.908
L237.793 355.872
L237.793 355.854
L237.844 355.78
L237.913 355.77
L238.522 355.872
L238.522 355.832
L240.25 355.789
L240.25 355.756
L240.296 355.732
L247.432 355.868
L247.432 355.855
L248.477 355.921
L248.477 355.906
L249.191 355.949
L249.58 355.953
L251.824 356.132
L251.824 356.117
L251.93 356.083
L252.755 355.979
L252.783 355.895
L263.194 356.638
L263.194 356.625
L263.44 356.611
L275.779 357.09
L277.925 357.054
L278.611 357.024
L280.247 356.976
L280.84 357.07
L284.331 357.107
L285.03 357.135
L286.139 357.095
L287.784 357.229
L288.516 357.215
L298.584 357.209
L298.625 357.196
L300.308 357.26
L300.308 357.249
L300.371 357.255
L301.439 357.276
L302.858 357.32
L303.025 357.298
L305.198 357.339
L307.664 357.278
L308.414 357.31
L309.565 357.371
L310.561 357.398
L311.488 357.345
L316.409 357.381
L317.692 357.452
L317.692 357.421
L317.769 357.413
L318.571 357.369
L318.571 357.33
L318.571 357.31
L318.599 357.312
L321.042 357.373
L321.454 357.37
L323.299 357.404
L324.564 357.386
L326.182 357.542
L328.425 357.635
L328.43 357.627
L329.779 357.627
L329.779 357.618
L330.368 357.484
L330.423 357.479
L330.836 357.459
L330.836 357.45
L330.924 357.409
L332.161 357.449
L332.353 357.419
L333.056 357.358
L333.112 357.318
L336.138 357.353
L336.138 357.343
L336.138 357.343
L336.138 357.343
L336.579 357.295
L336.579 357.286
L336.644 357.26
L337.038 357.172
L337.258 357.18
L338.081 357.157
L339.866 357.196
L340.358 357.189
L340.358 357.18
L340.358 357.171
L340.358 357.171
L340.358 357.171
L340.774 357.143
L340.774 357.126
L340.774 357.117
L340.774 357.117
L340.774 357.117
L341.312 357.117
L341.312 357.108
L342.209 357.109
L342.92 357.06
L342.924 357.034
L342.995 357.034
L346.558 357.025
L347.513 357.053
L347.513 357.044
L347.55 357.024
L348.737 356.991
L348.737 356.983
L348.751 356.966
L348.839 356.971
L351.949 356.827
L352.267 356.832
L353.034 356.848
L353.034 356.84
L353.734 356.839
L355.263 356.889
L355.787 356.812
L357.507 356.856
L357.614 356.855
L359.338 356.849
L359.338 356.842
L359.764 356.704
L360.673 356.739
L360.77 356.729
L362.513 356.768
L362.513 356.729
L362.694 356.691
L366.926 356.801
L366.926 356.793
L367.069 356.753
L367.633 356.73
L368.65 356.685
L371.538 356.746
L373.1 356.717
L373.137 356.701
L373.206 356.711
L373.345 356.698
L373.522 356.672
L374.523 356.735
L374.894 356.743
L375.417 356.715
L376.196 356.73
L376.196 356.723
L376.247 356.729
L376.868 356.738
L376.933 356.738
L379.501 356.787
L380.025 356.754
L384.187 356.873
L384.224 356.822
L385.629 356.886
L385.791 356.841
L388.433 356.833
L393.356 356.862
L393.356 356.85
L393.393 356.821
L397.351 356.899
L399.145 356.959
L399.145 356.953
L401.829 356.895
L401.829 356.889
L406.537 356.957
L406.537 356.95
L409.847 356.933
L424.052 356.915
L424.052 356.909
L424.083 356.889
L425.881 356.866
L433.334 356.838
L433.396 356.819
L434.657 356.764
L434.75 356.726
L436.004 356.681
L436.462 356.663
L437.191 356.62
L437.197 356.609
L437.228 356.611
L438.118 356.591
L438.118 356.586
L438.26 356.593
L440.707 356.556
L440.707 356.55
L440.726 356.54
L441.319 356.479
L441.319 356.473
L441.851 356.407
L442.932 356.332
L442.932 356.327
L442.945 356.317
L443.007 356.321
L443.668 356.269
L443.68 356.261
L460.868 355.621
L470.379 355.07
L473.265 355.095
L473.265 355.091
L473.265 355.091
L473.265 355.091
L474.106 355.107
L477.184 354.994
L477.282 354.961
L479.701 354.787
L479.701 354.782
L481.263 354.714
L481.281 354.698
L481.366 354.709
L482.177 354.659
L482.387 354.639
L484.087 354.536
L484.087 354.531
L484.588 354.523
L486.732 354.465
L487.27 354.431
L488.16 354.377
L488.16 354.357
L488.16 354.349
L490.181 354.286
L490.181 354.281
L490.205 354.261
L490.28 354.263
L491.287 354.171
L491.293 354.152
L493.84 354.121
L493.84 354.117
L493.926 354.104
L495.996 354.079
L496.04 354.073
L497.226 354.027
L497.251 354.008
L497.313 354.008
L518.375 353.335
L518.375 353.335" style="fill:none;stroke:#008000;stroke-linecap:square;"/>
   </g>
   <g id="matplotlib.axis_1">
    <g id="xtick_1">
     <g id="line2d_3">
      <defs>
       <path d="
M0 0
L0 -4" id="m93b0483c22" style="stroke:#000000;stroke-width:0.5;"/>
      </defs>
      <g>
       <use style="stroke:#000000;stroke-width:0.5;" x="112.595583387" xlink:href="#m93b0483c22" y="388.8"/>
      </g>
     </g>
     <g id="line2d_4">
      <defs>
       <path d="
M0 0
L0 4" id="m741efc42ff" style="stroke:#000000;stroke-width:0.5;"/>
      </defs>
      <g>
       <use style="stroke:#000000;stroke-width:0.5;" x="112.595583387" xlink:href="#m741efc42ff" y="43.2"/>
      </g>
     </g>
     <g id="text_1">
      <!-- Nov 2013 -->
      <defs>
       <path d="
M9.8125 72.9062
L23.0938 72.9062
L55.4219 11.9219
L55.4219 72.9062
L64.9844 72.9062
L64.9844 0
L51.7031 0
L19.3906 60.9844
L19.3906 0
L9.8125 0
z
" id="DejaVuSans-4e"/>
       <path d="
M30.6094 48.3906
Q23.3906 48.3906 19.1875 42.75
Q14.9844 37.1094 14.9844 27.2969
Q14.9844 17.4844 19.1562 11.8438
Q23.3438 6.20312 30.6094 6.20312
Q37.7969 6.20312 41.9844 11.8594
Q46.1875 17.5312 46.1875 27.2969
Q46.1875 37.0156 41.9844 42.7031
Q37.7969 48.3906 30.6094 48.3906
M30.6094 56
Q42.3281 56 49.0156 48.375
Q55.7188 40.7656 55.7188 27.2969
Q55.7188 13.875 49.0156 6.21875
Q42.3281 -1.42188 30.6094 -1.42188
Q18.8438 -1.42188 12.1719 6.21875
Q5.51562 13.875 5.51562 27.2969
Q5.51562 40.7656 12.1719 48.375
Q18.8438 56 30.6094 56" id="DejaVuSans-6f"/>
       <path d="
M40.5781 39.3125
Q47.6562 37.7969 51.625 33
Q55.6094 28.2188 55.6094 21.1875
Q55.6094 10.4062 48.1875 4.48438
Q40.7656 -1.42188 27.0938 -1.42188
Q22.5156 -1.42188 17.6562 -0.515625
Q12.7969 0.390625 7.625 2.20312
L7.625 11.7188
Q11.7188 9.32812 16.5938 8.10938
Q21.4844 6.89062 26.8125 6.89062
Q36.0781 6.89062 40.9375 10.5469
Q45.7969 14.2031 45.7969 21.1875
Q45.7969 27.6406 41.2812 31.2656
Q36.7656 34.9062 28.7188 34.9062
L20.2188 34.9062
L20.2188 43.0156
L29.1094 43.0156
Q36.375 43.0156 40.2344 45.9219
Q44.0938 48.8281 44.0938 54.2969
Q44.0938 59.9062 40.1094 62.9062
Q36.1406 65.9219 28.7188 65.9219
Q24.6562 65.9219 20.0156 65.0312
Q15.375 64.1562 9.8125 62.3125
L9.8125 71.0938
Q15.4375 72.6562 20.3438 73.4375
Q25.25 74.2188 29.5938 74.2188
Q40.8281 74.2188 47.3594 69.1094
Q53.9062 64.0156 53.9062 55.3281
Q53.9062 49.2656 50.4375 45.0938
Q46.9688 40.9219 40.5781 39.3125" id="DejaVuSans-33"/>
       <path d="
M12.4062 8.29688
L28.5156 8.29688
L28.5156 63.9219
L10.9844 60.4062
L10.9844 69.3906
L28.4219 72.9062
L38.2812 72.9062
L38.2812 8.29688
L54.3906 8.29688
L54.3906 0
L12.4062 0
z
" id="DejaVuSans-31"/>
       <path d="
M31.7812 66.4062
Q24.1719 66.4062 20.3281 58.9062
Q16.5 51.4219 16.5 36.375
Q16.5 21.3906 20.3281 13.8906
Q24.1719 6.39062 31.7812 6.39062
Q39.4531 6.39062 43.2812 13.8906
Q47.125 21.3906 47.125 36.375
Q47.125 51.4219 43.2812 58.9062
Q39.4531 66.4062 31.7812 66.4062
M31.7812 74.2188
Q44.0469 74.2188 50.5156 64.5156
Q56.9844 54.8281 56.9844 36.375
Q56.9844 17.9688 50.5156 8.26562
Q44.0469 -1.42188 31.7812 -1.42188
Q19.5312 -1.42188 13.0625 8.26562
Q6.59375 17.9688 6.59375 36.375
Q6.59375 54.8281 13.0625 64.5156
Q19.5312 74.2188 31.7812 74.2188" id="DejaVuSans-30"/>
       <path id="DejaVuSans-20"/>
       <path d="
M19.1875 8.29688
L53.6094 8.29688
L53.6094 0
L7.32812 0
L7.32812 8.29688
Q12.9375 14.1094 22.625 23.8906
Q32.3281 33.6875 34.8125 36.5312
Q39.5469 41.8438 41.4219 45.5312
Q43.3125 49.2188 43.3125 52.7812
Q43.3125 58.5938 39.2344 62.25
Q35.1562 65.9219 28.6094 65.9219
Q23.9688 65.9219 18.8125 64.3125
Q13.6719 62.7031 7.8125 59.4219
L7.8125 69.3906
Q13.7656 71.7812 18.9375 73
Q24.125 74.2188 28.4219 74.2188
Q39.75 74.2188 46.4844 68.5469
Q53.2188 62.8906 53.2188 53.4219
Q53.2188 48.9219 51.5312 44.8906
Q49.8594 40.875 45.4062 35.4062
Q44.1875 33.9844 37.6406 27.2188
Q31.1094 20.4531 19.1875 8.29688" id="DejaVuSans-32"/>
       <path d="
M2.98438 54.6875
L12.5 54.6875
L29.5938 8.79688
L46.6875 54.6875
L56.2031 54.6875
L35.6875 0
L23.4844 0
z
" id="DejaVuSans-76"/>
      </defs>
      <g transform="translate(84.1883958866 401.918125)scale(0.12 -0.12)">
       <use xlink:href="#DejaVuSans-4e"/>
       <use x="74.8046875" xlink:href="#DejaVuSans-6f"/>
       <use x="135.986328125" xlink:href="#DejaVuSans-76"/>
       <use x="195.166015625" xlink:href="#DejaVuSans-20"/>
       <use x="226.953125" xlink:href="#DejaVuSans-32"/>
       <use x="290.576171875" xlink:href="#DejaVuSans-30"/>
       <use x="354.19921875" xlink:href="#DejaVuSans-31"/>
       <use x="417.822265625" xlink:href="#DejaVuSans-33"/>
      </g>
     </g>
    </g>
    <g id="xtick_2">
     <g id="line2d_5">
      <g>
       <use style="stroke:#000000;stroke-width:0.5;" x="153.533864187" xlink:href="#m93b0483c22" y="388.8"/>
      </g>
     </g>
     <g id="line2d_6">
      <g>
       <use style="stroke:#000000;stroke-width:0.5;" x="153.533864187" xlink:href="#m741efc42ff" y="43.2"/>
      </g>
     </g>
     <g id="text_2">
      <!-- Feb 2014 -->
      <defs>
       <path d="
M9.8125 72.9062
L51.7031 72.9062
L51.7031 64.5938
L19.6719 64.5938
L19.6719 43.1094
L48.5781 43.1094
L48.5781 34.8125
L19.6719 34.8125
L19.6719 0
L9.8125 0
z
" id="DejaVuSans-46"/>
       <path d="
M56.2031 29.5938
L56.2031 25.2031
L14.8906 25.2031
Q15.4844 15.9219 20.4844 11.0625
Q25.4844 6.20312 34.4219 6.20312
Q39.5938 6.20312 44.4531 7.46875
Q49.3125 8.73438 54.1094 11.2812
L54.1094 2.78125
Q49.2656 0.734375 44.1875 -0.34375
Q39.1094 -1.42188 33.8906 -1.42188
Q20.7969 -1.42188 13.1562 6.1875
Q5.51562 13.8125 5.51562 26.8125
Q5.51562 40.2344 12.7656 48.1094
Q20.0156 56 32.3281 56
Q43.3594 56 49.7812 48.8906
Q56.2031 41.7969 56.2031 29.5938
M47.2188 32.2344
Q47.125 39.5938 43.0938 43.9844
Q39.0625 48.3906 32.4219 48.3906
Q24.9062 48.3906 20.3906 44.1406
Q15.875 39.8906 15.1875 32.1719
z
" id="DejaVuSans-65"/>
       <path d="
M48.6875 27.2969
Q48.6875 37.2031 44.6094 42.8438
Q40.5312 48.4844 33.4062 48.4844
Q26.2656 48.4844 22.1875 42.8438
Q18.1094 37.2031 18.1094 27.2969
Q18.1094 17.3906 22.1875 11.75
Q26.2656 6.10938 33.4062 6.10938
Q40.5312 6.10938 44.6094 11.75
Q48.6875 17.3906 48.6875 27.2969
M18.1094 46.3906
Q20.9531 51.2656 25.2656 53.625
Q29.5938 56 35.5938 56
Q45.5625 56 51.7812 48.0938
Q58.0156 40.1875 58.0156 27.2969
Q58.0156 14.4062 51.7812 6.48438
Q45.5625 -1.42188 35.5938 -1.42188
Q29.5938 -1.42188 25.2656 0.953125
Q20.9531 3.32812 18.1094 8.20312
L18.1094 0
L9.07812 0
L9.07812 75.9844
L18.1094 75.9844
z
" id="DejaVuSans-62"/>
       <path d="
M37.7969 64.3125
L12.8906 25.3906
L37.7969 25.3906
z

M35.2031 72.9062
L47.6094 72.9062
L47.6094 25.3906
L58.0156 25.3906
L58.0156 17.1875
L47.6094 17.1875
L47.6094 0
L37.7969 0
L37.7969 17.1875
L4.89062 17.1875
L4.89062 26.7031
z
" id="DejaVuSans-34"/>
      </defs>
      <g transform="translate(126.071676687 401.918125)scale(0.12 -0.12)">
       <use xlink:href="#DejaVuSans-46"/>
       <use x="52.01953125" xlink:href="#DejaVuSans-65"/>
       <use x="113.54296875" xlink:href="#DejaVuSans-62"/>
       <use x="177.01953125" xlink:href="#DejaVuSans-20"/>
       <use x="208.806640625" xlink:href="#DejaVuSans-32"/>
       <use x="272.4296875" xlink:href="#DejaVuSans-30"/>
       <use x="336.052734375" xlink:href="#DejaVuSans-31"/>
       <use x="399.67578125" xlink:href="#DejaVuSans-34"/>
      </g>
     </g>
    </g>
    <g id="xtick_3">
     <g id="line2d_7">
      <g>
       <use style="stroke:#000000;stroke-width:0.5;" x="193.137201049" xlink:href="#m93b0483c22" y="388.8"/>
      </g>
     </g>
     <g id="line2d_8">
      <g>
       <use style="stroke:#000000;stroke-width:0.5;" x="193.137201049" xlink:href="#m741efc42ff" y="43.2"/>
      </g>
     </g>
     <g id="text_3">
      <!-- May 2014 -->
      <defs>
       <path d="
M9.8125 72.9062
L24.5156 72.9062
L43.1094 23.2969
L61.8125 72.9062
L76.5156 72.9062
L76.5156 0
L66.8906 0
L66.8906 64.0156
L48.0938 14.0156
L38.1875 14.0156
L19.3906 64.0156
L19.3906 0
L9.8125 0
z
" id="DejaVuSans-4d"/>
       <path d="
M32.1719 -5.07812
Q28.375 -14.8438 24.75 -17.8125
Q21.1406 -20.7969 15.0938 -20.7969
L7.90625 -20.7969
L7.90625 -13.2812
L13.1875 -13.2812
Q16.8906 -13.2812 18.9375 -11.5156
Q21 -9.76562 23.4844 -3.21875
L25.0938 0.875
L2.98438 54.6875
L12.5 54.6875
L29.5938 11.9219
L46.6875 54.6875
L56.2031 54.6875
z
" id="DejaVuSans-79"/>
       <path d="
M34.2812 27.4844
Q23.3906 27.4844 19.1875 25
Q14.9844 22.5156 14.9844 16.5
Q14.9844 11.7188 18.1406 8.90625
Q21.2969 6.10938 26.7031 6.10938
Q34.1875 6.10938 38.7031 11.4062
Q43.2188 16.7031 43.2188 25.4844
L43.2188 27.4844
z

M52.2031 31.2031
L52.2031 0
L43.2188 0
L43.2188 8.29688
Q40.1406 3.32812 35.5469 0.953125
Q30.9531 -1.42188 24.3125 -1.42188
Q15.9219 -1.42188 10.9531 3.29688
Q6 8.01562 6 15.9219
Q6 25.1406 12.1719 29.8281
Q18.3594 34.5156 30.6094 34.5156
L43.2188 34.5156
L43.2188 35.4062
Q43.2188 41.6094 39.1406 45
Q35.0625 48.3906 27.6875 48.3906
Q23 48.3906 18.5469 47.2656
Q14.1094 46.1406 10.0156 43.8906
L10.0156 52.2031
Q14.9375 54.1094 19.5781 55.0469
Q24.2188 56 28.6094 56
Q40.4844 56 46.3438 49.8438
Q52.2031 43.7031 52.2031 31.2031" id="DejaVuSans-61"/>
      </defs>
      <g transform="translate(163.891888549 401.918125)scale(0.12 -0.12)">
       <use xlink:href="#DejaVuSans-4d"/>
       <use x="86.279296875" xlink:href="#DejaVuSans-61"/>
       <use x="147.55859375" xlink:href="#DejaVuSans-79"/>
       <use x="206.73828125" xlink:href="#DejaVuSans-20"/>
       <use x="238.525390625" xlink:href="#DejaVuSans-32"/>
       <use x="302.1484375" xlink:href="#DejaVuSans-30"/>
       <use x="365.771484375" xlink:href="#DejaVuSans-31"/>
       <use x="429.39453125" xlink:href="#DejaVuSans-34"/>
      </g>
     </g>
    </g>
    <g id="xtick_4">
     <g id="line2d_9">
      <g>
       <use style="stroke:#000000;stroke-width:0.5;" x="234.075481849" xlink:href="#m93b0483c22" y="388.8"/>
      </g>
     </g>
     <g id="line2d_10">
      <g>
       <use style="stroke:#000000;stroke-width:0.5;" x="234.075481849" xlink:href="#m741efc42ff" y="43.2"/>
      </g>
     </g>
     <g id="text_4">
      <!-- Aug 2014 -->
      <defs>
       <path d="
M8.5 21.5781
L8.5 54.6875
L17.4844 54.6875
L17.4844 21.9219
Q17.4844 14.1562 20.5 10.2656
Q23.5312 6.39062 29.5938 6.39062
Q36.8594 6.39062 41.0781 11.0312
Q45.3125 15.6719 45.3125 23.6875
L45.3125 54.6875
L54.2969 54.6875
L54.2969 0
L45.3125 0
L45.3125 8.40625
Q42.0469 3.42188 37.7188 1
Q33.4062 -1.42188 27.6875 -1.42188
Q18.2656 -1.42188 13.375 4.4375
Q8.5 10.2969 8.5 21.5781
M31.1094 56
z
" id="DejaVuSans-75"/>
       <path d="
M45.4062 27.9844
Q45.4062 37.75 41.375 43.1094
Q37.3594 48.4844 30.0781 48.4844
Q22.8594 48.4844 18.8281 43.1094
Q14.7969 37.75 14.7969 27.9844
Q14.7969 18.2656 18.8281 12.8906
Q22.8594 7.51562 30.0781 7.51562
Q37.3594 7.51562 41.375 12.8906
Q45.4062 18.2656 45.4062 27.9844
M54.3906 6.78125
Q54.3906 -7.17188 48.1875 -13.9844
Q42 -20.7969 29.2031 -20.7969
Q24.4688 -20.7969 20.2656 -20.0938
Q16.0625 -19.3906 12.1094 -17.9219
L12.1094 -9.1875
Q16.0625 -11.3281 19.9219 -12.3438
Q23.7812 -13.375 27.7812 -13.375
Q36.625 -13.375 41.0156 -8.76562
Q45.4062 -4.15625 45.4062 5.17188
L45.4062 9.625
Q42.625 4.78125 38.2812 2.39062
Q33.9375 0 27.875 0
Q17.8281 0 11.6719 7.65625
Q5.51562 15.3281 5.51562 27.9844
Q5.51562 40.6719 11.6719 48.3281
Q17.8281 56 27.875 56
Q33.9375 56 38.2812 53.6094
Q42.625 51.2188 45.4062 46.3906
L45.4062 54.6875
L54.3906 54.6875
z
" id="DejaVuSans-67"/>
       <path d="
M34.1875 63.1875
L20.7969 26.9062
L47.6094 26.9062
z

M28.6094 72.9062
L39.7969 72.9062
L67.5781 0
L57.3281 0
L50.6875 18.7031
L17.8281 18.7031
L11.1875 0
L0.78125 0
z
" id="DejaVuSans-41"/>
      </defs>
      <g transform="translate(205.519231849 401.918125)scale(0.12 -0.12)">
       <use xlink:href="#DejaVuSans-41"/>
       <use x="68.408203125" xlink:href="#DejaVuSans-75"/>
       <use x="131.787109375" xlink:href="#DejaVuSans-67"/>
       <use x="195.263671875" xlink:href="#DejaVuSans-20"/>
       <use x="227.05078125" xlink:href="#DejaVuSans-32"/>
       <use x="290.673828125" xlink:href="#DejaVuSans-30"/>
       <use x="354.296875" xlink:href="#DejaVuSans-31"/>
       <use x="417.919921875" xlink:href="#DejaVuSans-34"/>
      </g>
     </g>
    </g>
    <g id="xtick_5">
     <g id="line2d_11">
      <g>
       <use style="stroke:#000000;stroke-width:0.5;" x="275.01376265" xlink:href="#m93b0483c22" y="388.8"/>
      </g>
     </g>
     <g id="line2d_12">
      <g>
       <use style="stroke:#000000;stroke-width:0.5;" x="275.01376265" xlink:href="#m741efc42ff" y="43.2"/>
      </g>
     </g>
     <g id="text_5">
      <!-- Nov 2014 -->
      <g transform="translate(246.46220015 401.918125)scale(0.12 -0.12)">
       <use xlink:href="#DejaVuSans-4e"/>
       <use x="74.8046875" xlink:href="#DejaVuSans-6f"/>
       <use x="135.986328125" xlink:href="#DejaVuSans-76"/>
       <use x="195.166015625" xlink:href="#DejaVuSans-20"/>
       <use x="226.953125" xlink:href="#DejaVuSans-32"/>
       <use x="290.576171875" xlink:href="#DejaVuSans-30"/>
       <use x="354.19921875" xlink:href="#DejaVuSans-31"/>
       <use x="417.822265625" xlink:href="#DejaVuSans-34"/>
      </g>
     </g>
    </g>
    <g id="xtick_6">
     <g id="line2d_13">
      <g>
       <use style="stroke:#000000;stroke-width:0.5;" x="315.95204345" xlink:href="#m93b0483c22" y="388.8"/>
      </g>
     </g>
     <g id="line2d_14">
      <g>
       <use style="stroke:#000000;stroke-width:0.5;" x="315.95204345" xlink:href="#m741efc42ff" y="43.2"/>
      </g>
     </g>
     <g id="text_6">
      <!-- Feb 2015 -->
      <defs>
       <path d="
M10.7969 72.9062
L49.5156 72.9062
L49.5156 64.5938
L19.8281 64.5938
L19.8281 46.7344
Q21.9688 47.4688 24.1094 47.8281
Q26.2656 48.1875 28.4219 48.1875
Q40.625 48.1875 47.75 41.5
Q54.8906 34.8125 54.8906 23.3906
Q54.8906 11.625 47.5625 5.09375
Q40.2344 -1.42188 26.9062 -1.42188
Q22.3125 -1.42188 17.5469 -0.640625
Q12.7969 0.140625 7.71875 1.70312
L7.71875 11.625
Q12.1094 9.23438 16.7969 8.0625
Q21.4844 6.89062 26.7031 6.89062
Q35.1562 6.89062 40.0781 11.3281
Q45.0156 15.7656 45.0156 23.3906
Q45.0156 31 40.0781 35.4375
Q35.1562 39.8906 26.7031 39.8906
Q22.75 39.8906 18.8125 39.0156
Q14.8906 38.1406 10.7969 36.2812
z
" id="DejaVuSans-35"/>
      </defs>
      <g transform="translate(288.67735595 401.918125)scale(0.12 -0.12)">
       <use xlink:href="#DejaVuSans-46"/>
       <use x="52.01953125" xlink:href="#DejaVuSans-65"/>
       <use x="113.54296875" xlink:href="#DejaVuSans-62"/>
       <use x="177.01953125" xlink:href="#DejaVuSans-20"/>
       <use x="208.806640625" xlink:href="#DejaVuSans-32"/>
       <use x="272.4296875" xlink:href="#DejaVuSans-30"/>
       <use x="336.052734375" xlink:href="#DejaVuSans-31"/>
       <use x="399.67578125" xlink:href="#DejaVuSans-35"/>
      </g>
     </g>
    </g>
    <g id="xtick_7">
     <g id="line2d_15">
      <g>
       <use style="stroke:#000000;stroke-width:0.5;" x="355.555380312" xlink:href="#m93b0483c22" y="388.8"/>
      </g>
     </g>
     <g id="line2d_16">
      <g>
       <use style="stroke:#000000;stroke-width:0.5;" x="355.555380312" xlink:href="#m741efc42ff" y="43.2"/>
      </g>
     </g>
     <g id="text_7">
      <!-- May 2015 -->
      <g transform="translate(326.497567812 401.918125)scale(0.12 -0.12)">
       <use xlink:href="#DejaVuSans-4d"/>
       <use x="86.279296875" xlink:href="#DejaVuSans-61"/>
       <use x="147.55859375" xlink:href="#DejaVuSans-79"/>
       <use x="206.73828125" xlink:href="#DejaVuSans-20"/>
       <use x="238.525390625" xlink:href="#DejaVuSans-32"/>
       <use x="302.1484375" xlink:href="#DejaVuSans-30"/>
       <use x="365.771484375" xlink:href="#DejaVuSans-31"/>
       <use x="429.39453125" xlink:href="#DejaVuSans-35"/>
      </g>
     </g>
    </g>
    <g id="xtick_8">
     <g id="line2d_17">
      <g>
       <use style="stroke:#000000;stroke-width:0.5;" x="396.493661112" xlink:href="#m93b0483c22" y="388.8"/>
      </g>
     </g>
     <g id="line2d_18">
      <g>
       <use style="stroke:#000000;stroke-width:0.5;" x="396.493661112" xlink:href="#m741efc42ff" y="43.2"/>
      </g>
     </g>
     <g id="text_8">
      <!-- Aug 2015 -->
      <g transform="translate(368.124911112 401.918125)scale(0.12 -0.12)">
       <use xlink:href="#DejaVuSans-41"/>
       <use x="68.408203125" xlink:href="#DejaVuSans-75"/>
       <use x="131.787109375" xlink:href="#DejaVuSans-67"/>
       <use x="195.263671875" xlink:href="#DejaVuSans-20"/>
       <use x="227.05078125" xlink:href="#DejaVuSans-32"/>
       <use x="290.673828125" xlink:href="#DejaVuSans-30"/>
       <use x="354.296875" xlink:href="#DejaVuSans-31"/>
       <use x="417.919921875" xlink:href="#DejaVuSans-35"/>
      </g>
     </g>
    </g>
    <g id="xtick_9">
     <g id="line2d_19">
      <g>
       <use style="stroke:#000000;stroke-width:0.5;" x="437.431941913" xlink:href="#m93b0483c22" y="388.8"/>
      </g>
     </g>
     <g id="line2d_20">
      <g>
       <use style="stroke:#000000;stroke-width:0.5;" x="437.431941913" xlink:href="#m741efc42ff" y="43.2"/>
      </g>
     </g>
     <g id="text_9">
      <!-- Nov 2015 -->
      <g transform="translate(409.067879413 401.918125)scale(0.12 -0.12)">
       <use xlink:href="#DejaVuSans-4e"/>
       <use x="74.8046875" xlink:href="#DejaVuSans-6f"/>
       <use x="135.986328125" xlink:href="#DejaVuSans-76"/>
       <use x="195.166015625" xlink:href="#DejaVuSans-20"/>
       <use x="226.953125" xlink:href="#DejaVuSans-32"/>
       <use x="290.576171875" xlink:href="#DejaVuSans-30"/>
       <use x="354.19921875" xlink:href="#DejaVuSans-31"/>
       <use x="417.822265625" xlink:href="#DejaVuSans-35"/>
      </g>
     </g>
    </g>
    <g id="xtick_10">
     <g id="line2d_21">
      <g>
       <use style="stroke:#000000;stroke-width:0.5;" x="478.370222714" xlink:href="#m93b0483c22" y="388.8"/>
      </g>
     </g>
     <g id="line2d_22">
      <g>
       <use style="stroke:#000000;stroke-width:0.5;" x="478.370222714" xlink:href="#m741efc42ff" y="43.2"/>
      </g>
     </g>
     <g id="text_10">
      <!-- Feb 2016 -->
      <defs>
       <path d="
M33.0156 40.375
Q26.375 40.375 22.4844 35.8281
Q18.6094 31.2969 18.6094 23.3906
Q18.6094 15.5312 22.4844 10.9531
Q26.375 6.39062 33.0156 6.39062
Q39.6562 6.39062 43.5312 10.9531
Q47.4062 15.5312 47.4062 23.3906
Q47.4062 31.2969 43.5312 35.8281
Q39.6562 40.375 33.0156 40.375
M52.5938 71.2969
L52.5938 62.3125
Q48.875 64.0625 45.0938 64.9844
Q41.3125 65.9219 37.5938 65.9219
Q27.8281 65.9219 22.6719 59.3281
Q17.5312 52.7344 16.7969 39.4062
Q19.6719 43.6562 24.0156 45.9219
Q28.375 48.1875 33.5938 48.1875
Q44.5781 48.1875 50.9531 41.5156
Q57.3281 34.8594 57.3281 23.3906
Q57.3281 12.1562 50.6875 5.35938
Q44.0469 -1.42188 33.0156 -1.42188
Q20.3594 -1.42188 13.6719 8.26562
Q6.98438 17.9688 6.98438 36.375
Q6.98438 53.6562 15.1875 63.9375
Q23.3906 74.2188 37.2031 74.2188
Q40.9219 74.2188 44.7031 73.4844
Q48.4844 72.75 52.5938 71.2969" id="DejaVuSans-36"/>
      </defs>
      <g transform="translate(450.949285214 401.918125)scale(0.12 -0.12)">
       <use xlink:href="#DejaVuSans-46"/>
       <use x="52.01953125" xlink:href="#DejaVuSans-65"/>
       <use x="113.54296875" xlink:href="#DejaVuSans-62"/>
       <use x="177.01953125" xlink:href="#DejaVuSans-20"/>
       <use x="208.806640625" xlink:href="#DejaVuSans-32"/>
       <use x="272.4296875" xlink:href="#DejaVuSans-30"/>
       <use x="336.052734375" xlink:href="#DejaVuSans-31"/>
       <use x="399.67578125" xlink:href="#DejaVuSans-36"/>
      </g>
     </g>
    </g>
   </g>
   <g id="matplotlib.axis_2">
    <g id="ytick_1">
     <g id="line2d_23">
      <defs>
       <path d="
M0 0
L4 0" id="m728421d6d4" style="stroke:#000000;stroke-width:0.5;"/>
      </defs>
      <g>
       <use style="stroke:#000000;stroke-width:0.5;" x="72.0" xlink:href="#m728421d6d4" y="388.8"/>
      </g>
     </g>
     <g id="line2d_24">
      <defs>
       <path d="
M0 0
L-4 0" id="mcb0005524f" style="stroke:#000000;stroke-width:0.5;"/>
      </defs>
      <g>
       <use style="stroke:#000000;stroke-width:0.5;" x="518.4" xlink:href="#mcb0005524f" y="388.8"/>
      </g>
     </g>
     <g id="text_11">
      <!-- 0 -->
      <g transform="translate(61.953125 392.11125)scale(0.12 -0.12)">
       <use xlink:href="#DejaVuSans-30"/>
      </g>
     </g>
    </g>
    <g id="ytick_2">
     <g id="line2d_25">
      <g>
       <use style="stroke:#000000;stroke-width:0.5;" x="72.0" xlink:href="#m728421d6d4" y="339.428571429"/>
      </g>
     </g>
     <g id="line2d_26">
      <g>
       <use style="stroke:#000000;stroke-width:0.5;" x="518.4" xlink:href="#mcb0005524f" y="339.428571429"/>
      </g>
     </g>
     <g id="text_12">
      <!-- 5000 -->
      <g transform="translate(39.183125 342.739821429)scale(0.12 -0.12)">
       <use xlink:href="#DejaVuSans-35"/>
       <use x="63.623046875" xlink:href="#DejaVuSans-30"/>
       <use x="127.24609375" xlink:href="#DejaVuSans-30"/>
       <use x="190.869140625" xlink:href="#DejaVuSans-30"/>
      </g>
     </g>
    </g>
    <g id="ytick_3">
     <g id="line2d_27">
      <g>
       <use style="stroke:#000000;stroke-width:0.5;" x="72.0" xlink:href="#m728421d6d4" y="290.057142857"/>
      </g>
     </g>
     <g id="line2d_28">
      <g>
       <use style="stroke:#000000;stroke-width:0.5;" x="518.4" xlink:href="#mcb0005524f" y="290.057142857"/>
      </g>
     </g>
     <g id="text_13">
      <!-- 10000 -->
      <g transform="translate(31.94 293.368392857)scale(0.12 -0.12)">
       <use xlink:href="#DejaVuSans-31"/>
       <use x="63.623046875" xlink:href="#DejaVuSans-30"/>
       <use x="127.24609375" xlink:href="#DejaVuSans-30"/>
       <use x="190.869140625" xlink:href="#DejaVuSans-30"/>
       <use x="254.4921875" xlink:href="#DejaVuSans-30"/>
      </g>
     </g>
    </g>
    <g id="ytick_4">
     <g id="line2d_29">
      <g>
       <use style="stroke:#000000;stroke-width:0.5;" x="72.0" xlink:href="#m728421d6d4" y="240.685714286"/>
      </g>
     </g>
     <g id="line2d_30">
      <g>
       <use style="stroke:#000000;stroke-width:0.5;" x="518.4" xlink:href="#mcb0005524f" y="240.685714286"/>
      </g>
     </g>
     <g id="text_14">
      <!-- 15000 -->
      <g transform="translate(31.94 243.996964286)scale(0.12 -0.12)">
       <use xlink:href="#DejaVuSans-31"/>
       <use x="63.623046875" xlink:href="#DejaVuSans-35"/>
       <use x="127.24609375" xlink:href="#DejaVuSans-30"/>
       <use x="190.869140625" xlink:href="#DejaVuSans-30"/>
       <use x="254.4921875" xlink:href="#DejaVuSans-30"/>
      </g>
     </g>
    </g>
    <g id="ytick_5">
     <g id="line2d_31">
      <g>
       <use style="stroke:#000000;stroke-width:0.5;" x="72.0" xlink:href="#m728421d6d4" y="191.314285714"/>
      </g>
     </g>
     <g id="line2d_32">
      <g>
       <use style="stroke:#000000;stroke-width:0.5;" x="518.4" xlink:href="#mcb0005524f" y="191.314285714"/>
      </g>
     </g>
     <g id="text_15">
      <!-- 20000 -->
      <g transform="translate(31.50125 194.625535714)scale(0.12 -0.12)">
       <use xlink:href="#DejaVuSans-32"/>
       <use x="63.623046875" xlink:href="#DejaVuSans-30"/>
       <use x="127.24609375" xlink:href="#DejaVuSans-30"/>
       <use x="190.869140625" xlink:href="#DejaVuSans-30"/>
       <use x="254.4921875" xlink:href="#DejaVuSans-30"/>
      </g>
     </g>
    </g>
    <g id="ytick_6">
     <g id="line2d_33">
      <g>
       <use style="stroke:#000000;stroke-width:0.5;" x="72.0" xlink:href="#m728421d6d4" y="141.942857143"/>
      </g>
     </g>
     <g id="line2d_34">
      <g>
       <use style="stroke:#000000;stroke-width:0.5;" x="518.4" xlink:href="#mcb0005524f" y="141.942857143"/>
      </g>
     </g>
     <g id="text_16">
      <!-- 25000 -->
      <g transform="translate(31.50125 145.254107143)scale(0.12 -0.12)">
       <use xlink:href="#DejaVuSans-32"/>
       <use x="63.623046875" xlink:href="#DejaVuSans-35"/>
       <use x="127.24609375" xlink:href="#DejaVuSans-30"/>
       <use x="190.869140625" xlink:href="#DejaVuSans-30"/>
       <use x="254.4921875" xlink:href="#DejaVuSans-30"/>
      </g>
     </g>
    </g>
    <g id="ytick_7">
     <g id="line2d_35">
      <g>
       <use style="stroke:#000000;stroke-width:0.5;" x="72.0" xlink:href="#m728421d6d4" y="92.5714285714"/>
      </g>
     </g>
     <g id="line2d_36">
      <g>
       <use style="stroke:#000000;stroke-width:0.5;" x="518.4" xlink:href="#mcb0005524f" y="92.5714285714"/>
      </g>
     </g>
     <g id="text_17">
      <!-- 30000 -->
      <g transform="translate(31.536875 95.8826785714)scale(0.12 -0.12)">
       <use xlink:href="#DejaVuSans-33"/>
       <use x="63.623046875" xlink:href="#DejaVuSans-30"/>
       <use x="127.24609375" xlink:href="#DejaVuSans-30"/>
       <use x="190.869140625" xlink:href="#DejaVuSans-30"/>
       <use x="254.4921875" xlink:href="#DejaVuSans-30"/>
      </g>
     </g>
    </g>
    <g id="ytick_8">
     <g id="line2d_37">
      <g>
       <use style="stroke:#000000;stroke-width:0.5;" x="72.0" xlink:href="#m728421d6d4" y="43.2"/>
      </g>
     </g>
     <g id="line2d_38">
      <g>
       <use style="stroke:#000000;stroke-width:0.5;" x="518.4" xlink:href="#mcb0005524f" y="43.2"/>
      </g>
     </g>
     <g id="text_18">
      <!-- 35000 -->
      <g transform="translate(31.536875 46.51125)scale(0.12 -0.12)">
       <use xlink:href="#DejaVuSans-33"/>
       <use x="63.623046875" xlink:href="#DejaVuSans-35"/>
       <use x="127.24609375" xlink:href="#DejaVuSans-30"/>
       <use x="190.869140625" xlink:href="#DejaVuSans-30"/>
       <use x="254.4921875" xlink:href="#DejaVuSans-30"/>
      </g>
     </g>
    </g>
   </g>
   <g id="patch_3">
    <path d="
M72 43.2
L518.4 43.2" style="fill:none;stroke:#000000;"/>
   </g>
   <g id="patch_4">
    <path d="
M518.4 388.8
L518.4 43.2" style="fill:none;stroke:#000000;"/>
   </g>
   <g id="patch_5">
    <path d="
M72 388.8
L518.4 388.8" style="fill:none;stroke:#000000;"/>
   </g>
   <g id="patch_6">
    <path d="
M72 388.8
L72 43.2" style="fill:none;stroke:#000000;"/>
   </g>
  </g>
 </g>
 <defs>
  <clipPath id="p7ff5b81e1d">
   <rect height="345.6" width="446.4" x="72.0" y="43.2"/>
  </clipPath>
 </defs>
</svg>
